<?xml version="1.0" encoding="UTF-8"?>
<svg width="59px" height="46px" viewBox="0 0 59 46" version="1.1" xmlns="http://www.w3.org/2000/svg" xmlns:xlink="http://www.w3.org/1999/xlink">
    <title>Average rating across all courses by the CBP provider</title>
    <g id="Icons-" stroke="none" stroke-width="1" fill="none" fill-rule="evenodd">
        <g id="Dashboard-icons-" transform="translate(-72.000000, -324.000000)">
            <g id="Average-rating-across-all-courses-by-the-CBP-provider" transform="translate(66.000000, 311.000000)">
                <g id="Group-14" transform="translate(6.000000, 13.000000)" fill-rule="nonzero">
                    <g id="Group-13">
                        <g id="Group-3" transform="translate(1.000000, 4.000000)">
                            <path d="M53.6597031,3.19544413 L53.6597031,37.5481955 L2.34117187,37.5481955 L2.34117187,3.19544413 C2.34117187,1.43111337 3.76873437,0 5.52989062,0 L50.4710937,0 C52.2321406,0 53.6597031,1.43111337 53.6597031,3.19544413 Z" id="Path" fill="#73737F"></path>
                            <polygon id="Path" fill="#73737F" points="2.34117187 32.4460987 53.6597031 32.4460987 53.6597031 37.5481955 2.34117187 37.5481955"></polygon>
                            <polygon id="Path" fill="#6EC17D" transform="translate(28.000438, 17.238765) rotate(90.000000) translate(-28.000438, -17.238765) " points="14.7148876 -4.4767664 41.2859874 -4.4767664 41.2859874 38.9542961 14.7148876 38.9542961"></polygon>
                            <path d="M56,34.9157666 L0.000984375001,34.9157666 L0.000984375001,37.3529385 C0.000984375001,39.9194471 2.076375,42 4.63651563,42 L51.3644688,42 C53.9246094,42 56,39.9194471 56,37.3529385 L56,34.9157666 Z" id="Path" fill="#888891"></path>
                            <path d="M31.2325625,38.1780954 L25.1588594,38.1780954 C23.4143281,38.1780954 22,36.760359 22,35.0113788 L22,34.9157666 L34.3913125,34.9157666 L34.3913125,35.0113788 C34.3913125,36.760359 32.9770937,38.1780954 31.2325625,38.1780954 Z" id="Path" fill="#73737F"></path>
                            <path d="M9.70232813,42 L4.63651563,42 C2.0755,42 0,39.9194471 0,37.3530482 L0,34.9157666 L5.0658125,34.9157666 L5.0658125,37.3530482 C5.0658125,39.9194471 7.1413125,42 9.70232813,42 Z" id="Path" fill="#73737F"></path>
                        </g>
                        <g id="Group-10" transform="translate(26.000000, 18.000000)">
                            <path d="M1.80703626,0.165074665 L6.24738325,2.75062029 L6.2546542,3.02978345 C7.05037432,3.4931502 6.86026747,4.34770463 6.06454735,4.81107138 L1.81095768,7.32264163 C1.00976392,7.78919275 0.097054979,7.41213061 0.097054979,6.48547876 L0.000326784441,6.38872288 L0.000326784441,1.20293453 C0.000245088331,0.276201034 1.00584251,-0.301394804 1.80703626,0.165074665 L1.80703626,0.165074665 Z" id="Path" fill="#F8FEFF"></path>
                            <path d="M6.38618494,4.907419 L1.80695457,7.5738803 C1.00576081,8.03985987 0,7.46201908 0,6.53585714 L0,6.38864123 L6.24730155,2.75070194 L6.38618494,2.83145432 C7.18157827,3.29490272 7.18157827,4.4439706 6.38618494,4.907419 Z" id="Path" fill="#DFF8FF"></path>
                        </g>
                        <g id="Group" transform="translate(9.000000, 30.000000)">
                            <g transform="translate(14.000000, 0.000000)" id="Path">
                                <path d="M13,16 L0,16 L0,11.2 C0,8.54904 2.05422941,6.4 4.58823529,6.4 L8.41176471,6.4 C10.9457706,6.4 13,8.54904 13,11.2 L13,16 Z" fill="#FFF261"></path>
                                <path d="M6.5,16 L13,16 L13,11.2 C13,8.54904 10.9457706,6.4 8.41176471,6.4 L6.5,6.4 L6.5,16 Z" fill="#FFCD00"></path>
                                <path d="M6.5,8 C4.39170588,8 2.67647059,6.2056 2.67647059,4 C2.67647059,1.7944 4.39170588,0 6.5,0 C8.60829412,0 10.3235294,1.7944 10.3235294,4 C10.3235294,6.2056 8.60829412,8 6.5,8 Z" fill="#FFE4C1"></path>
                                <path d="M6.5,0 L6.5,8 C8.60829412,8 10.3235294,6.2056 10.3235294,4 C10.3235294,1.7944 8.60829412,0 6.5,0 Z" fill="#FDD1A3"></path>
                            </g>
                            <g transform="translate(27.000000, 0.000000)" id="Path">
                                <path d="M11.8529412,16 L0,16 L0,11.2 C0,8.54904 2.05422941,6.4 4.58823529,6.4 L8.41176471,6.4 C10.9457706,6.4 13,8.54904 13,11.2 L13,14.8 C13,15.46272 12.4864235,16 11.8529412,16 Z" fill="#FF3F5C"></path>
                                <path d="M6.5,16 L11.8529412,16 C12.4864235,16 13,15.46272 13,14.8 L13,11.2 C13,8.54904 10.9457706,6.4 8.41176471,6.4 L6.5,6.4 L6.5,16 Z" fill="#D01273"></path>
                                <path d="M6.5,8 C4.39170588,8 2.67647059,6.2056 2.67647059,4 C2.67647059,1.7944 4.39170588,0 6.5,0 C8.60829412,0 10.3235294,1.7944 10.3235294,4 C10.3235294,6.2056 8.60829412,8 6.5,8 Z" fill="#FFE4C1"></path>
                                <path d="M6.5,0 L6.5,8 C8.60829412,8 10.3235294,6.2056 10.3235294,4 C10.3235294,1.7944 8.60829412,0 6.5,0 Z" fill="#FDD1A3"></path>
                            </g>
                            <g id="Path">
                                <path d="M13,16 L1.14705882,16 C0.513576471,16 0,15.46272 0,14.8 L0,11.2 C0,8.54904 2.05422941,6.4 4.58823529,6.4 L8.41176471,6.4 C10.9457706,6.4 13,8.54904 13,11.2 L13,16 Z" fill="#7DD5F4"></path>
                                <path d="M6.5,16 L13,16 L13,11.2 C13,8.54904 10.9457706,6.4 8.41176471,6.4 L6.5,6.4 L6.5,16 Z" fill="#6BA7FF"></path>
                                <path d="M6.5,8 C4.39170588,8 2.67647059,6.2056 2.67647059,4 C2.67647059,1.7944 4.39170588,0 6.5,0 C8.60829412,0 10.3235294,1.7944 10.3235294,4 C10.3235294,6.2056 8.60829412,8 6.5,8 Z" fill="#FFE4C1"></path>
                                <path d="M6.5,0 L6.5,8 C8.60829412,8 10.3235294,6.2056 10.3235294,4 C10.3235294,1.7944 8.60829412,0 6.5,0 Z" fill="#FDD1A3"></path>
                            </g>
                        </g>
                        <g id="Group" fill="#F4DD45">
                            <path d="M29.7386549,0.561200716 L31.0334264,4.72730039 L35.223305,4.72730039 C35.5597479,4.72730981 35.8579284,4.95378773 35.9619175,5.28830097 C36.0659067,5.62281421 35.9520555,5.98928845 35.6799007,6.19608155 L32.2900649,8.77105609 L33.5848364,12.9371558 C33.6888737,13.2717017 33.5749792,13.6382337 33.3027413,13.8449865 C33.0305034,14.0517393 32.6618721,14.0516646 32.3897108,13.8448016 L29,11.2698271 L25.6102892,13.8448016 C25.3381279,14.0516646 24.9694966,14.0517393 24.6972587,13.8449865 C24.4250208,13.6382337 24.3111263,13.2717017 24.4151636,12.9371558 L25.7099351,8.77079467 L22.3200993,6.19582013 C22.0479445,5.98902703 21.9340933,5.62255279 22.0380825,5.28803955 C22.1420716,4.95352631 22.4402521,4.72704839 22.776695,4.72703897 L26.9665736,4.72703897 L28.2613451,0.560939297 C28.36537,0.226401484 28.6636146,0 29.0000908,0 C29.3365671,0 29.6347383,0.226626107 29.7386549,0.561200716 L29.7386549,0.561200716 Z" id="Path"></path>
                            <path d="M14.0812564,8.44391631 L15.0980674,11.7167357 L18.3900552,11.7167357 C18.6542734,11.7168748 18.8883905,11.8947515 18.9700694,12.1574171 C19.0517484,12.4200827 18.9624316,12.7078588 18.7487911,12.8703692 L16.0854902,14.8924684 L17.1023012,18.1652879 C17.1838633,18.4280837 17.0943079,18.7158935 16.8804559,18.8782462 C16.6666039,19.0405989 16.3770749,19.0405832 16.163239,18.8782074 L13.499938,16.8554601 L10.8366371,18.8782074 C10.6227985,19.0404731 10.3333453,19.0404295 10.1195514,18.8780995 C9.90575753,18.7157695 9.81620627,18.4280415 9.89769888,18.1652879 L10.9145099,14.8924684 L8.25120898,12.8703692 C8.03758694,12.7078729 7.94826504,12.4201303 8.02991141,12.1574787 C8.11155778,11.8948271 8.34562548,11.7169309 8.60982087,11.7167357 L11.9018087,11.7167357 L12.9186197,8.44391631 C12.9993576,8.17949314 13.2344079,8 13.499938,8 C13.7654682,8 14.0005185,8.17949314 14.0812564,8.44391631 L14.0812564,8.44391631 Z" id="Path"></path>
                            <path d="M6.08066245,21.4410548 L7.09751936,24.7144398 L10.3901516,24.7144398 C10.6543589,24.714635 10.8884372,24.892562 10.9700872,25.155259 C11.0517373,25.4179559 10.9624114,25.7057483 10.7487797,25.8682727 L8.08535864,27.8907214 L9.10221555,31.1641064 C9.18371183,31.4269055 9.09415653,31.7146832 8.880353,31.8770413 C8.66654948,32.0393994 8.37708323,32.0394429 8.163235,31.8771492 L5.50030997,29.8550895 L2.83688892,31.8781864 C2.62304335,32.0405903 2.33350133,32.0406059 2.11963971,31.8782252 C1.90577808,31.7158444 1.81621863,31.4279848 1.89778436,31.1651436 L2.91464127,27.8917585 L0.251220214,25.8693099 C0.0375701343,25.7067713 -0.0517506962,25.4189455 0.0299319402,25.1562345 C0.111614577,24.8935235 0.345742147,24.7156161 0.609972291,24.715477 L3.90260456,24.715477 L4.91946147,21.4420919 C5.00071907,21.1787804 5.2350555,21.0002366 5.49970111,21 C5.76434672,20.9997639 5.99897461,21.1778888 6.08066245,21.4410548 L6.08066245,21.4410548 Z" id="Path"></path>
                            <path d="M54.0806625,21.4418257 L55.0975194,24.7149717 L58.3901516,24.7149717 C58.6543589,24.7151669 58.8884372,24.8930809 58.9700872,25.1557587 C59.0517373,25.4184365 58.9624114,25.7062078 58.7487797,25.8687204 L56.0853586,27.8910214 L57.1022155,31.1641675 C57.1837118,31.4269474 57.0941565,31.7147041 56.880353,31.8770503 C56.6665495,32.0393965 56.3770832,32.0394401 56.163235,31.8771582 L53.4998139,29.854209 L50.8368889,31.8781953 C50.6230434,32.0405873 50.3335013,32.0406029 50.1196397,31.878234 C49.9057781,31.7158652 49.8162186,31.4280266 49.8977844,31.1652045 L50.9146413,27.8920585 L48.2512202,25.8697575 C48.0375701,25.7072308 47.9482493,25.419426 48.0299319,25.1567342 C48.1116146,24.8940424 48.3457421,24.7161479 48.6099723,24.7160088 L51.9021085,24.7160088 L52.9189654,21.4428627 C52.9999809,21.1791621 53.2345094,21.0002368 53.4994526,21 C53.7643958,20.9997637 53.9992163,21.1782701 54.0806625,21.4418257 L54.0806625,21.4418257 Z" id="Path"></path>
                            <path d="M46.0806625,8.44182565 L47.0975194,11.7149717 L50.3901516,11.7149717 C50.6543589,11.7151669 50.8884372,11.8930809 50.9700872,12.1557587 C51.0517373,12.4184365 50.9624114,12.7062078 50.7487797,12.8687204 L48.0853586,14.8910214 L49.1022155,18.1641675 C49.1837118,18.4269474 49.0941565,18.7147041 48.880353,18.8770503 C48.6665495,19.0393965 48.3770832,19.0394401 48.163235,18.8771582 L45.4998139,16.854209 L42.8368889,18.8781953 C42.6230434,19.0405873 42.3335013,19.0406029 42.1196397,18.878234 C41.9057781,18.7158652 41.8162186,18.4280266 41.8977844,18.1652045 L42.9146413,14.8920585 L40.2512202,12.8697575 C40.0375701,12.7072308 39.9482493,12.419426 40.0299319,12.1567342 C40.1116146,11.8940424 40.3457421,11.7161479 40.6099723,11.7160088 L43.9021085,11.7160088 L44.9189654,8.44286273 C44.9999809,8.17916213 45.2345094,8.00023676 45.4994526,8 C45.7643958,7.99976371 45.9992163,8.17827009 46.0806625,8.44182565 L46.0806625,8.44182565 Z" id="Path"></path>
                        </g>
                    </g>
                </g>
                <rect id="Rectangle" x="0" y="0" width="72" height="72"></rect>
            </g>
        </g>
    </g>
</svg>