<?xml version="1.0" encoding="UTF-8"?>
<svg id="Layer_2" data-name="Layer 2" xmlns="http://www.w3.org/2000/svg" xmlns:xlink="http://www.w3.org/1999/xlink" viewBox="0 0 467.97 474.63">
  <defs>
    <style>
      .cls-1 {
        fill: #1f3c85;
      }

      .cls-1, .cls-2, .cls-3, .cls-4 {
        stroke-width: 0px;
      }

      .cls-2 {
        fill: #f0951e;
      }

      .cls-3 {
        fill: url(#radial-gradient);
      }

      .cls-4 {
        fill: #1b2133;
      }
    </style>
    <radialGradient id="radial-gradient" cx="235.54" cy="143.64" fx="235.54" fy="143.64" r="24.19" gradientUnits="userSpaceOnUse">
      <stop offset="0" stop-color="#e94e12"/>
      <stop offset=".24" stop-color="#eb6d07"/>
      <stop offset=".44" stop-color="#f4970e"/>
      <stop offset=".62" stop-color="#fcbf06"/>
      <stop offset=".77" stop-color="#f5ec74"/>
      <stop offset=".97" stop-color="#fff"/>
    </radialGradient>
  </defs>
  <g id="Layer_1-2" data-name="Layer 1">
    <path class="cls-1" d="m366.82,126.4c23.52-21.42,33.31-26.2,33.31-26.2,0,0-22.69-8.9-60.98-3.62.18-.36.35-.73.53-1.09,18.38-37.87,27.88-47.86,27.88-47.86,0,0-23.55-.38-56.66,17.01,4.61-41.18,10.13-53.62,10.13-53.62,0,0-29.19,10.12-60.39,54.09-1.63,2.54-3.14,5.04-4.57,7.49l1.01,9.96c1.69-3.17.15-2.19,2.2-5.55,26.5-39.4,51.37-53.02,51.37-53.02,0,0-2.88,9.8-7,44.18-4.98,2.87-9.3,6.13-14.6,9.85-14.63,11.35-21.71,21.52-29.23,31.68l.85.73c6.66-9.97,13.13-18.63,27.75-30.49,5.25-3.89,17.62-12.36,22.49-15.29-1.21,10.27-3.37,29.78-6.03,40.37-18.1,7.56-33.98,18.07-42.87,26.39h0c7.66-7.92,25.19-14.9,42.87-22.73-1.53,4.87-4.83,13.81-7.09,18.22-13.29,3.66-27.13,9.48-34.77,14.47l.63,4.49c6.22-4.45,17.42-11.32,28.95-14.99-1.21,7.91-7.4,20.35-28.23,23.81l.54,5.37c15.66-4.88,22.6-15.76,29.61-28.32,5.97-1.49,23.6-7.81,31-8.69-11.37,21.62-48.75,53.97-60.33,39.75l.53,5.28c27.71.61,42.51-17.03,56.18-38.98.78-.06,1.57-.13,2.37-.18,5.05-6.08,33.98-3.69,42.57-2.52-1.52,1.4-11.87,13.72-13.51,15.28-22.66,21.41-68.13,53.75-87.22,31.93l.59,4.11c36.9,11.59,65.65-18.6,90.61-42.41,1.32-1.26,2.6-1.61,3.86-2.79,23.38,4.3,35.48,10.33,35.48,10.33,0,0-11.84,3.38-43.81,20.94-26.19,14.38-56.61,32.35-85.9,16.29l.65,6.43c31.62,15.24,64.62-4.41,93.16-20.26,36.8-20.44,50.31-23.16,50.31-23.16,0,0-14.97-10.87-44.2-16.67Zm-56.75-53.54c27.12-14.79,45.2-17.3,45.2-17.3,0,0-8.19,9.67-24.18,42.17-5.1.9-9.57,2.04-15.14,3.49-3.89,1.21-7.57,2.49-11.08,3.8,2.54-10.98,3.99-21.49,5.2-32.16Zm8.3,50.79c-7.51.75-14.36,1.87-20.59,3.26,2.14-4.8,3.89-9.87,5.35-15.08,3-1.18,1.54-6.34,4.86-7.46,5.61-1.61,26.1-6.79,31.16-7.79-3.12,6.28-8.47,30.48-20.78,27.07Zm41.29,1.48c-8.97-1.4-19.09-2.29-30.36-2.29-1.28.06-2.55.14-3.8.22,3.78-6.58,7.21-12.47,10.42-19,31.69-4.88,50.43-1.34,50.43-1.34,0,0-7.89,5.67-26.69,22.41Z"/>
    <path class="cls-1" d="m58.66,143.07s13.51,2.72,50.31,23.16c28.54,15.85,61.54,35.5,93.16,20.26l.65-6.43c-29.29,16.06-59.7-1.91-85.9-16.29-31.97-17.56-43.81-20.94-43.81-20.94,0,0,12.1-6.04,35.48-10.33,1.26,1.18,2.53,1.53,3.86,2.79,24.96,23.81,53.71,54,90.61,42.41l1.44-4.96c-19.09,21.82-65.41-9.66-88.07-31.07-1.64-1.55-11.99-13.87-13.51-15.28,8.59-1.17,37.52-3.56,42.57,2.52.8.06,1.58.12,2.37.18,13.68,21.95,28.48,39.6,56.18,38.98l.53-5.28c-11.58,14.22-47.5-17.61-60.33-39.75,7.4.88,24.86,7.9,30.83,9.39,7.01,12.56,14.12,22.73,29.78,27.61l.54-5.37c-20.83-3.47-27.01-15.9-28.23-23.81,11.53,3.67,22.73,10.54,28.95,14.99l.63-4.49c-7.64-4.99-21.48-10.81-34.77-14.47-2.26-4.41-5.56-13.35-7.09-18.22,17.67,7.82,35.2,14.81,42.87,22.73h0c-8.89-8.32-24.77-18.83-42.87-26.39-2.66-10.59-4.82-30.1-6.03-40.37,4.87,2.93,17.24,11.4,22.49,15.29,14.62,11.87,21.09,20.53,27.75,30.49l.85-.73c-7.52-10.16-14.6-20.33-29.23-31.68-5.31-3.73-9.62-6.98-14.6-9.85-4.12-34.38-7-44.18-7-44.18,0,0,24.87,13.63,51.37,53.02,2.05,3.37.51,2.38,2.2,5.55l1.01-9.96c-1.43-2.45-2.95-4.94-4.57-7.49-31.2-43.97-60.39-54.09-60.39-54.09,0,0,5.53,12.44,10.13,53.62-33.12-17.4-56.66-17.01-56.66-17.01,0,0,9.5,9.99,27.88,47.86.18.36.35.73.53,1.09-38.29-5.28-60.98,3.62-60.98,3.62,0,0,9.79,4.78,33.31,26.2-29.23,5.8-44.2,16.67-44.2,16.67Zm106.16-38.05c-3.51-1.32-7.19-2.59-11.08-3.8-5.57-1.45-10.04-2.59-15.14-3.49-15.99-32.49-24.18-42.17-24.18-42.17,0,0,18.08,2.51,45.2,17.3,1.21,10.67,2.67,21.18,5.2,32.16Zm-34.28-8.44c5.06,1,25.55,6.18,31.16,7.79,3.32,1.12,1.86,6.28,4.86,7.46,1.46,5.21,3.21,10.28,5.35,15.08-6.23-1.39-13.08-2.5-20.59-3.26-12.31,3.42-17.66-20.78-20.78-27.07Zm-47.2,6.14s18.74-3.55,50.43,1.34c3.21,6.53,6.64,12.42,10.42,19-1.25-.08-2.51-.16-3.8-.22-11.27,0-21.38.89-30.36,2.29-18.8-16.74-26.69-22.41-26.69-22.41Z"/>
    <circle class="cls-3" cx="235.54" cy="143.64" r="24.19"/>
    <polygon class="cls-1" points="264.68 221.79 235.2 144.68 205.72 221.79 226.75 240.47 227.12 207.5 233.99 201.74 243.08 205.59 243.27 218.63 241.97 242.76 252.95 231.37 264.68 221.79"/>
    <g>
      <path class="cls-4" d="m235.34,252.81s-3.15,13.58,10.1,13c10.31-.45,38.8-5.47,50.16-7.45,11.36-1.98,34.08,6.22,20.15,32.74-7.5,12.43-34.08,13.93-61.73-5.36-27.65-19.29-42.38-29.74-52.94-34.51-14.04-6.33-48.41-12.59-55.3,22.08-3.55,24.53,22.94,29.37,22.94,29.37,0,0-18.36-5.85-18.65-24.01-.2-12.47,12.11-32.31,36.98-23.79,25.07,8.59,24.97,11.79,60.76,38.37,22.29,15,58.52,27.22,75.67,2.14,10.29-17.15,4.29-40.73-18.65-43.51-17.58-2.14-16.29,4.93-55.52,10.72-13.29,1.88-13.89-3.09-13.96-9.79Z"/>
      <path class="cls-4" d="m213.66,305.69l-23.11-10.72c-7.57-3.51-16.56-.22-20.07,7.35l-.33.71,9.4,4.19s7.16-2.68,10.25,4.46c6.01,2.64,8.87,4.12,8.87,4.12l-.43.94-8.84-4.02s-7.02,2.5-10.27-4.31c-6.64-3.09-8.71-4.17-9.35-4.54l-.19.41c-3.51,7.57-.22,16.56,7.35,20.07l23.11,10.72c7.57,3.51,16.56.22,20.07-7.35l.91-1.97c3.51-7.57.22-16.56-7.35-20.07Z"/>
    </g>
    <path class="cls-2" d="m235.45,200.32h-.1c-10.35,0-9.41,12.11-9.41,12.11v19.95c-3.82-7.48-23.25-19.23-23.25-19.23l14.58-144.31-7.08.18-14.83,150.37s31.81,17.09,37.82,39.5v-43.69h0c-1.72-.79-2.85-2.53-2.85-4.54,0-2.77,2.24-5.01,5.01-5.01s5.01,2.24,5.01,5.01c0,2.03-1.19,3.77-2.93,4.56h0v43.67c7.58-24.93,37.09-39.49,37.09-39.49,0,0-10.45-110.44-14.71-150.56h-6.14s1.7,16.88,1.7,16.88l12.87,127.43s-19.44,11.75-23.25,19.23c0-16.74,0-19.95,0-19.95,0,0,.86-12.1-9.41-12.1h-.12Z"/>
    <g>
      <path class="cls-2" d="m108.41,164.63c-34.46-18.92-47.22-21.65-47.22-21.65,0,0,13.04-8.34,38.24-12.97,1.35,1.27,2.73,2.57,4.16,3.93,27.14,25.9,62.19,59.73,102.42,46.27l.64-6.29c-37.31,13.65-69.47-17.09-94.14-40.39-1.77-1.67-3.47-3.26-5.12-4.78,9.26-1.26,19.86-1.98,31.8-1.68.86.06,1.71.13,2.55.2,14.92,23.94,34.82,44.08,65.28,42.92l.58-5.7c-26.8.92-44.58-15.97-57.92-36.43,7.98.95,15.15,2.28,21.58,3.89,7.71,13.81,19.14,24.8,36.6,29.93l.58-5.77c-12.81-4.25-21.94-12-28.55-21.72,13.04,4.15,22.51,9.4,29.29,14.41l.68-6.73c-8.34-5.6-19.55-11.16-34.45-15.27-2.44-4.76-4.43-9.83-6.08-15.08,19.8,8.76,32.58,18.65,40.82,27.44l.77-7.58c-9.62-9.24-23.56-19.03-43.73-27.46-2.87-11.42-4.45-23.33-5.75-34.4,5.25,3.16,10.73,6.78,16.39,10.97,16.44,13.34,27.31,25.92,34.48,37.01l.92-9.16c-8.16-11.3-19.72-23.62-36.1-36.34-5.72-4.02-11.29-7.53-16.66-10.62-4.44-37.05-9.38-48.54-9.38-48.54,0,0,29.56,11.93,58.12,54.4,2.57,4.22,4.87,8.3,6.92,12.24l1.1-10.85c-1.8-3.14-3.72-6.34-5.82-9.62C177.8,11.83,142.67,0,142.67,0c0,0,5.96,13.41,10.92,57.79-35.69-18.75-61.07-18.34-61.07-18.34,0,0,10.24,10.77,30.04,51.58.19.39.38.78.57,1.18-41.27-5.69-65.73,3.9-65.73,3.9,0,0,10.55,5.15,35.9,28.24-31.5,6.26-47.64,17.97-47.64,17.97,0,0,14.56,2.93,54.22,24.96,31.09,17.27,70.85,39.66,105.18,22.21l.71-7.01c-31.82,18.42-68.8-2.16-97.36-17.85Zm53.54-55.99c1.58,5.62,3.46,11.08,5.77,16.25-6.72-1.49-14.1-2.7-22.19-3.51-4.04-6.83-7.66-13.87-11.03-20.65,5.45,1.07,11.21,2.45,17.25,4.18,3.58,1.2,6.97,2.45,10.2,3.72Zm-57.11-59.73s20.4.87,49.63,16.81c1.3,11.5,2.88,23.75,5.61,35.58-3.78-1.42-7.75-2.79-11.94-4.1-6-1.56-11.74-2.79-17.24-3.76-17.23-35.02-26.06-44.53-26.06-44.53Zm-32.58,51.75s20.19-6.58,54.35-1.31c3.46,7.03,7.16,14.31,11.23,21.39-1.35-.09-2.71-.17-4.09-.24-12.15,0-23.05.96-32.72,2.47-20.26-18.04-28.77-22.31-28.77-22.31Z"/>
      <path class="cls-2" d="m376.55,124.35c25.35-23.09,35.9-28.24,35.9-28.24,0,0-24.45-9.6-65.73-3.9.19-.39.38-.79.57-1.18,19.81-40.81,30.04-51.58,30.04-51.58,0,0-25.38-.41-61.07,18.34,4.97-44.38,10.92-57.79,10.92-57.79,0,0-35.13,11.83-68.76,59.21-1.75,2.74-3.39,5.43-4.93,8.07l1.08,10.73c1.83-3.42,3.83-6.94,6.04-10.57,28.56-42.46,58.12-54.4,58.12-54.4,0,0-4.94,11.48-9.38,48.54-5.37,3.09-10.94,6.6-16.66,10.62-15.76,12.24-27.07,24.12-35.17,35.06l.91,9.04c7.18-10.74,17.82-22.83,33.57-35.62,5.66-4.19,11.14-7.81,16.39-10.97-1.3,11.07-2.88,22.98-5.75,34.4-19.51,8.15-33.19,17.58-42.77,26.56l.76,7.49c8.26-8.54,20.82-18.01,39.87-26.44-1.65,5.25-3.64,10.32-6.08,15.08-14.32,3.95-25.23,9.23-33.46,14.61l.67,6.67c6.7-4.79,15.88-9.74,28.3-13.7-6.43,9.46-15.25,17.06-27.53,21.38l.58,5.78c16.88-5.26,28.03-16.07,35.58-29.6,6.44-1.6,13.61-2.94,21.58-3.89-13.17,20.19-30.66,36.9-56.87,36.45l.57,5.69c29.86.66,49.48-19.28,64.22-42.93.85-.07,1.69-.14,2.55-.2,11.94-.3,22.54.42,31.8,1.68-1.64,1.51-3.35,3.1-5.12,4.78-24.43,23.08-56.2,53.45-93.04,40.78l.63,6.26c39.77,12.49,74.43-20.97,101.33-46.63,1.43-1.36,2.8-2.66,4.16-3.93,25.2,4.63,38.24,12.97,38.24,12.97,0,0-12.76,2.72-47.22,21.65-28.23,15.5-64.68,35.79-96.25,18.48l.7,6.93c34.08,16.42,73.32-5.67,104.07-22.75,39.66-22.03,54.22-24.96,54.22-24.96,0,0-16.14-11.72-47.64-17.97Zm-61.17-58.62c29.23-15.94,49.63-16.81,49.63-16.81,0,0-8.83,9.51-26.06,44.53-5.49.97-11.23,2.2-17.24,3.76-4.19,1.31-8.16,2.68-11.94,4.1,2.73-11.83,4.31-24.08,5.61-35.58Zm8.94,55.66c-8.1.81-15.48,2.01-22.19,3.51,2.31-5.17,4.19-10.63,5.77-16.25,3.24-1.27,6.63-2.52,10.2-3.72,6.04-1.74,11.8-3.11,17.25-4.18-3.37,6.77-6.99,13.82-11.03,20.65Zm44.5,1.6c-9.67-1.51-20.57-2.47-32.72-2.47-1.38.07-2.75.15-4.09.24,4.07-7.09,7.77-14.36,11.23-21.39,34.16-5.26,54.35,1.31,54.35,1.31,0,0-8.51,4.28-28.77,22.31Z"/>
    </g>
    <g>
      <path class="cls-2" d="m75.58,375.68h-31.66v9.48c2.55-2.26,5.62-3.39,9.22-3.39,5.16,0,9.32,1.61,12.48,4.83,3.16,3.22,4.74,7.32,4.74,12.31,0,5.39-1.8,9.7-5.39,12.92-3.6,3.22-8.2,4.83-13.83,4.83-.87,0-1.54-.03-2-.09v-9.83c.35.06.81.09,1.39.09,2.38,0,4.22-.72,5.52-2.17,1.3-1.45,1.96-3.31,1.96-5.57,0-2.09-.61-3.87-1.83-5.35-1.22-1.48-2.99-2.22-5.31-2.22-2.03,0-3.7.74-5,2.22-1.3,1.48-1.96,3.43-1.96,5.87v24.7h-12.35v-10.09c-2.49,2.2-5.57,3.31-9.22,3.31-5.16,0-9.32-1.61-12.48-4.83-3.16-3.22-4.74-7.32-4.74-12.31,0-5.39,1.8-9.7,5.39-12.91,3.59-3.22,8.2-4.83,13.83-4.83.81,0,1.48.03,2,.09v9.83c-.35-.06-.81-.09-1.39-.09-2.38,0-4.22.73-5.52,2.17-1.3,1.45-1.96,3.31-1.96,5.57,0,2.09.61,3.87,1.83,5.35,1.22,1.48,2.99,2.22,5.31,2.22,2.03,0,3.7-.74,5-2.22s1.96-3.43,1.96-5.87v-24H0v-9.74h75.58v9.74Z"/>
      <path class="cls-2" d="m70.36,375.68v-9.74h56.09v9.74h-8.7v48.61h-12v-22.7h-13.74v10.61h-10.35l-3.13-6.96c-1.68-3.83-2.52-6.49-2.52-8,0-2.49,1.31-4.09,3.91-4.78v-16.78h-9.57Zm35.4,0h-13.74v16.18h13.74v-16.18Z"/>
      <path class="cls-2" d="m120.45,353.59c-1.8,0-3.3.54-4.52,1.61-1.22,1.07-1.83,2.54-1.83,4.39,0,2.61,1.1,5.07,3.3,7.39h-12.35c-.29-.23-.62-.59-1-1.09-.38-.49-.9-1.57-1.57-3.22-.67-1.65-1-3.38-1-5.17,0-4.75,1.54-8.39,4.61-10.91,3.07-2.52,6.81-3.78,11.22-3.78s7.83.73,10.78,2.17v10.87c-2.9-1.51-5.45-2.26-7.65-2.26Z"/>
      <path class="cls-2" d="m147.84,415.08c-5.74,0-10.68-2.09-14.83-6.26-4.15-4.17-6.65-9.92-7.52-17.22,9.04-1.28,13.57-4.29,13.57-9.04,0-2.9-.84-5.19-2.52-6.87h-15.31v-9.74h60.36v9.74h-8.7v48.61h-12.26v-14.78c-.99,1.68-2.64,3.03-4.96,4.04-2.32,1.01-4.93,1.52-7.83,1.52Zm2.09-10.78c3.3,0,5.91-.96,7.83-2.87,1.91-1.91,2.87-4.78,2.87-8.61v-17.13h-11.31c1.22,1.86,1.83,4.35,1.83,7.48,0,3.77-1.06,6.86-3.17,9.26-2.12,2.41-4.86,4.16-8.22,5.26,1.33,4.41,4.72,6.61,10.17,6.61Z"/>
      <path class="cls-2" d="m197.33,365.94h8.61v9.74h-8.7v48.61h-12.18v-48.61h-8.7v-9.74h7.83l-5.83-8.52c-1.57-2.38-3.77-3.56-6.61-3.56-1.8,0-3.65.29-5.57.87v-10.26c2.09-.41,4.29-.61,6.61-.61,3.54.06,6.52.69,8.96,1.91,2.44,1.22,4.58,3.25,6.44,6.09l9.13,14.09Z"/>
      <path class="cls-2" d="m200.72,365.94h56.09v9.74h-8.7v48.61h-12.18v-48.61h-9.65v18.61c0,4.17-1.17,7.28-3.52,9.3-2.35,2.03-5.38,3.04-9.09,3.04-2.78,0-5.36-.41-7.74-1.22v-9.57c1.27.7,2.7,1.04,4.26,1.04,2.55,0,3.83-1.33,3.83-4v-17.22h-13.31v-9.74Z"/>
      <path class="cls-2" d="m272.47,365.94h8.78v9.74h-8.7v48.61h-12.26v-48.61h-8.7v-9.74h8.61v-5.22c0-2.14-.57-3.8-1.7-4.96s-2.74-1.74-4.83-1.74c-4.06,0-6.09,2.23-6.09,6.7v2.17h-12.35v-2.61c0-5.45,1.74-9.57,5.22-12.35,3.48-2.78,7.89-4.17,13.22-4.17s9.87,1.38,13.44,4.13c3.57,2.75,5.35,6.86,5.35,12.31v5.74Z"/>
      <path class="cls-1" d="m333.69,391.42v-25.48h20.7v9.74h-8.7v48.61h-12v-23.13h-13.31v10.87h-10.61l-3.13-6.7c-1.57-3.31-2.35-5.86-2.35-7.65,0-3.01,1.33-4.9,4-5.65v-12.44c0-2.72-1.33-4.09-4-4.09-1.51,0-3.07.41-4.7,1.22v-9.48c2.2-1.16,4.7-1.74,7.48-1.74,8.87,0,13.31,4.2,13.31,12.61v13.3h13.31Z"/>
      <path class="cls-1" d="m349.17,375.68v-9.74h29.66v9.74h-8.7v48.61h-12.26v-48.61h-8.7Z"/>
      <path class="cls-1" d="m379.26,402.03v-9.57h6.61c5.33,0,8-2.2,8-6.61v-10.17h-20.26v-9.74h41.48v9.74h-9.04v10.87c0,3.89-.97,7.15-2.91,9.78-1.94,2.64-4.74,4.3-8.39,5-.47.12-.9.17-1.31.17l17.83,22.78h-14.78l-17.22-22.26Z"/>
      <path class="cls-1" d="m467.97,365.94v9.74h-8.7v48.61h-12.35v-31.31h-6.09c-3.94,0-6.94.88-9,2.65-2.06,1.77-3.09,4.33-3.09,7.7,0,7.07,3.04,10.61,9.13,10.61.64,0,1.13-.03,1.48-.09v10.17c-1.39.12-2.55.17-3.48.17-6.15,0-10.93-1.93-14.35-5.78-3.42-3.86-5.13-8.91-5.13-15.18s2.03-11.05,6.09-14.7c4.06-3.65,10.06-5.48,18-5.48h6.44v-7.39h-37.05v-9.74h58.09Z"/>
    </g>
    <g>
      <path class="cls-4" d="m124.62,445.85v3.04h-3.4v18.11h-3.81v-12.37c-.32-.06-.65-.1-.99-.1-1.05,0-1.83.28-2.34.85-.51.57-.77,1.47-.77,2.71v2.15h-3.78v-2.21c0-2.09-.74-3.14-2.21-3.14-.77,0-1.39.3-1.86.91-.47.61-.71,1.53-.71,2.77,0,1.62.43,2.91,1.3,3.86s2.17,1.43,3.93,1.43c.51,0,.91-.02,1.19-.06v3.08c-.56.06-1.1.1-1.63.1-2.59,0-4.65-.78-6.19-2.34-1.54-1.56-2.31-3.6-2.31-6.12,0-2.03.52-3.66,1.57-4.9,1.05-1.24,2.49-1.86,4.33-1.86,1.24,0,2.25.27,3.03.8.78.54,1.27,1.24,1.46,2.12.56-2.07,2.15-3.11,4.78-3.11.38,0,.79.05,1.22.16v-2.82h-18.59v-3.04h25.8Z"/>
      <path class="cls-4" d="m130,445.85h3.4v3.04h-3.4v18.11h-3.72v-18.11h-3.4v-3.04h3.08l-2.34-3.46c-.62-.98-1.48-1.47-2.6-1.47-.58,0-1.21.09-1.89.29v-3.17c.9-.15,1.62-.22,2.18-.22,2.33.02,4.11.99,5.35,2.92l3.33,5.13Z"/>
      <path class="cls-4" d="m158.88,448.89h-11.73v3.94c.98-.92,2.16-1.38,3.53-1.38,1.86,0,3.35.57,4.49,1.7,1.13,1.13,1.7,2.6,1.7,4.39,0,1.94-.65,3.49-1.94,4.65-1.29,1.15-2.92,1.73-4.89,1.73-.34,0-.59,0-.74-.03v-3.04c.13.02.32.03.58.03.96,0,1.74-.3,2.32-.91.59-.61.88-1.39.88-2.36,0-.9-.27-1.64-.82-2.24s-1.28-.9-2.2-.9c-.83,0-1.53.29-2.08.88-.56.59-.83,1.34-.83,2.26v9.39h-3.78v-4.1c-.96.9-2.14,1.35-3.53,1.35-1.84,0-3.33-.57-4.47-1.7-1.14-1.13-1.71-2.6-1.71-4.39,0-1.94.65-3.49,1.94-4.65,1.29-1.15,2.92-1.73,4.89-1.73.32,0,.57.01.74.03v3.04c-.13-.02-.32-.03-.58-.03-.96,0-1.74.3-2.32.91-.59.61-.88,1.39-.88,2.36,0,.9.27,1.65.82,2.24s1.29.9,2.23.9c.81,0,1.5-.29,2.05-.88.56-.59.83-1.34.83-2.26v-9.2h-11.7v-3.04h27.21v3.04Z"/>
      <path class="cls-4" d="m179.36,440.43v3.4c-2.07-.94-4.24-1.69-6.49-2.24-2.25-.56-4.1-.83-5.53-.83-.98,0-1.74.26-2.26.79s-.78,1.24-.78,2.16v2.15h3.4v3.04h-3.4v18.11h-3.75v-18.11h-3.4v-3.04h3.4v-2.21c0-1.82.59-3.28,1.78-4.39,1.19-1.11,2.83-1.67,4.92-1.67,1.88,0,3.76.24,5.64.72,1.88.48,4.04,1.19,6.47,2.13Z"/>
      <path class="cls-4" d="m181.8,453.93h-8.01c-.94,0-1.41.36-1.41,1.09s.36,1.34,1.09,1.86c.92-.21,1.87-.32,2.85-.32,1.86,0,3.35.45,4.47,1.35,1.12.9,1.68,2,1.68,3.3,0,.77-.11,1.38-.32,1.83h-3.69c.26-.41.38-.95.38-1.64,0-.49-.23-.91-.69-1.25-.46-.34-1.11-.51-1.94-.51-1.22,0-2.16.25-2.82.74-.66.49-.99,1.11-.99,1.86,0,.9.39,1.62,1.17,2.16.78.55,2,.82,3.67.82,1.13,0,2.55-.2,4.26-.61v3.11c-1.67.36-3.15.55-4.46.55-2.71,0-4.79-.6-6.23-1.81s-2.16-2.62-2.16-4.25.69-3,2.08-4.07c-1.47-.85-2.21-2.04-2.21-3.56,0-1.15.42-2.04,1.27-2.66.84-.62,1.94-.93,3.29-.93h5v-2.08h-12.12v-3.04h19.13v3.04h-3.3v5.03Z"/>
      <path class="cls-4" d="m204.33,445.85v3.04h-3.4v18.11h-3.75v-11.83h-2.56c-3.27,0-4.9,1.42-4.9,4.26,0,1.37.32,2.44.96,3.21.64.77,1.6,1.15,2.88,1.15.28,0,.48,0,.61-.03v3.14c-.47.04-.86.06-1.15.06-2.2,0-3.93-.7-5.19-2.1-1.26-1.4-1.89-3.22-1.89-5.46s.72-4,2.16-5.34c1.44-1.33,3.55-2,6.33-2h2.76v-3.17h-13.81v-3.04h20.96Z"/>
      <path class="cls-4" d="m197.41,442.82c-.43-.44-.64-.98-.64-1.62s.21-1.18.64-1.62c.43-.44.97-.66,1.63-.66s1.19.22,1.64.66c.45.44.67.98.67,1.62s-.22,1.18-.67,1.62c-.45.44-.99.66-1.64.66s-1.21-.22-1.63-.66Z"/>
      <path class="cls-4" d="m210.55,448.89v-3.04h20.32v3.04h-3.4v18.11h-3.69v-8.59h-5.67v4.07h-3.21l-1.03-2.28c-.6-1.35-.9-2.32-.9-2.92,0-.92.47-1.49,1.41-1.73v-6.67h-3.85Zm13.24,0h-5.67v6.48h5.67v-6.48Z"/>
      <path class="cls-4" d="m229.14,448.89v-3.04h20.32v3.04h-3.4v18.11h-3.69v-8.59h-5.67v4.07h-3.21l-1.03-2.28c-.6-1.35-.9-2.32-.9-2.92,0-.92.47-1.49,1.41-1.73v-6.67h-3.85Zm13.24,0h-5.67v6.48h5.67v-6.48Z"/>
      <path class="cls-4" d="m282.89,448.89h-11.73v3.94c.98-.92,2.16-1.38,3.53-1.38,1.86,0,3.35.57,4.49,1.7,1.13,1.13,1.7,2.6,1.7,4.39,0,1.94-.65,3.49-1.94,4.65-1.29,1.15-2.92,1.73-4.89,1.73-.34,0-.59,0-.74-.03v-3.04c.13.02.32.03.58.03.96,0,1.74-.3,2.32-.91.59-.61.88-1.39.88-2.36,0-.9-.27-1.64-.82-2.24s-1.28-.9-2.2-.9c-.83,0-1.53.29-2.08.88-.56.59-.83,1.34-.83,2.26v9.39h-3.78v-4.1c-.96.9-2.14,1.35-3.53,1.35-1.84,0-3.33-.57-4.47-1.7-1.14-1.13-1.71-2.6-1.71-4.39,0-1.94.65-3.49,1.94-4.65,1.29-1.15,2.92-1.73,4.89-1.73.32,0,.57.01.74.03v3.04c-.13-.02-.32-.03-.58-.03-.96,0-1.74.3-2.32.91-.59.61-.88,1.39-.88,2.36,0,.9.27,1.65.82,2.24.55.6,1.29.9,2.23.9.81,0,1.5-.29,2.05-.88.56-.59.83-1.34.83-2.26v-9.2h-11.7v-3.04h27.21v3.04Z"/>
      <path class="cls-4" d="m283.11,458.51v-2.98h2.31c2.2,0,3.3-.89,3.3-2.66v-3.98h-7.56v-3.04h14.58v3.04h-3.27v4.2c0,1.47-.4,2.68-1.2,3.61s-1.92,1.48-3.35,1.65c-.13.04-.28.06-.45.06l6.67,8.59h-4.52l-6.51-8.49Z"/>
      <path class="cls-4" d="m319.78,445.85v3.04h-3.4v18.11h-3.75v-18.11h-4.3v6.8c0,1.99-.53,3.5-1.6,4.54-1.07,1.04-2.56,1.55-4.49,1.55-3.95,0-5.93-2.01-5.93-6.03v-6.86h-2.31v-3.04h25.77Zm-15.16,10.13v-7.08h-4.55v7.08c0,1.75.75,2.63,2.24,2.63s2.31-.88,2.31-2.63Z"/>
      <path class="cls-4" d="m325.16,445.85h3.43v3.04h-3.4v18.11h-3.75v-18.11h-3.4v-3.04h3.37v-2.21c0-.88-.24-1.55-.72-2.03s-1.13-.72-1.94-.72c-1.69,0-2.53.92-2.53,2.76v.7h-3.78v-.83c0-1.92.6-3.37,1.79-4.36,1.2-.98,2.7-1.47,4.52-1.47s3.37.49,4.58,1.46,1.83,2.42,1.83,4.34v2.37Z"/>
      <path class="cls-4" d="m336.77,463.38c-2.07,0-3.85-.73-5.34-2.2-1.49-1.46-2.39-3.5-2.71-6.11,3.4-.53,5.1-1.71,5.1-3.53,0-1.09-.32-1.98-.96-2.66h-5.99v-3.04h21.96v3.04h-3.4v18.11h-3.75v-5.74c-.43.64-1.08,1.15-1.96,1.54-.88.38-1.86.58-2.95.58Zm.58-3.3c1.33,0,2.38-.37,3.16-1.12.78-.75,1.17-1.83,1.17-3.24v-6.83h-4.87c.49.73.74,1.67.74,2.82,0,2.61-1.47,4.38-4.42,5.32.26.92.75,1.66,1.49,2.21.74.56,1.65.83,2.74.83Z"/>
      <path class="cls-4" d="m347.09,448.89v-3.04h20.32v3.04h-3.4v18.11h-3.69v-8.59h-5.67v4.07h-3.21l-1.03-2.28c-.6-1.35-.9-2.32-.9-2.92,0-.92.47-1.49,1.41-1.73v-6.67h-3.85Zm13.24,0h-5.67v6.48h5.67v-6.48Z"/>
      <path class="cls-4" d="m368.88,474.63h-4.52l-3.88-5.51h3.81l4.58,5.51Z"/>
    </g>
    <rect class="cls-4" x="379.89" y="455.44" width="74.78" height="3.24"/>
  </g>
</svg>