<?xml version="1.0" encoding="UTF-8"?>
<svg width="14px" height="18px" viewBox="0 0 14 18" version="1.1" xmlns="http://www.w3.org/2000/svg" xmlns:xlink="http://www.w3.org/1999/xlink">
    <title>Icons/Av/play</title>
    <g id="Symbols" stroke="none" stroke-width="1" fill="none" fill-rule="evenodd">
        <g id="Web/Learn/Module-search-card" transform="translate(-192.000000, -15.000000)">
            <g id="Icons/Av/play" transform="translate(189.000000, 14.000000)">
                <rect id="Size" fill="#D8D8D8" opacity="0" x="0" y="0" width="20" height="20"></rect>
                <path d="M5,1.66666667 C4.08333333,1.66666667 3.34166667,2.41666667 3.34166667,3.33333333 L3.33333333,16.6666667 C3.33333333,17.5833333 4.075,18.3333333 4.99166667,18.3333333 L15,18.3333333 C15.9166667,18.3333333 16.6666667,17.5833333 16.6666667,16.6666667 L16.6666667,7.35833333 C16.6666667,6.91666667 16.4916667,6.49166667 16.175,6.18333333 L12.15,2.15833333 C11.8416667,1.84166667 11.4166667,1.66666667 10.975,1.66666667 L5,1.66666667 Z M10.8333333,6.66666667 L10.8333333,2.91666667 L15.4166667,7.5 L11.6666667,7.5 C11.2083333,7.5 10.8333333,7.125 10.8333333,6.66666667 Z" id="Shape" fill="#0074B6"></path>
            </g>
        </g>
    </g>
</svg>