<svg width="24" height="24" viewBox="0 0 24 24" fill="none" xmlns="http://www.w3.org/2000/svg">
<path fill-rule="evenodd" clip-rule="evenodd" d="M10.261 4L4 6.52395V10.6476C4 14.8336 6.5907 18.742 10.1028 19.7816C10.0358 19.5324 10 19.2704 10 19V13C10 11.3431 11.3431 10 13 10H16.5219V6.52395L10.261 4ZM15.3333 13.6666C15.3333 14.5871 14.5871 15.3333 13.6666 15.3333C12.7462 15.3333 12 14.5871 12 13.6666C12 12.7462 12.7462 12 13.6666 12C14.5871 12 15.3333 12.7462 15.3333 13.6666ZM19.9998 13.6666C19.9998 14.5871 19.2536 15.3333 18.3332 15.3333C17.4127 15.3333 16.6665 14.5871 16.6665 13.6666C16.6665 12.7462 17.4127 12 18.3332 12C19.2536 12 19.9998 12.7462 19.9998 13.6666ZM13.6666 20.0003C14.5871 20.0003 15.3333 19.2541 15.3333 18.3336C15.3333 17.4132 14.5871 16.667 13.6666 16.667C12.7462 16.667 12 17.4132 12 18.3336C12 19.2541 12.7462 20.0003 13.6666 20.0003ZM19.9998 18.3336C19.9998 19.2541 19.2536 20.0003 18.3332 20.0003C17.4127 20.0003 16.6665 19.2541 16.6665 18.3336C16.6665 17.4132 17.4127 16.667 18.3332 16.667C19.2536 16.667 19.9998 17.4132 19.9998 18.3336Z" fill="#1B4CA1"/>
</svg>
