<svg width="80" height="80" viewBox="0 0 80 80" fill="none" xmlns="http://www.w3.org/2000/svg">
<path d="M16.667 6.6665V73.3332H56.3337L73.3337 56.6665V6.6665H16.667Z" fill="#EFEEEE"/>
<path d="M53.333 20V23.3333H43.333V20H53.333Z" fill="#B8B8B8"/>
<path d="M66.667 20V23.3333H56.667V20H66.667Z" fill="#B8B8B8"/>
<path d="M53.333 26.6665V29.9998H43.333V26.6665H53.333Z" fill="#B8B8B8"/>
<path d="M66.667 26.6665V29.9998H56.667V26.6665H66.667Z" fill="#B8B8B8"/>
<path d="M53.333 33.3335V36.6668H43.333V33.3335H53.333Z" fill="#B8B8B8"/>
<path d="M53.333 40V43.3333H43.333V40H53.333Z" fill="#B8B8B8"/>
<path d="M66.667 33.3335V36.6668H56.667V33.3335H66.667Z" fill="#B8B8B8"/>
<path d="M66.667 40V43.3333H56.667V40H66.667Z" fill="#B8B8B8"/>
<path d="M56.667 56.6665V73.3332L73.3337 56.6665H56.667Z" fill="#ABABAB"/>
<path d="M40 73.3332H56.6667V56.6665L40 73.3332Z" fill="#DEDEDD"/>
<path d="M32.5003 23.3335H9.16699C5.02486 23.3335 1.66699 26.6914 1.66699 30.8335V39.1668C1.66699 43.309 5.02486 46.6668 9.16699 46.6668H32.5003C36.6425 46.6668 40.0003 43.309 40.0003 39.1668V30.8335C40.0003 26.6914 36.6425 23.3335 32.5003 23.3335Z" fill="#61B565"/>
<path d="M17.939 34.2188H16.6947C16.672 34.0578 16.6256 33.9148 16.5555 33.7898C16.4854 33.6629 16.3954 33.5549 16.2856 33.4659C16.1758 33.3769 16.0489 33.3087 15.9049 33.2614C15.7629 33.214 15.6085 33.1903 15.4419 33.1903C15.1407 33.1903 14.8784 33.2652 14.6549 33.4148C14.4314 33.5625 14.2581 33.7784 14.135 34.0625C14.0119 34.3447 13.9504 34.6875 13.9504 35.0909C13.9504 35.5057 14.0119 35.8542 14.135 36.1364C14.26 36.4186 14.4343 36.6316 14.6578 36.7756C14.8812 36.9195 15.1398 36.9915 15.4333 36.9915C15.5981 36.9915 15.7506 36.9697 15.8907 36.9261C16.0328 36.8826 16.1587 36.8191 16.2686 36.7358C16.3784 36.6506 16.4693 36.5473 16.5413 36.4261C16.6151 36.3049 16.6663 36.1667 16.6947 36.0114L17.939 36.017C17.9068 36.2841 17.8263 36.5417 17.6975 36.7898C17.5706 37.036 17.3992 37.2566 17.1833 37.4517C16.9693 37.6449 16.7136 37.7983 16.4163 37.9119C16.1208 38.0237 15.7865 38.0795 15.4134 38.0795C14.8945 38.0795 14.4305 37.9621 14.0214 37.7273C13.6142 37.4924 13.2922 37.1525 13.0555 36.7074C12.8206 36.2623 12.7032 35.7235 12.7032 35.0909C12.7032 34.4564 12.8225 33.9167 13.0612 33.4716C13.2998 33.0265 13.6237 32.6875 14.0328 32.4545C14.4419 32.2197 14.9021 32.1023 15.4134 32.1023C15.7506 32.1023 16.0631 32.1496 16.3509 32.2443C16.6407 32.339 16.8973 32.4773 17.1208 32.6591C17.3443 32.839 17.5261 33.0597 17.6663 33.321C17.8083 33.5824 17.8992 33.8816 17.939 34.2188ZM21.9774 33.8551C21.9546 33.6259 21.8571 33.4479 21.6847 33.321C21.5124 33.1941 21.2785 33.1307 20.983 33.1307C20.7823 33.1307 20.6128 33.1591 20.4745 33.2159C20.3363 33.2708 20.2302 33.3475 20.1563 33.446C20.0844 33.5445 20.0484 33.6562 20.0484 33.7812C20.0446 33.8854 20.0664 33.9763 20.1137 34.054C20.163 34.1316 20.2302 34.1989 20.3154 34.2557C20.4007 34.3106 20.4991 34.3589 20.6109 34.4006C20.7226 34.4403 20.8419 34.4744 20.9688 34.5028L21.4916 34.6278C21.7454 34.6847 21.9783 34.7604 22.1904 34.8551C22.4026 34.9498 22.5863 35.0663 22.7416 35.2045C22.8969 35.3428 23.0171 35.5057 23.1024 35.6932C23.1895 35.8807 23.234 36.0956 23.2359 36.3381C23.234 36.6941 23.1431 37.0028 22.9632 37.2642C22.7851 37.5237 22.5276 37.7254 22.1904 37.8693C21.8552 38.0114 21.4508 38.0824 20.9774 38.0824C20.5077 38.0824 20.0986 38.0104 19.7501 37.8665C19.4035 37.7225 19.1327 37.5095 18.9376 37.2273C18.7444 36.9432 18.6431 36.5919 18.6336 36.1733H19.824C19.8372 36.3684 19.8931 36.5312 19.9916 36.6619C20.0919 36.7907 20.2255 36.8883 20.3921 36.9545C20.5607 37.0189 20.751 37.0511 20.9632 37.0511C21.1715 37.0511 21.3524 37.0208 21.5058 36.9602C21.6611 36.8996 21.7813 36.8153 21.8666 36.7074C21.9518 36.5994 21.9944 36.4754 21.9944 36.3352C21.9944 36.2045 21.9556 36.0947 21.8779 36.0057C21.8022 35.9167 21.6904 35.8409 21.5427 35.7784C21.3969 35.7159 21.2179 35.6591 21.0058 35.608L20.3722 35.4489C19.8817 35.3295 19.4944 35.143 19.2103 34.8892C18.9262 34.6354 18.7851 34.2936 18.787 33.8636C18.7851 33.5114 18.8789 33.2036 19.0683 32.9403C19.2596 32.6771 19.5219 32.4716 19.8552 32.3239C20.1885 32.1761 20.5673 32.1023 20.9916 32.1023C21.4234 32.1023 21.8003 32.1761 22.1222 32.3239C22.4461 32.4716 22.698 32.6771 22.8779 32.9403C23.0579 33.2036 23.1507 33.5085 23.1563 33.8551H21.9774ZM25.1144 32.1818L26.5207 36.6023H26.5747L27.9838 32.1818H29.3474L27.3417 38H25.7565L23.748 32.1818H25.1144Z" fill="white"/>
</svg>
