<svg width="163" height="87" viewBox="0 0 163 87" fill="none" xmlns="http://www.w3.org/2000/svg">
<g clip-path="url(#clip0_1194_52423)">
<path fill-rule="evenodd" clip-rule="evenodd" d="M34.713 76.3703H103.384C103.773 76.3703 104.152 76.328 104.516 76.2488C104.881 76.328 105.26 76.3703 105.648 76.3703H144.889C147.806 76.3703 150.171 74.0065 150.171 71.0906C150.171 68.1747 147.806 65.811 144.889 65.811H140.361C137.444 65.811 135.079 63.4472 135.079 60.5313C135.079 57.6154 137.444 55.2516 140.361 55.2516H154.699C157.616 55.2516 159.981 52.8879 159.981 49.972C159.981 47.0561 157.616 44.6923 154.699 44.6923H138.097C141.015 44.6923 143.38 42.3286 143.38 39.4127C143.38 36.4968 141.015 34.133 138.097 34.133H89.8009C92.7183 34.133 95.0833 31.7693 95.0833 28.8534C95.0833 25.9375 92.7183 23.5737 89.8009 23.5737H46.787C43.8696 23.5737 41.5046 25.9375 41.5046 28.8534C41.5046 31.7693 43.8696 34.133 46.787 34.133H16.6019C13.6845 34.133 11.3194 36.4968 11.3194 39.4127C11.3194 42.3286 13.6845 44.6923 16.6019 44.6923H35.4676C38.385 44.6923 40.75 47.0561 40.75 49.972C40.75 52.8879 38.385 55.2516 35.4676 55.2516H5.28241C2.36501 55.2516 0 57.6154 0 60.5313C0 63.4472 2.36501 65.811 5.28241 65.811H34.713C31.7956 65.811 29.4306 68.1747 29.4306 71.0906C29.4306 74.0065 31.7956 76.3703 34.713 76.3703ZM157.718 76.3703C160.635 76.3703 163 74.0065 163 71.0906C163 68.1747 160.635 65.811 157.718 65.811C154.8 65.811 152.435 68.1747 152.435 71.0906C152.435 74.0065 154.8 76.3703 157.718 76.3703Z" fill="#DDE8FB"/>
<path d="M116.792 4.172C117.08 3.924 117.388 3.692 117.716 3.476C118.052 3.26 118.412 3.072 118.796 2.912C119.188 2.752 119.608 2.628 120.056 2.54C120.512 2.444 121 2.396 121.52 2.396C122.24 2.396 122.892 2.496 123.476 2.696C124.06 2.888 124.56 3.168 124.976 3.536C125.392 3.896 125.712 4.332 125.936 4.844C126.168 5.356 126.284 5.928 126.284 6.56C126.284 7.168 126.196 7.696 126.02 8.144C125.852 8.584 125.636 8.968 125.372 9.296C125.116 9.624 124.832 9.908 124.52 10.148C124.208 10.388 123.912 10.612 123.632 10.82C123.352 11.028 123.108 11.236 122.9 11.444C122.7 11.644 122.576 11.868 122.528 12.116L122.228 13.832H119.96L119.732 11.888C119.676 11.504 119.724 11.172 119.876 10.892C120.028 10.604 120.232 10.344 120.488 10.112C120.744 9.872 121.028 9.644 121.34 9.428C121.66 9.204 121.956 8.968 122.228 8.72C122.508 8.464 122.74 8.18 122.924 7.868C123.116 7.548 123.212 7.172 123.212 6.74C123.212 6.212 123.028 5.792 122.66 5.48C122.3 5.168 121.82 5.012 121.22 5.012C120.78 5.012 120.408 5.06 120.104 5.156C119.808 5.252 119.552 5.36 119.336 5.48C119.12 5.592 118.936 5.696 118.784 5.792C118.632 5.888 118.488 5.936 118.352 5.936C118.048 5.936 117.82 5.804 117.668 5.54L116.792 4.172ZM119.036 18.26C119.036 17.996 119.084 17.748 119.18 17.516C119.284 17.276 119.424 17.072 119.6 16.904C119.776 16.728 119.98 16.592 120.212 16.496C120.452 16.392 120.712 16.34 120.992 16.34C121.264 16.34 121.52 16.392 121.76 16.496C122 16.592 122.208 16.728 122.384 16.904C122.56 17.072 122.696 17.276 122.792 17.516C122.896 17.748 122.948 17.996 122.948 18.26C122.948 18.532 122.896 18.784 122.792 19.016C122.696 19.248 122.56 19.452 122.384 19.628C122.208 19.796 122 19.928 121.76 20.024C121.52 20.12 121.264 20.168 120.992 20.168C120.712 20.168 120.452 20.12 120.212 20.024C119.98 19.928 119.776 19.796 119.6 19.628C119.424 19.452 119.284 19.248 119.18 19.016C119.084 18.784 119.036 18.532 119.036 18.26Z" fill="#1B4CA1"/>
<path d="M55.792 7.172C56.08 6.924 56.388 6.692 56.716 6.476C57.052 6.26 57.412 6.072 57.796 5.912C58.188 5.752 58.608 5.628 59.056 5.54C59.512 5.444 60 5.396 60.52 5.396C61.24 5.396 61.892 5.496 62.476 5.696C63.06 5.888 63.56 6.168 63.976 6.536C64.392 6.896 64.712 7.332 64.936 7.844C65.168 8.356 65.284 8.928 65.284 9.56C65.284 10.168 65.196 10.696 65.02 11.144C64.852 11.584 64.636 11.968 64.372 12.296C64.116 12.624 63.832 12.908 63.52 13.148C63.208 13.388 62.912 13.612 62.632 13.82C62.352 14.028 62.108 14.236 61.9 14.444C61.7 14.644 61.576 14.868 61.528 15.116L61.228 16.832H58.96L58.732 14.888C58.676 14.504 58.724 14.172 58.876 13.892C59.028 13.604 59.232 13.344 59.488 13.112C59.744 12.872 60.028 12.644 60.34 12.428C60.66 12.204 60.956 11.968 61.228 11.72C61.508 11.464 61.74 11.18 61.924 10.868C62.116 10.548 62.212 10.172 62.212 9.74C62.212 9.212 62.028 8.792 61.66 8.48C61.3 8.168 60.82 8.012 60.22 8.012C59.78 8.012 59.408 8.06 59.104 8.156C58.808 8.252 58.552 8.36 58.336 8.48C58.12 8.592 57.936 8.696 57.784 8.792C57.632 8.888 57.488 8.936 57.352 8.936C57.048 8.936 56.82 8.804 56.668 8.54L55.792 7.172ZM58.036 21.26C58.036 20.996 58.084 20.748 58.18 20.516C58.284 20.276 58.424 20.072 58.6 19.904C58.776 19.728 58.98 19.592 59.212 19.496C59.452 19.392 59.712 19.34 59.992 19.34C60.264 19.34 60.52 19.392 60.76 19.496C61 19.592 61.208 19.728 61.384 19.904C61.56 20.072 61.696 20.276 61.792 20.516C61.896 20.748 61.948 20.996 61.948 21.26C61.948 21.532 61.896 21.784 61.792 22.016C61.696 22.248 61.56 22.452 61.384 22.628C61.208 22.796 61 22.928 60.76 23.024C60.52 23.12 60.264 23.168 59.992 23.168C59.712 23.168 59.452 23.12 59.212 23.024C58.98 22.928 58.776 22.796 58.6 22.628C58.424 22.452 58.284 22.248 58.18 22.016C58.084 21.784 58.036 21.532 58.036 21.26Z" fill="#1B4CA1"/>
<path d="M67.792 49.172C68.08 48.924 68.388 48.692 68.716 48.476C69.052 48.26 69.412 48.072 69.796 47.912C70.188 47.752 70.608 47.628 71.056 47.54C71.512 47.444 72 47.396 72.52 47.396C73.24 47.396 73.892 47.496 74.476 47.696C75.06 47.888 75.56 48.168 75.976 48.536C76.392 48.896 76.712 49.332 76.936 49.844C77.168 50.356 77.284 50.928 77.284 51.56C77.284 52.168 77.196 52.696 77.02 53.144C76.852 53.584 76.636 53.968 76.372 54.296C76.116 54.624 75.832 54.908 75.52 55.148C75.208 55.388 74.912 55.612 74.632 55.82C74.352 56.028 74.108 56.236 73.9 56.444C73.7 56.644 73.576 56.868 73.528 57.116L73.228 58.832H70.96L70.732 56.888C70.676 56.504 70.724 56.172 70.876 55.892C71.028 55.604 71.232 55.344 71.488 55.112C71.744 54.872 72.028 54.644 72.34 54.428C72.66 54.204 72.956 53.968 73.228 53.72C73.508 53.464 73.74 53.18 73.924 52.868C74.116 52.548 74.212 52.172 74.212 51.74C74.212 51.212 74.028 50.792 73.66 50.48C73.3 50.168 72.82 50.012 72.22 50.012C71.78 50.012 71.408 50.06 71.104 50.156C70.808 50.252 70.552 50.36 70.336 50.48C70.12 50.592 69.936 50.696 69.784 50.792C69.632 50.888 69.488 50.936 69.352 50.936C69.048 50.936 68.82 50.804 68.668 50.54L67.792 49.172ZM70.036 63.26C70.036 62.996 70.084 62.748 70.18 62.516C70.284 62.276 70.424 62.072 70.6 61.904C70.776 61.728 70.98 61.592 71.212 61.496C71.452 61.392 71.712 61.34 71.992 61.34C72.264 61.34 72.52 61.392 72.76 61.496C73 61.592 73.208 61.728 73.384 61.904C73.56 62.072 73.696 62.276 73.792 62.516C73.896 62.748 73.948 62.996 73.948 63.26C73.948 63.532 73.896 63.784 73.792 64.016C73.696 64.248 73.56 64.452 73.384 64.628C73.208 64.796 73 64.928 72.76 65.024C72.52 65.12 72.264 65.168 71.992 65.168C71.712 65.168 71.452 65.12 71.212 65.024C70.98 64.928 70.776 64.796 70.6 64.628C70.424 64.452 70.284 64.248 70.18 64.016C70.084 63.784 70.036 63.532 70.036 63.26Z" fill="#1B4CA1"/>
<path d="M30.792 30.172C31.08 29.924 31.388 29.692 31.716 29.476C32.052 29.26 32.412 29.072 32.796 28.912C33.188 28.752 33.608 28.628 34.056 28.54C34.512 28.444 35 28.396 35.52 28.396C36.24 28.396 36.892 28.496 37.476 28.696C38.06 28.888 38.56 29.168 38.976 29.536C39.392 29.896 39.712 30.332 39.936 30.844C40.168 31.356 40.284 31.928 40.284 32.56C40.284 33.168 40.196 33.696 40.02 34.144C39.852 34.584 39.636 34.968 39.372 35.296C39.116 35.624 38.832 35.908 38.52 36.148C38.208 36.388 37.912 36.612 37.632 36.82C37.352 37.028 37.108 37.236 36.9 37.444C36.7 37.644 36.576 37.868 36.528 38.116L36.228 39.832H33.96L33.732 37.888C33.676 37.504 33.724 37.172 33.876 36.892C34.028 36.604 34.232 36.344 34.488 36.112C34.744 35.872 35.028 35.644 35.34 35.428C35.66 35.204 35.956 34.968 36.228 34.72C36.508 34.464 36.74 34.18 36.924 33.868C37.116 33.548 37.212 33.172 37.212 32.74C37.212 32.212 37.028 31.792 36.66 31.48C36.3 31.168 35.82 31.012 35.22 31.012C34.78 31.012 34.408 31.06 34.104 31.156C33.808 31.252 33.552 31.36 33.336 31.48C33.12 31.592 32.936 31.696 32.784 31.792C32.632 31.888 32.488 31.936 32.352 31.936C32.048 31.936 31.82 31.804 31.668 31.54L30.792 30.172ZM33.036 44.26C33.036 43.996 33.084 43.748 33.18 43.516C33.284 43.276 33.424 43.072 33.6 42.904C33.776 42.728 33.98 42.592 34.212 42.496C34.452 42.392 34.712 42.34 34.992 42.34C35.264 42.34 35.52 42.392 35.76 42.496C36 42.592 36.208 42.728 36.384 42.904C36.56 43.072 36.696 43.276 36.792 43.516C36.896 43.748 36.948 43.996 36.948 44.26C36.948 44.532 36.896 44.784 36.792 45.016C36.696 45.248 36.56 45.452 36.384 45.628C36.208 45.796 36 45.928 35.76 46.024C35.52 46.12 35.264 46.168 34.992 46.168C34.712 46.168 34.452 46.12 34.212 46.024C33.98 45.928 33.776 45.796 33.6 45.628C33.424 45.452 33.284 45.248 33.18 45.016C33.084 44.784 33.036 44.532 33.036 44.26Z" fill="#1B4CA1"/>
<path d="M100.792 30.172C101.08 29.924 101.388 29.692 101.716 29.476C102.052 29.26 102.412 29.072 102.796 28.912C103.188 28.752 103.608 28.628 104.056 28.54C104.512 28.444 105 28.396 105.52 28.396C106.24 28.396 106.892 28.496 107.476 28.696C108.06 28.888 108.56 29.168 108.976 29.536C109.392 29.896 109.712 30.332 109.936 30.844C110.168 31.356 110.284 31.928 110.284 32.56C110.284 33.168 110.196 33.696 110.02 34.144C109.852 34.584 109.636 34.968 109.372 35.296C109.116 35.624 108.832 35.908 108.52 36.148C108.208 36.388 107.912 36.612 107.632 36.82C107.352 37.028 107.108 37.236 106.9 37.444C106.7 37.644 106.576 37.868 106.528 38.116L106.228 39.832H103.96L103.732 37.888C103.676 37.504 103.724 37.172 103.876 36.892C104.028 36.604 104.232 36.344 104.488 36.112C104.744 35.872 105.028 35.644 105.34 35.428C105.66 35.204 105.956 34.968 106.228 34.72C106.508 34.464 106.74 34.18 106.924 33.868C107.116 33.548 107.212 33.172 107.212 32.74C107.212 32.212 107.028 31.792 106.66 31.48C106.3 31.168 105.82 31.012 105.22 31.012C104.78 31.012 104.408 31.06 104.104 31.156C103.808 31.252 103.552 31.36 103.336 31.48C103.12 31.592 102.936 31.696 102.784 31.792C102.632 31.888 102.488 31.936 102.352 31.936C102.048 31.936 101.82 31.804 101.668 31.54L100.792 30.172ZM103.036 44.26C103.036 43.996 103.084 43.748 103.18 43.516C103.284 43.276 103.424 43.072 103.6 42.904C103.776 42.728 103.98 42.592 104.212 42.496C104.452 42.392 104.712 42.34 104.992 42.34C105.264 42.34 105.52 42.392 105.76 42.496C106 42.592 106.208 42.728 106.384 42.904C106.56 43.072 106.696 43.276 106.792 43.516C106.896 43.748 106.948 43.996 106.948 44.26C106.948 44.532 106.896 44.784 106.792 45.016C106.696 45.248 106.56 45.452 106.384 45.628C106.208 45.796 106 45.928 105.76 46.024C105.52 46.12 105.264 46.168 104.992 46.168C104.712 46.168 104.452 46.12 104.212 46.024C103.98 45.928 103.776 45.796 103.6 45.628C103.424 45.452 103.284 45.248 103.18 45.016C103.084 44.784 103.036 44.532 103.036 44.26Z" fill="#1B4CA1"/>
<path d="M117.792 56.172C118.08 55.924 118.388 55.692 118.716 55.476C119.052 55.26 119.412 55.072 119.796 54.912C120.188 54.752 120.608 54.628 121.056 54.54C121.512 54.444 122 54.396 122.52 54.396C123.24 54.396 123.892 54.496 124.476 54.696C125.06 54.888 125.56 55.168 125.976 55.536C126.392 55.896 126.712 56.332 126.936 56.844C127.168 57.356 127.284 57.928 127.284 58.56C127.284 59.168 127.196 59.696 127.02 60.144C126.852 60.584 126.636 60.968 126.372 61.296C126.116 61.624 125.832 61.908 125.52 62.148C125.208 62.388 124.912 62.612 124.632 62.82C124.352 63.028 124.108 63.236 123.9 63.444C123.7 63.644 123.576 63.868 123.528 64.116L123.228 65.832H120.96L120.732 63.888C120.676 63.504 120.724 63.172 120.876 62.892C121.028 62.604 121.232 62.344 121.488 62.112C121.744 61.872 122.028 61.644 122.34 61.428C122.66 61.204 122.956 60.968 123.228 60.72C123.508 60.464 123.74 60.18 123.924 59.868C124.116 59.548 124.212 59.172 124.212 58.74C124.212 58.212 124.028 57.792 123.66 57.48C123.3 57.168 122.82 57.012 122.22 57.012C121.78 57.012 121.408 57.06 121.104 57.156C120.808 57.252 120.552 57.36 120.336 57.48C120.12 57.592 119.936 57.696 119.784 57.792C119.632 57.888 119.488 57.936 119.352 57.936C119.048 57.936 118.82 57.804 118.668 57.54L117.792 56.172ZM120.036 70.26C120.036 69.996 120.084 69.748 120.18 69.516C120.284 69.276 120.424 69.072 120.6 68.904C120.776 68.728 120.98 68.592 121.212 68.496C121.452 68.392 121.712 68.34 121.992 68.34C122.264 68.34 122.52 68.392 122.76 68.496C123 68.592 123.208 68.728 123.384 68.904C123.56 69.072 123.696 69.276 123.792 69.516C123.896 69.748 123.948 69.996 123.948 70.26C123.948 70.532 123.896 70.784 123.792 71.016C123.696 71.248 123.56 71.452 123.384 71.628C123.208 71.796 123 71.928 122.76 72.024C122.52 72.12 122.264 72.168 121.992 72.168C121.712 72.168 121.452 72.12 121.212 72.024C120.98 71.928 120.776 71.796 120.6 71.628C120.424 71.452 120.284 71.248 120.18 71.016C120.084 70.784 120.036 70.532 120.036 70.26Z" fill="#1B4CA1"/>
</g>
<defs>
<clipPath id="clip0_1194_52423">
<rect width="163" height="87" fill="white"/>
</clipPath>
</defs>
</svg>
