<?xml version="1.0" encoding="UTF-8"?>
<svg width="189px" height="184px" viewBox="0 0 189 184" version="1.1" xmlns="http://www.w3.org/2000/svg" xmlns:xlink="http://www.w3.org/1999/xlink">
    <title>undraw_no_data_re_kwbl (3)</title>
    <g id="CBP-Creation-V2--(Latest-Version)" stroke="none" stroke-width="1" fill="none" fill-rule="evenodd" opacity="0.613207136">
        <g id="ACBP-creation-screen-1" transform="translate(-732, -370)" fill-rule="nonzero">
            <g id="Group-3" transform="translate(717, 370)">
                <g id="undraw_no_data_re_kwbl-(3)" transform="translate(15, 0)">
                    <path d="M119.769231,41.4167017 L68.7804826,41.4167017 C66.3611813,41.4196283 64.400684,43.3692265 64.397741,45.7750779 L64.397741,158.468159 L63.8133755,158.645414 L51.3050135,162.454635 C50.0706864,162.828901 48.7647111,162.138575 48.3861836,160.91177 L11.1795331,40.0539827 C10.8024976,38.8264286 11.496929,37.5272338 12.7310412,37.1513042 L32.0064029,31.2820242 L87.8863578,14.2727347 L107.161573,8.40345471 C107.754006,8.22213667 108.394633,8.28258182 108.942203,8.57146287 C109.489774,8.86034392 109.899323,9.35393782 110.080549,9.9434143 L119.59104,40.8355849 L119.769231,41.4167017 Z" id="Path" fill="#F2F2F2"></path>
                    <path d="M130.668629,40.7786511 L119.257571,3.49865928 C118.874149,2.24417184 118.007984,1.19351885 116.849775,0.57801662 C115.691566,-0.0374856147 114.336271,-0.167373596 113.082278,0.216949374 L86.1035456,8.47650117 L30.4765331,25.5105597 L3.49780118,33.7730208 C0.888221715,34.5744862 -0.579818078,37.3379349 0.216640529,39.9495015 L39.2172932,167.357234 C39.8551646,169.435567 41.773376,170.85501 43.9470096,170.857143 C44.4370834,170.857143 44.9243995,170.783811 45.392581,170.638944 L63.8864886,164.977412 L64.4682403,164.797034 L64.4682403,164.188987 L63.8864886,164.366455 L45.2210108,170.083264 C42.9176417,170.785533 40.480548,169.490619 39.7729067,167.188493 L0.775235537,39.7778517 C0.435144522,38.67139 0.549148859,37.4750571 1.09209796,36.4527769 C1.63504705,35.4304967 2.56232547,34.6662725 3.66936555,34.3287004 L30.6480975,26.0662393 L86.2752584,9.03509591 L113.25399,0.772634795 C113.669742,0.645730092 114.101973,0.581025025 114.536654,0.580619854 C116.451568,0.584920312 118.140342,1.83638235 118.702089,3.6674055 L130.060731,40.7786569 L130.241109,41.3605203 L130.846154,41.3605203 L130.668629,40.7786511 Z" id="Path" fill="#3F3D56"></path>
                    <path d="M35.4506956,37.3533835 C34.2984752,37.3525621 33.2814234,36.600119 32.9428773,35.4980299 L29.1918159,23.2376713 C28.9882441,22.5725517 29.0570986,21.8537477 29.3832275,21.2394352 C29.7093564,20.6251227 30.2660362,20.1656396 30.9307673,19.9620968 L82.1682705,4.26537238 C83.5522537,3.84276899 85.0168674,4.62123678 85.441828,6.00532546 L89.1928895,18.2658269 C89.6149345,19.6506962 88.8370808,21.1160864 87.4540836,21.5415442 L36.2164377,37.2382686 C35.9683168,37.3144674 35.7102386,37.3533835 35.4506956,37.3533835 L35.4506956,37.3533835 Z" id="Path" fill="#6C63FF"></path>
                    <ellipse id="Oval" fill="#6C63FF" cx="55.7307692" cy="7.26315789" rx="5.88461538" ry="5.87969925"></ellipse>
                    <ellipse id="Oval" fill="#FFFFFF" cx="55.3846154" cy="6.91729323" rx="3.46153846" ry="3.45864662"></ellipse>
                    <path d="M175.453196,168.781955 L77.2391116,168.781955 C75.8756853,168.780386 74.7708016,167.677181 74.7692308,166.315825 L74.7692308,48.8119944 C74.7707537,47.4506189 75.8756654,46.3473853 77.2391116,46.3458647 L175.453196,46.3458647 C176.816622,46.3474347 177.921504,47.4506394 177.923077,48.8119944 L177.923077,166.315825 C177.921455,167.67716 176.816601,168.780335 175.453196,168.781955 Z" id="Path" fill="#E6E6E6"></path>
                    <path d="M130.622933,40.8120301 L69.3342919,40.8120301 C66.6022642,40.8158949 64.3884818,43.0287269 64.3846154,45.7595819 L64.3846154,164.442619 L64.9669303,164.265089 L64.9669303,45.7595819 C64.9698629,43.3498053 66.9234804,41.3970264 69.3342919,41.394095 L130.803486,41.394095 L130.622933,40.8120301 Z M184.050324,40.8120301 L69.3342919,40.8120301 C66.6022642,40.8158949 64.3884818,43.0287269 64.3846154,45.7595819 L64.3846154,179.052448 C64.3884802,181.783304 66.6022635,183.996137 69.3342919,184 L184.050324,184 C186.782352,183.996137 188.996135,181.783304 189,179.052448 L189,45.7595819 C188.996134,43.0287269 186.782351,40.8158949 184.050324,40.8120301 L184.050324,40.8120301 Z M188.417685,179.052448 C188.414753,181.462225 186.461135,183.415004 184.050324,183.417935 L69.3342919,183.417935 C66.9234804,183.415004 64.9698629,181.462225 64.9669303,179.052448 L64.9669303,45.7595819 C64.9698629,43.3498053 66.9234804,41.3970264 69.3342919,41.394095 L184.050324,41.394095 C186.461135,41.3970264 188.414753,43.3498053 188.417685,45.7595819 L188.417685,179.052448 Z" id="Shape" fill="#3F3D56"></path>
                    <path d="M153.147372,53.9548872 L99.5449353,53.9548872 C98.0975984,53.9532646 96.9247064,52.7853553 96.9230769,51.3441669 L96.9230769,38.5806452 C96.924708,37.1394574 98.0975991,35.971549 99.5449353,35.9699248 L153.147372,35.9699248 C154.594709,35.971549 155.7676,37.1394574 155.769231,38.5806452 L155.769231,51.3441669 C155.767601,52.7853553 154.594709,53.9532646 153.147372,53.9548872 Z" id="Path" fill="#6C63FF"></path>
                    <ellipse id="Oval" fill="#6C63FF" cx="126.346154" cy="30.0902256" rx="5.88461538" ry="5.87969925"></ellipse>
                    <ellipse id="Oval" fill="#FFFFFF" cx="126.692308" cy="30.4360902" rx="3.46153846" ry="3.45864662"></ellipse>
                </g>
            </g>
        </g>
    </g>
</svg>