<?xml version="1.0" encoding="UTF-8"?>
<svg width="48px" height="48px" viewBox="0 0 48 48" version="1.1" xmlns="http://www.w3.org/2000/svg" xmlns:xlink="http://www.w3.org/1999/xlink">
    <title>Icons/others/vega</title>
    <g id="CBP-Creation-V2--(Latest-Version)" stroke="none" stroke-width="1" fill="none" fill-rule="evenodd">
        <g id="ACBP-edit-timeline-screen-10-Copy-12" transform="translate(-700, -445)">
            <g id="Group-10" transform="translate(468, 328)">
                <g id="Icons/others/vega" transform="translate(232, 117)">
                    <rect id="Size" fill="#D8D8D8" opacity="0" x="0" y="0" width="48" height="48"></rect>
                    <path d="M24,44 C12.9727273,44 4,35.0272727 4,24 C4,12.9727273 12.9727273,4 24,4 C26.6981818,4 29.3181818,4.52909091 31.7854545,5.57272727 C32.7109091,5.96363636 33.1436364,7.03090909 32.7509091,7.95454545 C32.3618182,8.88 31.2981818,9.31272727 30.3690909,8.92181818 C28.3527273,8.06909091 26.2090909,7.63636364 24,7.63636364 C14.9781818,7.63636364 7.63636364,14.9781818 7.63636364,24 C7.63636364,33.0218182 14.9781818,40.3636364 24,40.3636364 C33.0218182,40.3636364 40.3636364,33.0218182 40.3636364,24 C40.3636364,22.3381818 40.1163636,20.7018182 39.6290909,19.1345455 C39.3290909,18.1745455 39.8654545,17.1563636 40.8236364,16.8581818 C41.7818182,16.5563636 42.8018182,17.0945455 43.1,18.0527273 C43.6963636,19.9709091 44,21.9709091 44,24 C44,35.0272727 35.0272727,44 24,44" id="Fill-1" fill="#1B4CA1"></path>
                    <path d="M19.3285714,35.0554286 C18.456,34.6868571 18.048,33.6805714 18.4182857,32.8097143 C18.7851429,31.9371429 19.7948571,31.5308571 20.664,31.8977143 C21.72,32.3451429 22.8428571,32.5714286 24,32.5714286 C28.7262857,32.5714286 32.5714286,28.7262857 32.5714286,24 C32.5714286,19.2737143 28.7262857,15.4285714 24,15.4285714 C19.2737143,15.4285714 15.4285714,19.2737143 15.4285714,24 C15.4285714,24.8691429 15.5588571,25.7262857 15.8142857,26.5491429 C16.0954286,27.4542857 15.5897143,28.4142857 14.6862857,28.6954286 C13.7845714,28.9748571 12.8211429,28.4725714 12.54,27.5674286 C12.1817143,26.4154286 12,25.2154286 12,24 C12,17.3828571 17.3828571,12 24,12 C30.6171429,12 36,17.3828571 36,24 C36,30.6171429 30.6171429,36 24,36 C22.38,36 20.8097143,35.6828571 19.3285714,35.0554286 Z" id="Fill-3" fill="#F3962F"></path>
                </g>
            </g>
        </g>
    </g>
</svg>