<?xml version="1.0" encoding="UTF-8"?>
<svg width="312px" height="213px" viewBox="0 0 312 213" version="1.1" xmlns="http://www.w3.org/2000/svg" xmlns:xlink="http://www.w3.org/1999/xlink">
    <title>undraw_preferences_re_49in</title>
    <g id="Registration-&amp;-Interests-(V11)" stroke="none" stroke-width="1" fill="none" fill-rule="evenodd">
        <g id="11-Role-&amp;-Activities-Copy" transform="translate(-834.000000, -294.000000)" fill-rule="nonzero">
            <g id="Group-68" transform="translate(263.000000, 262.000000)">
                <g id="undraw_preferences_re_49in" transform="translate(571.000000, 32.000000)">
                    <path d="M307.248445,193.770131 C305.069712,201.139215 298.708084,206.297656 292.072101,210.679678 C291.145539,211.291657 290.218682,211.889546 289.29153,212.473343 C289.285251,212.476017 289.278778,212.481752 289.272421,212.484481 C289.227812,212.51242 289.183122,212.540402 289.141558,212.568535 C288.950207,212.688785 288.758787,212.809128 288.569023,212.928024 L288.673261,212.973678 C288.673261,212.973678 288.775614,213.026743 288.663631,212.982183 C288.6303,212.968594 288.595386,212.956388 288.562123,212.942715 C284.70704,211.426824 280.783482,209.799222 277.829142,206.959454 C274.764445,204.010543 272.973446,199.385304 274.632952,195.511277 C274.851089,195.003824 275.12662,194.521685 275.454431,194.073809 C275.589038,193.886008 275.734016,193.706263 275.884958,193.529853 C277.748818,191.311985 280.695701,190.24812 283.591604,190.747648 C286.487507,191.247176 288.881109,193.232247 289.851317,195.938977 C290.338847,191.513358 286.595881,187.806243 282.993826,185.070937 C279.390184,182.337015 275.295432,179.359711 274.598753,174.958659 C274.209699,172.509973 275.083049,170.136962 276.674038,168.231985 C276.723295,168.174105 276.77248,168.1163 276.823212,168.060018 C278.759882,165.841285 281.483784,164.416545 284.450846,164.070378 C289.97657,163.510469 295.343959,166.362116 299.358274,170.107879 C305.819267,176.134548 309.725238,185.391522 307.248445,193.770131 Z" id="Path" fill="#F2F2F2"></path>
                    <path d="M296.898676,184.750712 C297.98349,186.325195 298.816373,188.038841 299.371035,189.837556 C299.840092,191.445228 300.048855,193.109285 299.990401,194.774548 C299.839094,198.20122 298.807868,201.543888 296.983464,204.521385 C295.609182,206.780254 293.934365,208.868033 291.998827,210.73509 C291.051013,211.334072 290.102896,211.919262 289.154479,212.49066 C289.148055,212.493278 289.141434,212.498891 289.134931,212.501562 C289.0893,212.528908 289.043584,212.556295 289.001066,212.58383 C288.805327,212.701526 288.609516,212.819313 288.4154,212.935685 C288.4154,212.935685 288.626707,213.032307 288.512178,212.988693 C288.478082,212.975393 288.442367,212.963446 288.408341,212.950063 C289.125538,207.464868 286.946787,201.99583 282.563629,198.278836 C280.398346,196.474917 277.806698,195.173916 275,194.481911 C275.137694,194.298099 275.285998,194.122172 275.440403,193.949508 C276.524406,194.233077 277.57941,194.605498 278.593093,195.062422 C282.216687,196.685694 285.183723,199.354205 287.055023,202.672966 C288.73427,205.686528 289.456992,209.084473 289.138333,212.467833 C289.30036,212.330861 289.462573,212.190913 289.61992,212.052291 C292.616561,209.446059 295.278175,206.454533 297.079475,203.002056 C298.64221,200.078294 299.410269,196.84091 299.316002,193.575044 C299.168996,190.01399 297.648038,186.715539 295.445875,183.844042 C293.032304,180.780549 290.181032,178.039304 286.971285,175.696477 C283.736566,173.27958 280.196966,171.241016 276.431397,169.626234 C276.255009,169.549442 276.174162,169.357108 276.247581,169.188938 C276.272694,169.116273 276.327531,169.055787 276.400177,169.020624 C276.475896,168.990164 276.562374,168.993591 276.63505,169.029932 C277.099976,169.229597 277.561668,169.431993 278.019659,169.643135 C281.834296,171.402007 285.399929,173.596143 288.634644,176.175135 C291.759172,178.660147 294.700735,181.49927 296.898676,184.750712 Z" id="Path" fill="#FFFFFF"></path>
                    <path d="M260.309191,0 L3.68645536,0 C1.65120415,0.00185038002 0,1.64888278 0,3.68112714 L0,177.318873 C0,179.351118 1.65120319,180.998152 3.68645536,181 L260.309191,181 C261.387928,181 262.412467,180.52791 263.112327,179.708228 C263.141592,179.676506 263.168435,179.64264 263.192633,179.606913 C263.412687,179.33825 263.590851,179.037947 263.721098,178.71616 C263.906586,178.273663 264,177.798545 264,177.318852 L264,3.68114403 C264,1.64738325 262.345962,0 260.309191,0 L260.309191,0 Z M262.947392,177.318881 C262.947392,177.832473 262.796269,178.334742 262.511817,178.762647 C262.259113,179.139295 261.916166,179.446929 261.514134,179.6576 C261.141682,179.84975 260.728417,179.948886 260.309191,179.948886 L3.68645536,179.948886 C2.23253968,179.948886 1.05258444,178.77067 1.05258444,177.318902 L1.05258444,3.68114403 C1.05258444,2.22937638 2.23253968,1.05116443 3.68645536,1.05116443 L260.309191,1.05116443 C261.764617,1.05116443 262.947392,2.22787016 262.947392,3.68114403 L262.947392,177.318881 Z" id="Shape" fill="#3F3D56"></path>
                    <rect id="Rectangle" fill="#3F3D56" x="1" y="14" width="263" height="1"></rect>
                    <circle id="Oval" fill="#3F3D56" cx="9" cy="9" r="3"></circle>
                    <circle id="Oval" fill="#3F3D56" cx="19" cy="9" r="3"></circle>
                    <circle id="Oval" fill="#3F3D56" cx="29" cy="9" r="3"></circle>
                    <path d="M170,74 C165.029437,74 161,69.9705627 161,65 C161,60.0294373 165.029437,56 170,56 C174.970563,56 179,60.0294373 179,65 C178.994397,69.9682401 174.96824,73.9943971 170,74 Z M170,56.852939 C165.500502,56.852939 161.852939,60.5005024 161.852939,65 C161.852939,69.4994976 165.500502,73.147061 170,73.147061 C174.499498,73.147061 178.147061,69.4994976 178.147061,65 C178.141967,60.5026141 174.497386,56.858033 170,56.852939 L170,56.852939 Z" id="Shape" fill="#0074B6"></path>
                    <path d="M168.348402,69 C168.19275,69.0002986 168.041234,68.9428815 167.916703,68.836407 L167.908981,68.8298021 L166.282985,67.4115301 C165.966276,67.1346761 165.906364,66.617493 166.149167,66.2563691 C166.39197,65.8952452 166.845543,65.8269309 167.162252,66.1037847 L168.215439,67.0246805 L170.704189,63.322502 C170.820738,63.1491539 170.992906,63.0356984 171.182818,63.0070951 C171.37273,62.9784919 171.564829,63.0370839 171.716854,63.1699813 L171.717063,63.1701619 L171.701619,63.1946153 L171.717484,63.1701619 C172.033691,63.4472664 172.093462,63.9639584 171.851084,64.3250746 L168.923763,68.6777001 C168.786492,68.880976 168.574024,68.9997575 168.349025,68.9990095 L168.348402,69 Z" id="f1f767dc-4b88-4f47-9e03-7555881e6705-251" fill="#0074B6"></path>
                    <path d="M195,74 C190.029437,74 186,69.9705627 186,65 C186,60.0294373 190.029437,56 195,56 C199.970563,56 204,60.0294373 204,65 C203.994456,69.9682645 199.968265,73.9944559 195,74 L195,74 Z M195,56.852939 C190.500502,56.852939 186.852939,60.5005024 186.852939,65 C186.852939,69.4994976 190.500502,73.147061 195,73.147061 C199.499498,73.147061 203.147061,69.4994976 203.147061,65 C203.142019,60.5025928 199.497407,56.8579814 195,56.852939 L195,56.852939 Z" id="Shape" fill="#E6E6E6"></path>
                    <path d="M197.847828,68.8477805 C197.644689,69.0504321 197.315853,69.0504321 197.112714,68.8477805 L195.163923,66.8989909 C195.073407,66.8086493 194.926843,66.8086276 194.8363,66.8989426 L192.88751,68.8477322 C192.684486,69.050756 192.355319,69.0507559 192.152295,68.8477322 C191.949271,68.6447084 191.949271,68.3155418 192.152295,68.112518 L194.101086,66.1637284 C194.191422,66.0732509 194.191444,65.9267143 194.101134,65.8362102 L192.152239,63.8873118 C191.949254,63.6843269 191.949254,63.3552235 192.152239,63.1522387 C192.355224,62.9492538 192.684327,62.9492538 192.887312,63.1522385 L194.836212,65.1011328 C194.926716,65.1914424 195.073253,65.1914208 195.16373,65.1010845 L197.112521,63.1522949 C197.315545,62.9492722 197.644711,62.9492731 197.847733,63.1522969 C198.050756,63.3553207 198.050755,63.6844864 197.847731,63.8875091 L195.898941,65.8362987 C195.808631,65.9268406 195.808653,66.0733984 195.898989,66.1639136 L197.84778,68.1127032 C198.05043,68.3158206 198.050451,68.6446365 197.847828,68.8477805 L197.847828,68.8477805 Z" id="Path" fill="#E6E6E6"></path>
                    <path d="M170,101 C165.029437,101 161,96.9705627 161,92 C161,87.0294373 165.029437,83 170,83 C174.970563,83 179,87.0294373 179,92 C178.994397,96.9682401 174.96824,100.994397 170,101 L170,101 Z M170,83.852939 C165.500502,83.852939 161.852939,87.5005024 161.852939,92 C161.852939,96.4994976 165.500502,100.147061 170,100.147061 C174.499498,100.147061 178.147061,96.4994976 178.147061,92 C178.141967,87.5026141 174.497386,83.858033 170,83.852939 L170,83.852939 Z" id="Shape" fill="#0074B6"></path>
                    <path d="M168.348402,96 C168.192751,96.0002947 168.041235,95.942878 167.916703,95.836407 L167.908981,95.8298021 L166.282985,94.4115301 C165.966276,94.1346762 165.906364,93.617493 166.149167,93.2563691 C166.39197,92.8952452 166.845543,92.8269309 167.162252,93.1037848 L168.215439,94.0246805 L170.704189,90.322502 C170.820738,90.1491539 170.992906,90.0356984 171.182818,90.0070951 C171.37273,89.9784919 171.564829,90.0370839 171.716854,90.1699813 L171.717063,90.1701619 L171.701619,90.1946153 L171.717484,90.1701619 C172.033691,90.4472664 172.093462,90.9639584 171.851084,91.3250746 L168.923763,95.6777083 C168.786493,95.8809852 168.574024,95.999767 168.349025,95.9990178 L168.348402,96 Z" id="a793c70c-1521-4e6e-9b61-9683a9490971-252" fill="#0074B6"></path>
                    <path d="M195,101 C190.029437,101 186,96.9705627 186,92 C186,87.0294373 190.029437,83 195,83 C199.970563,83 204,87.0294373 204,92 C203.994456,96.9682645 199.968265,100.994456 195,101 L195,101 Z M195,83.852939 C190.500502,83.852939 186.852939,87.5005024 186.852939,92 C186.852939,96.4994976 190.500502,100.147061 195,100.147061 C199.499498,100.147061 203.147061,96.4994976 203.147061,92 C203.142019,87.5025928 199.497407,83.8579814 195,83.852939 Z" id="Shape" fill="#E6E6E6"></path>
                    <path d="M197.84782,95.8477804 C197.644682,96.0504343 197.315844,96.0504343 197.112706,95.8477804 L195.163915,93.8989895 C195.0734,93.8086531 194.926842,93.8086315 194.8363,93.8989412 L192.88751,95.8477321 C192.684486,96.050756 192.355319,96.050756 192.152295,95.8477321 C191.949271,95.6447081 191.949271,95.3155413 192.152295,95.1125174 L194.101086,93.1637265 C194.191422,93.073249 194.191444,92.9267123 194.101134,92.8362081 L192.152239,90.8873125 C191.949254,90.6843275 191.949254,90.3552238 192.152239,90.1522388 C192.355224,89.9492537 192.684327,89.9492537 192.887312,90.1522388 L194.836212,92.1011383 C194.926717,92.1914468 195.073254,92.1914234 195.16373,92.101086 L197.112521,90.1522951 C197.315545,89.9492723 197.644711,89.9492732 197.847733,90.1522971 C198.050756,90.3553211 198.050755,90.684487 197.847731,90.8875098 L195.898941,92.8363007 C195.808633,92.9268449 195.808655,93.0734022 195.898989,93.1639197 L197.84778,95.1127106 C198.050424,95.3158285 198.050442,95.6446403 197.84782,95.8477804 L197.84782,95.8477804 Z" id="Path" fill="#E6E6E6"></path>
                    <path d="M170,130 C165.029437,130 161,125.970563 161,121 C161,116.029437 165.029437,112 170,112 C174.970563,112 179,116.029437 179,121 C178.994397,125.96824 174.96824,129.994397 170,130 Z M170,112.852939 C165.500502,112.852939 161.852939,116.500502 161.852939,121 C161.852939,125.499498 165.500502,129.147061 170,129.147061 C174.499498,129.147061 178.147061,125.499498 178.147061,121 C178.141967,116.502614 174.497386,112.858033 170,112.852939 L170,112.852939 Z" id="Shape" fill="#E6E6E6"></path>
                    <path d="M168.348402,123 C168.19275,123.000299 168.041233,122.942881 167.916703,122.836407 L167.908981,122.829802 L166.282984,121.411529 C165.966276,121.134675 165.906364,120.617492 166.149167,120.256368 C166.39197,119.895244 166.845543,119.82693 167.162251,120.103783 L168.215439,121.024684 L170.704189,117.3225 C170.820738,117.149152 170.992906,117.035697 171.182819,117.007095 C171.372731,116.978492 171.564829,117.037085 171.716854,117.169983 L171.717063,117.170159 L171.701618,117.194617 L171.717484,117.170159 C172.033692,117.447266 172.093462,117.963959 171.851084,118.325077 L168.923763,122.677708 C168.786493,122.880985 168.574024,122.999768 168.349025,122.999022 L168.348402,123 Z" id="b02a55c8-7c5c-410c-bde7-66a7a3b003d7-253" fill="#E6E6E6"></path>
                    <path d="M195,130 C190.029437,130 186,125.970563 186,121 C186,116.029437 190.029437,112 195,112 C199.970563,112 204,116.029437 204,121 C203.994456,125.968265 199.968265,129.994456 195,130 L195,130 Z M195,112.852939 C190.500502,112.852939 186.852939,116.500502 186.852939,121 C186.852939,125.499498 190.500502,129.147061 195,129.147061 C199.499498,129.147061 203.147061,125.499498 203.147061,121 C203.142019,116.502593 199.497407,112.857981 195,112.852939 L195,112.852939 Z" id="Shape" fill="#E6E6E6"></path>
                    <path d="M197.848034,122.847785 C197.644889,123.050441 197.316037,123.050441 197.112893,122.847785 L195.164031,120.898995 C195.073513,120.808658 194.92695,120.808634 194.836404,120.898943 L192.887542,122.847732 C192.684511,123.050756 192.355332,123.050756 192.152301,122.847732 C191.949269,122.644708 191.949269,122.315542 192.152301,122.112518 L194.101162,120.163728 C194.1915,120.073249 194.191522,119.926713 194.101211,119.836206 L192.152244,117.887312 C191.949252,117.684327 191.949252,117.355224 192.152244,117.152239 C192.355237,116.949254 192.684352,116.949254 192.887345,117.152239 L194.836315,119.101137 C194.926823,119.191448 195.073367,119.191424 195.163846,119.101085 L197.112708,117.152295 C197.315857,116.949967 197.644465,116.950297 197.847208,117.153032 C198.04995,117.355767 198.05028,117.684364 197.847945,117.887505 L195.899083,119.836295 C195.808772,119.926839 195.808794,120.073396 195.899131,120.163914 L197.847993,122.112703 C198.050653,122.315822 198.050671,122.644643 197.848034,122.847785 L197.848034,122.847785 Z" id="Path" fill="#E6E6E6"></path>
                    <path d="M311.577023,213 L150.422977,213 C150.189373,213 150,212.776142 150,212.5 C150,212.223858 150.189373,212 150.422977,212 L311.577023,212 C311.810627,212 312,212.223858 312,212.5 C312,212.776142 311.810627,213 311.577023,213 Z" id="Path" fill="#3F3D56"></path>
                    <path d="M173.055577,96.3809643 C174.115912,97.0380323 175.405751,97.1799895 176.578026,96.7686384 C177.750302,96.3572872 178.684594,95.4348826 179.129505,94.2496244 L194,94.7569138 L189.960563,88 L176.45858,88.5541751 C174.421539,87.9058324 172.233305,88.9215271 171.365094,90.9183766 C170.496883,92.9152262 171.223132,95.2620391 173.05556,96.3809814 L173.055577,96.3809643 Z" id="Path" fill="#FFB8B8"></path>
                    <path d="M258.003253,130.502889 C258.777067,129.544261 259.120223,128.262568 258.940385,127.002691 C258.760547,125.742813 258.076189,124.63417 257.071458,123.975074 L260,109 L253.181375,111.9041 L251.44575,125.679452 C250.517904,127.629038 251.079139,130.024311 252.752129,131.254895 C254.425118,132.485479 256.68106,132.162409 258.003253,130.502889 L258.003253,130.502889 Z" id="Path" fill="#FFB8B8"></path>
                    <polygon id="Path" fill="#FFB8B8" points="222.999116 206 217.578534 205.999598 215 187 223 187.000402"></polygon>
                    <path d="M222.999692,213 L207,212.999445 L207,212.81062 C207,211.269526 207.656094,209.791548 208.823996,208.701839 C209.991898,207.61213 211.575914,207 213.227564,207 L213.227969,207 L223,207.000378 L222.999692,213 Z" id="Path" fill="#2F2E41"></path>
                    <polygon id="Path" fill="#FFB8B8" points="247.999116 206 242.578534 205.999598 240 187 248 187.000402"></polygon>
                    <path d="M248.999692,213 L233,212.999445 L233,212.81062 C233,211.269526 233.656094,209.791548 234.823996,208.701839 C235.991898,207.61213 237.575914,207 239.227564,207 L239.227969,207 L249,207.000378 L248.999692,213 Z" id="Path" fill="#2F2E41"></path>
                    <path d="M224.146893,197.998771 L216.822936,197.706616 C215.783425,197.661904 214.972183,196.793881 215.000731,195.756872 L217.064134,128.274775 L217.198896,128.226286 C230.035008,123.59662 240.653791,123.946715 249.662807,129.295034 L249.763572,129.355026 L251,195.079703 C251.009337,195.588005 250.813576,196.078832 250.456439,196.441698 C250.099302,196.804563 249.610801,197.008974 249.100899,197.008918 L242.925134,197.008918 C242.018102,197.007341 241.238215,196.367804 241.061614,195.480761 L232.648698,152.81114 C232.588742,152.506481 232.315431,152.290564 232.004253,152.302026 C231.693076,152.313488 231.436489,152.548924 231.399243,152.857164 L226.107983,196.335026 C225.98755,197.283351 225.18062,197.995682 224.221898,198 C224.197075,198 224.171931,198 224.146893,197.998771 Z" id="Path" fill="#2F2E41"></path>
                    <circle id="Oval" fill="#FFB8B8" cx="231.5" cy="57.5" r="10.5"></circle>
                    <path d="M184.085731,95.561533 C183.971634,95.1833175 183.971418,94.7780247 184.085114,94.399679 L185.146815,90.8722823 C185.384062,90.0905745 186.066681,89.5455678 186.85614,89.5075481 L200.300057,88.8912409 L222.111302,77.2975259 C224.171498,76.6151037 226.426311,77.1253394 228.025028,78.6357272 C229.623744,80.1461151 230.323021,82.4267564 229.859029,84.6171921 C229.395037,86.8076277 227.838401,88.574448 225.776421,89.2510523 L212.409705,97.2905087 C208.353161,99.7311407 203.579778,100.560792 198.977477,99.625136 L185.516328,96.8903419 C184.992944,96.7837067 184.537901,96.4515019 184.264608,95.9765216 C184.189404,95.8459935 184.129361,95.7066953 184.085731,95.561533 Z" id="Path" fill="#CCCCCC"></path>
                    <path d="M257.512646,121.887463 C257.154481,122.018468 256.765493,122.035529 256.397535,121.936371 L252.966901,121.010188 C252.206552,120.80295 251.654483,120.135855 251.584483,119.339735 L250.422274,105.781132 L238.368866,84.2241343 C237.626749,82.1708797 238.020908,79.8715806 239.402653,78.1936072 C240.784398,76.5156338 242.943448,75.7143481 245.06534,76.0920211 C247.187232,76.4696941 248.949046,77.9688497 249.686169,80.0239577 L257.96977,93.1960454 C260.484463,97.1934843 261.483381,101.982199 260.78071,106.671415 L258.727291,120.386705 C258.647164,120.919984 258.347633,121.393583 257.903351,121.689466 C257.781265,121.770882 257.650118,121.837343 257.512646,121.887463 L257.512646,121.887463 Z" id="Path" fill="#CCCCCC"></path>
                    <path d="M220.623104,74.7433587 C224.172897,70.7983976 229.297317,68.6987839 234.555195,69.0350029 C234.725795,69.0456931 234.895703,69.0577529 235.064919,69.0711823 L235.065122,69.0711823 C240.042373,69.4699883 244.608356,72.0238933 247.594142,76.0790764 C250.629764,80.1909355 251.76897,85.4293113 250.720164,90.4533616 C248.741795,99.9440161 249.242489,109.793633 252.172724,119.02804 L254.909893,127.640943 C255.087779,128.200272 254.999357,128.811594 254.670554,129.295661 C254.341751,129.779727 253.809828,130.081682 253.230752,130.112988 L239.237204,130.875389 L235.656207,124.607066 L235.656207,131.070489 L218.648403,131.99712 C218.614529,131.999175 218.580855,132 218.547388,132 C218.025617,132 217.527667,131.778655 217.173908,131.389985 C216.82015,131.001315 216.642781,130.480508 216.684677,129.95346 L218.607022,105.79665 L216.195824,89.3898056 C215.405288,84.0800385 217.033532,78.6934402 220.623104,74.7433587 Z" id="Path" fill="#CCCCCC"></path>
                    <path d="M239.645182,67.4719315 C238.651831,68.0174406 234.725401,68.3791468 234.445694,67.3183969 L234.439701,67.2950912 C234.24498,66.5179045 234.406677,65.706347 234.46256,64.9090314 C234.518444,64.1117158 234.436674,63.2358278 233.867707,62.649594 C232.807084,61.5567914 230.92017,62.136096 229.386512,61.859783 C227.528045,61.4638618 226.26715,59.8117759 226.442251,58.0020707 C226.464093,57.8363454 226.49834,57.6704326 226.536751,57.504624 C226.731211,56.6529595 226.496208,55.7635393 225.901856,55.1017284 C225.307504,54.4399175 224.422515,54.0822275 223.510933,54.1353779 C221.961017,54.2199665 220.288001,54.6681584 219.005656,53.5724916 C218.014008,52.7252125 217.77207,50.5196619 218.207773,49.3193609 C218.94,47.3021826 223.63045,46.2461522 225.678375,45.6656219 C230.807747,44.2511205 236.331806,45.1162269 240.718592,48.0210257 C242.012128,48.8912353 243.220151,49.9846425 243.771479,51.4004654 C244.322807,52.8162884 244.056825,54.6025271 242.813611,55.537159 C244.774828,57.5189772 245.481602,60.347752 244.66847,62.9609949 C244.054422,64.849412 241.123839,66.6599112 239.645182,67.4719315 Z" id="Path" fill="#2F2E41"></path>
                    <path d="M95.7680021,68 L29.2319979,68 C27.4464172,67.9981069 26,66.6555158 26,65 C26,63.3444842 27.4464172,62.0018931 29.2319979,62 L95.7680021,62 C97.5535828,62.0018931 99,63.3444842 99,65 C99,66.6555158 97.5535828,67.9981069 95.7680021,68 L95.7680021,68 Z" id="Path" fill="#0074B6"></path>
                    <path d="M136.577206,70 L22.4227941,70 C22.1892914,70 22,69.7761424 22,69.5 C22,69.2238576 22.1892914,69 22.4227941,69 L136.577206,69 C136.810709,69 137,69.2238576 137,69.5 C137,69.7761424 136.810709,70 136.577206,70 Z" id="Path" fill="#3F3D56"></path>
                    <path d="M29.2355319,95 C27.448597,95 26,93.6568542 26,92 C26,90.3431458 27.448597,89 29.2355319,89 L95.7681658,89 C97.553656,89.0018931 99,90.3444842 99,92 C99,93.6555158 97.553656,94.9981069 95.7681658,95 L29.2355319,95 Z" id="Path" fill="#0074B6"></path>
                    <path d="M136.577206,98 L22.4227941,98 C22.1892914,98 22,97.7761424 22,97.5 C22,97.2238576 22.1892914,97 22.4227941,97 L136.577206,97 C136.810709,97 137,97.2238576 137,97.5 C137,97.7761424 136.810709,98 136.577206,98 Z" id="Path" fill="#3F3D56"></path>
                    <path d="M95.7681658,123 L29.2355319,123 C27.448597,123 26,121.656854 26,120 C26,118.343146 27.448597,117 29.2355319,117 L95.7681658,117 C97.553656,117.001893 99,118.344484 99,120 C99,121.655516 97.553656,122.998107 95.7681658,123 L95.7681658,123 Z" id="Path" fill="#F2F2F2"></path>
                    <path d="M136.577206,125 L22.4227941,125 C22.1892914,125 22,124.776142 22,124.5 C22,124.223858 22.1892914,124 22.4227941,124 L136.577206,124 C136.810709,124 137,124.223858 137,124.5 C137,124.776142 136.810709,125 136.577206,125 Z" id="Path" fill="#3F3D56"></path>
                </g>
            </g>
        </g>
    </g>
</svg>