<svg width="100" height="100" viewBox="0 0 100 100" fill="none" xmlns="http://www.w3.org/2000/svg">
<g clip-path="url(#clip0_5_3040)">
<path d="M50 100C77.6142 100 100 77.6142 100 50C100 22.3858 77.6142 0 50 0C22.3858 0 0 22.3858 0 50C0 77.6142 22.3858 100 50 100Z" fill="#FCC419"/>
<path d="M27.65 42.95C30.27 41.3 33.27 41.67 34.83 43.69C35.26 42.84 35.5 41.88 35.5 40.85C35.5 37.47 32.88 34.73 29.64 34.73C26.4 34.73 23.78 37.47 23.78 40.85C23.78 42.5 24.41 43.99 25.42 45.09C25.99 44.26 26.74 43.52 27.64 42.95H27.65Z" fill="black"/>
<path d="M36.16 34.97C35.9 34.97 35.63 34.92 35.37 34.82C29.44 32.48 21.76 27.02 21.43 26.78C20.46 26.09 20.24 24.75 20.93 23.78C21.62 22.81 22.96 22.59 23.93 23.28C24.01 23.33 31.51 28.67 36.94 30.81C38.04 31.25 38.59 32.49 38.15 33.6C37.82 34.45 37.01 34.96 36.15 34.96L36.16 34.97Z" fill="black"/>
<path d="M63.59 35.97C62.72 35.97 61.9 35.44 61.58 34.57C61.16 33.46 61.73 32.22 62.84 31.8C67.6 30.02 75.75 24.33 75.83 24.27C76.8 23.59 78.14 23.82 78.83 24.8C79.52 25.78 79.28 27.11 78.3 27.79C77.95 28.04 69.62 33.86 64.34 35.83C64.09 35.92 63.84 35.97 63.59 35.97Z" fill="black"/>
<path d="M72.35 42.95C73.17 43.47 73.86 44.13 74.41 44.87C75.31 43.79 75.86 42.39 75.86 40.85C75.86 37.47 73.24 34.73 70 34.73C66.76 34.73 64.14 37.47 64.14 40.85C64.14 41.99 64.44 43.06 64.97 43.97C66.46 41.71 69.61 41.23 72.35 42.95Z" fill="black"/>
<path d="M26.03 77.92C25.96 77.92 25.89 77.92 25.82 77.91C24.65 77.79 23.8 76.75 23.91 75.58C25.06 64.11 40.16 58.77 50.01 58.77C55.24 58.77 61.27 60.35 66.16 63.01C72.1 66.24 75.63 70.7 76.1 75.56C76.21 76.73 75.35 77.77 74.18 77.88C73.01 78 71.97 77.13 71.86 75.96C71.11 68.18 58.21 63.02 50.01 63.02C41.81 63.02 28.99 67.64 28.15 76C28.04 77.1 27.11 77.92 26.03 77.92Z" fill="black"/>
</g>
<defs>
<clipPath id="clip0_5_3040">
<rect width="100" height="100" fill="white"/>
</clipPath>
</defs>
</svg>
