<svg width="100" height="100" viewBox="0 0 100 100" fill="none" xmlns="http://www.w3.org/2000/svg">
<g clip-path="url(#clip0_5_3107)">
<path d="M50 100C77.6142 100 100 77.6142 100 50C100 22.3858 77.6142 0 50 0C22.3858 0 0 22.3858 0 50C0 77.6142 22.3858 100 50 100Z" fill="#FCC419"/>
<path d="M39.12 40.5401C38.14 40.5401 37.31 39.8701 37.05 38.9301C36.34 36.2901 33.93 34.3501 31.07 34.3501C28.21 34.3501 25.8 36.3001 25.09 38.9301C24.84 39.8701 24 40.5401 23.02 40.5401C21.59 40.5401 20.58 39.1801 20.96 37.8001C22.17 33.3501 26.24 30.0701 31.07 30.0701C35.9 30.0701 39.97 33.3501 41.18 37.8001C41.55 39.1801 40.54 40.5401 39.12 40.5401Z" fill="black"/>
<path d="M78.97 40.0201C77.99 40.0201 77.16 39.35 76.9 38.41C76.19 35.77 73.78 33.8301 70.92 33.8301C68.06 33.8301 65.65 35.78 64.94 38.41C64.69 39.35 63.85 40.0201 62.87 40.0201C61.44 40.0201 60.43 38.66 60.81 37.28C62.02 32.83 66.09 29.55 70.92 29.55C75.75 29.55 79.82 32.83 81.03 37.28C81.4 38.66 80.39 40.0201 78.97 40.0201Z" fill="black"/>
<path d="M69.13 60.05C69.13 70.35 60.25 78.71 49.3 78.71C38.35 78.71 29.47 70.36 29.47 60.05C42.77 55.4 55.98 55.35 69.12 60.05H69.13Z" fill="black"/>
<path d="M37.98 75.3601C41.19 77.4701 45.09 78.7101 49.3 78.7101C53.79 78.7101 57.92 77.2901 61.25 74.9201C58.73 71.8501 54.54 69.8401 49.78 69.8401C45.02 69.8401 40.44 72.0501 37.98 75.3601Z" fill="#F03E3E"/>
</g>
<defs>
<clipPath id="clip0_5_3107">
<rect width="100" height="100" fill="white"/>
</clipPath>
</defs>
</svg>
