<svg width="100" height="100" viewBox="0 0 100 100" fill="none" xmlns="http://www.w3.org/2000/svg">
<g clip-path="url(#clip0_5_3049)">
<path d="M50 100C77.6142 100 100 77.6142 100 50C100 22.3858 77.6142 0 50 0C22.3858 0 0 22.3858 0 50C0 77.6142 22.3858 100 50 100Z" fill="#FCC419"/>
<path d="M72.4092 78.8368C72.0013 78.6808 71.6293 78.4288 71.3414 78.0929C59.6671 65.9627 40.362 65.5908 28.2318 77.265C27.9558 77.541 27.6679 77.8169 27.4039 78.0929C27.116 78.4288 26.744 78.6808 26.3361 78.8368C25.4362 79.1727 24.4164 78.9808 23.6965 78.3449C22.9886 77.721 22.7486 76.7251 23.1086 75.8492C26.684 66.6706 37.3144 59.4717 49.3726 59.4717C61.4308 59.4717 72.0612 66.6706 75.6367 75.8372C75.9966 76.7131 75.7567 77.709 75.0488 78.3329C74.3289 78.9688 73.3091 79.1607 72.4092 78.8368Z" fill="black"/>
<path d="M29.64 49.97C32.8764 49.97 35.5 47.23 35.5 43.85C35.5 40.47 32.8764 37.73 29.64 37.73C26.4036 37.73 23.78 40.47 23.78 43.85C23.78 47.23 26.4036 49.97 29.64 49.97Z" fill="black"/>
<path d="M36.17 39.9699C36.07 39.9699 35.98 39.9699 35.88 39.9499C30.03 39.1599 22.16 32.4199 21.28 31.6599C20.39 30.8799 20.29 29.5199 21.07 28.6299C21.85 27.7399 23.21 27.6399 24.1 28.4199C26.22 30.2699 32.57 35.1699 36.45 35.6899C37.63 35.8499 38.45 36.9299 38.29 38.1099C38.15 39.1899 37.22 39.9699 36.16 39.9699H36.17Z" fill="black"/>
<path d="M70.01 49.97C73.2464 49.97 75.87 47.23 75.87 43.85C75.87 40.47 73.2464 37.73 70.01 37.73C66.7736 37.73 64.15 40.47 64.15 43.85C64.15 47.23 66.7736 49.97 70.01 49.97Z" fill="black"/>
<path d="M63.58 39.9699C62.52 39.9699 61.6 39.1899 61.45 38.1099C61.29 36.9299 62.12 35.8499 63.29 35.6899C67.17 35.1699 73.52 30.2599 75.64 28.4199C76.54 27.6399 77.89 27.7299 78.67 28.6299C79.45 29.5299 79.36 30.8799 78.46 31.6599C77.58 32.4299 69.71 39.1699 63.86 39.9499C63.76 39.9599 63.67 39.9699 63.57 39.9699H63.58Z" fill="black"/>
</g>
<defs>
<clipPath id="clip0_5_3049">
<rect width="100" height="100" fill="white"/>
</clipPath>
</defs>
</svg>
