<svg width="100" height="100" viewBox="0 0 100 100" fill="none" xmlns="http://www.w3.org/2000/svg">
<g clip-path="url(#clip0_1_2762)">
<rect width="100" height="100" fill="white" fill-opacity="0.9"/>
<path d="M50 100C77.6142 100 100 77.6142 100 50C100 22.3858 77.6142 0 50 0C22.3858 0 0 22.3858 0 50C0 77.6142 22.3858 100 50 100Z" fill="#FCC419"/>
<path d="M29.64 44.97C32.8764 44.97 35.5 42.23 35.5 38.85C35.5 35.47 32.8764 32.73 29.64 32.73C26.4036 32.73 23.78 35.47 23.78 38.85C23.78 42.23 26.4036 44.97 29.64 44.97Z" fill="black"/>
<path d="M70.01 44.97C73.2464 44.97 75.87 42.23 75.87 38.85C75.87 35.47 73.2464 32.73 70.01 32.73C66.7736 32.73 64.15 35.47 64.15 38.85C64.15 42.23 66.7736 44.97 70.01 44.97Z" fill="black"/>
<path d="M36.17 34.9699C36.07 34.9699 35.98 34.9699 35.88 34.9499C30.03 34.1599 22.16 27.4199 21.28 26.6599C20.39 25.8799 20.29 24.5199 21.07 23.6299C21.85 22.7399 23.21 22.6399 24.1 23.4199C26.22 25.2699 32.57 30.1699 36.45 30.6899C37.63 30.8499 38.45 31.9299 38.29 33.1099C38.15 34.1899 37.22 34.9699 36.16 34.9699H36.17Z" fill="black"/>
<path d="M63.58 34.9699C62.52 34.9699 61.6 34.1899 61.45 33.1099C61.29 31.9299 62.12 30.8499 63.29 30.6899C67.17 30.1699 73.52 25.2599 75.64 23.4199C76.54 22.6399 77.89 22.7299 78.67 23.6299C79.45 24.5299 79.36 25.8799 78.46 26.6599C77.58 27.4299 69.71 34.1699 63.86 34.9499C63.76 34.9599 63.67 34.9699 63.57 34.9699H63.58Z" fill="black"/>
<path d="M30 77.0099C29.93 77.0099 29.86 77.0099 29.79 77.0099C28.61 76.8999 27.74 75.8499 27.85 74.6699C28.82 64.4499 41.64 59.6899 50 59.6899C54.44 59.6899 59.55 61.0999 63.69 63.4599C68.74 66.3399 71.74 70.3099 72.14 74.6599C72.25 75.8399 71.38 76.8899 70.2 76.9999C69.04 77.1199 67.97 76.2399 67.86 75.0599C67.25 68.4099 56.7 64.0099 50 64.0099C43.3 64.0099 32.81 67.9599 32.13 75.0999C32.02 76.2099 31.09 77.0499 29.99 77.0499L30 77.0099Z" fill="black"/>
</g>
<defs>
<clipPath id="clip0_1_2762">
<rect width="100" height="100" fill="white"/>
</clipPath>
</defs>
</svg>
