<svg width="100" height="100" viewBox="0 0 100 100" fill="none" xmlns="http://www.w3.org/2000/svg">
<g clip-path="url(#clip0_5_3058)">
<path d="M50 100C77.6142 100 100 77.6142 100 50C100 22.3858 77.6142 0 50 0C22.3858 0 0 22.3858 0 50C0 77.6142 22.3858 100 50 100Z" fill="#FCC419"/>
<path d="M29.2853 85.5947C34.1283 77.1119 44.3289 73.6225 51.7069 73.6225C59.085 73.6225 69.2856 77.1119 74.1286 85.5947C74.8097 86.801 76.7544 86.2742 76.535 84.8999C74.6734 73.4469 62.1573 66.9951 51.7069 66.5751C40.6588 66.1705 29.0583 74.0883 26.8789 84.8999C26.6141 86.2513 28.6042 86.801 29.2853 85.5947Z" fill="black"/>
<path d="M58.9644 34.8352C57.7882 35.925 57.719 37.7586 58.8087 38.9262C58.9817 39.1165 59.1807 39.2809 59.3969 39.4192C61.9224 41.2961 64.7593 42.7059 67.7865 43.5708C70.8396 44.3319 73.9965 44.5654 77.1275 44.2627C78.7535 44.2195 80.0422 42.8616 79.9989 41.2355C79.9903 41.002 79.9557 40.7685 79.8952 40.5436C79.3849 39.0473 77.9232 38.0873 76.349 38.2084C74.0311 38.4332 71.6958 38.2949 69.4298 37.7759C67.1983 37.0926 65.088 36.0375 63.2025 34.6623C61.9224 33.7195 60.158 33.7887 58.9644 34.8352Z" fill="black"/>
<path d="M40.9744 34.8352C42.1506 35.925 42.2198 37.7586 41.1301 38.9262C40.9571 39.1165 40.7581 39.2809 40.5419 39.4192C38.0164 41.2961 35.1795 42.7059 32.1523 43.5708C29.0992 44.3319 25.9423 44.5654 22.8113 44.2627C21.2286 44.2368 19.9744 42.9308 20.0004 41.348C20.009 41.0712 20.0523 40.8031 20.1301 40.5436C20.6404 39.0473 22.1021 38.0873 23.6762 38.2084C25.9942 38.4332 28.3294 38.2949 30.5955 37.7759C32.827 37.0926 34.9373 36.0375 36.8228 34.6623C38.0683 33.7195 39.8154 33.7887 40.9744 34.8352Z" fill="black"/>
<path d="M32.7328 58.1976C35.5059 58.1976 37.7539 55.8498 37.7539 52.9536C37.7539 50.0575 35.5059 47.7097 32.7328 47.7097C29.9597 47.7097 27.7117 50.0575 27.7117 52.9536C27.7117 55.8498 29.9597 58.1976 32.7328 58.1976Z" fill="black"/>
<path d="M67.3239 58.1976C70.097 58.1976 72.345 55.8498 72.345 52.9536C72.345 50.0575 70.097 47.7097 67.3239 47.7097C64.5508 47.7097 62.3027 50.0575 62.3027 52.9536C62.3027 55.8498 64.5508 58.1976 67.3239 58.1976Z" fill="black"/>
</g>
<defs>
<clipPath id="clip0_5_3058">
<rect width="100" height="100" fill="white"/>
</clipPath>
</defs>
</svg>
