<svg width="100" height="100" viewBox="0 0 100 100" fill="none" xmlns="http://www.w3.org/2000/svg">
<g clip-path="url(#clip0_5_3072)">
<path d="M50 100C77.6142 100 100 77.6142 100 50C100 22.3858 77.6142 0 50 0C22.3858 0 0 22.3858 0 50C0 77.6142 22.3858 100 50 100Z" fill="#FCC419"/>
<path d="M29.64 44.97C32.8764 44.97 35.5 42.23 35.5 38.85C35.5 35.47 32.8764 32.73 29.64 32.73C26.4036 32.73 23.78 35.47 23.78 38.85C23.78 42.23 26.4036 44.97 29.64 44.97Z" fill="black"/>
<path d="M70.01 44.97C73.2464 44.97 75.87 42.23 75.87 38.85C75.87 35.47 73.2464 32.73 70.01 32.73C66.7736 32.73 64.15 35.47 64.15 38.85C64.15 42.23 66.7736 44.97 70.01 44.97Z" fill="black"/>
<path d="M50.4285 58C61.33 58 68.3958 65.9743 70.3137 69.7091C71.0203 71.1222 71.0203 72.3335 70.4146 72.8382C69.7686 73.242 68.9409 73.242 68.2949 72.8382C67.9719 72.707 67.6691 72.5354 67.3864 72.3335C62.4404 68.7804 56.5152 66.8424 50.4285 66.7818C44.362 66.8625 38.4469 68.7602 33.4705 72.2326C33.1879 72.4344 32.8851 72.606 32.5621 72.7373C31.9161 73.141 31.0884 73.141 30.4423 72.7373C29.8367 72.1316 29.8367 71.0213 30.5433 69.6081C32.4611 65.9743 39.527 58 50.4285 58Z" fill="black"/>
</g>
<defs>
<clipPath id="clip0_5_3072">
<rect width="100" height="100" fill="white"/>
</clipPath>
</defs>
</svg>
