<svg width="100" height="100" viewBox="0 0 100 100" fill="none" xmlns="http://www.w3.org/2000/svg">
<g clip-path="url(#clip0_1_2792)">
<path d="M50 100C77.6142 100 100 77.6142 100 50C100 22.3858 77.6142 0 50 0C22.3858 0 0 22.3858 0 50C0 77.6142 22.3858 100 50 100Z" fill="#FCC419"/>
<path d="M29.64 44.97C32.8764 44.97 35.5 42.23 35.5 38.85C35.5 35.47 32.8764 32.73 29.64 32.73C26.4036 32.73 23.78 35.47 23.78 38.85C23.78 42.23 26.4036 44.97 29.64 44.97Z" fill="black"/>
<path d="M70.01 44.97C73.2464 44.97 75.87 42.23 75.87 38.85C75.87 35.47 73.2464 32.73 70.01 32.73C66.7736 32.73 64.15 35.47 64.15 38.85C64.15 42.23 66.7736 44.97 70.01 44.97Z" fill="black"/>
<path d="M35.83 75.9C35.6 75.9 35.37 75.86 35.14 75.79C34.02 75.41 33.42 74.19 33.8 73.07C36.16 66.14 42.67 61.48 50 61.48C57.33 61.48 63.83 66.13 66.2 73.05C66.58 74.17 65.99 75.39 64.87 75.77C63.75 76.15 62.53 75.56 62.15 74.44C60.37 69.25 55.49 65.77 50.01 65.77C44.53 65.77 39.63 69.26 37.86 74.46C37.56 75.35 36.72 75.91 35.83 75.91V75.9Z" fill="black"/>
</g>
<defs>
<clipPath id="clip0_1_2792">
<rect width="100" height="100" fill="white"/>
</clipPath>
</defs>
</svg>
