<svg width="100" height="100" viewBox="0 0 100 100" fill="none" xmlns="http://www.w3.org/2000/svg">
<g clip-path="url(#clip0_5_3093)">
<path d="M50 100C77.6142 100 100 77.6142 100 50C100 22.3858 77.6142 0 50 0C22.3858 0 0 22.3858 0 50C0 77.6142 22.3858 100 50 100Z" fill="#FCC419"/>
<path d="M29.64 44.97C32.8764 44.97 35.5 42.23 35.5 38.85C35.5 35.47 32.8764 32.73 29.64 32.73C26.4036 32.73 23.78 35.47 23.78 38.85C23.78 42.23 26.4036 44.97 29.64 44.97Z" fill="black"/>
<path d="M70.01 44.97C73.2464 44.97 75.87 42.23 75.87 38.85C75.87 35.47 73.2464 32.73 70.01 32.73C66.7736 32.73 64.15 35.47 64.15 38.85C64.15 42.23 66.7736 44.97 70.01 44.97Z" fill="black"/>
<path d="M62.67 70.6599H37.32C36.14 70.6599 35.18 69.6999 35.18 68.5199C35.18 67.3399 36.14 66.3799 37.32 66.3799H62.67C63.85 66.3799 64.81 67.3399 64.81 68.5199C64.81 69.6999 63.85 70.6599 62.67 70.6599Z" fill="black"/>
</g>
<defs>
<clipPath id="clip0_5_3093">
<rect width="100" height="100" fill="white"/>
</clipPath>
</defs>
</svg>
