<svg width="100" height="100" viewBox="0 0 100 100" fill="none" xmlns="http://www.w3.org/2000/svg">
<g clip-path="url(#clip0_5_3100)">
<path d="M50 100C77.6142 100 100 77.6142 100 50C100 22.3858 77.6142 0 50 0C22.3858 0 0 22.3858 0 50C0 77.6142 22.3858 100 50 100Z" fill="#FCC419"/>
<path d="M39.12 40.5401C38.14 40.5401 37.31 39.8701 37.05 38.9301C36.34 36.2901 33.93 34.3501 31.07 34.3501C28.21 34.3501 25.8 36.3001 25.09 38.9301C24.84 39.8701 24 40.5401 23.02 40.5401C21.59 40.5401 20.58 39.1801 20.96 37.8001C22.17 33.3501 26.24 30.0701 31.07 30.0701C35.9 30.0701 39.97 33.3501 41.18 37.8001C41.55 39.1801 40.54 40.5401 39.12 40.5401Z" fill="black"/>
<path d="M78.97 40.0201C77.99 40.0201 77.16 39.35 76.9 38.41C76.19 35.77 73.78 33.8301 70.92 33.8301C68.06 33.8301 65.65 35.78 64.94 38.41C64.69 39.35 63.85 40.0201 62.87 40.0201C61.44 40.0201 60.43 38.66 60.81 37.28C62.02 32.83 66.09 29.55 70.92 29.55C75.75 29.55 79.82 32.83 81.03 37.28C81.4 38.66 80.39 40.0201 78.97 40.0201Z" fill="black"/>
<path d="M50 79.5399C41.8 79.5399 34.99 73.4899 33.81 65.6099C33.62 64.3199 34.63 63.1599 35.93 63.1599C36.97 63.1599 37.88 63.9099 38.04 64.9399C38.9 70.7699 43.94 75.2499 50 75.2499C56.06 75.2499 61.1 70.7599 61.96 64.9399C62.11 63.9099 63.02 63.1599 64.07 63.1599C65.38 63.1599 66.39 64.3199 66.19 65.6099C65 73.4799 58.19 79.5399 50 79.5399Z" fill="black"/>
</g>
<defs>
<clipPath id="clip0_5_3100">
<rect width="100" height="100" fill="white"/>
</clipPath>
</defs>
</svg>
