<?xml version="1.0" encoding="UTF-8"?>
<svg width="40px" height="40px" viewBox="0 0 40 40" version="1.1" xmlns="http://www.w3.org/2000/svg" xmlns:xlink="http://www.w3.org/1999/xlink">
    <title>Rating_1@2x</title>
    <g id="NPS-Desktop-1-5" stroke="none" stroke-width="1" fill="none" fill-rule="evenodd">
        <g id="2" transform="translate(-551, -560)" fill-rule="nonzero">
            <g id="Group-9" transform="translate(0, 535)">
                <g id="Group-4" transform="translate(489, 24)">
                    <g id="Group-2" transform="translate(62, 0)">
                        <g id="Rating_1" transform="translate(0, 1)">
                            <circle id="Oval" fill="#FCC418" cx="20" cy="20" r="20"></circle>
                            <ellipse id="Oval" fill="#000000" cx="11.86" cy="15.54" rx="2.34" ry="2.45"></ellipse>
                            <ellipse id="Oval" fill="#000000" cx="28" cy="15.54" rx="2.34" ry="2.45"></ellipse>
                            <path d="M20,25.27 C23.28,25.27 26,27.69 26.48,30.84 C26.56,31.36 26.15,31.82 25.63,31.82 L25.63,31.82 C25.21,31.82 24.85,31.52 24.79,31.11 C24.44,28.78 22.43,26.98 20,26.98 C17.57,26.98 15.56,28.77 15.21,31.11 C15.15,31.52 14.78,31.82 14.37,31.82 L14.37,31.82 C13.85,31.82 13.44,31.36 13.52,30.84 C13.99,27.69 16.72,25.27 20,25.27 Z" id="Path" fill="#000000"></path>
                        </g>
                    </g>
                </g>
            </g>
        </g>
    </g>
</svg>