<?xml version="1.0" encoding="UTF-8"?>
<svg width="40px" height="40px" viewBox="0 0 40 40" version="1.1" xmlns="http://www.w3.org/2000/svg" xmlns:xlink="http://www.w3.org/1999/xlink">
    <title>Rating_5@2x</title>
    <g id="NPS-Desktop-1-5" stroke="none" stroke-width="1" fill="none" fill-rule="evenodd">
        <g id="10" transform="translate(-775, -559)" fill-rule="nonzero">
            <g id="Group-9" transform="translate(0, 535)">
                <g id="Group-4" transform="translate(489, 24)">
                    <g id="Group-2" transform="translate(62, 0)">
                        <g id="Rating_5" transform="translate(224, 0)">
                            <circle id="Oval" fill="#FCC418" cx="20" cy="20" r="20"></circle>
                            <path d="M15.65,16.22 L15.65,16.22 C15.26,16.22 14.92,15.95 14.82,15.58 C14.54,14.53 13.57,13.75 12.43,13.75 C11.29,13.75 10.32,14.53 10.04,15.58 C9.94,15.96 9.6,16.22 9.21,16.22 L9.21,16.22 C8.64,16.22 8.24,15.67 8.38,15.12 C8.86,13.34 10.49,12.03 12.42,12.03 C14.35,12.03 15.98,13.34 16.46,15.12 C16.61,15.67 16.21,16.22 15.63,16.22 L15.65,16.22 Z" id="Path" fill="#000000"></path>
                            <path d="M31.59,16.01 L31.59,16.01 C31.2,16.01 30.86,15.74 30.76,15.37 C30.48,14.32 29.51,13.54 28.37,13.54 C27.23,13.54 26.26,14.32 25.98,15.37 C25.88,15.75 25.54,16.01 25.15,16.01 L25.15,16.01 C24.58,16.01 24.18,15.46 24.32,14.91 C24.8,13.13 26.43,11.82 28.36,11.82 C30.29,11.82 31.92,13.13 32.4,14.91 C32.55,15.46 32.15,16.01 31.57,16.01 L31.59,16.01 Z" id="Path" fill="#000000"></path>
                            <path d="M27.65,24.02 C27.65,28.14 24.1,31.48 19.72,31.48 C15.34,31.48 11.79,28.14 11.79,24.02 C17.11,22.16 22.4,22.14 27.65,24.02 Z" id="Path" fill="#000000"></path>
                            <path d="M15.19,30.14 C16.47,30.98 18.03,31.48 19.72,31.48 C21.52,31.48 23.17,30.91 24.5,29.96 C23.49,28.73 21.82,27.93 19.91,27.93 C18,27.93 16.18,28.81 15.19,30.14 Z" id="Path" fill="#F03E3E"></path>
                        </g>
                    </g>
                </g>
            </g>
        </g>
    </g>
</svg>