<svg width="248" height="244" viewBox="0 0 248 244" fill="none" xmlns="http://www.w3.org/2000/svg">
<g opacity="0.16" clip-path="url(#clip0_1969_22389)">
<path d="M59.5039 172.751C59.5039 172.751 75.6237 176.001 119.518 200.431C153.557 219.377 192.927 242.854 230.646 224.642L231.422 216.957C196.485 236.147 160.205 214.68 128.953 197.489C90.809 176.506 76.6856 172.469 76.6856 172.469C76.6856 172.469 91.1222 165.252 119.008 160.119C120.505 161.523 122.029 161.949 123.606 163.454C153.377 191.905 187.676 227.983 231.698 214.138L233.413 208.212C210.64 234.291 155.384 196.665 128.347 171.081C126.388 169.225 114.044 154.502 112.228 152.827C122.475 151.428 156.992 148.572 163.008 155.843C163.964 155.912 164.898 155.986 165.833 156.061C182.149 182.293 199.803 203.383 232.855 202.649L233.492 196.341C219.682 213.329 176.834 175.299 161.521 148.838C170.351 149.891 191.175 158.279 198.301 160.06C206.663 175.07 215.143 187.224 233.821 193.059L234.469 186.65C209.626 182.506 202.246 167.645 200.796 158.193C214.553 162.576 227.912 170.789 235.324 176.102L236.073 170.735C226.956 164.768 210.444 157.816 194.595 153.438C191.897 148.167 187.963 137.487 186.137 131.668C207.221 141.019 228.13 149.364 237.273 158.826C226.67 148.88 207.725 136.322 186.137 127.285C182.961 114.627 180.392 91.3138 178.947 79.0378C184.761 82.543 199.511 92.6595 205.782 97.3082C223.218 111.488 230.938 121.839 238.882 133.748L239.89 132.876C230.923 120.738 222.47 108.584 205.023 95.0158C198.688 90.5639 193.543 86.6704 187.602 83.2451C182.691 42.162 179.255 30.4498 179.255 30.4498C179.255 30.4498 208.93 46.7362 240.538 93.8137C242.986 97.8348 241.143 96.6593 243.166 100.446L244.366 88.548C242.662 85.6173 240.851 82.6387 238.913 79.6016C201.693 27.0617 166.868 14.9666 166.868 14.9666C166.868 14.9666 173.463 29.8328 178.958 79.0432C139.455 58.257 111.362 58.7091 111.362 58.7091C111.362 58.7091 122.693 70.6446 144.616 115.898C144.823 116.329 145.035 116.765 145.248 117.201C99.5644 110.887 72.5017 121.525 72.5017 121.525C72.5017 121.525 84.1774 127.238 112.233 152.832C77.3652 159.768 59.5039 172.757 59.5039 172.757V172.751ZM186.147 127.275C181.958 125.706 177.567 124.185 172.932 122.732C166.289 120.999 160.948 119.642 154.869 118.562C135.797 79.7293 126.022 68.1714 126.022 68.1714C126.022 68.1714 147.589 71.1765 179.935 88.8406C181.379 101.59 183.121 114.158 186.142 127.275H186.147ZM145.248 117.196C151.285 118.387 175.73 124.578 182.42 126.504C186.375 127.839 184.639 134.003 188.218 135.418C189.959 141.646 192.051 147.699 194.605 153.433C187.172 151.774 179 150.444 170.038 149.545C155.357 153.63 148.975 124.711 145.248 117.201V117.196ZM88.9453 124.536C88.9453 124.536 111.298 120.296 149.102 126.131C152.931 133.929 157.024 140.976 161.532 148.832C160.04 148.737 158.532 148.646 156.998 148.572C143.554 148.572 131.491 149.635 120.787 151.311C98.3644 131.312 88.9453 124.536 88.9453 124.536Z" fill="#2B3F8C"/>
<path d="M270.404 241.163H270.282C257.937 241.163 259.058 255.63 259.058 255.63V279.464C254.502 270.523 231.321 256.481 231.321 256.481L248.709 84.0322L240.267 84.2503L222.581 263.949C222.581 263.949 260.523 284.368 267.691 311.149V258.944C265.641 257.997 264.293 255.923 264.293 253.513C264.293 250.21 266.969 247.529 270.266 247.529C273.563 247.529 276.239 250.21 276.239 253.513C276.239 255.939 274.816 258.018 272.751 258.96V311.149C281.793 281.358 317.001 263.965 317.001 263.965C317.001 263.965 304.534 131.982 299.447 84.0375H292.125L294.159 104.212L309.514 256.486C309.514 256.486 286.327 270.534 281.777 279.469C281.777 259.465 281.777 255.635 281.777 255.635C281.777 255.635 282.802 241.173 270.553 241.173H270.415L270.404 241.163Z" fill="#E2983E"/>
<path d="M118.859 198.516C77.7475 175.9 62.525 172.645 62.525 172.645C62.525 172.645 78.082 162.672 108.139 157.14C109.753 158.656 111.394 160.204 113.098 161.832C145.481 192.777 187.283 233.206 235.276 217.127L236.036 209.606C191.531 225.919 153.164 189.181 123.739 161.337C121.626 159.337 119.592 157.438 117.633 155.63C128.677 154.124 141.319 153.268 155.564 153.63C156.594 153.704 157.603 153.784 158.612 153.864C176.404 182.469 200.148 206.542 236.482 205.154L237.166 198.346C205.198 199.441 183.991 179.267 168.068 154.816C177.583 155.954 186.136 157.545 193.814 159.465C203.01 175.969 216.65 189.096 237.48 195.234L238.175 188.336C222.894 183.251 211.999 173.996 204.12 162.385C219.682 167.347 230.97 173.618 239.057 179.607L239.869 171.56C229.914 164.863 216.55 158.225 198.773 153.316C195.869 147.63 193.495 141.572 191.526 135.296C215.142 145.769 230.392 157.582 240.219 168.092L241.133 159.029C229.659 147.987 213.024 136.28 188.972 126.211C185.552 112.568 183.668 98.3347 182.112 85.1066C188.377 88.8831 194.913 93.2073 201.667 98.2177C221.275 114.164 234.241 129.195 242.805 142.439L243.91 131.493C234.177 117.993 220.388 103.265 200.849 88.0693C194.021 83.2716 187.384 79.075 180.976 75.3784C175.682 31.0987 169.788 17.376 169.788 17.376C169.788 17.376 205.054 31.6359 239.12 82.3781C242.189 87.4257 244.929 92.2978 247.382 97.0103L248.688 84.0429C246.543 80.2931 244.244 76.4635 241.743 72.5434C201.63 15.9186 159.716 1.78101 159.716 1.78101C159.716 1.78101 166.82 17.8068 172.746 70.8414C130.169 48.4383 99.8936 48.9276 99.8936 48.9276C99.8936 48.9276 112.106 61.794 135.733 110.568C135.961 111.036 136.19 111.504 136.413 111.972C87.1772 105.164 58.0066 116.632 58.0066 116.632C58.0066 116.632 70.5902 122.786 100.833 150.375C63.2524 157.848 44 171.852 44 171.852C44 171.852 61.3728 175.357 108.681 201.686C145.768 222.323 193.198 249.083 234.156 228.227L235 219.85C197.042 241.859 152.931 217.265 118.854 198.521L118.859 198.516ZM182.733 131.61C184.613 138.322 186.864 144.848 189.614 151.029C181.602 149.242 172.799 147.806 163.136 146.838C158.32 138.678 153.998 130.259 149.978 122.163C156.483 123.445 163.348 125.083 170.558 127.163C174.822 128.599 178.868 130.088 182.728 131.61H182.733ZM114.606 60.2302C114.606 60.2302 138.945 61.2727 173.808 80.3143C175.363 94.0583 177.238 108.696 180.498 122.833C175.985 121.142 171.248 119.499 166.252 117.935C159.09 116.068 152.246 114.6 145.694 113.44C125.135 71.5861 114.601 60.2249 114.601 60.2249L114.606 60.2302ZM75.7351 122.073C75.7351 122.073 99.8245 114.217 140.57 120.504C144.695 128.908 149.108 137.599 153.966 146.066C152.357 145.96 150.732 145.864 149.081 145.784C134.591 145.784 121.588 146.933 110.051 148.736C85.8817 127.179 75.7351 122.073 75.7351 122.073Z" fill="#E2983E"/>
</g>
<defs>
<clipPath id="clip0_1969_22389">
<rect width="248" height="244" fill="white"/>
</clipPath>
</defs>
</svg>
