<svg width="194" height="484" viewBox="0 0 194 484" fill="none" xmlns="http://www.w3.org/2000/svg">
<mask id="mask0_2264_5058" style="mask-type:alpha" maskUnits="userSpaceOnUse" x="0" y="0" width="194" height="484">
<rect width="194" height="484" transform="matrix(1 1.74846e-07 1.74846e-07 -1 0 484)" fill="#D9D9D9"/>
</mask>
<g mask="url(#mask0_2264_5058)">
<path d="M205.45 502.115L194.582 502.115L194.582 6.25967e-05L205.45 6.44969e-05L1.56547 251.058L205.45 502.115Z" fill="#1B4CA1" fill-opacity="0.08"/>
<path d="M256.364 501.779L245.496 501.779L245.496 -0.336437L256.364 -0.336435L52.4798 250.721L256.364 501.779Z" fill="#1B4CA1" fill-opacity="0.08"/>
<path d="M307.536 501.779L296.668 501.779L296.668 -0.336428L307.536 -0.336426L103.652 250.721L307.536 501.779Z" fill="#1B4CA1" fill-opacity="0.08"/>
<path d="M358.706 501.779L347.838 501.779L347.838 -0.336419L358.707 -0.336417L154.822 250.721L358.706 501.779Z" fill="white"/>
</g>
</svg>
