<svg width="21" height="21" viewBox="0 0 21 21" fill="none" xmlns="http://www.w3.org/2000/svg">
<path d="M13.2492 15.05L9.69922 11.5V6.5H11.6992V10.675L14.6492 13.625L13.2492 15.05ZM9.69922 4.5V2.5H11.6992V4.5H9.69922ZM16.6992 11.5V9.5H18.6992V11.5H16.6992ZM9.69922 18.5V16.5H11.6992V18.5H9.69922ZM2.69922 11.5V9.5H4.69922V11.5H2.69922ZM10.6992 20.5C9.31589 20.5 8.01589 20.2375 6.79922 19.7125C5.58255 19.1875 4.52422 18.475 3.62422 17.575C2.72422 16.675 2.01172 15.6167 1.48672 14.4C0.961719 13.1833 0.699219 11.8833 0.699219 10.5C0.699219 9.11667 0.961719 7.81667 1.48672 6.6C2.01172 5.38333 2.72422 4.325 3.62422 3.425C4.52422 2.525 5.58255 1.8125 6.79922 1.2875C8.01589 0.7625 9.31589 0.5 10.6992 0.5C12.0826 0.5 13.3826 0.7625 14.5992 1.2875C15.8159 1.8125 16.8742 2.525 17.7742 3.425C18.6742 4.325 19.3867 5.38333 19.9117 6.6C20.4367 7.81667 20.6992 9.11667 20.6992 10.5C20.6992 11.8833 20.4367 13.1833 19.9117 14.4C19.3867 15.6167 18.6742 16.675 17.7742 17.575C16.8742 18.475 15.8159 19.1875 14.5992 19.7125C13.3826 20.2375 12.0826 20.5 10.6992 20.5ZM10.6992 18.5C12.9326 18.5 14.8242 17.725 16.3742 16.175C17.9242 14.625 18.6992 12.7333 18.6992 10.5C18.6992 8.26667 17.9242 6.375 16.3742 4.825C14.8242 3.275 12.9326 2.5 10.6992 2.5C8.46589 2.5 6.57422 3.275 5.02422 4.825C3.47422 6.375 2.69922 8.26667 2.69922 10.5C2.69922 12.7333 3.47422 14.625 5.02422 16.175C6.57422 17.725 8.46589 18.5 10.6992 18.5Z" fill="white"/>
</svg>
