<svg width="25" height="16" viewBox="0 0 25 16" fill="none" xmlns="http://www.w3.org/2000/svg">
<path d="M23.859 11.4849L20.0833 15.2606C19.7318 15.6121 19.162 15.6121 18.8105 15.2606L15.0347 11.4849C14.6832 11.1334 14.6832 10.5636 15.0347 10.2121L15.4406 9.80627C15.7991 9.4477 16.3831 9.45602 16.7313 9.82472L18.2468 11.4294V4.6H11.2138C10.9751 4.59999 10.7461 4.50517 10.5773 4.33641L9.97735 3.73641C9.41038 3.16941 9.81193 2.2 10.6138 2.2H19.7468C20.2439 2.2 20.6468 2.60294 20.6468 3.1V11.4294L22.1624 9.82472C22.5106 9.45606 23.0945 9.4477 23.4532 9.80627L23.859 10.2121C24.2105 10.5636 24.2105 11.1335 23.859 11.4849ZM13.9163 12.0636C13.8327 11.98 13.7335 11.9137 13.6243 11.8685C13.5151 11.8233 13.3981 11.8 13.2799 11.8H6.24685V4.97054L7.76245 6.57524C8.11067 6.9439 8.69455 6.95226 9.05316 6.59365L9.45898 6.18782C9.81047 5.83634 9.81047 5.26649 9.45898 4.91504L5.68326 1.13935C5.33177 0.787861 4.76192 0.787861 4.41047 1.13935L0.634709 4.91507C0.283222 5.26656 0.283222 5.83641 0.634709 6.18786L1.04053 6.59369C1.39911 6.95226 1.98302 6.94394 2.33125 6.57527L3.84685 4.97054V13.3C3.84685 13.7971 4.24978 14.2 4.74685 14.2H13.8799C14.6818 14.2 15.0833 13.2306 14.5163 12.6636L13.9163 12.0636Z" fill="#1B4CA1"/>
</svg>
