<svg width="21" height="21" viewBox="0 0 21 21" fill="none" xmlns="http://www.w3.org/2000/svg">
<path d="M10.3008 20.5C8.91745 20.5 7.61745 20.2375 6.40078 19.7125C5.18411 19.1875 4.12578 18.475 3.22578 17.575C2.32578 16.675 1.61328 15.6167 1.08828 14.4C0.563281 13.1833 0.300781 11.8833 0.300781 10.5C0.300781 9.11667 0.563281 7.81667 1.08828 6.6C1.61328 5.38333 2.32578 4.325 3.22578 3.425C4.12578 2.525 5.18411 1.8125 6.40078 1.2875C7.61745 0.7625 8.91745 0.5 10.3008 0.5C11.6841 0.5 12.9841 0.7625 14.2008 1.2875C15.4174 1.8125 16.4758 2.525 17.3758 3.425C18.2758 4.325 18.9883 5.38333 19.5133 6.6C20.0383 7.81667 20.3008 9.11667 20.3008 10.5C20.3008 11.8833 20.0383 13.1833 19.5133 14.4C18.9883 15.6167 18.2758 16.675 17.3758 17.575C16.4758 18.475 15.4174 19.1875 14.2008 19.7125C12.9841 20.2375 11.6841 20.5 10.3008 20.5ZM10.3008 18.5C12.5341 18.5 14.4258 17.725 15.9758 16.175C17.5258 14.625 18.3008 12.7333 18.3008 10.5C18.3008 8.26667 17.5258 6.375 15.9758 4.825C14.4258 3.275 12.5341 2.5 10.3008 2.5C8.06745 2.5 6.17578 3.275 4.62578 4.825C3.07578 6.375 2.30078 8.26667 2.30078 10.5C2.30078 12.7333 3.07578 14.625 4.62578 16.175C6.17578 17.725 8.06745 18.5 10.3008 18.5ZM10.3008 16.5C8.63411 16.5 7.21745 15.9167 6.05078 14.75C4.88411 13.5833 4.30078 12.1667 4.30078 10.5C4.30078 8.83333 4.88411 7.41667 6.05078 6.25C7.21745 5.08333 8.63411 4.5 10.3008 4.5C11.9674 4.5 13.3841 5.08333 14.5508 6.25C15.7174 7.41667 16.3008 8.83333 16.3008 10.5C16.3008 12.1667 15.7174 13.5833 14.5508 14.75C13.3841 15.9167 11.9674 16.5 10.3008 16.5ZM10.3008 14.5C11.4008 14.5 12.3424 14.1083 13.1258 13.325C13.9091 12.5417 14.3008 11.6 14.3008 10.5C14.3008 9.4 13.9091 8.45833 13.1258 7.675C12.3424 6.89167 11.4008 6.5 10.3008 6.5C9.20078 6.5 8.25911 6.89167 7.47578 7.675C6.69245 8.45833 6.30078 9.4 6.30078 10.5C6.30078 11.6 6.69245 12.5417 7.47578 13.325C8.25911 14.1083 9.20078 14.5 10.3008 14.5ZM10.3008 12.5C9.75078 12.5 9.27995 12.3042 8.88828 11.9125C8.49662 11.5208 8.30078 11.05 8.30078 10.5C8.30078 9.95 8.49662 9.47917 8.88828 9.0875C9.27995 8.69583 9.75078 8.5 10.3008 8.5C10.8508 8.5 11.3216 8.69583 11.7133 9.0875C12.1049 9.47917 12.3008 9.95 12.3008 10.5C12.3008 11.05 12.1049 11.5208 11.7133 11.9125C11.3216 12.3042 10.8508 12.5 10.3008 12.5Z" fill="white"/>
</svg>
