<svg width="19" height="22" viewBox="0 0 19 22" fill="none" xmlns="http://www.w3.org/2000/svg">
<path fill-rule="evenodd" clip-rule="evenodd" d="M11.4991 0.5H7.49912C6.94912 0.5 6.49912 0.95 6.49912 1.5C6.49912 2.05 6.94912 2.5 7.49912 2.5H11.4991C12.0491 2.5 12.4991 2.05 12.4991 1.5C12.4991 0.95 12.0491 0.5 11.4991 0.5ZM9.49912 13.5C10.0491 13.5 10.4991 13.05 10.4991 12.5V8.5C10.4991 7.95 10.0491 7.5 9.49912 7.5C8.94912 7.5 8.49912 7.95 8.49912 8.5V12.5C8.49912 13.05 8.94912 13.5 9.49912 13.5ZM16.5291 6.89L17.2791 6.14C17.6591 5.76 17.6691 5.13 17.2791 4.74L17.2691 4.73C16.8791 4.34 16.2591 4.35 15.8691 4.73L15.1191 5.48C13.5691 4.24 11.6191 3.5 9.49912 3.5C4.69912 3.5 0.619124 7.46 0.499124 12.26C0.369124 17.34 4.43912 21.5 9.49912 21.5C14.4791 21.5 18.4991 17.47 18.4991 12.5C18.4991 10.38 17.7591 8.43 16.5291 6.89ZM9.49912 19.5C5.62912 19.5 2.49912 16.37 2.49912 12.5C2.49912 8.63 5.62912 5.5 9.49912 5.5C13.3691 5.5 16.4991 8.63 16.4991 12.5C16.4991 16.37 13.3691 19.5 9.49912 19.5Z" fill="white"/>
</svg>
