<svg width="19" height="21" viewBox="0 0 19 21" fill="none" xmlns="http://www.w3.org/2000/svg">
<path d="M2.90039 20.5C2.35039 20.5 1.87956 20.3042 1.48789 19.9125C1.09622 19.5208 0.900391 19.05 0.900391 18.5V4.5C0.900391 3.95 1.09622 3.47917 1.48789 3.0875C1.87956 2.69583 2.35039 2.5 2.90039 2.5H7.10039C7.31706 1.9 7.67956 1.41667 8.18789 1.05C8.69622 0.683333 9.26706 0.5 9.90039 0.5C10.5337 0.5 11.1046 0.683333 11.6129 1.05C12.1212 1.41667 12.4837 1.9 12.7004 2.5H16.9004C17.4504 2.5 17.9212 2.69583 18.3129 3.0875C18.7046 3.47917 18.9004 3.95 18.9004 4.5V18.5C18.9004 19.05 18.7046 19.5208 18.3129 19.9125C17.9212 20.3042 17.4504 20.5 16.9004 20.5H2.90039ZM2.90039 18.5H16.9004V4.5H2.90039V18.5ZM4.90039 16.5H11.9004V14.5H4.90039V16.5ZM4.90039 12.5H14.9004V10.5H4.90039V12.5ZM4.90039 8.5H14.9004V6.5H4.90039V8.5ZM9.90039 3.75C10.1171 3.75 10.2962 3.67917 10.4379 3.5375C10.5796 3.39583 10.6504 3.21667 10.6504 3C10.6504 2.78333 10.5796 2.60417 10.4379 2.4625C10.2962 2.32083 10.1171 2.25 9.90039 2.25C9.68372 2.25 9.50456 2.32083 9.36289 2.4625C9.22122 2.60417 9.15039 2.78333 9.15039 3C9.15039 3.21667 9.22122 3.39583 9.36289 3.5375C9.50456 3.67917 9.68372 3.75 9.90039 3.75Z" fill="white"/>
</svg>
