<?xml version="1.0" encoding="UTF-8"?>
<svg width="24px" height="24px" viewBox="0 0 24 24" version="1.1" xmlns="http://www.w3.org/2000/svg" xmlns:xlink="http://www.w3.org/1999/xlink">
    <title>Decline_icon</title>
    <g id="UI-Elements-for-Dev" stroke="none" stroke-width="1" fill="none" fill-rule="evenodd">
        <g id="UI-Elements" transform="translate(-584, -240)">
            <g id="Decline_icon" transform="translate(584, 240)">
                <rect id="Size" fill="#D8D8D8" opacity="0" x="0" y="0" width="24" height="24"></rect>
                <path d="M12,1 C18.072,1 23,5.928 23,12 C23,18.072 18.072,23 12,23 C5.928,23 1,18.072 1,12 C1,5.928 5.928,1 12,1 Z M16.7914286,6 L12,10.7914286 L7.20857143,6 L6,7.20857143 L10.7914286,12 L6,16.7914286 L7.20857143,18 L12,13.2085714 L16.7914286,18 L18,16.7914286 L13.2085714,12 L18,7.20857143 L16.7914286,6 Z" id="Shape" fill-opacity="0.4" fill="#000000"></path>
            </g>
        </g>
    </g>
</svg>