<svg width="20" height="15" viewBox="0 0 20 15" fill="none" xmlns="http://www.w3.org/2000/svg">
<path d="M19.3461 12H3.14609V0.6C3.14609 0.2685 2.87759 0 2.54609 0H1.34609C1.01459 0 0.746094 0.2685 0.746094 0.6V13.2C0.746094 13.8626 1.28347 14.4 1.94609 14.4H19.3461C19.6776 14.4 19.9461 14.1315 19.9461 13.8V12.6C19.9461 12.2685 19.6776 12 19.3461 12ZM18.1461 1.2H13.7188C12.9171 1.2 12.5155 2.16937 13.0825 2.73638L14.2975 3.95138L11.5461 6.70313L8.79472 3.95175C8.32597 3.483 7.56622 3.483 7.09784 3.95175L4.52197 6.52763C4.28759 6.762 4.28759 7.14188 4.52197 7.37625L5.37022 8.2245C5.60459 8.45888 5.98447 8.45888 6.21884 8.2245L7.94609 6.49688L10.6975 9.24825C11.1662 9.717 11.926 9.717 12.3943 9.24825L15.9943 5.64825L17.2093 6.86325C17.7763 7.43025 18.7457 7.02863 18.7457 6.22688V1.8C18.7461 1.4685 18.4776 1.2 18.1461 1.2Z" fill="#1B4CA1"/>
</svg>
