<svg width="48" height="48" viewBox="0 0 48 48" fill="none" xmlns="http://www.w3.org/2000/svg">
<path d="M33 40H35V32H33V40ZM34 30C34.2667 30 34.5 29.9 34.7 29.7C34.9 29.5 35 29.2667 35 29C35 28.7333 34.9 28.5 34.7 28.3C34.5 28.1 34.2667 28 34 28C33.7333 28 33.5 28.1 33.3 28.3C33.1 28.5 33 28.7333 33 29C33 29.2667 33.1 29.5 33.3 29.7C33.5 29.9 33.7333 30 34 30ZM14 28H21.35C21.7167 27.2333 22.1417 26.5167 22.625 25.85C23.1083 25.1833 23.65 24.5667 24.25 24H14V28ZM14 36H20.15C20.05 35.3333 20 34.6667 20 34C20 33.3333 20.05 32.6667 20.15 32H14V36ZM10 44C8.9 44 7.95833 43.6083 7.175 42.825C6.39167 42.0417 6 41.1 6 40V8C6 6.9 6.39167 5.95833 7.175 5.175C7.95833 4.39167 8.9 4 10 4H26L38 16V20.6C37.3667 20.4 36.7167 20.25 36.05 20.15C35.3833 20.05 34.7 20 34 20V18H24V8H10V40H21.35C21.7167 40.7667 22.1417 41.4833 22.625 42.15C23.1083 42.8167 23.65 43.4333 24.25 44H10ZM34 24C36.7667 24 39.125 24.975 41.075 26.925C43.025 28.875 44 31.2333 44 34C44 36.7667 43.025 39.125 41.075 41.075C39.125 43.025 36.7667 44 34 44C31.2333 44 28.875 43.025 26.925 41.075C24.975 39.125 24 36.7667 24 34C24 31.2333 24.975 28.875 26.925 26.925C28.875 24.975 31.2333 24 34 24Z" fill="#1B4CA1"/>
</svg>
