<svg width="48" height="42" viewBox="0 0 48 42" fill="none" xmlns="http://www.w3.org/2000/svg">
<g filter="url(#filter0_i_564_71920)">
<path d="M32.1765 42L15.8235 42L5.2186e-06 25.9412L7.31161e-06 2C7.40817e-06 0.895427 0.895439 -4.11801e-06 2.00001 -4.02145e-06L46 -1.74846e-07C47.1046 -7.82811e-08 48 0.895432 48 2L48 25.9412L32.1765 42Z" fill="url(#paint0_linear_564_71920)"/>
</g>
<path d="M47.5 25.7362L31.9672 41.5L16.0328 41.5L0.500005 25.7362L0.500007 2C0.500007 1.17157 1.17158 0.499996 2.00001 0.499996L46 0.5C46.8284 0.5 47.5 1.17157 47.5 2L47.5 25.7362Z" stroke="#B44022"/>
<defs>
<filter id="filter0_i_564_71920" x="0" y="0" width="48" height="42" filterUnits="userSpaceOnUse" color-interpolation-filters="sRGB">
<feFlood flood-opacity="0" result="BackgroundImageFix"/>
<feBlend mode="normal" in="SourceGraphic" in2="BackgroundImageFix" result="shape"/>
<feColorMatrix in="SourceAlpha" type="matrix" values="0 0 0 0 0 0 0 0 0 0 0 0 0 0 0 0 0 0 127 0" result="hardAlpha"/>
<feOffset/>
<feGaussianBlur stdDeviation="2"/>
<feComposite in2="hardAlpha" operator="arithmetic" k2="-1" k3="1"/>
<feColorMatrix type="matrix" values="0 0 0 0 0.905882 0 0 0 0 0.529412 0 0 0 0 0.294118 0 0 0 1 0"/>
<feBlend mode="normal" in2="shape" result="effect1_innerShadow_564_71920"/>
</filter>
<linearGradient id="paint0_linear_564_71920" x1="24" y1="42" x2="24" y2="-1.97221e-06" gradientUnits="userSpaceOnUse">
<stop stop-color="#B32B06"/>
<stop offset="1" stop-color="#FB5107"/>
</linearGradient>
</defs>
</svg>
