<?xml version="1.0" encoding="UTF-8"?>
<svg width="16px" height="16px" viewBox="0 0 16 16" version="1.1" xmlns="http://www.w3.org/2000/svg" xmlns:xlink="http://www.w3.org/1999/xlink">
    <title>Icons/Av/play Copy</title>
    <g id="Assesst-for-download-" stroke="none" stroke-width="1" fill="none" fill-rule="evenodd">
        <g id="Skeleton-Review-see-all" transform="translate(-131, -173)">
            <g id="Icons/Av/play-Copy" transform="translate(131, 173)">
                <rect id="Size" fill="#D8D8D8" opacity="0" x="0" y="0" width="16" height="16"></rect>
                <path d="M9.6,4 L9.44,3.2 C9.38,2.89333333 9.10666667,2.66666667 8.78666667,2.66666667 L4,2.66666667 C3.63333333,2.66666667 3.33333333,2.96666667 3.33333333,3.33333333 L3.33333333,13.3333333 C3.33333333,13.7 3.63333333,14 4,14 C4.36666667,14 4.66666667,13.7 4.66666667,13.3333333 L4.66666667,9.33333333 L8.4,9.33333333 L8.56,10.1333333 C8.62,10.4466667 8.89333333,10.6666667 9.21333333,10.6666667 L12.6666667,10.6666667 C13.0333333,10.6666667 13.3333333,10.3666667 13.3333333,10 L13.3333333,4.66666667 C13.3333333,4.3 13.0333333,4 12.6666667,4 L9.6,4 Z" id="Path" fill="#EF951E"></path>
            </g>
        </g>
    </g>
</svg>