<svg width="151" height="207" xmlns="http://www.w3.org/2000/svg"><g id="Screens" stroke="none" stroke-width="1" fill="none" fill-rule="evenodd"><g id="Events-Copy" transform="translate(-844 -201)"><g id="Group-3" transform="translate(810 201)"><g id="empty_search" transform="translate(34.5)"><g id="Group" transform="translate(0 68.903)"><path id="Path-3" fill="#E0E0E0" d="M45.85 65.974v71.918L150 94.527v-70.7z"/><path id="Path-3" fill="#908E8E" d="M52.075 69.98v58.55l92.197-38.74V31.515z"/><path id="Path-4-Copy" fill="#E8F5FD" d="M0 42.148l45.85 23.826L150 23.826 104.15 0z"/><path id="Path-5" fill="#CBCBCB" d="M0 42.148l45.85 23.826v72.123L0 114.066z"/><path id="Path-6" fill="#C6C6C6" d="M144.272 89.79l-37.573-18.5-54.624 23.46v33.78z"/><path id="Path-4" fill="#A4A4A4" d="M106.699 71.29V47.298l37.573-15.782v58.607z"/><path id="Path-4-Copy-2" fill="#A4A4A4" d="M57.62 91.897V68.034l37.342-15.912.231 58.607z"/><path id="Path-7" fill="#E0E0E0" d="M94.962 52.122v59.01l6.137-2.994V49.55z"/></g><g id="Group-Copy"><path id="Path-3" fill="#E0E0E0" d="M45.85 65.974v71.918L150 94.527v-70.7z"/><path id="Path-3" fill="#908E8E" d="M52.075 69.98v58.55l92.197-38.74V31.515z"/><path id="Path-4-Copy" fill="#EBEBEB" d="M0 42.148l45.85 23.826L150 23.826 104.15 0z"/><path id="Path-5" fill="#CBCBCB" d="M0 42.148l45.85 23.826v72.123L0 114.066z"/><path id="Path-6" fill="#C6C6C6" d="M144.272 89.79l-37.573-18.5-54.624 23.46v33.78z"/><path id="Path-4" fill="#A4A4A4" d="M106.699 71.29V47.298l37.573-15.782v58.607z"/><path id="Path-4-Copy-2" fill="#A4A4A4" d="M57.62 91.897V68.034l37.342-15.912.231 58.607z"/><path id="Path-7" fill="#E0E0E0" d="M94.962 52.122v59.01l6.137-2.994V49.55z"/></g><path d="M108.936 146.09l29.513 17.134-8.102 3.842-27.808-15.3 6.397-.537v-5.138zm22.851 16.942c-.713 0-1.291.289-1.291.644 0 .356.578.644 1.291.644s1.292-.288 1.292-.644c0-.355-.579-.644-1.292-.644z" id="Combined-Shape" fill="#EFEFEF"/><path d="M131.723 163.537c.444-.637.918-.911 1.387-.685l.623.359.159.096c.658.416 1.023.788 1.001 1.253a.724.724 0 01-.048.23c-.178.456-.556.931-1.132 1.436a.324.324 0 01-.455-.03.321.321 0 01.03-.454c.503-.442.82-.84.954-1.185l.006-.026c.006-.135-.243-.39-.702-.68l-.445-.264-.247-.142c-.116-.069-.302.03-.6.46a.323.323 0 01-.45.08.321.321 0 01-.081-.448z" id="Path-9" fill="#A4A4A4" fill-rule="nonzero"/><path d="M133.306 165.442c.178.014.31.17.296.347l-.078.998-.033.471-.056.883-.033.61-.017.383-.026.702-.008.32-.007.577.003.376.01.327.017.276.022.225.019.122c.023.128.052.21.086.241.1.093.312.15.637.175l.208.01c.037.002.075.002.114.003l.248-.001.275-.009.302-.016.328-.023.354-.031.58-.06.42-.048.679-.084c1.978-.259 2.97.107 3.506 1.544.205.55.094 1.026-.273 1.603l-.166.246-.207.284c-.562.77-.724 1.179-.57 1.75.218.812.964 1.212 2.448 1.379l.33.032.172.013.364.023.388.016.412.01.437.005h.227c1.457 0 3.158.88 5.121 2.62a.321.321 0 01.027.454.324.324 0 01-.456.027c-1.856-1.644-3.425-2.457-4.692-2.457l-.445-.002-.423-.007-.402-.012-.38-.017a18.07 18.07 0 01-.183-.011l-.35-.027-.33-.034c-1.71-.199-2.583-.707-2.889-1.846-.207-.77-.02-1.316.564-2.145l.358-.496.028-.041c.327-.48.415-.792.285-1.143-.396-1.061-1.057-1.336-2.65-1.15l-.86.108-.63.072-.196.021-.372.036-.346.03-.164.01-.308.018c-1.039.046-1.639-.057-1.962-.36-.077-.071-.141-.192-.193-.363l-.036-.139-.032-.157-.028-.177-.022-.197-.019-.216-.014-.237-.01-.257-.005-.278v-.298l.003-.32.012-.519.022-.567.02-.405.051-.877.067-.967.083-1.058a.323.323 0 01.348-.295z" id="Path-10" fill="#A4A4A4" fill-rule="nonzero"/></g></g></g></g></svg>