<svg width="156" height="156" viewBox="0 0 156 156" fill="none" xmlns="http://www.w3.org/2000/svg">
<ellipse cx="76.6855" cy="80.4617" rx="69.8677" ry="70.116" fill="white"/>
<path d="M101.763 6.93162C103.24 6.69044 104.69 7.72322 105.416 9.03629C106.143 10.3494 106.304 11.8918 106.451 13.3865C107.047 10.0825 110.456 7.55497 113.778 7.95499C117.099 8.355 119.816 11.6202 119.615 14.9717C119.257 20.9532 109.158 27.196 103.658 24.3093C99.4774 22.1149 95.3614 7.97681 101.763 6.93162Z" fill="#F860A0"/>
<path d="M14.7429 35.8419C13.9467 34.4875 11.5954 34.1981 10.2856 34.7431C8.67591 35.4127 7.70278 37.4271 8.33526 39.0566C7.85394 37.8165 5.56035 37.5013 4.49265 37.7659C0.998966 38.6319 0.265314 42.0212 1.97367 44.0511C3.00086 45.2717 4.66547 45.7033 6.22745 46.012C7.64241 46.2916 9.06641 46.5251 10.4965 46.7121C12.1743 46.9314 12.7659 46.6328 13.505 44.9306C14.1045 43.5499 14.7077 42.1576 15.0185 40.6842C15.2985 39.3561 15.4758 37.1665 14.7429 35.8419Z" fill="#CAFF73"/>
<path d="M26.9365 115.592H31.9589L31.7881 115.206C31.4427 114.426 31.3031 113.585 31.3839 112.775C31.6023 110.596 33.2519 108.933 35.5868 108.536L35.9462 108.475L35.7877 108.146C35.2444 107.016 35.0939 105.777 35.3635 104.657C35.8789 102.514 37.7871 101.075 40.1128 101.075C40.3197 101.075 40.5307 101.087 40.7401 101.109L41.1044 101.148L41.0384 100.787C40.8534 99.7737 40.9385 98.8017 41.2916 97.8982C41.9931 96.1049 43.7059 94.946 45.6555 94.946C46.3381 94.946 47.0251 95.0834 47.6968 95.3545L48.037 95.4918L48.0715 95.1254C48.1448 94.3429 48.3654 93.6177 48.7278 92.9695C49.5686 91.4645 51.0819 90.5658 52.7753 90.5658C53.8644 90.5658 54.9893 90.9671 55.9418 91.6955L56.2316 91.9169L56.363 91.5763C56.5559 91.0764 56.811 90.6147 57.1206 90.2043C58.0408 88.9851 59.4079 88.2857 60.8717 88.2857C62.4077 88.2857 63.8643 89.0515 64.8674 90.3867L65.0861 90.6779L65.3048 90.3867C65.5845 90.014 65.9061 89.6797 66.2598 89.393L66.3887 89.2886L66.3564 89.1257C65.9034 86.8352 65.6313 84.5114 65.5476 82.2187C65.5347 81.8655 65.6631 81.5301 65.9086 81.2744C66.1569 81.0162 66.4905 80.8736 66.8479 80.8736H70.154L74.2872 39.0734C74.3695 38.2409 73.7179 37.519 72.8842 37.519H20.7733C19.9396 37.519 19.2879 38.2409 19.3703 39.0734L26.9365 115.592Z" fill="#FEF1DA"/>
<path d="M32.777 55.3918L31.1635 39.0734C31.0812 38.2409 31.7328 37.519 32.5665 37.519H20.7733C19.9396 37.519 19.2879 38.2409 19.3703 39.0734L20.9838 55.3918H32.777Z" fill="#FAE2C0"/>
<path d="M31.9589 117.567L31.7881 117.181C31.4427 116.401 31.3031 115.56 31.3839 114.749C31.6023 112.571 33.2519 110.907 35.5868 110.511L35.9462 110.45L35.7877 110.121C35.2444 108.991 35.0939 107.752 35.3635 106.632C35.8789 104.489 37.7871 103.05 40.1128 103.05C40.3197 103.05 40.5307 103.061 40.7401 103.084L41.1044 103.123L41.0384 102.761C40.8534 101.748 40.9385 100.776 41.2916 99.8729C41.9931 98.0796 43.7059 96.9207 45.6555 96.9207C46.3381 96.9207 47.0251 97.0581 47.6968 97.3292L48.037 97.4665L48.0715 97.1001C48.1448 96.3176 48.3654 95.5924 48.7278 94.9442C49.5686 93.4392 51.0819 92.5405 52.7753 92.5405C53.8644 92.5405 54.9893 92.9418 55.9417 93.6702L56.2316 93.8916L56.363 93.551C56.5559 93.0511 56.811 92.5894 57.1206 92.179C58.0408 90.9598 59.4079 90.2604 60.8717 90.2604C62.4077 90.2604 63.8643 91.0262 64.8674 92.3614L65.0861 92.6526L65.3048 92.3614C65.5845 91.9887 65.9061 91.6544 66.2598 91.3677L66.3887 91.2633L66.3564 91.1004L69.1452 91.2633L72.6737 55.3918H20.9843L26.9368 117.567H31.9589Z" fill="#8AC9FE"/>
<path d="M31.538 115.318C31.1622 114.469 31.0281 113.585 31.1118 112.747C31.3464 110.406 33.1076 108.679 35.5414 108.266C34.9179 106.969 34.8374 105.673 35.0977 104.592C35.4152 103.273 36.2319 102.209 37.341 101.546L32.7773 55.3918H20.9843L26.9097 115.318H31.538Z" fill="#60B7FF"/>
<path d="M153.263 87.8733H71.1737C70.3067 87.8733 69.6061 88.5941 69.6379 89.4636C69.726 91.8811 70.0206 94.2451 70.4926 96.5441C71.3729 95.7914 72.4483 95.3746 73.5669 95.3746C74.9951 95.3746 76.3292 96.0571 77.2272 97.2469C77.5293 97.6474 77.7782 98.098 77.9668 98.5864L78.0953 98.9187L78.3779 98.7024C79.3071 97.9913 80.4049 97.5997 81.4682 97.5997C83.1208 97.5997 84.597 98.4765 85.4175 99.9454C85.7712 100.578 85.987 101.286 86.0583 102.049L86.092 102.407L86.424 102.273C87.0792 102.008 87.7496 101.874 88.416 101.874C90.3186 101.874 91.9898 103.005 92.6741 104.756C93.0189 105.637 93.1023 106.585 92.9217 107.574L92.8571 107.927L93.2128 107.889C93.4169 107.867 93.6228 107.856 93.8253 107.856C96.0938 107.856 97.9562 109.26 98.4595 111.351C98.7226 112.444 98.5757 113.654 98.0455 114.756L97.8908 115.077L98.2415 115.137C100.52 115.523 102.13 117.147 102.343 119.273C102.422 120.061 102.285 120.882 101.947 121.646L98.4595 129.191H129.858V126.806C129.858 126.806 154.193 106.084 154.799 89.4636C154.831 88.5941 154.13 87.8733 153.263 87.8733Z" fill="#F3962F"/>
<path d="M125.393 55.5316C127.923 58.9771 127.192 63.8287 123.758 66.3682L115.766 72.2799C112.823 74.4565 112.196 78.6151 114.365 81.5683L110.812 84.1958C107.205 79.272 108.25 72.3467 113.148 68.715L121.14 62.8033C122.612 61.715 122.925 59.6356 121.841 58.1591L125.393 55.5316Z" fill="#B3B3B3"/>
<path d="M118.071 43.4432C120.9 47.294 120.082 52.7165 116.244 55.5547L107.312 62.1619C104.022 64.5947 103.321 69.2425 105.746 72.5432L101.775 75.4797C97.7437 69.9767 98.9113 62.2366 104.385 58.1776L113.318 51.5704C114.963 50.3541 115.313 48.03 114.101 46.3797L118.071 43.4432Z" fill="#B3B3B3"/>
<path d="M73.5669 95.1063C75.0795 95.1063 76.4908 95.8273 77.4401 97.085C77.4826 97.1413 77.521 97.2006 77.5614 97.2585H82.059C81.4963 94.7369 81.1544 92.1318 81.0572 89.4636C81.0254 88.5941 81.726 87.8733 82.593 87.8733H71.1737C70.3067 87.8733 69.6061 88.5941 69.6379 89.4636C69.7223 91.7771 69.9958 94.0413 70.4322 96.2466C71.3804 95.4781 72.4894 95.1063 73.5669 95.1063Z" fill="#9C580D"/>
<path d="M76.5238 97.2588C76.8221 97.6566 77.0684 98.1029 77.2551 98.5867L77.3836 98.9191L77.6662 98.7028C78.5954 97.9916 79.6932 97.6 80.7565 97.6C82.4091 97.6 83.8853 98.4768 84.7058 99.9457C85.0595 100.579 85.2753 101.286 85.3466 102.05L85.3803 102.407L85.7123 102.273C86.3675 102.009 87.0379 101.875 87.7043 101.875C89.6068 101.875 91.2781 103.005 91.9624 104.756C92.1801 105.313 92.2928 105.896 92.3016 106.499H148.09C148.836 105.646 151.788 100.709 153.036 97.2588H76.5238Z" fill="#D87F1C"/>
<path d="M96.5944 115.592C97.0578 114.684 97.2279 113.722 97.1371 112.816C96.9082 110.531 95.1894 108.845 92.8147 108.442C93.4231 107.177 93.5014 105.912 93.2476 104.858C92.7148 102.644 90.7484 101.157 88.3539 101.157C88.1559 101.157 87.942 101.167 87.7131 101.192C87.8995 100.172 87.8183 99.1656 87.4513 98.2274C86.7267 96.3736 84.9577 95.1759 82.9446 95.1759C82.2365 95.1759 81.5337 95.3191 80.8529 95.5938C80.7784 94.8009 80.5548 94.0566 80.179 93.384C79.3104 91.8296 77.7468 90.9014 75.9965 90.9014C74.9679 90.9014 73.8098 91.2439 72.7443 92.0591C72.5475 91.5495 72.2887 91.0793 71.9684 90.6548C71.0191 89.3971 69.6078 88.676 68.0952 88.676C66.6187 88.676 65.0815 89.3705 63.9827 90.8333C62.8838 89.3705 61.3467 88.676 59.8702 88.676C58.3576 88.676 56.946 89.3971 55.9967 90.6548C55.6764 91.0791 55.4179 91.5492 55.221 92.0588C54.155 91.2439 52.9972 90.9014 51.9688 90.9014C50.2183 90.9014 48.6547 91.8293 47.7861 93.384C47.4105 94.0563 47.1867 94.8012 47.1124 95.5938C46.4313 95.3191 45.7289 95.1759 45.0208 95.1759C43.0074 95.1759 41.2384 96.3736 40.5135 98.2271C40.1468 99.1656 40.0656 100.171 40.2523 101.192C40.0231 101.168 39.8091 101.157 39.6115 101.157C37.2167 101.157 35.25 102.644 34.7174 104.858C34.4634 105.912 34.542 107.177 35.1504 108.442C32.7754 108.845 31.0566 110.531 30.8277 112.816C30.7371 113.722 30.9073 114.683 31.3707 115.592H96.5944Z" fill="white"/>
<path d="M42.5928 115.324C44.2931 103.34 59.1521 93.6333 78.3755 91.5361C77.6672 91.1257 76.8549 90.9014 75.9967 90.9014C74.9681 90.9014 73.81 91.2439 72.7445 92.0591C72.5477 91.5495 72.2889 91.0793 71.9686 90.6548C71.0193 89.3971 69.608 88.676 68.0954 88.676C66.6189 88.676 65.0817 89.3705 63.9829 90.8333C62.884 89.3705 61.3469 88.676 59.8704 88.676C58.358 88.676 56.9462 89.3971 55.9969 90.6548C55.6766 91.0791 55.4181 91.5492 55.2215 92.0588C54.1555 91.2439 52.9976 90.9014 51.9693 90.9014C50.2187 90.9014 48.6551 91.8293 47.7865 93.384C47.4107 94.0563 47.1872 94.8012 47.1129 95.5938C46.4318 95.3191 45.7293 95.1759 45.0213 95.1759C43.0079 95.1759 41.2389 96.3736 40.514 98.2271C40.1472 99.1656 40.066 100.171 40.2527 101.192C40.0236 101.168 39.8094 101.157 39.612 101.157C37.2172 101.157 35.2505 102.644 34.7179 104.858C34.4642 105.912 34.5424 107.177 35.1509 108.442C32.7758 108.845 31.0571 110.531 30.8282 112.816C30.7464 113.633 30.8776 114.496 31.244 115.324H42.5928Z" fill="#F3F0F3"/>
<path d="M22.1962 122.492C24.8459 129.863 31.8233 134.811 39.6739 134.811H88.292C96.1423 134.811 103.12 129.863 105.77 122.492H22.1962Z" fill="#FD4755"/>
<path d="M36.6051 122.761H22.2944C25.0154 129.984 31.9188 134.812 39.6738 134.812H53.9841C46.2292 134.811 39.3257 129.983 36.6051 122.761Z" fill="#FB2B3A"/>
<path d="M111.687 122.761H16.279C14.2328 122.761 12.5738 121.096 12.5738 119.043C12.5738 116.989 14.2328 115.324 16.279 115.324H111.687C113.734 115.324 115.392 116.989 115.392 119.043C115.392 121.096 113.734 122.761 111.687 122.761Z" fill="#FD8087"/>
<path d="M29.8628 119.043C29.8628 116.989 31.5218 115.324 33.568 115.324H16.279C14.2328 115.324 12.5738 116.989 12.5738 119.043C12.5738 121.096 14.2328 122.761 16.279 122.761H33.568C31.5215 122.761 29.8628 121.096 29.8628 119.043Z" fill="#FE646F"/>
<path d="M61.6679 103.667H58.5803C57.4737 103.667 56.577 102.767 56.577 101.657C56.577 100.546 57.4737 99.6462 58.5803 99.6462H61.6679C62.7745 99.6462 63.6712 100.546 63.6712 101.657C63.6712 102.767 62.7742 103.667 61.6679 103.667Z" fill="#CBC4CC"/>
<path d="M76.488 108.005H73.4003C72.2937 108.005 71.3971 107.105 71.3971 105.994C71.3971 104.884 72.2937 103.984 73.4003 103.984H76.488C77.5946 103.984 78.4912 104.884 78.4912 105.994C78.4912 107.105 77.5946 108.005 76.488 108.005Z" fill="#CBC4CC"/>
<path d="M48.3906 109.554H45.3029C44.1963 109.554 43.2997 108.655 43.2997 107.544C43.2997 106.434 44.1963 105.534 45.3029 105.534H48.3906C49.4972 105.534 50.3938 106.434 50.3938 107.544C50.3938 108.655 49.4969 109.554 48.3906 109.554Z" fill="#CBC4CC"/>
<path d="M135.395 108.592C136.045 107.161 138.353 106.625 139.713 107.029C141.384 107.525 142.562 109.426 142.104 111.113C142.453 109.829 144.701 109.274 145.79 109.425C149.355 109.918 150.439 113.211 148.953 115.41C148.059 116.732 146.449 117.336 144.928 117.808C143.55 118.235 142.158 118.618 140.756 118.954C139.11 119.349 138.491 119.114 137.578 117.5C136.837 116.19 136.091 114.869 135.628 113.436C135.21 112.145 134.805 109.986 135.395 108.592Z" fill="#264092"/>
</svg>
