<svg width="384" height="303" viewBox="0 0 384 303" fill="none" xmlns="http://www.w3.org/2000/svg">
<path d="M0 12C0 5.37258 5.37258 0 12 0H372C378.627 0 384 5.37258 384 12V291C384 297.627 378.627 303 372 303H12C5.37258 303 0 297.627 0 291V12Z" fill="url(#paint0_linear_168_8060)"/>
<mask id="mask0_168_8060" style="mask-type:alpha" maskUnits="userSpaceOnUse" x="0" y="0" width="384" height="303">
<path d="M0 12C0 5.37258 5.37258 0 12 0H372C378.627 0 384 5.37258 384 12V291C384 297.627 378.627 303 372 303H12C5.37258 303 0 297.627 0 291V12Z" fill="#C6E2FF"/>
</mask>
<g mask="url(#mask0_168_8060)">
<path opacity="0.2" d="M708 179.052C704.006 179.175 700.037 179.936 696.227 181.213C686.114 184.588 677.04 190.898 669.883 198.791C662.604 206.818 655.667 217.449 656.143 228.644C650.452 227.416 644.516 228.398 639.252 231.209C636.101 232.891 633.28 235.248 631.081 238.071C630.532 238.783 630.043 239.495 629.604 240.244C628.675 239.556 627.735 238.881 626.77 238.255C619.784 233.738 611.211 231.271 603.064 233.861C600.023 234.83 597.3 236.402 595.077 238.574C587.248 225.403 571.335 218.504 556.325 222.347C556.044 222.42 555.751 222.506 555.458 222.58C555.335 222.297 555.213 222.015 555.091 221.745C554.065 219.339 552.942 216.995 551.708 214.687C546.701 205.358 539.971 196.814 531.849 190.026C523.838 183.336 514.446 178.168 504.284 175.738C494.282 173.332 483.681 173.43 473.727 175.996C463.309 178.684 453.661 184.269 446.589 192.407C441.582 188.688 435.268 186.896 429.039 187.313C425.534 187.546 422.139 188.406 418.951 189.916C417.534 190.578 416.215 191.401 414.957 192.334C413.15 191.511 411.305 190.787 409.412 190.161C401.449 187.571 392.9 186.785 384.571 186.97C376.327 187.141 367.985 188.295 360.157 190.971C345.941 195.82 333.349 205.935 327.963 220.333C327.425 221.77 327.096 223.292 326.497 224.703C326.29 225.194 326.021 225.784 325.679 226.201C325.557 226.348 325.422 226.532 325.239 226.606C325.227 226.606 325.227 226.606 325.215 226.606C324.433 226.532 323.456 225.685 322.76 225.329C322.015 224.937 321.246 224.581 320.476 224.237C318.546 223.378 316.58 222.629 314.565 222.04C307.029 219.842 298.92 219.646 291.274 221.401C276.997 224.691 264.186 235.886 259.325 249.904C253.206 245.964 246.293 243.718 238.855 243.951C230.526 244.209 222.575 247.597 216.444 253.243C215.907 253.734 215.394 254.25 214.905 254.765C210.326 252.384 205.269 250.837 200.274 249.769C184.079 246.308 165.638 246.259 151.739 256.545C146.341 260.547 141.92 265.629 139.257 271.705C129.328 263.468 116.638 258.607 103.766 258.08C89.5495 257.503 75.6631 262.695 64.8422 271.865C60.018 275.94 55.7923 280.911 52.8123 286.521C48.1346 281.12 42.4066 276.934 35.4696 274.676C31.1827 273.276 26.4318 272.601 21.7786 272.883C20.2641 268.072 17.907 263.628 14.7438 259.712C8.55173 252.052 -1.26765 247.486 -11.1237 248.051C-15.3739 248.296 -19.9294 249.45 -23.6788 251.721C-23.9719 251.193 -24.2529 250.665 -24.5704 250.15C-25.3642 248.849 -26.2314 247.572 -27.1352 246.345C-28.9427 243.914 -30.8724 241.557 -32.9975 239.397C-37.2477 235.064 -42.2184 231.381 -47.6289 228.631C-59.0604 222.838 -72.4216 221.254 -84.879 224.311C-91.3642 225.906 -97.7395 228.631 -103.089 232.695C-108.512 223.427 -116.902 215.153 -127.601 212.956C-137.603 210.894 -149.377 213.852 -155.703 222.101C-160.564 215.681 -169.321 212.121 -177.027 214.699C-179.8 207.702 -182.67 200.767 -188.349 195.538C-191.292 192.813 -194.859 190.701 -198.791 189.817C-201.222 189.265 -203.713 189.167 -206.192 189.314C-206.779 189.351 -207.389 189.375 -208 189.412V342.57C-133.292 346.571 -58.3398 348.044 16.4414 349.431C94.1416 350.88 171.866 351.334 249.579 350.757C327.609 350.168 405.639 348.535 483.632 345.822C558.45 343.22 633.28 339.783 707.988 334.971V179.052H708Z" fill="white"/>
<path opacity="0.94" d="M58.5811 59.2665C57.646 59.2673 56.7125 59.3236 55.7843 59.4348C53.2647 51.2485 45.6957 45.6538 37.1132 45.6363C34.9767 45.634 32.8554 45.9882 30.8365 46.682C25.8384 35.8986 13.9935 30.0382 2.36604 32.5956C-9.26289 35.1538 -17.5394 45.4391 -17.531 57.3191C-17.5302 59.3724 -17.2738 61.4172 -16.7707 63.4065C-27.8493 65.0942 -35.7648 75.001 -34.9412 86.1529C-34.1191 97.3057 -24.835 105.951 -13.6282 106H58.5811C71.5153 106 82 95.538 82 82.6329C82 69.7277 71.5153 59.2665 58.5811 59.2665Z" fill="white"/>
<path d="M89.5908 128.265C89.1352 128.265 88.6805 128.293 88.2283 128.347C87.0007 124.364 83.3133 121.642 79.132 121.634C78.0912 121.633 77.0578 121.805 76.0742 122.143C73.6392 116.897 67.8686 114.046 62.204 115.29C56.5386 116.534 52.5065 121.538 52.5105 127.317C52.5109 128.316 52.6359 129.311 52.8809 130.279C47.4837 131.1 43.6274 135.919 44.0287 141.345C44.4292 146.77 48.9522 150.976 54.4119 151H89.5908C95.892 151 101 145.91 101 139.632C101 133.354 95.892 128.265 89.5908 128.265Z" fill="white"/>
<g opacity="0.3" filter="url(#filter0_f_168_8060)">
<path d="M336.194 70.2117C335.882 70.2119 335.571 70.231 335.261 70.2685C334.422 67.5029 331.899 65.6128 329.038 65.6069C328.326 65.6061 327.618 65.7257 326.946 65.9601C325.279 62.3171 321.331 60.3372 317.455 61.2012C313.579 62.0655 310.82 65.5402 310.823 69.5538C310.823 70.2474 310.909 70.9383 311.076 71.6103C307.384 72.1805 304.745 75.5274 305.02 79.2949C305.294 83.0627 308.388 85.9833 312.124 86H336.194C340.505 86 344 82.4655 344 78.1057C344 73.7458 340.505 70.2117 336.194 70.2117Z" fill="white"/>
</g>
<path opacity="0.98" d="M426.981 81.0034C426.022 81.0042 425.064 81.0621 424.112 81.1763C421.528 72.7687 413.765 67.0229 404.962 67.0049C402.771 67.0025 400.595 67.3662 398.525 68.0788C393.398 57.004 381.25 50.9852 369.324 53.6117C357.397 56.239 348.908 66.8023 348.917 79.0034C348.918 81.1122 349.181 83.2123 349.697 85.2553C338.334 86.9886 330.216 97.1632 331.06 108.617C331.903 120.071 341.426 128.949 352.92 129H426.981C440.246 129 451 118.255 451 105.001C451 91.7474 440.246 81.0034 426.981 81.0034Z" fill="white"/>
<path opacity="0.48" d="M9 20C9 13.9249 13.9249 9 20 9H364C370.075 9 375 13.9249 375 20V283C375 289.075 370.075 294 364 294H20C13.9249 294 9 289.075 9 283V20Z" stroke="white" stroke-width="2"/>
</g>
<defs>
<filter id="filter0_f_168_8060" x="303" y="59" width="43" height="29" filterUnits="userSpaceOnUse" color-interpolation-filters="sRGB">
<feFlood flood-opacity="0" result="BackgroundImageFix"/>
<feBlend mode="normal" in="SourceGraphic" in2="BackgroundImageFix" result="shape"/>
<feGaussianBlur stdDeviation="1" result="effect1_foregroundBlur_168_8060"/>
</filter>
<linearGradient id="paint0_linear_168_8060" x1="371.5" y1="30.5" x2="28" y2="274.5" gradientUnits="userSpaceOnUse">
<stop stop-color="#318BC5"/>
<stop offset="1" stop-color="#B2E1F7"/>
</linearGradient>
</defs>
</svg>
