<svg width="384" height="303" viewBox="0 0 384 303" fill="none" xmlns="http://www.w3.org/2000/svg">
<path d="M0 12C0 5.37258 5.37258 0 12 0H372C378.627 0 384 5.37258 384 12V291C384 297.627 378.627 303 372 303H12C5.37258 303 0 297.627 0 291V12Z" fill="url(#paint0_linear_168_8160)"/>
<mask id="mask0_168_8160" style="mask-type:alpha" maskUnits="userSpaceOnUse" x="0" y="0" width="384" height="303">
<path d="M0 12C0 5.37258 5.37258 0 12 0H372C378.627 0 384 5.37258 384 12V291C384 297.627 378.627 303 372 303H12C5.37258 303 0 297.627 0 291V12Z" fill="#C6E2FF"/>
</mask>
<g mask="url(#mask0_168_8160)">
<path opacity="0.08" d="M595.264 168.03C592.077 168.642 588.991 169.759 586.098 171.267C578.42 175.261 571.949 181.461 567.219 188.677C562.408 196.017 558.204 205.389 560.018 214.258C555.297 214.011 550.662 215.558 546.8 218.477C544.488 220.224 542.527 222.466 541.125 225.001C540.775 225.64 540.475 226.271 540.218 226.924C539.385 226.495 538.545 226.078 537.691 225.702C531.511 222.997 524.319 222.131 518.117 225.245C515.802 226.41 513.819 228.013 512.314 230.032C504.351 220.532 490.706 217.075 479.16 222.07C478.944 222.165 478.72 222.271 478.494 222.368C478.36 222.158 478.226 221.948 478.094 221.749C476.963 219.961 475.762 218.236 474.478 216.553C469.269 209.755 462.779 203.805 455.398 199.434C448.117 195.128 439.923 192.213 431.463 191.581C423.134 190.948 414.644 192.389 406.99 195.715C398.979 199.199 391.955 204.896 387.325 212.297C382.833 209.974 377.54 209.356 372.598 210.49C369.817 211.127 367.204 212.249 364.841 213.863C363.789 214.574 362.836 215.4 361.947 216.306C360.392 215.882 358.82 215.541 357.222 215.285C350.505 214.243 343.548 214.716 336.891 215.934C330.302 217.131 323.76 219.124 317.823 222.265C307.043 227.961 298.238 237.649 295.76 249.828C295.513 251.042 295.443 252.299 295.143 253.502C295.04 253.92 294.9 254.425 294.679 254.802C294.6 254.935 294.515 255.099 294.378 255.182C294.368 255.183 294.368 255.183 294.358 255.185C293.722 255.226 292.83 254.676 292.226 254.482C291.579 254.264 290.916 254.079 290.255 253.904C288.597 253.467 286.925 253.122 285.233 252.911C278.909 252.128 272.38 253.014 266.473 255.397C255.444 259.857 246.601 270.435 244.495 282.243C239.084 279.886 233.253 278.983 227.318 280.125C220.671 281.402 214.728 285.127 210.533 290.42C210.165 290.88 209.819 291.358 209.493 291.832C205.516 290.521 201.263 289.937 197.12 289.728C183.69 289.049 168.893 291.381 159.063 301.374C155.245 305.26 152.349 309.883 150.991 315.072C141.975 309.778 131.176 307.532 120.785 308.766C109.31 310.134 98.8375 316.062 91.3321 324.768C87.9844 328.639 85.2312 333.148 83.5588 338.007C79.1166 334.3 73.9875 331.697 68.1352 330.787C64.5182 330.222 60.6217 330.294 56.926 331.118C55.096 327.474 52.6373 324.232 49.5996 321.515C43.654 316.201 35.195 313.821 27.3628 315.539C23.9856 316.281 20.4798 317.788 17.7632 320.081C17.4606 319.698 17.1679 319.313 16.8472 318.943C16.0442 318.007 15.1855 317.1 14.3036 316.237C12.5432 314.53 10.6942 312.898 8.71354 311.448C4.75076 308.538 0.293281 306.24 -4.39748 304.742C-14.3064 301.59 -25.2244 302.045 -34.8242 306.085C-39.8211 308.192 -44.5854 311.185 -48.3559 315.114C-53.8901 308.418 -61.6773 302.897 -70.5385 302.52C-78.8242 302.161 -87.888 306.035 -91.9067 313.429C-96.6261 308.933 -104.104 307.219 -109.955 310.266C-113.073 305.041 -116.262 299.878 -121.486 296.436C-124.195 294.641 -127.325 293.415 -130.592 293.216C-132.612 293.088 -134.622 293.33 -136.592 293.766C-137.057 293.871 -137.544 293.969 -138.029 294.077L-118.44 416.254C-58.0136 409.84 2.28534 401.377 62.4361 392.868C124.936 384.033 187.328 374.401 249.578 363.948C312.082 353.445 374.452 342.109 436.654 329.916C496.324 318.22 555.897 305.856 615.196 292.412L595.254 168.032L595.264 168.03Z" fill="white"/>
<path opacity="0.16" d="M64.3858 98.6341C63.6825 98.6347 62.9803 98.6773 62.2822 98.7615C60.3871 92.5664 54.6942 88.3326 48.239 88.3194C46.632 88.3176 45.0366 88.5856 43.5181 89.1107C39.7588 80.9503 30.8498 76.5154 22.1044 78.4507C13.3578 80.3866 7.13277 88.1701 7.13908 97.1604C7.13966 98.7142 7.33256 100.262 7.71089 101.767C-0.62172 103.044 -6.57523 110.541 -5.95577 118.981C-5.33745 127.421 1.64543 133.963 10.0745 134H64.3858C74.114 134 82 126.083 82 116.317C82 106.551 74.114 98.6341 64.3858 98.6341Z" fill="white"/>
<g style="mix-blend-mode:soft-light">
<path d="M327.194 148.106C326.923 148.106 326.651 148.123 326.382 148.156C325.65 145.723 323.45 144.059 320.956 144.054C320.335 144.053 319.719 144.159 319.132 144.365C317.68 141.159 314.237 139.417 310.859 140.177C307.479 140.938 305.074 143.995 305.076 147.527C305.077 148.138 305.151 148.746 305.297 149.337C302.078 149.839 299.778 152.784 300.017 156.1C300.256 159.415 302.954 161.985 306.211 162H327.194C330.953 162 334 158.89 334 155.053C334 151.216 330.953 148.106 327.194 148.106Z" fill="#F5F5F5"/>
</g>
<g filter="url(#filter0_f_168_8160)">
<path d="M103.889 89.1837C102.291 81.3412 101.095 80.1889 93.1978 78.8883C101.04 77.2913 102.193 76.0947 103.493 68.1976C105.09 76.0401 106.287 77.1924 114.184 78.493C106.341 80.0901 105.189 81.2866 103.889 89.1837Z" fill="white"/>
</g>
<path d="M103.862 87.7846C102.478 80.9878 101.441 79.9891 94.5968 78.862C101.394 77.4779 102.392 76.4409 103.519 69.5967C104.904 76.3936 105.941 77.3922 112.785 78.5194C105.988 79.9035 104.989 80.9405 103.862 87.7846Z" fill="white"/>
<g filter="url(#filter1_f_168_8160)">
<path d="M308.628 95.2567C307.713 90.2854 306.971 89.5436 302 88.6284C306.971 87.7132 307.713 86.9713 308.628 82C309.544 86.9713 310.285 87.7132 315.257 88.6284C310.285 89.5436 309.544 90.2854 308.628 95.2567Z" fill="white"/>
</g>
<g filter="url(#filter2_f_168_8160)">
<path d="M271.5 32C270.879 28.625 270.375 28.1213 267 27.5C270.375 26.8787 270.879 26.375 271.5 23C272.121 26.375 272.625 26.8787 276 27.5C272.625 28.1213 272.121 28.625 271.5 32Z" fill="white"/>
</g>
<path d="M271.5 30C271.155 28.125 270.875 27.8452 269 27.5C270.875 27.1548 271.155 26.875 271.5 25C271.845 26.875 272.125 27.1548 274 27.5C272.125 27.8452 271.845 28.125 271.5 30Z" fill="white"/>
<g style="mix-blend-mode:soft-light">
<g filter="url(#filter3_f_168_8160)">
<path d="M355.5 147C354.879 143.625 354.375 143.121 351 142.5C354.375 141.879 354.879 141.375 355.5 138C356.121 141.375 356.625 141.879 360 142.5C356.625 143.121 356.121 143.625 355.5 147Z" fill="white"/>
</g>
<path d="M355.5 145C355.155 143.125 354.875 142.845 353 142.5C354.875 142.155 355.155 141.875 355.5 140C355.845 141.875 356.125 142.155 358 142.5C356.125 142.845 355.845 143.125 355.5 145Z" fill="white"/>
</g>
<g filter="url(#filter4_f_168_8160)">
<path d="M280.5 209C279.879 205.625 279.375 205.121 276 204.5C279.375 203.879 279.879 203.375 280.5 200C281.121 203.375 281.625 203.879 285 204.5C281.625 205.121 281.121 205.625 280.5 209Z" fill="white"/>
</g>
<path d="M280.5 207C280.155 205.125 279.875 204.845 278 204.5C279.875 204.155 280.155 203.875 280.5 202C280.845 203.875 281.125 204.155 283 204.5C281.125 204.845 280.845 205.125 280.5 207Z" fill="white"/>
<g filter="url(#filter5_f_168_8160)">
<path d="M53.5 267C52.8787 263.625 52.375 263.121 49 262.5C52.375 261.879 52.8787 261.375 53.5 258C54.1213 261.375 54.625 261.879 58 262.5C54.625 263.121 54.1213 263.625 53.5 267Z" fill="white"/>
</g>
<path d="M53.5 265C53.1548 263.125 52.875 262.845 51 262.5C52.875 262.155 53.1548 261.875 53.5 260C53.8452 261.875 54.125 262.155 56 262.5C54.125 262.845 53.8452 263.125 53.5 265Z" fill="white"/>
<g style="mix-blend-mode:soft-light">
<g filter="url(#filter6_f_168_8160)">
<path d="M348.5 63C347.879 59.625 347.375 59.1213 344 58.5C347.375 57.8787 347.879 57.375 348.5 54C349.121 57.375 349.625 57.8787 353 58.5C349.625 59.1213 349.121 59.625 348.5 63Z" fill="white"/>
</g>
<path d="M348.5 61C348.155 59.125 347.875 58.8452 346 58.5C347.875 58.1548 348.155 57.875 348.5 56C348.845 57.875 349.125 58.1548 351 58.5C349.125 58.8452 348.845 59.125 348.5 61Z" fill="white"/>
</g>
<g style="mix-blend-mode:soft-light">
<g filter="url(#filter7_f_168_8160)">
<path d="M48.5 79C47.8787 75.625 47.375 75.1213 44 74.5C47.375 73.8787 47.8787 73.375 48.5 70C49.1213 73.375 49.625 73.8787 53 74.5C49.625 75.1213 49.1213 75.625 48.5 79Z" fill="white"/>
</g>
<path opacity="0.4" d="M48.5 77C48.1548 75.125 47.875 74.8452 46 74.5C47.875 74.1548 48.1548 73.875 48.5 72C48.8452 73.875 49.125 74.1548 51 74.5C49.125 74.8452 48.8452 75.125 48.5 77Z" fill="white"/>
</g>
<g style="mix-blend-mode:soft-light">
<g filter="url(#filter8_f_168_8160)">
<path d="M23.5 151C22.8787 147.625 22.375 147.121 19 146.5C22.375 145.879 22.8787 145.375 23.5 142C24.1213 145.375 24.625 145.879 28 146.5C24.625 147.121 24.1213 147.625 23.5 151Z" fill="white"/>
</g>
<path d="M23.5 149C23.1548 147.125 22.875 146.845 21 146.5C22.875 146.155 23.1548 145.875 23.5 144C23.8452 145.875 24.125 146.155 26 146.5C24.125 146.845 23.8452 147.125 23.5 149Z" fill="white"/>
</g>
<g style="mix-blend-mode:soft-light">
<g filter="url(#filter9_f_168_8160)">
<path d="M122.75 33.9951C124.666 28.6059 124.358 27.4592 120.005 23.7499C125.394 25.6656 126.541 25.3584 130.25 21.0047C128.334 26.3939 128.642 27.5406 132.995 31.2499C127.606 29.3342 126.459 29.6415 122.75 33.9951Z" fill="white"/>
</g>
<path d="M124.417 31.1084C125.481 28.1144 125.31 27.4773 122.892 25.4166C125.886 26.4809 126.523 26.3102 128.583 23.8915C127.519 26.8855 127.69 27.5225 130.108 29.5833C127.115 28.519 126.477 28.6897 124.417 31.1084Z" fill="white"/>
</g>
<path opacity="0.48" d="M9 20C9 13.9249 13.9249 9 20 9H364C370.075 9 375 13.9249 375 20V283C375 289.075 370.075 294 364 294H20C13.9249 294 9 289.075 9 283V20Z" stroke="white" stroke-width="2"/>
</g>
<defs>
<filter id="filter0_f_168_8160" x="89.1979" y="64.1976" width="28.986" height="28.9861" filterUnits="userSpaceOnUse" color-interpolation-filters="sRGB">
<feFlood flood-opacity="0" result="BackgroundImageFix"/>
<feBlend mode="normal" in="SourceGraphic" in2="BackgroundImageFix" result="shape"/>
<feGaussianBlur stdDeviation="2" result="effect1_foregroundBlur_168_8160"/>
</filter>
<filter id="filter1_f_168_8160" x="298" y="78" width="21.2567" height="21.2567" filterUnits="userSpaceOnUse" color-interpolation-filters="sRGB">
<feFlood flood-opacity="0" result="BackgroundImageFix"/>
<feBlend mode="normal" in="SourceGraphic" in2="BackgroundImageFix" result="shape"/>
<feGaussianBlur stdDeviation="2" result="effect1_foregroundBlur_168_8160"/>
</filter>
<filter id="filter2_f_168_8160" x="263" y="19" width="17" height="17" filterUnits="userSpaceOnUse" color-interpolation-filters="sRGB">
<feFlood flood-opacity="0" result="BackgroundImageFix"/>
<feBlend mode="normal" in="SourceGraphic" in2="BackgroundImageFix" result="shape"/>
<feGaussianBlur stdDeviation="2" result="effect1_foregroundBlur_168_8160"/>
</filter>
<filter id="filter3_f_168_8160" x="347" y="134" width="17" height="17" filterUnits="userSpaceOnUse" color-interpolation-filters="sRGB">
<feFlood flood-opacity="0" result="BackgroundImageFix"/>
<feBlend mode="normal" in="SourceGraphic" in2="BackgroundImageFix" result="shape"/>
<feGaussianBlur stdDeviation="2" result="effect1_foregroundBlur_168_8160"/>
</filter>
<filter id="filter4_f_168_8160" x="272" y="196" width="17" height="17" filterUnits="userSpaceOnUse" color-interpolation-filters="sRGB">
<feFlood flood-opacity="0" result="BackgroundImageFix"/>
<feBlend mode="normal" in="SourceGraphic" in2="BackgroundImageFix" result="shape"/>
<feGaussianBlur stdDeviation="2" result="effect1_foregroundBlur_168_8160"/>
</filter>
<filter id="filter5_f_168_8160" x="45" y="254" width="17" height="17" filterUnits="userSpaceOnUse" color-interpolation-filters="sRGB">
<feFlood flood-opacity="0" result="BackgroundImageFix"/>
<feBlend mode="normal" in="SourceGraphic" in2="BackgroundImageFix" result="shape"/>
<feGaussianBlur stdDeviation="2" result="effect1_foregroundBlur_168_8160"/>
</filter>
<filter id="filter6_f_168_8160" x="340" y="50" width="17" height="17" filterUnits="userSpaceOnUse" color-interpolation-filters="sRGB">
<feFlood flood-opacity="0" result="BackgroundImageFix"/>
<feBlend mode="normal" in="SourceGraphic" in2="BackgroundImageFix" result="shape"/>
<feGaussianBlur stdDeviation="2" result="effect1_foregroundBlur_168_8160"/>
</filter>
<filter id="filter7_f_168_8160" x="40" y="66" width="17" height="17" filterUnits="userSpaceOnUse" color-interpolation-filters="sRGB">
<feFlood flood-opacity="0" result="BackgroundImageFix"/>
<feBlend mode="normal" in="SourceGraphic" in2="BackgroundImageFix" result="shape"/>
<feGaussianBlur stdDeviation="2" result="effect1_foregroundBlur_168_8160"/>
</filter>
<filter id="filter8_f_168_8160" x="15" y="138" width="17" height="17" filterUnits="userSpaceOnUse" color-interpolation-filters="sRGB">
<feFlood flood-opacity="0" result="BackgroundImageFix"/>
<feBlend mode="normal" in="SourceGraphic" in2="BackgroundImageFix" result="shape"/>
<feGaussianBlur stdDeviation="2" result="effect1_foregroundBlur_168_8160"/>
</filter>
<filter id="filter9_f_168_8160" x="116.005" y="17.0048" width="20.9904" height="20.9904" filterUnits="userSpaceOnUse" color-interpolation-filters="sRGB">
<feFlood flood-opacity="0" result="BackgroundImageFix"/>
<feBlend mode="normal" in="SourceGraphic" in2="BackgroundImageFix" result="shape"/>
<feGaussianBlur stdDeviation="2" result="effect1_foregroundBlur_168_8160"/>
</filter>
<linearGradient id="paint0_linear_168_8160" x1="371.5" y1="30.5" x2="28" y2="274.5" gradientUnits="userSpaceOnUse">
<stop stop-color="#372C62"/>
<stop offset="1" stop-color="#5B5EA8"/>
</linearGradient>
</defs>
</svg>
