<svg width="156" height="156" viewBox="0 0 156 156" fill="none" xmlns="http://www.w3.org/2000/svg">
<circle cx="76.4632" cy="79.9654" r="68.5919" fill="white"/>
<path d="M101.083 8.03438C102.533 7.79843 103.956 8.80876 104.669 10.0933C105.383 11.3778 105.541 12.8867 105.686 14.3489C106.27 11.1168 109.617 8.64418 112.878 9.0355C116.139 9.42681 118.806 12.621 118.609 15.8996C118.257 21.7512 108.343 27.8582 102.944 25.0344C98.8391 22.8876 94.7981 9.05684 101.083 8.03438Z" fill="#FF9CC9"/>
<path d="M27.8912 25.7625C27.1096 24.4376 24.8013 24.1545 23.5154 24.6876C21.9351 25.3427 20.9797 27.3133 21.6006 28.9074C21.1281 27.6943 18.8764 27.3859 17.8282 27.6448C14.3983 28.4919 13.678 31.8075 15.3552 33.7934C16.3636 34.9874 17.9978 35.4097 19.5313 35.7116C20.9204 35.9851 22.3184 36.2136 23.7224 36.3965C25.3696 36.611 25.9504 36.3189 26.676 34.6537C27.2645 33.303 27.8567 31.9409 28.1618 30.4996C28.4368 29.2004 28.6108 27.0584 27.8912 25.7625Z" fill="#20D6FE"/>
<path d="M124.889 117.85C125.527 116.45 127.793 115.926 129.128 116.321C130.768 116.807 131.926 118.666 131.475 120.316C131.818 119.061 134.025 118.517 135.094 118.665C138.594 119.147 139.659 122.369 138.199 124.52C137.322 125.813 135.741 126.404 134.248 126.866C132.895 127.284 131.529 127.658 130.152 127.987C128.536 128.373 127.928 128.144 127.032 126.564C126.305 125.283 125.573 123.99 125.118 122.589C124.708 121.326 124.31 119.214 124.889 117.85Z" fill="#83E290"/>
<path d="M25.8003 56.9583C27.3226 53.7724 27.9549 50.2513 27.6584 46.7619C27.5561 45.56 26.434 44.6811 25.2577 44.9478C25.2506 44.9494 25.2436 44.951 25.2365 44.9526C23.6315 45.321 22.1222 46.175 20.949 47.5034C20.7727 47.703 20.6088 47.9089 20.4562 48.1201C20.2458 48.4118 19.8819 48.5455 19.5344 48.4529C16.6366 47.6797 13.4203 48.5356 11.2998 50.9362C10.3144 52.0519 9.69155 53.3617 9.41721 54.7229C8.10036 55.1633 6.87757 55.9433 5.89223 57.0589C3.77203 59.4595 3.31983 62.7572 4.44547 65.5373C4.58057 65.8707 4.49253 66.248 4.22911 66.4929C4.0381 66.6704 3.85399 66.8585 3.67805 67.058C0.691678 70.4393 1.01155 75.6016 4.39317 78.5882C4.61038 78.7801 4.83475 78.9578 5.06571 79.1216C5.49244 79.4247 5.56907 80.0261 5.22304 80.4188L5.2158 80.427C2.24634 83.7974 2.54145 88.9448 5.89907 91.9288C6.18448 92.1825 6.47636 92.4207 6.77451 92.6445C7.5261 93.2081 8.60563 92.9433 9.01074 92.0954L25.8003 56.9583Z" fill="#ACDF91"/>
<path d="M34.4051 47.3785C34.4026 47.381 34.4004 47.3838 34.3979 47.3867C34.0574 47.7734 33.4612 47.7982 33.1148 47.4168C32.9169 47.1987 32.7048 46.9893 32.4788 46.7897C30.4256 44.9766 27.7167 44.3845 25.2362 44.954C26.0937 49.0325 25.5854 53.2798 23.7886 57.0406L6.77666 92.643C19.7227 102.404 43.9269 85.2035 43.9269 85.2035C43.9269 85.2035 58.6397 57.8847 45.935 46.6637C42.5537 43.677 37.3915 43.9972 34.4051 47.3785Z" fill="#93D87B"/>
<path d="M145.185 89.2091C145.898 85.6229 144.205 82.1203 141.234 80.349C139.352 79.227 138.119 77.271 137.99 75.0841C137.906 73.6471 137.53 72.0554 136.547 70.6891C135.6 69.3721 134.483 68.5575 133.447 68.0539C131.724 67.2173 130.376 65.7243 129.907 63.8675C129.904 63.854 129.9 63.8408 129.897 63.8273C129.372 61.7917 127.736 60.228 125.705 59.6874L124.924 59.4796C121.954 59.0902 119.17 60.3693 117.442 62.6254C117.223 62.9114 116.854 63.0287 116.509 62.9262C116.259 62.8517 116.003 62.7886 115.741 62.7384C111.311 61.8835 107.027 64.7818 106.173 69.2115C106.115 69.5116 106.074 69.8108 106.051 70.1082C106.011 70.6056 105.555 70.9602 105.065 70.8654C100.596 70.0005 96.2616 72.9302 95.4238 77.4041C92.6065 92.449 115.526 104.218 119.859 106.297C129.47 104.239 143.179 99.3095 145.185 89.2091Z" fill="#ACDF91"/>
<path d="M148.95 79.3657C148.035 79.1056 147.484 78.1908 147.626 77.2508C148.699 70.124 144.097 68.1639 141.567 67.6254C140.718 67.4447 140.13 66.6912 140.095 65.8242C139.903 60.9875 135.328 57.784 131.675 57.8407C130.002 57.8667 128.462 58.3794 127.18 59.2375C126.684 59.5692 126.074 59.6824 125.489 59.5692L125.479 59.5674C125.293 59.5315 125.109 59.5037 124.924 59.4808C126.971 60.5749 128.519 62.5007 129.098 64.7944C129.556 66.606 130.872 68.0628 132.552 68.879C133.564 69.3705 134.653 70.1653 135.578 71.4503C136.537 72.7833 136.904 74.3359 136.986 75.7379C137.112 77.8725 138.316 79.7812 140.152 80.8765C143.051 82.6049 144.702 86.0225 144.007 89.5215C141.927 99.9945 128.815 104.327 119.446 106.098C120.152 106.443 120.559 106.625 120.559 106.625C120.559 106.625 151.469 105.425 154.761 88.8546C155.6 84.6291 153.018 80.5228 148.95 79.3657Z" fill="#93D87B"/>
<path d="M124.599 79.4904C124.599 52.8184 102.977 31.1964 76.3048 31.1964C49.6327 31.1964 28.0107 52.8184 28.0107 79.4904C28.0107 106.162 49.6327 127.784 76.3048 127.784C102.977 127.784 124.599 106.162 124.599 79.4904Z" fill="#555A6E"/>
<path d="M126.599 79.4904C126.599 51.7138 104.081 29.1964 76.3048 29.1964C48.5281 29.1964 26.0107 51.7138 26.0107 79.4904C26.0107 107.267 48.5281 129.784 76.3048 129.784C104.081 129.784 126.599 107.267 126.599 79.4904Z" stroke="#3B3F4E" stroke-width="4"/>
<path d="M114.94 79.49C114.94 58.1524 97.6426 40.8548 76.305 40.8548C54.9673 40.8548 37.6697 58.1524 37.6697 79.49C37.6697 100.828 54.9673 118.125 76.305 118.125C97.6426 118.125 114.94 100.828 114.94 79.49Z" fill="#463C4B"/>
<path d="M114.94 82.7088L114.94 73.05L37.6698 73.05L37.6698 82.7088C37.6698 104.046 54.9673 121.344 76.305 121.344C97.6427 121.344 114.94 104.046 114.94 82.7088Z" fill="#A5C3DC"/>
<path d="M111.72 82.7096L111.72 73.0508L40.8892 73.0508L40.8892 82.7096C40.8892 102.269 56.7453 118.125 76.3048 118.125C95.8643 118.125 111.72 102.269 111.72 82.7096Z" fill="#D7E6F0"/>
<path d="M82.7439 111.686C82.7439 108.13 79.861 105.247 76.3047 105.247C72.7485 105.247 69.8655 108.13 69.8655 111.686C69.8655 115.242 72.7485 118.125 76.3047 118.125C79.861 118.125 82.7439 115.242 82.7439 111.686Z" fill="#FFD205"/>
<path d="M76.3049 108.466C76.3049 104.91 73.422 102.027 69.8657 102.027C66.3094 102.027 63.4265 104.91 63.4265 108.466C63.4265 112.023 66.3094 114.906 69.8657 114.906C73.422 114.906 76.3049 112.023 76.3049 108.466Z" fill="#FFD205"/>
<path d="M69.8655 105.247C69.8655 101.691 66.9825 98.8076 63.4263 98.8076C59.87 98.8076 56.9871 101.691 56.9871 105.247C56.9871 108.803 59.87 111.686 63.4263 111.686C66.9825 111.686 69.8655 108.803 69.8655 105.247Z" fill="#FFAC4F"/>
<path d="M63.4264 102.028C63.4264 98.4713 60.5435 95.5884 56.9872 95.5884C53.431 95.5884 50.548 98.4713 50.548 102.028C50.548 105.584 53.431 108.467 56.9872 108.467C60.5435 108.467 63.4264 105.584 63.4264 102.028Z" fill="#FFD205"/>
<path d="M89.1832 108.466C89.1832 104.91 86.3003 102.027 82.744 102.027C79.1877 102.027 76.3048 104.91 76.3048 108.466C76.3048 112.023 79.1877 114.906 82.744 114.906C86.3003 114.906 89.1832 112.023 89.1832 108.466Z" fill="#FFAC4F"/>
<path d="M95.6225 105.247C95.6225 101.691 92.7396 98.8076 89.1833 98.8076C85.6271 98.8076 82.7441 101.691 82.7441 105.247C82.7441 108.803 85.6271 111.686 89.1833 111.686C92.7396 111.686 95.6225 108.803 95.6225 105.247Z" fill="#FFD205"/>
<path d="M102.062 102.028C102.062 98.4713 99.1788 95.5884 95.6225 95.5884C92.0662 95.5884 89.1833 98.4713 89.1833 102.028C89.1833 105.584 92.0662 108.467 95.6225 108.467C99.1788 108.467 102.062 105.584 102.062 102.028Z" fill="#FFAC4F"/>
<path d="M114.94 73.0508C114.94 71.2726 113.499 69.8312 111.721 69.8312L40.8893 69.8312C39.1111 69.8312 37.6697 71.2726 37.6697 73.0508C37.6697 94.3885 54.9672 111.686 76.305 111.686C97.6427 111.686 114.94 94.3885 114.94 73.0508Z" fill="#D97E1A"/>
<path d="M59.0015 77.9382C59.0015 76.4564 57.8004 75.2552 56.3186 75.2552C54.8369 75.2552 53.6357 76.4564 53.6357 77.9382C53.6357 79.4199 54.8369 80.6211 56.3186 80.6211C57.8004 80.6211 59.0015 79.4199 59.0015 77.9382Z" fill="#F3962F"/>
<path d="M61.6845 80.8902C61.6845 80.4456 61.3241 80.0853 60.8796 80.0853C60.4351 80.0853 60.0747 80.4456 60.0747 80.8902C60.0747 81.3347 60.4351 81.6951 60.8796 81.6951C61.3241 81.6951 61.6845 81.3347 61.6845 80.8902Z" fill="#F3962F"/>
<path d="M98.3051 82.9785C98.3051 82.534 97.9447 82.1736 97.5002 82.1736C97.0557 82.1736 96.6953 82.534 96.6953 82.9785C96.6953 83.4231 97.0557 83.7834 97.5002 83.7834C97.9447 83.7834 98.3051 83.4231 98.3051 82.9785Z" fill="#F3962F"/>
<path d="M94.0124 97.4663C94.0124 97.0218 93.652 96.6614 93.2075 96.6614C92.763 96.6614 92.4026 97.0218 92.4026 97.4663C92.4026 97.9109 92.763 98.2712 93.2075 98.2712C93.652 98.2712 94.0124 97.9109 94.0124 97.4663Z" fill="#F3962F"/>
<path d="M107.428 76.5391C107.428 76.0946 107.067 75.7342 106.623 75.7342C106.178 75.7342 105.818 76.0946 105.818 76.5391C105.818 76.9836 106.178 77.344 106.623 77.344C107.067 77.344 107.428 76.9836 107.428 76.5391Z" fill="#F3962F"/>
<path d="M52.1578 82.4412C52.1578 81.9967 51.7974 81.6363 51.3529 81.6363C50.9083 81.6363 50.548 81.9967 50.548 82.4412C50.548 82.8857 50.9083 83.2461 51.3529 83.2461C51.7974 83.2461 52.1578 82.8857 52.1578 82.4412Z" fill="#F3962F"/>
<path d="M63.9629 96.6614C63.9629 95.7724 63.2422 95.0516 62.3531 95.0516C61.464 95.0516 60.7433 95.7724 60.7433 96.6614C60.7433 97.5505 61.464 98.2712 62.3531 98.2712C63.2422 98.2712 63.9629 97.5505 63.9629 96.6614Z" fill="#F3962F"/>
<path d="M69.7332 76.8665C69.7332 75.9774 69.0125 75.2567 68.1234 75.2567C67.2343 75.2567 66.5136 75.9774 66.5136 76.8665C66.5136 77.7556 67.2343 78.4763 68.1234 78.4763C69.0125 78.4763 69.7332 77.7556 69.7332 76.8665Z" fill="#F3962F"/>
<path d="M90.2562 96.6614C90.2562 95.7724 89.5354 95.0516 88.6464 95.0516C87.7573 95.0516 87.0366 95.7724 87.0366 96.6614C87.0366 97.5505 87.7573 98.2712 88.6464 98.2712C89.5354 98.2712 90.2562 97.5505 90.2562 96.6614Z" fill="#F3962F"/>
<path d="M92.403 53.7333C92.403 44.8426 85.1957 37.6353 76.305 37.6353C67.4143 37.6353 60.207 44.8426 60.207 53.7333C60.207 62.624 67.4143 69.8313 76.305 69.8313C85.1957 69.8313 92.403 62.624 92.403 53.7333Z" fill="#A5C3DC"/>
<path d="M89.1834 53.7341C89.1834 46.6216 83.4175 40.8557 76.305 40.8557C69.1924 40.8557 63.4266 46.6216 63.4266 53.7341C63.4266 60.8467 69.1924 66.6125 76.305 66.6125C83.4175 66.6125 89.1834 60.8467 89.1834 53.7341Z" fill="#EF9837"/>
<path d="M84.354 58.5635C77.2415 58.5635 71.4756 52.7976 71.4756 45.6851C71.4756 44.2347 71.7189 42.842 72.161 41.5411C67.0822 43.2668 63.4266 48.0721 63.4266 53.7341C63.4266 60.8466 69.1925 66.6125 76.305 66.6125C81.9673 66.6125 86.7723 62.9569 88.498 57.8782C87.1971 58.3203 85.8044 58.5635 84.354 58.5635Z" fill="#D97E1A"/>
<path d="M77.9148 68.2215C77.9148 69.1105 77.194 69.8313 76.305 69.8313C67.4285 69.8313 60.207 62.6097 60.207 53.7333C60.207 52.8443 60.9278 52.1235 61.8168 52.1235C62.7058 52.1235 63.4266 52.8443 63.4266 53.7333C63.4266 60.8345 69.2037 66.6117 76.305 66.6117C77.194 66.6117 77.9148 67.3325 77.9148 68.2215Z" fill="#D7E6F0"/>
<path d="M77.9145 46.4898C77.9145 45.1562 76.8334 44.0751 75.4998 44.0751C74.1662 44.0751 73.0851 45.1562 73.0851 46.4898C73.0851 47.8234 74.1662 48.9045 75.4998 48.9045C76.8334 48.9045 77.9145 47.8234 77.9145 46.4898Z" fill="#D26E28"/>
<path d="M76.3049 59.3687C76.3049 58.0351 75.2238 56.954 73.8902 56.954C72.5566 56.954 71.4755 58.0351 71.4755 59.3687C71.4755 60.7023 72.5566 61.7834 73.8902 61.7834C75.2238 61.7834 76.3049 60.7023 76.3049 59.3687Z" fill="#A55023"/>
<path d="M85.9636 51.3194C85.9636 50.8748 85.6033 50.5145 85.1587 50.5145C84.7142 50.5145 84.3538 50.8748 84.3538 51.3194C84.3538 51.7639 84.7142 52.1243 85.1587 52.1243C85.6033 52.1243 85.9636 51.7639 85.9636 51.3194Z" fill="#D26E28"/>
<path d="M66.6458 51.3194C66.6458 50.8748 66.2854 50.5145 65.8408 50.5145C65.3963 50.5145 65.0359 50.8748 65.0359 51.3194C65.0359 51.7639 65.3963 52.1243 65.8409 52.1243C66.2854 52.1243 66.6458 51.7639 66.6458 51.3194Z" fill="#A55023"/>
<path d="M114.94 58.5627C114.94 52.3392 109.895 47.2941 103.671 47.2941C97.4478 47.2941 92.4027 52.3392 92.4027 58.5627C92.4027 64.7862 97.4478 69.8313 103.671 69.8313C109.895 69.8313 114.94 64.7862 114.94 58.5627Z" fill="#A5C3DC"/>
<path d="M105.281 68.2215C105.281 69.1105 104.56 69.8313 103.671 69.8313C97.4577 69.8313 92.4027 64.7763 92.4027 58.5627C92.4027 57.6737 93.1235 56.9529 94.0125 56.9529C94.9015 56.9529 95.6223 57.6737 95.6223 58.5627C95.6223 63.0009 99.2331 66.6117 103.671 66.6117C104.56 66.6117 105.281 67.3325 105.281 68.2215Z" fill="#D7E6F0"/>
<path d="M111.721 58.5635C111.721 54.1182 108.117 50.5145 103.672 50.5145C99.2263 50.5145 95.6226 54.1182 95.6226 58.5635C95.6226 63.0089 99.2263 66.6125 103.672 66.6125C108.117 66.6125 111.721 63.0089 111.721 58.5635Z" fill="#FFD23C"/>
<path d="M108.501 61.7831C104.056 61.7831 100.452 58.1794 100.452 53.7341C100.452 52.7719 100.621 51.8493 100.931 50.9939C97.8351 52.1149 95.6226 55.0805 95.6226 58.5635C95.6226 63.0088 99.2262 66.6125 103.672 66.6125C107.155 66.6125 110.12 64.3999 111.241 61.3038C110.386 61.6137 109.463 61.7831 108.501 61.7831Z" fill="#FAA019"/>
<path d="M60.2069 58.5627C60.2069 52.3392 55.1618 47.2941 48.9383 47.2941C42.7149 47.2941 37.6697 52.3392 37.6697 58.5627C37.6697 64.7862 42.7149 69.8313 48.9383 69.8313C55.1618 69.8313 60.2069 64.7862 60.2069 58.5627Z" fill="#A5C3DC"/>
<path d="M50.5481 68.2215C50.5481 69.1105 49.8274 69.8313 48.9383 69.8313C42.7247 69.8313 37.6697 64.7763 37.6697 58.5627C37.6697 57.6737 38.3905 56.9529 39.2795 56.9529C40.1686 56.9529 40.8893 57.6737 40.8893 58.5627C40.8893 63.0009 44.5001 66.6117 48.9383 66.6117C49.8274 66.6117 50.5481 67.3325 50.5481 68.2215Z" fill="#D7E6F0"/>
<path d="M56.9872 58.5635C56.9872 54.1182 53.3836 50.5145 48.9382 50.5145C44.4929 50.5145 40.8892 54.1182 40.8892 58.5635C40.8892 63.0089 44.4929 66.6125 48.9382 66.6125C53.3836 66.6125 56.9872 63.0089 56.9872 58.5635Z" fill="#F04B37"/>
<path d="M53.7676 61.7831C49.3222 61.7831 45.7186 58.1794 45.7186 53.7341C45.7186 52.7719 45.8881 51.8493 46.1979 50.9939C43.1017 52.1149 40.8892 55.0805 40.8892 58.5635C40.8892 63.0088 44.4928 66.6125 48.9382 66.6125C52.4212 66.6125 55.3869 64.3999 56.5079 61.3038C55.6525 61.6137 54.7299 61.7831 53.7676 61.7831Z" fill="#E1322D"/>
</svg>
