<svg width="156" height="156" viewBox="0 0 156 156" fill="none" xmlns="http://www.w3.org/2000/svg">
<circle cx="79.1643" cy="81.4927" r="71.0149" fill="white"/>
<path d="M104.653 7.02119C106.155 6.77691 107.628 7.82293 108.367 9.15284C109.105 10.4827 109.269 12.045 109.419 13.5588C110.024 10.2125 113.489 7.65253 116.865 8.05767C120.242 8.46281 123.003 11.7699 122.799 15.1643C122.435 21.2226 112.17 27.5453 106.58 24.6217C102.331 22.3991 98.1469 8.07977 104.653 7.02119Z" fill="#FF9CC9"/>
<path d="M16.2047 36.3007C15.3954 34.9289 13.0056 34.6359 11.6742 35.1878C10.0381 35.866 9.04898 37.9062 9.69184 39.5566C9.20262 38.3007 6.87137 37.9814 5.78614 38.2494C2.23509 39.1265 1.48939 42.5592 3.2258 44.6152C4.26985 45.8514 5.96179 46.2886 7.54942 46.6012C8.98762 46.8844 10.435 47.1209 11.8885 47.3103C13.5939 47.5324 14.1952 47.2299 14.9465 45.5059C15.5558 44.1076 16.169 42.6973 16.4848 41.2051C16.7695 39.8599 16.9496 37.6423 16.2047 36.3007Z" fill="#2086FE"/>
<path d="M138.838 109.983C139.499 108.534 141.845 107.992 143.227 108.401C144.925 108.903 146.123 110.828 145.657 112.537C146.012 111.237 148.296 110.674 149.404 110.827C153.027 111.326 154.129 114.662 152.619 116.889C151.71 118.228 150.073 118.84 148.527 119.318C147.127 119.75 145.712 120.138 144.287 120.479C142.614 120.879 141.984 120.641 141.056 119.005C140.303 117.679 139.546 116.341 139.075 114.89C138.65 113.582 138.238 111.396 138.838 109.983Z" fill="#83E290"/>
<path d="M128 81.7459V92.4622C128 93.8995 127.554 95.3014 126.724 96.4748C125.894 97.6481 124.72 98.535 123.365 99.0134L98.4739 107.799V100.23L118.747 92.9902C119.422 92.7493 120.006 92.3056 120.419 91.7199C120.831 91.1343 121.053 90.4354 121.053 89.7189V85.2196C121.053 84.2983 120.687 83.4148 120.035 82.7634C119.384 82.1119 118.5 81.7459 117.579 81.7459H98.4739V74.7986H121.053C122.895 74.7986 124.662 75.5305 125.965 76.8334C127.268 78.1363 128 79.9034 128 81.7459Z" fill="#D9DBDD"/>
<path d="M89.371 119.957H55.053C31.0086 102.589 35.9478 66.115 35.9478 66.115H108.476C108.476 66.115 113.415 102.589 89.371 119.957Z" fill="#E0E2E5"/>
<path d="M108.68 80.01C107.803 92.1853 103.819 109.521 89.3705 119.957H55.0527C40.6044 109.521 36.6205 92.1853 35.7434 80.01H108.68Z" fill="#F3962F"/>
<path d="M126.263 118.22C126.263 118.22 126.263 132.115 110.632 132.115H44.632C29.0005 132.115 29.0005 118.22 29.0005 118.22H126.263Z" fill="#D9DBDD"/>
<path d="M82.8425 90.431C82.3819 90.431 81.9401 90.248 81.6144 89.9223C81.2887 89.5966 81.1057 89.1548 81.1057 88.6942V66.1153C81.1057 65.6546 81.2887 65.2128 81.6144 64.8871C81.9401 64.5614 82.3819 64.3784 82.8425 64.3784C83.3032 64.3784 83.7449 64.5614 84.0707 64.8871C84.3964 65.2128 84.5794 65.6546 84.5794 66.1153V88.6942C84.5794 89.1548 84.3964 89.5966 84.0707 89.9223C83.7449 90.248 83.3032 90.431 82.8425 90.431Z" fill="#D87F1C"/>
<path d="M89.7905 93.9041V111.273H75.8958V93.9041L82.8431 86.9568L89.7905 93.9041Z" fill="#C56F0F"/>
<path d="M71.8428 60.9047C71.4993 60.9047 71.1635 60.8028 70.8779 60.6119C70.5923 60.4211 70.3697 60.1498 70.2383 59.8324C70.1068 59.5151 70.0725 59.1659 70.1395 58.829C70.2065 58.4921 70.372 58.1826 70.6149 57.9397C70.7751 57.773 74.7542 53.501 70.3543 46.1668C67.2749 41.0344 68.0144 36.9083 69.177 34.3504C69.9475 32.6578 71.0975 31.1654 72.5377 29.989C72.9059 29.7176 73.3662 29.6024 73.8188 29.6683C74.2714 29.7343 74.6797 29.9761 74.9551 30.3412C75.2305 30.7064 75.3507 31.1655 75.2897 31.6188C75.2286 32.072 74.9913 32.4829 74.6291 32.7623C73.6187 33.6201 72.8169 34.6966 72.2844 35.9103C71.1598 38.4967 71.5124 41.3462 73.3324 44.3798C79.1736 54.115 73.3232 60.1442 73.0718 60.3963C72.9106 60.5578 72.719 60.686 72.5081 60.7732C72.2972 60.8605 72.0711 60.9052 71.8428 60.9047Z" fill="#E0E2E5"/>
<path d="M51.5799 60.9042C51.2364 60.9042 50.9006 60.8023 50.6149 60.6115C50.3293 60.4206 50.1067 60.1494 49.9752 59.832C49.8438 59.5146 49.8094 59.1654 49.8764 58.8285C49.9434 58.4915 50.1088 58.1821 50.3517 57.9392C50.7493 57.5329 54.181 53.8037 50.3517 49.9744C47.0329 46.6553 47.2291 43.2798 47.9784 41.0325C48.4779 39.5656 49.2874 38.2234 50.3517 37.0971C50.6766 36.7705 51.118 36.5864 51.5786 36.5852C52.0393 36.584 52.4815 36.7659 52.8081 37.0908C53.1346 37.4157 53.3188 37.857 53.3199 38.3176C53.3211 38.7783 53.1393 39.2205 52.8144 39.5471C52.4101 39.9596 48.979 43.689 52.8081 47.5181C56.127 50.8372 55.9307 54.2128 55.1815 56.46C54.6819 57.9269 53.8724 59.2691 52.8081 60.3955C52.647 60.557 52.4555 60.6851 52.2447 60.7724C52.034 60.8597 51.808 60.9044 51.5799 60.9042Z" fill="#E0E2E5"/>
<path d="M93.2637 60.9042C92.9202 60.9042 92.5844 60.8023 92.2987 60.6115C92.0131 60.4206 91.7905 60.1494 91.659 59.832C91.5276 59.5146 91.4932 59.1654 91.5602 58.8285C91.6272 58.4915 91.7926 58.1821 92.0355 57.9392C92.4331 57.5329 95.8646 53.8037 92.0355 49.9744C88.7167 46.6553 88.9129 43.2798 89.6619 41.0325C90.1618 39.5657 90.9713 38.2235 92.0355 37.0971C92.1964 36.9354 92.3876 36.807 92.5981 36.7191C92.8086 36.6313 93.0343 36.5858 93.2624 36.5852C93.4905 36.5846 93.7165 36.629 93.9274 36.7157C94.1384 36.8025 94.3302 36.9299 94.4919 37.0908C94.6536 37.2517 94.782 37.4428 94.8698 37.6533C94.9577 37.8638 95.0032 38.0896 95.0037 38.3176C95.0043 38.5457 94.96 38.7717 94.8732 38.9827C94.7865 39.1936 94.659 39.3854 94.4982 39.5471C94.0937 39.9596 90.663 43.689 94.4919 47.5181C97.8108 50.8372 97.6145 54.2128 96.8655 56.46C96.3657 57.9269 95.5562 59.2691 94.4919 60.3955C94.3308 60.557 94.1393 60.6851 93.9286 60.7724C93.7178 60.8597 93.4918 60.9045 93.2637 60.9042Z" fill="#E0E2E5"/>
</svg>
