<svg width="156" height="156" viewBox="0 0 156 156" fill="none" xmlns="http://www.w3.org/2000/svg">
<circle cx="79.1643" cy="81.4925" r="71.0149" fill="white"/>
<path d="M39.6622 57.5655C40.9912 55.1765 41.6486 52.4859 41.5867 49.7752C41.5653 48.8415 40.7403 48.1086 39.8185 48.2582C39.813 48.2592 39.8075 48.2601 39.8019 48.261C38.544 48.4687 37.3367 49.0563 36.3664 50.0267C36.2206 50.1724 36.0841 50.3237 35.9561 50.4796C35.7794 50.6949 35.4918 50.7808 35.2277 50.6926C33.0255 49.9562 30.499 50.4635 28.7453 52.2169C27.9304 53.0318 27.3863 54.0142 27.1091 55.0529C26.0704 55.3301 25.0881 55.8742 24.2732 56.6891C22.5197 58.4426 22.0122 60.9693 22.7488 63.1715C22.8372 63.4356 22.7511 63.723 22.5358 63.8996C22.3797 64.0276 22.2284 64.1642 22.0829 64.3099C19.6131 66.7798 19.6128 70.7843 22.0829 73.2543C22.2415 73.413 22.4064 73.561 22.577 73.6987C22.8923 73.9534 22.9227 74.4218 22.6364 74.7087L22.6305 74.7147C20.1742 77.1769 20.1556 81.1687 22.6072 83.6355C22.8156 83.8453 23.0297 84.0433 23.2494 84.2305C23.8032 84.7021 24.6501 84.5492 25.0038 83.9135L39.6622 57.5655Z" fill="#ACDF91"/>
<path d="M46.7712 50.5739C46.7691 50.5758 46.7673 50.5778 46.7652 50.5799C46.4836 50.8625 46.0217 50.853 45.7723 50.5417C45.6298 50.3637 45.4759 50.1917 45.3108 50.0266C43.8111 48.5271 41.7461 47.9397 39.802 48.2609C40.2692 51.4538 39.6728 54.7115 38.104 57.5316L23.2516 84.2284C32.7879 92.3915 52.3164 80.26 52.3164 80.26C52.3164 80.26 64.9952 59.8543 55.7153 50.5742C53.2455 48.1041 49.241 48.1041 46.7712 50.5739Z" fill="#93D87B"/>
<path d="M130.373 88.2097C131.095 85.4725 129.955 82.6847 127.744 81.1735C126.344 80.2163 125.484 78.6457 125.49 76.9495C125.494 75.8351 125.28 74.587 124.585 73.4841C123.916 72.4209 123.093 71.738 122.316 71.2991C121.024 70.5701 120.054 69.3518 119.781 67.8944C119.779 67.8838 119.777 67.8735 119.775 67.8629C119.467 66.2646 118.278 64.9779 116.734 64.4628L116.14 64.2648C113.864 63.8215 111.651 64.6765 110.208 66.3371C110.025 66.5476 109.734 66.6206 109.472 66.5248C109.283 66.4553 109.088 66.3942 108.888 66.3429C105.506 65.47 102.057 67.5044 101.184 70.8865C101.125 71.1156 101.079 71.3449 101.047 71.5736C100.992 71.956 100.623 72.2082 100.249 72.1115C96.8364 71.2289 93.3467 73.2851 92.4849 76.7022C89.5867 88.1933 106.734 98.3864 109.983 100.201C117.508 99.0708 128.338 95.9187 130.373 88.2097Z" fill="#ACDF91"/>
<path d="M133.753 80.7829C133.059 80.5382 132.677 79.8048 132.832 79.0852C134.003 73.6293 130.54 71.8941 128.611 71.3566C127.963 71.1763 127.545 70.5659 127.56 69.8942C127.643 66.1474 124.262 63.4526 121.436 63.3213C120.142 63.2612 118.927 63.5836 117.895 64.1853C117.496 64.4179 117.019 64.4761 116.572 64.3605L116.565 64.3587C116.423 64.3221 116.282 64.2917 116.14 64.2652C117.67 65.2088 118.774 66.7712 119.111 68.5714C119.378 69.9932 120.325 71.1821 121.585 71.8934C122.343 72.3217 123.146 72.9881 123.799 74.0254C124.477 75.1014 124.686 76.3188 124.682 77.4061C124.677 79.0617 125.516 80.5944 126.882 81.5288C129.04 83.0034 130.152 85.7235 129.447 88.3941C127.337 96.3875 116.998 99.1069 109.673 100.026C110.201 100.327 110.507 100.488 110.507 100.488C110.507 100.488 134.451 101.041 137.789 88.3941C138.64 85.169 136.842 81.8721 133.753 80.7829Z" fill="#93D87B"/>
<path d="M54.6362 92.8824L71.4749 62.6153C72.3918 60.9673 72.3918 58.9627 71.4749 57.3147L60.019 36.9773C59.182 37.4945 58.4489 38.2313 57.9135 39.1938L28.8885 91.365C26.6361 95.4137 29.5634 100.392 34.1965 100.392H57.61C54.9221 98.4937 53.1786 95.5023 54.6362 92.8824Z" fill="#F9BC66"/>
<path d="M97.5546 91.3648L68.5294 39.1934C66.5228 35.5868 61.7608 35.1083 59.0192 37.7531C59.4991 38.1514 59.9101 38.6281 60.2168 39.1752C60.2203 39.1812 60.2237 39.1874 60.227 39.1934L70.3137 57.3241C71.1912 58.9014 71.1912 60.82 70.3137 62.3973L54.1977 91.365C51.9453 95.4137 54.8726 100.392 59.5058 100.392H92.2461C96.8797 100.392 99.807 95.4137 97.5546 91.3648Z" fill="#FAAE43"/>
<path d="M122.108 91.371L93.1647 39.3473C92.6575 38.4354 91.726 37.8393 90.6855 37.7607C90.2666 38.1651 89.8945 38.642 89.588 39.1932L60.5628 91.3646C58.3104 95.4133 61.2377 100.392 65.8709 100.392H118.378C122.09 99.3483 124.124 94.9965 122.108 91.371Z" fill="#F9BC66"/>
<path d="M129.229 91.3646L100.204 39.1933C98.1954 35.583 93.4257 35.107 90.6853 37.7608C91.1037 38.1661 91.4763 38.642 91.7828 39.1933L120.808 91.3646C123.06 95.4134 120.133 100.392 115.5 100.392H123.921C128.554 100.392 131.482 95.4136 129.229 91.3646Z" fill="#FAAE43"/>
<path d="M118.749 118.633L122.001 109.47L112.935 103.351H37.072L29.4772 109.598L32.638 118.502C33.9448 122.183 37.428 124.643 41.3344 124.643H112.198C115.193 123.861 117.68 121.645 118.749 118.633Z" fill="#E0DDE2"/>
<path d="M119.385 103.351H111.083L120.338 109.598L117.177 118.502C115.871 122.183 112.387 124.643 108.481 124.643H116.783C120.69 124.643 124.173 122.183 125.48 118.502L128.641 109.598L119.385 103.351Z" fill="#C8C1C9"/>
<path d="M93.677 40.3928C92.1605 49.6934 87.6176 71.9247 75.6764 99.6087L75.3678 100.318H79.2429C89.532 76.2935 94.3236 56.3331 96.4158 45.3159L93.677 40.3928Z" fill="#FAAE43"/>
<path d="M97.7983 36.7878C96.7301 36.1815 95.5074 35.9261 94.3078 36.0187C94.215 36.8046 93.9428 38.9286 93.3741 42.1792L96.079 47.0412C97.1241 41.7935 97.6178 38.2345 97.7983 36.7878Z" fill="#FBA615"/>
<path d="M61.9727 40.5691C60.4278 49.9705 55.8684 72.0881 44.0091 99.5897C43.8965 99.8312 43.783 100.074 43.6692 100.318H47.5674C57.8201 76.3779 62.6135 56.4757 64.7167 45.4408L61.9727 40.5691Z" fill="#FAAE43"/>
<path d="M66.1243 36.7878C65.0561 36.1813 63.8331 35.9259 62.6335 36.0185C62.542 36.7917 62.2775 38.8574 61.7281 42.0166L64.4364 46.8849C65.4632 41.7076 65.9476 38.2039 66.1243 36.7878Z" fill="#FBA615"/>
<path d="M108.451 97.03H23.1273C21.4185 97.03 20.0084 98.4022 20.0001 100.111C19.9748 105.305 24.1778 109.523 29.3659 109.523H125.019C128.137 108.317 130.348 105.292 130.348 101.749V98.0144C130.348 97.4708 129.908 97.03 129.364 97.03H116.813H108.451Z" fill="#F0F0F3"/>
<path d="M134.768 97.03H129.162C129.416 97.03 129.622 97.2361 129.622 97.4903V101.665C129.622 106.005 126.104 109.523 121.764 109.523H128.529C133.702 109.523 137.895 105.33 137.895 100.157C137.895 98.4303 136.495 97.03 134.768 97.03Z" fill="#E0DDE2"/>
<path d="M104.653 7.0207C106.155 6.77642 107.628 7.82244 108.367 9.15235C109.105 10.4823 109.269 12.0445 109.419 13.5583C110.024 10.212 113.489 7.65204 116.865 8.05718C120.242 8.46232 123.003 11.7694 122.799 15.1638C122.435 21.2221 112.17 27.5448 106.58 24.6212C102.331 22.3986 98.1469 8.07928 104.653 7.0207Z" fill="#777CFF"/>
<path d="M28.8765 25.3756C28.0673 24.0039 25.6774 23.7108 24.3461 24.2627C22.71 24.941 21.7209 26.9812 22.3637 28.6316C21.8745 27.3756 19.5432 27.0563 18.458 27.3244C14.907 28.2014 14.1613 31.6341 15.8977 33.6902C16.9417 34.9264 18.6337 35.3635 20.2213 35.6762C21.6595 35.9593 23.1069 36.1959 24.5604 36.3852C26.2658 36.6074 26.8671 36.3049 27.6183 34.5809C28.2277 33.1825 28.8408 31.7723 29.1567 30.28C29.4413 28.9349 29.6215 26.7172 28.8765 25.3756Z" fill="#E55252"/>
<path d="M129.301 120.715C129.962 119.266 132.308 118.723 133.69 119.132C135.388 119.635 136.586 121.56 136.12 123.269C136.474 121.968 138.759 121.406 139.867 121.559C143.49 122.058 144.592 125.393 143.081 127.62C142.173 128.959 140.536 129.572 138.99 130.049C137.59 130.482 136.175 130.869 134.75 131.21C133.077 131.61 132.447 131.373 131.519 129.737C130.766 128.41 130.008 127.072 129.538 125.622C129.113 124.314 128.701 122.127 129.301 120.715Z" fill="#83E290"/>
</svg>
