<svg width="384" height="303" viewBox="0 0 384 303" fill="none" xmlns="http://www.w3.org/2000/svg">
<path d="M0 12C0 5.37258 5.37258 0 12 0H372C378.627 0 384 5.37258 384 12V291C384 297.627 378.627 303 372 303H12C5.37258 303 0 297.627 0 291V12Z" fill="url(#paint0_linear_168_8112)"/>
<mask id="mask0_168_8112" style="mask-type:alpha" maskUnits="userSpaceOnUse" x="0" y="0" width="384" height="303">
<path d="M0 12C0 5.37258 5.37258 0 12 0H372C378.627 0 384 5.37258 384 12V291C384 297.627 378.627 303 372 303H12C5.37258 303 0 297.627 0 291V12Z" fill="#C6E2FF"/>
</mask>
<g mask="url(#mask0_168_8112)">
<path opacity="0.16" d="M622 195.082C618.756 195.181 615.532 195.796 612.437 196.827C604.224 199.554 596.853 204.652 591.04 211.029C585.128 217.514 579.493 226.103 579.88 235.147C575.258 234.155 570.437 234.949 566.161 237.22C563.602 238.579 561.31 240.483 559.525 242.764C559.078 243.339 558.681 243.914 558.324 244.519C557.57 243.964 556.807 243.418 556.023 242.912C550.349 239.263 543.385 237.269 536.768 239.362C534.298 240.145 532.086 241.415 530.281 243.17C523.922 232.529 510.997 226.956 498.805 230.06C498.577 230.119 498.339 230.189 498.101 230.248C498.002 230.02 497.902 229.792 497.803 229.574C496.97 227.63 496.057 225.736 495.055 223.871C490.988 216.334 485.522 209.432 478.926 203.948C472.418 198.543 464.79 194.368 456.537 192.404C448.412 190.46 439.802 190.54 431.717 192.612C423.255 194.784 415.419 199.296 409.675 205.872C405.608 202.867 400.479 201.419 395.42 201.756C392.573 201.944 389.816 202.639 387.227 203.858C386.076 204.394 385.004 205.058 383.983 205.812C382.515 205.148 381.017 204.562 379.479 204.057C373.011 201.964 366.067 201.329 359.302 201.478C352.606 201.617 345.831 202.549 339.472 204.711C327.926 208.629 317.698 216.8 313.323 228.433C312.887 229.594 312.619 230.823 312.133 231.964C311.964 232.36 311.746 232.836 311.468 233.174C311.369 233.293 311.26 233.441 311.111 233.501C311.101 233.501 311.101 233.501 311.091 233.501C310.457 233.441 309.663 232.757 309.098 232.47C308.492 232.152 307.868 231.865 307.243 231.587C305.675 230.893 304.078 230.288 302.441 229.812C296.321 228.037 289.734 227.878 283.524 229.296C271.928 231.954 261.522 240.998 257.574 252.324C252.604 249.14 246.989 247.326 240.948 247.514C234.183 247.722 227.725 250.459 222.745 255.021C222.309 255.418 221.892 255.835 221.495 256.251C217.775 254.327 213.668 253.078 209.611 252.215C196.457 249.418 181.478 249.378 170.19 257.689C165.805 260.922 162.214 265.028 160.052 269.937C151.987 263.282 141.68 259.355 131.224 258.929C119.678 258.463 108.399 262.658 99.6098 270.066C95.6915 273.358 92.2592 277.375 89.8388 281.907C86.0394 277.543 81.3871 274.162 75.7526 272.337C72.2707 271.206 68.4118 270.661 64.6324 270.889C63.4023 267.001 61.4878 263.411 58.9185 260.248C53.8892 254.059 45.9136 250.37 37.9083 250.826C34.4562 251.025 30.7561 251.957 27.7106 253.792C27.4726 253.365 27.2444 252.939 26.9865 252.522C26.3417 251.471 25.6374 250.44 24.9033 249.448C23.4352 247.484 21.8678 245.58 20.1418 243.835C16.6897 240.334 12.6523 237.359 8.25778 235.137C-1.02721 230.456 -11.8795 229.177 -21.9978 231.646C-27.2653 232.936 -32.4434 235.137 -36.7883 238.42C-41.1928 230.932 -48.0077 224.248 -56.6975 222.473C-64.8219 220.807 -74.3846 223.197 -79.5231 229.861C-83.4712 224.675 -90.5838 221.799 -96.8432 223.881C-99.095 218.228 -101.426 212.625 -106.039 208.4C-108.43 206.199 -111.326 204.493 -114.52 203.779C-116.494 203.333 -118.518 203.253 -120.532 203.372C-121.008 203.402 -121.504 203.422 -122 203.452V327.189C-61.3202 330.422 -0.441956 331.612 60.2974 332.733C123.408 333.903 186.538 334.27 249.658 333.804C313.036 333.328 376.414 332.009 439.762 329.817C500.531 327.715 561.31 324.938 621.99 321.05V195.082H622Z" fill="white"/>
<g style="mix-blend-mode:soft-light">
<path d="M54.3809 38.635C53.4379 38.6357 52.4964 38.6929 51.5603 38.8056C49.0191 30.5086 41.3854 24.8383 32.7295 24.8206C30.5748 24.8183 28.4354 25.1772 26.3992 25.8804C21.3584 14.9513 9.4122 9.01166 -2.31459 11.6036C-14.0429 14.1964 -22.3902 24.6207 -22.3817 36.6613C-22.3809 38.7423 -22.1223 40.8148 -21.6149 42.8309C-32.7882 44.5414 -40.7713 54.5821 -39.9407 65.8847C-39.1116 77.1882 -29.7482 85.9498 -18.4456 86H54.3809C67.4256 86 78 75.3966 78 62.3171C78 49.2375 67.4256 38.635 54.3809 38.635Z" fill="white"/>
</g>
<g opacity="0.16" filter="url(#filter0_f_168_8112)">
<path d="M87.7893 123.476C87.2619 123.476 86.7353 123.508 86.2117 123.571C84.7903 118.925 80.5207 115.749 75.6792 115.74C74.474 115.738 73.2774 115.939 72.1385 116.333C69.3191 110.213 62.6373 106.887 56.0783 108.338C49.5184 109.79 44.8496 115.628 44.8543 122.37C44.8547 123.536 44.9994 124.696 45.2832 125.825C39.0337 126.783 34.5686 132.406 35.0332 138.735C35.4969 145.065 40.7341 149.972 47.0559 150H87.7893C95.0855 150 101 144.062 101 136.738C101 129.413 95.0855 123.476 87.7893 123.476Z" fill="white"/>
</g>
<g style="mix-blend-mode:soft-light" opacity="0.49">
<path d="M406.772 46.7944C405.406 46.7955 404.041 46.8777 402.685 47.04C399.002 35.0924 387.94 26.9272 375.396 26.9016C372.274 26.8983 369.173 27.4152 366.223 28.4278C358.918 12.6899 341.606 4.13679 324.612 7.86925C307.616 11.6028 295.519 26.6138 295.532 43.9522C295.533 46.9489 295.908 49.9333 296.643 52.8365C280.451 55.2996 268.882 69.7582 270.086 86.034C271.287 102.311 284.856 114.928 301.236 115H406.772C425.676 115 441 99.7312 441 80.8966C441 62.0621 425.676 46.7944 406.772 46.7944Z" fill="white"/>
</g>
<g style="mix-blend-mode:soft-light" filter="url(#filter1_f_168_8112)">
<path d="M311.188 147.318C310.597 147.318 310.006 147.354 309.419 147.425C307.826 142.225 303.038 138.672 297.61 138.661C296.259 138.659 294.917 138.884 293.64 139.325C290.479 132.476 282.987 128.754 275.633 130.378C268.278 132.003 263.043 138.536 263.049 146.081C263.049 147.385 263.211 148.684 263.53 149.947C256.523 151.019 251.516 157.311 252.037 164.394C252.557 171.478 258.429 176.969 265.517 177H311.188C319.369 177 326 170.355 326 162.159C326 153.962 319.369 147.318 311.188 147.318Z" fill="#B1B1B1"/>
</g>
<path opacity="0.48" d="M9 20C9 13.9249 13.9249 9 20 9H364C370.075 9 375 13.9249 375 20V283C375 289.075 370.075 294 364 294H20C13.9249 294 9 289.075 9 283V20Z" stroke="white" stroke-width="2"/>
</g>
<defs>
<filter id="filter0_f_168_8112" x="30.7" y="103.7" width="74.6" height="50.6" filterUnits="userSpaceOnUse" color-interpolation-filters="sRGB">
<feFlood flood-opacity="0" result="BackgroundImageFix"/>
<feBlend mode="normal" in="SourceGraphic" in2="BackgroundImageFix" result="shape"/>
<feGaussianBlur stdDeviation="2.15" result="effect1_foregroundBlur_168_8112"/>
</filter>
<filter id="filter1_f_168_8112" x="249.9" y="127.9" width="78.2" height="51.2" filterUnits="userSpaceOnUse" color-interpolation-filters="sRGB">
<feFlood flood-opacity="0" result="BackgroundImageFix"/>
<feBlend mode="normal" in="SourceGraphic" in2="BackgroundImageFix" result="shape"/>
<feGaussianBlur stdDeviation="1.05" result="effect1_foregroundBlur_168_8112"/>
</filter>
<linearGradient id="paint0_linear_168_8112" x1="371.5" y1="30.5" x2="28" y2="274.5" gradientUnits="userSpaceOnUse">
<stop stop-color="#EB902D"/>
<stop offset="1" stop-color="#E8C190"/>
</linearGradient>
</defs>
</svg>
