<svg width="384" height="303" viewBox="0 0 384 303" fill="none" xmlns="http://www.w3.org/2000/svg">
<path d="M0 12C0 5.37258 5.37258 0 12 0H372C378.627 0 384 5.37258 384 12V291C384 297.627 378.627 303 372 303H12C5.37258 303 0 297.627 0 291V12Z" fill="url(#paint0_linear_168_8029)"/>
<mask id="mask0_168_8029" style="mask-type:alpha" maskUnits="userSpaceOnUse" x="0" y="0" width="384" height="303">
<path d="M0 12C0 5.37258 5.37258 0 12 0H372C378.627 0 384 5.37258 384 12V291C384 297.627 378.627 303 372 303H12C5.37258 303 0 297.627 0 291V12Z" fill="#C6E2FF"/>
</mask>
<g mask="url(#mask0_168_8029)">
<path opacity="0.42" d="M622 195.082C618.756 195.181 615.532 195.796 612.437 196.827C604.224 199.554 596.853 204.652 591.04 211.029C585.128 217.514 579.493 226.103 579.88 235.147C575.258 234.155 570.437 234.949 566.161 237.22C563.602 238.579 561.31 240.483 559.525 242.764C559.078 243.339 558.681 243.914 558.324 244.519C557.57 243.964 556.807 243.418 556.023 242.912C550.349 239.263 543.385 237.269 536.768 239.362C534.298 240.145 532.086 241.415 530.281 243.17C523.922 232.529 510.997 226.956 498.805 230.06C498.577 230.119 498.339 230.189 498.101 230.248C498.002 230.02 497.902 229.792 497.803 229.574C496.97 227.63 496.057 225.736 495.055 223.871C490.988 216.334 485.523 209.432 478.926 203.948C472.418 198.543 464.79 194.368 456.537 192.404C448.412 190.46 439.802 190.54 431.717 192.612C423.255 194.784 415.419 199.296 409.675 205.872C405.608 202.867 400.479 201.419 395.42 201.756C392.573 201.944 389.816 202.639 387.227 203.858C386.076 204.394 385.004 205.058 383.983 205.812C382.515 205.148 381.017 204.562 379.479 204.057C373.011 201.964 366.067 201.329 359.302 201.478C352.606 201.617 345.831 202.549 339.472 204.711C327.926 208.629 317.698 216.8 313.323 228.433C312.887 229.594 312.619 230.823 312.133 231.964C311.964 232.36 311.746 232.836 311.468 233.174C311.369 233.293 311.26 233.441 311.111 233.501C311.101 233.501 311.101 233.501 311.091 233.501C310.457 233.441 309.663 232.757 309.098 232.47C308.492 232.152 307.868 231.865 307.243 231.587C305.675 230.893 304.078 230.288 302.441 229.812C296.321 228.037 289.734 227.878 283.524 229.296C271.928 231.954 261.522 240.998 257.574 252.324C252.604 249.14 246.989 247.326 240.948 247.514C234.183 247.722 227.725 250.459 222.745 255.021C222.309 255.418 221.892 255.835 221.495 256.251C217.775 254.327 213.668 253.078 209.611 252.215C196.457 249.418 181.479 249.378 170.19 257.689C165.805 260.922 162.214 265.028 160.052 269.937C151.987 263.282 141.68 259.355 131.224 258.929C119.678 258.463 108.399 262.658 99.6098 270.066C95.6915 273.358 92.2592 277.375 89.8388 281.907C86.0394 277.543 81.3871 274.162 75.7526 272.337C72.2707 271.206 68.4118 270.661 64.6324 270.889C63.4023 267.001 61.4878 263.411 58.9185 260.248C53.8892 254.059 45.9136 250.37 37.9083 250.826C34.4562 251.025 30.756 251.957 27.7106 253.792C27.4726 253.365 27.2444 252.939 26.9865 252.522C26.3417 251.471 25.6374 250.44 24.9033 249.448C23.4352 247.484 21.8678 245.58 20.1418 243.835C16.6897 240.334 12.6523 237.359 8.25778 235.137C-1.02721 230.456 -11.8795 229.177 -21.9978 231.646C-27.2653 232.936 -32.4434 235.137 -36.7883 238.42C-41.1928 230.932 -48.0077 224.248 -56.6975 222.473C-64.8219 220.807 -74.3846 223.197 -79.5231 229.861C-83.4712 224.675 -90.5838 221.799 -96.8432 223.881C-99.095 218.228 -101.426 212.625 -106.039 208.4C-108.43 206.199 -111.326 204.493 -114.52 203.779C-116.494 203.333 -118.518 203.253 -120.532 203.372C-121.008 203.402 -121.504 203.422 -122 203.452V327.189C-61.3202 330.422 -0.441956 331.612 60.2974 332.733C123.408 333.903 186.538 334.27 249.658 333.804C313.036 333.328 376.414 332.009 439.762 329.817C500.531 327.715 561.31 324.938 621.99 321.05V195.082H622Z" fill="#E2F0FD"/>
<path opacity="0.9" d="M50.1767 57.5304C49.0259 57.5314 47.8769 57.6007 46.7346 57.7374C43.6334 47.6704 34.3178 40.7905 23.7547 40.769C21.1251 40.7662 18.5144 41.2017 16.0295 42.0549C9.87803 28.7942 -4.70037 21.5875 -19.011 24.7324C-33.3236 27.8783 -43.51 40.5264 -43.4997 55.1357C-43.4987 57.6606 -43.1831 60.1752 -42.564 62.6215C-56.1992 64.6969 -65.9413 76.8796 -64.9276 90.5935C-63.9158 104.308 -52.4893 114.939 -38.6963 115H50.1767C66.0957 115 79 102.135 79 86.2647C79 70.3949 66.0957 57.5304 50.1767 57.5304Z" fill="white"/>
<path d="M79.9887 171.581C79.4292 171.581 78.8707 171.616 78.3154 171.683C76.8079 166.705 72.2795 163.303 67.1446 163.292C65.8664 163.291 64.5973 163.506 63.3894 163.928C60.399 157.371 53.3123 153.807 46.3558 155.362C39.3983 156.918 34.4465 163.172 34.4515 170.397C34.452 171.645 34.6054 172.889 34.9064 174.099C28.2782 175.125 23.5424 181.149 24.0352 187.931C24.527 194.713 30.0816 199.97 36.7865 200H79.9887C87.7271 200 94 193.638 94 185.79C94 177.943 87.7271 171.581 79.9887 171.581Z" fill="white"/>
<g style="mix-blend-mode:soft-light">
<path d="M416.778 69.6881C415.691 69.689 414.606 69.7545 413.527 69.8837C410.598 60.3699 401.8 53.868 391.824 53.8476C389.34 53.845 386.875 54.2565 384.528 55.0628C378.718 42.5308 364.95 35.72 351.434 38.6922C337.917 41.6652 328.296 53.6184 328.306 67.4249C328.307 69.8111 328.605 72.1876 329.19 74.4995C316.312 76.4608 307.111 87.9741 308.068 100.935C309.024 113.896 319.816 123.942 332.842 124H416.778C431.813 124 444 111.841 444 96.8436C444 81.8457 431.813 69.6881 416.778 69.6881Z" fill="white"/>
</g>
<path opacity="0.48" d="M9 20C9 13.9249 13.9249 9 20 9H364C370.075 9 375 13.9249 375 20V283C375 289.075 370.075 294 364 294H20C13.9249 294 9 289.075 9 283V20Z" stroke="white" stroke-width="2"/>
</g>
<defs>
<linearGradient id="paint0_linear_168_8029" x1="371.5" y1="30.5" x2="28" y2="274.5" gradientUnits="userSpaceOnUse">
<stop stop-color="#D8E1FC"/>
<stop offset="1" stop-color="#C7D7F7"/>
</linearGradient>
</defs>
</svg>
