<svg width="379" height="226" viewBox="0 0 379 226" fill="none"
    xmlns="http://www.w3.org/2000/svg">
    <defs>
        <filter id="filter0_f_168_7853" x="89.1979" y="64.1976" width="28.986" height="28.9861" filterUnits="userSpaceOnUse" color-interpolation-filters="sRGB">
            <feFlood flood-opacity="0" result="BackgroundImageFix"/>
            <feBlend mode="normal" in="SourceGraphic" in2="BackgroundImageFix" result="shape"/>
            <feGaussianBlur stdDeviation="2" result="effect1_foregroundBlur_168_7853"/>
        </filter>
        <filter id="filter1_f_168_7853" x="298" y="77.9999" width="21.2567" height="21.2567" filterUnits="userSpaceOnUse" color-interpolation-filters="sRGB">
            <feFlood flood-opacity="0" result="BackgroundImageFix"/>
            <feBlend mode="normal" in="SourceGraphic" in2="BackgroundImageFix" result="shape"/>
            <feGaussianBlur stdDeviation="2" result="effect1_foregroundBlur_168_7853"/>
        </filter>
        <filter id="filter2_f_168_7853" x="240" y="18" width="17" height="17" filterUnits="userSpaceOnUse" color-interpolation-filters="sRGB">
            <feFlood flood-opacity="0" result="BackgroundImageFix"/>
            <feBlend mode="normal" in="SourceGraphic" in2="BackgroundImageFix" result="shape"/>
            <feGaussianBlur stdDeviation="2" result="effect1_foregroundBlur_168_7853"/>
        </filter>
        <filter id="filter3_f_168_7853" x="312" y="38" width="17" height="17" filterUnits="userSpaceOnUse" color-interpolation-filters="sRGB">
            <feFlood flood-opacity="0" result="BackgroundImageFix"/>
            <feBlend mode="normal" in="SourceGraphic" in2="BackgroundImageFix" result="shape"/>
            <feGaussianBlur stdDeviation="2" result="effect1_foregroundBlur_168_7853"/>
        </filter>
        <filter id="filter4_f_168_7853" x="45" y="190" width="17" height="17" filterUnits="userSpaceOnUse" color-interpolation-filters="sRGB">
            <feFlood flood-opacity="0" result="BackgroundImageFix"/>
            <feBlend mode="normal" in="SourceGraphic" in2="BackgroundImageFix" result="shape"/>
            <feGaussianBlur stdDeviation="2" result="effect1_foregroundBlur_168_7853"/>
        </filter>
        <filter id="filter5_f_168_7853" x="334" y="70" width="17" height="17" filterUnits="userSpaceOnUse" color-interpolation-filters="sRGB">
            <feFlood flood-opacity="0" result="BackgroundImageFix"/>
            <feBlend mode="normal" in="SourceGraphic" in2="BackgroundImageFix" result="shape"/>
            <feGaussianBlur stdDeviation="2" result="effect1_foregroundBlur_168_7853"/>
        </filter>
        <filter id="filter6_f_168_7853" x="40" y="66" width="17" height="17" filterUnits="userSpaceOnUse" color-interpolation-filters="sRGB">
            <feFlood flood-opacity="0" result="BackgroundImageFix"/>
            <feBlend mode="normal" in="SourceGraphic" in2="BackgroundImageFix" result="shape"/>
            <feGaussianBlur stdDeviation="2" result="effect1_foregroundBlur_168_7853"/>
        </filter>
        <filter id="filter7_f_168_7853" x="15" y="138" width="17" height="17" filterUnits="userSpaceOnUse" color-interpolation-filters="sRGB">
            <feFlood flood-opacity="0" result="BackgroundImageFix"/>
            <feBlend mode="normal" in="SourceGraphic" in2="BackgroundImageFix" result="shape"/>
            <feGaussianBlur stdDeviation="2" result="effect1_foregroundBlur_168_7853"/>
        </filter>
        <filter id="filter8_f_168_7853" x="116.005" y="17.0049" width="20.9904" height="20.9904" filterUnits="userSpaceOnUse" color-interpolation-filters="sRGB">
            <feFlood flood-opacity="0" result="BackgroundImageFix"/>
            <feBlend mode="normal" in="SourceGraphic" in2="BackgroundImageFix" result="shape"/>
            <feGaussianBlur stdDeviation="2" result="effect1_foregroundBlur_168_7853"/>
        </filter>
        <linearGradient id="paint0_linear_168_7853" x1="366.663" y1="22.7492" x2="95.8425" y2="277.307" gradientUnits="userSpaceOnUse">
            <stop stop-color="#372C62"/>
            <stop offset="1" stop-color="#5B5EA8"/>
        </linearGradient>
    </defs>
    <path d="M0 12C0 5.37259 5.37258 0 12 0H367C373.627 0 379 5.37258 379 12V214C379 220.627 373.627 226 367 226H12C5.37259 226 0 220.627 0 214V12Z" fill="url(#paint0_linear_168_7853)"/>
    <mask id="mask0_168_7853" style="mask-type:alpha" maskUnits="userSpaceOnUse" x="0" y="0" width="379" height="226">
        <path d="M0 12C0 5.37259 5.37258 0 12 0H367C373.627 0 379 5.37258 379 12V214C379 220.627 373.627 226 367 226H12C5.37259 226 0 220.627 0 214V12Z" fill="#C6E2FF"/>
    </mask>
    <g mask="url(#mask0_168_7853)">
        <g filter="url(#filter0_f_168_7853)">
            <path d="M103.889 89.1837C102.291 81.3412 101.095 80.1889 93.1978 78.8883C101.04 77.2913 102.193 76.0947 103.493 68.1976C105.09 76.0401 106.287 77.1924 114.184 78.493C106.341 80.0901 105.189 81.2866 103.889 89.1837Z" fill="white"/>
        </g>
        <path d="M103.862 87.7846C102.478 80.9878 101.441 79.9891 94.5968 78.862C101.394 77.4779 102.392 76.4409 103.519 69.5967C104.904 76.3936 105.941 77.3922 112.785 78.5194C105.988 79.9035 104.989 80.9405 103.862 87.7846Z" fill="white"/>
        <g filter="url(#filter1_f_168_7853)">
            <path d="M308.628 95.2566C307.713 90.2853 306.971 89.5434 302 88.6282C306.971 87.713 307.713 86.9712 308.628 81.9999C309.544 86.9712 310.285 87.713 315.257 88.6282C310.285 89.5434 309.544 90.2853 308.628 95.2566Z" fill="white"/>
        </g>
        <g filter="url(#filter2_f_168_7853)">
            <path d="M248.5 31C247.879 27.625 247.375 27.1213 244 26.5C247.375 25.8787 247.879 25.375 248.5 22C249.121 25.375 249.625 25.8787 253 26.5C249.625 27.1213 249.121 27.625 248.5 31Z" fill="white"/>
        </g>
        <path d="M248.5 29C248.155 27.125 247.875 26.8452 246 26.5C247.875 26.1548 248.155 25.875 248.5 24C248.845 25.875 249.125 26.1548 251 26.5C249.125 26.8452 248.845 27.125 248.5 29Z" fill="white"/>
        <g style="mix-blend-mode:soft-light">
            <g filter="url(#filter3_f_168_7853)">
                <path d="M320.5 51C319.879 47.625 319.375 47.1213 316 46.5C319.375 45.8787 319.879 45.375 320.5 42C321.121 45.375 321.625 45.8787 325 46.5C321.625 47.1213 321.121 47.625 320.5 51Z" fill="white"/>
            </g>
            <path d="M320.5 49C320.155 47.125 319.875 46.8452 318 46.5C319.875 46.1548 320.155 45.875 320.5 44C320.845 45.875 321.125 46.1548 323 46.5C321.125 46.8452 320.845 47.125 320.5 49Z" fill="white"/>
        </g>
        <g filter="url(#filter4_f_168_7853)">
            <path d="M53.5 203C52.8787 199.625 52.375 199.121 49 198.5C52.375 197.879 52.8787 197.375 53.5 194C54.1213 197.375 54.625 197.879 58 198.5C54.625 199.121 54.1213 199.625 53.5 203Z" fill="white"/>
        </g>
        <path d="M53.5 201C53.1548 199.125 52.875 198.845 51 198.5C52.875 198.155 53.1548 197.875 53.5 196C53.8452 197.875 54.125 198.155 56 198.5C54.125 198.845 53.8452 199.125 53.5 201Z" fill="white"/>
        <g style="mix-blend-mode:soft-light">
            <g filter="url(#filter5_f_168_7853)">
                <path d="M342.5 83C341.879 79.625 341.375 79.1213 338 78.5C341.375 77.8787 341.879 77.375 342.5 74C343.121 77.375 343.625 77.8787 347 78.5C343.625 79.1213 343.121 79.625 342.5 83Z" fill="white"/>
            </g>
            <path d="M342.5 81C342.155 79.125 341.875 78.8452 340 78.5C341.875 78.1548 342.155 77.875 342.5 76C342.845 77.875 343.125 78.1548 345 78.5C343.125 78.8452 342.845 79.125 342.5 81Z" fill="white"/>
        </g>
        <g style="mix-blend-mode:soft-light">
            <g filter="url(#filter6_f_168_7853)">
                <path d="M48.5 79C47.8787 75.625 47.375 75.1213 44 74.5C47.375 73.8787 47.8787 73.375 48.5 70C49.1213 73.375 49.625 73.8787 53 74.5C49.625 75.1213 49.1213 75.625 48.5 79Z" fill="white"/>
            </g>
            <path opacity="0.4" d="M48.5 77C48.1548 75.125 47.875 74.8452 46 74.5C47.875 74.1548 48.1548 73.875 48.5 72C48.8452 73.875 49.125 74.1548 51 74.5C49.125 74.8452 48.8452 75.125 48.5 77Z" fill="white"/>
        </g>
        <g style="mix-blend-mode:soft-light">
            <g filter="url(#filter7_f_168_7853)">
                <path d="M23.5 151C22.8787 147.625 22.375 147.121 19 146.5C22.375 145.879 22.8787 145.375 23.5 142C24.1213 145.375 24.625 145.879 28 146.5C24.625 147.121 24.1213 147.625 23.5 151Z" fill="white"/>
            </g>
            <path d="M23.5 149C23.1548 147.125 22.875 146.845 21 146.5C22.875 146.155 23.1548 145.875 23.5 144C23.8452 145.875 24.125 146.155 26 146.5C24.125 146.845 23.8452 147.125 23.5 149Z" fill="white"/>
        </g>
        <g style="mix-blend-mode:soft-light">
            <g filter="url(#filter8_f_168_7853)">
                <path d="M122.75 33.9952C124.666 28.6061 124.358 27.4593 120.005 23.75C125.394 25.6657 126.541 25.3585 130.25 21.0049C128.334 26.394 128.642 27.5407 132.995 31.25C127.606 29.3344 126.459 29.6416 122.75 33.9952Z" fill="white"/>
            </g>
            <path d="M124.417 31.1085C125.481 28.1146 125.31 27.4775 122.892 25.4168C125.886 26.481 126.523 26.3103 128.583 23.8917C127.519 26.8856 127.69 27.5227 130.108 29.5834C127.115 28.5192 126.477 28.6898 124.417 31.1085Z" fill="white"/>
        </g>
        <g style="mix-blend-mode:soft-light" opacity="0.48">
            <path d="M61.7901 27.3702C61.3026 27.3706 60.8159 27.4003 60.332 27.4589C59.0183 23.1445 55.0721 20.1959 50.5975 20.1867C49.4836 20.1855 48.3776 20.3721 47.325 20.7378C44.7192 15.0547 38.5436 11.9661 32.4814 13.3139C26.4185 14.6621 22.1034 20.0827 22.1078 26.3439C22.1082 27.426 22.2419 28.5037 22.5041 29.5521C16.7281 30.4415 12.6013 35.6627 13.0307 41.5401C13.4593 47.4179 18.2997 51.9739 24.1426 52H61.7901C68.5336 52 74 46.4863 74 39.6849C74 32.8835 68.5336 27.3702 61.7901 27.3702Z" fill="white"/>
        </g>
        <g style="mix-blend-mode:soft-light" opacity="0.48">
            <path d="M162.194 190.843C161.882 190.843 161.571 190.862 161.261 190.898C160.422 188.243 157.899 186.428 155.038 186.423C154.326 186.422 153.618 186.537 152.946 186.762C151.279 183.264 147.331 181.364 143.455 182.193C139.579 183.023 136.82 186.359 136.823 190.212C136.823 190.878 136.909 191.541 137.076 192.186C133.384 192.733 130.745 195.946 131.02 199.563C131.294 203.18 134.388 205.984 138.124 206H162.194C166.505 206 170 202.607 170 198.421C170 194.236 166.505 190.843 162.194 190.843Z" fill="white"/>
        </g>
        <path opacity="0.08" d="M533.256 108.581C530.677 109.093 528.192 110.083 525.873 111.445C519.717 115.048 514.593 120.75 510.906 127.443C507.157 134.25 503.947 142.979 505.62 151.354C501.774 151.029 498.039 152.392 494.963 155.061C493.122 156.657 491.577 158.728 490.493 161.083C490.223 161.677 489.992 162.264 489.798 162.874C489.111 162.454 488.418 162.045 487.715 161.675C482.628 159.01 476.76 158.054 471.785 160.859C469.928 161.909 468.351 163.378 467.172 165.246C460.484 156.156 449.309 152.637 440.029 157.106C439.856 157.191 439.676 157.287 439.495 157.373C439.381 157.173 439.267 156.974 439.155 156.783C438.196 155.08 437.181 153.434 436.098 151.827C431.71 145.332 426.299 139.609 420.198 135.354C414.18 131.161 407.452 128.259 400.557 127.498C393.768 126.738 386.895 127.926 380.744 130.903C374.306 134.022 368.72 139.239 365.119 146.107C361.414 143.834 357.095 143.149 353.101 144.118C350.853 144.662 348.753 145.665 346.867 147.137C346.028 147.785 345.271 148.542 344.568 149.377C343.294 148.948 342.008 148.596 340.702 148.324C335.216 147.212 329.568 147.519 324.181 148.533C318.848 149.529 313.572 151.274 308.814 154.111C300.172 159.254 293.227 168.19 291.483 179.592C291.309 180.73 291.28 181.91 291.064 183.035C290.989 183.427 290.886 183.898 290.715 184.248C290.653 184.372 290.588 184.525 290.478 184.6C290.47 184.601 290.47 184.601 290.463 184.602C289.946 184.629 289.208 184.094 288.713 183.899C288.181 183.682 287.638 183.495 287.097 183.317C285.739 182.873 284.371 182.516 282.99 182.285C277.829 181.423 272.538 182.128 267.787 184.252C258.916 188.229 251.96 198.001 250.51 209.062C246.057 206.739 241.294 205.775 236.492 206.732C231.114 207.802 226.364 211.187 223.07 216.081C222.781 216.507 222.511 216.949 222.256 217.389C218.992 216.078 215.52 215.445 212.146 215.166C201.207 214.263 189.225 216.165 181.452 225.367C178.433 228.946 176.181 233.236 175.192 238.088C167.741 232.933 158.908 230.608 150.484 231.564C141.182 232.624 132.796 237.991 126.886 246.03C124.249 249.604 122.111 253.789 120.859 258.325C117.163 254.751 112.933 252.203 108.153 251.232C105.199 250.63 102.031 250.621 99.0438 251.322C97.4742 247.86 95.4022 244.764 92.8711 242.149C87.9169 237.035 80.9838 234.631 74.652 236.091C71.9218 236.723 69.1039 238.07 66.9456 240.173C66.6909 239.807 66.4442 239.439 66.1752 239.084C65.5012 238.189 64.7825 237.319 64.0461 236.49C62.5762 234.851 61.036 233.28 59.3928 231.877C56.1049 229.063 52.4283 226.814 48.5797 225.313C40.4502 222.154 31.5804 222.367 23.8627 225.976C19.8455 227.859 16.0372 230.58 13.0582 234.2C8.40782 227.795 1.95122 222.45 -5.26431 221.921C-12.0113 221.42 -19.2968 224.884 -22.4006 231.757C-26.3392 227.436 -32.4596 225.678 -37.1503 228.428C-39.803 223.453 -42.5116 218.535 -46.8367 215.196C-49.0801 213.455 -51.6532 212.241 -54.3147 211.989C-55.9604 211.829 -57.5903 212.017 -59.1825 212.388C-59.5587 212.477 -59.9523 212.56 -60.3444 212.652L-41.6894 327.919C7.31436 323.079 56.1687 316.31 104.902 309.494C155.538 302.417 206.068 294.59 256.465 285.988C307.067 277.344 357.542 267.914 407.862 257.675C456.132 247.853 504.309 237.401 552.239 225.928L533.248 108.582L533.256 108.581Z" fill="#E2F0FD"/>
        <path opacity="0.48" d="M9 20C9 13.9249 13.9249 9 20 9H359C365.075 9 370 13.9249 370 20V206C370 212.075 365.075 217 359 217H20C13.9249 217 9 212.075 9 206V20Z" stroke="white" stroke-width="2"/>
    </g>
</svg>
