<svg width="379" height="226" viewBox="0 0 379 226" fill="none"
    xmlns="http://www.w3.org/2000/svg">
    <defs>
        <filter id="filter0_f_168_7719" x="187" y="31" width="19" height="14" filterUnits="userSpaceOnUse" color-interpolation-filters="sRGB">
            <feFlood flood-opacity="0" result="BackgroundImageFix"/>
            <feBlend mode="normal" in="SourceGraphic" in2="BackgroundImageFix" result="shape"/>
            <feGaussianBlur stdDeviation="0.5" result="effect1_foregroundBlur_168_7719"/>
        </filter>
        <linearGradient id="paint0_linear_168_7719" x1="366.663" y1="22.7492" x2="95.8425" y2="277.307" gradientUnits="userSpaceOnUse">
            <stop stop-color="#D8E1FC"/>
            <stop offset="1" stop-color="#C7D7F7"/>
        </linearGradient>
    </defs>
    <path d="M0 12C0 5.37259 5.37258 0 12 0H367C373.627 0 379 5.37258 379 12V214C379 220.627 373.627 226 367 226H12C5.37259 226 0 220.627 0 214V12Z" fill="url(#paint0_linear_168_7719)"/>
    <mask id="mask0_168_7719" style="mask-type:alpha" maskUnits="userSpaceOnUse" x="0" y="0" width="379" height="226">
        <path d="M0 12C0 5.37259 5.37258 0 12 0H367C373.627 0 379 5.37258 379 12V214C379 220.627 373.627 226 367 226H12C5.37259 226 0 220.627 0 214V12Z" fill="#C6E2FF"/>
    </mask>
    <g mask="url(#mask0_168_7719)">
        <path opacity="0.56" d="M375.387 33.8972C374.723 33.8977 374.061 33.9389 373.403 34.02C371.615 28.0462 366.246 23.9636 360.157 23.9508C358.642 23.9492 357.137 24.2076 355.705 24.7139C352.159 16.8449 343.756 12.5684 335.508 14.4346C327.258 16.3014 321.387 23.8069 321.393 32.4761C321.393 33.9744 321.575 35.4666 321.932 36.9183C314.073 38.1498 308.457 45.3791 309.042 53.517C309.625 61.6555 316.211 67.9639 324.161 68H375.387C384.562 68 392 60.3656 392 50.9483C392 41.531 384.562 33.8972 375.387 33.8972Z" fill="white"/>
        <path opacity="0.64" d="M382 163.826C379.406 163.894 376.828 164.32 374.352 165.034C367.784 166.922 361.889 170.451 357.24 174.866C352.512 179.356 348.006 185.302 348.316 191.563C344.619 190.877 340.763 191.426 337.344 192.998C335.297 193.939 333.465 195.257 332.037 196.836C331.68 197.235 331.362 197.633 331.077 198.052C330.474 197.667 329.863 197.289 329.236 196.939C324.698 194.413 319.129 193.033 313.838 194.481C311.862 195.024 310.093 195.903 308.649 197.118C303.564 189.751 293.227 185.892 283.477 188.041C283.295 188.083 283.104 188.131 282.914 188.172C282.835 188.014 282.755 187.856 282.676 187.705C282.01 186.359 281.28 185.048 280.479 183.757C277.226 178.539 272.855 173.761 267.579 169.964C262.375 166.222 256.274 163.331 249.674 161.972C243.176 160.626 236.29 160.681 229.825 162.116C223.058 163.62 216.791 166.744 212.197 171.296C208.945 169.215 204.843 168.213 200.797 168.446C198.52 168.577 196.315 169.057 194.244 169.902C193.324 170.273 192.467 170.733 191.65 171.255C190.476 170.794 189.278 170.389 188.048 170.039C182.876 168.591 177.323 168.151 171.912 168.254C166.557 168.35 161.139 168.996 156.054 170.492C146.819 173.204 138.64 178.862 135.142 186.915C134.793 187.719 134.578 188.57 134.19 189.36C134.055 189.634 133.88 189.964 133.658 190.197C133.579 190.28 133.492 190.383 133.373 190.424C133.365 190.424 133.365 190.424 133.357 190.424C132.849 190.383 132.214 189.909 131.762 189.71C131.278 189.49 130.778 189.291 130.279 189.099C129.025 188.618 127.748 188.199 126.439 187.87C121.544 186.641 116.277 186.531 111.31 187.513C102.036 189.353 93.7144 195.614 90.557 203.455C86.5825 201.251 82.0923 199.995 77.2609 200.125C71.8505 200.269 66.6859 202.164 62.7035 205.322C62.3544 205.597 62.0212 205.885 61.7039 206.174C58.7289 204.842 55.4445 203.977 52.1998 203.379C41.6804 201.443 29.7012 201.416 20.6732 207.169C17.1667 209.408 14.2949 212.25 12.5654 215.649C6.11574 211.042 -2.12689 208.323 -10.4885 208.028C-19.7228 207.705 -28.7429 210.609 -35.7717 215.738C-38.9053 218.017 -41.6502 220.798 -43.5859 223.936C-46.6244 220.915 -50.345 218.573 -54.8511 217.31C-57.6357 216.527 -60.7217 216.15 -63.7443 216.308C-64.728 213.616 -66.2591 211.131 -68.3138 208.941C-72.3359 204.656 -78.7142 202.102 -85.1164 202.418C-87.8771 202.556 -90.8362 203.201 -93.2717 204.471C-93.4621 204.176 -93.6446 203.881 -93.8509 203.592C-94.3665 202.865 -94.9298 202.15 -95.5168 201.464C-96.691 200.104 -97.9444 198.786 -99.3248 197.578C-102.086 195.154 -105.314 193.095 -108.829 191.557C-116.254 188.316 -124.933 187.43 -133.025 189.14C-137.238 190.032 -141.379 191.557 -144.854 193.829C-148.376 188.645 -153.826 184.018 -160.776 182.789C-167.273 181.636 -174.921 183.29 -179.03 187.904C-182.187 184.313 -187.875 182.322 -192.881 183.764C-194.682 179.85 -196.546 175.971 -200.235 173.046C-202.147 171.522 -204.464 170.341 -207.018 169.847C-208.597 169.538 -210.215 169.483 -211.826 169.566C-212.207 169.586 -212.603 169.6 -213 169.62V255.285C-164.472 257.523 -115.786 258.347 -67.2111 259.123C-16.7399 259.933 33.7472 260.187 84.2263 259.864C134.912 259.535 185.597 258.621 236.259 257.104C284.858 255.649 333.464 253.726 381.992 251.035V163.826H382Z" fill="#E2F0FD"/>
        <path d="M105.793 13.9486C105.466 13.9489 105.139 13.9694 104.813 14.01C103.93 11.0231 101.278 8.9818 98.2704 8.97541C97.5217 8.97458 96.7784 9.10379 96.0709 9.35694C94.3194 5.42247 90.1686 3.2842 86.0941 4.21731C82.019 5.1507 79.1187 8.90344 79.1216 13.2381C79.1219 13.9872 79.2118 14.7333 79.388 15.4591C75.5058 16.0749 72.732 19.6895 73.0206 23.7585C73.3087 27.8277 76.5621 30.9819 80.4893 31H105.793C110.326 31 114 27.1828 114 22.4742C114 17.7655 110.326 13.9486 105.793 13.9486Z" fill="white"/>
        <g filter="url(#filter0_f_168_7719)">
            <path d="M201.597 36.4216C201.461 36.4217 201.326 36.4309 201.191 36.4489C200.825 35.1214 199.725 34.2141 198.478 34.2113C198.168 34.2109 197.859 34.2684 197.566 34.3809C196.84 32.6322 195.119 31.6819 193.429 32.0966C191.74 32.5114 190.537 34.1793 190.538 36.1058C190.538 36.4388 190.576 36.7704 190.649 37.0929C189.039 37.3666 187.889 38.9731 188.009 40.7816C188.128 42.5901 189.477 43.992 191.105 44H201.597C203.477 44 205 42.3035 205 40.2107C205 38.118 203.477 36.4216 201.597 36.4216Z" fill="white"/>
        </g>
        <path d="M30.3882 58.6864C29.8048 58.6869 29.2223 58.7234 28.6432 58.7956C27.0711 53.4855 22.3486 49.8565 16.9937 49.8452C15.6607 49.8437 14.3372 50.0734 13.0775 50.5234C9.959 43.5288 2.56856 39.7275 -4.68614 41.3863C-11.9418 43.0457 -17.1058 49.7172 -17.1005 57.4232C-17.1001 58.755 -16.94 60.0814 -16.6262 61.3718C-23.5385 62.4665 -28.4772 68.8925 -27.9633 76.1262C-27.4504 83.3604 -21.6578 88.9679 -14.6655 89H30.3882C38.4582 89 45 82.2139 45 73.8429C45 65.472 38.4582 58.6864 30.3882 58.6864Z" fill="white"/>
        <path opacity="0.48" d="M9 20C9 13.9249 13.9249 9 20 9H359C365.075 9 370 13.9249 370 20V206C370 212.075 365.075 217 359 217H20C13.9249 217 9 212.075 9 206V20Z" stroke="white" stroke-width="2"/>
    </g>
</svg>
