<svg width="379" height="226" viewBox="0 0 379 226" fill="none"
    xmlns="http://www.w3.org/2000/svg">
    <defs>
        <linearGradient id="paint0_linear_168_7676" x1="366.663" y1="22.7492" x2="95.8425" y2="277.307" gradientUnits="userSpaceOnUse">
            <stop stop-color="#A9C1F4"/>
            <stop offset="1" stop-color="#C9CCEF"/>
        </linearGradient>
    </defs>
    <path d="M0 12C0 5.37259 5.37258 0 12 0H367C373.627 0 379 5.37258 379 12V214C379 220.627 373.627 226 367 226H12C5.37259 226 0 220.627 0 214V12Z" fill="url(#paint0_linear_168_7676)"/>
    <mask id="mask0_168_7676" style="mask-type:alpha" maskUnits="userSpaceOnUse" x="0" y="0" width="379" height="226">
        <path d="M0 12C0 5.37259 5.37258 0 12 0H367C373.627 0 379 5.37258 379 12V214C379 220.627 373.627 226 367 226H12C5.37259 226 0 220.627 0 214V12Z" fill="#C6E2FF"/>
    </mask>
    <g mask="url(#mask0_168_7676)">
        <path opacity="0.56" d="M378.789 29.844C378.262 29.8445 377.735 29.8772 377.212 29.9419C375.79 25.1849 371.521 21.934 366.679 21.9238C365.474 21.9225 364.277 22.1283 363.139 22.5314C360.319 16.2654 353.637 12.86 347.078 14.3461C340.518 15.8326 335.85 21.8092 335.854 28.7125C335.855 29.9056 335.999 31.0938 336.283 32.2497C330.034 33.2304 325.569 38.987 326.033 45.4673C326.497 51.9479 331.734 56.9712 338.056 57H378.789C386.086 57 392 50.9207 392 43.4218C392 35.9229 386.086 29.844 378.789 29.844Z" fill="white"/>
        <path opacity="0.42" d="M446 166.483C444.029 166.544 442.071 166.918 440.19 167.545C435.2 169.204 430.723 172.306 427.191 176.185C423.599 180.131 420.176 185.356 420.411 190.859C417.603 190.255 414.674 190.738 412.076 192.12C410.522 192.946 409.129 194.105 408.045 195.493C407.773 195.843 407.532 196.192 407.315 196.56C406.857 196.223 406.393 195.891 405.917 195.583C402.47 193.363 398.239 192.15 394.22 193.423C392.719 193.9 391.375 194.672 390.278 195.74C386.415 189.266 378.562 185.875 371.156 187.764C371.017 187.8 370.873 187.842 370.728 187.878C370.668 187.739 370.607 187.601 370.547 187.468C370.041 186.285 369.486 185.133 368.878 183.999C366.407 179.413 363.086 175.214 359.079 171.877C355.125 168.589 350.491 166.049 345.477 164.854C340.541 163.672 335.31 163.72 330.398 164.981C325.257 166.302 320.496 169.047 317.007 173.048C314.536 171.22 311.42 170.339 308.347 170.544C306.617 170.658 304.942 171.081 303.369 171.823C302.67 172.149 302.019 172.553 301.398 173.012C300.506 172.607 299.596 172.251 298.662 171.944C294.733 170.671 290.514 170.284 286.404 170.375C282.336 170.459 278.22 171.026 274.357 172.342C267.342 174.725 261.128 179.697 258.471 186.774C258.206 187.48 258.043 188.228 257.748 188.922C257.645 189.163 257.512 189.453 257.344 189.658C257.283 189.731 257.217 189.821 257.127 189.857C257.121 189.857 257.121 189.857 257.115 189.857C256.729 189.821 256.247 189.405 255.903 189.23C255.536 189.037 255.156 188.862 254.776 188.693C253.824 188.27 252.854 187.902 251.86 187.613C248.141 186.533 244.139 186.436 240.367 187.299C233.322 188.916 227 194.419 224.601 201.309C221.582 199.372 218.171 198.268 214.501 198.383C210.391 198.509 206.467 200.175 203.442 202.95C203.177 203.191 202.924 203.445 202.683 203.698C200.423 202.528 197.928 201.767 195.463 201.243C187.471 199.541 178.371 199.517 171.513 204.573C168.849 206.54 166.668 209.038 165.354 212.024C160.454 207.976 154.193 205.587 147.841 205.327C140.826 205.044 133.973 207.596 128.634 212.103C126.253 214.106 124.168 216.55 122.698 219.307C120.39 216.652 117.563 214.595 114.14 213.485C112.025 212.797 109.68 212.465 107.384 212.604C106.637 210.239 105.474 208.054 103.913 206.13C100.857 202.365 96.012 200.12 91.1486 200.398C89.0513 200.519 86.8034 201.086 84.9532 202.202C84.8086 201.942 84.67 201.683 84.5133 201.43C84.1216 200.79 83.6937 200.163 83.2477 199.559C82.3558 198.365 81.4036 197.206 80.355 196.144C78.2577 194.014 75.8049 192.204 73.1351 190.853C67.4942 188.005 60.9011 187.227 54.754 188.729C51.5539 189.513 48.408 190.853 45.7684 192.85C43.0926 188.295 38.9523 184.228 33.673 183.148C28.7372 182.134 22.9276 183.588 19.8058 187.643C17.4073 184.487 13.0862 182.738 9.28342 184.005C7.91539 180.566 6.49914 177.157 3.69678 174.586C2.24437 173.247 0.484607 172.209 -1.45595 171.775C-2.65524 171.503 -3.88467 171.455 -5.10807 171.527C-5.39734 171.545 -5.69867 171.557 -6 171.576V246.856C30.8646 248.823 67.8498 249.547 104.751 250.229C143.092 250.941 181.445 251.164 219.792 250.881C258.296 250.591 296.8 249.789 335.286 248.455C372.204 247.176 409.129 245.487 445.994 243.121V166.483H446Z" fill="#E2F0FD"/>
        <path d="M30.7893 26.844C30.2619 26.8445 29.7353 26.8772 29.2117 26.9419C27.7903 22.1849 23.5207 18.934 18.6792 18.9238C17.474 18.9225 16.2774 19.1283 15.1385 19.5314C12.3191 13.2654 5.63733 9.86002 -0.921717 11.3461C-7.48163 12.8326 -12.1504 18.8092 -12.1457 25.7125C-12.1453 26.9056 -12.0006 28.0938 -11.7168 29.2497C-17.9663 30.2304 -22.4314 35.987 -21.9668 42.4673C-21.5031 48.9479 -16.2659 53.9712 -9.94413 54H30.7893C38.0855 54 44 47.9207 44 40.4218C44 32.9229 38.0855 26.844 30.7893 26.844Z" fill="white"/>
        <path opacity="0.48" d="M9 20C9 13.9249 13.9249 9 20 9H359C365.075 9 370 13.9249 370 20V206C370 212.075 365.075 217 359 217H20C13.9249 217 9 212.075 9 206V20Z" stroke="white" stroke-width="2"/>
    </g>
</svg>
