<svg width="379" height="226" viewBox="0 0 379 226" fill="none"
    xmlns="http://www.w3.org/2000/svg">
    <defs>
        <linearGradient id="paint0_linear_168_7804" x1="366.663" y1="22.7492" x2="95.8425" y2="277.307" gradientUnits="userSpaceOnUse">
            <stop stop-color="#EB902D"/>
            <stop offset="1" stop-color="#E8C190"/>
        </linearGradient>
    </defs>
    <path d="M0 12C0 5.37259 5.37258 0 12 0H367C373.627 0 379 5.37258 379 12V214C379 220.627 373.627 226 367 226H12C5.37259 226 0 220.627 0 214V12Z" fill="url(#paint0_linear_168_7804)"/>
    <mask id="mask0_168_7804" style="mask-type:alpha" maskUnits="userSpaceOnUse" x="0" y="0" width="379" height="226">
        <path d="M0 12C0 5.37259 5.37258 0 12 0H367C373.627 0 379 5.37258 379 12V214C379 220.627 373.627 226 367 226H12C5.37259 226 0 220.627 0 214V12Z" fill="#C6E2FF"/>
    </mask>
    <g mask="url(#mask0_168_7804)">
        <g style="mix-blend-mode:soft-light" opacity="0.48">
            <path d="M333.82 38.8458C334.811 38.8466 335.8 38.9083 336.784 39.03C339.455 30.0693 347.476 23.9454 356.572 23.9262C358.837 23.9237 361.085 24.3114 363.225 25.0708C368.522 13.2674 381.075 6.8526 393.398 9.65194C405.723 12.4521 414.495 23.7103 414.486 36.7142C414.485 38.9616 414.213 41.1999 413.68 43.3774C425.422 45.2247 433.811 56.0686 432.938 68.2755C432.066 80.4832 422.227 89.9458 410.35 90H333.82C320.112 90 309 78.5484 309 64.4225C309 50.2966 320.112 38.8458 333.82 38.8458Z" fill="white"/>
        </g>
        <g style="mix-blend-mode:soft-light" opacity="0.48">
            <path d="M26.996 74.8955C26.7962 74.8956 26.5967 74.9078 26.3984 74.9319C25.86 73.1618 24.2427 71.9522 22.4088 71.9484C21.9523 71.9479 21.499 72.0245 21.0676 72.1745C19.9997 69.8429 17.4687 68.5758 14.9842 69.1288C12.4994 69.6819 10.7309 71.9057 10.7327 74.4744C10.7329 74.9183 10.7877 75.3605 10.8951 75.7906C8.52792 76.1555 6.83658 78.2975 7.01257 80.7087C7.18822 83.1201 9.172 84.9893 11.5666 85H26.996C29.7597 85 32 82.738 32 79.9476C32 77.1573 29.7597 74.8955 26.996 74.8955Z" fill="white"/>
        </g>
        <g style="mix-blend-mode:soft-light" opacity="0.48">
            <path d="M165.194 164.843C164.882 164.843 164.571 164.862 164.261 164.898C163.422 162.243 160.899 160.428 158.038 160.423C157.326 160.422 156.618 160.537 155.946 160.762C154.279 157.264 150.331 155.364 146.455 156.193C142.579 157.023 139.82 160.359 139.823 164.212C139.823 164.878 139.909 165.541 140.076 166.186C136.384 166.733 133.745 169.946 134.02 173.563C134.294 177.18 137.388 179.984 141.124 180H165.194C169.505 180 173 176.607 173 172.421C173 168.236 169.505 164.843 165.194 164.843Z" fill="white"/>
        </g>
        <path opacity="0.2" d="M522.475 130.915C519.804 131.013 517.151 131.605 514.604 132.597C507.845 135.219 501.783 140.114 497.003 146.235C492.143 152.461 487.512 160.703 487.84 169.377C484.033 168.43 480.065 169.195 476.548 171.376C474.442 172.682 472.558 174.51 471.09 176.699C470.723 177.251 470.397 177.803 470.103 178.384C469.482 177.852 468.853 177.329 468.207 176.845C463.533 173.349 457.798 171.443 452.353 173.455C450.321 174.209 448.501 175.428 447.016 177.113C441.772 166.912 431.126 161.577 421.093 164.564C420.905 164.622 420.709 164.688 420.513 164.746C420.431 164.527 420.349 164.308 420.267 164.099C419.58 162.235 418.826 160.419 418 158.632C414.645 151.406 410.138 144.791 404.703 139.536C399.34 134.358 393.057 130.359 386.26 128.483C379.57 126.625 372.482 126.708 365.829 128.703C358.865 130.793 352.418 135.127 347.696 141.438C344.345 138.56 340.122 137.175 335.958 137.503C333.614 137.686 331.345 138.354 329.214 139.526C328.268 140.041 327.386 140.679 326.546 141.403C325.337 140.766 324.103 140.206 322.837 139.723C317.51 137.721 311.794 137.118 306.224 137.266C300.712 137.405 295.136 138.305 289.903 140.383C280.402 144.15 271.99 151.996 268.4 163.157C268.042 164.27 267.823 165.45 267.423 166.544C267.285 166.925 267.106 167.382 266.878 167.705C266.796 167.82 266.706 167.962 266.584 168.019C266.576 168.019 266.576 168.019 266.567 168.02C266.045 167.963 265.391 167.307 264.925 167.032C264.427 166.728 263.912 166.453 263.397 166.187C262.106 165.522 260.791 164.943 259.443 164.488C254.403 162.791 248.98 162.644 243.87 164.009C234.326 166.568 225.768 175.251 222.529 186.117C218.435 183.068 213.811 181.332 208.838 181.517C203.269 181.723 197.955 184.353 193.86 188.733C193.501 189.114 193.159 189.514 192.832 189.913C189.768 188.071 186.386 186.876 183.046 186.052C172.215 183.38 159.884 183.355 150.598 191.335C146.992 194.439 144.04 198.38 142.264 203.09C135.619 196.714 127.13 192.956 118.523 192.556C109.017 192.118 99.7361 196.151 92.508 203.264C89.2855 206.425 86.4639 210.28 84.4757 214.629C81.3439 210.447 77.5107 207.207 72.8706 205.462C70.0032 204.38 66.826 203.86 63.7149 204.082C62.6986 200.354 61.1191 196.913 59.001 193.88C54.8548 187.949 48.2857 184.417 41.696 184.862C38.8544 185.055 35.8093 185.952 33.304 187.714C33.1076 187.305 32.9194 186.896 32.7067 186.497C32.1749 185.489 31.5941 184.501 30.9888 183.55C29.7784 181.668 28.4863 179.843 27.0637 178.17C24.2185 174.816 20.892 171.965 17.2723 169.838C9.62426 165.356 0.689256 164.138 -7.63787 166.515C-11.9729 167.756 -16.2335 169.872 -19.8071 173.024C-23.4401 165.846 -29.0567 159.441 -36.2119 157.745C-42.9016 156.154 -50.7715 158.454 -54.9952 164.85C-58.2503 159.879 -64.1082 157.126 -69.2591 159.129C-71.1182 153.709 -73.0426 148.337 -76.8439 144.288C-78.8141 142.179 -81.2003 140.545 -83.8305 139.863C-85.4559 139.437 -87.1219 139.362 -88.7795 139.478C-89.1715 139.507 -89.5798 139.526 -89.9881 139.555L-89.8694 258.234C-39.9138 261.285 10.2031 262.376 60.2056 263.401C112.16 264.472 164.13 264.772 216.091 264.273C268.264 263.764 320.436 262.447 372.583 260.292C422.607 258.226 472.639 255.512 522.587 251.734L522.467 130.915L522.475 130.915Z" fill="#E2F0FD"/>
        <path d="M33.5892 20.2125C33.0537 20.213 32.5191 20.2465 31.9876 20.3126C30.5447 15.445 26.2104 12.1185 21.2956 12.1081C20.0721 12.1067 18.8574 12.3173 17.7012 12.7298C14.8391 6.31809 8.05608 2.83351 1.39765 4.35414C-5.26165 5.87522 -10.0012 11.9908 -9.99638 19.0546C-9.99594 20.2755 -9.84908 21.4913 -9.56102 22.6741C-15.9052 23.6776 -20.438 29.5681 -19.9663 36.199C-19.4956 42.8304 -14.179 47.9706 -7.76146 48H33.5892C40.9959 48 47 41.7794 47 34.106C47 26.4327 40.9959 20.2125 33.5892 20.2125Z" fill="white"/>
        <path opacity="0.48" d="M9 20C9 13.9249 13.9249 9 20 9H359C365.075 9 370 13.9249 370 20V206C370 212.075 365.075 217 359 217H20C13.9249 217 9 212.075 9 206V20Z" stroke="white" stroke-width="2"/>
    </g>
</svg>
