<svg width="379" height="226" viewBox="0 0 379 226" fill="none"
    xmlns="http://www.w3.org/2000/svg">
    <defs>
        <filter id="filter0_f_168_7752" x="15" y="64" width="19" height="14" filterUnits="userSpaceOnUse" color-interpolation-filters="sRGB">
            <feFlood flood-opacity="0" result="BackgroundImageFix"/>
            <feBlend mode="normal" in="SourceGraphic" in2="BackgroundImageFix" result="shape"/>
            <feGaussianBlur stdDeviation="0.5" result="effect1_foregroundBlur_168_7752"/>
        </filter>
        <linearGradient id="paint0_linear_168_7752" x1="366.663" y1="22.7492" x2="95.8425" y2="277.307" gradientUnits="userSpaceOnUse">
            <stop stop-color="#318BC5"/>
            <stop offset="1" stop-color="#B2E1F7"/>
        </linearGradient>
    </defs>
    <path d="M0 12C0 5.37259 5.37258 0 12 0H367C373.627 0 379 5.37258 379 12V214C379 220.627 373.627 226 367 226H12C5.37259 226 0 220.627 0 214V12Z" fill="url(#paint0_linear_168_7752)"/>
    <mask id="mask0_168_7752" style="mask-type:alpha" maskUnits="userSpaceOnUse" x="0" y="0" width="379" height="226">
        <path d="M0 12C0 5.37259 5.37258 0 12 0H367C373.627 0 379 5.37258 379 12V214C379 220.627 373.627 226 367 226H12C5.37259 226 0 220.627 0 214V12Z" fill="#C6E2FF"/>
    </mask>
    <g mask="url(#mask0_168_7752)">
        <path d="M407.185 38.4764C406.434 38.4771 405.684 38.5235 404.938 38.6152C402.913 31.867 396.832 27.2552 389.937 27.2407C388.221 27.2389 386.516 27.5308 384.894 28.1027C380.879 19.2137 371.362 14.3828 362.021 16.491C352.678 18.5997 346.028 27.0781 346.035 36.8712C346.036 38.5637 346.242 40.2493 346.646 41.8892C337.745 43.2804 331.386 51.4467 332.047 60.6396C332.708 69.8331 340.167 76.9592 349.17 77H407.185C417.576 77 426 68.3759 426 57.7379C426 47.0999 417.576 38.4764 407.185 38.4764Z" fill="white"/>
        <path opacity="0.2" d="M661.904 85.0974C658.437 85.4955 655.042 86.5359 651.826 88.0855C643.29 92.1857 635.891 99.1748 630.288 107.63C624.59 116.23 619.396 127.432 620.701 138.694C615.648 137.847 610.559 139.245 606.199 142.443C603.59 144.356 601.321 146.927 599.632 149.927C599.21 150.683 598.841 151.435 598.518 152.221C597.655 151.591 596.783 150.974 595.893 150.409C589.451 146.33 581.79 144.43 574.904 147.602C572.334 148.789 570.087 150.562 568.325 152.906C560.461 140.154 546.057 134.286 533.295 139.193C533.056 139.287 532.808 139.394 532.558 139.488C532.43 139.212 532.301 138.935 532.173 138.671C531.088 136.314 529.924 134.025 528.666 131.782C523.564 122.713 517.025 114.554 509.414 108.263C501.907 102.063 493.319 97.4932 484.278 95.7385C475.378 93.9976 466.157 94.8245 457.695 98.0964C448.838 101.524 440.882 107.822 435.373 116.519C430.718 113.11 425.078 111.735 419.688 112.584C416.655 113.059 413.767 114.16 411.112 115.902C409.931 116.668 408.848 117.588 407.827 118.616C406.188 117.91 404.525 117.306 402.827 116.804C395.688 114.738 388.182 114.532 380.945 115.289C373.781 116.029 366.611 117.766 360.008 121.003C348.016 126.871 337.858 137.941 334.315 152.839C333.961 154.325 333.795 155.884 333.386 157.349C333.244 157.859 333.057 158.472 332.793 158.916C332.698 159.073 332.596 159.268 332.442 159.355C332.432 159.356 332.432 159.356 332.421 159.357C331.735 159.336 330.817 158.549 330.182 158.237C329.502 157.892 328.804 157.586 328.107 157.292C326.358 156.557 324.587 155.937 322.786 155.48C316.05 153.781 308.974 154.139 302.457 156.435C290.289 160.735 280.025 172.91 276.908 187.388C271.268 183.832 265.071 182.04 258.614 182.786C251.382 183.618 244.729 187.582 239.841 193.7C239.412 194.232 239.006 194.788 238.622 195.342C234.445 193.253 229.92 192.04 225.486 191.305C211.111 188.924 195.051 190.141 183.769 201.474C179.387 205.882 175.942 211.313 174.108 217.627C164.808 209.998 153.373 205.964 142.123 206.315C129.701 206.709 118.024 212.902 109.332 222.896C105.456 227.339 102.173 232.646 100.024 238.51C95.5222 233.382 90.2023 229.552 83.9829 227.749C80.1393 226.631 75.9492 226.276 71.9205 226.881C70.2191 222.13 67.8134 217.808 64.7479 214.074C58.7474 206.771 49.835 202.837 41.2989 204.084C37.6181 204.623 33.7437 206.1 30.66 208.649C30.3628 208.136 30.0762 207.623 29.7587 207.125C28.9641 205.866 28.1075 204.638 27.223 203.461C25.4559 201.133 23.5884 198.888 21.5663 196.854C17.5212 192.773 12.9005 189.399 7.97124 186.996C-2.4424 181.935 -14.2011 181.255 -24.8038 185.194C-30.3231 187.249 -35.6569 190.436 -39.991 194.903C-45.4494 185.924 -53.4127 178.153 -62.9022 176.67C-71.7749 175.276 -81.79 179.069 -86.6417 187.826C-91.3845 181.683 -99.2917 178.692 -105.796 181.822C-108.767 174.953 -111.817 168.152 -117.178 163.266C-119.957 160.718 -123.23 158.833 -126.724 158.211C-128.884 157.82 -131.061 157.892 -133.208 158.211C-133.715 158.289 -134.245 158.355 -134.774 158.434L-122.589 312.967C-57.227 311.876 8.14622 308.217 73.3638 304.482C141.128 300.61 208.834 295.732 276.447 289.815C344.336 283.864 412.141 276.86 479.829 268.768C544.761 261.006 609.638 252.401 674.298 242.418L661.894 85.0983L661.904 85.0974Z" fill="#E2F0FD"/>
        <g filter="url(#filter0_f_168_7752)">
            <path d="M29.5972 69.4216C29.4614 69.4217 29.3257 69.4309 29.1909 69.4489C28.8248 68.1214 27.725 67.2141 26.478 67.2113C26.1676 67.2109 25.8593 67.2684 25.566 67.3809C24.8398 65.6322 23.1187 64.6819 21.4293 65.0966C19.7396 65.5114 18.537 67.1793 18.5382 69.1058C18.5383 69.4388 18.5756 69.7704 18.6487 70.0929C17.039 70.3666 15.8889 71.9731 16.0085 73.7816C16.128 75.5901 17.477 76.992 19.1053 77H29.5972C31.4766 77 33 75.3035 33 73.2107C33 71.118 31.4766 69.4216 29.5972 69.4216Z" fill="white"/>
        </g>
        <path d="M31.3882 28.6864C30.8048 28.6869 30.2223 28.7234 29.6432 28.7956C28.0711 23.4855 23.3486 19.8565 17.9937 19.8452C16.6607 19.8437 15.3372 20.0734 14.0775 20.5234C10.959 13.5288 3.56856 9.72746 -3.68614 11.3863C-10.9418 13.0457 -16.1058 19.7172 -16.1005 27.4232C-16.1001 28.755 -15.94 30.0814 -15.6262 31.3718C-22.5385 32.4665 -27.4772 38.8925 -26.9633 46.1262C-26.4504 53.3604 -20.6578 58.9679 -13.6655 59H31.3882C39.4582 59 46 52.2139 46 43.8429C46 35.472 39.4582 28.6864 31.3882 28.6864Z" fill="white"/>
        <path opacity="0.48" d="M9 20C9 13.9249 13.9249 9 20 9H359C365.075 9 370 13.9249 370 20V206C370 212.075 365.075 217 359 217H20C13.9249 217 9 212.075 9 206V20Z" stroke="white" stroke-width="2"/>
    </g>
</svg>
