<svg width="156" height="156" viewBox="0 0 156 156" fill="none" xmlns="http://www.w3.org/2000/svg">
<circle cx="79.1642" cy="81.4927" r="71.0149" fill="white"/>
<path d="M131.691 112.184V107.637C136.713 107.637 140.784 103.566 140.784 98.5439V87.1771H131.691V82.6304H143.058C144.313 82.6304 145.331 83.6483 145.331 84.9037V98.5439C145.324 106.074 139.221 112.176 131.691 112.184Z" fill="#D87F1C"/>
<path d="M15.7494 50.8022H56.67V130.37H15.7494V50.8022Z" fill="#E6E6E6"/>
<path d="M56.6699 50.8022H70.3101V130.37H56.6699V50.8022Z" fill="#29ABE2"/>
<path d="M56.6699 50.803L63.49 34.8894L70.3101 50.803H56.6699Z" fill="#0071BC"/>
<path d="M63.4901 34.8894H22.5695L15.7494 50.803H56.67L63.4901 34.8894Z" fill="#CCCCCC"/>
<path d="M22.5693 23.5225H63.4899V34.8893H22.5693V23.5225Z" fill="#29ABE2"/>
<path d="M36.2096 80.3568C39.9763 80.3568 43.0297 77.3033 43.0297 73.5367C43.0297 69.77 39.9763 66.7166 36.2096 66.7166C32.443 66.7166 29.3895 69.77 29.3895 73.5367C29.3895 77.3033 32.443 80.3568 36.2096 80.3568Z" fill="#29ABE2"/>
<path d="M27.116 87.1772H45.303V91.724H27.116V87.1772Z" fill="#0071BC"/>
<path d="M27.1161 96.2712H45.303V100.818H27.1161V96.2712Z" fill="#0071BC"/>
<path d="M30.1829 119.729L15.0672 130.53C13.3042 131.784 12.5663 134.042 13.2485 136.095C13.9192 138.108 15.8032 139.466 17.9249 139.465H37.1189L30.1829 119.729Z" fill="#C69C6D"/>
<path d="M47.3082 111.217L32.388 115.48C29.9175 116.186 28.4025 118.67 28.9052 121.19L32.5722 139.464H55.0649L47.3082 111.217Z" fill="#A67C52"/>
<path d="M88.4971 139.464H48.2335L44.6825 113.225C44.317 110.529 46.2065 108.047 48.9027 107.682C49.1224 107.652 49.344 107.637 49.5657 107.637H88.4971V139.464Z" fill="#8C6239"/>
<path d="M119.821 48.3338C122.393 51.8234 121.649 56.7373 118.159 59.3092L110.036 65.2968C107.044 67.5013 106.407 71.7132 108.611 74.7043L105.001 77.3654C101.334 72.3785 102.396 65.3644 107.374 61.6862L115.498 55.6987C116.994 54.5965 117.313 52.4904 116.21 50.9949L119.821 48.3338Z" fill="#B3B3B3"/>
<path d="M112.379 36.0899C115.254 39.9901 114.422 45.4821 110.522 48.3567L101.442 55.0486C98.0994 57.5126 97.3868 62.2199 99.8508 65.563L95.8154 68.5372C91.7175 62.9636 92.9043 55.1242 98.4683 51.0133L107.548 44.3213C109.219 43.0894 109.576 40.7355 108.344 39.0641L112.379 36.0899Z" fill="#B3B3B3"/>
<path d="M111.192 132.644H99.8639C87.2928 132.631 77.1053 122.443 77.0916 109.872V84.9037C77.0916 83.6483 78.1095 82.6304 79.365 82.6304H131.691C132.947 82.6304 133.964 83.6483 133.964 84.9037V109.872C133.951 122.443 123.763 132.631 111.192 132.644Z" fill="#F3962F"/>
<path d="M104.372 123.55H102.099C93.3146 123.539 86.1964 116.421 86.1851 107.637V105.364H90.7318V107.637C90.7392 113.911 95.8241 118.996 102.099 119.004H104.372V123.55Z" fill="#FBB03B"/>
<path d="M86.1851 96.2698H90.7318V100.817H86.1851V96.2698Z" fill="#FBB03B"/>
<path d="M129.418 139.464H83.9502L79.4035 130.37H133.964L129.418 139.464Z" fill="#F3962F"/>
<path d="M68.0368 128.097H145.331V132.643H68.0368V128.097Z" fill="#D87F1C"/>
<path d="M104.654 7.02143C106.155 6.77715 107.629 7.82317 108.367 9.15308C109.106 10.483 109.27 12.0452 109.419 13.559C110.024 10.2127 113.49 7.65277 116.866 8.05791C120.242 8.46306 123.003 11.7701 122.799 15.1645C122.435 21.2228 112.171 27.5456 106.581 24.6219C102.331 22.3993 98.1472 8.08001 104.654 7.02143Z" fill="#FF9CC9"/>
<path d="M16.2049 36.3009C15.3957 34.9292 13.0058 34.6361 11.6745 35.188C10.0383 35.8663 9.04922 37.9065 9.69208 39.5568C9.20287 38.3009 6.87161 37.9816 5.78638 38.2496C2.23533 39.1267 1.48963 42.5594 3.22604 44.6154C4.2701 45.8517 5.96204 46.2888 7.54966 46.6014C8.98786 46.8846 10.4352 47.1212 11.8888 47.3105C13.5942 47.5327 14.1955 47.2302 14.9467 45.5061C15.556 44.1078 16.1692 42.6976 16.485 41.2053C16.7697 39.8602 16.9498 37.6425 16.2049 36.3009Z" fill="#2086FE"/>
<path d="M138.838 109.983C139.499 108.534 141.845 107.992 143.227 108.401C144.925 108.904 146.123 110.829 145.657 112.537C146.012 111.237 148.297 110.675 149.404 110.827C153.027 111.326 154.13 114.662 152.619 116.889C151.71 118.228 150.074 118.84 148.528 119.318C147.127 119.751 145.713 120.138 144.287 120.479C142.614 120.879 141.985 120.641 141.056 119.006C140.304 117.679 139.546 116.341 139.075 114.89C138.651 113.582 138.238 111.396 138.838 109.983Z" fill="#83E290"/>
</svg>
