<svg width="384" height="303" viewBox="0 0 384 303" fill="none" xmlns="http://www.w3.org/2000/svg">
<path d="M0 12C0 5.37258 5.37258 0 12 0H372C378.627 0 384 5.37258 384 12V291C384 297.627 378.627 303 372 303H12C5.37258 303 0 297.627 0 291V12Z" fill="url(#paint0_linear_1343_2)"/>
<mask id="mask0_1343_2" style="mask-type:alpha" maskUnits="userSpaceOnUse" x="0" y="0" width="384" height="303">
<path d="M0 12C0 5.37258 5.37258 0 12 0H372C378.627 0 384 5.37258 384 12V291C384 297.627 378.627 303 372 303H12C5.37258 303 0 297.627 0 291V12Z" fill="#C6E2FF"/>
</mask>
<g mask="url(#mask0_1343_2)">
<circle cx="172.164" cy="146.165" r="134.333" transform="rotate(-15 172.164 146.165)" fill="url(#paint1_radial_1343_2)"/>
<g style="mix-blend-mode:plus-lighter" opacity="0.26" filter="url(#filter0_f_1343_2)">
<path d="M147.382 164.53C146.479 164.53 145.577 164.585 144.681 164.693C142.247 156.728 134.937 151.285 126.648 151.268C124.584 151.266 122.536 151.61 120.586 152.285C115.758 141.793 104.318 136.091 93.0886 138.579C81.8572 141.069 73.8637 151.076 73.8718 162.635C73.8725 164.633 74.1202 166.622 74.606 168.558C63.9062 170.2 56.2614 179.839 57.0568 190.689C57.8508 201.541 66.8174 209.952 77.6411 210H147.382C159.874 210 170 199.821 170 187.264C170 174.708 159.874 164.53 147.382 164.53Z" fill="white"/>
</g>
<g style="mix-blend-mode:exclusion" opacity="0.2" filter="url(#filter1_f_1343_2)">
<path d="M641.852 141.291C638.458 141.942 635.172 143.132 632.092 144.738C623.917 148.989 617.028 155.591 611.992 163.274C606.869 171.089 602.393 181.068 604.325 190.511C599.298 190.248 594.363 191.895 590.251 195.003C587.789 196.863 585.701 199.251 584.209 201.949C583.836 202.629 583.516 203.301 583.243 203.997C582.356 203.54 581.461 203.096 580.552 202.696C573.972 199.816 566.315 198.894 559.712 202.209C557.247 203.449 555.136 205.156 553.533 207.306C545.055 197.191 530.527 193.51 518.233 198.828C518.003 198.929 517.765 199.043 517.525 199.145C517.382 198.922 517.239 198.699 517.098 198.486C515.894 196.583 514.616 194.746 513.248 192.955C507.702 185.717 500.792 179.381 492.933 174.728C485.18 170.142 476.457 167.039 467.449 166.366C458.581 165.692 449.542 167.226 441.392 170.768C432.862 174.478 425.384 180.542 420.454 188.423C415.672 185.949 410.036 185.292 404.774 186.499C401.813 187.177 399.031 188.372 396.515 190.09C395.395 190.847 394.381 191.726 393.434 192.691C391.778 192.24 390.105 191.877 388.403 191.605C381.251 190.495 373.844 190.998 366.757 192.295C359.741 193.57 352.775 195.692 346.455 199.036C334.976 205.101 325.601 215.416 322.963 228.383C322.7 229.676 322.625 231.014 322.307 232.295C322.196 232.74 322.047 233.278 321.812 233.679C321.728 233.821 321.638 233.995 321.492 234.083C321.481 234.085 321.481 234.085 321.471 234.086C320.793 234.131 319.844 233.545 319.201 233.338C318.511 233.107 317.806 232.91 317.102 232.723C315.337 232.257 313.556 231.891 311.755 231.666C305.021 230.831 298.07 231.775 291.781 234.312C280.037 239.061 270.622 250.324 268.381 262.896C262.619 260.386 256.411 259.425 250.091 260.641C243.014 262.001 236.686 265.967 232.22 271.602C231.828 272.093 231.46 272.601 231.113 273.105C226.878 271.71 222.35 271.088 217.939 270.865C203.64 270.142 187.885 272.625 177.418 283.265C173.354 287.403 170.271 292.325 168.825 297.85C159.225 292.213 147.727 289.822 136.663 291.136C124.446 292.592 113.295 298.904 105.304 308.173C101.74 312.295 98.8086 317.096 97.0279 322.269C92.2982 318.322 86.8372 315.551 80.6061 314.582C76.755 313.98 72.6063 314.057 68.6714 314.934C66.723 311.055 64.1051 307.603 60.8709 304.71C54.5404 299.052 45.5339 296.518 37.1949 298.347C33.5991 299.137 29.8663 300.741 26.9739 303.183C26.6518 302.775 26.34 302.365 25.9987 301.971C25.1436 300.974 24.2293 300.009 23.2904 299.09C21.416 297.273 19.4473 295.535 17.3385 293.991C13.1193 290.893 8.37331 288.446 3.37895 286.851C-7.17132 283.495 -18.796 283.979 -29.017 288.281C-34.3373 290.524 -39.41 293.711 -43.4245 297.895C-49.3169 290.765 -57.6081 284.887 -67.0429 284.486C-75.8648 284.103 -85.5152 288.228 -89.794 296.1C-94.8189 291.313 -102.781 289.488 -109.01 292.733C-112.331 287.17 -115.726 281.672 -121.287 278.008C-124.172 276.096 -127.504 274.791 -130.983 274.579C-133.133 274.443 -135.274 274.7 -137.371 275.165C-137.867 275.276 -138.385 275.381 -138.901 275.496L-118.045 405.58C-53.7073 398.751 10.4943 389.741 74.5382 380.681C141.083 371.274 207.513 361.018 273.792 349.889C340.341 338.706 406.748 326.637 472.976 313.655C536.508 301.202 599.937 288.038 663.074 273.723L641.841 141.293L641.852 141.291Z" fill="#12357D"/>
</g>
<g style="mix-blend-mode:soft-light" filter="url(#filter2_f_1343_2)">
<path d="M299.996 152.895C299.796 152.896 299.597 152.908 299.398 152.932C298.86 151.162 297.243 149.952 295.409 149.948C294.952 149.948 294.499 150.024 294.068 150.174C293 147.843 290.469 146.576 287.984 147.129C285.499 147.682 283.731 149.906 283.733 152.474C283.733 152.918 283.788 153.36 283.895 153.791C281.528 154.156 279.837 156.298 280.013 158.709C280.188 161.12 282.172 162.989 284.567 163H299.996C302.76 163 305 160.738 305 157.948C305 155.157 302.76 152.895 299.996 152.895Z" fill="#F5F5F5"/>
</g>
<g style="mix-blend-mode:soft-light" opacity="0.61" filter="url(#filter3_f_1343_2)">
<path d="M254.992 124.791C254.592 124.791 254.193 124.816 253.797 124.864C252.72 121.324 249.485 118.904 245.818 118.897C244.905 118.896 243.998 119.049 243.135 119.349C240.999 114.686 235.937 112.152 230.968 113.258C225.999 114.364 222.462 118.811 222.465 123.949C222.466 124.837 222.575 125.721 222.79 126.581C218.056 127.311 214.673 131.595 215.025 136.417C215.376 141.24 219.344 144.979 224.133 145H254.992C260.519 145 265 140.476 265 134.895C265 129.315 260.519 124.791 254.992 124.791Z" fill="#F5F5F5"/>
</g>
<g filter="url(#filter4_f_1343_2)">
<path d="M103.79 83.9544C102.989 80.0203 102.389 79.4422 98.4271 78.7898C102.361 77.9887 102.939 77.3884 103.592 73.4269C104.393 77.3611 104.993 77.9391 108.955 78.5915C105.02 79.3927 104.442 79.9929 103.79 83.9544Z" fill="white" fill-opacity="0.5"/>
</g>
<path d="M103.777 83.2526C103.082 79.843 102.562 79.342 99.1289 78.7766C102.538 78.0822 103.039 77.562 103.605 74.1287C104.299 77.5383 104.819 78.0393 108.253 78.6047C104.843 79.299 104.342 79.8193 103.777 83.2526Z" fill="white" fill-opacity="0.5"/>
<g filter="url(#filter5_f_1343_2)">
<g filter="url(#filter6_f_1343_2)">
<path d="M32.5094 45.1411C31.3256 39.3277 30.4386 38.4735 24.5847 37.5094C30.3982 36.3256 31.2523 35.4386 32.2164 29.5847C33.4003 35.3981 34.2872 36.2523 40.1411 37.2164C34.3277 38.4002 33.4735 39.2872 32.5094 45.1411Z" fill="white"/>
</g>
<path d="M32.4898 44.104C31.4638 39.0657 30.695 38.3254 25.6217 37.4899C30.66 36.4639 31.4003 35.6951 32.2358 30.6218C33.2618 35.6601 34.0305 36.4004 39.1039 37.2359C34.0656 38.2619 33.3253 39.0306 32.4898 44.104Z" fill="white"/>
</g>
<g filter="url(#filter7_f_1343_2)">
<path d="M227.039 89.0899C225.945 83.719 225.126 82.9299 219.718 82.0392C225.089 80.9455 225.878 80.126 226.768 74.7178C227.862 80.0887 228.682 80.8778 234.09 81.7685C228.719 82.8622 227.93 83.6816 227.039 89.0899Z" fill="white"/>
</g>
<path d="M227.021 88.1317C226.073 83.477 225.363 82.7931 220.676 82.0211C225.33 81.0733 226.014 80.3631 226.786 75.676C227.734 80.3307 228.444 81.0146 233.132 81.7865C228.477 82.7344 227.793 83.4446 227.021 88.1317Z" fill="white"/>
<g filter="url(#filter8_f_1343_2)">
<path d="M212.196 104.184C211.578 101.146 211.114 100.7 208.056 100.196C211.093 99.5778 211.54 99.1143 212.043 96.0556C212.662 99.0932 213.125 99.5395 216.184 100.043C213.146 100.662 212.7 101.125 212.196 104.184Z" fill="white"/>
</g>
<path d="M212.186 103.642C211.65 101.009 211.248 100.623 208.598 100.186C211.23 99.65 211.617 99.2484 212.053 96.5975C212.59 99.23 212.991 99.6168 215.642 100.053C213.01 100.59 212.623 100.991 212.186 103.642Z" fill="white"/>
<g filter="url(#filter9_f_1343_2)">
<path d="M308.628 95.2567C307.713 90.2854 306.971 89.5436 302 88.6284C306.971 87.7132 307.713 86.9713 308.628 82C309.544 86.9713 310.285 87.7132 315.257 88.6284C310.285 89.5436 309.544 90.2854 308.628 95.2567Z" fill="white"/>
</g>
<g filter="url(#filter10_f_1343_2)">
<path d="M271.5 32C270.879 28.625 270.375 28.1213 267 27.5C270.375 26.8787 270.879 26.375 271.5 23C272.121 26.375 272.625 26.8787 276 27.5C272.625 28.1213 272.121 28.625 271.5 32Z" fill="white"/>
</g>
<path d="M271.5 30C271.155 28.125 270.875 27.8452 269 27.5C270.875 27.1548 271.155 26.875 271.5 25C271.845 26.875 272.125 27.1548 274 27.5C272.125 27.8452 271.845 28.125 271.5 30Z" fill="white"/>
<g style="mix-blend-mode:soft-light">
<g filter="url(#filter11_f_1343_2)">
<path d="M355.5 147C354.879 143.625 354.375 143.121 351 142.5C354.375 141.879 354.879 141.375 355.5 138C356.121 141.375 356.625 141.879 360 142.5C356.625 143.121 356.121 143.625 355.5 147Z" fill="white"/>
</g>
<path d="M355.5 145C355.155 143.125 354.875 142.845 353 142.5C354.875 142.155 355.155 141.875 355.5 140C355.845 141.875 356.125 142.155 358 142.5C356.125 142.845 355.845 143.125 355.5 145Z" fill="white"/>
</g>
<g filter="url(#filter12_f_1343_2)">
<path d="M280.5 209C279.879 205.625 279.375 205.121 276 204.5C279.375 203.879 279.879 203.375 280.5 200C281.121 203.375 281.625 203.879 285 204.5C281.625 205.121 281.121 205.625 280.5 209Z" fill="white"/>
</g>
<path d="M280.5 207C280.155 205.125 279.875 204.845 278 204.5C279.875 204.155 280.155 203.875 280.5 202C280.845 203.875 281.125 204.155 283 204.5C281.125 204.845 280.845 205.125 280.5 207Z" fill="white"/>
<g filter="url(#filter13_f_1343_2)">
<path d="M53.5 267C52.8787 263.625 52.375 263.121 49 262.5C52.375 261.879 52.8787 261.375 53.5 258C54.1213 261.375 54.625 261.879 58 262.5C54.625 263.121 54.1213 263.625 53.5 267Z" fill="white"/>
</g>
<path d="M53.5 265C53.1548 263.125 52.875 262.845 51 262.5C52.875 262.155 53.1548 261.875 53.5 260C53.8452 261.875 54.125 262.155 56 262.5C54.125 262.845 53.8452 263.125 53.5 265Z" fill="white"/>
<g style="mix-blend-mode:soft-light">
<g filter="url(#filter14_f_1343_2)">
<path d="M348.5 63C347.879 59.625 347.375 59.1213 344 58.5C347.375 57.8787 347.879 57.375 348.5 54C349.121 57.375 349.625 57.8787 353 58.5C349.625 59.1213 349.121 59.625 348.5 63Z" fill="white"/>
</g>
<path d="M348.5 61C348.155 59.125 347.875 58.8452 346 58.5C347.875 58.1548 348.155 57.875 348.5 56C348.845 57.875 349.125 58.1548 351 58.5C349.125 58.8452 348.845 59.125 348.5 61Z" fill="white"/>
</g>
<g style="mix-blend-mode:soft-light">
<g filter="url(#filter15_f_1343_2)">
<path d="M48.5 79C47.8787 75.625 47.375 75.1213 44 74.5C47.375 73.8787 47.8787 73.375 48.5 70C49.1213 73.375 49.625 73.8787 53 74.5C49.625 75.1213 49.1213 75.625 48.5 79Z" fill="white"/>
</g>
<path opacity="0.4" d="M48.5 77C48.1548 75.125 47.875 74.8452 46 74.5C47.875 74.1548 48.1548 73.875 48.5 72C48.8452 73.875 49.125 74.1548 51 74.5C49.125 74.8452 48.8452 75.125 48.5 77Z" fill="white"/>
</g>
<g style="mix-blend-mode:soft-light">
<g filter="url(#filter16_f_1343_2)">
<path d="M23.5 151C22.8787 147.625 22.375 147.121 19 146.5C22.375 145.879 22.8787 145.375 23.5 142C24.1213 145.375 24.625 145.879 28 146.5C24.625 147.121 24.1213 147.625 23.5 151Z" fill="white"/>
</g>
<path d="M23.5 149C23.1548 147.125 22.875 146.845 21 146.5C22.875 146.155 23.1548 145.875 23.5 144C23.8452 145.875 24.125 146.155 26 146.5C24.125 146.845 23.8452 147.125 23.5 149Z" fill="white"/>
</g>
<g style="mix-blend-mode:soft-light">
<g filter="url(#filter17_f_1343_2)">
<path d="M122.75 33.9951C124.666 28.6059 124.358 27.4592 120.005 23.7499C125.394 25.6656 126.541 25.3584 130.25 21.0047C128.334 26.3939 128.642 27.5406 132.995 31.2499C127.606 29.3342 126.459 29.6415 122.75 33.9951Z" fill="white"/>
</g>
<path d="M124.417 31.1084C125.481 28.1144 125.31 27.4773 122.892 25.4166C125.886 26.4809 126.523 26.3102 128.583 23.8915C127.519 26.8855 127.69 27.5225 130.108 29.5833C127.115 28.519 126.477 28.6897 124.417 31.1084Z" fill="white"/>
</g>
<path opacity="0.48" d="M20 9H364C370.075 9 375 13.9249 375 20V283C375 289.075 370.075 294 364 294H20C13.9249 294 9 289.075 9 283V20C9 13.9249 13.9249 9 20 9Z" stroke="white" stroke-width="2"/>
</g>
<defs>
<filter id="filter0_f_1343_2" x="55" y="136" width="117" height="76" filterUnits="userSpaceOnUse" color-interpolation-filters="sRGB">
<feFlood flood-opacity="0" result="BackgroundImageFix"/>
<feBlend mode="normal" in="SourceGraphic" in2="BackgroundImageFix" result="shape"/>
<feGaussianBlur stdDeviation="1" result="effect1_foregroundBlur_1343_2"/>
</filter>
<filter id="filter1_f_1343_2" x="-140.401" y="139.791" width="804.975" height="267.289" filterUnits="userSpaceOnUse" color-interpolation-filters="sRGB">
<feFlood flood-opacity="0" result="BackgroundImageFix"/>
<feBlend mode="normal" in="SourceGraphic" in2="BackgroundImageFix" result="shape"/>
<feGaussianBlur stdDeviation="0.75" result="effect1_foregroundBlur_1343_2"/>
</filter>
<filter id="filter2_f_1343_2" x="278.5" y="145.5" width="28" height="19" filterUnits="userSpaceOnUse" color-interpolation-filters="sRGB">
<feFlood flood-opacity="0" result="BackgroundImageFix"/>
<feBlend mode="normal" in="SourceGraphic" in2="BackgroundImageFix" result="shape"/>
<feGaussianBlur stdDeviation="0.75" result="effect1_foregroundBlur_1343_2"/>
</filter>
<filter id="filter3_f_1343_2" x="214" y="112" width="52" height="34" filterUnits="userSpaceOnUse" color-interpolation-filters="sRGB">
<feFlood flood-opacity="0" result="BackgroundImageFix"/>
<feBlend mode="normal" in="SourceGraphic" in2="BackgroundImageFix" result="shape"/>
<feGaussianBlur stdDeviation="0.5" result="effect1_foregroundBlur_1343_2"/>
</filter>
<filter id="filter4_f_1343_2" x="94.4271" y="69.4269" width="18.5275" height="18.5276" filterUnits="userSpaceOnUse" color-interpolation-filters="sRGB">
<feFlood flood-opacity="0" result="BackgroundImageFix"/>
<feBlend mode="normal" in="SourceGraphic" in2="BackgroundImageFix" result="shape"/>
<feGaussianBlur stdDeviation="2" result="effect1_foregroundBlur_1343_2"/>
</filter>
<filter id="filter5_f_1343_2" x="23.5847" y="28.5847" width="17.5564" height="17.5564" filterUnits="userSpaceOnUse" color-interpolation-filters="sRGB">
<feFlood flood-opacity="0" result="BackgroundImageFix"/>
<feBlend mode="normal" in="SourceGraphic" in2="BackgroundImageFix" result="shape"/>
<feGaussianBlur stdDeviation="0.5" result="effect1_foregroundBlur_1343_2"/>
</filter>
<filter id="filter6_f_1343_2" x="20.5847" y="25.5847" width="23.5564" height="23.5564" filterUnits="userSpaceOnUse" color-interpolation-filters="sRGB">
<feFlood flood-opacity="0" result="BackgroundImageFix"/>
<feBlend mode="normal" in="SourceGraphic" in2="BackgroundImageFix" result="shape"/>
<feGaussianBlur stdDeviation="2" result="effect1_foregroundBlur_1343_2"/>
</filter>
<filter id="filter7_f_1343_2" x="215.718" y="70.7179" width="22.372" height="22.3719" filterUnits="userSpaceOnUse" color-interpolation-filters="sRGB">
<feFlood flood-opacity="0" result="BackgroundImageFix"/>
<feBlend mode="normal" in="SourceGraphic" in2="BackgroundImageFix" result="shape"/>
<feGaussianBlur stdDeviation="2" result="effect1_foregroundBlur_1343_2"/>
</filter>
<filter id="filter8_f_1343_2" x="204.056" y="92.0557" width="16.1283" height="16.1283" filterUnits="userSpaceOnUse" color-interpolation-filters="sRGB">
<feFlood flood-opacity="0" result="BackgroundImageFix"/>
<feBlend mode="normal" in="SourceGraphic" in2="BackgroundImageFix" result="shape"/>
<feGaussianBlur stdDeviation="2" result="effect1_foregroundBlur_1343_2"/>
</filter>
<filter id="filter9_f_1343_2" x="298" y="78" width="21.2567" height="21.2567" filterUnits="userSpaceOnUse" color-interpolation-filters="sRGB">
<feFlood flood-opacity="0" result="BackgroundImageFix"/>
<feBlend mode="normal" in="SourceGraphic" in2="BackgroundImageFix" result="shape"/>
<feGaussianBlur stdDeviation="2" result="effect1_foregroundBlur_1343_2"/>
</filter>
<filter id="filter10_f_1343_2" x="263" y="19" width="17" height="17" filterUnits="userSpaceOnUse" color-interpolation-filters="sRGB">
<feFlood flood-opacity="0" result="BackgroundImageFix"/>
<feBlend mode="normal" in="SourceGraphic" in2="BackgroundImageFix" result="shape"/>
<feGaussianBlur stdDeviation="2" result="effect1_foregroundBlur_1343_2"/>
</filter>
<filter id="filter11_f_1343_2" x="347" y="134" width="17" height="17" filterUnits="userSpaceOnUse" color-interpolation-filters="sRGB">
<feFlood flood-opacity="0" result="BackgroundImageFix"/>
<feBlend mode="normal" in="SourceGraphic" in2="BackgroundImageFix" result="shape"/>
<feGaussianBlur stdDeviation="2" result="effect1_foregroundBlur_1343_2"/>
</filter>
<filter id="filter12_f_1343_2" x="272" y="196" width="17" height="17" filterUnits="userSpaceOnUse" color-interpolation-filters="sRGB">
<feFlood flood-opacity="0" result="BackgroundImageFix"/>
<feBlend mode="normal" in="SourceGraphic" in2="BackgroundImageFix" result="shape"/>
<feGaussianBlur stdDeviation="2" result="effect1_foregroundBlur_1343_2"/>
</filter>
<filter id="filter13_f_1343_2" x="45" y="254" width="17" height="17" filterUnits="userSpaceOnUse" color-interpolation-filters="sRGB">
<feFlood flood-opacity="0" result="BackgroundImageFix"/>
<feBlend mode="normal" in="SourceGraphic" in2="BackgroundImageFix" result="shape"/>
<feGaussianBlur stdDeviation="2" result="effect1_foregroundBlur_1343_2"/>
</filter>
<filter id="filter14_f_1343_2" x="340" y="50" width="17" height="17" filterUnits="userSpaceOnUse" color-interpolation-filters="sRGB">
<feFlood flood-opacity="0" result="BackgroundImageFix"/>
<feBlend mode="normal" in="SourceGraphic" in2="BackgroundImageFix" result="shape"/>
<feGaussianBlur stdDeviation="2" result="effect1_foregroundBlur_1343_2"/>
</filter>
<filter id="filter15_f_1343_2" x="40" y="66" width="17" height="17" filterUnits="userSpaceOnUse" color-interpolation-filters="sRGB">
<feFlood flood-opacity="0" result="BackgroundImageFix"/>
<feBlend mode="normal" in="SourceGraphic" in2="BackgroundImageFix" result="shape"/>
<feGaussianBlur stdDeviation="2" result="effect1_foregroundBlur_1343_2"/>
</filter>
<filter id="filter16_f_1343_2" x="15" y="138" width="17" height="17" filterUnits="userSpaceOnUse" color-interpolation-filters="sRGB">
<feFlood flood-opacity="0" result="BackgroundImageFix"/>
<feBlend mode="normal" in="SourceGraphic" in2="BackgroundImageFix" result="shape"/>
<feGaussianBlur stdDeviation="2" result="effect1_foregroundBlur_1343_2"/>
</filter>
<filter id="filter17_f_1343_2" x="116.005" y="17.0048" width="20.9904" height="20.9904" filterUnits="userSpaceOnUse" color-interpolation-filters="sRGB">
<feFlood flood-opacity="0" result="BackgroundImageFix"/>
<feBlend mode="normal" in="SourceGraphic" in2="BackgroundImageFix" result="shape"/>
<feGaussianBlur stdDeviation="2" result="effect1_foregroundBlur_1343_2"/>
</filter>
<linearGradient id="paint0_linear_1343_2" x1="371.5" y1="30.5" x2="28" y2="274.5" gradientUnits="userSpaceOnUse">
<stop stop-color="#06173A"/>
<stop offset="1" stop-color="#1F316F"/>
</linearGradient>
<radialGradient id="paint1_radial_1343_2" cx="0" cy="0" r="1" gradientUnits="userSpaceOnUse" gradientTransform="translate(172.164 146.165) rotate(94.8298) scale(246.878)">
<stop stop-color="#5C6EA3"/>
<stop offset="0.595685" stop-color="#192B61" stop-opacity="0"/>
</radialGradient>
</defs>
</svg>
