<?xml version="1.0" encoding="UTF-8"?>
<svg width="378px" height="353px" viewBox="0 0 378 353" version="1.1" xmlns="http://www.w3.org/2000/svg" xmlns:xlink="http://www.w3.org/1999/xlink">
    <title>Group 55</title>
    <defs>
        <linearGradient x1="11.3849241%" y1="50%" x2="90.2386922%" y2="50%" id="linearGradient-1">
            <stop stop-color="#880078" offset="0%"></stop>
            <stop stop-color="#600052" offset="100%"></stop>
        </linearGradient>
        <linearGradient x1="11.3849241%" y1="50%" x2="90.2386922%" y2="50%" id="linearGradient-2">
            <stop stop-color="#B523A3" offset="0%"></stop>
            <stop stop-color="#600052" offset="100%"></stop>
        </linearGradient>
    </defs>
    <g id="V2" stroke="none" stroke-width="1" fill="none" fill-rule="evenodd">
        <g id="Color-Option----2-P" transform="translate(-533.000000, -3008.000000)">
            <g id="Group-65" transform="translate(120.000000, 2554.000000)">
                <g id="Group-64" transform="translate(0.000000, 68.000000)">
                    <g id="Group-63" transform="translate(0.000000, 386.337110)">
                        <g id="Group-55" transform="translate(413.000000, 0.000000)">
                            <rect id="Rectangle" fill="url(#linearGradient-1)" x="0" y="0" width="378" height="352"></rect>
                            <path d="M0,352 C71.4290717,321.310993 125.788816,296.458911 163.079233,277.443753 C200.36965,258.428595 271.97069,242.947344 377.882353,231 L377.882353,352 L293.176461,352 L0,352 Z" id="Path-2" fill="url(#linearGradient-2)" opacity="0.515671503"></path>
                            <g id="Group-13" transform="translate(6.000000, 152.000000)" fill="#8F007F">
                                <path d="M330,52 L366,52 L366,192 C366,195.313708 363.313708,198 360,198 L336,198 C332.686292,198 330,195.313708 330,192 L330,52 L330,52 Z" id="Rectangle-Copy-9" opacity="0.528390067" transform="translate(348.000000, 125.000000) rotate(-180.000000) translate(-348.000000, -125.000000) "></path>
                                <path d="M279,0 L315,0 L315,194 C315,197.313708 312.313708,200 309,200 L285,200 C281.686292,200 279,197.313708 279,194 L279,0 L279,0 Z" id="Rectangle-Copy-10" opacity="0.528390067" transform="translate(297.000000, 100.000000) rotate(-180.000000) translate(-297.000000, -100.000000) "></path>
                                <path d="M228,48 L264,48 L264,194 C264,197.313708 261.313708,200 258,200 L234,200 C230.686292,200 228,197.313708 228,194 L228,48 L228,48 Z" id="Rectangle-Copy-11" opacity="0.528390067" transform="translate(246.000000, 124.000000) rotate(-180.000000) translate(-246.000000, -124.000000) "></path>
                                <path d="M177,113 L213,113 L213,193 C213,196.313708 210.313708,199 207,199 L183,199 C179.686292,199 177,196.313708 177,193 L177,113 L177,113 Z" id="Rectangle-Copy-12" opacity="0.528390067" transform="translate(195.000000, 156.000000) rotate(-180.000000) translate(-195.000000, -156.000000) "></path>
                                <path d="M0,86 L36,86 L36,194 C36,197.313708 33.3137085,200 30,200 L6,200 C2.6862915,200 -1.37054459e-15,197.313708 0,194 L0,86 L0,86 Z" id="Rectangle-Copy-13" opacity="0.547526042" transform="translate(18.000000, 143.000000) rotate(-180.000000) translate(-18.000000, -143.000000) "></path>
                                <path d="M51,0 L87,0 L87,194 C87,197.313708 84.3137085,200 81,200 L57,200 C53.6862915,200 51,197.313708 51,194 L51,0 L51,0 Z" id="Rectangle-Copy-14" opacity="0.547526042" transform="translate(69.000000, 100.000000) rotate(-180.000000) translate(-69.000000, -100.000000) "></path>
                                <path d="M102,64 L138,64 L138,194 C138,197.313708 135.313708,200 132,200 L108,200 C104.686292,200 102,197.313708 102,194 L102,64 L102,64 Z" id="Rectangle-Copy-15" opacity="0.547526042" transform="translate(120.000000, 132.000000) rotate(-180.000000) translate(-120.000000, -132.000000) "></path>
                                <path d="M153,131 L189,131 L189,193 C189,196.313708 186.313708,199 183,199 L159,199 C155.686292,199 153,196.313708 153,193 L153,131 L153,131 Z" id="Rectangle-Copy-17" opacity="0.547526042" transform="translate(171.000000, 165.000000) rotate(-180.000000) translate(-171.000000, -165.000000) "></path>
                            </g>
                        </g>
                    </g>
                </g>
            </g>
        </g>
    </g>
</svg>