<?xml version="1.0" encoding="UTF-8"?>
<svg width="378px" height="353px" viewBox="0 0 378 353" version="1.1" xmlns="http://www.w3.org/2000/svg" xmlns:xlink="http://www.w3.org/1999/xlink">
    <title>Group 15</title>
    <defs>
        <linearGradient x1="11.3849241%" y1="50%" x2="90.2386922%" y2="50%" id="linearGradient-1">
            <stop stop-color="#2C77A6" offset="0%"></stop>
            <stop stop-color="#07446B" offset="100%"></stop>
        </linearGradient>
        <linearGradient x1="35.5586014%" y1="51.3569669%" x2="94.3536938%" y2="52.5446241%" id="linearGradient-2">
            <stop stop-color="#2675A6" offset="0.0437062937%"></stop>
            <stop stop-color="#084469" offset="100%"></stop>
        </linearGradient>
    </defs>
    <g id="V2" stroke="none" stroke-width="1" fill="none" fill-rule="evenodd">
        <g id="Color-Option----2-P" transform="translate(-120.000000, -3008.000000)">
            <g id="Group-65" transform="translate(120.000000, 2554.000000)">
                <g id="Group-64" transform="translate(0.000000, 68.000000)">
                    <g id="Group-15" transform="translate(0.000000, 386.337110)">
                        <rect id="Rectangle" fill="url(#linearGradient-1)" x="0" y="0" width="378" height="352"></rect>
                        <path d="M0,349 C71.4290717,318.310993 125.788816,293.458911 163.079233,274.443753 C200.36965,255.428595 271.97069,239.947344 377.882353,228 L377.882353,349 L293.176461,349 L0,349 Z" id="Path-2" fill="url(#linearGradient-2)" opacity="0.515671503"></path>
                        <g id="Group-13" transform="translate(10.000000, 248.000000)">
                            <path d="M330,27 L366.108598,27 L366.108598,97.3544304 C366.108598,100.668139 363.422307,103.35443 360.108598,103.35443 L336,103.35443 C332.686292,103.35443 330,100.668139 330,97.3544304 L330,27 L330,27 Z" id="Rectangle-Copy-9" fill="#165A85" opacity="0.528390067" transform="translate(348.054299, 65.177215) rotate(-180.000000) translate(-348.054299, -65.177215) "></path>
                            <path d="M279,2.27373675e-13 L315.108598,2.27373675e-13 L315.108598,98 C315.108598,101.313708 312.422307,104 309.108598,104 L285,104 C281.686292,104 279,101.313708 279,98 L279,2.27373675e-13 L279,2.27373675e-13 Z" id="Rectangle-Copy-10" fill="#165A85" opacity="0.528390067" transform="translate(297.054299, 52.000000) rotate(-180.000000) translate(-297.054299, -52.000000) "></path>
                            <path d="M228,25 L264.108598,25 L264.108598,97.9873418 C264.108598,101.30105 261.422307,103.987342 258.108598,103.987342 L234,103.987342 C230.686292,103.987342 228,101.30105 228,97.9873418 L228,25 L228,25 Z" id="Rectangle-Copy-11" fill="#165A85" opacity="0.528390067" transform="translate(246.054299, 64.493671) rotate(-180.000000) translate(-246.054299, -64.493671) "></path>
                            <path d="M177,59 L213.108598,59 L213.108598,97.7594937 C213.108598,101.073202 210.422307,103.759494 207.108598,103.759494 L183,103.759494 C179.686292,103.759494 177,101.073202 177,97.7594937 L177,59 L177,59 Z" id="Rectangle-Copy-12" fill="#165A85" opacity="0.528390067" transform="translate(195.054299, 81.379747) rotate(-180.000000) translate(-195.054299, -81.379747) "></path>
                            <path d="M0,45 L36.1085985,45 L36.1085985,98.2405063 C36.1085985,101.554215 33.422307,104.240506 30.1085985,104.240506 L6,104.240506 C2.6862915,104.240506 4.05812251e-16,101.554215 0,98.2405063 L0,45 L0,45 Z" id="Rectangle-Copy-13" fill="#216793" opacity="0.547526042" transform="translate(18.054299, 74.620253) rotate(-180.000000) translate(-18.054299, -74.620253) "></path>
                            <path d="M51,2.27373675e-13 L87.1085985,2.27373675e-13 L87.1085985,98 C87.1085985,101.313708 84.422307,104 81.1085985,104 L57,104 C53.6862915,104 51,101.313708 51,98 L51,2.27373675e-13 L51,2.27373675e-13 Z" id="Rectangle-Copy-14" fill="#216793" opacity="0.547526042" transform="translate(69.054299, 52.000000) rotate(-180.000000) translate(-69.054299, -52.000000) "></path>
                            <path d="M102,33 L138.108598,33 L138.108598,98.0886076 C138.108598,101.402316 135.422307,104.088608 132.108598,104.088608 L108,104.088608 C104.686292,104.088608 102,101.402316 102,98.0886076 L102,33 L102,33 Z" id="Rectangle-Copy-15" fill="#216793" opacity="0.547526042" transform="translate(120.054299, 68.544304) rotate(-180.000000) translate(-120.054299, -68.544304) "></path>
                            <path d="M153,68 L189.108598,68 L189.108598,97.5443038 C189.108598,100.858012 186.422307,103.544304 183.108598,103.544304 L159,103.544304 C155.686292,103.544304 153,100.858012 153,97.5443038 L153,68 L153,68 Z" id="Rectangle-Copy-17" fill="#216793" opacity="0.547526042" transform="translate(171.054299, 85.772152) rotate(-180.000000) translate(-171.054299, -85.772152) "></path>
                        </g>
                    </g>
                </g>
            </g>
        </g>
    </g>
</svg>