<?xml version="1.0" encoding="UTF-8"?>
<svg width="36px" height="35px" viewBox="0 0 36 35" version="1.1" xmlns="http://www.w3.org/2000/svg" xmlns:xlink="http://www.w3.org/1999/xlink">
    <title>Icons/Hubs/Learn</title>
    <g id="V2" stroke="none" stroke-width="1" fill="none" fill-rule="evenodd">
        <g id="Color-Option----2-P" transform="translate(-292.000000, -3102.000000)">
            <g id="Group-65" transform="translate(120.000000, 2554.000000)">
                <g id="Group-64" transform="translate(0.000000, 68.000000)">
                    <g id="Group-63" transform="translate(0.000000, 386.337110)">
                        <g id="Group-21" transform="translate(41.000000, 65.000000)">
                            <g id="Group-17" transform="translate(92.000000, 0.000000)">
                                <g id="Icons/Hubs/Learn" transform="translate(34.000000, 25.000000)">
                                    <rect id="Size" fill="#D8D8D8" opacity="0" x="0" y="0" width="44" height="44"></rect>
                                    <path d="M36.1865079,20.2539683 L33.6984127,20.2539683 L33.6984127,13.6190476 C33.6984127,11.7944444 32.2055556,10.3015873 30.3809524,10.3015873 L23.7460317,10.3015873 L23.7460317,7.81349206 C23.7460317,5.52444444 21.888254,3.66666667 19.5992063,3.66666667 C17.3101587,3.66666667 15.452381,5.52444444 15.452381,7.81349206 L15.452381,10.3015873 L8.81746032,10.3015873 C6.99285714,10.3015873 5.5165873,11.7944444 5.5165873,13.6190476 L5.5165873,19.9222222 L7.98809524,19.9222222 C10.4596032,19.9222222 12.4666667,21.9292857 12.4666667,24.4007937 C12.4666667,26.8723016 10.4596032,28.8793651 7.98809524,28.8793651 L5.5,28.8793651 L5.5,35.1825397 C5.5,37.0071429 6.99285714,38.5 8.81746032,38.5 L15.1206349,38.5 L15.1206349,36.0119048 C15.1206349,33.5403968 17.1276984,31.5333333 19.5992063,31.5333333 C22.0707143,31.5333333 24.0777778,33.5403968 24.0777778,36.0119048 L24.0777778,38.5 L30.3809524,38.5 C32.2055556,38.5 33.6984127,37.0071429 33.6984127,35.1825397 L33.6984127,28.547619 L36.1865079,28.547619 C38.4755556,28.547619 40.3333333,26.6898413 40.3333333,24.4007937 C40.3333333,22.111746 38.4755556,20.2539683 36.1865079,20.2539683 Z" id="Path" fill="#0074B6"></path>
                                </g>
                            </g>
                        </g>
                    </g>
                </g>
            </g>
        </g>
    </g>
</svg>