<?xml version="1.0" encoding="UTF-8"?>
<svg width="38px" height="38px" viewBox="0 0 38 38" version="1.1" xmlns="http://www.w3.org/2000/svg" xmlns:xlink="http://www.w3.org/1999/xlink">
    <title>Icons/Hubs/Learn</title>
    <g id="V2" stroke="none" stroke-width="1" fill="none" fill-rule="evenodd">
        <g id="Color-Option----2-P" transform="translate(-702.000000, -2716.000000)">
            <g id="Group-65" transform="translate(120.000000, 2554.000000)">
                <g id="Group-64" transform="translate(0.000000, 68.000000)">
                    <g id="Group-57" transform="translate(412.000000, 0.000000)">
                        <g id="Group-51" transform="translate(41.000000, 66.000000)">
                            <g id="Group-14" transform="translate(92.000000, 0.000000)">
                                <g id="Icons/Hubs/Learn" transform="translate(34.000000, 25.000000)">
                                    <rect id="Size" fill="#D8D8D8" opacity="0" x="0" y="0" width="44" height="44"></rect>
                                    <path d="M36.6666667,11 L34.8333333,11 L34.8333333,25.6666667 C34.8333333,26.675 34.0083333,27.5 33,27.5 L11,27.5 L11,29.3333333 C11,31.35 12.65,33 14.6666667,33 L33,33 L40.3333333,40.3333333 L40.3333333,14.6666667 C40.3333333,12.65 38.6833333,11 36.6666667,11 Z" id="Path" fill="#0074B6" opacity="0.5"></path>
                                    <path d="M31.1666667,20.1666667 L31.1666667,7.33333333 C31.1666667,5.31666667 29.5166667,3.66666667 27.5,3.66666667 L7.33333333,3.66666667 C5.31666667,3.66666667 3.66666667,5.31666667 3.66666667,7.33333333 L3.66666667,31.1666667 L11,23.8333333 L27.5,23.8333333 C29.5166667,23.8333333 31.1666667,22.1833333 31.1666667,20.1666667 Z" id="Path" fill="#0074B6"></path>
                                </g>
                            </g>
                        </g>
                    </g>
                </g>
            </g>
        </g>
    </g>
</svg>