<?xml version="1.0" encoding="UTF-8"?>
<svg width="34px" height="37px" viewBox="0 0 34 37" version="1.1" xmlns="http://www.w3.org/2000/svg" xmlns:xlink="http://www.w3.org/1999/xlink">
    <title>Icons/Hubs/Learn</title>
    <g id="V2" stroke="none" stroke-width="1" fill="none" fill-rule="evenodd">
        <g id="Color-Option----2-P" transform="translate(-1113.000000, -3101.000000)">
            <g id="Group-65" transform="translate(120.000000, 2554.000000)">
                <g id="Group-64" transform="translate(0.000000, 68.000000)">
                    <g id="Group-63" transform="translate(0.000000, 386.337110)">
                        <g id="Group-59" transform="translate(821.000000, 0.000000)">
                            <g id="Group-54" transform="translate(41.000000, 65.000000)">
                                <g id="Group-19" transform="translate(92.000000, 0.000000)">
                                    <g id="Icons/Hubs/Learn" transform="translate(34.000000, 24.000000)">
                                        <rect id="Size" fill="#D8D8D8" opacity="0" x="0" y="0" width="44" height="44"></rect>
                                        <path d="M29.3333333,3.66666667 L29.3333333,7.33333333 L14.6666667,7.33333333 L14.6666667,3.66666667 L11,3.66666667 L11,7.33333333 L9.16666667,7.33333333 C7.13166667,7.33333333 5.51833333,8.98333333 5.51833333,11 L5.5,36.6666667 C5.5,38.6833333 7.13166667,40.3333333 9.16666667,40.3333333 L34.8333333,40.3333333 C36.85,40.3333333 38.5,38.6833333 38.5,36.6666667 L38.5,11 C38.5,8.98333333 36.85,7.33333333 34.8333333,7.33333333 L33,7.33333333 L33,3.66666667 L29.3333333,3.66666667 Z M34.8333333,36.6666667 L9.16666667,36.6666667 L9.16666667,16.5 L34.8333333,16.5 L34.8333333,36.6666667 Z" id="Shape" fill="#0074B6"></path>
                                        <polygon id="Path" fill="#0074B6" opacity="0.5" points="31.1666667 23.8333333 22 23.8333333 22 33 31.1666667 33"></polygon>
                                    </g>
                                </g>
                            </g>
                        </g>
                    </g>
                </g>
            </g>
        </g>
    </g>
</svg>