<?xml version="1.0" encoding="UTF-8"?>
<svg width="" height="" viewBox="0 0 120 32" version="1.1" xmlns="http://www.w3.org/2000/svg" xmlns:xlink="http://www.w3.org/1999/xlink">
    <title>Group 8</title>
    <g id="V2" stroke="none" stroke-width="1" fill="none" fill-rule="evenodd">
        <g id="Color-Option----2.1" transform="translate(-1085.000000, -4894.000000)">
            <g id="Navigation/Footer-Copy" transform="translate(0.000000, 4626.000000)">
                <g id="Group-8" transform="translate(1085.000000, 268.000000)">
                    <g id="Logos/iGOT_logo_light" transform="translate(-0.000000, 0.000000)">
                        <path d="M25.5494086,15.6047149 C27.3787197,15.6047149 28.8616694,17.091407 28.8616694,18.9253347 C28.8616694,19.9731614 28.3775628,20.9076337 27.6213443,21.5162218 L28.6431799,24.9054508 C29.4894525,27.7420199 27.9529885,30.7274625 25.190636,31.6971523 L24.975749,31.7677315 L24.7357528,31.8339482 C22.8902675,32.2985151 20.9281796,31.7744318 19.5564114,30.4354829 C20.3624478,30.083307 21.0564767,29.5158879 21.5627236,28.7951767 C22.5656649,29.5958164 23.9713381,29.6498178 25.0324551,28.9284727 C26.0405163,28.2431948 26.5152087,27.0093585 26.2422484,25.8327977 L26.192905,25.6475893 L25.1601044,22.2232606 C23.5142487,22.0300798 22.2371478,20.6272251 22.2371478,18.9253347 C22.2371478,17.091407 23.7200975,15.6047149 25.5494086,15.6047149 Z M17.5999827,22.8350644 C19.4292938,22.8350644 20.9122435,24.3217565 20.9122435,26.1556841 C20.9122435,27.9896117 19.4292938,29.4763038 17.5999827,29.4763038 C16.9691858,29.4763038 16.3795733,29.2995271 15.8777478,28.9926938 L15.7712556,28.9232006 L12.8620531,30.9325756 C10.4281968,32.6027335 7.12919603,32.0489011 5.36456591,29.7144826 L5.22489755,29.5213122 L5.08315774,29.3031716 C4.08462449,27.6843482 3.98647532,25.6557436 4.83879968,23.9412708 C5.41885755,24.6032472 6.16911841,25.0928048 7.00773189,25.3565349 C6.55195068,26.5583873 6.92878766,27.9177337 7.93778426,28.7114694 C8.89367578,29.4634295 10.206457,29.5421757 11.2399019,28.9279687 L11.4094471,28.8191812 L14.3485797,26.7898024 L14.351,26.803 L14.3182204,26.6070452 C14.2980559,26.4594489 14.2877219,26.3087764 14.2877219,26.1556841 C14.2877219,24.3217565 15.7706716,22.8350644 17.5999827,22.8350644 Z M6.17866903,8.04230351 C5.7468243,8.81001516 5.5335508,9.68186883 5.56210964,10.5627739 C4.27984271,10.5281133 3.12414787,11.3336203 2.70994536,12.5507022 C2.31645299,13.70693 2.67906796,14.9792285 3.60455267,15.7537055 L3.75533125,15.8717648 L6.63659906,17.9831588 L6.73859425,17.9245825 C7.20561942,17.6722632 7.73997724,17.5290741 8.30769448,17.5290741 C10.1370056,17.5290741 11.6199553,19.0157662 11.6199553,20.8496938 C11.6199553,22.6836215 10.1370056,24.1703136 8.30769448,24.1703136 C6.47838337,24.1703136 4.9954337,22.6836215 4.9954337,20.8496938 C4.9954337,20.567634 5.03051247,20.293788 5.09653498,20.0323012 L2.24585819,17.9441515 C-0.12952005,16.1937424 -0.698470737,12.8915419 0.913277851,10.4510439 L1.05264617,10.2497155 L1.20445762,10.0520061 C2.3986272,8.56730596 4.27958791,7.80142217 6.17866903,8.04230351 Z M20.9092505,5.90090385 C22.3015364,5.90090385 23.4931852,6.76210134 23.9830954,7.98213019 L27.5138187,7.98229231 C30.4674675,7.99354658 32.8719158,10.3346666 32.9950681,13.2672912 L33,13.4883199 L32.9942789,13.727825 C32.9073873,15.6370001 31.8387119,17.3726219 30.1606343,18.3032186 C30.0574747,17.4276897 29.7165165,16.5973612 29.1749374,15.9027705 C30.230544,15.1722024 30.6894585,13.8382302 30.3075086,12.6106131 C29.9437468,11.441454 28.8978389,10.6276326 27.6909983,10.5533232 L27.5088303,10.5477711 L23.945157,10.5477711 L23.9068149,10.6360624 C23.3769741,11.7625581 22.233924,12.5421433 20.9092505,12.5421433 C19.0799394,12.5421433 17.5969897,11.0554512 17.5969897,9.22152359 C17.5969897,7.38759595 19.0799394,5.90090385 20.9092505,5.90090385 Z M17.9678645,0.196571945 L18.1846167,0.26085122 L18.4102965,0.339538227 C20.1966453,1.00617753 21.5180982,2.55663955 21.8889614,4.44263169 C21.0262817,4.27355408 20.1338564,4.3451698 19.3089896,4.64967033 C18.9378097,3.41887295 17.8113171,2.5731283 16.528779,2.56235237 C15.3073141,2.55208958 14.2147057,3.30143989 13.7750483,4.4305019 L13.7140623,4.60266155 L12.6241006,8.00617439 C13.3137911,8.61470657 13.7489807,9.50628411 13.7489807,10.4997622 C13.7489807,12.3336898 12.2660311,13.8203819 10.4367199,13.8203819 C8.60740882,13.8203819 7.12445916,12.3336898 7.12445916,10.4997622 C7.12445916,8.74616499 8.48034051,7.31005007 10.1984243,7.18760399 L11.2787525,3.81651483 C12.1909336,1.00179133 15.1461847,-0.578423046 17.9678645,0.196571945 Z" id="Combined-Shape" fill="#F69953"></path>
                        <circle id="dot" fill="#F69953" cx="44" cy="7" r="3"></circle>
                        <path d="M42,11.7014 L47.0658701,11.7014 L47.0658701,28.9976204 L42,28.9976204 L42,11.7014 Z M120,4.43975227 L120,9.02097377 L113.308,9.02 L113.308172,28.7780633 L107.738314,28.7780633 L107.738,9.02 L101.004487,9.02097377 L101.004487,4.43975227 L120,4.43975227 Z M72.8652086,16.2297652 L72.8652086,16.5184421 C72.8652086,19.7148953 72.8652086,22.9116873 72.8652086,26.1088182 C72.8762035,26.3053889 72.7745174,26.4907301 72.6042153,26.5845252 C71.9523503,27.0501816 71.2582153,27.4514762 70.5312684,27.782941 C70.1312787,27.9598065 69.7182893,28.1163426 69.3022999,28.2555987 C68.4353873,28.5642291 67.5359869,28.7689086 66.6223687,28.8654795 C66.1223815,28.9244347 65.6223943,28.9671263 65.1164073,28.9823733 C64.3105419,29.024071 63.5026186,28.9917517 62.7024692,28.8858089 C62.202482,28.8116067 61.6904951,28.7465528 61.1905079,28.6489718 C60.8515166,28.5818849 60.523525,28.4629582 60.1905336,28.371476 C59.3289504,28.1257735 58.4973815,27.7820675 57.7115971,27.3468762 C55.6403541,26.2578702 53.9524851,24.5425165 52.880721,22.4373356 C52.4600072,21.6230675 52.1402425,20.7589149 51.9287454,19.8646549 C51.8007487,19.3147457 51.7137509,18.7597542 51.633753,18.1986638 C51.5441208,17.3612934 51.521613,16.5178793 51.5667547,15.6768066 C51.5948851,15.2226329 51.6493113,14.770538 51.7297505,14.3228711 C51.7597498,14.105347 51.8047486,13.8898557 51.8427476,13.6743645 C51.9804179,12.9405838 52.1932376,12.2234583 52.4777313,11.5346993 C53.1575741,9.81222513 54.2524196,8.29107 55.6616497,7.11103031 C56.4810917,6.42761425 57.3897004,5.86285278 58.3615805,5.43284156 C58.8642726,5.19663943 59.3870859,5.0074725 59.9235404,4.86768532 C60.4235276,4.74469269 60.9235148,4.59628835 61.4315018,4.5058227 C61.958287,4.41299312 62.4897716,4.3502127 63.0234609,4.31777611 C63.8589828,4.25151992 64.6986721,4.26172565 65.5323966,4.34827015 C66.1163816,4.41840644 66.7003667,4.49769095 67.2793518,4.60035422 C67.6193465,4.66978187 67.9552072,4.75869531 68.285326,4.86666885 C68.6093177,4.96831566 68.9283095,5.07606127 69.2483013,5.18482335 C69.8760305,5.40631661 70.479287,5.69384244 71.0482552,6.04272239 C71.6285566,6.38989533 72.175892,6.79108932 72.6832133,7.24113822 C72.7242122,7.27773107 72.7652111,7.31330745 72.8062101,7.3499003 C72.9982052,7.52676574 73.006205,7.55319391 72.8652086,7.76156986 C72.6198815,8.14172891 72.3735545,8.52188796 72.1262275,8.90204701 C71.874234,9.28932134 71.6262404,9.6786286 71.367247,10.0608206 C71.0697755,10.5618776 70.5044256,10.8311561 69.9352837,10.7428707 C69.7068988,10.7020319 69.4866484,10.623398 69.2833004,10.5100995 C68.794313,10.2580154 68.3213251,9.97543727 67.8353376,9.71827086 C67.2825878,9.43824404 66.6948557,9.23613821 66.0883823,9.11753824 C65.1974243,8.93693327 64.2866351,8.87881362 63.3804518,8.94473867 C61.856364,9.00405014 60.4092316,9.64074693 59.3235558,10.7296566 C58.665943,11.3902546 58.1569459,12.1878437 57.8315941,13.0675331 C57.6803888,13.4692097 57.5502099,13.8787418 57.4416041,14.29441 C57.3842788,14.5691998 57.3428753,14.8471739 57.3176072,15.1268974 C57.3116074,15.1655231 57.3176072,15.2061819 57.3076075,15.2448076 C57.2043943,16.0480709 57.1776044,16.8595779 57.2276095,17.6680675 C57.3366068,18.0217984 57.2846081,18.4009409 57.4006051,18.7577212 C57.4726033,18.9772783 57.4716033,19.2212307 57.5366016,19.4448536 C57.6365991,19.782321 57.7505961,20.1157225 57.8775929,20.4430253 C58.1046263,21.0289663 58.4127213,21.5789937 58.7925694,22.0764894 C59.1428292,22.5371748 59.5528821,22.9474944 60.0115382,23.2962511 C60.7768154,23.8746628 61.6568617,24.276678 62.590472,24.4743375 C63.4692996,24.6751174 64.3742495,24.7303787 65.2704033,24.6379889 C66.0853414,24.5390419 66.8838768,24.3312451 67.6453424,24.0199763 C67.7601437,23.9886063 67.8352924,23.8768292 67.8223379,23.7567111 C67.8223379,22.6724785 67.8223379,21.5858742 67.8223379,20.4968981 C67.8223379,20.2936044 67.7943386,20.2692092 67.5883439,20.2681927 C67.0533576,20.2681927 66.5183713,20.2681927 65.983385,20.2681927 C65.7273916,20.2681927 65.4713982,20.2681927 65.2154047,20.2590445 C64.8017323,20.2228213 64.4626324,19.9105603 64.386426,19.495677 C64.3701998,19.3710054 64.3625148,19.2453384 64.3634266,19.1195839 C64.3634266,18.2535531 64.3634266,17.3875223 64.3634266,16.5214915 C64.3634266,16.474734 64.3634266,16.42696 64.3634266,16.3802025 C64.3634266,16.2785557 64.4074255,16.2165511 64.5164227,16.218584 C64.5634215,16.218584 64.6094203,16.218584 64.6564191,16.218584 L72.5422169,16.218584 C72.6422143,16.2135017 72.733212,16.2226499 72.8652086,16.2297652 Z M88.8187995,4.04332973 C89.606547,4.10883964 90.3856051,4.25632186 91.1437399,4.4834604 C92.3930406,4.84442084 93.578319,5.40395254 94.6556499,6.14131979 C96.4281947,7.3449618 97.8552684,9.0046079 98.7915438,10.9512466 C99.1512675,11.6908008 99.4244584,12.470672 99.6055229,13.2748926 C99.7295198,13.8410653 99.7775185,14.422485 99.8485167,15.0028882 C99.9308415,15.9277373 99.9548899,16.8569917 99.9205149,17.7849613 C99.9088274,18.098176 99.8463209,18.4072772 99.7355196,18.6997825 C99.7068266,18.8197653 99.5925838,18.8974777 99.4725263,18.8786809 C99.172534,18.8654668 98.8725417,18.8471704 98.5665496,18.8471704 C97.5045768,18.8471704 96.442604,18.861401 95.3806313,18.8603845 C94.7996462,18.8603845 94.2186611,18.8370057 93.637676,18.828874 C93.5370184,18.8275709 93.4364948,18.8367672 93.3376836,18.8563186 C93.2440882,18.8657222 93.1727458,18.945713 93.1726879,19.0413158 C93.2931226,19.1358977 93.4395966,19.1899103 93.5916771,19.195819 C95.2158529,19.3165235 96.8462032,19.325353 98.471552,19.2222471 C98.7715443,19.2019178 99.0715366,19.1988684 99.3775288,19.1917531 C99.4527455,19.1960279 99.5275855,19.2055372 99.601523,19.2202142 C99.5685239,19.4041949 99.5535243,19.5678463 99.5105254,19.7284482 C99.1468287,21.1141592 98.5110924,22.4107525 97.6415733,23.5402034 C97.6225738,23.5645986 97.6005743,23.5879774 97.5835748,23.6133891 C97.4341781,23.8314541 97.1720959,23.9391327 96.9155919,23.8878355 C96.4286044,23.8522591 95.9396169,23.8492097 95.4516294,23.8400615 C95.2728888,23.8242639 95.1046415,23.927864 95.0356401,24.0962114 C95.1131934,24.2042863 95.2404632,24.2635804 95.3716315,24.2527475 C95.6816235,24.2639287 95.9916156,24.2669781 96.3016077,24.2710439 L96.9545909,24.2710439 L96.9545909,24.2710439 C96.9400554,24.3274498 96.9171246,24.3812662 96.8865927,24.4306294 C96.4386041,24.8982047 95.9936155,25.3698459 95.5326274,25.8242071 C95.3698419,25.9694803 95.192935,26.0975373 95.0046409,26.2063991 C94.8506449,26.3080459 94.7866465,26.2643378 94.7716469,26.0752747 C94.7377098,25.5482671 94.595309,25.0343716 94.3536576,24.5668361 C94.0923448,24.0872947 93.6710086,23.7184931 93.1656881,23.5269893 C92.9526935,23.4385566 92.7286993,23.3796014 92.5097049,23.3074322 C92.3883359,23.2618611 92.2815013,23.1834887 92.2007128,23.0807598 C92.271711,22.9974095 92.3447091,22.9089767 92.4217071,22.822577 C92.6921284,22.5412905 92.9193368,22.2202138 93.0956899,21.8701464 C93.3497076,21.35916 93.3114362,20.7483888 92.9956924,20.2742916 C92.8106221,19.9846058 92.5957512,19.7157611 92.3547089,19.4722983 C92.171031,19.2913545 92.0770474,19.0361001 92.0987154,18.7770341 C92.115715,18.1874826 92.0917156,17.5969147 92.0817159,17.0073632 C92.0817159,16.8040696 92.0647163,16.600776 92.0627163,16.3974824 C92.0598694,16.1197167 92.1497609,15.8491772 92.3177098,15.630049 C92.862865,14.9149604 93.4648729,14.2465887 94.1176636,13.6316728 C94.2636599,13.4903838 94.4056563,13.3460453 94.5426528,13.1966245 C94.6036512,13.1295376 94.6816492,13.054319 94.6356504,12.9475899 C94.5846512,12.845833 94.4743414,12.7897684 94.3636573,12.8093502 L91.063742,12.8591571 L90.8997462,12.8469595 C90.8237481,12.6436659 90.75175,12.4403723 90.6777519,12.2472434 C90.52188,11.7811201 90.2059003,11.3877507 89.7877747,11.1392932 C89.5692039,11.0076609 89.3306237,10.9138838 89.0817928,10.8617974 C88.9317966,10.8333363 88.7818005,10.7845458 88.5968052,10.7347389 C88.7158022,10.5964993 88.8147996,10.4806219 88.915797,10.3667775 C89.0167944,10.2529331 89.0987923,10.1736485 89.1847901,10.0730182 C89.4875787,9.71314941 89.574484,9.21463896 89.4117843,8.77092263 C89.2292356,8.17929312 88.7418334,7.737339 88.1428169,7.6202808 C87.4652283,7.40423427 86.7268301,7.53122016 86.1568678,7.96181407 C85.7038154,8.28692923 85.4517715,8.82981318 85.4928848,9.39198461 C85.5026434,9.60684335 85.5841162,9.8119132 85.7238789,9.97340434 C85.8678752,10.1472204 86.029871,10.3057894 86.1818671,10.4735066 C86.2368657,10.5344947 86.2818646,10.6005651 86.3588626,10.6920472 C86.1988667,10.7611671 86.0728699,10.8099575 85.9498731,10.8689127 C85.7348786,10.9705595 85.5148842,11.0722063 85.3098895,11.193166 C84.8938763,11.4654369 84.5978283,11.8909665 84.4839107,12.3804007 C84.2472491,13.2147808 84.1792176,14.0892274 84.2839158,14.9510484 C84.2823398,15.087129 84.3375719,15.217514 84.4359119,15.3098616 C84.5609087,15.2712358 84.5739084,15.1645067 84.5959078,15.0547281 C84.6653336,14.6671955 84.6958229,14.2734926 84.6869055,13.8796911 C84.6869055,13.6763974 84.6869055,13.4731038 84.6969052,13.2698102 C84.7157457,12.7170462 84.9038163,12.1840369 85.2348914,11.7451081 C85.3987077,11.5230586 85.6316998,11.3639742 85.8958745,11.2937963 C86.0960467,11.2384665 86.2919111,11.1681377 86.4818594,11.0833874 C86.6184077,11.0222107 86.7144596,10.8940148 86.7361882,10.7439471 C86.7579169,10.5938793 86.7022744,10.4429888 86.5888567,10.3444152 C86.5278397,10.2857676 86.4607884,10.2339681 86.3888618,10.189912 C85.9364214,9.92953433 85.7439234,9.36860475 85.9388734,8.87866825 C86.0381453,8.48071845 86.3364971,8.16546912 86.7238532,8.04923032 C87.0580341,7.92762503 87.4159619,7.88894179 87.7678265,7.93640236 C88.1062542,7.96898841 88.4286854,8.09832609 88.6978026,8.30944614 C89.1030261,8.66548165 89.2398046,9.24451964 89.0377939,9.7487649 C88.9794665,9.86768307 88.8977893,9.97319331 88.7978001,10.0587877 C88.7098023,10.1451874 88.5978052,10.2051591 88.4978077,10.28546 C88.4314269,10.3392283 88.3731442,10.4025818 88.3248122,10.4735066 C88.2447585,10.5579527 88.2126091,10.6780723 88.2395409,10.7921049 C88.2664728,10.9061374 88.3487653,10.9983296 88.4578088,11.0366299 C88.5993005,11.114636 88.7522712,11.16887 88.9107972,11.1972319 C89.6788037,11.3036054 90.2935709,11.8977996 90.436758,12.672127 C90.4420279,12.7397857 90.4420279,12.8077619 90.436758,12.8754206 C90.3367606,12.8815194 90.2467629,12.8906676 90.1567652,12.8916841 C89.6377785,12.8916841 89.1177919,12.9008323 88.5988052,12.8916841 C88.3807137,12.8923046 88.1709609,12.9769358 88.0118202,13.1285212 C87.7978257,13.3104689 87.5888311,13.4974991 87.3798364,13.6855457 C86.6658547,14.326937 85.9558729,14.9703613 85.2408913,15.6097197 C84.9328992,15.8851825 84.6129074,16.1453983 84.3079152,16.4228941 C84.0625813,16.6289538 83.8631738,16.8857028 83.7229302,17.1760969 C83.7200135,17.1959775 83.7200135,17.2161879 83.7229302,17.2360686 C83.8098825,17.2864082 83.9190921,17.2723247 83.9909233,17.2015086 C84.2279172,17.0124456 84.4649112,16.8233825 84.6969052,16.6272042 C84.821902,16.5255574 84.9338991,16.4005318 85.054896,16.2897368 C85.1088946,16.2399299 85.171893,16.1992711 85.2648906,16.1291348 C85.2978898,16.616023 85.3268891,17.0581866 85.3568883,17.5013667 C85.1799299,17.5452157 85.0056384,17.5995195 84.8349017,17.6640016 C84.586908,17.7737802 84.5249096,17.777846 84.6229071,18.0543253 C84.7088046,18.0563375 84.7947263,18.0515797 84.8799005,18.0400948 C85.1798928,17.9791067 85.4678854,17.9069375 85.7638778,17.8449329 C86.528805,17.6776093 87.325261,17.9120857 87.8838235,18.4690443 C88.1018179,18.6723379 88.2898131,18.9020597 88.489808,19.1216168 C88.5239878,19.1532242 88.5497813,19.1930769 88.564806,19.2374941 C88.6398041,19.5902086 88.7138022,19.942923 88.7788005,20.2976703 C88.8610319,20.8411935 88.7196329,21.3951651 88.3878106,21.8294877 C88.2366423,22.0283142 88.0693983,22.2139569 87.8878234,22.3844792 C87.7698264,22.5084883 87.6348299,22.6172504 87.5188329,22.7432924 C87.0898439,23.2108678 87.3128381,23.6814925 87.8688239,23.839045 C88.2768134,23.9549224 88.6878029,24.0707997 89.0827927,24.2242864 C89.8064626,24.5143621 90.3766463,25.1005912 90.6537525,25.8394541 C90.7908677,26.1958427 90.8992225,26.562983 90.9777442,26.9372396 C91.063742,27.2930034 91.0157432,27.6609649 91.1277403,28.0075805 C91.1334032,28.0470138 91.1334032,28.0870739 91.1277403,28.1265072 C90.963004,28.2194812 90.7790435,28.2717144 90.5907541,28.2789774 C90.4986643,28.2849209 90.4074732,28.3009381 90.3187611,28.3267514 C90.2657624,28.3379326 90.2187636,28.3592784 90.1617651,28.3674102 C89.9407707,28.4019701 89.7197764,28.4436453 89.4967821,28.4639746 C88.9634625,28.5114098 88.4301428,28.5520685 87.8968232,28.5859508 C87.6568293,28.6011978 87.6258301,28.549358 87.5638317,28.323702 C87.4070378,27.6426343 87.1523046,26.9887897 86.8078511,26.3832645 C86.336477,25.639275 85.6813592,25.0339857 84.9078998,24.6278242 C84.421182,24.3673941 83.9026921,24.1735986 83.3659393,24.0514868 C83.1109459,23.9915152 82.8479526,23.9681364 82.5899592,23.9203625 C82.343523,23.8898925 82.1121659,23.7834793 81.9269762,23.615422 C81.7479808,23.4375401 81.740981,23.3165804 81.9269762,23.1366656 C82.0509357,23.0182958 82.182924,22.9089256 82.3219661,22.8093629 C82.8844292,22.4156654 83.3660541,21.9143579 83.7399297,21.3334513 C84.1689975,20.6667529 84.3099853,19.8502346 84.1299197,19.0748593 C83.9914589,18.5181862 83.7745544,17.9847838 83.4859363,17.491202 C83.2025134,17.0289591 82.8113026,16.6449119 82.3469655,16.3730872 C81.9339451,16.0968503 81.482174,15.885745 81.0069998,15.7469429 C80.5109623,15.5944974 79.9962184,15.5140789 79.478039,15.5080729 C79.0058565,15.4958885 78.5339157,15.5405855 78.0720751,15.6412302 C77.4770706,15.7818139 76.9155213,16.0413052 76.4201174,16.4045977 C76.2581216,16.5245409 76.0971257,16.64855 75.9341299,16.7674768 C75.8749585,16.8052524 75.8135051,16.8392018 75.7501346,16.8691236 C75.7352758,16.7929094 75.7249242,16.7158585 75.7191354,16.6383853 L75.7191354,15.2214289 L75.7191354,15.2214289 C75.7279829,15.0962862 75.745695,14.9719548 75.772134,14.8494016 C75.7791339,14.802644 75.7971334,14.7579194 75.8031333,14.7111619 C75.8431322,14.4062215 75.8761314,14.1063634 75.9221302,13.8065054 C75.9493766,13.6369665 75.9867785,13.4692762 76.0341273,13.3043701 C76.374343,12.0481064 76.8942095,10.8494387 77.5770878,9.74673196 C78.2770744,8.62969091 79.1410448,7.62806667 80.1390221,6.77661232 C80.9881318,6.04335561 81.9424464,5.44624038 82.9689495,5.00592498 C83.838159,4.63873313 84.7431839,4.3661546 85.6688803,4.19275054 C86.7079599,4.00361347 87.7669072,3.95338083 88.8187995,4.04332973 Z M79.5510372,15.8516391 C79.6740821,15.8607059 79.7963676,15.8783664 79.9170278,15.9044954 C79.9780262,15.9146601 80.0380247,15.9360059 80.0990231,15.9421047 C80.8224115,16.0334503 81.5137139,16.2997531 82.1149714,16.7186863 C82.5717892,17.0037586 82.9695352,17.3766458 83.2859414,17.8164718 C83.4749835,18.1009566 83.6165482,18.4152006 83.7049306,18.7465401 C83.8190215,19.1569131 83.8395412,19.58833 83.7649291,20.0079769 C83.6510735,21.0080459 83.0844809,21.896765 82.2329684,22.4109074 C82.0729725,22.5054389 81.9159765,22.6081022 81.7649804,22.7158478 C81.5126769,22.8865184 81.3795638,23.1895783 81.4229892,23.4944623 C81.445366,23.821535 81.6798454,24.0931591 81.9959745,24.158216 C82.3789646,24.253764 82.7599549,24.3615096 83.1489449,24.4265635 C84.3480091,24.60158 85.4403289,25.2232236 86.2138663,26.1708227 C86.6375471,26.673282 86.9396016,27.2696014 87.0958437,27.9120325 C87.1438425,28.1204084 87.201841,28.323702 87.2538396,28.5412262 C87.0861814,28.5955777 86.9066337,28.5994608 86.7368529,28.5524074 C86.5838568,28.5290286 86.4298608,28.5137816 86.2778647,28.4863369 C85.967206,28.43077 85.6568806,28.3721537 85.3468885,28.310488 C85.1588934,28.2728786 84.9718982,28.2291705 84.7859029,28.182413 C84.5409092,28.1214249 84.2929156,28.0665356 84.0529217,27.9872511 C83.652932,27.8551103 83.2439425,27.7260188 82.8529525,27.561351 C82.0399194,27.2126418 81.277558,26.7526733 80.5870106,26.1942015 C79.8221436,25.5656445 79.1075831,24.876346 78.4500654,24.1328043 C78.0485597,23.6637592 77.7012996,23.1494543 77.4150919,22.5999705 C77.0096414,21.8868234 76.6589423,21.1429316 76.3661188,20.3749219 C76.2291223,20.0100099 76.123125,19.6339167 76.009128,19.256807 C75.9412591,19.0421153 75.884516,18.8239526 75.8391323,18.6032181 C75.8256294,18.5046815 75.8174125,18.405508 75.8145062,18.3061374 L75.814133,17.7788625 L75.814133,17.7788625 C75.8068845,17.4850446 75.9389554,17.2055792 76.1691239,17.0276926 C76.5611304,16.6817402 77.0086062,16.4066948 77.4920899,16.2145182 C77.8229922,16.0881406 78.1648086,15.993535 78.5130638,15.93194 C78.8554732,15.869403 79.2032608,15.842497 79.5510372,15.8516391 Z M87.6138304,14.4438006 C89.2137894,14.4512849 90.8104151,14.4604331 92.4037076,14.4712755 C92.503705,14.4712755 92.5957027,14.4905884 92.7176995,14.502786 C92.6287018,14.7233595 92.5607036,14.9225873 92.3587088,15.01102 C92.0065796,15.1629886 91.7765,15.5126031 91.7727238,15.901446 L91.7598504,16.1253862 L91.7598504,16.1253862 L91.7597241,19.0626616 L91.7597241,19.0626616 C91.65915,19.059612 91.5589084,19.0494225 91.4597318,19.0321676 C91.0476184,18.9152912 90.6098641,18.9323509 90.2077639,19.0809581 C90.1150519,19.120304 90.0305515,19.1772219 89.9587703,19.2486753 C89.8587729,19.3432068 89.8857722,19.4519689 90.0187687,19.465183 C90.1495471,19.4741943 90.2809217,19.4663389 90.4097587,19.4418042 C90.7599717,19.3746911 91.1170833,19.3524943 91.4727315,19.3757338 C91.8632013,19.4201769 92.215378,19.6349683 92.4377067,19.9642688 C92.6230529,20.1964627 92.7561635,20.4670749 92.8276967,20.7571139 C92.9784791,21.2737021 92.8435537,21.8327958 92.4747058,22.2198114 C92.3217097,22.375331 92.1747135,22.5339 92.0247173,22.6965349 C91.9131365,22.7870429 91.8440755,22.9210211 91.8343778,23.065793 C91.8246801,23.2105648 91.8752373,23.3528223 91.9737186,23.4578695 C92.0749466,23.5525165 92.2023782,23.613202 92.3387093,23.6316855 C92.7327536,23.7040278 93.1097335,23.8516504 93.4496808,24.0667339 C93.7722738,24.3002726 94.0165979,24.6288096 94.1496628,25.0079833 C94.2780662,25.4167363 94.3763356,25.8346446 94.4436553,26.258239 C94.4905316,26.4119643 94.4348482,26.5788988 94.3056588,26.6719415 C93.9203699,26.9880445 93.4977827,27.2540423 93.0476911,27.4637701 C92.6807005,27.6447014 92.2977103,27.7941222 91.9147201,27.9384607 C91.7758406,27.9724842 91.633583,27.9902186 91.490731,27.991317 C91.450732,27.7280518 91.4197328,27.4891818 91.3767339,27.2523447 C91.3217353,26.9535031 91.2537371,26.6577109 91.1957386,26.3598858 C91.1262698,26.0395782 91.0156574,25.7299495 90.866747,25.4389657 C90.516015,24.6539813 89.8489536,24.0611385 89.0367939,23.8126168 L87.9768211,23.5005611 L87.9768211,23.5005611 C87.8775119,23.4623586 87.7803651,23.4185832 87.6858286,23.3694368 C87.6912188,23.166179 87.7783175,22.9740463 87.9268224,22.837824 C88.0060913,22.762845 88.089562,22.6925913 88.176816,22.6274151 C88.6531326,22.2420799 88.9780503,21.6961856 89.0927925,21.0884825 C89.1526017,20.8122192 89.179461,20.5296393 89.1727904,20.2468469 C89.1840386,19.8270118 89.0550297,19.4156867 88.8067998,19.0799416 C88.7383301,18.9753352 88.6771809,18.8659646 88.6238045,18.7526389 C88.390273,18.3788128 88.0671864,18.0713822 87.6848286,17.8591635 C87.6328299,17.82562 87.5848312,17.7900436 87.5278326,17.7575167 C87.4101148,17.6920092 87.3414979,17.5620773 87.3528371,17.4261481 C87.3528371,16.520475 87.3448373,15.6158185 87.3438373,14.7111619 C87.3438373,14.4661931 87.3688367,14.4428144 87.6138304,14.4438006 Z M86.9198482,14.6156139 C86.9914639,15.5589827 86.9974787,16.5063135 86.9378477,17.4505433 L86.537858,17.4505433 C86.3208636,17.4505433 86.1038691,17.4505433 85.8868747,17.4413951 C85.7248788,17.4332634 85.6978795,17.4048023 85.6948796,17.2381015 C85.6875465,16.7583286 85.6848799,16.2785557 85.6868798,15.7987827 C85.6881054,15.7299192 85.7144809,15.6639797 85.7608779,15.6137855 C86.0868696,15.3088451 86.4188611,15.0171188 86.7518525,14.7233595 C86.8051305,14.6832377 86.8612857,14.6472221 86.9198482,14.6156139 Z M93.9376683,13.182394 C93.9019763,13.2643852 93.85914,13.3429664 93.8096715,13.4171981 C93.6370093,13.6286234 93.4593472,13.8359829 93.2766852,14.0392765 C93.2371736,14.0748523 93.188045,14.0975197 93.1356888,14.1043305 C93.0741516,14.1100379 93.0122308,14.1100379 92.9506936,14.1043305 L87.5568319,14.1043305 C87.57136,14.0427678 87.5935377,13.9833351 87.6228302,13.9274651 C87.8959636,13.5355563 88.3326727,13.2948222 88.8047999,13.275909 C89.5094485,13.2603232 90.2140971,13.2420268 90.9187457,13.2210198 C91.7777236,13.1966245 92.6377016,13.1681634 93.4966796,13.1447847 C93.6446604,13.1265948 93.794738,13.1393941 93.9376683,13.182394 Z" id="Combined-Shape" fill="#FFFFFF"></path>
                    </g>
                </g>
            </g>
        </g>
    </g>
</svg>