<?xml version="1.0" encoding="UTF-8"?>
<svg width="39px" height="32px" viewBox="0 0 39 32" version="1.1" xmlns="http://www.w3.org/2000/svg" xmlns:xlink="http://www.w3.org/1999/xlink">
    <title>Icons/Hubs/Learn</title>
    <g id="V2" stroke="none" stroke-width="1" fill="none" fill-rule="evenodd">
        <g id="Color-Option----2-P" transform="translate(-289.000000, -2718.000000)">
            <g id="Group-65" transform="translate(120.000000, 2554.000000)">
                <g id="Group-64" transform="translate(0.000000, 68.000000)">
                    <g id="Group-12" transform="translate(41.000000, 66.000000)">
                        <g id="Group-9" transform="translate(92.000000, 0.000000)">
                            <g id="Icons/Hubs/Learn" transform="translate(34.000000, 24.000000)">
                                <path d="M7.33333333,24.1633333 L7.33333333,29.315 C7.33333333,30.6533333 8.06666667,31.9 9.24,32.5416667 L18.4066667,37.5466667 C19.5066667,38.1516667 20.8266667,38.1516667 21.9266667,37.5466667 L31.0933333,32.5416667 C32.2666667,31.9 33,30.6533333 33,29.315 L33,24.1633333 L21.9266667,30.2133333 C20.8266667,30.8183333 19.5066667,30.8183333 18.4066667,30.2133333 L7.33333333,24.1633333 Z" id="Path" fill="#0074B6" opacity="0.5"></path>
                                <rect id="Size" fill="#D8D8D8" opacity="0" x="0" y="0" width="44" height="44"></rect>
                                <path d="M18.4066667,6.45333333 L2.95166667,14.8866667 C1.68666667,15.5833333 1.68666667,17.4166667 2.95166667,18.1133333 L18.4066667,26.5466667 C19.5066667,27.1516667 20.8266667,27.1516667 21.9266667,26.5466667 L36.6666667,18.4983333 L36.6666667,29.3333333 C36.6666667,30.3416667 37.4916667,31.1666667 38.5,31.1666667 C39.5083333,31.1666667 40.3333333,30.3416667 40.3333333,29.3333333 L40.3333333,17.5816667 C40.3333333,16.9033333 39.9666667,16.2983333 39.38,15.9683333 L21.9266667,6.45333333 C20.8266667,5.86666667 19.5066667,5.86666667 18.4066667,6.45333333 Z" id="Path" fill="#0074B6"></path>
                            </g>
                        </g>
                    </g>
                </g>
            </g>
        </g>
    </g>
</svg>