<?xml version="1.0" encoding="UTF-8"?>
<svg width="378px" height="352px" viewBox="0 0 378 352" version="1.1" xmlns="http://www.w3.org/2000/svg" xmlns:xlink="http://www.w3.org/1999/xlink">
    <title>Group 49</title>
    <defs>
        <linearGradient x1="94.0742121%" y1="61.7045066%" x2="4.27940882%" y2="61.7045066%" id="linearGradient-1">
            <stop stop-color="#F78955" offset="0%"></stop>
            <stop stop-color="#E6500F" offset="100%"></stop>
        </linearGradient>
        <rect id="path-2" x="-9.09494702e-13" y="-0.112" width="201" height="235"></rect>
        <linearGradient x1="36.9590964%" y1="50.563091%" x2="94.3536938%" y2="51.0343605%" id="linearGradient-4">
            <stop stop-color="#B45525" offset="0%"></stop>
            <stop stop-color="#A52A08" offset="100%"></stop>
        </linearGradient>
        <linearGradient x1="35.8855027%" y1="50.3827104%" x2="93.314565%" y2="50.7083029%" id="linearGradient-5">
            <stop stop-color="#CC5C2B" offset="0%"></stop>
            <stop stop-color="#DC541C" offset="100%"></stop>
        </linearGradient>
    </defs>
    <g id="V2" stroke="none" stroke-width="1" fill="none" fill-rule="evenodd">
        <g id="Color-Option----2-P" transform="translate(-120.000000, -2622.000000)">
            <g id="Group-65" transform="translate(120.000000, 2554.000000)">
                <g id="Group-43" transform="translate(0.000000, 68.000000)">
                    <rect id="Rectangle" fill="url(#linearGradient-1)" x="0" y="0" width="378" height="352"></rect>
                    <g id="Combined-Shape-Copy-2" transform="translate(0.000000, 90.112000)">
                        <mask id="mask-3" fill="white">
                            <use xlink:href="#path-2"></use>
                        </mask>
                        <g id="Mask"></g>
                        <path d="M-47,37.9584495 L-47,200.351154 C-28.8350646,196.9053 -10.4532384,196.9053 8.14547848,200.351154 C26.7441954,203.797008 44.6225318,210.040682 61.7804878,219.082175 L61.7804878,61.6561084 C44.0738282,49.9516017 26.1954918,42.0523821 8.14547848,37.9584495 C-9.90453484,33.8645168 -28.286361,33.8645168 -47,37.9584495 Z M176,39.7940511 L176,203.761596 C158.083839,200.282325 139.953758,200.282325 121.609756,203.761596 C103.265754,207.240867 85.1356731,212.949668 67.2195122,220.888 L67.2195122,63.6346518 C85.6768621,51.8745524 103.806943,43.9276855 121.609756,39.7940511 C139.412569,35.6604166 157.54265,35.6604166 176,39.7940511 Z" id="Combined-Shape-Copy" fill="#C35426" opacity="0.434361049" mask="url(#mask-3)"></path>
                    </g>
                    <path d="M248,247.100196 L248,305.288347 C254.512496,304.053637 261.102752,304.053637 267.770767,305.288347 C274.438782,306.523057 280.848527,308.760275 287,312 L287,255.591482 C280.651805,251.397552 274.242061,248.567124 267.770767,247.100196 C261.299473,245.633268 254.709217,245.633268 248,247.100196 Z M328,248.110865 L328,306.863309 C321.576695,305.616626 315.076695,305.616626 308.5,306.863309 C301.923305,308.109993 295.423305,310.155557 289,313 L289,256.65337 C295.617332,252.439521 302.117332,249.592019 308.5,248.110865 C314.882668,246.629712 321.382668,246.629712 328,248.110865 Z" id="Combined-Shape-Copy-3" fill="#BA5C36" opacity="0.434361049"></path>
                    <path d="M3.63797881e-12,77 C52.4242637,30.9992263 100.413854,5.70970076 143.968771,1.1314235 C209.301146,-5.73599238 260.904134,20.9028765 313.921867,20.9028765 C348.360621,20.9028765 369.258093,15.6740958 376.614283,5.21653453 L377.170582,77 L3.63797881e-12,77 Z" id="Path-2" fill="url(#linearGradient-4)" opacity="0.170270647" transform="translate(188.585291, 38.500000) scale(-1, -1) translate(-188.585291, -38.500000) "></path>
                    <path d="M71.4661719,352 C126.875813,331.859033 168.914278,320.32285 197.581568,317.391453 C229.185717,314.159746 285.205126,332.658494 326.46789,324.629564 C346.169515,320.796012 363.346846,312.586158 377.999884,300 L377.999884,352 L71.4661719,352 Z" id="Path-2" fill="url(#linearGradient-5)" opacity="0.297665551"></path>
                </g>
            </g>
        </g>
    </g>
</svg>