<?xml version="1.0" encoding="UTF-8"?>
<svg width="" height="" viewBox="0 0 130 39" version="1.1" xmlns="http://www.w3.org/2000/svg" xmlns:xlink="http://www.w3.org/1999/xlink">
    <title>KarmayogiBharat_Logo_Horizontal</title>
    <defs>
        <path d="M0,3.00049918 C0.00382294128,4.66052958 1.34703212,6.00329101 3.00049497,6 C4.65357155,6.0027416 5.99617696,4.66014078 6,3.00049918 C5.99868835,2.20340183 5.68203713,1.43947475 5.11970623,0.876773743 C4.55737534,0.314072735 3.79542815,-0.00130849856 3.0014849,6.67107104e-17 C2.20702769,-0.00210063835 1.44431715,0.312930648 0.881343492,0.875717443 C0.318369831,1.43850424 0.00131080832,2.2028841 0,3.00049918" id="path-1"></path>
        <polygon id="path-3" points="0 0 6.31428571 0 6.31428571 4.97528571 0 4.97528571"></polygon>
        <polygon id="path-5" points="0 0 19.9689286 0 19.9689286 22.6961429 0 22.6961429"></polygon>
        <polygon id="path-7" points="0 39 130 39 130 0 0 0"></polygon>
        <polygon id="path-9" points="0 39 130 39 130 0 0 0"></polygon>
        <polygon id="path-11" points="0 39 130 39 130 0 0 0"></polygon>
        <polygon id="path-13" points="0 39 130 39 130 0 0 0"></polygon>
        <polygon id="path-15" points="0 39 130 39 130 0 0 0"></polygon>
        <polygon id="path-17" points="0 39 130 39 130 0 0 0"></polygon>
        <polygon id="path-19" points="0 39 130 39 130 0 0 0"></polygon>
        <polygon id="path-21" points="0 39 130 39 130 0 0 0"></polygon>
        <polygon id="path-23" points="0 39 130 39 130 0 0 0"></polygon>
        <polygon id="path-25" points="0 39 130 39 130 0 0 0"></polygon>
        <polygon id="path-27" points="0 39 130 39 130 0 0 0"></polygon>
        <polygon id="path-29" points="0 39 130 39 130 0 0 0"></polygon>
        <polygon id="path-31" points="0 39 130 39 130 0 0 0"></polygon>
        <polygon id="path-33" points="0 39 130 39 130 0 0 0"></polygon>
        <polygon id="path-35" points="0 39 130 39 130 0 0 0"></polygon>
        <polygon id="path-37" points="0 39 130 39 130 0 0 0"></polygon>
        <polygon id="path-39" points="0 39 130 39 130 0 0 0"></polygon>
        <polygon id="path-41" points="0 39 130 39 130 0 0 0"></polygon>
        <polygon id="path-43" points="0 39 130 39 130 0 0 0"></polygon>
        <polygon id="path-45" points="0 39 130 39 130 0 0 0"></polygon>
        <polygon id="path-47" points="0 39 130 39 130 0 0 0"></polygon>
        <polygon id="path-49" points="0 39 130 39 130 0 0 0"></polygon>
        <polygon id="path-51" points="0 39 130 39 130 0 0 0"></polygon>
        <polygon id="path-53" points="0 39 130 39 130 0 0 0"></polygon>
        <polygon id="path-55" points="0 39 130 39 130 0 0 0"></polygon>
        <polygon id="path-57" points="0 39 130 39 130 0 0 0"></polygon>
        <polygon id="path-59" points="0 39 130 39 130 0 0 0"></polygon>
    </defs>
    <g id="V2" stroke="none" stroke-width="1" fill="none" fill-rule="evenodd">
        <g id="Color-Option----2.3-reduced-white-bg" transform="translate(-120.000000, -9.000000)">
            <g id="KarmayogiBharat_Logo_Horizontal" transform="translate(120.000000, 9.000000)">
                <g id="Group-5" transform="translate(2.000000, 1.000000)" fill="#264092" fill-rule="nonzero">
                    <path d="M35.0220325,13.240998 C33.8534235,13.0613528 32.6726939,12.9724551 31.490399,12.9750995 C31.341855,12.9825373 31.193311,12.9909047 31.0484806,13.0002018 C31.4885422,12.2378357 31.8877542,11.5535656 32.2600426,10.7958481 C35.9476473,10.2296518 38.1284589,10.6405857 38.1284589,10.6405857 C38.1284589,10.6405857 37.2093429,11.2988238 35.0220325,13.240998 M30.2175626,13.0690007 C29.3448666,13.1563939 28.5464426,13.2856243 27.8222907,13.4473947 C28.0711019,12.8904955 28.2753498,12.301986 28.4443186,11.6976714 C28.7943254,11.5600736 28.6244282,10.9613373 29.0106426,10.832107 C29.6633078,10.6452343 32.047439,10.0437088 32.6360446,9.9284242 C32.2739686,10.6573206 31.6500838,13.465989 30.2175626,13.0690007 M29.2520266,7.174609 C32.4076582,5.45928522 34.5114125,5.16735478 34.5114125,5.16735478 C34.5114125,5.16735478 33.5588741,6.29045024 31.6983606,10.0613734 C31.105113,10.1655015 30.5842806,10.297521 29.9362574,10.4657993 C29.4841266,10.607116 29.0552058,10.7549406 28.6467098,10.9074139 C28.9428694,9.63370461 29.1118382,8.41298909 29.252955,7.174609 M35.8566641,13.3878929 C38.5935872,10.9027653 39.7318056,10.3477256 39.7318056,10.3477256 C39.7318056,10.3477256 37.0914361,9.31481244 32.6360446,9.9284242 L32.6982474,9.80105327 C34.8372809,5.40722119 35.9411485,4.24786686 35.9411485,4.24786686 C35.9411485,4.24786686 33.2023686,4.20324055 29.3476518,6.22258106 C29.8851954,1.44384706 30.5267198,0 30.5267198,0 C30.5267198,0 27.1306327,1.17422977 23.5005887,6.27650452 C23.3111951,6.5712241 23.1347991,6.86129512 22.9676872,7.14578784 L23.0855939,8.30049361 C23.2824147,7.93232655 23.1023051,8.04668147 23.3409039,7.65620126 C26.4241203,3.08479366 29.3197998,1.50334881 29.3197998,1.50334881 C29.3197998,1.50334881 28.983719,2.64131971 28.5046646,6.63072585 C27.9244147,6.96356374 27.4230787,7.34102795 26.8056927,7.77334532 C25.1039355,9.09075117 24.2785879,10.271489 23.4040351,11.4503673 L23.5024455,11.5349713 C24.2776595,10.3784062 25.0296635,9.37338447 26.7314207,7.99647687 C27.3423079,7.54463548 28.7813278,6.56285667 29.3476518,6.22258106 C29.2074634,7.41447541 28.9567954,9.67833092 28.6467098,10.9074139 C26.5410987,11.7850646 24.6935827,13.0039207 23.6584167,13.9698944 C24.5506091,13.0513362 26.5903039,12.2406249 28.6467098,11.3332232 C28.468457,11.8975601 28.0850279,12.9351218 27.8222907,13.4473947 C26.2765047,13.8722743 24.6657307,14.5472472 23.7763235,15.1264596 L23.8487387,15.6480296 C24.5728907,15.1320378 25.8754359,14.3343426 27.2169739,13.9085332 C27.0758571,14.8270914 26.3554187,16.2700087 23.9332231,16.6725752 L23.9963543,17.2945544 C25.8178751,16.7283581 26.6255831,15.4658055 27.4416467,14.0089424 C28.1360899,13.8360154 30.1869254,13.1034002 31.0484806,13.0002018 C29.7245822,15.5095021 25.3750283,19.2636904 24.0279199,17.6134466 L24.0901227,18.2261287 C27.3135275,18.2977167 29.0357094,16.249555 30.6279154,13.7021365 L30.9027218,13.6807531 C31.490399,12.9750995 34.8567773,13.2521546 35.8566641,13.3878929 C35.6802681,13.5515227 34.4752049,14.9804943 34.2839545,15.160859 C31.6472986,17.6450569 26.3554187,21.3983155 24.1346859,18.8657724 L24.2033875,19.3417864 C28.4972374,20.6870837 31.8422626,17.1839184 34.7462977,14.420806 C34.9004121,14.2739111 35.0489561,14.2330037 35.1947149,14.0963356 C37.9158553,14.5946627 39.3233096,15.2956677 39.3233096,15.2956677 C39.3233096,15.2956677 37.9455641,15.6880073 34.2254653,17.7259421 C31.1775282,19.3947801 27.6384675,21.4801304 24.2312395,19.6160523 L24.3064399,20.3626132 C27.9847607,22.1309308 31.8264798,19.8503404 35.1464381,18.0113645 C39.426362,15.6387324 41,15.3235591 41,15.3235591 C41,15.3235591 39.2573932,14.0619361 35.8566641,13.3878929" id="Fill-1"></path>
                    <path d="M2.87154114,10.6405857 C2.87154114,10.6405857 5.0514243,10.2287221 8.73902903,10.7958481 C9.11224582,11.5526359 9.51145781,12.236906 9.95151941,13.0002018 C9.80576061,12.9909047 9.65907341,12.9825373 9.50960101,12.9750995 C8.19777184,12.9750995 7.02148906,13.0782979 5.97703908,13.240998 C3.78972873,11.2988238 2.87154114,10.6405857 2.87154114,10.6405857 M8.36302704,9.92749448 C8.95070423,10.0437088 11.3366922,10.6443046 11.988429,10.8311773 C12.373715,10.9613373 12.2047462,11.5600736 12.554753,11.6967417 C12.7246502,12.301986 12.9279697,12.8895658 13.1767809,13.4464649 C12.3865006,13.273388 11.5866756,13.1473458 10.781509,13.0690007 C9.34898782,13.4650592 8.72603143,10.6573206 8.36302704,9.92749448 M12.3514334,10.9074139 C11.9429374,10.7540109 11.5158734,10.607116 11.0637426,10.4657993 C10.4821094,10.3067979 9.89425527,10.1715674 9.30163942,10.0604437 C7.44112585,6.29045024 6.48858747,5.16735478 6.48858747,5.16735478 C6.48858747,5.16735478 8.59141343,5.45928522 11.747045,7.17553872 C11.8872334,8.41298909 12.0571306,9.63277489 12.3514334,10.9074139 M0,15.3235591 C0,15.3235591 1.57178117,15.6396621 5.85356189,18.0104348 C9.17352022,19.8512701 13.0133825,22.130001 16.6926317,20.3626132 L16.7687605,19.6160523 C13.3606041,21.4792007 9.82154341,19.3947801 6.77360627,17.7250124 C3.05257914,15.688937 1.67669037,15.2956677 1.67669037,15.2956677 C1.67669037,15.2956677 3.08414474,14.5946627 5.80435669,14.0963356 C5.95011548,14.2330037 6.09865948,14.2739111 6.25277388,14.4198763 C9.15680902,17.1829887 12.5018342,20.686154 16.7966125,19.3417864 L16.9637245,18.7662929 C14.7420633,21.298836 9.35270142,17.6450569 6.71604547,15.160859 C6.52479507,14.9804943 5.3197319,13.550593 5.1433359,13.3878929 C6.14229428,13.2521546 9.50960101,12.9750995 10.0954214,13.6807531 L10.3720846,13.7021365 C11.9633622,16.249555 13.6846157,18.296787 16.9089489,18.2261287 L16.9711517,17.6134466 C15.6240433,19.2627606 11.4443866,15.5699335 9.95151941,13.0002018 C10.8121462,13.1024705 12.8444137,13.9169006 13.5388569,14.0898276 C14.3539921,15.5476204 15.1811965,16.7283581 17.0036457,17.2945544 L17.0667769,16.6716455 C14.6436529,16.2700087 13.9232145,14.8261617 13.7820977,13.9085332 C15.1245641,14.3343426 16.4280377,15.1311081 17.1494045,15.6470998 L17.2227481,15.1264596 C16.3342693,14.5472472 14.7234953,13.8713446 13.1767809,13.4464649 C12.9140437,12.9351218 12.5306146,11.8975601 12.3514334,11.3322935 C14.4087677,12.2406249 16.4475341,13.0504064 17.3397265,13.9698944 C16.3064173,13.0039207 14.4589013,11.7850646 12.3514334,10.9074139 C12.0422762,9.6774012 11.7916082,7.4135457 11.6504914,6.22165135 C12.2168154,6.56192696 13.6567637,7.54463548 14.2685793,7.99554716 C15.9684797,9.37245475 16.7223405,10.3774764 17.4966261,11.5340416 L17.5950365,11.4503673 C16.7214121,10.271489 15.8960645,9.09075117 14.1933789,7.77334532 C13.5769213,7.34102795 13.0755853,6.96263403 12.494407,6.62979614 C12.016281,2.64131971 11.6802002,1.50334881 11.6802002,1.50334881 C11.6802002,1.50334881 14.5749513,3.08386394 17.6581677,7.65620126 C17.8967665,8.04668147 17.7166569,7.93232655 17.9144061,8.30049361 L18.030456,7.14485813 C17.8652009,6.8603654 17.6869481,6.5712241 17.4994113,6.27650452 C13.8684389,1.17422977 10.4714234,0.000929714786 10.4714234,0.000929714786 C10.4714234,0.000929714786 11.1148046,1.44384706 11.6504914,6.22165135 C7.79855985,4.20417026 5.0597799,4.24879657 5.0597799,4.24879657 C5.0597799,4.24879657 6.16457588,5.40722119 8.30268104,9.80198298 L8.36395544,9.9284242 C3.90763552,9.31574215 1.26819438,10.3486553 1.26819438,10.3486553 C1.26819438,10.3486553 2.40734115,10.9027653 5.1442643,13.3888226 C1.74167837,14.0610064 0,15.3226294 0,15.3226294" id="Fill-3"></path>
                </g>
                <g id="Fill-6-Clipped" transform="translate(19.000000, 14.000000)">
                    <mask id="mask-2" fill="white">
                        <use xlink:href="#path-1"></use>
                    </mask>
                    <g id="path-1"></g>
                    <path d="M0,3.00049918 C0.00382294128,4.66052958 1.34703212,6.00329101 3.00049497,6 C4.65357155,6.0027416 5.99617696,4.66014078 6,3.00049918 C5.99868835,2.20340183 5.68203713,1.43947475 5.11970623,0.876773743 C4.55737534,0.314072735 3.79542815,-0.00130849856 3.0014849,6.67107104e-17 C2.20702769,-0.00210063835 1.44431715,0.312930648 0.881343492,0.875717443 C0.318369831,1.43850424 0.00131080832,2.2028841 0,3.00049918" id="Fill-6" mask="url(#mask-2)"></path>
                </g>
                <g id="Group-54">
                    <polygon id="Fill-9" fill="#264092" fill-rule="nonzero" points="25.4892857 25.7065714 22.0582143 16.7690714 18.6271429 25.7065714 21.0739286 27.8701429 21.1185 24.05 21.9170714 23.3814286 22.9756429 23.8271429 22.997 25.3407143 22.8456429 28.1375714 24.1233571 26.8171429"></polygon>
                    <path d="M22.074,29.302 C22.074,29.302 21.7072143,30.8768571 23.2505,30.8090714 C24.4502143,30.7570714 27.7652143,30.1748571 29.0875,29.9455 C30.4097857,29.7161429 33.0543571,30.6660714 31.4330714,33.7405714 C30.5592857,35.1817143 27.4662143,35.3553571 24.2477857,33.1184286 C21.0302857,30.8833571 19.3170714,29.6725 18.0867143,29.12 C16.4524286,28.3864286 12.4521429,27.6602857 11.6507857,31.6791429 C11.2375714,34.5205714 14.3195,35.0823571 14.3195,35.0823571 C14.3195,35.0823571 12.1828571,34.4045 12.1494286,32.2994286 C12.1271429,30.8545714 13.559,28.5545 16.4533571,29.5415714 C19.3709286,30.537 19.3579286,30.9084286 23.5244286,33.9894286 C26.1188571,35.7286429 30.3345714,37.1447143 32.331,34.2373571 C33.5279286,32.2502143 32.8296429,29.5174286 30.16,29.1942857 C28.1143571,28.9454286 28.2647857,29.7653571 23.6999286,30.4367143 C22.1529286,30.6549286 22.0823571,30.0782857 22.0749286,29.302" id="Fill-11" fill="#1B2133" fill-rule="nonzero"></path>
                    <g id="Fill-13-Clipped" transform="translate(14.255429, 34.024714)">
                        <mask id="mask-4" fill="white">
                            <use xlink:href="#path-3"></use>
                        </mask>
                        <g id="path-3"></g>
                        <path d="M5.29564286,1.40585714 L2.60557143,0.163428571 C1.72544867,-0.244060383 0.681503035,0.136575063 0.270214286,1.01492857 L0.232142857,1.09757143 L1.32507143,1.58321429 C1.32507143,1.58321429 2.158,1.27307143 2.51828571,2.10042857 C3.21657143,2.40592857 3.549,2.57771429 3.549,2.57771429 L3.49885714,2.68635714 L2.47092857,2.22114286 C2.47092857,2.22114286 1.65378571,2.51085714 1.27585714,1.71971429 C0.501428571,1.36407143 0.261857143,1.23778571 0.185714286,1.196 L0.163428571,1.24242857 C-0.0330934119,1.6642642 -0.0534440874,2.14701631 0.106878334,2.58389491 C0.267200756,3.02077351 0.594982351,3.37577066 1.01771429,3.57035714 L3.70778571,4.81278571 C4.58814974,5.2208969 5.63277367,4.84016552 6.04407143,3.96128571 L6.14992857,3.73285714 C6.34637735,3.31129144 6.36667908,2.82880755 6.20633887,2.39222905 C6.04599866,1.95565055 5.71824471,1.6009955 5.29564286,1.40678571" id="Fill-13" fill="#1B2133" fill-rule="nonzero" mask="url(#mask-4)"></path>
                    </g>
                    <path d="M22.087,23.2170714 L22.0749286,23.2170714 C20.8696429,23.2170714 20.9792143,24.6210714 20.9792143,24.6210714 L20.9792143,26.9332143 C20.5353571,26.0659286 18.2733571,24.7037143 18.2733571,24.7037143 L19.9689286,7.97828571 L19.1462143,7.99778571 L17.42,25.4270714 C17.42,25.4270714 21.1222143,27.4077143 21.8214286,30.0049286 L21.8214286,24.9405 C21.574835,24.8238393 21.4423064,24.5516021 21.5025902,24.2855495 C21.562874,24.0194969 21.7998044,23.830974 22.0725994,23.8319996 C22.3453943,23.8330251 22.5809006,24.0233241 22.6391823,24.2898224 C22.6974641,24.5563208 22.5628924,24.8275538 22.3154286,24.9423571 L22.3154286,30.004 C23.1975714,27.1161429 26.6323571,25.4289286 26.6323571,25.4289286 C26.6323571,25.4289286 25.415,12.6257857 24.9200714,7.97642857 L24.206,7.97642857 L24.4037857,9.93292857 L25.9025,24.7018571 C25.9025,24.7018571 23.6405,26.0640714 23.1957143,26.9313571 L23.1957143,24.6192143 C23.1957143,24.6192143 23.2950714,23.2170714 22.1,23.2170714 L22.087,23.2170714 L22.087,23.2170714 Z" id="Fill-16" fill="#EF951E" fill-rule="nonzero"></path>
                    <g id="Fill-18-Clipped">
                        <mask id="mask-6" fill="white">
                            <use xlink:href="#path-5"></use>
                        </mask>
                        <g id="path-5"></g>
                        <path d="M3.09585714,11.6675 C3.09585714,11.6675 5.44607143,10.9051429 9.42035714,11.5152143 C9.82922717,12.3555709 10.2652663,13.1824349 10.7277857,13.9945 C10.5687525,13.9841809 10.4096539,13.974895 10.2505,13.9666429 C8.97596373,13.9642857 7.70314314,14.0602129 6.44335714,14.2535714 C4.08571429,12.1633571 3.09585714,11.6675 3.09585714,11.6675 M6.88721429,5.66892857 C6.88721429,5.66892857 9.2625,5.77107143 12.6629286,7.618 C12.8142857,8.9505 12.9972143,10.3702857 13.3166429,11.7408571 C12.8573448,11.570162 12.3935081,11.4119374 11.9256429,11.2663571 C11.2631356,11.0942896 10.5940331,10.9486979 9.91992857,10.8299286 C7.91421429,6.77114286 6.88721429,5.66985714 6.88721429,5.66985714 M13.5339286,12.5923571 C13.7116987,13.2355381 13.936078,13.8649173 14.2052857,14.4755 C13.3530627,14.2885814 12.4904294,14.1527678 11.622,14.0687857 C11.1653114,13.2869967 10.7372655,12.4888242 10.3387143,11.6758571 C11.014505,11.8087524 11.6843067,11.9704714 12.3462857,12.1605714 C12.7622857,12.2998571 13.1569286,12.4447143 13.5339286,12.5923571 M7.30321429,19.0812143 C3.29178571,16.8879286 1.807,16.5722143 1.807,16.5722143 C1.807,16.5722143 3.32521429,15.6046429 6.25764286,15.0679286 C6.4155,15.2155714 6.57521429,15.3650714 6.7405,15.5229286 C9.90042857,18.525 13.9787143,22.4454286 18.6605714,20.8863571 L18.7348571,20.1565 C14.3919286,21.7387857 10.6497857,18.1758571 7.77864286,15.4746429 C7.58118313,15.2891529 7.38277577,15.1046743 7.18342857,14.9212143 C8.40974008,14.7579939 9.64711136,14.6927874 10.8837857,14.7262143 L11.1809286,14.7503571 C12.9173571,17.5249286 15.2332143,19.8593571 18.7785,19.7247143 L18.8453571,19.0645 C15.7262857,19.1703571 13.6574286,17.2138571 12.1039286,14.8422857 C13.0325,14.9527857 13.8663571,15.1069286 14.6157143,15.2926429 C15.5127143,16.8935 16.8442857,18.1665714 18.876,18.7617857 L18.9428571,18.0932143 C17.4525,17.6001429 16.3892857,16.7022143 15.6213571,15.5758571 C17.1386429,16.0568571 18.2408571,16.6650714 19.0292143,17.2463571 L19.1081429,16.4654286 C18.1377857,15.8154286 16.8331429,15.1719286 15.0985714,14.6965 C14.8146497,14.1348393 14.5785759,13.5502461 14.3928571,12.9489286 C16.6957143,13.9638571 18.1842143,15.1097143 19.1425,16.1292857 L19.2316429,15.2499286 C18.1127143,14.1792857 16.4895714,13.0436429 14.1430714,12.0677143 C13.8087857,10.7445 13.6249286,9.36371429 13.4745,8.08042857 C14.1298999,8.47426825 14.7663683,8.8987871 15.3817857,9.35257143 C17.2946429,10.8986429 18.5602857,12.3565 19.3941429,13.6416429 L19.5027857,12.5793571 C18.5528571,11.2700714 17.2082857,9.84192857 15.301,8.36828571 C14.6736245,7.92957779 14.0270067,7.51905135 13.3630714,7.13792857 C12.8467857,2.84328571 12.272,1.51264286 12.272,1.51264286 C12.272,1.51264286 15.7114286,2.89528571 19.0357143,7.81671429 C19.3347143,8.30607143 19.6021429,8.77871429 19.8407857,9.23557143 L19.9689286,7.97828571 C19.7524489,7.60087186 19.5264237,7.229014 19.2910714,6.86307143 C15.3771429,1.37057143 11.2886429,0 11.2886429,0 C11.2886429,0 11.9822857,1.55442857 12.5607857,6.69778571 C8.40635714,4.52492857 5.45257143,4.57321429 5.45257143,4.57321429 C5.45257143,4.57321429 6.64392857,5.82028571 8.94864286,10.5513571 L9.0155,10.6878571 C4.21292857,10.0276429 1.36592857,11.1391429 1.36592857,11.1391429 C1.36592857,11.1391429 2.5935,11.7362143 5.5445,14.4123571 C1.87664286,15.1357143 0,16.4951429 0,16.4951429 C0,16.4951429 1.69464286,16.835 6.31057143,19.3885714 C9.92828571,21.3905714 14.5553571,23.985 18.5519286,21.9625714 L18.6336429,21.1500714 C14.9305,23.2848571 10.6275,20.8993571 7.30228571,19.0812143" id="Fill-18" fill="#EF951E" fill-rule="nonzero" mask="url(#mask-6)"></path>
                    </g>
                    <path d="M37.609,14.2535714 C36.3491837,14.0605787 35.0763675,13.9649623 33.8018571,13.9675714 C33.6426798,13.9750284 33.4835773,13.984005 33.3245714,13.9945 C33.7870909,13.1824349 34.22313,12.3555709 34.632,11.5152143 C38.6062857,10.9051429 40.9574286,11.6675 40.9574286,11.6675 C40.9574286,11.6675 39.9675714,12.1633571 37.609,14.2535714 M32.4303571,14.0687857 C31.4878571,14.1625714 30.6289286,14.3018571 29.8470714,14.4755 C30.1163571,13.8756429 30.3355,13.2432857 30.5184286,12.5923571 C30.8954286,12.4437857 31.2900714,12.2998571 31.707,12.1605714 C32.3686526,11.9704203 33.0381473,11.8087006 33.7136429,11.6758571 C33.3148969,12.4887242 32.8868547,13.2868898 32.4303571,14.0687857 M31.3894286,7.61707143 C34.7907857,5.77014286 37.1651429,5.66892857 37.1651429,5.66892857 C37.1651429,5.66892857 36.1381429,6.77114286 34.1324286,10.8308571 C33.4583179,10.9492227 32.7892116,11.0945055 32.1267143,11.2663571 C31.6591139,11.4121444 31.1955838,11.5706797 30.7366429,11.7417857 C31.0542143,10.3702857 31.2380714,8.9505 31.3894286,7.61707143 M38.5078571,14.4123571 C41.4588571,11.7362143 42.6864286,11.1391429 42.6864286,11.1391429 C42.6864286,11.1391429 39.8403571,10.0276429 35.0368571,10.6878571 L35.1037143,10.5513571 C37.4084286,5.82028571 38.6007143,4.57228571 38.6007143,4.57228571 C38.6007143,4.57228571 35.6469286,4.52492857 31.4925,6.69778571 C32.071,1.55442857 32.7637143,0 32.7637143,0 C32.7637143,0 28.6752143,1.37057143 24.7612857,6.86307143 C24.557,7.18064286 24.3675714,7.49171429 24.1874286,7.79814286 L24.3137143,9.0415 C24.5263571,8.64592857 24.7594286,8.23735714 25.0175714,7.81671429 C28.34,2.89528571 31.7812857,1.51171429 31.7812857,1.51171429 C31.7812857,1.51171429 31.2065,2.84328571 30.6902143,7.13792857 C30.0254519,7.51867833 29.3781991,7.92921445 28.7504286,8.36828571 C26.9165,9.78621429 25.5997857,11.1632857 24.6572857,12.4317143 L24.7640714,13.4800714 C25.5997857,12.2348571 26.8375714,10.8345714 28.6715,9.35164286 C29.3307857,8.866 29.9677857,8.44628571 30.5787857,8.08042857 C30.4274286,9.36371429 30.2435714,10.7435714 29.9102143,12.0667857 C27.6389286,13.0120714 26.0473571,14.105 24.9330714,15.145 L25.0212857,16.0132143 C25.9823571,15.0233571 27.443,13.9257857 29.6604286,12.948 C29.4748316,13.5496333 29.2381115,14.1342883 28.9528571,14.6955714 C27.287,15.1533571 26.0167143,15.7662143 25.0593571,16.3892857 L25.1373571,17.1627857 C25.9173571,16.6075 26.9852143,16.0336429 28.4319286,15.5758571 C27.6835,16.6725 26.6565,17.5527857 25.2283571,18.0532857 L25.2952143,18.7237143 C27.2600714,18.1136429 28.5572857,16.8619286 29.4366429,15.2926429 C30.186,15.1069286 31.0198571,14.9518571 31.9484286,14.8422857 C30.4162857,17.1822857 28.3808571,19.1183571 25.3305,19.0672857 L25.3964286,19.7265714 C28.873,19.8027143 31.1563571,17.4924286 32.8714286,14.7503571 L33.1685714,14.7271429 C34.4052217,14.6933569 35.642597,14.7582532 36.8689286,14.9212143 C36.6776429,15.0967143 36.4798571,15.2815 36.2746429,15.4746429 C33.4313571,18.1498571 29.7337857,21.6691429 25.4456429,20.202 L25.519,20.9272143 C30.1479286,22.3748571 34.1825714,18.4971429 37.3118571,15.5229286 L37.7956429,15.0679286 C40.7280714,15.6046429 42.2462857,16.5722143 42.2462857,16.5722143 C42.2462857,16.5722143 40.7605714,16.8879286 36.7500714,19.0812143 C33.4647857,20.878 29.2221429,23.2291429 25.5487143,21.2225 L25.6295,22.0257143 C29.5963571,23.9292857 34.1630714,21.3682857 37.7427143,19.3885714 C42.3577143,16.835 44.0532857,16.4951429 44.0532857,16.4951429 C44.0532857,16.4951429 42.1747857,15.1366429 38.5078571,14.4123571" id="Fill-21" fill="#EF951E" fill-rule="nonzero"></path>
                    <path d="M62.2393571,13.8180714 L56.7728571,13.8180714 L56.7728571,15.4486429 C57.213,15.0595714 57.7441429,14.8655 58.3644286,14.8655 C59.2558571,14.8655 59.9736429,15.1422143 60.5205714,15.6947143 C61.0656429,16.2490714 61.3386429,16.9538571 61.3386429,17.8118571 C61.3386429,18.7385714 61.0285,19.4795714 60.4072857,20.033 C59.787,20.5855 58.9902857,20.8631429 58.0199286,20.8631429 C57.8695,20.8631429 57.7543571,20.8575714 57.6745,20.8473571 L57.6745,19.1573571 C57.7348571,19.1675714 57.8147143,19.1722143 57.9140714,19.1722143 C58.3245,19.1722143 58.643,19.0477857 58.8686429,18.7989286 C59.0942857,18.5491429 59.2057143,18.2306429 59.2057143,17.8425 C59.2057143,17.4822143 59.1017143,17.1757857 58.89,16.9213571 C58.6810714,16.6669286 58.3746429,16.5406429 57.9753571,16.5406429 C57.6243571,16.5406429 57.3365,16.6669286 57.1108571,16.9213571 C56.8861429,17.1757857 56.7728571,17.5119286 56.7728571,17.9316429 L56.7728571,22.1789286 L54.6408571,22.1789286 L54.6408571,20.4434286 C54.21,20.8241429 53.6797857,21.0126429 53.0483571,21.0126429 C52.1578571,21.0126429 51.4391429,20.735 50.8940714,20.1825 C50.3480714,19.6290714 50.0750714,18.9233571 50.0750714,18.0653571 C50.0750714,17.1386429 50.3852143,16.3985714 51.0064286,15.8442143 C51.6276429,15.2917143 52.4225,15.015 53.3947143,15.015 C53.534,15.015 53.6500714,15.0196429 53.7392143,15.0298571 L53.7392143,16.7198571 C53.6598844,16.7084916 53.5797691,16.7035232 53.4996429,16.705 C53.0882857,16.705 52.7707143,16.8294286 52.546,17.0782857 C52.3203571,17.329 52.2070714,17.6465714 52.2070714,18.0356429 C52.2070714,18.395 52.3129286,18.7014286 52.5227857,18.9558571 C52.7335714,19.2102857 53.0390714,19.3375 53.4392857,19.3375 C53.7893571,19.3375 54.0781429,19.2102857 54.3028571,18.9567857 C54.5285,18.7014286 54.6408571,18.3652857 54.6408571,17.9465 L54.6408571,13.8180714 L49.1892143,13.8180714 L49.1892143,12.1429286 L62.2393571,12.1429286 L62.2393571,13.8180714 L62.2393571,13.8180714 Z" id="Fill-23" fill="#EF951E" fill-rule="nonzero"></path>
                    <g id="Fill-25-Clipped">
                        <mask id="mask-8" fill="white">
                            <use xlink:href="#path-7"></use>
                        </mask>
                        <g id="path-7"></g>
                        <path d="M65.078,16.6000714 L67.4514286,16.6000714 L67.4514286,13.8180714 L65.078,13.8180714 L65.078,16.6000714 Z M61.3386429,13.8180714 L61.3386429,12.1429286 L71.0255,12.1429286 L71.0255,13.8180714 L69.524,13.8180714 L69.524,22.1789286 L67.4514286,22.1789286 L67.4514286,18.2752143 L65.078,18.2752143 L65.078,20.0998571 L63.2914286,20.0998571 L62.751,18.9038571 C62.4612857,18.2455 62.3155,17.7867857 62.3155,17.5277143 C62.3155,17.0987143 62.5411429,16.8247857 62.9915,16.705 L62.9915,13.8180714 L61.3386429,13.8180714 Z" id="Fill-25" fill="#EF951E" fill-rule="nonzero" mask="url(#mask-8)"></path>
                    </g>
                    <g id="Fill-27-Clipped">
                        <mask id="mask-10" fill="white">
                            <use xlink:href="#path-9"></use>
                        </mask>
                        <g id="path-7"></g>
                        <path d="M69.9892143,10.0192857 C69.6781429,10.0192857 69.4181429,10.1112143 69.2092143,10.296 C68.9975,10.4807857 68.8925714,10.7324286 68.8925714,11.0509286 C68.8925714,11.5003571 69.0829286,11.9237857 69.4627143,12.3221429 L67.3307143,12.3221429 C67.2656792,12.2672756 67.2076688,12.2045869 67.158,12.1355 C67.093,12.051 67.0029286,11.8662143 66.8877857,11.5820714 C66.7731431,11.2995324 66.714485,10.9974113 66.7150671,10.6925 C66.7150671,9.87535714 66.9797143,9.2495 67.5108571,8.81492857 C68.042,8.38128571 68.6873571,8.16492857 69.4478571,8.16492857 C70.1786429,8.16492857 70.7998571,8.28935714 71.3096429,8.53821429 L71.3096429,10.4083571 C70.8091429,10.1483571 70.369,10.0183571 69.9892143,10.0183571" id="Fill-27" fill="#EF951E" fill-rule="nonzero" mask="url(#mask-10)"></path>
                    </g>
                    <g id="Fill-28-Clipped">
                        <mask id="mask-12" fill="white">
                            <use xlink:href="#path-11"></use>
                        </mask>
                        <g id="path-7"></g>
                        <path d="M75.0796429,18.7385714 C75.6507143,18.7385714 76.1010714,18.5742143 76.4316429,18.2445714 C76.7622143,17.9158571 76.9265714,17.4218571 76.9265714,16.7653571 L76.9265714,13.819 L74.9747143,13.819 C75.1855,14.1375 75.2904286,14.5665 75.2904286,15.1050714 C75.2904286,15.7532143 75.1065714,16.2843571 74.7425714,16.6975714 C74.3767143,17.1107857 73.9031429,17.4125714 73.3237143,17.602 C73.5530714,18.3606429 74.139,18.7385714 75.0796429,18.7385714 M74.7193571,20.5929286 C73.7276429,20.5929286 72.8752143,20.2345 72.1583571,19.5157857 C71.4433571,18.798 71.0097143,17.8118571 70.8602143,16.5545714 C72.4220714,16.3363571 73.203,15.8182143 73.203,15.0001429 C73.203,14.5015 73.0572143,14.1077857 72.7675,13.819 L70.1257143,13.819 L70.1257143,12.1438571 L80.5470714,12.1438571 L80.5470714,13.819 L79.0455714,13.819 L79.0455714,22.178 L76.9284286,22.178 L76.9284286,19.6355714 C76.7575714,19.9262143 76.4715714,20.1583571 76.0722857,20.332 C75.6445305,20.5115958 75.1841528,20.6004461 74.7202857,20.5929286" id="Fill-28" fill="#EF951E" fill-rule="nonzero" mask="url(#mask-12)"></path>
                    </g>
                    <g id="Fill-29-Clipped">
                        <mask id="mask-14" fill="white">
                            <use xlink:href="#path-13"></use>
                        </mask>
                        <g id="path-7"></g>
                        <path d="M83.265,12.1429286 L84.7516429,12.1429286 L84.7516429,13.8180714 L83.2492143,13.8180714 L83.2492143,22.1789286 L81.1478571,22.1789286 L81.1478571,13.8180714 L79.6463571,13.8180714 L79.6463571,12.1429286 L80.9983571,12.1429286 L79.9917857,10.6767143 C79.7488526,10.2825112 79.3133686,10.0486467 78.8505714,10.0638571 C78.5404286,10.0638571 78.2191429,10.114 77.8895,10.2133571 L77.8895,8.45 C78.2656199,8.37822569 78.6478125,8.34308513 79.0307143,8.34499172 C79.6417143,8.35528571 80.1570714,8.46578571 80.5777143,8.67378571 C80.9983571,8.88364286 81.3679286,9.23278571 81.6892143,9.72028571 L83.2659286,12.1438571 L83.265,12.1429286 Z" id="Fill-29" fill="#EF951E" fill-rule="nonzero" mask="url(#mask-14)"></path>
                    </g>
                    <g id="Fill-30-Clipped">
                        <mask id="mask-16" fill="white">
                            <use xlink:href="#path-15"></use>
                        </mask>
                        <g id="path-7"></g>
                        <path d="M83.85,12.1429286 L93.5368571,12.1429286 L93.5368571,13.8180714 L92.0344286,13.8180714 L92.0344286,22.1789286 L89.9321429,22.1789286 L89.9321429,13.8180714 L88.2662857,13.8180714 L88.2662857,17.0188571 C88.2662857,17.7366429 88.062,18.2705714 87.6571429,18.6187857 C87.2513571,18.9679286 86.7285714,19.1425 86.0878571,19.1425 C85.6340007,19.1467149 85.1825505,19.0761268 84.7516429,18.9335714 L84.7516429,17.2881429 C84.9717143,17.4088571 85.2168571,17.4673571 85.4870714,17.4673571 C85.9272143,17.4673571 86.1472857,17.238 86.1472857,16.7802143 L86.1472857,13.8180714 L83.85,13.8180714 L83.85,12.1429286 Z" id="Fill-30" fill="#EF951E" fill-rule="nonzero" mask="url(#mask-16)"></path>
                    </g>
                    <g id="Fill-31-Clipped">
                        <mask id="mask-18" fill="white">
                            <use xlink:href="#path-17"></use>
                        </mask>
                        <g id="path-7"></g>
                        <path d="M96.2399286,12.1429286 L97.7572143,12.1429286 L97.7572143,13.8180714 L96.2547857,13.8180714 L96.2547857,22.1789286 L94.1376429,22.1789286 L94.1376429,13.8180714 L92.6342857,13.8180714 L92.6342857,12.1429286 L94.1218571,12.1429286 L94.1218571,11.245 C94.1218571,10.8763571 94.0234286,10.5931429 93.8293571,10.3935 C93.6334286,10.1938571 93.3557857,10.0935714 92.9955,10.0935714 C92.2944286,10.0935714 91.9434286,10.478 91.9434286,11.245 L91.9434286,11.6192143 L89.8114286,11.6192143 L89.8114286,11.1707143 C89.8114286,10.2337857 90.1113571,9.52528571 90.7121429,9.04707143 C91.3129286,8.56792857 92.0743571,8.32928571 92.9955,8.32928571 C93.9268571,8.32928571 94.6994286,8.56607143 95.3150714,9.03964286 C95.9316429,9.51321429 96.239,10.2189286 96.239,11.1567857 L96.239,12.1429286 L96.2399286,12.1429286 Z" id="Fill-31" fill="#EF951E" fill-rule="nonzero" mask="url(#mask-18)"></path>
                    </g>
                    <g id="Fill-32-Clipped">
                        <mask id="mask-20" fill="white">
                            <use xlink:href="#path-19"></use>
                        </mask>
                        <g id="path-7"></g>
                        <path d="M106.812643,16.5248571 L106.812643,12.1429286 L110.386714,12.1429286 L110.386714,13.8180714 L108.885214,13.8180714 L108.885214,22.1789286 L106.812643,22.1789286 L106.812643,18.2 L104.515357,18.2 L104.515357,20.0692143 L102.682357,20.0692143 L102.141929,18.9177857 C101.872643,18.3495 101.737071,17.9112143 101.737071,17.602 C101.737071,17.0838571 101.967357,16.7588571 102.427929,16.6297857 L102.427929,14.4912857 C102.427929,14.0223571 102.195786,13.7874286 101.737071,13.7874286 C101.475214,13.7874286 101.205,13.858 100.9255,13.9972857 L100.9255,12.3667143 C101.324791,12.1629363 101.767992,12.0602668 102.216214,12.0677143 C103.748357,12.0677143 104.515357,12.792 104.515357,14.2368571 L104.515357,16.5248571 L106.812643,16.5248571 Z" id="Fill-32" fill="#264092" fill-rule="nonzero" mask="url(#mask-20)"></path>
                    </g>
                    <g id="Fill-33-Clipped">
                        <mask id="mask-22" fill="white">
                            <use xlink:href="#path-21"></use>
                        </mask>
                        <g id="path-7"></g>
                        <polygon id="Fill-33" fill="#264092" fill-rule="nonzero" mask="url(#mask-22)" points="109.486 13.8180714 109.486 12.1429286 114.606143 12.1429286 114.606143 13.8180714 113.105571 13.8180714 113.105571 22.1789286 110.988429 22.1789286 110.988429 13.8180714"></polygon>
                    </g>
                    <g id="Fill-34-Clipped">
                        <mask id="mask-24" fill="white">
                            <use xlink:href="#path-23"></use>
                        </mask>
                        <g id="path-7"></g>
                        <path d="M114.681357,18.3495 L114.681357,16.705 L115.8235,16.705 C116.743714,16.705 117.204286,16.3261429 117.204286,15.5684286 L117.204286,13.819 L113.705429,13.819 L113.705429,12.1438571 L120.869357,12.1438571 L120.869357,13.819 L119.3075,13.819 L119.3075,15.6882143 C119.3075,16.3567857 119.139429,16.9167143 118.804214,17.3707857 C118.469,17.8257857 117.986143,18.1108571 117.355643,18.2306429 C117.282006,18.250255 117.2062,18.2605497 117.13,18.2612857 L120.209143,22.1798571 L117.655571,22.1798571 L114.681357,18.3504286 L114.681357,18.3495 Z" id="Fill-34" fill="#264092" fill-rule="nonzero" mask="url(#mask-24)"></path>
                    </g>
                    <g id="Fill-35-Clipped">
                        <mask id="mask-26" fill="white">
                            <use xlink:href="#path-25"></use>
                        </mask>
                        <g id="path-7"></g>
                        <path d="M130,12.1429286 L130,13.8180714 L128.497571,13.8180714 L128.497571,22.1789286 L126.365571,22.1789286 L126.365571,16.7941429 L125.3135,16.7941429 C124.632857,16.7941429 124.115643,16.9464286 123.76,17.251 C123.404357,17.5546429 123.227,17.9957143 123.227,18.5742143 C123.227,19.7906429 123.752571,20.3988571 124.803714,20.3988571 C124.914214,20.3988571 124.998714,20.3942143 125.059071,20.384 L125.059071,22.1343571 C124.859272,22.1520723 124.658858,22.1619846 124.458286,22.1640714 C123.396929,22.1640714 122.5705,21.8325714 121.980857,21.1705 C121.389357,20.5065714 121.094071,19.6365 121.094071,18.5593571 C121.094071,17.5026429 121.444143,16.6595 122.145214,16.0317857 C122.846286,15.4031429 123.882571,15.0892857 125.254071,15.0892857 L126.365571,15.0892857 L126.365571,13.8180714 L119.967714,13.8180714 L119.967714,12.1429286 L130,12.1429286 L130,12.1429286 Z" id="Fill-35" fill="#264092" fill-rule="nonzero" mask="url(#mask-26)"></path>
                    </g>
                    <g id="Fill-36-Clipped">
                        <mask id="mask-28" fill="white">
                            <use xlink:href="#path-27"></use>
                        </mask>
                        <g id="path-7"></g>
                        <path d="M70.7088571,25.8857857 L70.7088571,26.4095 L70.122,26.4095 L70.122,29.5239286 L69.4627143,29.5239286 L69.4627143,27.3956429 C69.4060611,27.3850988 69.3485546,27.3798145 69.2909286,27.3798571 C69.1098571,27.3798571 68.9752143,27.4281429 68.8879286,27.5256429 C68.7987857,27.6231429 68.7542143,27.7782143 68.7542143,27.9899286 L68.7542143,28.3604286 L68.1014286,28.3604286 L68.1014286,27.9797143 C68.1014286,27.6203571 67.9732857,27.4402143 67.7188571,27.4402143 C67.5928308,27.4369729 67.4731878,27.4955807 67.3985,27.5971429 C67.3177143,27.7020714 67.2759286,27.8608571 67.2759286,28.0744286 C67.2759286,28.353 67.3520714,28.5749286 67.5006429,28.7383571 C67.6501429,28.9017857 67.8757857,28.9835 68.1785,28.9835 C68.2676429,28.9835 68.3363571,28.9797857 68.3837143,28.9723571 L68.3837143,29.5016429 C68.2900192,29.5126433 68.1957671,29.518224 68.1014286,29.5183571 C67.6557143,29.5183571 67.2991429,29.3846429 67.0335714,29.1162857 C66.7670714,28.847 66.6342857,28.4969286 66.6342857,28.0632857 C66.6342857,27.7141429 66.7252857,27.4318571 66.9063571,27.2182857 C67.0874286,27.0065714 67.3362857,26.8997857 67.6529286,26.8997857 C67.8674286,26.8997857 68.042,26.9462143 68.1757143,27.0381429 C68.3048115,27.121031 68.3954152,27.2520887 68.4273571,27.4021429 C68.5239286,27.0455714 68.7987857,26.8663571 69.2537857,26.8663571 C69.3187857,26.8663571 69.3893571,26.8756429 69.4627143,26.8942143 L69.4627143,26.4095 L66.2526429,26.4095 L66.2526429,25.8857857 L70.7088571,25.8857857 L70.7088571,25.8857857 Z" id="Fill-36" fill="#1B2133" fill-rule="nonzero" mask="url(#mask-28)"></path>
                    </g>
                    <g id="Fill-37-Clipped">
                        <mask id="mask-30" fill="white">
                            <use xlink:href="#path-29"></use>
                        </mask>
                        <g id="path-7"></g>
                        <path d="M71.6383571,25.8857857 L72.2242857,25.8857857 L72.2242857,26.4095 L71.6383571,26.4095 L71.6383571,29.5239286 L70.9957857,29.5239286 L70.9957857,26.4085714 L70.4098571,26.4085714 L70.4098571,25.8848571 L70.941,25.8848571 L70.5370714,25.2896429 C70.4454294,25.1292307 70.2732671,25.0319216 70.0885714,25.0361429 C69.9892143,25.0361429 69.8796429,25.0519286 69.7626429,25.0853571 L69.7626429,24.5393571 C69.9167857,24.5142857 70.0412143,24.5012857 70.1377857,24.5012857 C70.5407857,24.505 70.8481429,24.6721429 71.0626429,25.0027143 L71.6383571,25.8848571 L71.6383571,25.8857857 Z" id="Fill-37" fill="#1B2133" fill-rule="nonzero" mask="url(#mask-30)"></path>
                    </g>
                    <g id="Fill-38-Clipped">
                        <mask id="mask-32" fill="white">
                            <use xlink:href="#path-31"></use>
                        </mask>
                        <g id="path-7"></g>
                        <path d="M76.6257143,26.4085714 L74.5986429,26.4085714 L74.5986429,27.0864286 C74.7628304,26.9307483 74.981559,26.8457242 75.2077857,26.8496429 C75.53,26.8496429 75.7881429,26.9471429 75.9831429,27.1412143 C76.1781429,27.3362143 76.2765714,27.5878571 76.2765714,27.8970714 C76.2765714,28.2313571 76.1651429,28.4978571 75.9422857,28.6965714 C75.7175714,28.8943571 75.4371429,28.9937143 75.0972857,28.9937143 C75.0378571,28.9937143 74.9960714,28.9918571 74.9700714,28.9881429 L74.9700714,28.4644286 C74.9923571,28.4681429 75.0257857,28.47 75.0703571,28.47 C75.219896,28.476309 75.3651766,28.4193428 75.4705714,28.3130714 C75.5741247,28.2042868 75.6293714,28.0583015 75.6237857,27.9082143 C75.6281401,27.7659288 75.5772224,27.6274858 75.4817143,27.5219286 C75.3841315,27.4174933 75.2456332,27.3611435 75.1028571,27.3677857 C74.9669854,27.3647744 74.8362734,27.4198288 74.7435,27.5191429 C74.6453733,27.6247689 74.5932611,27.7650708 74.5986429,27.9091429 L74.5986429,29.523 L73.9467857,29.523 L73.9467857,28.8172857 C73.781863,28.9712747 73.5632207,29.0545987 73.3376429,29.0494286 C73.0191429,29.0494286 72.7619286,28.9519286 72.5650714,28.7569286 C72.3682143,28.5619286 72.2688571,28.3112143 72.2688571,28.002 C72.2688571,27.6677143 72.3802857,27.4012143 72.6031429,27.2034286 C72.8278571,27.0037857 73.1082857,26.9044286 73.4481429,26.9044286 C73.5038571,26.9044286 73.5456429,26.9062857 73.5753571,26.91 L73.5753571,27.4337143 C73.5421209,27.429288 73.5085934,27.4274254 73.4750714,27.4281429 C73.3254716,27.4225389 73.1803499,27.4797794 73.0748571,27.586 C72.9718238,27.6950493 72.9169485,27.8409372 72.9225714,27.9908571 C72.9225714,28.145 72.969,28.2731429 73.0637143,28.3762143 C73.1629954,28.4816627 73.3034831,28.5383329 73.4481429,28.5312857 C73.5827368,28.5336808 73.7118935,28.4782314 73.8028571,28.379 C73.9000964,28.2736341 73.95182,28.1341474 73.9467857,27.9908571 L73.9467857,26.4085714 L71.9262143,26.4085714 L71.9262143,25.8848571 L76.6247857,25.8848571 L76.6247857,26.4085714 L76.6257143,26.4085714 Z" id="Fill-38" fill="#1B2133" fill-rule="nonzero" mask="url(#mask-32)"></path>
                    </g>
                    <g id="Fill-39-Clipped">
                        <mask id="mask-34" fill="white">
                            <use xlink:href="#path-33"></use>
                        </mask>
                        <g id="path-7"></g>
                        <path d="M80.1617143,24.9535 L80.1617143,25.5385 C79.800698,25.375785 79.4255353,25.2464829 79.0409286,25.1522143 C78.6509286,25.0565714 78.3333571,25.0082857 78.0863571,25.0082857 C77.9164286,25.0082857 77.7864286,25.0547143 77.6963571,25.1438571 C77.6019587,25.2440976 77.5529347,25.3787458 77.5607857,25.5162143 L77.5607857,25.8848571 L78.1467143,25.8848571 L78.1467143,26.4085714 L77.5607857,26.4085714 L77.5607857,29.523 L76.9126429,29.523 L76.9126429,26.4085714 L76.3257857,26.4085714 L76.3257857,25.8848571 L76.9126429,25.8848571 L76.9126429,25.5050714 C76.9126429,25.1921429 77.0147857,24.9405 77.22,24.7492143 C77.4242857,24.5588571 77.7084286,24.4632143 78.0696429,24.4632143 C78.3946429,24.4632143 78.7196429,24.5040714 79.0446429,24.5867143 C79.3687143,24.6702857 79.7410714,24.7919286 80.1617143,24.9535" id="Fill-39" fill="#1B2133" fill-rule="nonzero" mask="url(#mask-34)"></path>
                    </g>
                    <g id="Fill-40-Clipped">
                        <mask id="mask-36" fill="white">
                            <use xlink:href="#path-35"></use>
                        </mask>
                        <g id="path-7"></g>
                        <path d="M80.5823571,27.274 L79.1987857,27.274 C79.0362857,27.274 78.9555,27.3362143 78.9555,27.4625 C78.9555,27.5869286 79.0177143,27.6927857 79.1430714,27.7819286 C79.3027857,27.7447857 79.4662143,27.7262143 79.6361429,27.7262143 C79.9574286,27.7262143 80.2146429,27.8032857 80.4077857,27.9583571 C80.6027857,28.1115714 80.6993571,28.3019286 80.6993571,28.5257143 C80.6993571,28.6585 80.6807857,28.7634286 80.6436429,28.8395714 L80.0075714,28.8395714 C80.0553298,28.754096 80.0781701,28.6569441 80.0735,28.5591429 C80.0735,28.4746429 80.0335714,28.4022143 79.9537143,28.3437143 C79.8747857,28.2842857 79.7633571,28.2555 79.6194286,28.2555 C79.4086429,28.2555 79.2461429,28.2982143 79.1328571,28.3827143 C79.0252797,28.4537384 78.9607038,28.5741637 78.9610714,28.7030714 C78.9610714,28.8562857 79.0279286,28.9797857 79.1625714,29.0745 C79.2981429,29.1673571 79.5089286,29.2147143 79.7967857,29.2147143 C79.9917857,29.2147143 80.2378571,29.1794286 80.5331429,29.1097857 L80.5331429,29.6446429 C80.2802435,29.7028783 80.0219136,29.7343136 79.7624286,29.7384286 C79.2953571,29.7384286 78.936,29.6344286 78.6871429,29.4264286 C78.4382857,29.2193571 78.3129286,28.9751429 78.3129286,28.6965714 C78.3129286,28.4133571 78.4336429,28.1812143 78.6732143,27.9973571 C78.4187857,27.8497143 78.2906429,27.6463571 78.2906429,27.3845 C78.2813164,27.2048707 78.3638548,27.0327991 78.5097857,26.9276429 C78.6555714,26.8208571 78.8440714,26.7679286 79.0762143,26.7679286 L79.9397857,26.7679286 L79.9397857,26.4085714 L77.8477143,26.4085714 L77.8477143,25.8848571 L81.1525,25.8848571 L81.1525,26.4085714 L80.5823571,26.4085714 L80.5823571,27.274 L80.5823571,27.274 Z" id="Fill-40" fill="#1B2133" fill-rule="nonzero" mask="url(#mask-36)"></path>
                    </g>
                    <g id="Fill-41-Clipped">
                        <mask id="mask-38" fill="white">
                            <use xlink:href="#path-37"></use>
                        </mask>
                        <g id="path-7"></g>
                        <path d="M84.474,25.8857857 L84.474,26.4095 L83.8871429,26.4095 L83.8871429,29.5239286 L83.239,29.5239286 L83.239,27.4894286 L82.7960714,27.4894286 C82.2324286,27.4894286 81.9501429,27.7345714 81.9501429,28.223 C81.9501429,28.4579286 82.0049286,28.6408571 82.1154286,28.7736429 C82.2268571,28.9064286 82.3930714,28.9723571 82.6131429,28.9723571 C82.6485183,28.9731565 82.6839039,28.9712941 82.719,28.9667857 L82.719,29.5072143 C82.6526488,29.5138647 82.5860363,29.5175826 82.5193571,29.5183571 C82.1395714,29.5183571 81.8415,29.3976429 81.6232857,29.1562143 C81.4050714,28.9166429 81.2973571,28.6037143 81.2973571,28.2174286 C81.2973571,27.8348571 81.4208571,27.5293571 81.6697143,27.3 C81.9185714,27.0697143 82.2835,26.9555 82.7635714,26.9555 L83.239,26.9555 L83.239,26.4095 L80.8544286,26.4095 L80.8544286,25.8857857 L84.474,25.8857857 L84.474,25.8857857 Z" id="Fill-41" fill="#1B2133" fill-rule="nonzero" mask="url(#mask-38)"></path>
                    </g>
                    <g id="Fill-42-Clipped">
                        <mask id="mask-40" fill="white">
                            <use xlink:href="#path-39"></use>
                        </mask>
                        <g id="path-7"></g>
                        <path d="M83.278,25.3648571 C83.2044762,25.2910456 83.1642345,25.1904415 83.1665714,25.0862857 C83.1642348,24.981419 83.205058,24.8801925 83.2794912,24.8062859 C83.3539244,24.7323793 83.4554382,24.692276 83.5602857,24.6953571 C83.6707857,24.6953571 83.7645714,24.7325 83.8425714,24.8067857 C83.9190401,24.8789642 83.9612367,24.980236 83.9586429,25.0853571 C83.9612367,25.1904783 83.9190401,25.2917501 83.8425714,25.3639286 C83.7678414,25.4386801 83.6659705,25.4798976 83.5602857,25.4781429 C83.4544971,25.4814697 83.3521401,25.4403922 83.278,25.3648571" id="Fill-42" fill="#1B2133" fill-rule="nonzero" mask="url(#mask-40)"></path>
                    </g>
                    <g id="Fill-43-Clipped">
                        <mask id="mask-42" fill="white">
                            <use xlink:href="#path-41"></use>
                        </mask>
                        <g id="path-7"></g>
                        <path d="M86.853,27.5219286 L87.8326429,27.5219286 L87.8326429,26.4085714 L86.853,26.4085714 L86.853,27.5219286 L86.853,27.5219286 Z M85.5474286,26.4085714 L85.5474286,25.8857857 L89.0565,25.8857857 L89.0565,26.4085714 L88.4696429,26.4085714 L88.4696429,29.523 L87.8326429,29.523 L87.8326429,28.0456429 L86.8539286,28.0456429 L86.8539286,28.7467143 L86.3005,28.7467143 L86.1231429,28.3548571 C86.0191429,28.1236429 85.9680714,27.9565 85.9680714,27.8534286 C85.9680714,27.6955714 86.0497857,27.5962143 86.2113571,27.5553571 L86.2113571,26.4085714 L85.5474286,26.4085714 L85.5474286,26.4085714 Z" id="Fill-43" fill="#1B2133" fill-rule="nonzero" mask="url(#mask-42)"></path>
                    </g>
                    <g id="Fill-44-Clipped">
                        <mask id="mask-44" fill="white">
                            <use xlink:href="#path-43"></use>
                        </mask>
                        <g id="path-7"></g>
                        <path d="M90.0630714,27.5219286 L91.0436429,27.5219286 L91.0436429,26.4085714 L90.0621429,26.4085714 L90.0621429,27.5219286 L90.0630714,27.5219286 Z M88.7584286,26.4085714 L88.7584286,25.8857857 L92.2665714,25.8857857 L92.2665714,26.4085714 L91.6797143,26.4085714 L91.6797143,29.523 L91.0436429,29.523 L91.0436429,28.0456429 L90.064,28.0456429 L90.064,28.7467143 L89.5105714,28.7467143 L89.3341429,28.3548571 C89.2301429,28.1236429 89.1781429,27.9565 89.1781429,27.8534286 C89.1781429,27.6955714 89.2598571,27.5962143 89.4214286,27.5553571 L89.4214286,26.4085714 L88.7584286,26.4085714 L88.7584286,26.4085714 Z" id="Fill-44" fill="#1B2133" fill-rule="nonzero" mask="url(#mask-44)"></path>
                    </g>
                    <g id="Fill-45-Clipped">
                        <mask id="mask-46" fill="white">
                            <use xlink:href="#path-45"></use>
                        </mask>
                        <g id="path-7"></g>
                        <path d="M98.0395,26.4085714 L96.0133571,26.4085714 L96.0133571,27.0864286 C96.1775447,26.9307483 96.3962732,26.8457242 96.6225,26.8496429 C96.9437857,26.8496429 97.2019286,26.9471429 97.3969286,27.1412143 C97.5928571,27.3362143 97.6903571,27.5878571 97.6903571,27.8970714 C97.6903571,28.2313571 97.5789286,28.4978571 97.3560714,28.6965714 C97.1322857,28.8943571 96.8518571,28.9937143 96.5110714,28.9937143 C96.4525714,28.9937143 96.4107857,28.9918571 96.3847857,28.9881429 L96.3847857,28.4644286 C96.4177134,28.4688256 96.45093,28.4706882 96.4841429,28.47 C96.6339998,28.476574 96.7796699,28.4195873 96.8852857,28.3130714 C96.9885006,28.2041357 97.0434057,28.0581685 97.0375714,27.9082143 C97.0422763,27.7660404 96.9916844,27.6275783 96.8964286,27.5219286 C96.798632,27.4172397 96.6597374,27.3608669 96.5166429,27.3677857 C96.3810922,27.3650403 96.2507702,27.4200726 96.1582143,27.5191429 C96.0600875,27.6247689 96.0079754,27.7650708 96.0133571,27.9091429 L96.0133571,29.523 L95.3605714,29.523 L95.3605714,28.8172857 C95.1958804,28.9710477 94.9776162,29.0543547 94.7523571,29.0494286 C94.4338571,29.0494286 94.1766429,28.9519286 93.9797857,28.7569286 C93.782,28.5619286 93.6826429,28.3112143 93.6826429,28.002 C93.6826429,27.6677143 93.795,27.4012143 94.0178571,27.2034286 C94.2416429,27.0037857 94.5220714,26.9044286 94.8619286,26.9044286 C94.9176429,26.9044286 94.9594286,26.9062857 94.9900714,26.91 L94.9900714,27.4337143 C94.9568352,27.429288 94.9233077,27.4274254 94.8897857,27.4281429 C94.7398673,27.4222761 94.5943574,27.4795369 94.4886429,27.586 C94.3856998,27.6951057 94.3308393,27.8409543 94.3363571,27.9908571 C94.3363571,28.145 94.3827857,28.2731429 94.4775,28.3762143 C94.5767085,28.4817689 94.7172474,28.5384597 94.8619286,28.5312857 C95.0030714,28.5312857 95.1219286,28.4802143 95.2166429,28.379 C95.3141459,28.2737961 95.3659113,28.1341966 95.3605714,27.9908571 L95.3605714,26.4085714 L93.34,26.4085714 L93.34,25.8848571 L98.0395,25.8848571 L98.0395,26.4085714 L98.0395,26.4085714 Z" id="Fill-45" fill="#1B2133" fill-rule="nonzero" mask="url(#mask-46)"></path>
                    </g>
                    <g id="Fill-46-Clipped">
                        <mask id="mask-48" fill="white">
                            <use xlink:href="#path-47"></use>
                        </mask>
                        <g id="path-7"></g>
                        <path d="M98.0785,28.0623571 L98.0785,27.5497857 L98.4759286,27.5497857 C98.8566429,27.5497857 99.047,27.3975 99.047,27.092 L99.047,26.4085714 L97.7405,26.4085714 L97.7405,25.8848571 L100.258786,25.8848571 L100.258786,26.4085714 L99.6942143,26.4085714 L99.6942143,27.131 C99.6942143,27.3845 99.6255,27.5915714 99.4871429,27.7512857 C99.3478571,27.911 99.1547143,28.0057143 98.9077143,28.0345 C98.8828072,28.0424091 98.8567701,28.0461735 98.8306429,28.0456429 L99.9820714,29.523 L99.2020714,29.523 L98.0785,28.0623571 Z" id="Fill-46" fill="#1B2133" fill-rule="nonzero" mask="url(#mask-48)"></path>
                    </g>
                    <g id="Fill-47-Clipped">
                        <mask id="mask-50" fill="white">
                            <use xlink:href="#path-49"></use>
                        </mask>
                        <g id="path-7"></g>
                        <path d="M101.791857,27.6268571 L101.791857,26.4085714 L101.006286,26.4085714 L101.006286,27.6268571 C101.006286,27.9286429 101.136286,28.0790714 101.3935,28.0790714 C101.66,28.0790714 101.792786,27.9286429 101.792786,27.6268571 L101.791857,27.6268571 Z M104.410429,25.8848571 L104.410429,26.4085714 L103.823571,26.4085714 L103.823571,29.523 L103.175429,29.523 L103.175429,26.4085714 L102.434429,26.4085714 L102.434429,27.5785714 C102.434429,27.9193571 102.341571,28.1793571 102.157714,28.3585714 C101.972929,28.5359286 101.714786,28.6250714 101.382357,28.6250714 C100.699857,28.6250714 100.359071,28.2796429 100.359071,27.5878571 L100.359071,26.4085714 L99.9597857,26.4085714 L99.9597857,25.8848571 L104.410429,25.8848571 L104.410429,25.8848571 Z" id="Fill-47" fill="#1B2133" fill-rule="nonzero" mask="url(#mask-50)"></path>
                    </g>
                    <g id="Fill-48-Clipped">
                        <mask id="mask-52" fill="white">
                            <use xlink:href="#path-51"></use>
                        </mask>
                        <g id="path-7"></g>
                        <path d="M105.339929,25.8857857 L105.932357,25.8857857 L105.932357,26.4095 L105.3455,26.4095 L105.3455,29.5239286 L104.697357,29.5239286 L104.697357,26.4085714 L104.111429,26.4085714 L104.111429,25.8848571 L104.692714,25.8848571 L104.692714,25.5041429 C104.700654,25.3753751 104.655714,25.2489419 104.568286,25.1540714 C104.4784,25.0689777 104.357619,25.0243556 104.234,25.0305714 C103.9415,25.0305714 103.795714,25.1884286 103.795714,25.5041429 L103.795714,25.6248571 L103.142,25.6248571 L103.142,25.4818571 C103.142,25.1512857 103.246,24.9015 103.453071,24.7325 C103.659214,24.5635 103.919214,24.479 104.233071,24.479 C104.550643,24.479 104.814357,24.5625714 105.025143,24.7297143 C105.235,24.8968571 105.340857,25.1457143 105.340857,25.4772143 L105.340857,25.8848571 L105.339929,25.8857857 Z" id="Fill-48" fill="#1B2133" fill-rule="nonzero" mask="url(#mask-52)"></path>
                    </g>
                    <g id="Fill-49-Clipped">
                        <mask id="mask-54" fill="white">
                            <use xlink:href="#path-53"></use>
                        </mask>
                        <g id="path-7"></g>
                        <path d="M107.443143,28.3325714 C107.671571,28.3325714 107.853571,28.2685 107.988214,28.1394286 C108.122857,28.0112857 108.189714,27.8255714 108.189714,27.5832143 L108.189714,26.4085714 L107.349357,26.4085714 C107.439765,26.55392 107.48411,26.7232087 107.476571,26.8942143 C107.476571,27.3417857 107.222143,27.6472857 106.712357,27.8088571 C106.756929,27.9667143 106.842357,28.0939286 106.969571,28.1895714 C107.107302,28.2882334 107.273825,28.3385166 107.443143,28.3325714 M107.343786,28.9008571 C106.985357,28.9008571 106.678929,28.7745714 106.422643,28.5229286 C106.165429,28.2722143 106.009429,27.9212143 105.953714,27.4736429 C106.540571,27.3807857 106.834,27.1783571 106.834,26.8663571 C106.841264,26.6979613 106.78188,26.5334856 106.668714,26.4085714 L105.633357,26.4085714 L105.633357,25.8848571 L109.424714,25.8848571 L109.424714,26.4085714 L108.837857,26.4085714 L108.837857,29.523 L108.189714,29.523 L108.189714,28.5368571 C108.104822,28.6553419 107.987888,28.7471488 107.852643,28.8015 C107.691745,28.8695338 107.518458,28.903369 107.343786,28.9008571" id="Fill-49" fill="#1B2133" fill-rule="nonzero" mask="url(#mask-54)"></path>
                    </g>
                    <g id="Fill-50-Clipped">
                        <mask id="mask-56" fill="white">
                            <use xlink:href="#path-55"></use>
                        </mask>
                        <g id="path-7"></g>
                        <path d="M110.432214,27.5219286 L111.411857,27.5219286 L111.411857,26.4085714 L110.432214,26.4085714 L110.432214,27.5219286 L110.432214,27.5219286 Z M109.125714,26.4085714 L109.125714,25.8857857 L112.635714,25.8857857 L112.635714,26.4085714 L112.047929,26.4085714 L112.047929,29.523 L111.411857,29.523 L111.411857,28.0456429 L110.432214,28.0456429 L110.432214,28.7467143 L109.877857,28.7467143 L109.701429,28.3548571 C109.597429,28.1236429 109.546357,27.9565 109.546357,27.8534286 C109.546357,27.6955714 109.627143,27.5962143 109.789643,27.5553571 L109.789643,26.4085714 L109.125714,26.4085714 L109.125714,26.4085714 Z" id="Fill-50" fill="#1B2133" fill-rule="nonzero" mask="url(#mask-56)"></path>
                    </g>
                    <g id="Fill-51-Clipped">
                        <mask id="mask-58" fill="white">
                            <use xlink:href="#path-57"></use>
                        </mask>
                        <g id="path-7"></g>
                        <polygon id="Fill-51" fill="#1B2133" fill-rule="nonzero" mask="url(#mask-58)" points="112.889214 30.8350714 112.109214 30.8350714 111.439714 29.8879286 112.098071 29.8879286"></polygon>
                    </g>
                    <g id="Fill-52-Clipped">
                        <mask id="mask-60" fill="white">
                            <use xlink:href="#path-59"></use>
                        </mask>
                        <g id="path-7"></g>
                        <polygon id="Fill-52" fill="#1B2133" fill-rule="nonzero" mask="url(#mask-60)" points="114.79 28.0920714 127.703643 28.0920714 127.703643 27.5349286 114.789071 27.5349286"></polygon>
                    </g>
                    <g id="Fill-53-Clipped" transform="translate(51.668500, 27.349214)" fill="#1B2133" fill-rule="nonzero">
                        <polygon id="Fill-53" points="0 0.8 12.9145714 0.8 12.9145714 0.2 0 0.2"></polygon>
                    </g>
                </g>
            </g>
        </g>
    </g>
</svg>