<?xml version="1.0" encoding="UTF-8"?>
<svg width="48px" height="48px" viewBox="0 0 48 48" version="1.1" xmlns="http://www.w3.org/2000/svg" xmlns:xlink="http://www.w3.org/1999/xlink">
    <title>Group</title>
    <defs>
        <linearGradient x1="94.0742121%" y1="61.7045066%" x2="3.45760171%" y2="61.7045066%" id="linearGradient-1">
            <stop stop-color="#D95181" offset="0%"></stop>
            <stop stop-color="#A63446" offset="100%"></stop>
        </linearGradient>
    </defs>
    <g id="V2" stroke="none" stroke-width="1" fill="none" fill-rule="evenodd">
        <g id="Color-Option----2.3-reduced-white-bg" transform="translate(-296.000000, -808.000000)">
            <g id="Group-41" transform="translate(120.000000, 676.000000)">
                <g id="Group-40" transform="translate(101.000000, 132.000000)">
                    <g id="Group" transform="translate(75.000000, 0.000000)">
                        <path d="M24,25.5 C27.26,25.5 30.14,26.28 32.48,27.3 C34.64,28.26 36,30.42 36,32.76 L36,36 L12,36 L12,32.78 C12,30.42 13.36,28.26 15.52,27.32 C17.86,26.28 20.74,25.5 24,25.5 Z M8,26 C10.2,26 12,24.2 12,22 C12,19.8 10.2,18 8,18 C5.8,18 4,19.8 4,22 C4,24.2 5.8,26 8,26 Z M10.26,28.2 C9.52,28.08 8.78,28 8,28 C6.02,28 4.14,28.42 2.44,29.16 C0.96,29.8 0,31.24 0,32.86 L0,36 L9,36 L9,32.78 C9,31.12 9.46,29.56 10.26,28.2 Z M40,26 C42.2,26 44,24.2 44,22 C44,19.8 42.2,18 40,18 C37.8,18 36,19.8 36,22 C36,24.2 37.8,26 40,26 Z M48,32.86 C48,31.24 47.04,29.8 45.56,29.16 C43.86,28.42 41.98,28 40,28 C39.22,28 38.48,28.08 37.74,28.2 C38.54,29.56 39,31.12 39,32.78 L39,36 L48,36 L48,32.86 Z M24,12 C27.32,12 30,14.68 30,18 C30,21.32 27.32,24 24,24 C20.68,24 18,21.32 18,18 C18,14.68 20.68,12 24,12 Z" id="Shape" fill="#A63446" fill-rule="nonzero"></path>
                        <rect id="Rectangle" x="0" y="0" width="48" height="48"></rect>
                    </g>
                </g>
            </g>
        </g>
    </g>
</svg>