<?xml version="1.0" encoding="UTF-8"?>
<svg width="42px" height="26px" viewBox="0 0 42 26" version="1.1" xmlns="http://www.w3.org/2000/svg" xmlns:xlink="http://www.w3.org/1999/xlink">
    <title>Icons/Hubs/Learn</title>
    <g id="V2" stroke="none" stroke-width="1" fill="none" fill-rule="evenodd">
        <g id="Color-Option----2-P" transform="translate(-1109.000000, -2721.000000)">
            <g id="Group-65" transform="translate(120.000000, 2554.000000)">
                <g id="Group-64" transform="translate(0.000000, 68.000000)">
                    <g id="Group-58" transform="translate(821.000000, 0.000000)">
                        <g id="Group-52" transform="translate(41.000000, 66.000000)">
                            <g id="Group-11-Copy-2" transform="translate(92.000000, 0.000000)">
                                <g id="Icons/Hubs/Learn" transform="translate(34.000000, 24.000000)">
                                    <rect id="Size" fill="#D8D8D8" opacity="0" x="0" y="0" width="44" height="44"></rect>
                                    <path d="M29.3333333,20.1666667 C32.3766667,20.1666667 34.815,17.71 34.815,14.6666667 C34.815,11.6233333 32.3766667,9.16666667 29.3333333,9.16666667 C26.29,9.16666667 23.8333333,11.6233333 23.8333333,14.6666667 C23.8333333,17.71 26.29,20.1666667 29.3333333,20.1666667 Z M29.3333333,23.8333333 C28.8016667,23.8333333 28.1966667,23.87 27.555,23.925 C27.5916667,23.9433333 27.61,23.98 27.6283333,23.9983333 C29.7183333,25.52 31.1666667,27.555 31.1666667,30.25 L31.1666667,33 C31.1666667,33.6416667 31.0383333,34.265 30.8366667,34.8333333 L40.3333333,34.8333333 C41.3416667,34.8333333 42.1666667,34.0083333 42.1666667,33 L42.1666667,30.25 C42.1666667,25.9783333 33.605,23.8333333 29.3333333,23.8333333 Z" id="Combined-Shape" fill="#0074B6" opacity="0.5"></path>
                                    <path d="M14.6666667,20.1666667 C17.71,20.1666667 20.1483333,17.71 20.1483333,14.6666667 C20.1483333,11.6233333 17.71,9.16666667 14.6666667,9.16666667 C11.6233333,9.16666667 9.16666667,11.6233333 9.16666667,14.6666667 C9.16666667,17.71 11.6233333,20.1666667 14.6666667,20.1666667 Z M14.6666667,23.8333333 C10.395,23.8333333 1.83333333,25.9783333 1.83333333,30.25 L1.83333333,33 C1.83333333,34.0083333 2.65833333,34.8333333 3.66666667,34.8333333 L25.6666667,34.8333333 C26.675,34.8333333 27.5,34.0083333 27.5,33 L27.5,30.25 C27.5,25.9783333 18.9383333,23.8333333 14.6666667,23.8333333 Z" id="Combined-Shape" fill="#0074B6"></path>
                                </g>
                            </g>
                        </g>
                    </g>
                </g>
            </g>
        </g>
    </g>
</svg>