<?xml version="1.0" encoding="UTF-8"?>
<svg width="379px" height="353px" viewBox="0 0 379 353" version="1.1" xmlns="http://www.w3.org/2000/svg" xmlns:xlink="http://www.w3.org/1999/xlink">
    <title>Group 53</title>
    <defs>
        <linearGradient x1="99.4154283%" y1="50%" x2="0%" y2="50%" id="linearGradient-1">
            <stop stop-color="#06D99F" offset="0%"></stop>
            <stop stop-color="#099860" offset="75.8003715%"></stop>
            <stop stop-color="#069067" offset="100%"></stop>
        </linearGradient>
        <linearGradient x1="35.5586014%" y1="50.705039%" x2="94.3536938%" y2="51.3221098%" id="linearGradient-2">
            <stop stop-color="#117C5E" offset="0.0437062937%"></stop>
            <stop stop-color="#05805E" offset="100%"></stop>
        </linearGradient>
    </defs>
    <g id="V2" stroke="none" stroke-width="1" fill="none" fill-rule="evenodd">
        <g id="Color-Option----2-P" transform="translate(-941.000000, -2622.000000)">
            <g id="Group-65" transform="translate(120.000000, 2554.000000)">
                <g id="Group-64" transform="translate(0.000000, 68.000000)">
                    <g id="Group-53" transform="translate(821.000000, 0.000000)">
                        <rect id="Rectangle" fill="url(#linearGradient-1)" x="0" y="0.337110482" width="378" height="352"></rect>
                        <g id="Group-3" opacity="0.823986235" transform="translate(26.000000, 251.337110)" fill="#029A6D" fill-rule="nonzero">
                            <path d="M159.783046,52.1428571 C164.904216,52.1428571 169.839922,52.918633 174.476495,54.35852 L174.476495,54.3643971 C175.24826,57.5732882 175.667047,60.9173523 175.667047,64.3672041 C175.667047,79.3185207 167.97931,92.4538166 156.366939,100 L132.491,99.999 L132.451306,100 L104.23301,100 C107.139731,98.1156925 109.650309,95.6681642 111.610491,92.8108834 L111.619308,92.7553056 C109.632857,95.6374378 107.079039,98.1047963 104.1172,100 L79.9033529,100 L79.863,99.999 L38.0194175,100 C42.9126011,96.8194695 46.1548869,91.2854851 46.1548869,84.9855881 C46.1548869,83.5327562 45.9781221,82.1217734 45.6530866,80.7692308 C48.6570187,81.7013748 51.3624201,83.2933929 53.5928277,85.3720938 C58.0854998,79.6975238 65.1312411,76.0429538 73.0518756,76.0429538 C75.6346149,76.0429538 78.1238204,76.4313033 80.462165,77.1521036 L80.462165,77.1550456 C80.8513862,78.7614004 81.0625915,80.4354222 81.0625915,82.1624007 L81.0583051,82.5930986 L81.0583051,82.5930986 L81.051,82.839 L81.0597669,82.5915354 C81.0626714,82.4484596 81.0641001,82.3051564 81.0641001,82.1615181 C81.0641001,80.4354222 80.8525931,78.7590468 80.4636736,77.1521036 C82.0021598,77.626135 83.4752024,78.2438013 84.8662434,78.9889662 C90.3683563,73.7472528 97.9213089,70.5128205 106.254817,70.5128205 C109.459371,70.5128205 112.547872,70.9908148 115.449191,71.8780012 L115.449191,71.8816224 C115.93212,73.8587807 116.194175,75.9192259 116.194175,78.0448521 L116.1869,78.6132389 L116.187,78.612 L116.175,78.978 L116.189621,78.6043433 C116.194494,78.396473 116.196935,78.1879554 116.196935,77.9788625 C116.196935,75.8480424 115.936987,73.778601 115.458994,71.7948718 C116.797977,72.209261 118.096627,72.7125663 119.347716,73.2977141 C128.09704,60.5365132 142.942768,52.1428571 159.783046,52.1428571 Z M240.142821,100 L240.172,99.979 L240.141795,100 L206.931426,100 C206.130523,100 205.37289,99.8258148 204.694317,99.5157055 C204.015884,99.7997146 203.271789,99.9687118 202.485866,99.9960628 L202.259142,100 L156.415477,100 C168.105925,92.4394246 175.852164,79.284353 175.852164,64.3085979 C175.852164,60.855009 175.42985,57.5009014 174.653298,54.2857143 C179.988762,55.9330448 184.930028,58.4473393 189.303869,61.6594339 C193.213121,59.6726728 197.640565,58.5521573 202.330414,58.5521573 C205.349409,58.5521573 208.259071,59.0162133 210.99239,59.8775292 L210.99239,59.8810448 L211.034723,60.0667949 C214.526448,61.2177631 217.718968,63.0365477 220.464074,65.3736547 C226.981992,61.2409601 234.743488,58.8430232 243.073631,58.8430232 C247.468819,58.8430232 251.704836,59.5101878 255.684124,60.7484856 L255.684124,60.7535399 C256.346483,63.5131751 256.705902,66.3890586 256.705902,69.3559192 C256.705902,72.8539389 256.217588,76.2363715 255.305987,79.4378838 L255.148,79.974 L255.30765,79.4368129 C256.219852,76.235018 256.708469,72.8525601 256.708469,69.3544029 C256.708469,66.3890586 256.348536,63.5091316 255.686691,60.7484856 C265.772496,63.8856511 274.205562,70.6847463 279.375009,79.5609907 C283.107079,77.3293128 287.498317,76.0429538 292.197507,76.0429538 C294.780246,76.0429538 297.269451,76.4313033 299.607796,77.1521036 L299.607796,77.1550456 C299.997017,78.7614004 300.208223,80.4354222 300.208223,82.1624007 C300.208223,82.8764504 300.172934,83.5822257 300.104005,84.2780866 L300.094,84.373 L300.105432,84.2774834 C300.174413,83.5815389 300.209731,82.8756705 300.209731,82.1615181 C300.209731,80.4354222 299.998224,78.7590468 299.609305,77.1521036 C305.189119,78.8713308 309.908099,82.479906 312.976323,87.2080304 C314.42817,86.4262775 316.029578,85.8829428 317.726425,85.6304396 C315.521608,85.0440481 313.697384,83.5241302 312.699029,81.5203087 C312.763602,81.5525044 312.828675,81.5838463 312.894231,81.6143187 C312.227127,80.4843511 311.84466,79.1745391 311.84466,77.7777778 C311.84466,73.5294335 315.382915,70.0854701 319.747573,70.0854701 C324.112231,70.0854701 327.650485,73.5294335 327.650485,77.7777778 C327.650485,77.8169531 327.650185,77.85606 327.649585,77.8950964 L327.650485,78.00584 C327.650485,81.6241383 325.216309,84.6736884 321.896797,85.6050479 L321.911539,85.6066845 C322.732641,85.7192768 323.531926,85.8999142 324.303553,86.1427832 L324.303553,86.1445676 L324.364175,86.4208487 C327.097835,87.3403075 329.464693,89.0448264 331.190156,91.2629086 C333.408468,89.069269 336.459559,87.7143353 339.826909,87.7143353 C341.118278,87.7143353 342.362881,87.9134889 343.532053,88.28313 C347.957106,89.6812788 351.298978,93.5160417 351.983283,98.2130491 C352.113886,99.1092403 351.463569,99.9192178 350.579935,99.9943263 L350.445708,100 L240.142821,100 Z M39.3687002,79.9145299 C41.550524,79.9145299 43.6533331,80.2401202 45.6286993,80.8444356 L45.6286993,80.8469022 C45.9575022,82.1936622 46.1359223,83.5971539 46.1359223,85.0450442 C46.1359223,91.3200578 42.8606378,96.8328941 37.9133013,100 L1.76781138,100 C0.702627039,100 -0.133080294,99.0796983 0.0176210287,98.0451985 C0.985192018,91.4183542 6.79746801,86.3247863 13.8222046,86.3247863 C15.2881175,86.3247863 16.7009424,86.5464648 18.0281415,86.9579136 L18.0281415,86.959593 C18.249056,87.876536 18.368932,88.8321048 18.368932,89.8179024 C18.368932,90.7260965 18.269492,91.6108412 18.0809591,92.4617798 C18.2887089,91.5604707 18.3986993,90.6216454 18.3986993,89.6567384 C18.3986993,88.6558987 18.2773901,87.6838883 18.0543265,86.7521368 C19.5361864,87.2137214 20.912188,87.9101875 22.1373523,88.7972218 C25.8659794,83.4391055 32.1922448,79.9145299 39.3687002,79.9145299 Z M339.826909,74.3589744 C342.602386,74.3589744 344.982328,76.0526103 345.9898,78.4628634 C345.995888,78.4784084 346.002102,78.4934224 346.008264,78.5084639 C346.062588,78.640183 346.112654,78.7746793 346.158431,78.911143 L346.184577,78.9915138 L346.184577,78.9915138 C346.198224,79.0332226 346.211214,79.075067 346.2238,79.1170854 C346.233114,79.1488635 346.242468,79.1809393 346.251587,79.2131141 L346.255189,79.2252033 C346.320027,79.4558395 346.372789,79.6915317 346.412749,79.9315542 C346.419062,79.9698287 346.425103,80.0081518 346.430817,80.0465819 C346.437626,80.0920498 346.443967,80.1379969 346.449839,80.1840908 C346.453385,80.2122172 346.456737,80.239905 346.459918,80.2676445 C346.479195,80.4355397 346.492234,80.6055915 346.498784,80.777392 L346.503712,81.0363531 C346.503712,84.6457006 343.640254,87.5862001 340.06131,87.7096938 L339.826909,87.7137318 C339.745084,87.7137318 339.663603,87.7122598 339.582491,87.7093408 L339.456003,87.7035963 L339.456003,87.7035963 C339.413637,87.7012805 339.371755,87.6985912 339.329981,87.6955175 C339.285366,87.6922222 339.240652,87.6884793 339.196067,87.6842976 C339.161015,87.6810305 339.126354,87.6775069 339.091773,87.6737191 C339.051645,87.669296 339.01126,87.6644974 338.970987,87.6593397 C338.906,87.6510575 338.84156,87.6418441 338.777424,87.6317175 C338.771221,87.63068 338.764888,87.6296701 338.758558,87.6286512 C338.687633,87.6173021 338.617236,87.604806 338.547229,87.5912162 C338.527462,87.5872894 338.507183,87.5832531 338.486938,87.5791251 C338.422879,87.5661652 338.359684,87.5523153 338.296831,87.5375773 C338.280203,87.5335452 338.263603,87.5295819 338.247027,87.5255566 C338.086869,87.4868391 337.928797,87.4421507 337.77322,87.3919075 C337.750323,87.3842547 337.728295,87.3770033 337.706317,87.3696405 C337.655248,87.3528185 337.603883,87.3349221 337.552808,87.3164202 C337.516407,87.3029105 337.480067,87.2893729 337.443879,87.2755291 C337.405797,87.2613194 337.368139,87.2465267 337.33065,87.2314035 L337.240076,87.1936677 L337.240076,87.1936677 C334.837063,86.1830254 333.150105,83.8067112 333.150105,81.0363531 C333.150105,77.3485386 336.139412,74.3589744 339.826909,74.3589744 Z M14.0970874,71.3675214 C18.2605132,71.3675214 21.6510937,74.5858007 21.7824569,78.6041143 L21.7864078,78.8461538 L21.7864078,78.8841387 C21.7864078,82.9129163 18.4887243,86.1938482 14.3712741,86.3209632 L14.1232631,86.3247863 L14.0970874,86.3247863 C9.85039299,86.3247863 6.40776699,82.9764885 6.40776699,78.8461538 C6.40776699,74.7158192 9.85039299,71.3675214 14.0970874,71.3675214 Z M39.5145631,57.6923077 C45.766641,57.6923077 50.8349515,62.6669216 50.8349515,68.8034188 C50.8349515,74.939916 45.766641,79.9145299 39.5145631,79.9145299 C39.4520022,79.9145299 39.3895598,79.9140318 39.3272398,79.9130394 L39.1384367,79.9145299 C34.7183475,79.9145299 30.894852,77.4182051 29.0485437,73.7865518 C29.1985179,73.8598324 29.3503767,73.9299535 29.5040312,73.9968207 C28.6677351,72.4463717 28.1941748,70.6791758 28.1941748,68.8034188 C28.1941748,62.6669216 33.2624853,57.6923077 39.5145631,57.6923077 Z M292.197507,50 C298.530231,50 303.833372,54.2983362 305.205821,60.0661838 C305.211987,60.0931452 305.218327,60.1201636 305.224581,60.147214 C305.242191,60.2224015 305.258948,60.2980862 305.275028,60.3740126 C305.282888,60.4120492 305.290766,60.4500801 305.298473,60.4881709 C305.331132,60.6487965 305.360613,60.8106865 305.386996,60.9735808 C305.395855,61.0289341 305.404539,61.084863 305.412857,61.1409077 L305.436365,61.3062461 L305.452986,61.434894 C305.457944,61.474175 305.462616,61.5131714 305.467112,61.5522201 C305.522576,62.0340384 305.551114,62.5242035 305.551114,63.0208885 C305.551114,70.2121212 299.572495,76.041777 292.197507,76.041777 C291.983416,76.041777 291.770502,76.0368643 291.558876,76.0271483 C291.513203,76.0250421 291.467162,76.0226974 291.421183,76.0201257 C291.342409,76.0157349 291.264129,76.010687 291.186037,76.0049843 C291.177202,76.0043145 291.168182,76.0036466 291.159164,76.0029699 C291.075982,75.9967563 290.993231,75.9897942 290.9107,75.9820997 C290.857935,75.9771385 290.804863,75.9718759 290.751883,75.966311 L290.541815,75.9426738 C290.521669,75.9401748 290.501643,75.9377131 290.481631,75.9352082 C290.401146,75.9252147 290.320824,75.9144408 290.240734,75.9029735 L290.118629,75.8848169 L289.938239,75.8561942 L289.810173,75.8341382 C289.738948,75.8217524 289.66783,75.8086504 289.596913,75.7950009 C289.566649,75.7889945 289.535997,75.7829815 289.505384,75.7768663 C289.322115,75.7404688 289.140799,75.700361 288.960926,75.6566971 L288.880641,75.6366458 C288.802514,75.6174786 288.72441,75.5972692 288.64659,75.5763903 C288.625562,75.5703924 288.604645,75.5647219 288.58375,75.559003 L288.550847,75.5503256 C288.380706,75.5033356 288.211947,75.4531395 288.044642,75.3998083 L287.830696,75.32908 C287.27241,75.1413377 286.731149,74.9180554 286.209441,74.6624101 C286.192977,74.6531932 286.175655,74.6446527 286.158355,74.6360764 C281.817519,72.4868932 278.8439,68.0925014 278.8439,63.0208885 C278.8439,55.8296504 284.822513,50 292.197507,50 Z M73.0518756,50 C79.3845999,50 84.6877408,54.2983362 86.0601895,60.0661838 C86.0663557,60.0931452 86.072696,60.1201636 86.07895,60.147214 C86.0965604,60.2224015 86.1133174,60.2980862 86.1293965,60.3740126 C86.1372574,60.4120492 86.1451348,60.4500801 86.1528417,60.4881709 C86.185501,60.6487965 86.2149819,60.8106865 86.2413652,60.9735808 C86.250224,61.0289341 86.2589083,61.084863 86.2672263,61.1409077 C86.275528,61.1962512 86.2833074,61.2511945 86.2907341,61.3062461 C86.2963994,61.3487853 86.3019851,61.3918071 86.3073548,61.434894 L86.3214805,61.5522201 C86.3769446,62.0340384 86.4054825,62.5242035 86.4054825,63.0208885 C86.4054825,70.2121212 80.4268635,76.041777 73.0518756,76.041777 C72.8377847,76.041777 72.6248705,76.0368643 72.4132451,76.0271483 C72.3675717,76.0250421 72.3215305,76.0226974 72.2755517,76.0201257 L72.157723,76.013047 L72.0404056,76.0049843 C72.0315708,76.0043145 72.0225505,76.0036466 72.0135327,76.0029699 C71.9303511,75.9967563 71.8476002,75.9897942 71.7650686,75.9820997 C71.7123041,75.9771385 71.6592314,75.9718759 71.6062518,75.966311 L71.396184,75.9426738 C71.3760378,75.9401748 71.3560117,75.9377131 71.3359995,75.9352082 C71.2555146,75.9252147 71.175193,75.9144408 71.0951027,75.9029735 C71.0542237,75.8970189 71.0135805,75.8910071 70.9729981,75.8848169 L70.7926083,75.8561942 L70.6645417,75.8341382 C70.5933172,75.8217524 70.5221985,75.8086504 70.4512815,75.7950009 C70.4210177,75.7889945 70.390366,75.7829815 70.3597526,75.7768663 C70.1764835,75.7404688 69.9951681,75.700361 69.8152949,75.6566971 C69.7882072,75.6498289 69.7615924,75.6432763 69.7350096,75.6366458 C69.6568833,75.6174786 69.578779,75.5972692 69.5009591,75.5763903 C69.4799305,75.5703924 69.4590143,75.5647219 69.4381189,75.559003 L69.4052161,75.5503256 C69.2350753,75.5033356 69.066316,75.4531395 68.8990112,75.3998083 C68.8275558,75.3765155 68.7561737,75.3530827 68.6850645,75.32908 C68.1267793,75.1413377 67.5855181,74.9180554 67.0638102,74.6624101 C67.0473457,74.6531932 67.0300237,74.6446527 67.0127235,74.6360764 C62.6718878,72.4868932 59.6982687,68.0925014 59.6982687,63.0208885 C59.6982687,55.8296504 65.6768822,50 73.0518756,50 Z M106.15534,38.034188 C114.738712,38.034188 121.786341,44.5266151 122.53599,52.8092536 L122.543703,52.9034862 C122.559516,53.0840044 122.57182,53.2657179 122.581072,53.4482252 C122.583813,53.5077393 122.586516,53.5670271 122.588895,53.6263971 L122.598698,53.9491332 L122.601942,54.2735043 C122.601942,54.7006032 122.585629,55.1187667 122.553591,55.5325904 L122.526654,55.8374588 C122.516692,55.940396 122.505757,56.0430528 122.493858,56.1454202 C122.09591,59.5706984 120.620438,62.6680574 118.410759,65.1032862 C118.337472,65.1842321 118.263106,65.2645951 118.18794,65.3442112 C118.124173,65.4114822 118.060158,65.4781203 117.995579,65.5442194 C115.004577,68.6073914 110.805317,70.5128205 106.15534,70.5128205 C106.040077,70.5128205 105.925092,70.5116498 105.810395,70.5093196 L105.690524,70.5066261 L105.510089,70.5005517 C105.480572,70.4996959 105.451268,70.4985147 105.421983,70.497258 L105.200264,70.4858951 C105.191234,70.4853846 105.182205,70.4848669 105.173179,70.484342 C105.087364,70.4797848 105.001711,70.4741801 104.916241,70.4679307 C104.893294,70.4657359 104.87063,70.4640223 104.847979,70.4622634 C104.771684,70.456909 104.695326,70.4504855 104.619119,70.4435489 C104.583571,70.4396618 104.547924,70.4362861 104.51231,70.4327983 C98.7609078,69.872664 93.8823561,66.3879921 91.4174757,61.5084445 C91.422107,61.510722 91.4267395,61.5129974 91.4313732,61.5152707 C90.328774,59.3356265 89.7087379,56.8760614 89.7087379,54.2735043 C89.7087379,45.3047776 97.0721324,38.034188 106.15534,38.034188 Z M243.073631,14.1025641 C253.630992,14.1025641 262.506864,21.1893027 265.059678,30.793792 C265.069096,30.8312797 265.078905,30.8685512 265.088618,30.9058602 C265.377174,32.0130231 265.58129,33.1533874 265.694397,34.3198867 L265.714144,34.535032 C265.719935,34.6008611 265.725389,34.6668706 265.73055,34.7329605 L265.742961,34.9004808 L265.756464,35.1049631 L265.768186,35.3126079 L265.776443,35.4842543 C265.779682,35.557876 265.782597,35.6322595 265.785141,35.7067357 L265.794923,36.0887128 L265.79819,36.4717828 C265.79819,48.7024101 255.826515,58.6404666 243.449423,58.8380047 L243.073631,58.8410015 C242.936718,58.8410015 242.800087,58.8398096 242.663749,58.8374358 C242.630924,58.8368611 242.598588,58.8362302 242.566269,58.8355329 C242.459332,58.8332317 242.352289,58.8301898 242.245434,58.8264217 C242.206409,58.825036 242.167033,58.8235474 242.127683,58.8219603 C242.0467,58.8187075 241.966077,58.815038 241.885564,58.810956 L241.623202,58.7961432 C241.593085,58.7943053 241.562756,58.7923655 241.532443,58.7903672 C241.446992,58.7846958 241.361972,58.7786156 241.277084,58.7720758 C241.212599,58.7671585 241.147604,58.7618807 241.082688,58.7563342 L240.868027,58.736919 C240.780928,58.7287342 240.693159,58.7199091 240.60554,58.7105939 L240.513267,58.7005013 C240.112971,58.6564199 239.715499,58.6019543 239.321453,58.5375086 L239.211476,58.51902 C238.966331,58.4779317 238.722632,58.4327714 238.48034,58.383815 C238.466303,58.3806453 238.451975,58.3777339 238.437651,58.3748092 C238.330403,58.3532635 238.223722,58.3306992 238.117322,58.3074007 C238.086831,58.3003282 238.056184,58.2935463 238.025561,58.2867034 C237.769911,58.2300275 237.51603,58.1687368 237.263866,58.1032869 L237.251806,58.0995973 C237.232704,58.0946243 237.213612,58.0896273 237.19453,58.0846066 C227.493894,55.5348603 220.349072,46.8246557 220.349072,36.4717828 C220.349072,24.1176044 230.523204,14.1025641 243.073631,14.1025641 Z M202.058252,27.7777778 C204.530531,27.7777778 206.866266,28.3639543 208.934755,29.4052569 L208.840321,29.2091443 C213.816204,31.6958438 217.267026,36.7933017 217.400439,42.7142712 L217.404449,43.0705032 L217.404449,43.1649676 C217.404449,51.5568514 210.704417,58.3796789 202.37532,58.5489384 L202.058252,58.5521573 L201.96404,58.5521573 C195.907958,58.5521573 190.669285,55.0541109 188.139609,49.9651529 L188.335055,50.0611102 C187.296796,47.9863253 186.712056,45.6441155 186.712056,43.1649676 C186.712056,34.6668573 193.582782,27.7777778 202.058252,27.7777778 Z M160.337093,0 C175.104244,0 187.075385,11.6725762 187.075385,26.0714286 C187.075385,40.470281 175.104244,52.1428571 160.337093,52.1428571 C160.222831,52.1428571 160.108737,52.1421583 159.994815,52.1407648 L159.652394,52.1428571 C149.176133,52.1428571 140.113886,46.2673965 135.737864,37.7197763 C136.030737,37.8618838 136.326641,37.998943 136.625461,38.1308297 C134.692156,34.5254681 133.598801,30.4229473 133.598801,26.0714286 C133.598801,11.6725762 145.569942,0 160.337093,0 Z" id="Combined-Shape" opacity="0.425269717"></path>
                        </g>
                        <path d="M1.9965812,87 C54.3883512,41.1910828 102.348196,16.0070329 145.876117,11.4478504 C211.167998,4.60907663 263.622777,41.2444428 315.723872,31.1368421 C340.600447,26.3107922 361.670284,15.9318449 378.933385,0 L378.933385,87 L1.9965812,87 Z" id="Path-2" fill="url(#linearGradient-2)" opacity="0.154413132" transform="translate(190.464983, 43.500000) scale(-1, -1) translate(-190.464983, -43.500000) "></path>
                    </g>
                </g>
            </g>
        </g>
    </g>
</svg>