<?xml version="1.0" encoding="UTF-8"?>
<svg width="48px" height="48px" viewBox="0 0 48 48" version="1.1" xmlns="http://www.w3.org/2000/svg" xmlns:xlink="http://www.w3.org/1999/xlink">
    <title>Group 30</title>
    <defs>
        <linearGradient x1="94.0742121%" y1="61.7045066%" x2="3.45760171%" y2="61.7045066%" id="linearGradient-1">
            <stop stop-color="#D95181" offset="0%"></stop>
            <stop stop-color="#A63446" offset="100%"></stop>
        </linearGradient>
    </defs>
    <g id="V2" stroke="none" stroke-width="1" fill="none" fill-rule="evenodd">
        <g id="Color-Option----2.3-reduced-white-bg" transform="translate(-872.000000, -808.000000)">
            <g id="Group-41" transform="translate(120.000000, 676.000000)">
                <g id="Group-40" transform="translate(101.000000, 132.000000)">
                    <g id="Group-36" transform="translate(623.000000, 0.000000)">
                        <g id="Group-30" transform="translate(28.000000, 0.000000)">
                            <rect id="Rectangle" x="0" y="0" width="48" height="48"></rect>
                            <path d="M35.784,16.968 C35.76,16.872 35.76,16.776 35.736,16.68 C35.592,16.008 35.376,15.336 35.112,14.712 C35.064,14.592 35.016,14.496 34.968,14.376 C34.704,13.752 34.368,13.176 34.008,12.6 C33.936,12.504 33.888,12.408 33.816,12.336 C33.432,11.784 33,11.232 32.496,10.752 C32.448,10.704 32.424,10.68 32.376,10.632 C31.896,10.152 31.368,9.72 30.792,9.336 C30.744,9.288 30.696,9.264 30.648,9.216 C30.072,8.832 29.472,8.52 28.848,8.232 C28.752,8.184 28.632,8.136 28.536,8.088 C27.912,7.824 27.264,7.632 26.592,7.488 C26.472,7.464 26.352,7.44 26.232,7.416 C25.536,7.296 24.816,7.224 24.096,7.2 C24.072,7.2 24.024,7.2 24,7.2 C23.76,7.2 23.496,7.224 23.256,7.248 C23.112,7.248 22.968,7.248 22.824,7.272 C22.344,7.296 21.888,7.368 21.432,7.464 C16.776,8.424 13.056,12.264 12.216,16.944 C11.472,21.072 12.84,24.864 15.408,27.504 C16.272,28.416 16.8,29.616 16.8,30.888 C16.8,32.736 16.8,34.728 16.8,36.024 C16.8,37.344 17.88,38.424 19.2,38.424 L19.872,38.424 L19.872,38.424 C20.712,39.864 22.224,40.824 24,40.824 C25.776,40.824 27.312,39.864 28.128,38.424 L28.128,38.424 L28.8,38.424 C30.12,38.424 31.2,37.344 31.2,36.024 L31.2,30.912 C31.2,29.664 31.704,28.464 32.592,27.552 C34.68,25.368 36,22.44 36,19.2 C36,18.432 35.904,17.688 35.784,16.968 Z M20.952,16.152 L24,19.2 L27.048,16.152 L28.752,17.856 L25.2,21.384 L25.2,26.4 L22.8,26.4 L22.8,21.384 L19.272,17.856 L20.952,16.152 Z M28.8,36 L24,36 L24,36 L24,36 L19.2,36 L19.2,33.6 L28.8,33.6 L28.8,36 Z M28.8,31.2 L19.2,31.2 L19.2,31.2 L19.2,28.8 L28.8,28.8 L28.8,31.2 Z" id="Shape" fill="#A63446" fill-rule="nonzero"></path>
                        </g>
                    </g>
                </g>
            </g>
        </g>
    </g>
</svg>