<?xml version="1.0" encoding="UTF-8"?>
<svg width="24px" height="24px" viewBox="0 0 24 24" version="1.1" xmlns="http://www.w3.org/2000/svg" xmlns:xlink="http://www.w3.org/1999/xlink">
    <title>Icons/action/search_24px</title>
    <g id="Assesst-for-download-" stroke="none" stroke-width="1" fill="none" fill-rule="evenodd">
        <g id="Skeleton-Review-see-all" transform="translate(-161, -510)">
            <g id="Icons/action/search_24px" transform="translate(161, 510)">
                <polygon id="Path-Copy" points="0 0 24 0 24 24 0 24"></polygon>
                <path d="M18,4 L6,4 C4.9,4 4,4.9 4,6 L4,18 C4,19.1 4.9,20 6,20 L18,20 C19.1,20 20,19.1 20,18 L20,6 C20,4.9 19.1,4 18,4 Z M16,9 L13,9 L13,14.5 C13,15.9 11.9,17 10.5,17 C9.1,17 8,15.9 8,14.5 C8,13.1 9.1,12 10.5,12 C11.1,12 11.6,12.2 12,12.5 L12,7 L16,7 L16,9 Z" id="Shape" fill="#1B4CA1"></path>
            </g>
        </g>
    </g>
</svg>