<?xml version="1.0" encoding="UTF-8"?>
<svg width="552px" height="488px" viewBox="0 0 552 488" version="1.1" xmlns="http://www.w3.org/2000/svg" xmlns:xlink="http://www.w3.org/1999/xlink">
    <title>Mark</title>
    <defs>
        <radialGradient cx="50%" cy="50%" fx="50%" fy="50%" r="50%" id="radialGradient-1">
            <stop stop-color="#E94D13" offset="0%"></stop>
            <stop stop-color="#EB6E07" offset="21.9621565%"></stop>
            <stop stop-color="#F4970B" offset="40.7644845%"></stop>
            <stop stop-color="#FCBF06" offset="59.1614196%"></stop>
            <stop stop-color="#F7F19D" offset="80.4311045%"></stop>
            <stop stop-color="#FFFFFF" offset="100%"></stop>
        </radialGradient>
        <polygon id="path-2" points="0 0 78 0 78 61 0 61"></polygon>
        <polygon id="path-4" points="0 0 250 0 250 285 0 285"></polygon>
        <polygon id="path-6" points="0 0 250 0 250 285 0 285"></polygon>
    </defs>
    <g id="Assesst-for-download-" stroke="none" stroke-width="1" fill="none" fill-rule="evenodd" opacity="0.158721">
        <g id="Skeleton-Review-see-all" transform="translate(-863, -495)">
            <g id="Mark" transform="translate(863, 495)">
                <g id="Group-5" transform="translate(20, 16)" fill="#264092">
                    <path d="M435.647693,164.569261 C422.660536,162.551496 408.023389,161.266415 391.7102,161.266415 C389.85179,161.355837 388.022328,161.462567 386.211681,161.580834 C391.6827,152.096331 396.648591,143.592585 401.29172,134.180196 C447.159991,127.137491 474.279167,132.253296 474.279167,132.253296 C474.279167,132.253296 462.855158,140.431084 435.647693,164.569261 M375.889113,162.433228 C365.013653,163.519273 355.103583,165.12887 346.083638,167.129327 C349.180987,160.209216 351.716761,152.899687 353.831354,145.38391 C358.177774,143.679123 356.067524,136.238345 360.868416,134.627306 C368.983761,132.303776 398.645947,124.83271 405.968139,123.394746 C401.448035,132.458101 393.701767,167.361536 375.889113,162.433228 M363.878924,89.1778423 C403.125525,67.8535746 429.293785,64.2290982 429.293785,64.2290982 C429.293785,64.2290982 417.437016,78.1818182 394.293737,125.049054 C386.917993,126.348558 380.442506,127.988442 372.380713,130.081206 C366.756274,131.833589 361.427097,133.668183 356.346865,135.564795 C360.015921,119.73277 362.127619,104.567084 363.878924,89.1778423 M446.022367,166.398085 C480.068605,135.505661 494.231018,128.612954 494.231018,128.612954 C494.231018,128.612954 461.393325,115.773682 405.968139,123.394746 C406.224321,122.869753 406.480504,122.341874 406.735239,121.819765 C433.334813,67.2031015 447.080386,52.7946176 447.080386,52.7946176 C447.080386,52.7946176 412.999411,52.2465472 365.068653,77.3351936 C371.738086,17.9459902 379.736195,0.00100960348 379.736195,0.00100960348 C379.736195,0.00100960348 337.483428,14.5998759 292.324363,78.0116279 C289.970956,81.6779308 287.775312,85.2735615 285.705588,88.8086159 L287.160184,103.168062 C289.612011,98.5916736 287.378735,100.016657 290.34727,95.1604641 C328.697955,38.3399805 364.701024,18.6858854 364.701024,18.6858854 C364.701024,18.6858854 360.529734,32.8232186 354.570954,82.4077299 C347.357314,86.5442196 341.1163,91.2446449 333.432268,96.6171777 C312.264635,112.992946 302.005751,127.661042 291.127397,142.310389 L292.35331,143.360376 C301.991277,128.98795 311.355693,116.49627 332.5103,99.3834912 C340.116175,93.775865 358.01567,81.5625475 365.068653,77.3351936 C363.317348,92.1504034 360.198288,120.288052 356.346865,135.564795 C330.149657,146.474282 307.167035,161.626988 294.301456,173.634058 C305.39402,162.209673 330.764785,152.138157 356.346865,140.852233 C354.128062,147.877631 349.356118,160.764498 346.083638,167.129327 C326.852572,172.410995 306.816774,180.805127 295.7575,188.0036 L296.663547,194.480927 C305.660334,188.068503 321.869313,178.159966 338.557369,172.868201 C336.800274,184.279605 327.848355,202.215932 297.704198,207.214912 L298.488667,214.952801 C321.154317,207.911538 331.203335,192.225185 341.34643,174.111456 C349.988614,171.965327 375.501221,162.854377 386.211681,161.580834 C369.750861,192.764601 315.648562,239.421262 298.891033,218.916216 L299.662476,226.527184 C339.763019,227.41275 361.18394,201.960647 380.979476,170.300924 C382.114206,170.208617 383.251831,170.117753 384.408271,170.036985 C391.7102,161.266415 433.588101,164.712048 446.022367,166.398085 C443.818038,168.424504 428.839314,186.193525 426.46275,188.430518 C393.658346,219.311404 327.848355,265.953642 300.218262,234.475648 L301.067862,240.396251 C354.481218,257.1124 396.094252,213.569644 432.217451,179.228703 C434.132308,177.408532 435.980586,176.899404 437.797022,175.20327 C471.636288,181.399351 489.149339,190.107902 489.149339,190.107902 C489.149339,190.107902 472.012602,194.981402 425.734728,220.306584 C387.821145,241.053936 343.799705,266.96613 301.412333,243.804384 L302.35167,253.076871 C348.114284,275.054496 395.882938,246.719253 437.184789,223.854619 C490.443278,194.372755 510,190.448282 510,190.448282 C510,190.448282 488.328686,174.76914 446.022367,166.398085" id="Fill-1"></path>
                    <path d="M35.7208333,132.253728 C35.7208333,132.253728 62.8400089,127.137923 108.70828,134.180629 C113.351409,143.591576 118.3173,152.095321 123.788319,161.581267 C121.977672,161.462999 120.14821,161.354828 118.288353,161.265405 C101.976611,161.265405 87.3394637,162.551929 74.3523066,164.569693 C47.1448421,140.431517 35.7208333,132.253728 35.7208333,132.253728 M104.031861,123.395179 C111.354053,124.833143 141.016239,132.302766 149.131584,134.627739 C153.932476,136.238778 151.822226,143.678113 156.168646,145.384343 C158.283239,152.90012 160.819013,160.208206 163.916362,167.128317 C154.896417,165.129302 144.986347,163.519706 134.110887,162.433661 C116.298233,167.361968 108.551965,132.458534 104.031861,123.395179 M153.653135,135.565228 C148.572903,133.668616 143.243726,131.83258 137.619287,130.080196 C129.557494,127.988875 123.082007,126.34899 115.706263,125.048044 C92.5629843,78.1822509 80.706215,64.2295308 80.706215,64.2295308 C80.706215,64.2295308 106.874475,67.852565 146.121076,89.178275 C147.872381,104.566074 149.984079,119.731761 153.653135,135.565228 M0,190.447273 C0,190.447273 19.556722,194.371746 72.8137634,223.855052 C114.117062,246.719686 161.885716,275.053486 207.646883,253.077303 L208.587667,243.803374 C166.200295,266.966563 122.178855,241.052926 84.2652721,220.305574 C37.9873983,194.981835 20.8506614,190.108335 20.8506614,190.108335 C20.8506614,190.108335 38.3637118,181.398341 72.2029777,175.20226 C74.0194139,176.899836 75.867692,177.407523 77.7825487,179.229136 C113.905748,213.568635 155.518782,257.112833 208.932138,240.396684 L211.013441,233.248691 C183.383348,264.726685 116.341654,219.311836 83.5372502,188.43095 C81.1606859,186.192515 66.181962,168.424936 63.9776335,166.398518 C76.4118992,164.711038 118.288353,161.265405 125.591729,170.035975 C126.748169,170.116743 127.884346,170.20905 129.020524,170.301357 C148.81606,201.961079 170.236981,227.413183 210.337524,226.527616 L211.108967,218.915206 C194.351438,239.421695 142.363731,193.516467 123.788319,161.581267 C134.498779,162.853368 159.769677,172.978248 168.411861,175.125819 C178.554956,193.238105 188.845683,207.911971 211.511333,214.953234 L212.295802,207.215344 C182.151645,202.214922 173.199726,184.280038 171.442631,172.868634 C188.130687,178.158956 204.339666,188.068935 213.336453,194.48136 L214.2425,188.004032 C203.183226,180.804117 183.147428,172.409986 163.916362,167.128317 C160.643882,160.764931 155.871938,147.876621 153.653135,140.852666 C179.235215,152.13859 204.60598,162.208664 215.698544,173.633048 C202.832965,161.62742 179.850343,146.474715 153.653135,135.565228 C149.801712,120.288485 146.682652,92.1508361 144.931347,77.3356263 C151.98433,81.5629802 169.883825,93.7762977 177.4897,99.3824816 C198.644307,116.496703 208.008723,128.98694 217.64669,143.360809 L218.872603,142.309379 C207.994249,127.661475 197.735365,112.991936 176.567732,96.6176104 C168.8837,91.2436353 162.642686,86.5446522 155.429046,82.4081626 C149.468819,32.8236513 145.298976,18.686318 145.298976,18.686318 C145.298976,18.686318 181.302045,38.3389709 219.65273,95.1608968 C222.621265,100.015647 220.387989,98.5921063 222.839816,103.168495 L224.294412,88.8090486 C222.224688,85.2725519 220.029044,81.6769212 217.675637,78.0106183 C172.516572,14.6003086 130.263805,0 130.263805,0 C130.263805,0 138.261914,17.9449806 144.931347,77.3356263 C97.0005886,52.2455376 62.9196137,52.7950503 62.9196137,52.7950503 C62.9196137,52.7950503 76.6651871,67.2020919 103.264761,121.820198 C103.519496,122.342307 103.775679,122.868743 104.031861,123.395179 C48.6066752,115.774115 15.7689821,128.613387 15.7689821,128.613387 C15.7689821,128.613387 29.9313952,135.504652 63.9776335,166.398518 C21.6713143,174.769573 0,190.447273 0,190.447273" id="Fill-3"></path>
                </g>
                <path d="M241,208.999276 C241,228.329481 256.669396,244 276,244 L276,244 C295.329157,244 311,228.329481 311,208.999276 L311,208.999276 C311,189.670519 295.329157,174 276,174 L276,174 C256.669396,174 241,189.670519 241,208.999276" id="Fill-6" fill="url(#radialGradient-1)"></path>
                <polygon id="Fill-9" fill="#264092" points="318 321.853894 275 211 232 321.853894 262.674072 348.699468 263.215182 301.303193 273.232277 293.031737 286.49749 298.560416 286.768774 317.312787 284.872702 352 300.884302 335.626715"></polygon>
                <path d="M274.758652,365.445326 C274.758652,365.445326 270.171077,385.119584 289.452272,384.27816 C304.455706,383.623558 345.884965,376.357769 362.409833,373.487369 C378.933247,370.618418 411.980074,382.493936 391.717074,420.90834 C380.803767,438.914232 342.143925,441.086583 301.924831,413.147255 C261.704282,385.209374 240.28639,370.070985 224.914961,363.168703 C204.499236,354.00283 154.494092,344.936886 144.475318,395.142811 C139.31757,430.660747 177.836323,437.671648 177.836323,437.671648 C177.836323,437.671648 151.126865,429.196583 150.710871,402.903896 C150.425783,384.847316 168.326633,356.108562 204.499236,368.446067 C240.96129,380.882051 240.815837,385.519296 292.882044,424.013354 C325.307788,445.742655 377.997986,463.437177 402.940195,427.116919 C417.905812,402.282604 409.175748,368.136145 375.816198,364.099917 C350.249997,360.994904 352.120517,371.23971 295.065287,379.622088 C275.734639,382.350561 274.866287,375.139804 274.758652,365.445326" id="Fill-11" fill="#1B2133"></path>
                <g id="Group-15" transform="translate(177, 427)">
                    <mask id="mask-3" fill="white">
                        <use xlink:href="#path-2"></use>
                    </mask>
                    <g id="Clip-14"></g>
                    <path d="M65.4124264,17.2387344 L32.1882721,2.00085393 C21.3033077,-2.99270308 8.3842408,1.68253954 3.33420385,12.4427028 L2.8598195,13.4559089 L16.3668355,19.4157774 C16.3668355,19.4157774 26.6595382,15.6087941 31.0986256,25.7550654 C39.7338582,29.5009436 43.8451892,31.6055133 43.8451892,31.6055133 L43.2227394,32.9384549 L30.5135516,27.2301115 C30.5135516,27.2301115 20.4249779,30.7869906 15.7472608,21.1025595 C6.20351035,16.7101051 3.22926428,15.176796 2.29918346,14.6510089 L2.02317803,15.2393221 C-3.02685893,25.9994853 1.70260921,38.7690082 12.5875736,43.7611442 L45.8117279,59.0004456 C56.6952547,63.9925816 69.6143217,59.317339 74.6643586,48.5571757 L75.976822,45.7605564 C81.0268589,35.0003932 76.2973908,22.2308703 65.4124264,17.2387344" id="Fill-13" fill="#1B2133" mask="url(#mask-3)"></path>
                </g>
                <path d="M275.761336,291.648145 L275.610387,291.65106 C260.442295,291.65106 261.818415,309.291318 261.818415,309.291318 L261.818415,338.362836 C256.223074,327.460652 227.740768,310.329066 227.740768,310.329066 L249.100666,100 L238.727742,100.262352 L217,319.435596 C217,319.435596 263.613672,344.340089 272.419959,377 L272.419959,313.324252 L272.419959,313.325709 C269.902202,312.168445 268.246169,309.641121 268.246169,306.701321 C268.246169,302.669845 271.533322,299.400647 275.586939,299.400647 C279.640557,299.400647 282.92771,302.669845 282.92771,306.701321 C282.92771,309.657153 281.179349,312.196138 278.639609,313.344657 L278.639609,313.344657 L278.639609,377 C289.745291,340.667161 333,319.448713 333,319.448713 C333,319.448713 317.686822,158.475349 311.437861,100 L302.442523,100 L304.941228,124.602789 L323.803886,310.329066 C323.803886,310.329066 295.320114,327.460652 289.726239,338.362836 L289.726239,309.291318 C289.726239,309.291318 290.982186,291.65106 275.934267,291.65106 L275.761336,291.648145 Z" id="Fill-16" fill="#EF951E"></path>
                <g id="Group-20">
                    <mask id="mask-5" fill="white">
                        <use xlink:href="#path-4"></use>
                    </mask>
                    <g id="Clip-19"></g>
                    <path d="M38.7557063,146.513198 C38.7557063,146.513198 68.1783214,136.942128 117.944998,144.602186 C122.981839,154.839854 128.369818,165.42392 134.305627,175.740183 C132.341594,175.610647 130.357163,175.494211 128.339221,175.396695 C110.641067,175.396695 94.7612476,176.795387 80.6691642,178.990213 C51.1503872,152.736722 38.7557063,146.513198 38.7557063,146.513198 M86.227611,71.1919636 C86.227611,71.1919636 115.954739,72.4640309 158.535502,95.6567009 C160.435427,112.394429 162.728741,130.223749 166.70926,147.444689 C161.197437,145.380854 155.414612,143.385425 149.312705,141.47878 C140.56489,139.203904 132.203179,137.420972 124.19989,136.00627 C99.0914453,85.0318819 86.227611,71.1919636 86.227611,71.1919636 M169.43676,158.123359 C171.732988,166.297193 174.482343,174.246886 177.843637,181.774498 C168.056983,179.598593 157.305795,177.847681 145.507027,176.667307 C139.623669,166.728007 134.344966,156.475785 129.439254,146.61799 C137.382806,148.182604 145.767829,150.176577 154.572467,152.704702 C159.781235,154.457069 164.721914,156.26911 169.43676,158.123359 M91.4247225,239.611355 C41.2151187,212.066875 22.6223689,208.102217 22.6223689,208.102217 C22.6223689,208.102217 41.6230781,195.959359 78.3365106,189.219148 C80.3092857,191.06612 82.3141148,192.953845 84.3917937,194.933263 C123.942001,232.623717 175.002491,281.863203 233.618973,262.280061 L234.544167,253.119429 C180.18649,272.98493 133.329438,228.244254 97.3882148,194.327794 C94.8093285,191.892818 92.3251471,189.578645 89.9327566,187.375087 C103.4231,185.539759 118.864363,184.500564 136.262375,184.935745 C137.518307,185.024528 138.750927,185.123499 139.982091,185.223925 C161.714671,220.064599 190.711843,249.384733 235.093455,247.690584 L235.931229,239.397403 C196.8866,240.732055 170.982634,216.159614 151.537541,186.379556 C163.158556,187.763693 173.606688,189.703815 182.983926,192.039819 C194.213008,212.141104 210.875236,228.127817 236.314419,235.605943 L237.163849,227.200693 C218.498249,221.009189 205.192944,209.738148 195.57093,195.592584 C214.577468,201.634176 228.367953,209.273858 238.239113,216.567141 L239.229872,206.764654 C227.072681,198.609742 210.745563,190.52178 189.034838,184.545683 C185.485591,177.623541 182.587622,170.240019 180.182119,162.598882 C209.023392,175.354487 227.655481,189.744567 239.656772,202.540925 L240.771375,191.502756 C226.756513,178.054355 206.443049,163.798177 177.062686,151.533061 C172.884017,134.91759 170.583417,117.584581 168.683492,101.471242 C176.337102,106.070479 184.318536,111.339225 192.569515,117.439035 C216.519646,136.860622 232.357213,155.167331 242.814086,171.298135 L244.16181,157.969081 C232.274164,141.52681 215.431268,123.588331 191.570014,105.083681 C183.233072,99.2400303 175.124879,94.1284735 167.299344,89.6296632 C160.833187,35.6992463 153.635618,18.9877159 153.635618,18.9877159 C153.635618,18.9877159 196.707389,36.3571118 238.316334,98.157172 C242.06519,104.305012 245.410457,110.243267 248.404587,115.979214 L250,100.187531 C247.381775,95.6174036 244.57414,90.9555824 241.517358,86.1816911 C192.521434,17.2149721 141.331271,-0.000145545466 141.331271,-0.000145545466 C141.331271,-0.000145545466 150.010607,19.5175014 157.244601,84.1120346 C105.241433,56.8237152 68.2657413,57.4219071 68.2657413,57.4219071 C68.2657413,57.4219071 83.1795715,73.0913319 112.038328,132.494258 C112.315158,133.061886 112.593445,133.635335 112.870274,134.207328 C52.7356009,125.918514 17.1076319,139.883602 17.1076319,139.883602 C17.1076319,139.883602 32.4745885,147.379193 69.4123986,180.979819 C23.5125946,190.083688 -0.000437099362,207.135795 -0.000437099362,207.135795 C-0.000437099362,207.135795 21.2192799,211.404643 79.0009016,243.47122 C124.300422,268.608378 182.230658,301.196008 232.252309,275.795413 L233.283863,265.59122 C186.925105,292.397784 133.045324,262.443072 91.4247225,239.611355" id="Fill-18" fill="#EF951E" mask="url(#mask-5)"></path>
                </g>
                <g id="Group-23" transform="translate(302, 0)">
                    <mask id="mask-7" fill="white">
                        <use xlink:href="#path-6"></use>
                    </mask>
                    <g id="Clip-22"></g>
                    <path d="M168.908508,178.992836 C154.742725,176.79943 138.779856,175.39926 120.989144,175.39926 C118.960649,175.496777 116.965839,175.614671 114.991535,175.742753 C120.958387,165.426322 126.374544,154.842084 131.437727,144.605705 C181.464676,136.945522 211.041167,146.515292 211.041167,146.515292 C211.041167,146.515292 198.581664,152.738918 168.908508,178.992836 M103.733018,176.669893 C91.8725431,177.851741 81.063664,179.601226 71.2258265,181.777166 C74.6046997,174.249432 77.369898,166.301065 79.676671,158.125643 C84.4161741,156.271364 89.3826929,154.459293 94.6187014,152.708353 C103.469387,150.180187 111.898262,148.184726 119.883358,146.620087 C114.953454,156.479497 109.64568,166.730431 103.733018,176.669893 M90.6349411,95.6579674 C133.438395,72.4649198 163.322456,71.1942872 163.322456,71.1942872 C163.322456,71.1942872 150.391346,85.0344309 125.150123,136.008194 C117.104978,137.422919 108.699537,139.20588 99.9074362,141.480792 C93.7721523,143.387469 87.9605491,145.38293 82.4184354,147.446798 C86.4212358,130.225578 88.7250795,112.395968 90.6349411,95.6579674 M180.224145,180.982475 C217.355135,147.381302 232.802458,139.885588 232.802458,139.885588 C232.802458,139.885588 196.98816,125.920273 136.538991,134.209223 C136.817268,133.63722 137.098475,133.065217 137.375288,132.49758 C166.384972,73.0922309 181.378264,57.422551 181.378264,57.422551 C181.378264,57.422551 144.20773,56.8243494 91.9325924,84.1131131 C99.2058842,19.5175281 107.929148,-0.000436643506 107.929148,-0.000436643506 C107.929148,-0.000436643506 56.4712671,17.2149614 7.21910096,86.1828033 C4.65309064,90.170814 2.25844059,94.0816843 0,97.9270581 L1.58764566,113.545796 C4.26057308,108.56806 7.20006093,103.44041 10.4368662,98.1599347 C52.2648849,36.3588682 95.5619153,18.987734 95.5619153,18.987734 C95.5619153,18.987734 88.3252389,35.6995365 81.8267299,89.6308315 C73.9588032,94.1297151 65.8082054,99.2413551 57.4291271,105.085101 C34.3423573,122.895789 17.7775304,140.185417 5.91412653,156.117083 L7.25132255,169.278974 C17.7614196,153.645681 33.3493465,136.053314 56.4229347,117.440656 C64.7170651,111.342202 72.7417059,106.071915 80.4338784,101.472603 C78.5240168,117.58766 76.21285,134.920952 72.0108616,151.536692 C43.4405629,163.401752 23.4075211,177.128368 9.37501831,190.18692 L10.483734,201.091364 C22.5814767,188.66449 40.9756112,174.876743 68.875115,162.602694 C66.457031,170.2425 63.5439063,177.626142 59.9760974,184.548397 C39.0027711,190.29317 23.0252559,197.986829 10.9641286,205.817302 L11.951281,215.53262 C21.7627554,208.557968 35.2050172,201.351895 53.4058221,195.596933 C43.9897945,209.367214 31.0747951,220.421572 13.0878243,226.71215 L13.9416965,235.127725 C38.6629797,227.468998 54.996397,211.74401 66.0601196,192.042655 C75.4849349,189.706612 85.9891735,187.76646 97.6709648,186.3823 C78.3804843,215.769863 52.7672488,240.083629 14.3810818,239.437397 L15.2217724,247.716158 C58.9581881,248.679684 87.6954532,219.661812 109.285384,185.22665 C110.522986,185.126222 111.762052,185.027249 113.024553,184.939921 C130.513554,184.503277 146.035573,185.543944 159.596469,187.377847 C157.191566,189.581441 154.695857,191.895652 152.103484,194.330667 C116.325801,227.917286 69.7905011,272.120163 15.8281242,253.692352 L16.7552272,262.802191 C75.0103988,280.982571 125.769657,232.288087 165.16641,194.937602 C167.256419,192.956696 169.271733,191.06894 171.253361,189.223394 C208.1588,195.962258 227.260345,208.105314 227.260345,208.105314 C227.260345,208.105314 208.568893,212.070037 158.0967,239.614965 C116.747611,262.180702 63.3608291,291.700714 17.131634,266.507839 L18.1554018,276.592848 C68.066646,300.496169 125.538247,268.343197 170.585496,243.474894 C228.670772,211.407795 250,207.140332 250,207.140332 C250,207.140332 226.363999,190.086492 180.224145,180.982475" id="Fill-21" fill="#EF951E" mask="url(#mask-7)"></path>
                </g>
            </g>
        </g>
    </g>
</svg>