<?xml version="1.0" encoding="UTF-8"?>
<svg width="24px" height="24px" viewBox="0 0 24 24" version="1.1" xmlns="http://www.w3.org/2000/svg" xmlns:xlink="http://www.w3.org/1999/xlink">
    <title>Icons/action/search_24px</title>
    <g id="Assesst-for-download-" stroke="none" stroke-width="1" fill="none" fill-rule="evenodd">
        <g id="Skeleton-Review-see-all" transform="translate(-72, -510)">
            <g id="Icons/action/search_24px" transform="translate(72, 510)">
                <rect id="Size" fill="#D8D8D8" opacity="0" x="0" y="0" width="24" height="24"></rect>
                <path d="M3.9,6.6 C3.405,6.6 3,7.005 3,7.5 L3,19.2 C3,20.19 3.81,21 4.8,21 L16.5,21 C16.995,21 17.4,20.595 17.4,20.1 C17.4,19.605 16.995,19.2 16.5,19.2 L5.7,19.2 C5.205,19.2 4.8,18.795 4.8,18.3 L4.8,7.5 C4.8,7.005 4.395,6.6 3.9,6.6 Z M19.2,3 L8.4,3 C7.41,3 6.6,3.81 6.6,4.8 L6.6,15.6 C6.6,16.59 7.41,17.4 8.4,17.4 L19.2,17.4 C20.19,17.4 21,16.59 21,15.6 L21,4.8 C21,3.81 20.19,3 19.2,3 Z M12,14.25 L12,6.15 L16.923,9.84 C17.166,10.02 17.166,10.38 16.923,10.56 L12,14.25 Z" id="Shape" fill="#1B4CA1"></path>
            </g>
        </g>
    </g>
</svg>