<?xml version="1.0" encoding="UTF-8"?>
<svg width="24px" height="24px" viewBox="0 0 24 24" version="1.1" xmlns="http://www.w3.org/2000/svg" xmlns:xlink="http://www.w3.org/1999/xlink">
    <title>Group 11</title>
    <g id="Assesst-for-download-" stroke="none" stroke-width="1" fill="none" fill-rule="evenodd">
        <g id="Skeleton-Review-see-all" transform="translate(-725, -65)" fill="#1B4CA1">
            <g id="Group-11" transform="translate(725, 65)">
                <g id="Icons/action/search_24px" transform="translate(2, 2)">
                    <path d="M9.992307,4.4408921e-16 C15.5003319,4.4408921e-16 19.9798077,4.47947577 19.9798077,9.98750069 C19.9798077,15.4955256 15.5003319,19.9798077 9.992307,19.9798077 C4.48428207,19.9798077 4.4408921e-16,15.5003319 4.4408921e-16,9.992307 C4.4408921e-16,4.48428207 4.48428207,4.4408921e-16 9.992307,4.4408921e-16 Z M9.992307,1.60530569 C5.3686421,1.60530569 1.610112,5.36383579 1.610112,9.98750069 C1.610112,14.6111656 5.3686421,18.3696957 9.992307,18.3696957 C14.6159719,18.3696957 18.374502,14.6111656 18.374502,9.98750069 C18.374502,5.36383579 14.6159719,1.60530569 9.992307,1.60530569 Z M9.992307,2.56656659 C14.0824721,2.56656659 17.4132411,5.89733559 17.4132411,9.98750069 C17.4132411,14.0776658 14.0824721,17.4084348 9.992307,17.4084348 C5.90214189,17.4084348 2.57137289,14.0776658 2.57137289,9.98750069 C2.57137289,5.89733559 5.90214189,2.56656659 9.992307,2.56656659 Z M12.5635151,7.14079522 L7.86487185,7.14079522 L7.86487185,7.93556572 L8.85458607,7.93556572 C9.31778565,7.93556572 9.68184719,8.01970809 9.9467707,8.18799283 C10.173848,8.3322369 10.3293133,8.52850676 10.4131666,8.77680241 L10.4491256,8.90528571 L7.85487474,8.90528571 L7.85487474,9.67006488 L10.4241329,9.67006488 C10.3374912,9.95998117 10.1600424,10.1940802 9.89178657,10.3723621 C9.66185297,10.5251751 9.36642807,10.6124968 9.00551188,10.6343273 L8.81959617,10.6397849 L7.86487185,10.6397849 L7.86487185,11.3745727 L8.72962215,11.3745727 C8.86624937,11.3745727 8.96788669,11.3920676 9.03453411,11.4270575 C9.07896572,11.4503841 9.12117576,11.4844484 9.16116421,11.5292503 L9.2194807,11.6045063 L10.9889698,14.0937875 C11.0636149,14.2137529 11.168118,14.2857321 11.3024792,14.3097252 L11.4088485,14.3187226 L12.3585743,14.3187226 L10.3391574,11.5245294 C10.2291891,11.3612432 10.0942281,11.2379455 9.9342743,11.1546362 C10.3574854,11.0313385 10.6982204,10.8397271 10.9564791,10.5798022 C11.1716948,10.3631981 11.3215358,10.11651 11.4060021,9.83973811 L11.448837,9.67006488 L12.5635151,9.67006488 L12.5635151,8.90528571 L11.4588341,8.90528571 C11.422178,8.69534633 11.3471997,8.50623427 11.233899,8.33794953 C11.1432585,8.20332174 11.0216936,8.08415615 10.8692043,7.98045276 L10.749039,7.90557438 L12.5635151,7.90557438 L12.5635151,7.14079522 Z" id="Combined-Shape"></path>
                </g>
            </g>
        </g>
    </g>
</svg>