<?xml version="1.0" encoding="UTF-8"?>
<svg width="24px" height="24px" viewBox="0 0 24 24" version="1.1" xmlns="http://www.w3.org/2000/svg" xmlns:xlink="http://www.w3.org/1999/xlink">
    <title>instructer-led</title>
    <g id="Assesst-for-download-" stroke="none" stroke-width="1" fill="none" fill-rule="evenodd">
        <g id="Skeleton-Review-see-all" transform="translate(-931, -65)">
            <g id="instructer-led" transform="translate(931, 65)">
                <rect id="Rectangle" x="0" y="0" width="24" height="24"></rect>
                <g id="Group" transform="translate(1, 3)" fill="#1B4CA1" fill-rule="nonzero">
                    <path d="M20,0 L2,0 C0.9,0 0,0.9 0,2 L0,10 L2,10 L2,2 L20,2 L20,18 C21.1,18 22,17.1 22,16 L22,2 C22,0.9 21.1,0 20,0 Z" id="Path"></path>
                    <circle id="Oval" cx="8" cy="7" r="4"></circle>
                    <path d="M14.39,13.56 C12.71,12.7 10.53,12 8,12 C5.47,12 3.29,12.7 1.61,13.56 C0.61,14.07 0,15.1 0,16.22 L0,19 L16,19 L16,16.22 C16,15.1 15.39,14.07 14.39,13.56 Z" id="Path"></path>
                </g>
            </g>
        </g>
    </g>
</svg>