<?xml version="1.0" encoding="UTF-8"?>
<svg width="470px" height="416px" viewBox="0 0 470 416" version="1.1" xmlns="http://www.w3.org/2000/svg" xmlns:xlink="http://www.w3.org/1999/xlink">
    <title>Mark</title>
    <defs>
        <radialGradient cx="50%" cy="50%" fx="50%" fy="50%" r="50%" id="radialGradient-1">
            <stop stop-color="#E94D13" offset="0%"></stop>
            <stop stop-color="#EB6E07" offset="21.9621565%"></stop>
            <stop stop-color="#F4970B" offset="40.7644845%"></stop>
            <stop stop-color="#FCBF06" offset="59.1614196%"></stop>
            <stop stop-color="#F7F19D" offset="80.4311045%"></stop>
            <stop stop-color="#FFFFFF" offset="100%"></stop>
        </radialGradient>
        <polygon id="path-2" points="0 0 66 0 66 52 0 52"></polygon>
        <polygon id="path-4" points="0 0 214 0 214 244 0 244"></polygon>
        <polygon id="path-6" points="0 0 214 0 214 244 0 244"></polygon>
    </defs>
    <g id="Assesst-for-download-" stroke="none" stroke-width="1" fill="none" fill-rule="evenodd" opacity="0.158721">
        <g id="Skeleton-Review-see-all" transform="translate(-344, -597)">
            <g id="Mark" transform="translate(344, 597)">
                <g id="Group-5" transform="translate(17, 14)" fill="#264092">
                    <path d="M371.581856,140.608985 C360.504575,138.884995 348.01995,137.787014 334.105759,137.787014 C332.520645,137.863416 330.960221,137.954607 329.415846,138.055655 C334.082303,129.952038 338.317916,122.686385 342.278232,114.644382 C381.401169,108.627051 404.53223,112.998027 404.53223,112.998027 C404.53223,112.998027 394.788223,119.985179 371.581856,140.608985 M320.611302,138.783946 C311.335175,139.711869 302.882468,141.087118 295.188985,142.796321 C297.830842,136.883736 299.993708,130.63843 301.797331,124.216904 C305.504572,122.760323 303.704653,116.402877 307.799531,115.026396 C314.721443,113.041157 340.021543,106.657833 346.266942,105.429228 C342.411559,113.173014 335.804448,142.994722 320.611302,138.783946 M310.367317,76.1940952 C343.842359,57.9745101 366.162346,54.8777352 366.162346,54.8777352 C366.162346,54.8777352 356.049219,66.7990247 336.309364,106.842678 C330.018288,107.952982 324.495079,109.35411 317.618844,111.14218 C312.821528,112.639427 308.276053,114.206915 303.942914,115.827392 C307.072403,102.300413 308.873557,89.3427575 310.367317,76.1940952 M380.430842,142.171544 C409.470281,115.776868 421.549986,109.887696 421.549986,109.887696 C421.549986,109.887696 393.541365,98.917744 346.266942,105.429228 C346.485451,104.98067 346.703959,104.529647 346.921234,104.083554 C369.609105,57.4187419 381.333271,45.108045 381.333271,45.108045 C381.333271,45.108045 352.264204,44.6397702 311.382086,66.0756635 C317.07072,15.3331641 323.892637,0.000862611401 323.892637,0.000862611401 C323.892637,0.000862611401 287.853512,12.4742234 249.335486,66.6536131 C247.328169,69.7861248 245.455413,72.8582537 243.69006,75.8786259 L244.930745,88.1474246 C247.02201,84.2373303 245.117157,85.4548447 247.649142,81.3056839 C280.360021,32.7579143 311.06852,15.965335 311.06852,15.965335 C311.06852,15.965335 307.510655,28.0443592 302.428167,70.4096696 C296.275356,73.9439117 290.952138,77.9599839 284.398111,82.5503089 C266.343365,96.5418658 257.59314,109.074377 248.314544,121.590868 L249.360176,122.487984 C257.580795,110.208095 265.568091,99.5351273 283.611727,84.9138641 C290.09909,80.1226739 305.366307,69.6875406 311.382086,66.0756635 C309.888326,78.7338696 307.227952,102.774849 303.942914,115.827392 C281.598237,125.148524 261.995412,138.095089 251.02183,148.354003 C260.483134,138.592939 282.122905,129.987774 303.942914,120.345011 C302.050406,126.347554 297.980218,137.358173 295.188985,142.796321 C278.786017,147.309011 261.69666,154.481009 252.26375,160.631428 L253.036555,166.165696 C260.710285,160.686882 274.535591,152.220967 288.76952,147.699651 C287.270822,157.449624 279.635362,172.774532 253.924169,177.045691 L254.593275,183.656991 C273.925741,177.640893 282.496962,164.238376 291.148426,148.761895 C298.5197,146.92823 320.280453,139.143778 329.415846,138.055655 C315.375735,164.699257 269.229656,204.562994 254.936469,187.043357 L255.594465,193.546214 C289.797869,194.302848 308.068655,172.556415 324.953083,145.506153 C325.920941,145.427286 326.891268,145.349651 327.877643,145.280642 C334.105759,137.787014 369.825145,140.730983 380.430842,142.171544 C378.550679,143.902928 365.774709,159.084889 363.74764,160.99619 C335.767413,187.381008 279.635362,227.232422 256.068517,200.337431 L256.793176,205.396031 C302.351627,219.678411 337.845097,182.475213 368.656061,153.134103 C370.289321,151.578938 371.865794,151.143935 373.415107,149.694748 C402.278011,154.988717 417.215612,162.429357 417.215612,162.429357 C417.215612,162.429357 402.598984,166.593305 363.12668,188.231296 C330.788624,205.95796 293.240925,228.097498 257.08699,208.30796 L257.888189,216.23043 C296.921007,235.008248 337.664859,210.798442 372.892908,191.262759 C418.319267,166.073274 435,162.72018 435,162.72018 C435,162.72018 416.515644,149.323825 380.430842,142.171544" id="Fill-1"></path>
                    <path d="M30.4677696,112.998396 C30.4677696,112.998396 53.5988311,108.627421 92.7217681,114.644752 C96.6820844,122.685522 100.917697,129.951175 105.584154,138.056025 C104.039779,137.954976 102.479355,137.862554 100.893007,137.786151 C86.9800503,137.786151 74.4954249,138.885364 63.4181439,140.609355 C40.2117771,119.985549 30.4677696,112.998396 30.4677696,112.998396 M88.7330581,105.429597 C94.978457,106.658203 120.278557,113.040295 127.200469,115.026765 C131.295347,116.403247 129.495428,122.75946 133.202669,124.217274 C135.006292,130.638799 137.169158,136.882874 139.811015,142.795459 C132.117532,141.087488 123.664825,139.712239 114.388698,138.784316 C99.1955519,142.995092 92.5884408,113.173383 88.7330581,105.429597 M131.057086,115.827762 C126.723947,114.207285 122.178472,112.638564 117.381156,111.141317 C110.504921,109.354479 104.981712,107.953352 98.6906363,106.841816 C78.9507807,66.7993944 68.8376539,54.8781049 68.8376539,54.8781049 C68.8376539,54.8781049 91.1576407,57.9736475 124.632683,76.1944649 C126.126443,89.3418949 127.927597,102.29955 131.057086,115.827762 M0,162.719317 C0,162.719317 16.6807335,166.072411 62.105857,191.263129 C97.3351415,210.798812 138.078993,235.007385 177.110577,216.230799 L177.91301,208.307098 C141.759075,228.097868 104.211376,205.957098 71.8733203,188.230433 C32.4010162,166.593675 17.7843877,162.429726 17.7843877,162.429726 C17.7843877,162.429726 32.7219895,154.987855 61.5848927,149.693885 C63.134206,151.144305 64.7106785,151.578075 66.3439386,153.134472 C97.1549027,182.474351 132.648373,219.67878 178.206824,205.3964 L179.982053,199.289111 C156.415208,226.184103 99.2325873,187.381377 71.2523605,160.996559 C69.2252909,159.084026 56.4493206,143.903298 54.569158,142.171914 C65.1748552,140.730121 100.893007,137.786151 107.122357,145.27978 C108.108732,145.348788 109.077825,145.427656 110.046917,145.506523 C126.931345,172.556784 145.202131,194.303218 179.405535,193.546584 L180.063531,187.042494 C165.770344,204.563364 121.427888,165.341656 105.584154,138.056025 C114.719547,139.142916 136.274136,147.793676 143.645411,149.628573 C152.296874,165.103822 161.074259,177.641262 180.406725,183.657361 L181.075831,177.04606 C155.364638,172.773669 147.729178,157.449994 146.23048,147.700021 C160.464409,152.220104 174.289715,160.687251 181.963445,166.166066 L182.73625,160.631798 C173.30334,154.480146 156.213983,147.308149 139.811015,142.795459 C137.019782,137.358542 132.949594,126.346692 131.057086,120.345381 C152.877095,129.988144 174.516866,138.592077 183.97817,148.353141 C173.004588,138.095459 153.401763,125.148894 131.057086,115.827762 C127.772048,102.775219 125.111674,78.7342393 123.617914,66.0760332 C129.633693,69.6879103 144.90091,80.1230436 151.388273,84.9130015 C169.431909,99.535497 177.419205,110.207232 185.639824,122.488354 L186.685456,121.590006 C177.40686,109.074747 168.656635,96.5410032 150.601889,82.5506786 C144.047862,77.9591213 138.724644,73.9442814 132.571833,70.4100393 C127.48811,28.0447289 123.93148,15.9657047 123.93148,15.9657047 C123.93148,15.9657047 154.639979,32.7570517 187.350858,81.3060536 C189.882843,85.4539821 187.97799,84.2377 190.069255,88.1477943 L191.30994,75.8789956 C189.544587,72.8573911 187.671831,69.7852622 185.664514,66.6527505 C147.146488,12.4745931 111.107363,0 111.107363,0 C111.107363,0 117.92928,15.3323015 123.617914,66.0760332 C82.7357962,44.6389076 53.6667293,45.1084147 53.6667293,45.1084147 C53.6667293,45.1084147 65.3908949,57.4178793 88.0787664,104.083924 C88.2960406,104.530017 88.5145494,104.979807 88.7330581,105.429597 C41.4586347,98.9181137 13.4500142,109.888066 13.4500142,109.888066 C13.4500142,109.888066 25.5297194,115.776005 54.569158,142.171914 C18.4843563,149.324195 0,162.719317 0,162.719317" id="Fill-3"></path>
                </g>
                <path d="M207,178.49939 C207,194.791991 220.207062,208 236.5,208 L236.5,208 C252.791718,208 266,194.791991 266,178.49939 L266,178.49939 C266,162.208009 252.791718,149 236.5,149 L236.5,149 C220.207062,149 207,162.208009 207,178.49939" id="Fill-6" fill="url(#radialGradient-1)"></path>
                <polygon id="Fill-9" fill="#264092" points="271 274.343739 234.5 180 198 274.343739 224.037294 297.191036 224.496608 256.853781 232.999491 249.814245 244.259497 254.519503 244.489773 270.478967 242.880317 300 256.471559 286.06529"></polygon>
                <path d="M234.587271,311.110661 C234.587271,311.110661 230.67231,328.00486 247.126563,327.282333 C259.930245,326.720229 295.28529,320.481128 309.387339,318.016328 C323.488147,315.552772 351.689762,325.750227 334.397653,358.736509 C325.084418,374.198091 292.092748,376.063479 257.770438,352.072099 C223.446888,328.081963 205.169212,315.082694 192.051489,309.155734 C174.629047,301.285039 131.955485,293.500152 123.405629,336.611761 C119.004091,367.110859 151.875358,373.131089 151.875358,373.131089 C151.875358,373.131089 129.081949,365.853587 128.726946,343.276172 C128.483657,327.771065 143.759946,303.093222 174.629047,313.687384 C205.745161,324.366109 205.621034,328.348091 250.053473,361.402771 C277.725067,380.061628 322.690011,395.255837 343.97528,364.067789 C356.746689,342.742671 349.296597,313.421255 320.828109,309.955364 C299.010336,307.289102 300.606607,316.086273 251.916617,323.284184 C235.420162,325.627112 234.679124,319.435267 234.587271,311.110661" id="Fill-11" fill="#1B2133"></path>
                <g id="Group-15" transform="translate(152, 364)">
                    <mask id="mask-3" fill="white">
                        <use xlink:href="#path-2"></use>
                    </mask>
                    <g id="Clip-14"></g>
                    <path d="M55.3489762,14.6953145 L27.2362302,1.70564598 C18.0258758,-2.55115672 7.0943576,1.434296 2.82124941,10.6068942 L2.41984727,11.4706108 L13.8488608,16.5511545 C13.8488608,16.5511545 22.5580708,13.3058573 26.3142217,21.9551377 C33.6209569,25.1483454 37.0997755,26.9424048 37.0997755,26.9424048 L36.5730872,28.0786828 L25.8191591,23.2125541 C25.8191591,23.2125541 17.2826736,26.2446477 13.3246053,17.9890671 C5.24912415,14.2446798 2.73245439,12.9375966 1.94546293,12.4893846 L1.71191987,12.9908975 C-2.56118833,22.1634957 1.44066933,33.0489906 10.6510238,37.3045819 L38.7637698,50.2954618 C47.9729079,54.5510532 58.904426,50.5656004 63.1775342,41.3930023 L64.2880801,39.0089989 C68.5611883,29.8364007 64.5593307,18.9509058 55.3489762,14.6953145" id="Fill-13" fill="#1B2133" mask="url(#mask-3)"></path>
                </g>
                <path d="M236.149761,247.281452 L236.020934,247.283936 C223.075752,247.283936 224.250199,262.313181 224.250199,262.313181 L224.250199,287.081694 C219.474865,277.793191 195.16669,263.197327 195.16669,263.197327 L213.396258,84 L204.543504,84.2235201 L186,270.955959 C186,270.955959 225.782358,292.174228 233.298068,320 L233.298068,265.749182 L233.298068,265.750424 C231.149293,264.764451 229.735954,262.611208 229.735954,260.10654 C229.735954,256.671781 232.541369,253.886472 236.000922,253.886472 C239.460475,253.886472 242.26589,256.671781 242.26589,260.10654 C242.26589,262.624867 240.773755,264.788045 238.606218,265.766567 L238.606218,265.766567 L238.606218,320 C248.084343,289.044946 285,270.967135 285,270.967135 C285,270.967135 271.930994,133.820153 266.59783,84 L258.920774,84 L261.053289,104.961221 L277.151592,263.197327 C277.151592,263.197327 252.842166,277.793191 248.068083,287.081694 L248.068083,262.313181 C248.068083,262.313181 249.139969,247.283936 236.297348,247.283936 L236.149761,247.281452 Z" id="Fill-16" fill="#EF951E"></path>
                <g id="Group-20">
                    <mask id="mask-5" fill="white">
                        <use xlink:href="#path-4"></use>
                    </mask>
                    <g id="Clip-19"></g>
                    <path d="M33.1748846,125.43586 C33.1748846,125.43586 58.3606431,117.241681 100.960918,123.799766 C105.272455,132.564647 109.884564,141.626093 114.965617,150.458262 C113.284404,150.347361 111.585731,150.247675 109.858373,150.164188 C94.7087537,150.164188 81.1156279,151.361665 69.0528045,153.240744 C43.7847315,130.76407 33.1748846,125.43586 33.1748846,125.43586 M73.8108351,60.9503127 C73.8108351,60.9503127 99.2572563,62.0393809 135.706389,81.8955615 C137.332725,96.2254063 139.295803,111.489806 142.703126,126.233347 C137.985006,124.466415 133.034908,122.758048 127.811675,121.125692 C120.323546,119.178079 113.165921,117.651639 106.315106,116.440456 C84.8222771,72.7992252 73.8108351,60.9503127 73.8108351,60.9503127 M145.037866,135.375788 C147.003438,142.373737 149.356886,149.17979 152.234154,155.624482 C143.856777,153.761602 134.653761,152.262576 124.554015,151.25201 C119.517861,142.742575 114.999291,133.965233 110.800001,125.525578 C117.599682,126.865107 124.777262,128.572227 132.314032,130.736657 C136.772737,132.236929 141.001959,133.788291 145.037866,135.375788 M78.2595624,205.140949 C35.2801416,181.559009 19.3647478,178.164705 19.3647478,178.164705 C19.3647478,178.164705 35.6293549,167.768714 67.056053,161.998148 C68.7447485,163.579415 70.4608822,165.195572 72.2393754,166.890232 C106.094353,199.158551 149.802133,241.314462 199.977841,224.548543 L200.769807,216.705757 C154.239635,233.713414 114.129999,195.409116 83.3643118,166.371866 C81.1567852,164.287185 79.030326,162.305928 76.9824397,160.419373 C88.5301736,158.848074 101.747895,157.958378 116.640593,158.330954 C117.715671,158.406964 118.770794,158.491697 119.82467,158.577676 C138.427758,188.406183 163.249337,213.508333 201.239997,212.057903 L201.957132,204.957777 C168.534929,206.100426 146.361135,185.062968 129.716135,159.567059 C139.663724,160.752074 148.607325,162.41309 156.63424,164.413038 C166.246335,181.622559 180.509202,195.30943 202.285143,201.711755 L203.012255,194.515681 C187.034501,189.214884 175.64516,179.565292 167.408716,167.454704 C183.678312,172.627154 195.482967,179.167794 203.932681,185.411868 L204.78077,177.019563 C194.374215,170.037814 180.398202,163.113384 161.813821,157.997006 C158.775666,152.070681 156.295005,145.74935 154.235894,139.207464 C178.924023,150.128052 194.873091,162.44798 205.146197,173.403458 L206.100297,163.953237 C194.103575,152.439518 176.71525,140.234229 151.56566,129.733568 C147.988718,115.508393 146.019405,100.668904 144.393069,86.873625 C150.944559,90.8112171 157.776667,95.322003 164.839505,100.544297 C185.340817,117.171901 198.897774,132.845013 207.848858,146.655245 L209.002509,135.243705 C198.826684,121.166813 184.409166,105.808957 163.983932,89.9663793 C156.84751,84.9633943 149.906897,80.5871843 143.208238,76.7355713 C137.673208,30.5635652 131.512089,16.2561498 131.512089,16.2561498 C131.512089,16.2561498 168.381525,31.1267905 203.998782,84.0363157 C207.207802,89.29973 210.071351,94.3837097 212.634327,99.2944852 L214,85.7745882 C211.758799,81.8619175 209.355464,77.8707442 206.738859,73.7836232 C164.798347,14.7384323 120.979568,-0.000124607346 120.979568,-0.000124607346 C120.979568,-0.000124607346 128.40908,16.7097205 134.601379,72.0117068 C90.0866669,48.6490755 58.4354745,49.1612117 58.4354745,49.1612117 C58.4354745,49.1612117 71.2017132,62.5764385 95.9048091,113.433681 C96.1417752,113.919649 96.3799885,114.410602 96.6169547,114.900309 C45.1416744,107.803921 14.6441329,119.759996 14.6441329,119.759996 C14.6441329,119.759996 27.7982478,126.177274 59.4170132,154.944126 C20.126781,162.738315 -0.000374157054,177.337312 -0.000374157054,177.337312 C-0.000374157054,177.337312 18.1637036,180.992046 67.6247718,208.445536 C106.401162,229.966471 155.989443,257.866056 198.807976,236.119582 L199.690987,227.383361 C160.00789,250.333542 113.886797,224.688104 78.2595624,205.140949" id="Fill-18" fill="#EF951E" mask="url(#mask-5)"></path>
                </g>
                <g id="Group-23" transform="translate(256, 0)">
                    <mask id="mask-7" fill="white">
                        <use xlink:href="#path-6"></use>
                    </mask>
                    <g id="Clip-22"></g>
                    <path d="M144.585683,153.24299 C132.459773,151.365126 118.795557,150.166384 103.566707,150.166384 C101.830315,150.249872 100.122758,150.350806 98.4327535,150.460462 C103.54038,141.62815 108.176609,132.566556 112.510695,123.802779 C155.333763,117.244587 180.651239,125.437654 180.651239,125.437654 C180.651239,125.437654 169.985905,130.76595 144.585683,153.24299 M88.7954632,151.254224 C78.6428969,152.266052 69.3904964,153.763857 60.9693075,155.626767 C63.8616229,149.18197 66.2286327,142.377052 68.2032304,135.377743 C72.260245,133.79022 76.5115851,132.238833 80.9936084,130.739783 C88.5697949,128.575318 95.7849121,126.866923 102.620154,125.527372 C98.400157,133.968411 93.8567018,142.74465 88.7954632,151.254224 M77.5835096,81.8966458 C114.223266,62.0401418 139.804022,60.952302 139.804022,60.952302 C139.804022,60.952302 128.734992,72.8014075 107.128506,116.442103 C100.241861,117.653306 93.0468033,119.179771 85.5207654,121.127415 C80.2689624,122.759798 75.29423,124.468193 70.5501807,126.235154 C73.9765778,111.491372 75.9486681,96.2267239 77.5835096,81.8966458 M154.271868,154.9464 C186.055995,126.179079 199.278904,119.761697 199.278904,119.761697 C199.278904,119.761697 168.621865,107.805427 116.877376,114.901931 C117.115582,114.412216 117.356295,113.922501 117.593246,113.436525 C142.425536,62.5772082 155.259794,49.1617629 155.259794,49.1617629 C155.259794,49.1617629 123.441817,48.6496184 78.6942991,72.0126301 C84.9202369,16.7097434 92.3873504,-0.000373828121 92.3873504,-0.000373828121 C92.3873504,-0.000373828121 48.3394047,14.7384231 6.17955042,73.7845754 C3.98304558,77.1988723 1.93322515,80.5471262 0,83.8393059 L1.35902468,97.211138 C3.64705055,92.9494973 6.16325215,88.559509 8.93395746,84.0386809 C44.7387415,31.1282942 81.8009995,16.2561652 81.8009995,16.2561652 C81.8009995,16.2561652 75.6064045,30.5638137 70.0436808,76.7365715 C63.3087356,80.5882473 56.3318238,84.9645286 49.1593328,89.967595 C29.3970579,105.216044 15.217566,120.018392 5.06249231,133.658134 L6.2071321,144.92656 C15.2037752,131.542267 28.5470406,116.480732 48.2980321,100.545685 C55.3978078,95.324552 62.2669002,90.8124465 68.8513999,86.8747903 C67.2165584,100.67154 65.2381996,115.511271 61.6412975,129.736677 C37.1851218,139.894833 20.0368381,151.646743 8.02501567,162.826697 L8.97407627,172.162431 C19.329744,161.523283 35.0751232,149.719036 58.9570984,139.210728 C56.8872186,145.751474 54.3935838,152.072908 51.3395394,157.999329 C33.386372,162.917661 19.709619,169.504513 9.38529407,176.208497 L10.2302965,184.526173 C18.6289186,178.554892 30.1354947,172.385482 45.7153838,167.458427 C37.6552641,179.24772 26.6000246,188.711802 11.2031776,194.097419 L11.9340922,201.302333 C33.0955107,194.745388 47.0769159,181.282591 56.5474624,164.415466 C64.6151043,162.415486 73.6067326,160.754443 83.6063459,159.569408 C67.0936945,184.729286 45.168765,205.545283 12.310206,204.992017 L13.0298372,212.079798 C50.468209,212.904712 75.067308,188.061341 93.5482884,158.580009 C94.6076758,158.494029 95.6683168,158.409294 96.7490172,158.334529 C111.719602,157.9607 125.00645,158.851658 136.614577,160.421736 C134.555981,162.308322 132.419654,164.289611 130.200582,166.374326 C99.5748859,195.129185 59.7406689,232.973052 13.5488743,217.196259 L14.3424745,224.99556 C64.2089014,240.560517 107.658826,198.871204 141.382447,166.893947 C143.171495,165.198013 144.896604,163.581829 146.592877,162.001783 C178.183933,167.771197 194.534855,178.167357 194.534855,178.167357 C194.534855,178.167357 178.534972,181.561716 135.330775,205.14404 C99.9359552,224.463478 54.2368697,249.736751 14.6646787,228.168115 L15.5410239,236.802298 C58.2650489,257.266896 107.460739,229.739439 146.021184,208.448681 C195.74218,180.994743 214,177.341197 214,177.341197 C214,177.341197 193.767583,162.740716 154.271868,154.9464" id="Fill-21" fill="#EF951E" mask="url(#mask-7)"></path>
                </g>
            </g>
        </g>
    </g>
</svg>