<?xml version="1.0" encoding="UTF-8"?>
<svg width="24px" height="24px" viewBox="0 0 24 24" version="1.1" xmlns="http://www.w3.org/2000/svg" xmlns:xlink="http://www.w3.org/1999/xlink">
    <title>web_black_24dp (1)</title>
    <g id="Assesst-for-download-" stroke="none" stroke-width="1" fill="none" fill-rule="evenodd">
        <g id="Skeleton-Review-see-all" transform="translate(-72, -556)">
            <g id="web_black_24dp-(1)" transform="translate(72, 556)">
                <polygon id="Path" points="0 0 24 0 24 24 0 24"></polygon>
                <path d="M20,4 L4,4 C2.9,4 2.01,4.9 2.01,6 L2,18 C2,19.1 2.9,20 4,20 L20,20 C21.1,20 22,19.1 22,18 L22,6 C22,4.9 21.1,4 20,4 Z M15,18 L4,18 L4,14 L15,14 L15,18 Z M15,13 L4,13 L4,9 L15,9 L15,13 Z M20,18 L16,18 L16,9 L20,9 L20,18 Z" id="Shape" fill="#1B4CA1" fill-rule="nonzero"></path>
            </g>
        </g>
    </g>
</svg>