<?xml version="1.0" encoding="UTF-8"?>
<svg width="200px" height="150px" viewBox="0 0 200 150" version="1.1" xmlns="http://www.w3.org/2000/svg" xmlns:xlink="http://www.w3.org/1999/xlink">
    <title>Illustrations/Web/Empty/competencies</title>
    <g id="Illustrations/Web/Empty/competencies" stroke="none" stroke-width="1" fill="none" fill-rule="evenodd">
        <rect id="Rectangle" x="0" y="0" width="200" height="150"></rect>
        <path d="M85.4613273,56.3664794 L80.4613273,56.3664794 L80.4613273,43.033146 C80.4613273,39.3664794 77.4613273,36.3664794 73.7946606,36.3664794 L60.4613273,36.3664794 L60.4613273,31.3664794 C60.4613273,26.7664794 56.7279939,23.033146 52.1279939,23.033146 C47.5279939,23.033146 43.7946606,26.7664794 43.7946606,31.3664794 L43.7946606,36.3664794 L30.4613273,36.3664794 C26.7946606,36.3664794 23.8279939,39.3664794 23.8279939,43.033146 L23.8279939,55.6998127 L28.7946606,55.6998127 C33.7613273,55.6998127 37.7946606,59.733146 37.7946606,64.6998127 C37.7946606,69.6664794 33.7613273,73.6998127 28.7946606,73.6998127 L23.7946606,73.6998127 L23.7946606,86.3664794 C23.7946606,90.033146 26.7946606,93.033146 30.4613273,93.033146 L43.1279939,93.033146 L43.1279939,88.033146 C43.1279939,83.0664794 47.1613273,79.033146 52.1279939,79.033146 C57.0946606,79.033146 61.1279939,83.0664794 61.1279939,88.033146 L61.1279939,93.033146 L73.7946606,93.033146 C77.4613273,93.033146 80.4613273,90.033146 80.4613273,86.3664794 L80.4613273,73.033146 L85.4613273,73.033146 C90.0613273,73.033146 93.7946606,69.2998127 93.7946606,64.6998127 C93.7946606,60.0998127 90.0613273,56.3664794 85.4613273,56.3664794 Z" id="Path" fill="#C8C8C8" transform="translate(58.794661, 58.033146) rotate(-23.000000) translate(-58.794661, -58.033146) "></path>
        <path d="M169.461327,83.3664794 L164.461327,83.3664794 L164.461327,70.033146 C164.461327,66.3664794 161.461327,63.3664794 157.794661,63.3664794 L144.461327,63.3664794 L144.461327,58.3664794 C144.461327,53.7664794 140.727994,50.033146 136.127994,50.033146 C131.527994,50.033146 127.794661,53.7664794 127.794661,58.3664794 L127.794661,63.3664794 L114.461327,63.3664794 C110.794661,63.3664794 107.827994,66.3664794 107.827994,70.033146 L107.827994,82.6998127 L112.794661,82.6998127 C117.761327,82.6998127 121.794661,86.733146 121.794661,91.6998127 C121.794661,96.6664794 117.761327,100.699813 112.794661,100.699813 L107.794661,100.699813 L107.794661,113.366479 C107.794661,117.033146 110.794661,120.033146 114.461327,120.033146 L127.127994,120.033146 L127.127994,115.033146 C127.127994,110.066479 131.161327,106.033146 136.127994,106.033146 C141.094661,106.033146 145.127994,110.066479 145.127994,115.033146 L145.127994,120.033146 L157.794661,120.033146 C161.461327,120.033146 164.461327,117.033146 164.461327,113.366479 L164.461327,100.033146 L169.461327,100.033146 C174.061327,100.033146 177.794661,96.2998127 177.794661,91.6998127 C177.794661,87.0998127 174.061327,83.3664794 169.461327,83.3664794 Z" id="Path-Copy" fill="#DEDEDF" transform="translate(142.794661, 85.033146) rotate(-323.000000) translate(-142.794661, -85.033146) "></path>
    </g>
</svg>