<?xml version="1.0" encoding="UTF-8"?>
<svg width="320px" height="225px" viewBox="0 0 320 225" version="1.1" xmlns="http://www.w3.org/2000/svg" xmlns:xlink="http://www.w3.org/1999/xlink">
    <title>Illustration/web/CBP portal_1</title>
    <g id="Illustrations" stroke="none" stroke-width="1" fill="none" fill-rule="evenodd">
        <g id="Group" fill-rule="nonzero">
            <g>
                <path d="M177.222116,222.554273 L171.241166,220.031775 L167.138258,190 L112.500658,190 L108.053413,219.90908 L102.702507,222.588882 C102.17542,222.852871 101.898714,223.445218 102.034122,224.019698 C102.169531,224.594178 102.681514,225 103.270821,225 L176.729182,225 C177.334024,225 177.855057,224.57302 177.974747,223.979166 C178.094438,223.385311 177.779605,222.789265 177.222116,222.554273 L177.222116,222.554273 Z" id="Path" fill="#E6E6E6"></path>
                <path d="M274.675619,194 L5.32438552,194 C2.38189006,193.993439 0,191.623775 0,188.702899 L0,151 L280,151 L280,188.702895 C280,191.62376 277.618103,193.99341 274.675619,194 L274.675619,194 Z" id="Path" fill="#CCCCCC"></path>
                <path d="M280,169 L0,169 L0,6.43473704 C0.00409750621,2.8825439 2.87649971,0.00398151583 6.42096657,0 L273.578968,0 C277.123446,0.00397918252 279.995869,2.88253232 280,6.43473704 L280,169 Z" id="Path" fill="#3F3D56"></path>
                <path d="M263.061357,11 L16.9384419,11 C14.2107961,11.0033873 12,13.2022512 12,15.9142307 L12,150.085769 C12,152.797749 14.2107961,154.996613 16.9384419,155 L263.061357,155 C265.788454,154.995221 267.99739,152.797204 268,150.085769 L268,15.9142307 C267.99739,13.2027956 265.788454,11.0047785 263.061357,11 Z" id="Path" fill="#FFFFFF"></path>
                <path d="M60,11 L60,155 L16.8809316,155 C14.1850504,154.996613 12.0010861,152.797749 12,150.085769 L12,15.9142307 C12.0010861,13.2022512 14.1850504,11.0033873 16.8809316,11 L60,11 Z" id="Path" fill="#F0F0F0"></path>
                <path d="M77.2343606,85.0871752 C76.2224483,84.8576929 75.1604721,85.0864944 74.3341882,85.7120137 C73.5079043,86.337533 73.0021908,87.2955152 72.9531251,88.3281866 L61,91.8386852 L65.9483206,96 L76.5405685,92.0284001 C78.3267697,91.9948332 79.8054612,90.6356895 79.9824656,88.8647702 C80.1594701,87.0938508 78.9788368,85.4709383 77.2343481,85.0871752 L77.2343606,85.0871752 Z" id="Path" fill="#F0A202"></path>
                <path d="M28.8956361,112 C26.4964547,111.99681 24.4521321,110.211079 24.0647579,107.780192 C23.6773836,105.349305 25.0608231,102.9878 27.3339229,102.199791 L51.1460801,93.9472538 L69.7206126,87 L72,95.1914774 L55.6025345,106.284633 L29.9205013,111.889172 C29.5835871,111.962762 29.2400903,112 28.8956361,112 L28.8956361,112 Z" id="Path" fill="#0074B6"></path>
                <polygon id="Path" fill="#FFB6B6" points="45.000831 220 48.3881825 220 50 207 45 207"></polygon>
                <path d="M43,219.000308 L49.7182983,219 L49.7185703,219 C52.0830547,219.000149 53.9998267,221.167964 54,223.842176 L54,223.999527 L43.000205,224 L43,219.000308 Z" id="Path" fill="#2F2E41"></path>
                <polygon id="Path" fill="#FFB6B6" points="19.0004156 220 22.3880485 220 24 207 19 207"></polygon>
                <path d="M18,219.000308 L24.7183025,219 L24.7185745,219 C27.0830591,219.000146 28.9998313,221.167964 29,223.842176 L29,223.999527 L18.000205,224 L18,219.000308 Z" id="Path" fill="#2F2E41"></path>
                <path d="M17.9328355,143 C16.3836576,146.551428 16.0446081,150.501047 16.9664157,154.257917 L16,218 L23.4345673,218 L27.5970131,182.945659 L34.5,159.847817 L41.9552251,177.782596 L41.9552251,215.161695 L49.134329,214.739111 L53,175.065205 L48.5820909,146.804342 L17.9328355,143 Z" id="Path" fill="#2F2E41"></path>
                <path d="M46.5928899,94.162512 L40.3709659,92.2605315 L38.7478528,89 L30.7558395,89 L28.7386663,92.5322442 C28.7386663,92.5322442 20.6231131,95.5210631 20.3525929,109.921748 C20.0820727,124.322434 19,147.417863 19,147.417863 L51,152 L46.5928899,94.162512 Z" id="Path" fill="#0074B6"></path>
                <path d="M55.6272366,149.971152 C56.1284662,149.046553 56.1240211,147.979992 55.6150972,147.058458 C55.1061734,146.136924 54.1450486,145.455079 52.9903409,145.196393 L51.883889,133 L46,136.898742 L47.9527703,147.882927 C47.5635442,149.604857 48.7451009,151.303069 50.7030625,151.835832 C52.6610242,152.368594 54.7765113,151.567508 55.627251,149.971157 L55.6272366,149.971152 Z" id="Path" fill="#F0A202"></path>
                <path d="M45.9565739,142 L39,123.508298 L39,96.9563948 C39,94.330857 40.9672586,92.1608527 43.4856698,92.0084801 C46.004081,91.8561076 48.1997017,93.7742421 48.4919937,96.3820964 L51.321201,121.626646 L54,141.422463 L45.9565739,142 Z" id="Path" fill="#0074B6"></path>
                <circle id="Oval" fill="#F0A202" cx="34" cy="77" r="8"></circle>
                <path d="M34.9540027,75.2316459 C34.5677995,75.7067351 34.0384045,76.1356261 33.9533674,76.7323191 C33.8903694,77.1744579 34.0919133,77.6114113 34.1111188,78.0572771 C34.114336,78.9912285 33.3589408,79.766464 32.3864396,79.8272547 C32.0600899,79.4337082 31.5885153,79.1752749 31.0690779,79.1053115 C30.5383843,79.0477196 30.0306279,79.3288319 29.8175899,79.7981803 C29.5724763,80.4617814 30.1398408,81.1358301 30.231071,81.8343075 C30.2431846,82.3509788 30.1559629,82.8653742 29.9737647,83.3517863 C29.7646109,84.1531844 29.7087225,85.0010949 29.341792,85.7486031 C28.9748615,86.4961112 28.1589695,87.1390629 27.314366,86.9738677 C26.6041755,86.8349386 26.1236183,86.175693 25.9249921,85.5076599 C25.726366,84.8396267 25.7352876,84.1312779 25.5915283,83.450436 C25.1244586,81.2381504 23.1374069,79.5990557 22.3578152,77.4691621 C21.3588616,74.7400331 22.5589261,71.6183399 24.627147,69.5121176 C25.4633083,68.5893148 26.5548405,67.9120499 27.7756379,67.5585679 C29.0644899,67.2440484 30.4271703,67.470128 31.749716,67.335631 C33.1640594,67.1917903 34.493475,66.6410054 35.8680243,66.2909447 C37.2425736,65.9408841 38.777893,65.8090583 40.0273251,66.4602859 C40.8987692,66.9144961 41.52988,67.6976783 42.34182,68.2438418 C43.272645,68.8652827 44.4011538,69.1547463 45.5314504,69.061985 L44.1817025,69.6273997 C44.6983334,70.081779 45.3222748,70.4092681 46,70.5817725 C45.4484111,71.0007386 44.7661101,71.2302722 44.0622864,71.2336407 C44.3589865,71.7459902 44.8636497,72.1178768 45.4565499,72.2610741 C44.4316722,72.7221499 43.3435737,73.1945315 42.2166018,73.0905472 C41.6645706,73.0396268 41.1369246,72.8515662 40.5916204,72.7547739 C39.4293025,72.5484814 38.235658,72.7622883 37.0747023,72.9757205 C36.4650715,73.0878034 35.7168695,73.1953495 35.4090059,73.7571057 C35.1526373,74.2249102 35.3487156,74.7461091 34.9540027,75.2316459 Z" id="Path" fill="#2F2E41"></path>
                <path d="M146.496402,28 C145.670328,28.0008814 145,28.6691669 145,29.4938101 L145,54.5060054 C145,55.3306851 145.670292,55.9990327 146.496402,56 L247.503598,56 C248.329707,55.9990305 249,55.3306841 249,54.5060054 L249,29.4938101 C249,28.6691632 248.329676,28.0008724 247.503598,28 L146.496402,28 Z" id="Path" fill="#FFFFFF"></path>
                <path d="M146.496402,28 C145.670328,28.0008814 145,28.6691669 145,29.4938101 L145,54.5060054 C145,55.3306851 145.670292,55.9990327 146.496402,56 L247.503598,56 C248.329707,55.9990305 249,55.3306841 249,54.5060054 L249,29.4938101 C249,28.6691632 248.329676,28.0008724 247.503598,28 L146.496402,28 Z" id="Path" fill="#E6E6E6"></path>
                <polygon id="Path" fill="#FFFFFF" points="147 55 248 55 248 30 147 30"></polygon>
                <path d="M158.319691,37 C157.590846,37 157,37.6715728 157,38.5 C157,39.328427 157.590846,40 158.319691,40 L236.679742,40 C237.151222,40.0002302 237.586996,39.7145446 237.822911,39.2505582 C238.058827,38.7865718 238.059043,38.214775 237.823478,37.7505583 C237.587914,37.2863415 237.152356,37.0002303 236.680876,37 L158.319691,37 Z" id="Path" fill="#E4E4E4"></path>
                <path d="M158.317353,46 C157.589422,46.0014655 157,46.6726081 157,47.5 C157,48.3273881 157.589422,48.9985307 158.317353,49 L236.677365,49 C237.406209,49.0018439 237.998371,48.3317699 238,47.5033438 C238.001622,46.6749178 237.412096,46.0018479 236.683252,46 L158.317353,46 L158.317353,46 Z" id="Path" fill="#E4E4E4"></path>
                <path d="M76.4964023,71 C75.6703282,71.0008814 75,71.6691669 75,72.4938101 L75,97.5060054 C75,98.3306851 75.6702917,98.9990327 76.4964023,99 L177.503598,99 C178.329707,98.9990305 179,98.3306841 179,97.5060054 L179,72.4938101 C179,71.6691632 178.329676,71.0008724 177.503598,71 L76.4964023,71 Z" id="Path" fill="#FFFFFF"></path>
                <path d="M76.4964023,71 C75.6703282,71.0008814 75,71.6691669 75,72.4938101 L75,97.5060054 C75,98.3306851 75.6702917,98.9990327 76.4964023,99 L177.503598,99 C178.329707,98.9990305 179,98.3306841 179,97.5060054 L179,72.4938101 C179,71.6691632 178.329676,71.0008724 177.503598,71 L76.4964023,71 Z" id="Path" fill="#E6E6E6"></path>
                <polygon id="Path" fill="#FFFFFF" points="77 97 178 97 178 72 77 72"></polygon>
                <path d="M88.3196907,79 C87.5908457,79 87,79.6715728 87,80.5 C87,81.328427 87.5908457,82 88.3196907,82 L166.679742,82 C167.151222,82.0002302 167.586996,81.7145446 167.822911,81.2505582 C168.058827,80.7865718 168.059043,80.214775 167.823478,79.7505583 C167.587914,79.2863415 167.152356,79.0002303 166.680876,79 L88.3196907,79 Z" id="Path" fill="#E4E4E4"></path>
                <path d="M88.3173526,89 C87.5894217,89.0014655 87,89.6726081 87,90.5 C87,91.3273881 87.5894217,91.9985307 88.3173526,92 L166.677365,92 C167.406209,92.0018439 167.998371,91.3317699 168,90.5033438 C168.001622,89.6749178 167.412096,89.0018479 166.683252,89 L88.3173526,89 L88.3173526,89 Z" id="Path" fill="#E4E4E4"></path>
                <path d="M200.460715,137.977821 C201.367946,137.872827 202.184313,137.351062 202.690151,136.552921 C203.19599,135.75478 203.339339,134.762249 203.081626,133.842395 L212,127.150017 L206.685106,125 L199.030896,131.68482 C197.55631,132.254602 196.72042,133.893005 197.085203,135.498511 C197.449987,137.104017 198.900143,138.169155 200.460715,137.977821 Z" id="Path" fill="#FFB7B7"></path>
                <polygon id="Path" fill="#3F3D56" points="204.015348 133 201 127.876701 201.064031 127.804054 213.23016 114.025284 222.676257 98 230.878971 99.0400232 231 101.506559 230.975505 101.543404 217.943394 121.031868 217.929539 121.043627"></polygon>
                <polygon id="Path" fill="#FFB7B7" points="243.999147 219 239.256716 218.999604 237 202 244 202.000396"></polygon>
                <path d="M245.999741,224 L231,223.999354 L231,223.779055 C231.000226,220.035153 233.614012,217.000204 236.838316,217 L236.838671,217 L246,217.000432 L245.999741,224 Z" id="Path" fill="#2F2E41"></path>
                <polygon id="Path" fill="#FFB7B7" points="205.205466 219 200 217.922285 202.31739 200 210 201.590496"></polygon>
                <path d="M205.598985,224 L191,220.153862 L191.044088,219.950132 C191.793529,216.487797 194.944857,214.351155 198.083085,215.177599 L198.083445,215.177696 L207,217.526818 L205.598985,224 Z" id="Path" fill="#2F2E41"></path>
                <path d="M223,91.5714298 L223,83.6349206 C223,77.7614161 227.477153,73 233,73 C238.522847,73 243,77.7614161 243,83.6349206 L243,91.5714298 C242.999165,92.360041 242.398243,92.9991146 241.656714,93 L224.343286,93 C223.601757,92.9991146 223.000835,92.360041 223,91.5714298 Z" id="Path" fill="#2F2E41"></path>
                <circle id="Oval" fill="#F0A202" cx="230.5" cy="85.5" r="7.5"></circle>
                <path d="M220,85.83333 C220.004842,80.9570978 223.479521,77.0055047 227.767243,77 L229.232828,77 C233.520535,77.0055121 236.99519,80.9571138 237,85.83333 L237,86 L233.902876,86 L232.846531,82.6360648 L232.635292,86 L231.034671,86 L230.501704,84.3027199 L230.395081,86 L220,86 L220,85.83333 Z" id="Path" fill="#2F2E41"></path>
                <path d="M234.840293,126 L215.699164,125.254692 L214.629057,112.443302 C213.803813,110.098349 213.790439,108.084967 214.589479,106.459249 C215.276559,105.12396 216.430957,104.103185 217.821875,103.601007 L222.010222,98.4257273 C223.101523,97.0784223 224.726436,96.3035668 226.436737,96.3149005 L237.318591,96.3910065 C237.581095,96.2295655 239.172033,95.4023511 242.309954,96.7939463 C245.713522,98.3035227 244.923181,103.546219 244.914753,103.598891 L244.906986,103.648142 L244.869595,103.680533 L237.630929,109.916886 L234.840293,126 Z" id="Path" fill="#3F3D56"></path>
                <polygon id="Path" fill="#0074B6" points="215.015951 122 205.906455 138.511469 199 213.630764 206.803381 216 220.615879 157.237224 236.646224 214.332745 246 214.565375 239.631043 148.676902 234.065248 123.166833"></polygon>
                <path d="M157.702009,111.072944 C156.914476,110.818934 156.069667,111.249506 155.813625,112.035393 L148.073061,135.880215 C147.818671,136.666673 148.249808,137.510347 149.036805,137.766124 L245.297942,168.927099 C246.085536,169.181033 246.930341,168.750399 247.186384,167.964477 L254.926952,144.119655 C255.181323,143.333225 254.750144,142.489598 253.963151,142.233918 L157.702009,111.072944 Z" id="Path" fill="#FFFFFF"></path>
                <path d="M157.702009,111.072944 C156.914476,110.818934 156.069667,111.249506 155.813625,112.035393 L148.073061,135.880215 C147.818671,136.666673 148.249808,137.510347 149.036805,137.766124 L245.297942,168.927099 C246.085536,169.181033 246.930341,168.750399 247.186384,167.964477 L254.926952,144.119655 C255.181323,143.333225 254.750144,142.489598 253.963151,142.233918 L157.702009,111.072944 Z" id="Path" fill="#E6E6E6"></path>
                <polygon id="Path" fill="#FFFFFF" points="148 135.689368 244.340362 167 252 143.310632 155.659643 112"></polygon>
                <path d="M164.722276,122.064931 C164.030725,121.838974 163.288658,122.221627 163.064516,122.919768 C162.840374,123.61791 163.218971,124.367369 163.910293,124.594042 L238.275466,148.934556 C238.723018,149.081818 239.214386,148.976619 239.564235,148.658637 C239.914084,148.340656 240.069182,147.858276 239.971028,147.393443 C239.872874,146.92861 239.536404,146.552052 239.088528,146.4058 L239.087446,146.405446 L164.722276,122.064931 Z" id="Path" fill="#0074B6"></path>
                <path d="M162.72036,129.0643 C162.029211,128.839664 161.288413,129.222386 161.064514,129.919768 C160.840615,130.617151 161.218144,131.36591 161.908373,131.593409 L236.274269,155.93394 C236.965463,156.161894 237.708807,155.780936 237.934574,155.083046 C238.160341,154.385156 237.783038,153.634611 237.091845,153.406657 L237.086257,153.40483 L162.72036,129.0643 Z" id="Path" fill="#0074B6"></path>
                <path d="M241.057042,150.188587 C241.850217,149.575312 242.287317,148.690888 242.250727,147.773296 C242.214136,146.855704 241.707615,145.999203 240.867457,145.434261 L245,135 L238.563134,136.440667 L235.625639,146.128335 C234.594844,147.435792 234.86215,149.200765 236.247843,150.236637 C237.633536,151.272509 239.699622,151.251859 241.057042,150.18857 L241.057042,150.188587 Z" id="Path" fill="#F0A202"></path>
                <polygon id="Path" fill="#3F3D56" points="240.58191 143 235 140.592386 236.87559 122.318863 235.13013 103.892293 242.581778 100 244.161401 101.927136 244.163011 101.970861 245 125.271518 244.995562 125.289214"></polygon>
                <path d="M319.47944,224.999883 L86.541787,224.999883 C86.2995229,225.004823 86.0841645,224.852425 86.0172235,224.628678 C85.976034,224.478574 86.0096392,224.318605 86.1082015,224.195599 C86.2067639,224.072593 86.3591351,224.000465 86.5207103,224.000328 L319.43682,224.000328 C319.692694,223.991715 319.920977,224.153703 319.987654,224.391196 C320.021819,224.539287 319.984223,224.694273 319.885433,224.812594 C319.786642,224.930915 319.637322,224.999798 319.47944,224.999883 Z" id="Path" fill="#CCCCCC"></path>
                <path d="M66.5712773,224.999883 L2.44620521,224.999883 C2.24668123,225.004823 2.06931627,224.852425 2.01418494,224.628678 C1.98026205,224.478574 2.00793862,224.318605 2.08911265,224.195599 C2.17028667,224.072593 2.29577667,224.000465 2.42884681,224.000328 L66.536176,224.000328 C66.7469087,223.991715 66.9349185,224.153703 66.9898325,224.391196 C67.0179698,224.539287 66.9870063,224.694273 66.9056446,224.812594 C66.8242828,224.930915 66.7013059,224.999798 66.5712773,224.999883 Z" id="Path" fill="#CCCCCC"></path>
                <g id="Group-2" transform="translate(253.000000, 147.000000)" fill="#E4E4E4">
                    <path d="M10.8192066,75 C10.8610562,74.8844378 14.9230035,63.3195651 7.73393717,53 L7,53.432862 C13.9589677,63.4223914 10.0324823,74.6345162 9.99204074,74.7465485 L10.8192066,75 Z" id="Path"></path>
                    <path d="M2.46060942,56.7451917 C2.85332772,58.6192571 4.20967477,60.1401148 6.01872773,60.7348724 C7.82778068,61.3296299 9.81470131,60.9079295 11.2310358,59.6286215 C12.6473702,58.3493136 13.2779436,56.4067555 12.8852249,54.5326901 C12.2781334,51.6356375 7.13128771,44.4255872 4.25260686,45.036554 C1.373926,45.6475208 1.85353011,53.8481391 2.46060942,56.7451917 Z" id="Path"></path>
                    <path d="M2.31414115,69.3134022 C5.0595352,72.0747161 9.97097704,71.9998016 9.97097704,71.9998016 C9.97097704,71.9998016 10.431253,67.4479117 7.68585458,64.6865978 C4.94045619,61.9252839 0.0290230251,62.0001984 0.0290230251,62.0001984 C0.0290230251,62.0001984 -0.431252905,66.5520802 2.31414115,69.3134022 Z" id="Path"></path>
                    <path d="M42.4022696,77 C42.494285,76.7268572 51.4306394,49.3916952 35.6146574,25 L34,26.0231305 C49.3097594,49.634762 40.6714735,76.1361245 40.5824979,76.4009347 L42.4022696,77 Z" id="Path"></path>
                    <path d="M24.0886567,27.1614161 C25.5250334,33.8593968 32.2027873,38.1432826 39.0052548,36.7306519 C45.8077222,35.3180213 50.1599501,28.7436005 48.7271516,22.0448767 C47.2922993,15.3452797 35.1277608,-1.32837269 28.3240294,0.0845344886 C21.5202981,1.49744166 22.6538004,20.4618151 24.0886567,27.1614161 Z" id="Path"></path>
                    <path d="M26.0911048,61.2835045 C32.1309667,68.1867845 42.936149,67.9995039 42.936149,67.9995039 C42.936149,67.9995039 43.9487577,56.6197798 37.9088958,49.7164955 C31.8690339,42.8132112 21.0638516,43.0004961 21.0638516,43.0004961 C21.0638516,43.0004961 20.0512388,54.3802202 26.0911048,61.2835045 Z" id="Path"></path>
                </g>
            </g>
        </g>
    </g>
</svg>