<?xml version="1.0" encoding="UTF-8"?>
<svg width="215px" height="250px" viewBox="0 0 215 250" version="1.1" xmlns="http://www.w3.org/2000/svg" xmlns:xlink="http://www.w3.org/1999/xlink">
    <title>Illustration/web/CBP potal_3</title>
    <g id="Illustration/web/CBP-potal_3" stroke="none" stroke-width="1" fill="none" fill-rule="evenodd">
        <g id="undraw_Add_files_re_v09g" transform="translate(107.500000, 96.500000) scale(-1, 1) translate(-107.500000, -96.500000) " fill-rule="nonzero">
            <path d="M110.123557,0.419244892 L103.12678,2.22406518 L16.9249467,24.4598668 L9.92815931,26.2646871 C2.85688612,28.0972319 -1.39699026,35.3094817 0.419137432,42.386792 L30.7587547,160.06909 C32.5907746,167.142303 39.8010461,171.397364 46.8764299,169.580756 L46.8945004,169.576094 L147.053749,143.739973 L147.071819,143.735311 C154.143098,141.902782 158.396988,134.690536 156.580866,127.613223 L126.241248,9.93092443 C124.40923,2.8577018 117.198949,-1.39736633 110.123557,0.419244892 Z" id="Path" fill="#F2F2F2"></path>
            <path d="M111.709852,4.29783329 L103.388319,6.43053074 L19.4207987,27.950287 L11.0993902,30.0829488 C6.04290195,31.3848702 3.00104855,36.5088897 4.29971242,41.5370451 L34.7649745,158.944507 C36.0750032,163.969743 41.2308806,166.992785 46.2902868,165.702134 L46.3084322,165.697483 L146.882468,139.921702 L146.900743,139.917018 C151.957164,138.615053 154.998947,133.491072 153.700283,128.462971 L123.235021,11.0555094 C121.925023,6.03031584 116.769228,3.00726341 111.709852,4.29783329 Z" id="Path" fill="#FFFFFF"></path>
            <path d="M104.350272,41.4679499 L53.7506439,54.9275417 C52.5737881,55.2405868 51.3737331,54.5102833 51.070246,53.2963631 C50.7667589,52.0824428 51.4747641,50.8445927 52.6516198,50.5315474 L103.251248,37.0719527 C104.427635,36.7601816 105.626459,37.4904767 105.929756,38.7036359 C106.233052,39.9167951 105.52612,41.1540237 104.350272,41.4679499 L104.350272,41.4679499 Z" id="Path" fill="#F2F2F2"></path>
            <path d="M116.342988,48.1743512 L56.7596209,62.9323106 C55.5789243,63.2247521 54.3749528,62.5425153 54.0704753,61.408492 C53.7659977,60.2744687 54.4763136,59.1180906 55.6570101,58.8256491 L115.240377,44.0676897 C116.421074,43.7752475 117.625046,44.4574838 117.929524,45.591507 C118.234003,46.7255303 117.523687,47.881909 116.342991,48.1743512 L116.342988,48.1743512 Z" id="Path" fill="#F2F2F2"></path>
            <path d="M113.348894,74.4680778 L62.750116,87.9280357 C61.9888365,88.1305466 61.1806504,87.898727 60.6299935,87.3199012 C60.0793366,86.7410754 59.8698668,85.9031808 60.0804893,85.1218442 C60.2911119,84.3405077 60.8898282,83.7344327 61.6511076,83.5319219 L112.249886,70.0719639 C113.011165,69.8694536 113.819351,70.1012736 114.370007,70.6800997 C114.920664,71.2589257 115.130133,72.0968203 114.91951,72.8781567 C114.708887,73.659493 114.110171,74.2655676 113.348891,74.4680778 L113.348894,74.4680778 Z" id="Path" fill="#F2F2F2"></path>
            <path d="M123.342978,79.174453 L63.7591585,93.9327724 C62.995376,94.121954 62.1845325,93.9053928 61.632065,93.3646653 C61.0795975,92.8239378 60.8694389,92.0411934 61.080754,91.3112844 C61.2920691,90.5813754 61.892754,90.0151922 62.6565366,89.8260107 L122.240357,75.0676913 C123.421062,74.7752421 124.625043,75.457495 124.929524,76.5915458 C125.234004,77.7255967 124.523684,78.8820036 123.342978,79.174453 Z" id="Path" fill="#F2F2F2"></path>
            <path d="M121.348394,106.468425 L70.7491531,119.927935 C69.5726709,120.239988 68.3735819,119.509696 68.0702446,118.296375 C67.7669072,117.083055 68.4740716,115.845695 69.6501348,115.531966 L120.249375,102.072458 C121.426222,101.759414 122.626269,102.489712 122.929754,103.703625 C123.23324,104.917538 122.525241,106.155381 121.348394,106.468425 L121.348394,106.468425 Z" id="Path" fill="#F2F2F2"></path>
            <path d="M132.343025,111.174349 L72.7609758,125.932303 C71.9969383,126.122244 71.1854485,125.906005 70.6325035,125.365127 C70.0795586,124.82425 69.8692677,124.041006 70.0809275,123.310743 C70.2925872,122.580479 70.8940018,122.014278 71.6583895,121.825641 L131.240439,107.06769 C132.421109,106.775248 133.625054,107.457484 133.929526,108.591506 C134.233998,109.725529 133.523698,110.881907 132.343028,111.174349 L132.343025,111.174349 Z" id="Path" fill="#F2F2F2"></path>
            <path d="M45.2124862,68.2805866 L27.4004465,72.9660813 C26.8392231,73.1130422 26.2672913,72.7688481 26.1219886,72.1966928 L22.0332513,56.0235084 C21.8891814,55.451031 22.2266064,54.8676311 22.7875099,54.7194129 L40.5995523,50.0339182 C41.1607741,49.8869588 41.7327036,50.2311511 41.8780075,50.8033039 L45.9667475,66.9764855 C46.1108208,67.5489656 45.7733936,68.1323697 45.2124862,68.2805866 Z" id="Path" fill="#E6E6E6"></path>
            <path d="M54.2124994,101.280584 L36.4004477,105.966081 C35.8392239,106.113042 35.2672919,105.768848 35.1219891,105.196692 L31.0332497,89.0235042 C30.8891845,88.4510309 31.2266056,87.8676372 31.7875032,87.7194163 L49.5995521,83.0339189 C50.1607751,82.8869577 50.7327067,83.2311505 50.8780108,83.803305 L54.9667502,99.976496 C55.1108155,100.548968 54.7733958,101.132362 54.2124994,101.280584 L54.2124994,101.280584 Z" id="Path" fill="#E6E6E6"></path>
            <path d="M61.2124869,133.280586 L43.4004472,137.966081 C42.8392246,138.113042 42.2672932,137.76885 42.1219892,137.196695 L38.033252,121.023512 C37.8891803,120.451033 38.2266057,119.867631 38.7875105,119.719413 L56.599553,115.033918 C57.1607756,114.886959 57.7327054,115.231153 57.8780082,115.803307 L61.9667482,131.976487 C62.1108197,132.548967 61.7733929,133.132369 61.2124869,133.280586 L61.2124869,133.280586 Z" id="Path" fill="#E6E6E6"></path>
            <path d="M179.761175,31 L76.2388254,31 C68.9306224,31.0082271 63.0082108,36.9292769 63,44.2357813 L63,165.764232 C63.0082123,173.070734 68.9306253,178.991779 76.2388254,179 L179.761175,179 C187.069375,178.991779 192.991788,173.070734 193,165.764232 L193,44.2357813 C192.991789,36.9292769 187.069378,31.0082271 179.761175,31 L179.761175,31 Z" id="Path" fill="#E6E6E6"></path>
            <path d="M179.524504,34 L75.475631,34 C70.2448227,34.0058581 66.005874,38.2410138 66,43.4671522 L66,165.532862 C66.0058801,170.758995 70.2448274,174.994143 75.475631,175 L179.524504,175 C184.755262,174.994086 188.994137,170.758949 189,165.532862 L189,43.4671522 C188.994143,38.2410596 184.755267,34.005916 179.524504,34 Z" id="Path" fill="#FFFFFF"></path>
            <circle id="Oval" fill="#0074B6" cx="190.5" cy="168.5" r="24.5"></circle>
            <path d="M202.892857,166.39286 L194.607143,166.39286 L194.607143,158.107144 C194.607143,156.391116 193.216028,155 191.5,155 C189.783972,155 188.392857,156.391116 188.392857,158.107144 L188.392857,166.39286 L180.107143,166.39286 C178.391115,166.39286 177,167.783976 177,169.5 C177,171.216032 178.391115,172.607148 180.107143,172.607148 L188.392857,172.607148 L188.392857,180.892856 C188.392857,182.608884 189.783972,184 191.5,184 C193.216028,184 194.607143,182.608884 194.607143,180.892856 L194.607143,172.607148 L202.892857,172.607148 C204.608885,172.607148 206,171.216032 206,169.5 C206,167.783976 204.608885,166.39286 202.892857,166.39286 L202.892857,166.39286 Z" id="Path" fill="#FFFFFF"></path>
            <path d="M163.827318,101 L112.177542,101 C111.399871,101.000798 110.680901,100.619775 110.291815,100.000645 C109.902728,99.381515 109.902728,98.618485 110.291815,97.9993551 C110.680901,97.3802253 111.399871,96.9992025 112.177542,97 L163.827318,97 C165.027649,97.0012341 166,97.8963029 166,99 C166,100.103697 165.027649,100.998766 163.827318,101 L163.827318,101 Z" id="Path" fill="#E6E6E6"></path>
            <path d="M173.790568,107 L112.211902,107 C111.42196,107.000798 110.691645,106.619775 110.296419,106.000645 C109.901194,105.381515 109.901194,104.618485 110.296419,103.999355 C110.691645,103.380225 111.42196,102.999202 112.211902,103 L173.790568,103 C175.010804,103 176,103.895431 176,105 C176,106.104569 175.010804,107 173.790568,107 L173.790568,107 Z" id="Path" fill="#E6E6E6"></path>
            <path d="M163.824984,134 L112.177447,134 C111.39981,134.000798 110.680872,133.619775 110.291802,133.000645 C109.902733,132.381515 109.902733,131.618485 110.291802,130.999355 C110.680872,130.380225 111.39981,129.999202 112.177447,130 L163.824984,130 C165.026212,130 166,130.895431 166,132 C166,133.104569 165.026212,134 163.824984,134 Z" id="Path" fill="#E6E6E6"></path>
            <path d="M173.788181,142 L112.211819,142 C111.421906,142.000798 110.691619,141.619775 110.296408,141.000645 C109.901197,140.381515 109.901197,139.618485 110.296408,138.999355 C110.691619,138.380225 111.421906,137.999202 112.211819,138 L173.788181,138 C174.578094,137.999202 175.308381,138.380225 175.703592,138.999355 C176.098803,139.618485 176.098803,140.381515 175.703592,141.000645 C175.308381,141.619775 174.578094,142.000798 173.788181,142 L173.788181,142 Z" id="Path" fill="#E6E6E6"></path>
            <path d="M99.9756889,112 L82.0243111,112 C81.4588567,111.999347 81.0006199,111.516399 81,110.920453 L81,94.0795472 C81.0006199,93.4836006 81.4588567,93.0006534 82.0243111,93 L99.9756889,93 C100.541143,93.0006534 100.99938,93.4836006 101,94.0795472 L101,110.920453 C100.99938,111.516399 100.541143,111.999347 99.9756889,112 Z" id="Path" fill="#E6E6E6"></path>
            <path d="M99.9756889,146 L82.0243111,146 C81.4588567,145.999347 81.0006199,145.516399 81,144.920453 L81,128.079547 C81.0006199,127.483601 81.4588567,127.000653 82.0243111,127 L99.9756889,127 C100.541143,127.000653 100.99938,127.483601 101,128.079547 L101,144.920453 C100.99938,145.516399 100.541143,145.999347 99.9756889,146 Z" id="Path" fill="#E6E6E6"></path>
            <path d="M164.795643,64 L126.204357,64 C124.986924,64 124,63.1045695 124,62 C124,60.8954305 124.986924,60 126.204357,60 L164.795643,60 C166.013076,60 167,60.8954305 167,62 C167,63.1045695 166.013076,64 164.795643,64 Z" id="Path" fill="#CCCCCC"></path>
            <path d="M173.799579,70 L126.200422,70 C125.414287,70 124.687868,69.6188022 124.294801,69 C123.901733,68.3811979 123.901733,67.6188021 124.294801,67 C124.687868,66.3811978 125.414287,66 126.200422,66 L173.799579,66 C175.014838,66 176,66.8954306 176,68 C176,69.1045694 175.014838,70 173.799579,70 L173.799579,70 Z" id="Path" fill="#CCCCCC"></path>
            <path d="M116.96241,80 L82.0375899,80 C81.4648058,79.9993777 81.0006295,79.540456 81,78.9741559 L81,52.0258441 C81.0006295,51.459544 81.4648058,51.0006223 82.0375899,51 L116.96241,51 C117.535194,51.0006223 117.999371,51.459544 118,52.0258441 L118,78.9741559 C117.999371,79.540456 117.535194,79.9993777 116.96241,80 L116.96241,80 Z" id="Path" fill="#0074B6"></path>
        </g>
        <g id="Group-8" transform="translate(160.000000, 164.000000)" fill="#E4E4E4" fill-rule="nonzero">
            <path d="M10.8192066,85 C10.8610562,84.8686793 14.9230035,71.7267785 7.73393717,60 L7,60.4918886 C13.9589677,71.8436265 10.0324823,84.5846775 9.99204074,84.7119869 L10.8192066,85 Z" id="Path"></path>
            <path d="M2.502483,63.2133406 C2.93090296,65.3216643 4.4105543,67.0326292 6.38406661,67.7017314 C8.35757892,68.3708337 10.5251287,67.8964207 12.0702208,66.4571992 C13.615313,65.0179778 14.3032112,62.8325999 13.8747908,60.7242764 C13.2125092,57.4650922 7.59776841,49.3537855 4.4573893,50.0411232 C1.31701018,50.7284609 1.84021466,59.9541564 2.502483,63.2133406 Z" id="Path"></path>
            <path d="M2.54555526,77.0447425 C5.56548872,80.0821877 10.9680747,79.9997817 10.9680747,79.9997817 C10.9680747,79.9997817 11.4743783,74.9927028 8.45444004,71.9552575 C5.4345018,68.9178123 0.0319253277,69.0002183 0.0319253277,69.0002183 C0.0319253277,69.0002183 -0.474378196,74.0072883 2.54555526,77.0447425 Z" id="Path"></path>
            <path d="M47.1661123,86 C47.2664927,85.6900879 57.0152429,54.6751926 39.7614444,27 L38,28.1608596 C54.7015558,54.9509799 45.277971,85.0198335 45.1809068,85.3202913 L47.1661123,86 Z" id="Path"></path>
            <path d="M27.2142709,30.8318777 C28.8163834,38.434991 36.2646474,43.2977802 43.8520149,41.6942536 C51.4393825,40.0907269 56.2937905,32.6278708 54.6956691,25.0239141 C53.0952569,17.4189661 39.5271178,-1.50788251 31.9383405,0.0959580679 C24.3495633,1.69979864 25.6138543,23.2269252 27.2142709,30.8318777 Z" id="Path"></path>
            <path d="M28.7853463,67.7461849 C35.6488258,75.2017273 47.927442,74.9994643 47.927442,74.9994643 C47.927442,74.9994643 49.0781338,62.7093622 42.2146543,55.2538152 C35.3511748,47.7982681 23.0725586,48.0005358 23.0725586,48.0005358 C23.0725586,48.0005358 21.9218623,60.2906378 28.7853463,67.7461849 Z" id="Path"></path>
        </g>
        <path d="M214.646286,249.999883 L56.3681373,249.999883 C56.203522,250.004823 56.0571887,249.852425 56.0117031,249.628678 C55.9837154,249.478574 56.0065497,249.318605 56.0735215,249.195599 C56.1404934,249.072593 56.2440277,249.000465 56.353816,249.000328 L214.617326,249.000328 C214.791189,248.991715 214.946305,249.153703 214.991611,249.391196 C215.014826,249.539287 214.98928,249.694273 214.922153,249.812594 C214.855026,249.930915 214.753565,249.999798 214.646286,249.999883 Z" id="Path" fill="#CCCCCC" fill-rule="nonzero"></path>
    </g>
</svg>