<?xml version="1.0" encoding="UTF-8"?>
<svg width="48px" height="48px" viewBox="0 0 48 48" version="1.1" xmlns="http://www.w3.org/2000/svg" xmlns:xlink="http://www.w3.org/1999/xlink">
    <title>Icons/file/Audio@2x</title>
    <g id="03-Creation-with-new-duration-field(Final)" stroke="none" stroke-width="1" fill="none" fill-rule="evenodd">
        <g id="SPV-Events-Creation-Screen-2" transform="translate(-572, -325)">
            <g id="Group-5" transform="translate(328, 236)">
                <g id="upload-content" transform="translate(0, 49)">
                    <g id="Group-6" transform="translate(24, 40)">
                        <g id="Group-7" transform="translate(168, 0)">
                            <g id="Icons/file/Audio" transform="translate(52, 0)">
                                <rect id="Size" fill="#D8D8D8" opacity="0" x="0" y="0" width="48" height="48"></rect>
                                <g id="Group">
                                    <rect id="Rectangle" x="0" y="0" width="48" height="48"></rect>
                                    <rect id="Rectangle" x="0" y="0" width="48" height="48"></rect>
                                    <polygon id="Path" fill="#EFEEEE" fill-rule="nonzero" points="10 4 10 44 33.8 44 44 34 44 4"></polygon>
                                    <polygon id="Path" fill="#ABABAB" fill-rule="nonzero" points="34 34 34 44 44 34"></polygon>
                                    <polygon id="Path" fill="#DEDEDD" fill-rule="nonzero" points="24 44 34 44 34 34"></polygon>
                                    <polygon id="Path" fill="#D2689A" fill-rule="nonzero" points="4 12 4 30 38 30 38 12"></polygon>
                                    <path d="M9.62011719,25.9667969 L9.62011719,22.4121094 L10.9257812,22.4121094 C12.0286458,22.4121094 12.9036458,22.1090495 13.5507812,21.5029297 C14.1979167,20.8968099 14.5214844,20.117513 14.5214844,19.1650391 C14.5214844,18.2125651 14.2115885,17.4742839 13.5917969,16.9501953 C12.9720052,16.4261068 12.0992839,16.1640625 10.9736328,16.1640625 L10.9736328,16.1640625 L8,16.1640625 L8,25.9667969 L9.62011719,25.9667969 Z M10.6728516,21.0859375 L9.62011719,21.0859375 L9.62011719,17.5039062 L10.8027344,17.5039062 C12.1425781,17.5039062 12.8125,18.0804036 12.8125,19.2333984 C12.8125,19.8212891 12.6302083,20.2770182 12.265625,20.6005859 C11.9010417,20.9241536 11.3701172,21.0859375 10.6728516,21.0859375 L10.6728516,21.0859375 Z M17.5548828,25.9667969 L17.5548828,19.5410156 C17.5548828,18.8528646 17.5366536,18.4039714 17.5001953,18.1943359 L17.5001953,18.1943359 L17.5412109,18.1943359 C17.6186849,18.3902995 17.7166667,18.5794271 17.8351562,18.7617188 L17.8351562,18.7617188 L22.5177734,25.9667969 L24.2951172,25.9667969 L24.2951172,16.1640625 L22.7296875,16.1640625 L22.7296875,22.4804688 C22.7296875,23.1002604 22.752474,23.5400391 22.7980469,23.7998047 L22.7980469,23.7998047 L22.7707031,23.7998047 C22.7160156,23.6904297 22.5929687,23.4899089 22.4015625,23.1982422 L22.4015625,23.1982422 L17.8761719,16.1640625 L15.9826172,16.1640625 L15.9826172,25.9667969 L17.5548828,25.9667969 Z M30.7601562,26.1308594 C32.0134115,26.1308594 33.1504557,25.8528646 34.1712891,25.296875 L34.1712891,25.296875 L34.1712891,20.6416016 L30.4867187,20.6416016 L30.4867187,22.0087891 L32.5511719,22.0087891 L32.5511719,24.3398438 C32.0589844,24.5996094 31.475651,24.7294922 30.8011719,24.7294922 C29.8167969,24.7294922 29.0375,24.4070638 28.4632812,23.762207 C27.8890625,23.1173503 27.6019531,22.2320964 27.6019531,21.1064453 C27.6019531,20.0126953 27.9357747,19.1217448 28.603418,18.4335938 C29.2710612,17.7454427 30.1266927,17.4013672 31.1703125,17.4013672 C32.209375,17.4013672 33.1048828,17.6520182 33.8568359,18.1533203 L33.8568359,18.1533203 L33.8568359,16.4785156 C33.1139974,16.1595052 32.1979818,16 31.1087891,16 C29.5957682,16 28.3482096,16.4864909 27.3661133,17.4594727 C26.3840169,18.4324544 25.8929687,19.6777344 25.8929687,21.1953125 C25.8929687,22.6809896 26.341862,23.875 27.2396484,24.7773438 C28.1374349,25.6796875 29.3109375,26.1308594 30.7601562,26.1308594 Z" id="PNG" fill="#FFFFFF" fill-rule="nonzero"></path>
                                </g>
                            </g>
                        </g>
                    </g>
                </g>
            </g>
        </g>
    </g>
</svg>