<svg width="137" height="49" xmlns="http://www.w3.org/2000/svg"><g id="CBP-request-content-" stroke="none" stroke-width="1" fill="none" fill-rule="evenodd"><g id="ACBP-Creation---Create-Plan-2-Copy" transform="translate(-450 -418)"><g id="Group-9" transform="translate(420 418)"><g id="Graphic_InProgress" transform="translate(30)"><path d="M29.075 44h57.52c.325 0 .642-.035.947-.101.306.066.623.101.949.101h32.867c2.444 0 4.425-1.97 4.425-4.4 0-2.43-1.98-4.4-4.425-4.4h-3.792c-2.444 0-4.424-1.97-4.424-4.4 0-2.43 1.98-4.4 4.424-4.4h12.01c2.443 0 4.424-1.97 4.424-4.4 0-2.43-1.98-4.4-4.425-4.4H115.67c2.443 0 4.424-1.97 4.424-4.4 0-2.43-1.98-4.4-4.424-4.4H75.217c2.444 0 4.425-1.97 4.425-4.4 0-2.43-1.981-4.4-4.425-4.4H39.189c-2.444 0-4.425 1.97-4.425 4.4 0 2.43 1.981 4.4 4.425 4.4H13.906c-2.444 0-4.425 1.97-4.425 4.4 0 2.43 1.981 4.4 4.425 4.4h15.802c2.443 0 4.424 1.97 4.424 4.4 0 2.43-1.98 4.4-4.424 4.4H4.425C1.98 26.4 0 28.37 0 30.8c0 2.43 1.98 4.4 4.425 4.4h24.65c-2.443 0-4.424 1.97-4.424 4.4 0 2.43 1.98 4.4 4.424 4.4zM132.5 44a4.5 4.5 0 100-9 4.5 4.5 0 000 9z" id="Shape" fill="#DDE8FB"/><path id="Rectangle" fill="#FFF" d="M38.654 4.82h53.36v42.377h-53.36z"/><path d="M82.066 37.279c3.46 0 6.8-.51 9.95-1.458l-.001 11.376h-53.36V4.82h9.09c.941 18.084 15.947 32.459 34.321 32.459z" id="Combined-Shape" fill="#7FAEFF" opacity=".148"/><g id="video" transform="translate(36.846 3.016)" fill="#1B4CA1"><path d="M53.761 0H3.216A3.221 3.221 0 000 3.219v39.546a3.221 3.221 0 003.216 3.219h50.545a3.221 3.221 0 003.217-3.22V3.22A3.221 3.221 0 0053.76 0zm1.379 42.765a1.38 1.38 0 01-1.379 1.38H3.216a1.38 1.38 0 01-1.378-1.38v-4.139H55.14v4.139zm0-5.978H1.838V7.357H55.14v29.43zm0-31.269H1.838v-2.3A1.38 1.38 0 013.216 1.84h50.545a1.38 1.38 0 011.379 1.38v2.299z" id="Shape"/><path d="M3.799 4.523h.76a.757.757 0 00.759-.754.757.757 0 00-.76-.754h-.76c-.419 0-.76.338-.76.754s.341.754.76.754zm3.038 0h.76c.42 0 .76-.338.76-.754a.757.757 0 00-.76-.754h-.76c-.42 0-.76.338-.76.754s.34.754.76.754zm3.799 0h.76c.42 0 .76-.338.76-.754a.757.757 0 00-.76-.754h-.76c-.42 0-.76.338-.76.754s.34.754.76.754zm39.33 36.372H12.614a.938.938 0 00-.934-.942.938.938 0 00-.933.942H7.01a.938.938 0 00-.933.943c0 .52.418.942.933.942h3.736c0 .52.418.942.933.942a.938.938 0 00.934-.942h37.352a.938.938 0 00.934-.942.938.938 0 00-.934-.943z" id="Path"/></g></g></g></g></g></svg>