<?xml version="1.0" encoding="UTF-8"?>
<svg width="56px" height="56px" viewBox="0 0 56 56" version="1.1" xmlns="http://www.w3.org/2000/svg" xmlns:xlink="http://www.w3.org/1999/xlink">
    <title>Icons/action/radio_on Copy</title>
    <g id="CBP-Creation-V2--(Latest-Version)" stroke="none" stroke-width="1" fill="none" fill-rule="evenodd">
        <g id="ACBP-Creation---listing-screen-20-Copy-2" transform="translate(-692, -309)">
            <g id="Group-14" transform="translate(407, 285)">
                <g id="Icons/action/radio_on-Copy" transform="translate(285, 24)">
                    <rect id="Size" fill="#D8D8D8" opacity="0" x="0" y="0" width="56" height="56"></rect>
                    <path d="M25.6666667,16.3333333 L30.3333333,16.3333333 L30.3333333,21 L25.6666667,21 L25.6666667,16.3333333 Z M25.6666667,25.6666667 L30.3333333,25.6666667 L30.3333333,39.6666667 L25.6666667,39.6666667 L25.6666667,25.6666667 Z M28,4.66666667 C15.12,4.66666667 4.66666667,15.12 4.66666667,28 C4.66666667,40.88 15.12,51.3333333 28,51.3333333 C40.88,51.3333333 51.3333333,40.88 51.3333333,28 C51.3333333,15.12 40.88,4.66666667 28,4.66666667 Z M28,46.6666667 C17.71,46.6666667 9.33333333,38.29 9.33333333,28 C9.33333333,17.71 17.71,9.33333333 28,9.33333333 C38.29,9.33333333 46.6666667,17.71 46.6666667,28 C46.6666667,38.29 38.29,46.6666667 28,46.6666667 Z" id="Shape" fill="#EF951E"></path>
                </g>
            </g>
        </g>
    </g>
</svg>