<?xml version="1.0" encoding="UTF-8"?>
<svg width="32px" height="32px" viewBox="0 0 32 32" version="1.1" xmlns="http://www.w3.org/2000/svg" xmlns:xlink="http://www.w3.org/1999/xlink">
    <title>Combined Shape</title>
    <g id="Home-page-Portal---Desktop" stroke="none" stroke-width="1" fill="none" fill-rule="evenodd">
        <g id="S1---Use-case-2:-Existing/Repeat-user" transform="translate(-1133, -4701)" fill="#FFFFFF">
            <g id="Group-30" transform="translate(0, 3948)">
                <g id="Navigation/Footer" transform="translate(0, 521)">
                    <path d="M1149,232 C1140.16479,232 1133,239.164795 1133,248 C1133,256.835205 1140.16479,264 1149,264 C1157.83521,264 1165,256.835205 1165,248 C1165,239.164795 1157.83521,232 1149,232 Z M1141.04171,240 L1147.66037,248.824915 L1141,256 L1142.4991,256 L1148.33038,249.717964 L1153.04171,256 L1158.14286,256 L1151.15166,246.678787 L1157.35116,240 L1155.85206,240 L1150.48194,245.785452 L1146.14286,240 L1141.04171,240 Z M1143.24621,241.101035 L1145.58965,241.101035 L1155.93808,254.898965 L1153.59463,254.898965 L1143.24621,241.101035 Z" id="Combined-Shape"></path>
                </g>
            </g>
        </g>
    </g>
</svg>