<?xml version="1.0" encoding="UTF-8"?>
<svg width="32px" height="32px" viewBox="0 0 32 32" version="1.1" xmlns="http://www.w3.org/2000/svg" xmlns:xlink="http://www.w3.org/1999/xlink">
    <title>002-facebook</title>
    <g id="Home-page-Portal---Desktop" stroke="none" stroke-width="1" fill="none" fill-rule="evenodd">
        <g id="S1---Use-case-2:-Existing/Repeat-user" transform="translate(-1229, -4701)" fill="#FFFFFF" fill-rule="nonzero">
            <g id="Group-30" transform="translate(0, 3948)">
                <g id="Navigation/Footer" transform="translate(0, 521)">
                    <g id="002-facebook" transform="translate(1229, 232)">
                        <path d="M16,0 C7.17763635,0 0,7.17763635 0,16 C0,24.8217192 7.17763635,32 16,32 C24.8217192,32 32,24.8217192 32,16 C32,7.17763635 24.8230081,0 16,0 Z M19.9790542,16.5632804 L17.3759768,16.5632804 L17.3759768,25.8412954 L13.5187304,25.8412954 C13.5187304,25.8412954 13.5187304,20.7717715 13.5187304,16.5632804 L11.6851688,16.5632804 L11.6851688,13.2841376 L13.5187304,13.2841376 L13.5187304,11.1631354 C13.5187304,9.64408282 14.2405543,7.27044228 17.4114235,7.27044228 L20.2697172,7.28139853 L20.2697172,10.464513 C20.2697172,10.464513 18.5328285,10.464513 18.195118,10.464513 C17.8574076,10.464513 17.3772658,10.6333682 17.3772658,11.3577701 L17.3772658,13.2847821 L20.3161202,13.2847821 L19.9790542,16.5632804 Z" id="Shape"></path>
                    </g>
                </g>
            </g>
        </g>
    </g>
</svg>