<?xml version="1.0" encoding="UTF-8"?>
<svg width="32px" height="32px" viewBox="0 0 32 32" version="1.1" xmlns="http://www.w3.org/2000/svg" xmlns:xlink="http://www.w3.org/1999/xlink">
    <title>003-instagram</title>
    <g id="Home-page-Portal---Desktop" stroke="none" stroke-width="1" fill="none" fill-rule="evenodd">
        <g id="S1---Use-case-2:-Existing/Repeat-user" transform="translate(-1181, -4701)" fill="#FFFFFF" fill-rule="nonzero">
            <g id="Group-30" transform="translate(0, 3948)">
                <g id="Navigation/Footer" transform="translate(0, 521)">
                    <g id="003-instagram" transform="translate(1181, 232)">
                        <path d="M19.0625,16 C19.0625,17.6914062 17.6914062,19.0625 16,19.0625 C14.3085938,19.0625 12.9375,17.6914062 12.9375,16 C12.9375,14.3085938 14.3085938,12.9375 16,12.9375 C17.6914062,12.9375 19.0625,14.3085938 19.0625,16 Z" id="Path"></path>
                        <path d="M23.1621094,10.581543 C23.0148926,10.1826172 22.7800293,9.82153319 22.4748535,9.5251465 C22.1784668,9.21997069 21.8176269,8.98510744 21.418457,8.83789063 C21.0947266,8.71215819 20.6083984,8.5625 19.7126465,8.5217285 C18.7436524,8.47753906 18.453125,8.46801756 16,8.46801756 C13.5466309,8.46801756 13.2561035,8.47729494 12.2873535,8.52148438 C11.3916016,8.5625 10.9050293,8.71215819 10.581543,8.83789063 C10.1823731,8.98510744 9.82128906,9.21997069 9.5251465,9.5251465 C9.21997069,9.82153319 8.98510744,10.1823731 8.8376465,10.581543 C8.71191406,10.9052734 8.56225587,11.3918457 8.52148438,12.2875976 C8.47729494,13.2563476 8.46777344,13.546875 8.46777344,16.0002441 C8.46777344,18.4533691 8.47729494,18.7438965 8.52148438,19.7128906 C8.56225587,20.6086426 8.71191406,21.0949707 8.8376465,21.4187012 C8.98510744,21.8178711 9.21972656,22.1787109 9.52490237,22.4750976 C9.82128906,22.7802734 10.1821289,23.0151368 10.5812988,23.1623535 C10.9050293,23.2883301 11.3916016,23.4379883 12.2873535,23.4787598 C13.2561035,23.5229493 13.5463867,23.5322266 15.9997559,23.5322266 C18.4533691,23.5322266 18.7438965,23.5229493 19.7124024,23.4787598 C20.6081543,23.4379883 21.0947266,23.2883301 21.418457,23.1623535 C22.2197266,22.8532715 22.8530274,22.2199707 23.1621094,21.4187012 C23.2878418,21.0949707 23.4375,20.6086426 23.4785156,19.7128906 C23.5227051,18.7438965 23.5319824,18.4533691 23.5319824,16.0002441 C23.5319824,13.546875 23.5227051,13.2563476 23.4785156,12.2875976 C23.4377441,11.3918457 23.2880859,10.9052734 23.1621094,10.581543 L23.1621094,10.581543 Z M16,20.7177734 C13.3942871,20.7177734 11.2819824,18.6057129 11.2819824,16 C11.2819824,13.3942871 13.3942871,11.2822266 16,11.2822266 C18.6054688,11.2822266 20.7177734,13.3942871 20.7177734,16 C20.7177734,18.6057129 18.6054688,20.7177734 16,20.7177734 Z M20.9042969,12.1982422 C20.2954101,12.1982422 19.8017578,11.7045899 19.8017578,11.0957031 C19.8017578,10.4868164 20.2954101,9.99316406 20.9042969,9.99316406 C21.5131836,9.99316406 22.0068359,10.4868164 22.0068359,11.0957031 C22.0065918,11.7045899 21.5131836,12.1982422 20.9042969,12.1982422 Z" id="Shape"></path>
                        <path d="M16,0 C7.16479494,0 0,7.16479494 0,16 C0,24.8352051 7.16479494,32 16,32 C24.8352051,32 32,24.8352051 32,16 C32,7.16479494 24.8352051,0 16,0 Z M25.1320801,19.7878418 C25.0876465,20.7658691 24.9321289,21.4335938 24.7050781,22.0180664 C24.2277832,23.2521973 23.2521972,24.2277832 22.0180664,24.7050781 C21.4338379,24.9321289 20.7658691,25.0874024 19.7880859,25.1320801 C18.8083496,25.1767578 18.4953613,25.1875 16.0002441,25.1875 C13.5048828,25.1875 13.1921387,25.1767578 12.2121582,25.1320801 C11.234375,25.0874024 10.5664062,24.9321289 9.98217775,24.7050781 C9.3688965,24.4743653 8.81372069,24.112793 8.35473631,23.6452637 C7.88745119,23.1865234 7.52587888,22.6311035 7.295166,22.0180664 C7.06811525,21.4338379 6.91259763,20.7658691 6.86816406,19.7880859 C6.82299806,18.8081055 6.8125,18.4951172 6.8125,16 C6.8125,13.5048828 6.82299806,13.1918945 6.86791994,12.2121582 C6.9123535,11.2341309 7.06762694,10.5664063 7.29467775,9.98193363 C7.52539062,9.3688965 7.887207,8.81347656 8.35473631,8.35473631 C8.81347656,7.887207 9.3688965,7.52563475 9.98193362,7.29492188 C10.5664062,7.06787113 11.2341309,6.91259763 12.2121582,6.86791994 C13.1918945,6.82324219 13.5048828,6.8125 16,6.8125 C18.4951172,6.8125 18.8081055,6.82324219 19.7878418,6.86816406 C20.7658691,6.91259763 21.4335937,7.06787113 22.0180664,7.29467775 C22.6311035,7.52539063 23.1865234,7.887207 23.6455078,8.35473631 C24.112793,8.81372069 24.4746094,9.3688965 24.7050781,9.98193363 C24.9323731,10.5664063 25.0876465,11.2341309 25.1323242,12.2121582 C25.1770019,13.1918945 25.1875,13.5048828 25.1875,16 C25.1875,18.4951172 25.1770019,18.8081055 25.1320801,19.7878418 L25.1320801,19.7878418 Z" id="Shape"></path>
                    </g>
                </g>
            </g>
        </g>
    </g>
</svg>