<?xml version="1.0" encoding="UTF-8"?>
<svg width="32px" height="32px" viewBox="0 0 32 32" version="1.1" xmlns="http://www.w3.org/2000/svg" xmlns:xlink="http://www.w3.org/1999/xlink">
    <title>Group 24</title>
    <g id="UI-Elements-for-Dev" stroke="none" stroke-width="1" fill="none" fill-rule="evenodd">
        <g id="UI-Elements" transform="translate(-796, -403)">
            <g id="Group-22" transform="translate(796, 403)">
                <circle id="Oval" fill="#231F20" cx="16" cy="16" r="14"></circle>
                <path d="M26.2680214,14.5214023 C26.0531355,14.5214023 25.8281241,14.4713376 25.6231762,14.3738332 C21.8334212,12.4790606 17.753589,11.5216426 13.4864349,11.5216426 C11.2691348,11.5216426 9.06177267,11.7967174 6.91441362,12.3241786 C6.12199838,12.5189999 5.33202077,12.0389783 5.13719837,11.2591308 C4.94218847,10.4667202 5.41958771,9.52167773 6.19962732,9.32423136 C8.58437343,8.73939259 11.0240598,8.4369415 13.4864349,8.4369415 C18.2011743,8.4369415 22.7332794,9.50180184 26.9229922,11.5915832 C27.6527792,11.9515994 27.9479192,12.8315764 27.5852758,13.5639843 C27.332888,14.0713821 26.8153617,14.5214023 26.2680214,14.5214023 M25.4180408,19.3534944 C25.1932168,19.7933892 24.743194,20.5059212 24.2856708,20.5059212 C24.0805353,20.5059212 23.8857129,20.4584815 23.690703,20.3607896 C20.5159793,18.7084654 17.0886803,17.8785531 13.4864349,17.8785531 C11.5040842,17.8785531 9.53917191,18.1335646 7.63688781,18.6610258 C6.95191553,18.8460966 6.24950486,18.4459536 6.06443296,17.7611729 C5.87954857,17.0687043 6.27950638,15.9063395 6.96185353,15.7212687 C9.08164868,15.1463679 11.2790728,14.8512296 13.4864349,14.8512296 C17.4411982,14.8512296 21.385836,15.8088352 24.8707005,17.6261668 C25.5056077,17.9486813 25.7504951,18.7185909 25.4180408,19.3534944 M23.3856251,25.3779525 C23.1908027,25.7404063 22.8107209,25.945353 22.4308266,25.945353 C22.243317,25.945353 22.0683707,25.9054137 21.8934243,25.8079093 C19.3335443,24.4030962 16.4237715,23.6506249 13.4864349,23.6506249 C11.726658,23.6506249 9.97925676,23.9131367 8.31942247,24.4304725 C7.73439276,24.6080429 7.11954904,24.285716 6.94197752,23.70819 C6.76703114,23.1331017 7.08954752,21.9032339 7.66445171,21.7157255 C9.54929743,21.1408247 11.5040842,20.8383736 13.4864349,20.8383736 C16.7961654,20.8383736 20.076082,21.6784113 22.9582909,23.2707329 C23.4932555,23.5630585 23.680765,24.8405534 23.3856251,25.3779525 M15.9938122,0 C7.16698895,0 0,7.16694695 0,15.9937185 C0,24.833053 7.16698895,32 15.9938122,32 C24.8331986,32 32,24.833053 32,15.9937185 C32,7.16694695 24.8331986,0 15.9938122,0" id="Fill-1" fill="#FFFFFF"></path>
            </g>
        </g>
    </g>
</svg>