<?xml version="1.0" encoding="UTF-8"?>
<svg width="48px" height="48px" viewBox="0 0 48 48" version="1.1" xmlns="http://www.w3.org/2000/svg" xmlns:xlink="http://www.w3.org/1999/xlink">
    <title>Group 10</title>
    <g id="04-Consumption---Desktop-V5" stroke="none" stroke-width="1" fill="none" fill-rule="evenodd">
        <g id="Group-10">
            <circle id="Oval" fill="#02B1BC" cx="24" cy="24" r="24"></circle>
            <g id="Icons/action/download" transform="translate(14, 14)" fill="#FFFFFF" fill-rule="nonzero">
                <g id="library_books_black_24dp-(2)">
                    <path d="M1,4 C0.45,4 0,4.45 0,5 L0,18 C0,19.1 0.9,20 2,20 L15,20 C15.55,20 16,19.55 16,19 C16,18.45 15.55,18 15,18 L3,18 C2.45,18 2,17.55 2,17 L2,5 C2,4.45 1.55,4 1,4 Z M18,0 L6,0 C4.9,0 4,0.9 4,2 L4,14 C4,15.1 4.9,16 6,16 L18,16 C19.1,16 20,15.1 20,14 L20,2 C20,0.9 19.1,0 18,0 Z M16,9 L8,9 C7.45,9 7,8.55 7,8 C7,7.45 7.45,7 8,7 L16,7 C16.55,7 17,7.45 17,8 C17,8.55 16.55,9 16,9 Z M12,13 L8,13 C7.45,13 7,12.55 7,12 C7,11.45 7.45,11 8,11 L12,11 C12.55,11 13,11.45 13,12 C13,12.55 12.55,13 12,13 Z M16,5 L8,5 C7.45,5 7,4.55 7,4 C7,3.45 7.45,3 8,3 L16,3 C16.55,3 17,3.45 17,4 C17,4.55 16.55,5 16,5 Z" id="Shape"></path>
                </g>
            </g>
        </g>
    </g>
</svg>