<?xml version="1.0" encoding="UTF-8"?>
<svg width="48px" height="48px" viewBox="0 0 48 48" version="1.1" xmlns="http://www.w3.org/2000/svg" xmlns:xlink="http://www.w3.org/1999/xlink">
    <title>Group 9</title>
    <g id="04-Consumption---Desktop-V5" stroke="none" stroke-width="1" fill="none" fill-rule="evenodd">
        <g id="Group-9">
            <circle id="Oval" fill="#F69953" cx="24" cy="24" r="24"></circle>
            <g id="Icons/action/download" transform="translate(12, 12)">
                <rect id="Size" fill="#D8D8D8" opacity="0" x="0" y="0" width="24" height="24"></rect>
                <path d="M11,7 L9.6,8.4 L12.2,11 L2,11 L2,13 L12.2,13 L9.6,15.6 L11,17 L16,12 L11,7 Z M20,19 L12,19 L12,21 L20,21 C21.1,21 22,20.1 22,19 L22,5 C22,3.9 21.1,3 20,3 L12,3 L12,5 L20,5 L20,19 Z" id="Shape" fill="#FFFFFF"></path>
            </g>
        </g>
    </g>
</svg>