<?xml version="1.0" encoding="UTF-8"?>
<svg width="48px" height="48px" viewBox="0 0 48 48" version="1.1" xmlns="http://www.w3.org/2000/svg" xmlns:xlink="http://www.w3.org/1999/xlink">
    <title>Group 11</title>
    <g id="04-Consumption---Desktop-V5" stroke="none" stroke-width="1" fill="none" fill-rule="evenodd">
        <g id="Group-11">
            <circle id="Oval" fill="#0068BE" cx="24" cy="24" r="24"></circle>
            <g id="Icons/action/download" transform="translate(12, 12)">
                <rect id="Size" fill="#D8D8D8" opacity="0" x="0" y="0" width="24" height="24"></rect>
                <path d="M3,11 L11,11 L11,3 L3,3 L3,11 Z M5,5 L9,5 L9,9 L5,9 L5,5 Z M3,21 L11,21 L11,13 L3,13 L3,21 Z M5,15 L9,15 L9,19 L5,19 L5,15 Z M13,3 L13,11 L21,11 L21,3 L13,3 Z M19,9 L15,9 L15,5 L19,5 L19,9 Z M21,19 L21,21 L19,21 L19,19 L21,19 Z M17,19 L17,21 L15,21 L15,19 L17,19 Z M19,17 L19,19 L17,19 L17,17 L19,17 Z M15,17 L15,19 L13,19 L13,17 L15,17 Z M17,15 L17,17 L15,17 L15,15 L17,15 Z M21,15 L21,17 L19,17 L19,15 L21,15 Z M15,13 L15,15 L13,15 L13,13 L15,13 Z M19,13 L19,15 L17,15 L17,13 L19,13 Z" id="Combined-Shape" fill="#FFFFFF"></path>
            </g>
        </g>
    </g>
</svg>