<?xml version="1.0" encoding="UTF-8"?>
<svg width="22px" height="20px" viewBox="0 0 22 20" version="1.1" xmlns="http://www.w3.org/2000/svg" xmlns:xlink="http://www.w3.org/1999/xlink">
    <title>Connect_icon</title>
    <g id="UI-Elements-for-Dev" stroke="none" stroke-width="1" fill="none" fill-rule="evenodd">
        <g id="UI-Elements" transform="translate(-661, -242)">
            <g id="Connect_icon" transform="translate(661, 242)">
                <g id="Icons/content/add-24px">
                    <rect id="Size" fill="#D8D8D8" opacity="0" x="0" y="0" width="20" height="20"></rect>
                    <path d="M8.33333333,10 C10.175,10 11.6666667,8.50833333 11.6666667,6.66666667 C11.6666667,4.825 10.175,3.33333333 8.33333333,3.33333333 C6.49166667,3.33333333 5,4.825 5,6.66666667 C5,8.50833333 6.49166667,10 8.33333333,10 Z M8.33333333,11.6666667 C6.10833333,11.6666667 1.66666667,12.7833333 1.66666667,15 L1.66666667,15.8333333 C1.66666667,16.2916667 2.04166667,16.6666667 2.5,16.6666667 L14.1666667,16.6666667 C14.625,16.6666667 15,16.2916667 15,15.8333333 L15,15 C15,12.7833333 10.5583333,11.6666667 8.33333333,11.6666667 Z" id="Combined-Shape" fill="#1B4CA1"></path>
                </g>
                <polygon id="Path" fill="#1B4CA1" points="21.6666667 6.80952381 18.8095238 6.80952381 18.8095238 9.66666667 17.8571429 9.66666667 17.8571429 6.80952381 15 6.80952381 15 5.85714286 17.8571429 5.85714286 17.8571429 3 18.8095238 3 18.8095238 5.85714286 21.6666667 5.85714286"></polygon>
            </g>
        </g>
    </g>
</svg>