<svg width="32" height="32" viewBox="0 0 32 32" fill="none" xmlns="http://www.w3.org/2000/svg">
<path d="M7.34448 23.0432V26.7583C7.34448 26.8918 7.45258 27 7.58594 27H24.4141C24.5474 27 24.6555 26.8918 24.6555 26.7583V23.0432H7.34448Z" fill="#FE9901"/>
<path d="M9.57747 26.7583V23.0901H7.34448V26.7583C7.34448 26.8918 7.45258 27 7.58594 27H9.81892C9.68556 27 9.57747 26.8918 9.57747 26.7583Z" fill="#FB8801"/>
<path d="M9.50564 11.7443C9.56879 11.7702 9.60314 11.8389 9.58964 11.9058L8.81086 15.7608L12.2569 18.3135L13.6699 14.8091L10.8218 11.5794C10.7762 11.5277 10.7714 11.45 10.8137 11.3955C11.041 11.1029 11.1209 10.7017 10.9806 10.3182C10.7996 9.82339 10.2856 9.51826 9.7651 9.59792C9.09314 9.7008 8.67718 10.3584 8.84813 10.997C8.94225 11.3486 9.19332 11.616 9.50564 11.7443Z" fill="#FEE45A"/>
<path d="M9.50566 11.7443C9.5688 11.7702 9.60316 11.8389 9.58966 11.9058L8.82114 15.71L9.48194 16.1995L10.4106 11.6027C10.4241 11.5357 10.3898 11.467 10.3266 11.4411C10.0143 11.3129 9.76324 11.0454 9.66911 10.6939C9.55867 10.2814 9.69339 9.86117 9.9836 9.58742C9.9115 9.5839 9.83847 9.58672 9.76516 9.59793C9.09321 9.70081 8.67724 10.3584 8.84819 10.997C8.94227 11.3486 9.19333 11.616 9.50566 11.7443Z" fill="#FEDF30"/>
<path d="M21.179 11.5784L18.33 14.8091L19.743 18.3135L23.189 15.7608L22.4105 11.9073C22.3969 11.8397 22.4313 11.7701 22.4951 11.7439C22.8254 11.608 23.0871 11.3162 23.1668 10.934C23.2814 10.3839 22.9604 9.82349 22.4283 9.64475C21.81 9.43711 21.1543 9.79586 20.9881 10.4167C20.8936 10.7697 20.9785 11.1284 21.1866 11.3961C21.2287 11.4501 21.2242 11.5271 21.179 11.5784Z" fill="#FEDF30"/>
<path d="M21.179 11.5784L18.3647 14.7698L18.7007 15.6031L22.105 11.7427C22.1502 11.6914 22.1546 11.6144 22.1126 11.5604C21.9044 11.2927 21.8196 10.934 21.9141 10.5811C22.0217 10.179 22.3347 9.88712 22.7098 9.78753C22.6247 9.7278 22.5305 9.67911 22.4283 9.64481C21.81 9.43717 21.1544 9.79592 20.9882 10.4168C20.8937 10.7697 20.9785 11.1284 21.1867 11.3961C21.2287 11.4502 21.2242 11.5271 21.179 11.5784Z" fill="#FED402"/>
<path d="M26.7603 11.9536C26.242 12.0074 25.8228 12.4253 25.7667 12.9437C25.745 13.1442 25.7765 13.3354 25.8485 13.5052C25.8917 13.607 25.8579 13.7252 25.769 13.791L19.7249 18.2684L21.669 23.09H24.6555L26.5699 14.3765C26.5953 14.2608 26.7007 14.181 26.8189 14.1875C26.8886 14.1914 26.9601 14.1887 27.0328 14.1787C27.5508 14.1076 27.9581 13.6756 27.9968 13.1538C28.0486 12.4561 27.4614 11.8808 26.7603 11.9536Z" fill="#FED402"/>
<path d="M26.7603 11.9536C26.242 12.0074 25.8228 12.4253 25.7667 12.9437C25.745 13.1443 25.7765 13.3354 25.8485 13.5052C25.8917 13.607 25.8579 13.7253 25.769 13.7911L19.7639 18.2396L20.0361 18.9147L26.4763 14.1438C26.5652 14.078 26.5989 13.9597 26.5558 13.8579C26.4838 13.6881 26.4523 13.497 26.474 13.2964C26.5301 12.778 26.9493 12.3601 27.4676 12.3063C27.5473 12.298 27.6254 12.2985 27.7013 12.3062C27.4719 12.0587 27.1321 11.915 26.7603 11.9536Z" fill="#FAC600"/>
<path d="M10.3309 23.09L12.275 18.2685L6.23092 13.7911C6.14204 13.7253 6.10829 13.607 6.15146 13.5052C6.22346 13.3354 6.25492 13.1443 6.23322 12.9438C6.17715 12.4253 5.75786 12.0074 5.23956 11.9536C4.53826 11.8809 3.95106 12.4564 4.00323 13.1545C4.04218 13.6762 4.44962 14.1078 4.96754 14.1788C5.04015 14.1887 5.11145 14.1914 5.18106 14.1876C5.29928 14.1811 5.40465 14.2608 5.43006 14.3766L7.34448 23.09H10.3309Z" fill="#FED402"/>
<path d="M6.02659 13.8378C6.00118 13.7221 5.89576 13.6423 5.77759 13.6487C5.70798 13.6525 5.63668 13.6499 5.56407 13.64C5.04615 13.569 4.63871 13.1374 4.59976 12.6157C4.58373 12.4012 4.62826 12.1984 4.71774 12.0223C4.27295 12.1937 3.96484 12.6407 4.00323 13.1545C4.04218 13.6762 4.44966 14.1078 4.96754 14.1788C5.04015 14.1888 5.11145 14.1914 5.18106 14.1876C5.29927 14.1811 5.40465 14.2609 5.43006 14.3766L7.34448 23.0901H8.12973L6.02659 13.8378Z" fill="#FAC600"/>
<path d="M21.7196 23.0901L16.7498 10.7645C16.7136 10.6747 16.7345 10.5718 16.8029 10.5032L17.8559 9.44941C17.9502 9.35501 17.9502 9.20203 17.8559 9.10768L16.1707 7.42107C16.0764 7.32668 15.9235 7.32668 15.8292 7.42107L14.144 9.10768C14.0497 9.20207 14.0497 9.35506 14.144 9.44941L15.197 10.5032C15.2654 10.5718 15.2864 10.6747 15.2501 10.7645L10.2803 23.0901H21.7196Z" fill="#FEE45A"/>
<path d="M16.3345 10.5033L15.2815 9.44945C15.1872 9.35506 15.1872 9.20207 15.2815 9.10768L16.5687 7.81942L16.1707 7.42107C16.0764 7.32668 15.9235 7.32668 15.8293 7.42107L14.1441 9.10768C14.0497 9.20207 14.0497 9.35506 14.1441 9.44945L15.197 10.5033C15.2655 10.5718 15.2864 10.6747 15.2502 10.7646L10.2803 23.0901H11.4179L16.3876 10.7645C16.4239 10.6747 16.403 10.5718 16.3345 10.5033Z" fill="#FEDF30"/>
<path d="M15.8637 16.4145L14.4614 18.3613C14.4195 18.4194 14.4191 18.4978 14.4603 18.5564L15.8626 20.5485C15.9296 20.6435 16.0704 20.6435 16.1373 20.5485L17.5396 18.5564C17.5809 18.4978 17.5804 18.4194 17.5385 18.3613L16.1362 16.4145C16.0692 16.3214 15.9308 16.3214 15.8637 16.4145Z" fill="#925CB4"/>
<path d="M15.6337 18.5564C15.5925 18.4977 15.5929 18.4194 15.6348 18.3612L16.5867 17.0397L16.1363 16.4144C16.0692 16.3213 15.9308 16.3213 15.8637 16.4144L14.4614 18.3612C14.4195 18.4194 14.4191 18.4977 14.4603 18.5564L15.8626 20.5484C15.9296 20.6435 16.0704 20.6435 16.1373 20.5484L16.5867 19.9101L15.6337 18.5564Z" fill="#814BA2"/>
<path d="M9.67188 26.1269C10.2242 26.1269 10.6719 25.6792 10.6719 25.1269C10.6719 24.5746 10.2242 24.1269 9.67188 24.1269C9.11959 24.1269 8.67188 24.5746 8.67188 25.1269C8.67188 25.6792 9.11959 26.1269 9.67188 26.1269Z" fill="#FED402"/>
<path d="M12.2031 26.1269C12.7554 26.1269 13.2031 25.6792 13.2031 25.1269C13.2031 24.5746 12.7554 24.1269 12.2031 24.1269C11.6508 24.1269 11.2031 24.5746 11.2031 25.1269C11.2031 25.6792 11.6508 26.1269 12.2031 26.1269Z" fill="#FED402"/>
<path d="M14.7344 26.1269C15.2867 26.1269 15.7344 25.6792 15.7344 25.1269C15.7344 24.5746 15.2867 24.1269 14.7344 24.1269C14.1821 24.1269 13.7344 24.5746 13.7344 25.1269C13.7344 25.6792 14.1821 26.1269 14.7344 26.1269Z" fill="#FED402"/>
<path d="M17.2656 26.1269C17.8179 26.1269 18.2656 25.6792 18.2656 25.1269C18.2656 24.5746 17.8179 24.1269 17.2656 24.1269C16.7133 24.1269 16.2656 24.5746 16.2656 25.1269C16.2656 25.6792 16.7133 26.1269 17.2656 26.1269Z" fill="#FED402"/>
<path d="M19.7969 26.1269C20.3492 26.1269 20.7969 25.6792 20.7969 25.1269C20.7969 24.5746 20.3492 24.1269 19.7969 24.1269C19.2446 24.1269 18.7969 24.5746 18.7969 25.1269C18.7969 25.6792 19.2446 26.1269 19.7969 26.1269Z" fill="#FED402"/>
<path d="M22.3281 26.1269C22.8804 26.1269 23.3281 25.6792 23.3281 25.1269C23.3281 24.5746 22.8804 24.1269 22.3281 24.1269C21.7758 24.1269 21.3281 24.5746 21.3281 25.1269C21.3281 25.6792 21.7758 26.1269 22.3281 26.1269Z" fill="#FED402"/>
<path d="M12.1824 5.10271C12.4302 5.81453 12.7194 6.1039 13.4306 6.35194C13.5674 6.39965 13.5674 6.59279 13.4306 6.6405C12.7194 6.88854 12.4302 7.1779 12.1824 7.88973C12.1347 8.02667 11.9418 8.02667 11.8941 7.88973C11.6463 7.1779 11.3571 6.88854 10.6459 6.6405C10.5091 6.59279 10.5091 6.39965 10.6459 6.35194C11.3571 6.1039 11.6463 5.81453 11.8941 5.10271C11.9418 4.96576 12.1347 4.96576 12.1824 5.10271Z" fill="#FE9901"/>
<path d="M11.2917 6.03241C11.123 6.15851 10.9146 6.25821 10.6458 6.35194C10.509 6.39965 10.509 6.5928 10.6458 6.64051C11.3571 6.88855 11.6462 7.17791 11.894 7.88974C11.9417 8.02668 12.1347 8.02668 12.1824 7.88974C12.2748 7.62411 12.3731 7.41745 12.4968 7.24969C12.2549 6.56427 11.9696 6.27533 11.2917 6.03241Z" fill="#FB8801"/>
<path d="M20.1542 6.40764C20.402 7.11947 20.6912 7.40883 21.4024 7.65687C21.5392 7.70458 21.5392 7.89772 21.4024 7.94544C20.6912 8.19347 20.402 8.48284 20.1542 9.19466C20.1065 9.33161 19.9136 9.33161 19.8659 9.19466C19.6181 8.48284 19.3289 8.19347 18.6177 7.94544C18.4809 7.89772 18.4809 7.70458 18.6177 7.65687C19.3289 7.40883 19.6181 7.11947 19.8659 6.40764C19.9136 6.2707 20.1065 6.2707 20.1542 6.40764Z" fill="#FE9901"/>
<path d="M19.287 7.3186C19.1141 7.45343 18.8994 7.55866 18.6177 7.65685C18.4809 7.70457 18.4809 7.89771 18.6177 7.94542C19.3289 8.19346 19.6181 8.48282 19.8659 9.19465C19.9136 9.33159 20.1065 9.33159 20.1542 9.19465C20.2504 8.91851 20.3531 8.70651 20.4838 8.53527C20.2428 7.85098 19.9591 7.56115 19.287 7.3186Z" fill="#FB8801"/>
</svg>
