<svg width="32" height="32" viewBox="0 0 32 32" fill="none" xmlns="http://www.w3.org/2000/svg">
<path d="M29.8073 22.0156H21.1562C20.6812 22.0156 20.2969 22.4 20.2969 22.875V30.6667H29.8073C30.2823 30.6667 30.6667 30.2823 30.6667 29.8073V22.875C30.6667 22.4 30.2823 22.0156 29.8073 22.0156Z" fill="#F3962F"/>
<path d="M10.8437 20.2969H2.19263C1.71762 20.2969 1.33325 20.6812 1.33325 21.1562V29.8073C1.33325 30.2823 1.71762 30.6667 2.19263 30.6667H11.703V21.1562C11.703 20.6812 11.3187 20.2969 10.8437 20.2969Z" fill="#F3962F"/>
<path d="M22.0156 16V30.6667H9.98438V16C9.98438 15.5187 10.3624 15.1406 10.8438 15.1406H21.1562C21.6376 15.1406 22.0156 15.5187 22.0156 16Z" fill="#1B4CA1"/>
<path d="M22.0156 16V30.6667H16V15.1406H21.1562C21.6376 15.1406 22.0156 15.5187 22.0156 16Z" fill="#7FAEFF"/>
<path d="M21.5172 5.54996L18.2515 5.03434L16.8249 1.83277C16.6875 1.54052 16.3437 1.31708 15.9999 1.33427C15.725 1.33427 15.4671 1.47183 15.2781 1.81558L13.7828 4.96559L10.5171 5.39528C9.8125 5.49846 9.50301 6.35783 10.0188 6.85627L12.3563 9.19377L11.7547 12.4422C11.6172 13.1468 12.3563 13.6968 12.9922 13.3703L15.9313 11.875L15.9999 11.9094L18.8359 13.4391C19.4547 13.7828 20.2109 13.2672 20.0906 12.5625L19.5749 9.29684L21.964 7.01084C22.4969 6.52971 22.2218 5.65309 21.5172 5.54996Z" fill="#1B4CA1"/>
<path d="M21.964 7.0109L19.575 9.2969L20.0906 12.5626C20.2109 13.2672 19.4547 13.7828 18.836 13.4391L16 11.9094V1.33427C16.3438 1.31708 16.6876 1.54052 16.8249 1.83277L18.2516 5.0344L21.5172 5.55002C22.2219 5.65309 22.4969 6.52971 21.964 7.0109Z" fill="#7FAEFF"/>
</svg>
