<?xml version="1.0" encoding="UTF-8"?>
<svg width="24px" height="24px" viewBox="0 0 24 24" version="1.1" xmlns="http://www.w3.org/2000/svg" xmlns:xlink="http://www.w3.org/1999/xlink">
    <title>Hub icon</title>
    <g id="UI-Elements-for-Dev" stroke="none" stroke-width="1" fill="none" fill-rule="evenodd">
        <g id="UI-Elements" transform="translate(-945, -538)" fill="#1B4CA1">
            <g id="Hub-icon" transform="translate(948, 541.185)">
                <path d="M6.7,0.165 C7.21,-0.055 7.79,-0.055 8.3,0.165 L13.8,2.565 C14.53,2.875 15,3.595 15,4.395 L15.0010101,6.88603341 C14.6740854,6.83922183 14.3398714,6.815 14,6.815 C10.1340068,6.815 7,9.94900675 7,13.815 C7,15.2253335 7.41708196,16.5382523 8.13462969,17.6371403 L7.82768,17.72996 L7.5,17.815 C3.2,16.785 0,12.535 0,7.995 L0,4.395 C0,3.605 0.47,2.885 1.2,2.565 Z" id="Combined-Shape"></path>
                <path d="M17.75,13.815 C17.75,13.595 17.72,13.395 17.69,13.185 L18.83,12.175 L17.83,10.445 L16.38,10.935 C16.06,10.665 15.7,10.455 15.3,10.305 L15,8.815 L13,8.815 L12.7,10.305 C12.3,10.455 11.94,10.665 11.62,10.935 L10.17,10.445 L9.17,12.175 L10.31,13.185 C10.28,13.395 10.25,13.595 10.25,13.815 C10.25,14.035 10.28,14.235 10.31,14.445 L9.17,15.455 L10.17,17.185 L11.62,16.695 C11.94,16.965 12.3,17.175 12.7,17.325 L13,18.815 L15,18.815 L15.3,17.325 C15.7,17.175 16.06,16.965 16.38,16.695 L17.83,17.185 L18.83,15.455 L17.69,14.445 C17.72,14.235 17.75,14.035 17.75,13.815 Z M14,15.815 C12.9,15.815 12,14.915 12,13.815 C12,12.715 12.9,11.815 14,11.815 C15.1,11.815 16,12.715 16,13.815 C16,14.915 15.1,15.815 14,15.815 Z" id="Shape" opacity="0.5"></path>
            </g>
        </g>
    </g>
</svg>