<svg width="384" height="90" viewBox="0 0 384 90" fill="none" xmlns="http://www.w3.org/2000/svg">
<mask id="mask0_501_512" style="mask-type:luminance" maskUnits="userSpaceOnUse" x="0" y="0" width="384" height="68">
<path d="M384 0H0.000140429L6.10352e-05 3.2009V68H12.0001H372H384V3.35172V0Z" fill="white"/>
</mask>
<g mask="url(#mask0_501_512)">
<path d="M192 67C364.865 67 505 -18.2898 505 -123.5C505 -228.71 364.865 -314 192 -314C19.1349 -314 -121 -228.71 -121 -123.5C-121 -18.2898 19.1349 67 192 67Z" fill="#7FAEFF"/>
</g>
<mask id="mask1_501_512" style="mask-type:luminance" maskUnits="userSpaceOnUse" x="0" y="0" width="385" height="67">
<path d="M384 0H0.000155793C-3.31798e-06 0.5 0.000452266 3.34228 0.000452266 3.34228V64.1577C1 64.1577 384 69.0814 384 64.1577V3.34228C384 1.49639 384 1 384 0Z" fill="white"/>
</mask>
<g mask="url(#mask1_501_512)">
<path d="M192 61C364.866 61 505 -19.141 505 -118C505 -216.859 364.866 -297 192 -297C19.1353 -297 -121 -216.859 -121 -118C-121 -19.141 19.1353 61 192 61Z" fill="#1B4CA1"/>
</g>
<mask id="mask2_501_512" style="mask-type:alpha" maskUnits="userSpaceOnUse" x="0" y="1" width="385" height="89">
<path d="M135 23H0.000427246V74H135V23Z" fill="url(#paint0_linear_501_512)"/>
<path d="M384 23H249V74H384V23Z" fill="url(#paint1_linear_501_512)"/>
<path d="M249 1H135V90H249V1Z" fill="url(#paint2_linear_501_512)"/>
</mask>
<g mask="url(#mask2_501_512)">
<path fill-rule="evenodd" clip-rule="evenodd" d="M384 23.3772C330.988 46.9573 264.362 61 192 61C119.639 61 53.0132 46.9573 0.000427246 23.3772L0.000427246 -203C0.000427246 -209.627 5.37301 -215 12.0004 -215H372C378.628 -215 384 -209.627 384 -203V23.3772Z" fill="#F3962F"/>
</g>
<path d="M207.25 28C207.25 36.4223 200.422 43.25 192 43.25C183.578 43.25 176.75 36.4223 176.75 28C176.75 19.5777 183.578 12.75 192 12.75C200.422 12.75 207.25 19.5777 207.25 28Z" fill="#F3962F" stroke="#F5F5F5" stroke-width="1.5"/>
<path d="M191.496 34V23.6L192.408 24.544H189.128V22.8H193.576V34H191.496Z" fill="white" fill-opacity="0.95"/>
<path d="M85.25 51C85.25 59.4223 78.4223 66.25 70 66.25C61.5777 66.25 54.75 59.4223 54.75 51C54.75 42.5777 61.5777 35.75 70 35.75C78.4223 35.75 85.25 42.5777 85.25 51Z" fill="#F3962F" stroke="#F5F5F5" stroke-width="1.5"/>
<path d="M65.844 57V55.608L70.292 51.384C70.6653 51.032 70.9427 50.7227 71.124 50.456C71.3053 50.1893 71.4227 49.944 71.476 49.72C71.54 49.4853 71.572 49.2667 71.572 49.064C71.572 48.552 71.396 48.1573 71.044 47.88C70.692 47.592 70.1747 47.448 69.492 47.448C68.948 47.448 68.452 47.544 68.004 47.736C67.5667 47.928 67.188 48.2213 66.868 48.616L65.412 47.496C65.8493 46.9093 66.436 46.456 67.172 46.136C67.9187 45.8053 68.7507 45.64 69.668 45.64C70.4787 45.64 71.1827 45.7733 71.78 46.04C72.388 46.296 72.852 46.664 73.172 47.144C73.5027 47.624 73.668 48.1947 73.668 48.856C73.668 49.2187 73.62 49.5813 73.524 49.944C73.428 50.296 73.2467 50.6693 72.98 51.064C72.7133 51.4587 72.324 51.9013 71.812 52.392L67.988 56.024L67.556 55.24H74.1V57H65.844Z" fill="white" fill-opacity="0.95"/>
<path d="M330.25 51C330.25 59.4223 323.422 66.25 315 66.25C306.578 66.25 299.75 59.4223 299.75 51C299.75 42.5777 306.578 35.75 315 35.75C323.422 35.75 330.25 42.5777 330.25 51Z" fill="#F3962F" stroke="#F5F5F5" stroke-width="1.5"/>
<path d="M314.508 57.16C313.719 57.16 312.945 57.048 312.188 56.824C311.441 56.5893 310.812 56.2693 310.3 55.864L311.196 54.248C311.601 54.5787 312.092 54.8453 312.668 55.048C313.244 55.2507 313.847 55.352 314.476 55.352C315.223 55.352 315.804 55.2027 316.22 54.904C316.636 54.5947 316.844 54.1787 316.844 53.656C316.844 53.144 316.652 52.7387 316.268 52.44C315.884 52.1413 315.265 51.992 314.412 51.992H313.388V50.568L316.588 46.76L316.86 47.544H310.844V45.8H318.476V47.192L315.276 51L314.188 50.36H314.812C316.188 50.36 317.217 50.6693 317.9 51.288C318.593 51.896 318.94 52.68 318.94 53.64C318.94 54.2693 318.78 54.8507 318.46 55.384C318.14 55.9173 317.649 56.3493 316.988 56.68C316.337 57 315.511 57.16 314.508 57.16Z" fill="white" fill-opacity="0.95"/>
<path d="M0 23C0 23 45.0797 23 135.239 23C135.239 7.93327 135.239 1 135.239 1C135.239 1 173.259 1 249.299 1C249.299 16.0667 249.299 23 249.299 23C249.299 23 294.2 23 384 23" stroke="#EF951E" stroke-width="2"/>
<defs>
<linearGradient id="paint0_linear_501_512" x1="68.0004" y1="33" x2="68.0004" y2="79.5" gradientUnits="userSpaceOnUse">
<stop stop-color="#F3962F" stop-opacity="0.57"/>
<stop offset="1" stop-color="#F3962F" stop-opacity="0"/>
</linearGradient>
<linearGradient id="paint1_linear_501_512" x1="316.5" y1="27.5" x2="316.5" y2="90.5" gradientUnits="userSpaceOnUse">
<stop stop-color="#F3962F" stop-opacity="0.57"/>
<stop offset="1" stop-color="#F3962F" stop-opacity="0"/>
</linearGradient>
<linearGradient id="paint2_linear_501_512" x1="192" y1="12" x2="192" y2="99" gradientUnits="userSpaceOnUse">
<stop stop-color="#F3962F" stop-opacity="0.57"/>
<stop offset="1" stop-color="#F3962F" stop-opacity="0"/>
</linearGradient>
</defs>
</svg>
