<?xml version="1.0" encoding="utf-8"?>
<!-- Generator: Adobe Illustrator 28.0.0, SVG Export Plug-In . SVG Version: 6.00 Build 0)  -->
<svg version="1.1" id="Layer_1" xmlns="http://www.w3.org/2000/svg" xmlns:xlink="http://www.w3.org/1999/xlink" x="0px" y="0px"
	 viewBox="0 0 24 24" style="enable-background:new 0 0 24 24;" xml:space="preserve">
<style type="text/css">
	.st0{fill:#FFFFFF;}
	.st1{fill:#FFFFFF;fill-opacity:0.6;}
</style>
<g id="Icons_x2F_content_x2F_recording">
	<polygon id="Path" class="st0" points="0,0 24,0 24,24 0,24 	"/>
	<g id="emergency_recording_black_24dp">
		<rect id="Rectangle" class="st0" width="24" height="24"/>
		<path id="Shape" class="st1" d="M18,10.5V6c0-1.1-0.9-2-2-2H4C2.9,4,2,4.9,2,6v12c0,1.1,0.9,2,2,2h12c1.1,0,2-0.9,2-2v-4.5l4,4
			v-11L18,10.5z M16,18H4V6h12V18z M12,12l3,1.7l-1,1.7l-3-1.7V17H9v-3.3l-3,1.7l-1-1.7L8,12l-3-1.7l1-1.7l3,1.7V7h2v3.3l3-1.7
			l1,1.7L12,12z"/>
	</g>
</g>
</svg>
