<?xml version="1.0" encoding="UTF-8"?>
<svg width="24px" height="24px" viewBox="0 0 24 24" version="1.1" xmlns="http://www.w3.org/2000/svg" xmlns:xlink="http://www.w3.org/1999/xlink">
    <title>Group 7</title>
    <g id="UI-Elements-for-Dev" stroke="none" stroke-width="1" fill="none" fill-rule="evenodd">
        <g id="UI-Elements" transform="translate(-1000, -538)">
            <g id="Group-8" transform="translate(1000, 538)">
                <polygon id="Fill-1" fill-opacity="0" fill="#FFFFFF" points="0 24 24 24 24 0 0 0"></polygon>
                <g id="Group-3" transform="translate(3, 3.185)" fill="#1B4CA1">
                    <path d="M14,7.815 C14.34,7.815 14.67,7.855 15,7.905 L15,4.395 C15,3.595 14.53,2.875 13.8,2.565 L8.3,0.165 C7.79,-0.055 7.21,-0.055 6.7,0.165 L1.2,2.565 C0.47,2.885 0,3.605 0,4.395 L0,7.995 C0,12.535 3.2,16.785 7.5,17.815 C8.05,17.685 8.58,17.495 9.1,17.265 C8.41,16.285 8,15.095 8,13.815 C8,10.505 10.69,7.815 14,7.815" id="Fill-3"></path>
                    <path d="M15.5,13.315 C15.777,13.315 16,13.543 16,13.815 C16,14.087 15.772,14.315 15.5,14.315 C15.228,14.315 15,14.087 15,13.815 C15,13.543 15.223,13.315 15.5,13.315 M14,13.315 C14.277,13.315 14.5,13.543 14.5,13.815 C14.5,14.087 14.272,14.315 14,14.315 C13.728,14.315 13.5,14.087 13.5,13.815 C13.5,13.543 13.723,13.315 14,13.315 M12.5,13.315 C12.777,13.315 13,13.543 13,13.815 C13,14.087 12.772,14.315 12.5,14.315 C12.228,14.315 12,14.087 12,13.815 C12,13.543 12.223,13.315 12.5,13.315 M14,9.815 C11.79,9.815 10,11.605 10,13.815 C10,16.025 11.79,17.815 14,17.815 C16.21,17.815 18,16.025 18,13.815 C18,11.605 16.21,9.815 14,9.815" id="Fill-5" opacity="0.5"></path>
                </g>
            </g>
        </g>
    </g>
</svg>