
<svg width="40" height="40" viewBox="0 0 40 40" fill="none" xmlns="http://www.w3.org/2000/svg">
<path d="M8.33301 3.33398V36.6673H28.1663L36.6663 28.334V3.33398H8.33301Z" fill="#EFEEEE"/>
<path d="M26.667 10V11.6667H21.667V10H26.667Z" fill="#B8B8B8"/>
<path d="M33.333 10V11.6667H28.333V10H33.333Z" fill="#B8B8B8"/>
<path d="M26.667 13.334V15.0007H21.667V13.334H26.667Z" fill="#B8B8B8"/>
<path d="M33.333 13.334V15.0007H28.333V13.334H33.333Z" fill="#B8B8B8"/>
<path d="M26.667 16.666V18.3327H21.667V16.666H26.667Z" fill="#B8B8B8"/>
<path d="M26.667 20V21.6667H21.667V20H26.667Z" fill="#B8B8B8"/>
<path d="M33.333 16.666V18.3327H28.333V16.666H33.333Z" fill="#B8B8B8"/>
<path d="M33.333 20V21.6667H28.333V20H33.333Z" fill="#B8B8B8"/>
<path d="M28.333 28.334V36.6673L36.6663 28.334H28.333Z" fill="#ABABAB"/>
<path d="M20 36.6673H28.3333V28.334L20 36.6673Z" fill="#DEDEDD"/>
<path d="M16.4167 12H4.75C2.67893 12 1 13.6789 1 15.75V19.9167C1 21.9877 2.67893 23.6667 4.75 23.6667H16.4167C18.4877 23.6667 20.1667 21.9877 20.1667 19.9167V15.75C20.1667 13.6789 18.4877 12 16.4167 12Z" fill="#61B565"/>
<path d="M8.8196 17.1094H8.19744C8.18608 17.0289 8.16288 16.9574 8.12784 16.8949C8.0928 16.8314 8.04782 16.7775 7.9929 16.733C7.93797 16.6884 7.87453 16.6544 7.80256 16.6307C7.73153 16.607 7.65436 16.5952 7.57102 16.5952C7.42045 16.5952 7.2893 16.6326 7.17756 16.7074C7.06581 16.7812 6.97917 16.8892 6.91761 17.0312C6.85606 17.1723 6.82528 17.3437 6.82528 17.5455C6.82528 17.7528 6.85606 17.9271 6.91761 18.0682C6.98011 18.2093 7.06723 18.3158 7.17898 18.3878C7.29072 18.4598 7.41998 18.4957 7.56676 18.4957C7.64915 18.4957 7.72538 18.4848 7.79545 18.4631C7.86648 18.4413 7.92945 18.4096 7.98438 18.3679C8.0393 18.3253 8.08475 18.2737 8.12074 18.2131C8.15767 18.1525 8.18324 18.0833 8.19744 18.0057L8.8196 18.0085C8.8035 18.142 8.76326 18.2708 8.69886 18.3949C8.63542 18.518 8.54972 18.6283 8.44176 18.7259C8.33475 18.8224 8.20691 18.8991 8.05824 18.956C7.91051 19.0118 7.74337 19.0398 7.55682 19.0398C7.29735 19.0398 7.06534 18.9811 6.8608 18.8636C6.6572 18.7462 6.49621 18.5762 6.37784 18.3537C6.26042 18.1312 6.2017 17.8617 6.2017 17.5455C6.2017 17.2282 6.26136 16.9583 6.38068 16.7358C6.5 16.5133 6.66193 16.3437 6.86648 16.2273C7.07102 16.1098 7.30114 16.0511 7.55682 16.0511C7.72538 16.0511 7.88163 16.0748 8.02557 16.1222C8.17045 16.1695 8.29877 16.2386 8.41051 16.3295C8.52225 16.4195 8.61316 16.5298 8.68324 16.6605C8.75426 16.7912 8.79972 16.9408 8.8196 17.1094ZM10.8388 16.9276C10.8274 16.813 10.7786 16.724 10.6925 16.6605C10.6063 16.5971 10.4893 16.5653 10.3416 16.5653C10.2412 16.5653 10.1565 16.5795 10.0874 16.608C10.0182 16.6354 9.9652 16.6738 9.92827 16.723C9.89228 16.7723 9.87429 16.8281 9.87429 16.8906C9.8724 16.9427 9.88329 16.9882 9.90696 17.027C9.93158 17.0658 9.9652 17.0994 10.0078 17.1278C10.0504 17.1553 10.0997 17.1795 10.1555 17.2003C10.2114 17.2202 10.2711 17.2372 10.3345 17.2514L10.5959 17.3139C10.7228 17.3423 10.8393 17.3802 10.9453 17.4276C11.0514 17.4749 11.1432 17.5331 11.2209 17.6023C11.2985 17.6714 11.3587 17.7528 11.4013 17.8466C11.4448 17.9403 11.4671 18.0478 11.468 18.169C11.4671 18.3471 11.4216 18.5014 11.3317 18.6321C11.2427 18.7618 11.1139 18.8627 10.9453 18.9347C10.7777 19.0057 10.5755 19.0412 10.3388 19.0412C10.1039 19.0412 9.89938 19.0052 9.72514 18.9332C9.55185 18.8613 9.41643 18.7547 9.31889 18.6136C9.2223 18.4716 9.17164 18.2959 9.1669 18.0866H9.76207C9.7687 18.1842 9.79664 18.2656 9.84588 18.331C9.89607 18.3954 9.96283 18.4441 10.0462 18.4773C10.1304 18.5095 10.2256 18.5256 10.3317 18.5256C10.4358 18.5256 10.5263 18.5104 10.603 18.4801C10.6806 18.4498 10.7408 18.4077 10.7834 18.3537C10.826 18.2997 10.8473 18.2377 10.8473 18.1676C10.8473 18.1023 10.8279 18.0473 10.7891 18.0028C10.7512 17.9583 10.6953 17.9205 10.6214 17.8892C10.5485 17.858 10.459 17.8295 10.353 17.804L10.0362 17.7244C9.79096 17.6648 9.5973 17.5715 9.45526 17.4446C9.31321 17.3177 9.24266 17.1468 9.24361 16.9318C9.24266 16.7557 9.28954 16.6018 9.38423 16.4702C9.47988 16.3385 9.61103 16.2358 9.7777 16.1619C9.94437 16.0881 10.1338 16.0511 10.3459 16.0511C10.5618 16.0511 10.7502 16.0881 10.9112 16.1619C11.0732 16.2358 11.1991 16.3385 11.2891 16.4702C11.379 16.6018 11.4254 16.7543 11.4283 16.9276H10.8388ZM12.4073 16.0909L13.1104 18.3011H13.1374L13.842 16.0909H14.5238L13.521 19H12.7283L11.7241 16.0909H12.4073Z" fill="white"/>
</svg>
