<svg width="14" height="14" viewBox="0 0 14 14" fill="none" xmlns="http://www.w3.org/2000/svg">
<g id="icon-wrapper" clip-path="url(#clip0_1334_12789)">
<g id="Union">
<path d="M6.99976 13.1243C5.3753 13.1243 3.81739 12.479 2.66873 11.3303C1.52007 10.1816 0.874756 8.62372 0.874756 6.99927C0.874756 5.37482 1.52007 3.8169 2.66873 2.66824C3.81739 1.51958 5.3753 0.874268 6.99976 0.874268C8.62421 0.874268 10.1821 1.51958 11.3308 2.66824C12.4794 3.8169 13.1248 5.37482 13.1248 6.99927C13.1248 8.62372 12.4794 10.1816 11.3308 11.3303C10.1821 12.479 8.62421 13.1243 6.99976 13.1243ZM6.99976 13.9993C8.85627 13.9993 10.6367 13.2618 11.9495 11.949C13.2623 10.6363 13.9998 8.85578 13.9998 6.99927C13.9998 5.14275 13.2623 3.36227 11.9495 2.04952C10.6367 0.736766 8.85627 -0.000732422 6.99976 -0.000732422C5.14324 -0.000732422 3.36276 0.736766 2.05001 2.04952C0.737254 3.36227 -0.000244141 5.14275 -0.000244141 6.99927C-0.000244141 8.85578 0.737254 10.6363 2.05001 11.949C3.36276 13.2618 5.14324 13.9993 6.99976 13.9993Z" fill="#6C757D"/>
<path d="M7.81351 5.76377L5.80976 6.01489L5.73801 6.34739L6.13176 6.42002C6.38901 6.48127 6.43976 6.57402 6.38376 6.83039L5.73801 9.86489C5.56826 10.6498 5.82988 11.019 6.44501 11.019C6.92188 11.019 7.47576 10.7985 7.72688 10.4958L7.80388 10.1318C7.62888 10.2858 7.37338 10.347 7.20363 10.347C6.96301 10.347 6.87551 10.1781 6.93763 9.88064L7.81351 5.76377ZM7.87476 3.93677C7.87476 4.16883 7.78257 4.39139 7.61847 4.55549C7.45438 4.71958 7.23182 4.81177 6.99976 4.81177C6.76769 4.81177 6.54513 4.71958 6.38104 4.55549C6.21694 4.39139 6.12476 4.16883 6.12476 3.93677C6.12476 3.7047 6.21694 3.48214 6.38104 3.31805C6.54513 3.15395 6.76769 3.06177 6.99976 3.06177C7.23182 3.06177 7.45438 3.15395 7.61847 3.31805C7.78257 3.48214 7.87476 3.7047 7.87476 3.93677Z" fill="#6C757D"/>
</g>
</g>
<defs>
<clipPath id="clip0_1334_12789">
<rect width="14" height="14" fill="white"/>
</clipPath>
</defs>
</svg>
