<?xml version="1.0" encoding="UTF-8"?>
<svg width="24px" height="16.0528302px" viewBox="0 0 24 16.0528302" version="1.1" xmlns="http://www.w3.org/2000/svg" xmlns:xlink="http://www.w3.org/1999/xlink">
    <title>Group 12 Copy</title>
    <g id="Creation-V4" stroke="none" stroke-width="1" fill="none" fill-rule="evenodd" fill-opacity="0.6">
        <g id="Blended-program----Day-1--session--added-" transform="translate(-69, -457)" fill="#000000" fill-rule="nonzero">
            <g id="Group-12-Copy" transform="translate(69, 457)">
                <path d="M22.6415094,16.0528302 L22.6415094,1.35849057 L5.43396226,1.35849057 L5.43396226,5.20754717 C5.13207547,5.20754717 4.90566038,5.20754717 4.75471698,5.20754717 C4.60377358,5.20754717 4.37735849,5.20754717 4.0754717,5.20754717 L4.0754717,1.35849057 C4.0754717,0.981132075 4.20849057,0.660377358 4.4745283,0.396226415 C4.74056604,0.132075472 5.06037736,0 5.43396226,0 L22.6415094,0 C23.0150943,0 23.3349057,0.133018868 23.6009434,0.399056604 C23.8669811,0.66509434 24,0.98490566 24,1.35849057 L24,14.490566 C24,14.8830189 23.8716981,15.2264151 23.6150943,15.5207547 C23.3584906,15.8150943 23.0339623,15.9924528 22.6415094,16.0528302 Z" id="Path"></path>
                <g id="groups_FILL1_wght400_GRAD0_opsz48" transform="translate(0, 4.9811)">
                    <path d="M0,10.8679245 L0,9.66792453 C0,9.08578113 0.313207547,8.61193962 0.939622642,8.2464 C1.56603774,7.88087547 2.3877434,7.69811321 3.40473962,7.69811321 C3.58836226,7.69811321 3.7649283,7.70188679 3.93443774,7.70943396 C4.10393208,7.71698113 4.27169811,7.73322264 4.43773585,7.75815849 C4.31698113,8.02001509 4.22641509,8.28541132 4.16603774,8.55434717 C4.10566038,8.82328302 4.0754717,9.10390943 4.0754717,9.39622642 L4.0754717,10.8679245 L0,10.8679245 Z M5.43396226,10.8679245 L5.43396226,9.39622642 C5.43396226,8.91320755 5.56603774,8.47169811 5.83018868,8.07169811 C6.09433962,7.67169811 6.46792453,7.32075472 6.9509434,7.01886792 C7.43396226,6.71698113 8.01132075,6.49056604 8.68301887,6.33962264 C9.35471698,6.18867925 10.0830189,6.11320755 10.8679245,6.11320755 C11.6679245,6.11320755 12.4037736,6.18867925 13.0754717,6.33962264 C13.7471698,6.49056604 14.3245283,6.71698113 14.8075472,7.01886792 C15.290566,7.32075472 15.6603774,7.67169811 15.9169811,8.07169811 C16.1735849,8.47169811 16.3018868,8.91320755 16.3018868,9.39622642 L16.3018868,10.8679245 L5.43396226,10.8679245 Z M17.6603774,10.8679245 L17.6603774,9.39622642 C17.6603774,9.09643774 17.6339623,8.81393962 17.5811321,8.54873208 C17.5283019,8.28353962 17.4415094,8.02058113 17.3207547,7.7598566 C17.4867925,7.73378868 17.6541208,7.71698113 17.8227396,7.70943396 C17.9913736,7.70188679 18.1636679,7.69811321 18.3396226,7.69811321 C19.3584906,7.69811321 20.1792453,7.87749434 20.8018868,8.2362566 C21.4245283,8.59501887 21.7358491,9.07224151 21.7358491,9.66792453 L21.7358491,10.8679245 L17.6603774,10.8679245 Z M3.38642264,7.01886792 C2.95522264,7.01886792 2.58490566,6.86368302 2.2754717,6.55331321 C1.96603774,6.2429283 1.81132075,5.86981132 1.81132075,5.43396226 C1.81132075,4.99622642 1.96650566,4.62264151 2.27687547,4.31320755 C2.58726038,4.00377358 2.96037736,3.8490566 3.39622642,3.8490566 C3.83396226,3.8490566 4.20754717,4.00377358 4.51698113,4.31320755 C4.82641509,4.62264151 4.98113208,4.99949434 4.98113208,5.44376604 C4.98113208,5.87496604 4.82641509,6.24528302 4.51698113,6.55471698 C4.20754717,6.86415094 3.83069434,7.01886792 3.38642264,7.01886792 Z M18.3298189,7.01886792 C17.8986189,7.01886792 17.5283019,6.86368302 17.2188679,6.55331321 C16.909434,6.2429283 16.754717,5.86981132 16.754717,5.43396226 C16.754717,4.99622642 16.9099019,4.62264151 17.2202717,4.31320755 C17.5306566,4.00377358 17.9037736,3.8490566 18.3396226,3.8490566 C18.7773585,3.8490566 19.1509434,4.00377358 19.4603774,4.31320755 C19.7698113,4.62264151 19.9245283,4.99949434 19.9245283,5.44376604 C19.9245283,5.87496604 19.7698113,6.24528302 19.4603774,6.55471698 C19.1509434,6.86415094 18.7740906,7.01886792 18.3298189,7.01886792 Z M10.8679245,5.43396226 C10.1132075,5.43396226 9.47169811,5.16981132 8.94339623,4.64150943 C8.41509434,4.11320755 8.1509434,3.47169811 8.1509434,2.71698113 C8.1509434,1.94716981 8.41509434,1.30188679 8.94339623,0.781132075 C9.47169811,0.260377358 10.1132075,0 10.8679245,0 C11.6377358,0 12.2830189,0.260377358 12.8037736,0.781132075 C13.3245283,1.30188679 13.5849057,1.94716981 13.5849057,2.71698113 C13.5849057,3.47169811 13.3245283,4.11320755 12.8037736,4.64150943 C12.2830189,5.16981132 11.6377358,5.43396226 10.8679245,5.43396226 Z" id="Shape"></path>
                </g>
            </g>
        </g>
    </g>
</svg>