<svg width="24" height="24" viewBox="0 0 24 24" fill="none" xmlns="http://www.w3.org/2000/svg">
<path d="M23.253 2.9101C23.3931 3.05069 23.4718 3.2411 23.4718 3.4396C23.4718 3.63811 23.3931 3.82852 23.253 3.9691L21.6885 5.5351L18.6885 2.5351L20.253 0.969102C20.3936 0.828498 20.5844 0.749512 20.7832 0.749512C20.9821 0.749512 21.1729 0.828498 21.3135 0.969102L23.253 2.9086V2.9101ZM20.628 6.5941L17.628 3.5941L7.4085 13.8151C7.32594 13.8976 7.26379 13.9983 7.227 14.1091L6.0195 17.7301C5.9976 17.7961 5.99449 17.8669 6.01052 17.9346C6.02655 18.0023 6.06108 18.0642 6.11026 18.1133C6.15944 18.1625 6.22133 18.1971 6.28901 18.2131C6.35668 18.2291 6.42749 18.226 6.4935 18.2041L10.1145 16.9966C10.2251 16.9602 10.3258 16.8986 10.4085 16.8166L20.628 6.5941Z" fill="white"/>
<path fill-rule="evenodd" clip-rule="evenodd" d="M1.5 20.2501C1.5 20.8468 1.73705 21.4191 2.15901 21.8411C2.58097 22.263 3.15326 22.5001 3.75 22.5001H20.25C20.8467 22.5001 21.419 22.263 21.841 21.8411C22.2629 21.4191 22.5 20.8468 22.5 20.2501V11.2501C22.5 11.0512 22.421 10.8604 22.2803 10.7198C22.1397 10.5791 21.9489 10.5001 21.75 10.5001C21.5511 10.5001 21.3603 10.5791 21.2197 10.7198C21.079 10.8604 21 11.0512 21 11.2501V20.2501C21 20.449 20.921 20.6398 20.7803 20.7804C20.6397 20.9211 20.4489 21.0001 20.25 21.0001H3.75C3.55109 21.0001 3.36032 20.9211 3.21967 20.7804C3.07902 20.6398 3 20.449 3 20.2501V3.7501C3 3.55119 3.07902 3.36042 3.21967 3.21977C3.36032 3.07912 3.55109 3.0001 3.75 3.0001H13.5C13.6989 3.0001 13.8897 2.92108 14.0303 2.78043C14.171 2.63978 14.25 2.44901 14.25 2.2501C14.25 2.05119 14.171 1.86042 14.0303 1.71977C13.8897 1.57912 13.6989 1.5001 13.5 1.5001H3.75C3.15326 1.5001 2.58097 1.73715 2.15901 2.15911C1.73705 2.58107 1.5 3.15336 1.5 3.7501V20.2501Z" fill="white"/>
</svg>
