<svg width="56" height="56" viewBox="0 0 56 56" fill="none" xmlns="http://www.w3.org/2000/svg">
<g id="Icons/action/radio_on-Copy">
<path id="Shape" fill-rule="evenodd" clip-rule="evenodd" d="M25.666 16.3334H30.3327V21H25.666V16.3334ZM25.666 25.6667H30.3327V39.6667H25.666V25.6667ZM27.9993 4.66669C15.1193 4.66669 4.66602 15.12 4.66602 28C4.66602 40.88 15.1193 51.3334 27.9993 51.3334C40.8793 51.3334 51.3327 40.88 51.3327 28C51.3327 15.12 40.8793 4.66669 27.9993 4.66669ZM27.9993 46.6667C17.7093 46.6667 9.33268 38.29 9.33268 28C9.33268 17.71 17.7093 9.33335 27.9993 9.33335C38.2893 9.33335 46.666 17.71 46.666 28C46.666 38.29 38.2893 46.6667 27.9993 46.6667Z" fill="#EF951E"/>
</g>
</svg>
