<?xml version="1.0" encoding="UTF-8"?>
<svg width="83px" height="64px" viewBox="0 0 83 64" version="1.1" xmlns="http://www.w3.org/2000/svg" xmlns:xlink="http://www.w3.org/1999/xlink">
    <title>behavioural-dark</title>
    <g id="CBP-Consumption(Latest-Version)" stroke="none" stroke-width="1" fill="none" fill-rule="evenodd">
        <g id="Competency-passbook-Website-Copy-2" transform="translate(-389, -328)">
            <g id="Passbook" transform="translate(120, 136)">
                <g id="behavioural-dark" transform="translate(310.5, 224) rotate(-15) translate(-310.5, -224)translate(274, 200.9955)">
                    <path d="M56.942572,30.9634633 C56.6164556,31.6771798 56.5442154,32.5097094 56.8007017,33.3164188 C56.8570454,33.4936331 56.9283773,33.6657276 57.0139243,33.8308374 C57.5594238,34.8836774 57.148143,36.1793875 56.095303,36.724887 C55.7361954,36.9109485 55.3318365,36.9917943 54.9287946,36.9581138 L54.9013091,36.955817 C53.0948728,36.8048607 51.5080926,38.1468924 51.3571363,39.9533287 C51.3418745,40.1359615 51.3419358,40.3195517 51.3573196,40.5021743 C51.4570784,41.6864176 50.5779299,42.727307 49.3936866,42.8270657 C48.9916539,42.8609323 48.5881981,42.7810922 48.2293652,42.5966575 L48.2088295,42.5861024 C46.5914581,41.7547978 44.6064139,42.3920309 43.7751093,44.0094023 C43.6924687,44.1701864 43.6232097,44.3375032 43.5680345,44.5096563 C43.2044001,45.6442398 41.9898546,46.2692174 40.8552712,45.905583 C40.4713841,45.782547 40.129651,45.5544093 39.8688232,45.2470399 C38.686022,43.8531817 36.6030103,43.68256 35.2130114,44.8620863 C35.0758045,44.9785175 34.9483483,45.1059736 34.8319171,45.2431806 C34.0577621,46.1554745 32.6964086,46.2669844 31.787974,45.4961043 C31.4806046,45.2352765 31.2524668,44.8935434 31.1294309,44.5096563 C30.574409,42.7779207 28.7206257,41.8240058 26.98889,42.3790277 C26.8167369,42.4342028 26.64942,42.5034618 26.4886359,42.5861024 L26.4681002,42.5966575 C25.4111079,43.1399357 24.1138323,42.7234881 23.5705541,41.6664957 C23.3861193,41.3076628 23.3062792,40.904207 23.3401458,40.5021743 C23.4923086,38.6958392 22.151337,37.108163 20.3450019,36.9560003 C20.1623793,36.9406164 19.9787891,36.9405551 19.7961563,36.955817 L19.7686708,36.9581138 C18.5870232,37.0568592 17.5490596,36.1789934 17.4503143,34.9973458 C17.4166338,34.5943039 17.4974796,34.1899449 17.6835411,33.8308374 C18.1651668,32.9012767 18.1579334,31.8476235 17.7550465,30.9635159 L29.6048632,30.9639069 C31.575449,32.9059256 34.3139421,34.1096348 37.3416229,34.1096348 C40.3693037,34.1096348 43.1077968,32.9059256 45.0783826,30.9639069 L56.942572,30.9634633 Z M33.8421943,0.103513515 C34.2260813,0.226549462 34.5678144,0.45468717 34.8286422,0.762056611 C36.0114434,2.15591476 38.0944551,2.32653649 39.484454,1.1470102 C39.621661,1.03057901 39.7491171,0.903122852 39.8655483,0.765915898 C40.6397033,-0.146377966 42.0010568,-0.257887897 42.9094914,0.512992209 C43.2168609,0.773820003 43.4449986,1.1155531 43.5680345,1.49944015 C44.1230565,3.2311758 45.9768398,4.18509073 47.7085754,3.63006879 C47.8807285,3.57489365 48.0480454,3.50563466 48.2088295,3.42299404 L48.2293652,3.412439 C49.2863575,2.8691608 50.5836331,3.2856084 51.1269113,4.34260076 C51.3113461,4.70143366 51.3911862,5.10488948 51.3573196,5.50692217 C51.2051568,7.31325725 52.5461284,8.90093346 54.3524635,9.05309622 C54.5350861,9.06848006 54.7186763,9.06854137 54.9013091,9.05327951 L54.9287946,9.05098267 C56.1104422,8.95223734 57.1484058,9.83010311 57.2471511,11.0117507 C57.2808317,11.4147926 57.1999858,11.8191516 57.0139243,12.1782591 C56.3138022,13.5295282 56.6467079,15.1430221 57.7263322,16.1167447 L45.0683219,16.1157227 C43.0984814,14.1795151 40.3641546,12.9798966 37.3416229,12.9798966 C34.3190912,12.9798966 31.5847644,14.1795151 29.6149239,16.1157227 L16.9714769,16.1164337 C17.8941432,15.2818938 18.2983126,13.9556427 17.8967637,12.6926777 C17.84042,12.5154634 17.7690881,12.3433689 17.6835411,12.1782591 C17.1380416,11.1254191 17.5493224,9.82970897 18.6021624,9.28420949 C18.96127,9.09814799 19.3656289,9.01730215 19.7686708,9.05098267 L19.7961563,9.05327951 C21.6025926,9.2042358 23.1893728,7.86220409 23.3403291,6.05576778 C23.355591,5.87313497 23.3555297,5.68954475 23.3401458,5.50692217 C23.2403871,4.32267885 24.1195355,3.28178951 25.3037788,3.18203075 C25.7058115,3.14816416 26.1092673,3.22800427 26.4681002,3.412439 L26.4886359,3.42299404 C28.1060074,4.25429868 30.0910515,3.61706564 30.9223561,1.99969422 C31.0049968,1.83891012 31.0742558,1.67159328 31.1294309,1.49944015 C31.4930653,0.364856737 32.7076108,-0.260120907 33.8421943,0.103513515 Z" id="Combined-Shape" fill="#E24577"></path>
                    <rect id="Rectangle-Copy-44" fill="#FFFFFF" opacity="0" transform="translate(36.5, 23.8685) rotate(-360) translate(-36.5, -23.8685)" x="0" y="15.9108163" width="73" height="15.9154103"></rect>
                    <text id="BEHAVIOURAL-Copy-3" font-family="Lato-Bold, Lato" font-size="9.02613224" font-weight="bold" line-spacing="11.2826653" letter-spacing="0.322361874" fill="#FFFFFF">
                        <tspan x="2.95728074" y="27.2271888">BEHAVIOURAL</tspan>
                    </text>
                    <path d="M37.3488372,38.6471168 C31.6910889,38.6471168 26.75158,35.5582955 24.1105632,30.9679316 L29.6934223,30.9680807 C31.6431546,32.9014636 34.3528999,34.0998567 37.3488372,34.0998567 C40.3447746,34.0998567 43.0545198,32.9014636 45.0042522,30.9680807 L50.5871112,30.9679316 C47.9460944,35.5582955 43.0065855,38.6471168 37.3488372,38.6471168 Z M37.3488372,7.95311118 C43.2324535,7.95311118 48.3393387,11.2934784 50.892324,16.1891426 L44.9933556,16.1897651 C43.0444301,14.2627142 40.3391974,13.0687788 37.3488372,13.0687788 C34.358477,13.0687788 31.6532443,14.2627142 29.7043188,16.1897651 L23.8053504,16.1891426 C26.3583357,11.2934784 31.4652209,7.95311118 37.3488372,7.95311118 Z" id="Combined-Shape" fill="#C73564"></path>
                    <rect id="Rectangle" fill="#C73564" transform="translate(36.5, 16.4792) rotate(-360) translate(-36.5, -16.4792)" x="0" y="15.9108163" width="73" height="1.13681502"></rect>
                    <rect id="Rectangle-Copy-23" fill="#C73564" transform="translate(36.5, 31.2578) rotate(-360) translate(-36.5, -31.2578)" x="7.27595761e-12" y="30.6894116" width="73" height="1.13681502"></rect>
                </g>
            </g>
        </g>
    </g>
</svg>