<?xml version="1.0" encoding="UTF-8"?>
<svg width="32px" height="20px" viewBox="0 0 32 20" version="1.1" xmlns="http://www.w3.org/2000/svg" xmlns:xlink="http://www.w3.org/1999/xlink">
    <title>Group 17</title>
    <g id="CBP-Consumption(Latest-Version)" stroke="none" stroke-width="1" fill="none" fill-rule="evenodd">
        <g id="Competency-passbook-Website-Copy-5" transform="translate(-722, -292)">
            <g id="Group-19-Copy" transform="translate(528, 264)">
                <g id="Group-17" transform="translate(194, 28)">
                    <g id="Icons/content/analytics-Copy-6">
                        <rect id="Size" fill="#D8D8D8" opacity="0" x="0" y="0" width="20" height="20"></rect>
                        <polygon id="Path" fill-opacity="0.4" fill="#EF951E" points="7.45 6.71666667 10.7008251 10 7.45 13.2833333 8.32458746 14.1666667 12.45 10 8.32458746 5.83333333"></polygon>
                    </g>
                    <g id="Icons/content/analytics-Copy-7" transform="translate(6, 0)">
                        <rect id="Size" fill="#D8D8D8" opacity="0" x="0" y="0" width="20" height="20"></rect>
                        <polygon id="Path" fill-opacity="0.6" fill="#EF951E" points="7.45 6.71666667 10.7008251 10 7.45 13.2833333 8.32458746 14.1666667 12.45 10 8.32458746 5.83333333"></polygon>
                    </g>
                    <g id="Icons/content/analytics-Copy-8" transform="translate(12, 0)">
                        <rect id="Size" fill="#D8D8D8" opacity="0" x="0" y="0" width="20" height="20"></rect>
                        <polygon id="Path" fill="#EF951E" points="7.45 6.71666667 10.7008251 10 7.45 13.2833333 8.32458746 14.1666667 12.45 10 8.32458746 5.83333333"></polygon>
                    </g>
                </g>
            </g>
        </g>
    </g>
</svg>