<?xml version="1.0" encoding="UTF-8"?>
<svg width="84px" height="64px" viewBox="0 0 84 64" version="1.1" xmlns="http://www.w3.org/2000/svg" xmlns:xlink="http://www.w3.org/1999/xlink">
    <title>functional-light</title>
    <g id="CBP-Consumption(Latest-Version)" stroke="none" stroke-width="1" fill="none" fill-rule="evenodd">
        <g id="Competency-passbook-Website-Copy-2" transform="translate(-813, -736)">
            <g id="Group-5" transform="translate(528, 712)">
                <g id="functional-light" transform="translate(327, 56) rotate(-15) translate(-327, -56)translate(290, 32.9911)">
                    <path d="M57.7172945,30.9639925 C57.3937785,31.6694753 57.3202317,32.4925097 57.5707058,33.2914018 C57.6291013,33.4776554 57.704148,33.658273 57.794937,33.8310671 C58.3449197,34.8778212 57.9422069,36.1722323 56.8954528,36.722215 C56.535468,36.9113573 56.1290621,36.9940687 55.7237863,36.9606717 L55.5996679,36.9504437 C53.7936049,36.8016142 52.2088515,38.1450674 52.060022,39.9511303 C52.0449728,40.133753 52.045248,40.3173153 52.0608445,40.499892 C52.1625053,41.6899577 51.2801788,42.7371089 50.0901131,42.8387697 C49.6893877,42.8730015 49.2870554,42.7948124 48.9283184,42.6129872 L48.8351604,42.5657702 C47.1954674,41.7346946 45.1925138,42.3902084 44.3614381,44.0299014 C44.283718,44.1832413 44.2179943,44.342372 44.1648569,44.5058651 C43.791453,45.6547536 42.5573912,46.283408 41.4085028,45.9100041 C41.0275448,45.7861877 40.6879019,45.5601367 40.4266196,45.256507 L40.4116517,45.2391131 C39.1991317,43.8300732 37.0739375,43.6707623 35.6648975,44.8832823 C35.5375745,44.9928475 35.4186319,45.1117901 35.3090667,45.2391131 L35.2940988,45.256507 C34.5061268,46.17219 33.1250416,46.2757202 32.2093586,45.4877483 C31.9057288,45.226466 31.6796778,44.8868231 31.5558615,44.5058651 C30.9876533,42.7576033 29.1097835,41.8009808 27.3615217,42.369189 C27.1980287,42.4223264 27.038898,42.4880501 26.885558,42.5657702 L26.7924,42.6129872 C25.7270305,43.1529679 24.4256371,42.7270562 23.8856564,41.6616868 C23.7038311,41.3029498 23.6256421,40.9006174 23.6598738,40.499892 C23.8141171,38.6942834 22.4754209,37.1055095 20.6698123,36.9512663 C20.4872355,36.9356698 20.3036732,36.9353946 20.1210505,36.9504437 L19.9969321,36.9606717 C18.8184819,37.0577825 17.7844354,36.1811837 17.6873247,35.0027335 C17.6539277,34.5974577 17.7366392,34.1910519 17.9257814,33.8310671 C18.4130625,32.9036499 18.4079624,31.8482363 18.0035355,30.963924 L30.0092355,30.9640752 C32.0069018,32.9060321 34.7833949,34.1097596 37.853152,34.1097596 C40.9230551,34.1097596 43.6996663,32.9059176 45.6973535,30.9637981 L57.7172945,30.9639925 Z M34.3122156,0.107704842 C34.6931736,0.231521206 35.0328165,0.457572222 35.2940988,0.761201999 L35.3090667,0.778595808 C36.5215867,2.18763576 38.6467809,2.34694666 40.0558208,1.13442667 C40.1831439,1.02486147 40.3020865,0.905918857 40.4116517,0.778595808 L40.4266196,0.761201999 C41.2145915,-0.154481011 42.5956767,-0.258011282 43.5113598,0.529960665 C43.8149895,0.791242947 44.0410405,1.13088589 44.1648569,1.51184386 C44.733065,3.26010562 46.6109349,4.21672811 48.3591966,3.64851999 C48.5226897,3.59538259 48.6818204,3.52965887 48.8351604,3.45193876 L48.9283184,3.40472176 C49.9936879,2.86474104 51.2950813,3.29065276 51.835062,4.3560222 C52.0168873,4.7147592 52.0950763,5.11709152 52.0608445,5.51781691 C51.9066013,7.32342557 53.2452975,8.91219944 55.0509061,9.06644268 C55.2334828,9.0820392 55.4170452,9.08231436 55.5996679,9.06726525 L55.7237863,9.05703721 C56.9022365,8.95992644 57.9362829,9.83652524 58.0333937,11.0149754 C58.0667906,11.4202512 57.9840792,11.8266571 57.794937,12.1866419 C57.0868878,13.5342359 57.4184456,15.1520797 58.5041224,16.1225494 L45.685245,16.1221855 C43.688454,14.1869636 40.9168575,12.9879775 37.853152,12.9879775 C34.7890463,12.9879775 32.0171259,14.1872769 30.0202765,16.1229439 L17.2155624,16.1235075 C18.1364312,15.2988362 18.5439303,13.9827156 18.1500126,12.7263071 C18.0916171,12.5400535 18.0165704,12.359436 17.9257814,12.1866419 C17.3757986,11.1398877 17.7785114,9.84547668 18.8252656,9.29549392 C19.1852504,9.10635169 19.5916563,9.02364026 19.9969321,9.05703721 L20.1210505,9.06726525 C21.9271135,9.21609475 23.5118669,7.8726416 23.6606964,6.06657865 C23.6757455,5.88395599 23.6754704,5.70039363 23.6598738,5.51781691 C23.5582131,4.32775123 24.4405396,3.28060004 25.6306053,3.17893926 C26.0313306,3.14470749 26.433663,3.22289652 26.7924,3.40472176 L26.885558,3.45193876 C28.5252509,4.28301438 30.5282046,3.62750053 31.3592802,1.98780759 C31.4370003,1.83446762 31.5027241,1.67533692 31.5558615,1.51184386 C31.9292654,0.362955402 33.1633271,-0.265699051 34.3122156,0.107704842 Z" id="Combined-Shape-Copy" fill="#EB7063"></path>
                    <text id="FUNCTIONAL" font-family="Lato-Bold, Lato" font-size="9.17666281" font-weight="bold" line-spacing="11.4708285" letter-spacing="0.327737972" fill="#7B47A4">
                        <tspan x="5.86063337" y="27.1370881">FUNCTIONAL</tspan>
                    </text>
                    <path d="M37.8604651,38.645533 C32.1253741,38.645533 27.1183207,35.5580479 24.4410701,30.9696252 L30.1002087,30.969415 C32.0766477,32.9020543 34.8235015,34.0999851 37.8604651,34.0999851 C40.8974288,34.0999851 43.6442825,32.9020543 45.6207215,30.969415 L51.2798602,30.9696252 C48.6026095,35.5580479 43.5955561,38.645533 37.8604651,38.645533 Z M37.8604651,7.96308485 C43.8247013,7.96308485 49.0015603,11.3022194 51.5895083,16.1960702 L45.6096813,16.1966162 C43.6340598,14.2703033 40.8917781,13.0768262 37.8604651,13.0768262 C34.8291521,13.0768262 32.0868704,14.2703033 30.1112489,16.1966162 L24.1314219,16.1960702 C26.7193699,11.3022194 31.8962289,7.96308485 37.8604651,7.96308485 Z" id="Combined-Shape-Copy-2" fill="#CD6155"></path>
                    <rect id="Rectangle-Copy-24" fill="#CD6155" transform="translate(37, 16.486) rotate(-360) translate(-37, -16.486)" x="1.8189894e-12" y="15.9177936" width="74" height="1.13638697"></rect>
                    <rect id="Rectangle-Copy-25" fill="#CD6155" transform="translate(37, 31.259) rotate(-360) translate(-37, -31.259)" x="0" y="30.6908242" width="74" height="1.13638697"></rect>
                </g>
            </g>
        </g>
    </g>
</svg>