<?xml version="1.0" encoding="UTF-8"?>
<svg width="163px" height="87px" viewBox="0 0 163 87" version="1.1" xmlns="http://www.w3.org/2000/svg" xmlns:xlink="http://www.w3.org/1999/xlink">
    <title>Graphic_Completed@2x</title>
    <g id="CBP-Consumption" stroke="none" stroke-width="1" fill="none" fill-rule="evenodd">
        <g id="Competency-passbook-Website-Copy-7" transform="translate(-843, -421)">
            <g id="Graphic_Completed" transform="translate(843, 421)">
                <path d="M34.712963,76.3702989 L103.384259,76.3702989 C103.772894,76.3702989 104.151718,76.3280617 104.516204,76.2488669 C104.88069,76.3280617 105.259514,76.3702989 105.648148,76.3702989 L144.888889,76.3702989 C147.806287,76.3702989 150.171296,74.0065229 150.171296,71.0906461 C150.171296,68.1747693 147.806287,65.8109932 144.888889,65.8109932 L140.361111,65.8109932 C137.443713,65.8109932 135.078704,63.4472172 135.078704,60.5313404 C135.078704,57.6154636 137.443713,55.2516876 140.361111,55.2516876 L154.699074,55.2516876 C157.616472,55.2516876 159.981481,52.8879116 159.981481,49.9720347 C159.981481,47.0561579 157.616472,44.6923819 154.699074,44.6923819 L138.097222,44.6923819 C141.01462,44.6923819 143.37963,42.3286059 143.37963,39.412729 C143.37963,36.4968522 141.01462,34.1330762 138.097222,34.1330762 L89.8009259,34.1330762 C92.7183241,34.1330762 95.0833333,31.7693002 95.0833333,28.8534233 C95.0833333,25.9375465 92.7183241,23.5737705 89.8009259,23.5737705 L46.787037,23.5737705 C43.8696389,23.5737705 41.5046296,25.9375465 41.5046296,28.8534233 C41.5046296,31.7693002 43.8696389,34.1330762 46.787037,34.1330762 L16.6018519,34.1330762 C13.6844537,34.1330762 11.3194444,36.4968522 11.3194444,39.412729 C11.3194444,42.3286059 13.6844537,44.6923819 16.6018519,44.6923819 L35.4675926,44.6923819 C38.3849907,44.6923819 40.75,47.0561579 40.75,49.9720347 C40.75,52.8879116 38.3849907,55.2516876 35.4675926,55.2516876 L5.28240741,55.2516876 C2.36500926,55.2516876 0,57.6154636 0,60.5313404 C0,63.4472172 2.36500926,65.8109932 5.28240741,65.8109932 L34.712963,65.8109932 C31.7955648,65.8109932 29.4305556,68.1747693 29.4305556,71.0906461 C29.4305556,74.0065229 31.7955648,76.3702989 34.712963,76.3702989 Z M157.717593,76.3702989 C160.634991,76.3702989 163,74.0065229 163,71.0906461 C163,68.1747693 160.634991,65.8109932 157.717593,65.8109932 C154.800194,65.8109932 152.435185,68.1747693 152.435185,71.0906461 C152.435185,74.0065229 154.800194,76.3702989 157.717593,76.3702989 Z" id="Shape" fill="#DDE8FB"></path>
                <g id="Icons/content/edit-24px" transform="translate(62, 0)">
                    <rect id="Size" fill="#D8D8D8" opacity="0" x="0" y="0" width="79" height="79"></rect>
                    <path d="M35.1894841,7.08333333 C37.1064246,7.08333333 38.842744,7.86128928 40.0998543,9.11839962 C41.3569647,10.37551 42.1349206,12.1118294 42.1349206,14.0287698 L42.1349206,18.9960317 L54.547619,18.9960317 C56.0481151,18.9960317 57.4118839,19.6104094 58.4007373,20.5992627 C59.3895906,21.5881161 60.0039683,22.9518849 60.0039683,24.452381 L60.0039683,36.8650794 L64.9712302,36.8650794 C66.8881706,36.8650794 68.62449,37.6430353 69.8816004,38.9001457 C71.1387107,40.157256 71.9166667,41.8935754 71.9166667,43.8105159 C71.9166667,45.7274563 71.1387107,47.4637758 69.8816004,48.7208861 C68.62449,49.9779964 66.8881706,50.7559524 64.9712302,50.7559524 L60.0039683,50.7559524 L60.0039683,63.1686508 C60.0039683,64.6691468 59.3895906,66.0329157 58.4007373,67.021769 C57.4118839,68.0106224 56.0481151,68.625 54.547619,68.625 L43.7305556,68.625 L43.7305556,64.6577381 C43.7305556,62.3010351 42.7737412,60.1657068 41.2276283,58.6195939 C39.6815154,57.0734811 37.5461872,56.1166667 35.1894841,56.1166667 C32.8327811,56.1166667 30.6974528,57.0734811 29.15134,58.6195939 C27.6052271,60.1657068 26.6484127,62.3010351 26.6484127,64.6577381 L26.6484127,68.625 L15.8313492,68.625 C14.3308532,68.625 12.9670843,68.0106224 11.978231,67.021769 C10.9893776,66.0329157 10.375,64.6691468 10.375,63.1686508 L10.375,52.3515873 L14.3422619,52.3515873 C16.6989649,52.3515873 18.8342932,51.3947729 20.3804061,49.84866 C21.9265189,48.3025472 22.8833333,46.1672189 22.8833333,43.8105159 C22.8833333,41.4538128 21.9265189,39.3184846 20.3804061,37.7723717 C18.8342932,36.2262588 16.6989649,35.2694444 14.3422619,35.2694444 L10.4047817,35.2694444 L10.4047817,24.452381 C10.4047817,22.9496735 11.0135208,21.5837847 11.9980394,20.5943189 C12.9791474,19.6082807 14.3337536,18.9960317 15.8313492,18.9960317 L28.2440476,18.9960317 L28.2440476,14.0287698 C28.2440476,12.1118294 29.0220036,10.37551 30.2791139,9.11839962 C31.5362242,7.86128928 33.2725437,7.08333333 35.1894841,7.08333333 Z" id="Path" stroke="#7FAEFF" fill-opacity="0.6" fill="#7FAEFF"></path>
                </g>
                <g id="Group-11" transform="translate(39.5515, 25.9672)">
                    <rect id="Rectangle" fill="#FFFFFF" x="2.39705882" y="2.39344262" width="70.7132353" height="56.2459016"></rect>
                    <path d="M59.9264706,45.4754098 C64.5109848,45.4754098 68.9372892,44.7990552 73.110759,43.540828 L73.1102941,58.6393443 L2.39705882,58.6393443 L2.39705882,2.39344262 L14.4443563,2.39355029 C15.6909118,26.3962939 35.5772417,45.4754098 59.9264706,45.4754098 Z" id="Combined-Shape" fill="#7FAEFF" opacity="0.148094541"></path>
                    <g id="video" fill="#1B4CA1">
                        <path d="M71.2448411,0 L4.26251186,0 C1.90946971,0.00260680633 0.00260083695,1.91385228 0,4.27229508 L0,56.7604918 C0.00260083695,59.1189346 1.90946971,61.0301801 4.26251186,61.0327869 L71.2448411,61.0327869 C73.5978832,61.0301801 75.5047521,59.1189346 75.5073529,56.7604918 L75.5073529,4.27229508 C75.5047521,1.91385228 73.5978832,0.00260680633 71.2448411,0 L71.2448411,0 Z M73.0716319,56.7604918 C73.0707925,57.7713674 72.2534019,58.5906341 71.2448411,58.5914754 L4.26251186,58.5914754 C3.25395106,58.5906341 2.43656048,57.7713674 2.43572106,56.7604918 L2.43572106,51.267541 L73.0716319,51.267541 L73.0716319,56.7604918 Z M73.0716319,48.8262295 L2.43572106,48.8262295 L2.43572106,9.7652459 L73.0716319,9.7652459 L73.0716319,48.8262295 Z M73.0716319,7.32393443 L2.43572106,7.32393443 L2.43572106,4.27229508 C2.43656048,3.26141946 3.25395106,2.44215282 4.26251186,2.44131148 L71.2448411,2.44131148 C72.2534019,2.44215282 73.0707925,3.26141946 73.0716319,4.27229508 L73.0716319,7.32393443 Z" id="Shape"></path>
                        <path d="M5.03382353,6.00322494 L6.04058824,6.00322494 C6.59660903,6.00322494 7.04735294,5.55526905 7.04735294,5.00268745 C7.04735294,4.45010585 6.59660903,4.00214996 6.04058824,4.00214996 L5.03382353,4.00214996 C4.47780274,4.00214996 4.02705882,4.45010585 4.02705882,5.00268745 C4.02705882,5.55526905 4.47780274,6.00322494 5.03382353,6.00322494 Z" id="Path"></path>
                        <path d="M9.06088235,6.00322494 L10.0676471,6.00322494 C10.6236679,6.00322494 11.0744118,5.55526905 11.0744118,5.00268745 C11.0744118,4.45010585 10.6236679,4.00214996 10.0676471,4.00214996 L9.06088235,4.00214996 C8.50486156,4.00214996 8.05411765,4.45010585 8.05411765,5.00268745 C8.05411765,5.55526905 8.50486156,6.00322494 9.06088235,6.00322494 Z" id="Path"></path>
                        <path d="M14.0947059,6.00322494 L15.1014706,6.00322494 C15.6574914,6.00322494 16.1082353,5.55526905 16.1082353,5.00268745 C16.1082353,4.45010585 15.6574914,4.00214996 15.1014706,4.00214996 L14.0947059,4.00214996 C13.5386851,4.00214996 13.0879412,4.45010585 13.0879412,5.00268745 C13.0879412,5.55526905 13.5386851,6.00322494 14.0947059,6.00322494 Z" id="Path"></path>
                        <path d="M37.7536765,16.0085998 C30.2473958,16.0085998 24.1623529,22.0560044 24.1623529,29.515856 C24.1623529,36.9757075 30.2473958,43.0231121 37.7536765,43.0231121 C45.2599572,43.0231121 51.345,36.9757075 51.345,29.515856 C51.3364886,22.0595109 45.2564288,16.0170585 37.7536765,16.0085998 L37.7536765,16.0085998 Z M37.7536765,40.5672473 C31.6121741,40.5672473 26.6335027,35.6193709 26.6335027,29.515856 C26.6335027,23.412341 31.6121741,18.4644646 37.7536765,18.4644646 C43.8951789,18.4644646 48.8738503,23.412341 48.8738503,29.515856 C48.8667861,35.6164605 43.8922504,40.5602268 37.7536765,40.5672473 L37.7536765,40.5672473 Z" id="Shape"></path>
                        <path d="M43.7376676,29.0163609 L36.1869058,24.2136259 C35.8004575,23.968746 35.3042232,23.9463057 34.8952316,24.1552148 C34.48624,24.3641239 34.2306719,24.7705778 34.23,25.2131951 L34.23,34.8186652 C34.2303482,35.2614179 34.485867,35.668115 34.8949834,35.8770879 C35.3040999,36.0860607 35.8005188,36.0634464 36.1869058,35.8182345 L43.7376676,31.0154994 C44.0875646,30.7924315 44.2976471,30.4174321 44.2976471,30.0159302 C44.2976471,29.6144283 44.0875646,29.2394288 43.7376676,29.0163609 L43.7376676,29.0163609 Z M36.7469206,32.5748874 L36.7469206,27.4569729 L40.7708474,30.0159302 L36.7469206,32.5748874 Z" id="Shape"></path>
                        <path d="M66.2157537,54.2791588 L16.716489,54.2791588 C16.716489,53.5884318 16.1624496,53.028487 15.4790074,53.028487 C14.7955651,53.028487 14.2415257,53.5884318 14.2415257,54.2791588 L9.29159926,54.2791588 C8.60815704,54.2791588 8.05411765,54.8391037 8.05411765,55.5298307 C8.05411765,56.2205577 8.60815704,56.7805026 9.29159926,56.7805026 L14.2415257,56.7805026 C14.2415257,57.4712295 14.7955651,58.0311744 15.4790074,58.0311744 C16.1624496,58.0311744 16.716489,57.4712295 16.716489,56.7805026 L66.2157537,56.7805026 C66.8991959,56.7805026 67.4532353,56.2205577 67.4532353,55.5298307 C67.4532353,54.8391037 66.8991959,54.2791588 66.2157537,54.2791588 Z" id="Path"></path>
                    </g>
                </g>
            </g>
        </g>
    </g>
</svg>