<svg width="140" height="42" xmlns="http://www.w3.org/2000/svg" xmlns:xlink="http://www.w3.org/1999/xlink"><defs><path d="M0 3.019a3.025 3.025 0 003.031 3.018 3.025 3.025 0 003.03-3.018A3.024 3.024 0 003.032 0 3.024 3.024 0 000 3.019" id="path-1"/><path id="path-3" d="M0 0h6.8v5.358H0z"/><path id="path-5" d="M0 0h21.505v24.442H0z"/><path id="path-7" d="M0 42h140V0H0z"/></defs><g id="Logos/KarmayogiBharat_Logo_Horizontal" stroke="none" stroke-width="1" fill="none" fill-rule="evenodd"><g id="Group-55"><g id="Group-5" transform="translate(1.629 1.376)" fill="#264092"><path d="M37.723 14.242a24.707 24.707 0 00-3.804-.286c-.16.008-.32.017-.476.027.474-.82.904-1.556 1.305-2.371 3.972-.609 6.321-.167 6.321-.167s-.99.708-3.346 2.797m-5.175-.185c-.94.094-1.8.233-2.58.407.268-.599.488-1.232.67-1.882.377-.148.194-.792.61-.931.703-.201 3.271-.848 3.905-.972-.39.784-1.062 3.805-2.605 3.378m-1.04-6.34c3.399-1.845 5.665-2.159 5.665-2.159s-1.026 1.208-3.03 5.264c-.639.112-1.2.254-1.898.435-.487.152-.949.311-1.389.475.319-1.37.501-2.683.653-4.015m7.113 6.683c2.948-2.673 4.174-3.27 4.174-3.27s-2.844-1.111-7.643-.451l.067-.137c2.304-4.726 3.493-5.973 3.493-5.973s-2.95-.048-7.102 2.124C32.19 1.553 32.881 0 32.881 0s-3.658 1.263-7.568 6.751c-.204.317-.394.629-.574.935l.127 1.242c.212-.396.018-.273.275-.693 3.321-4.917 6.44-6.618 6.44-6.618s-.362 1.224-.878 5.515c-.625.358-1.165.764-1.83 1.229-1.833 1.417-2.722 2.687-3.664 3.955l.106.091c.835-1.244 1.645-2.325 3.478-3.806.658-.486 2.208-1.542 2.818-1.908-.151 1.282-.421 3.717-.755 5.039-2.268.944-4.258 2.255-5.373 3.294.961-.988 3.158-1.86 5.373-2.836-.192.607-.605 1.723-.888 2.274-1.665.457-3.4 1.183-4.358 1.806l.078.561c.78-.555 2.183-1.413 3.628-1.871-.152.988-.928 2.54-3.537 2.973l.068.669c1.962-.609 2.832-1.967 3.711-3.534.748-.186 2.957-.974 3.885-1.085-1.426 2.699-6.111 6.737-7.562 4.962l.067.659c3.472.077 5.327-2.126 7.042-4.866l.296-.023c.633-.759 4.259-.461 5.336-.315-.19.176-1.488 1.713-1.694 1.907-2.84 2.672-8.54 6.709-10.932 3.985l.074.512c4.625 1.447 8.228-2.321 11.356-5.293.166-.158.326-.202.483-.349 2.931.536 4.447 1.29 4.447 1.29s-1.484.422-5.491 2.614c-3.283 1.795-7.095 4.038-10.765 2.033l.081.803c3.962 1.902 8.1-.551 11.676-2.529 4.61-2.552 6.305-2.891 6.305-2.891s-1.877-1.357-5.54-2.082" id="Fill-1"/><path d="M3.093 11.445s2.348-.443 6.32.167c.402.814.832 1.55 1.306 2.371-.157-.01-.315-.019-.476-.027-1.413 0-2.68.111-3.805.286-2.356-2.089-3.345-2.797-3.345-2.797m5.915-.767c.633.125 3.203.771 3.905.972.415.14.233.784.61.931.183.651.402 1.283.67 1.882a22.063 22.063 0 00-2.58-.406c-1.543.426-2.214-2.594-2.605-3.379m4.296 1.054c-.44-.165-.9-.323-1.387-.475a23.935 23.935 0 00-1.898-.436c-2.004-4.055-3.03-5.263-3.03-5.263s2.265.314 5.664 2.16c.151 1.331.334 2.643.651 4.014M0 16.482s1.693.34 6.305 2.89c3.576 1.98 7.712 4.431 11.675 2.53l.082-.803c-3.671 2.004-7.483-.238-10.766-2.034-4.008-2.19-5.49-2.613-5.49-2.613s1.516-.754 4.446-1.29c.157.147.317.191.483.348 3.128 2.972 6.731 6.74 11.357 5.294l.18-.619c-2.393 2.724-8.198-1.206-11.038-3.878-.206-.194-1.504-1.732-1.694-1.907 1.076-.146 4.703-.444 5.334.315l.298.023c1.714 2.74 3.568 4.942 7.041 4.866l.067-.659c-1.451 1.774-5.953-2.198-7.561-4.962.927.11 3.116.986 3.864 1.172.878 1.568 1.769 2.838 3.732 3.447l.068-.67c-2.61-.432-3.386-1.985-3.538-2.972 1.446.458 2.85 1.315 3.627 1.87l.079-.56c-.957-.623-2.692-1.35-4.358-1.807-.283-.55-.696-1.666-.889-2.274 2.216.977 4.412 1.848 5.373 2.837-1.113-1.039-3.103-2.35-5.373-3.294-.333-1.323-.603-3.758-.755-5.04.61.366 2.161 1.423 2.82 1.908 1.831 1.481 2.643 2.562 3.477 3.806l.106-.09c-.941-1.268-1.83-2.538-3.664-3.955-.664-.465-1.204-.872-1.83-1.23-.515-4.29-.877-5.514-.877-5.514s3.118 1.7 6.439 6.618c.257.42.063.297.276.693l.125-1.243c-.178-.306-.37-.617-.572-.934-3.911-5.488-7.57-6.75-7.57-6.75s.693 1.552 1.27 6.691C8.4 4.522 5.45 4.57 5.45 4.57s1.19 1.246 3.493 5.973l.066.136c-4.8-.659-7.643.452-7.643.452s1.227.596 4.175 3.27C1.876 15.124 0 16.481 0 16.481" id="Fill-3"/></g><g id="Group-8" transform="translate(20.766 14.91)"><mask id="mask-2" fill="#fff"><use xlink:href="#path-1"/></mask><path d="M0 3.019a3.025 3.025 0 003.031 3.018 3.025 3.025 0 003.03-3.018A3.024 3.024 0 003.032 0 3.024 3.024 0 000 3.019" id="Fill-6" mask="url(#mask-2)"/></g><g id="Group-54"><path id="Fill-9" fill="#264092" d="M27.45 27.684l-3.695-9.625-3.695 9.625 2.635 2.33.048-4.114.86-.72 1.14.48.023 1.63-.163 3.012 1.376-1.422z"/><path d="M23.772 31.556s-.395 1.696 1.267 1.623c1.292-.056 4.862-.683 6.286-.93 1.424-.247 4.272.776 2.526 4.087-.941 1.552-4.272 1.739-7.738-.67-3.465-2.407-5.31-3.711-6.635-4.306-1.76-.79-6.068-1.572-6.931 2.756-.445 3.06 2.874 3.665 2.874 3.665s-2.301-.73-2.337-2.997c-.024-1.556 1.518-4.033 4.635-2.97 3.142 1.072 3.128 1.472 7.615 4.79 2.794 1.873 7.334 3.398 9.484.267 1.289-2.14.537-5.083-2.338-5.431-2.203-.268-2.041.615-6.957 1.338-1.666.235-1.742-.386-1.75-1.222" id="Fill-11" fill="#1B2133"/><g id="Group-15" transform="translate(15.352 36.642)"><mask id="mask-4" fill="#fff"><use xlink:href="#path-3"/></mask><path d="M5.703 1.514L2.806.176a1.897 1.897 0 00-2.515.917l-.041.089 1.177.523s.897-.334 1.285.557c.752.329 1.11.514 1.11.514l-.054.117-1.107-.501s-.88.312-1.287-.54C.54 1.469.282 1.333.2 1.288l-.024.05a1.884 1.884 0 00.92 2.507l2.897 1.338a1.897 1.897 0 002.516-.917l.114-.246a1.882 1.882 0 00-.92-2.505" id="Fill-13" fill="#1B2133" mask="url(#mask-4)"/></g><path d="M23.786 25.003h-.013c-1.298 0-1.18 1.512-1.18 1.512v2.49c-.478-.934-2.914-2.401-2.914-2.401l1.826-18.012-.886.021-1.859 18.77s3.987 2.133 4.74 4.93v-5.454a.627.627 0 11.532.002v5.451c.95-3.11 4.649-4.927 4.649-4.927S27.37 13.597 26.837 8.59h-.769l.213 2.107 1.614 15.905s-2.436 1.467-2.915 2.401v-2.49s.107-1.51-1.18-1.51h-.014z" id="Fill-16" fill="#EF951E"/><g id="Group-20"><mask id="mask-6" fill="#fff"><use xlink:href="#path-5"/></mask><path d="M3.334 12.565s2.531-.821 6.811-.164a46.51 46.51 0 001.408 2.67 39.63 39.63 0 00-.514-.03 26.7 26.7 0 00-4.1.309c-2.539-2.251-3.605-2.785-3.605-2.785m4.083-6.46s2.558.11 6.22 2.099c.163 1.435.36 2.964.704 4.44a29.226 29.226 0 00-1.498-.511 27.74 27.74 0 00-2.16-.47c-2.16-4.371-3.266-5.557-3.266-5.557m7.158 7.455a14.8 14.8 0 00.723 2.028 23.58 23.58 0 00-2.782-.438 40.133 40.133 0 01-1.382-2.577 26.03 26.03 0 012.162.522c.448.15.873.306 1.279.465m-6.71 6.988c-4.32-2.362-5.919-2.702-5.919-2.702s1.635-1.042 4.793-1.62c.17.159.342.32.52.49 3.403 3.233 7.795 7.455 12.837 5.776l.08-.786c-4.677 1.704-8.707-2.133-11.799-5.042a85.547 85.547 0 00-.641-.596 25.07 25.07 0 013.985-.21l.32.026c1.87 2.988 4.364 5.502 8.182 5.357l.072-.711c-3.359.114-5.587-1.993-7.26-4.547 1 .119 1.898.285 2.705.485.966 1.724 2.4 3.095 4.588 3.736l.072-.72c-1.605-.531-2.75-1.498-3.577-2.711 1.634.518 2.821 1.173 3.67 1.799l.085-.841c-1.045-.7-2.45-1.393-4.318-1.905a12.061 12.061 0 01-.76-1.882c2.48 1.093 4.083 2.327 5.115 3.425l.096-.947c-1.205-1.153-2.953-2.376-5.48-3.427-.36-1.425-.558-2.912-.72-4.294a26.2 26.2 0 012.054 1.37c2.06 1.665 3.423 3.235 4.321 4.619l.117-1.144c-1.023-1.41-2.471-2.948-4.525-4.535a27.745 27.745 0 00-2.087-1.325c-.556-4.625-1.175-6.058-1.175-6.058S16.92 3.118 20.5 8.418c.322.527.61 1.036.867 1.528l.138-1.354a27.688 27.688 0 00-.73-1.201C16.56 1.476 12.157 0 12.157 0s.747 1.674 1.37 7.213c-4.474-2.34-7.655-2.288-7.655-2.288s1.283 1.343 3.765 6.438l.072.147c-5.172-.711-8.238.486-8.238.486s1.322.643 4.5 3.525C2.021 16.3 0 17.764 0 17.764s1.825.366 6.796 3.116c3.896 2.156 8.879 4.95 13.183 2.772l.088-.875c-3.988 2.299-8.622-.27-12.203-2.228" id="Fill-18" fill="#EF951E" mask="url(#mask-6)"/></g><path d="M40.502 15.35a26.715 26.715 0 00-4.1-.308 26.96 26.96 0 00-.514.029 46.51 46.51 0 001.408-2.67c4.28-.657 6.812.164 6.812.164s-1.066.534-3.606 2.785m-5.577-.199c-1.015.101-1.94.251-2.782.438.29-.646.526-1.327.723-2.028.406-.16.831-.315 1.28-.465a25.96 25.96 0 012.161-.522 40.401 40.401 0 01-1.382 2.577m-1.121-6.948c3.663-1.989 6.22-2.098 6.22-2.098s-1.106 1.187-3.266 5.559a27.64 27.64 0 00-2.16.469 28.96 28.96 0 00-1.497.512c.342-1.477.54-3.006.703-4.442m7.666 7.318c3.178-2.882 4.5-3.525 4.5-3.525s-3.065-1.197-8.238-.486l.072-.147c2.482-5.095 3.766-6.439 3.766-6.439s-3.181-.051-7.655 2.289C34.538 1.674 35.284 0 35.284 0s-4.403 1.476-8.618 7.391c-.22.342-.424.677-.618 1.007l.136 1.339c.229-.426.48-.866.758-1.319 3.578-5.3 7.284-6.79 7.284-6.79s-.619 1.434-1.175 6.059a27.44 27.44 0 00-2.089 1.325c-1.975 1.527-3.393 3.01-4.408 4.376l.115 1.129c.9-1.341 2.233-2.849 4.208-4.446.71-.523 1.396-.975 2.054-1.369-.163 1.382-.361 2.868-.72 4.293-2.446 1.018-4.16 2.195-5.36 3.315l.095.935c1.035-1.066 2.608-2.248 4.996-3.301a11.89 11.89 0 01-.762 1.882c-1.794.493-3.162 1.153-4.193 1.824l.084.833c.84-.598 1.99-1.216 3.548-1.709-.806 1.181-1.912 2.129-3.45 2.668l.072.722c2.116-.657 3.513-2.005 4.46-3.695.807-.2 1.705-.367 2.705-.485-1.65 2.52-3.842 4.605-7.127 4.55l.071.71c3.744.082 6.203-2.406 8.05-5.359l.32-.025a25.057 25.057 0 013.985.209c-.206.189-.419.388-.64.596-3.062 2.881-7.044 6.671-11.662 5.091l.079.781c4.985 1.559 9.33-2.617 12.7-5.82l.521-.49c3.158.578 4.793 1.62 4.793 1.62s-1.6.34-5.919 2.702c-3.538 1.935-8.107 4.467-12.063 2.306l.087.865c4.272 2.05 9.19-.708 13.045-2.84 4.97-2.75 6.796-3.116 6.796-3.116s-2.023-1.463-5.972-2.243" id="Fill-21" fill="#EF951E"/><path d="M67.027 14.881H61.14v1.756c.474-.419 1.046-.628 1.714-.628.96 0 1.733.298 2.322.893.587.597.881 1.356.881 2.28 0 .998-.334 1.796-1.003 2.392-.668.595-1.526.894-2.571.894-.162 0-.286-.006-.372-.017v-1.82c.065.011.151.016.258.016.442 0 .785-.134 1.028-.402.243-.269.363-.612.363-1.03 0-.388-.112-.718-.34-.992-.225-.274-.555-.41-.985-.41-.378 0-.688.136-.931.41-.242.274-.364.636-.364 1.088v4.574h-2.296v-1.869c-.464.41-1.035.613-1.715.613-.959 0-1.733-.299-2.32-.894-.588-.596-.882-1.356-.882-2.28 0-.998.334-1.795 1.003-2.392.669-.595 1.525-.893 2.572-.893.15 0 .275.005.371.016v1.82a1.61 1.61 0 00-.258-.016c-.443 0-.785.134-1.027.402-.243.27-.365.612-.365 1.031 0 .387.114.717.34.991.227.274.556.411.987.411.377 0 .688-.137.93-.41.243-.275.364-.637.364-1.088v-4.446h-5.871v-1.804h14.054v1.804z" id="Fill-23" fill="#EF951E"/><mask id="mask-8" fill="#fff"><use xlink:href="#path-7"/></mask><path d="M70.084 17.877h2.556v-2.996h-2.556v2.996zm-4.027-2.996v-1.804h10.432v1.804h-1.617v9.004H72.64v-4.204h-2.556v1.965H68.16l-.582-1.288c-.312-.709-.469-1.203-.469-1.482 0-.462.243-.757.728-.886v-3.109h-1.78z" id="Fill-25" fill="#EF951E" mask="url(#mask-8)"/><path d="M75.373 10.79c-.335 0-.615.099-.84.298-.228.199-.341.47-.341.813 0 .484.205.94.614 1.369H72.51a1.113 1.113 0 01-.186-.201c-.07-.091-.167-.29-.291-.596a2.535 2.535 0 01-.186-.958c0-.88.285-1.554.857-2.022.572-.467 1.267-.7 2.086-.7.787 0 1.456.134 2.005.402v2.014c-.539-.28-1.013-.42-1.422-.42" id="Fill-27" fill="#EF951E" mask="url(#mask-8)"/><path d="M80.855 20.18c.615 0 1.1-.177 1.456-.532.356-.354.533-.886.533-1.593v-3.173h-2.102c.227.343.34.805.34 1.385 0 .698-.198 1.27-.59 1.715-.394.445-.904.77-1.528.974.247.817.878 1.224 1.891 1.224m-.388 1.997c-1.068 0-1.986-.386-2.758-1.16-.77-.773-1.237-1.835-1.398-3.189 1.682-.235 2.523-.793 2.523-1.674 0-.537-.157-.961-.469-1.272H75.52v-1.804h11.223v1.804h-1.617v9.002h-2.28v-2.738c-.184.313-.492.563-.922.75a3.61 3.61 0 01-1.456.281" id="Fill-28" fill="#EF951E" mask="url(#mask-8)"/><path d="M89.67 13.077h1.601v1.804h-1.618v9.004H87.39v-9.004h-1.617v-1.804h1.456l-1.084-1.579a1.39 1.39 0 00-1.229-.66c-.334 0-.68.054-1.035.161V9.1a6.38 6.38 0 011.229-.113c.658.011 1.213.13 1.666.354.453.226.851.602 1.197 1.127l1.698 2.61z" id="Fill-29" fill="#EF951E" mask="url(#mask-8)"/><path d="M90.3 13.077h10.432v1.804h-1.618v9.004H96.85v-9.004h-1.794v3.447c0 .773-.22 1.348-.656 1.723-.437.376-1 .564-1.69.564a4.45 4.45 0 01-1.439-.225v-1.772c.237.13.501.193.792.193.474 0 .711-.247.711-.74v-3.19H90.3v-1.804z" id="Fill-30" fill="#EF951E" mask="url(#mask-8)"/><path d="M103.643 13.077h1.634v1.804h-1.618v9.004h-2.28v-9.004H99.76v-1.804h1.602v-.967c0-.397-.106-.702-.315-.917-.211-.215-.51-.323-.898-.323-.755 0-1.133.414-1.133 1.24v.403H96.72v-.483c0-1.009.323-1.772.97-2.287.647-.516 1.467-.773 2.459-.773 1.003 0 1.835.255 2.498.765.664.51.995 1.27.995 2.28v1.062z" id="Fill-31" fill="#EF951E" mask="url(#mask-8)"/><path d="M115.029 17.796v-4.719h3.849v1.804h-1.617v9.004h-2.232V19.6h-2.474v2.013h-1.974l-.582-1.24c-.29-.612-.436-1.084-.436-1.417 0-.558.248-.908.744-1.047v-2.303c0-.505-.25-.758-.744-.758-.282 0-.573.076-.874.226v-1.756a2.95 2.95 0 011.39-.322c1.65 0 2.476.78 2.476 2.336v2.464h2.474z" id="Fill-32" fill="#264092" mask="url(#mask-8)"/><path id="Fill-33" fill="#264092" mask="url(#mask-8)" d="M117.908 14.881v-1.804h5.514v1.804h-1.616v9.004h-2.28v-9.004z"/><path d="M123.503 19.761V17.99h1.23c.991 0 1.487-.408 1.487-1.224v-1.884h-3.768v-1.804h7.715v1.804h-1.682v2.013c0 .72-.181 1.323-.542 1.812-.361.49-.881.797-1.56.926a.981.981 0 01-.243.033l3.316 4.22h-2.75l-3.203-4.124z" id="Fill-34" fill="#264092" mask="url(#mask-8)"/><path d="M140 13.077v1.804h-1.618v9.004h-2.296v-5.799h-1.133c-.733 0-1.29.164-1.673.492-.383.327-.574.802-.574 1.425 0 1.31.566 1.965 1.698 1.965.119 0 .21-.005.275-.016v1.885a8.304 8.304 0 01-.647.032c-1.143 0-2.033-.357-2.668-1.07-.637-.715-.955-1.652-.955-2.812 0-1.138.377-2.046 1.132-2.722.755-.677 1.871-1.015 3.348-1.015h1.197v-1.369h-6.89v-1.804H140z" id="Fill-35" fill="#264092" mask="url(#mask-8)"/><path d="M76.148 27.877v.564h-.632v3.354h-.71v-2.292a1.007 1.007 0 00-.185-.017c-.195 0-.34.052-.434.157-.096.105-.144.272-.144.5v.399h-.703v-.41c0-.387-.138-.581-.412-.581a.415.415 0 00-.345.169c-.087.113-.132.284-.132.514 0 .3.082.539.242.715.161.176.404.264.73.264.096 0 .17-.004.221-.012v.57a2.639 2.639 0 01-.304.018c-.48 0-.864-.144-1.15-.433-.287-.29-.43-.667-.43-1.134 0-.376.098-.68.293-.91.195-.228.463-.343.804-.343.231 0 .419.05.563.149a.619.619 0 01.271.392c.104-.384.4-.577.89-.577.07 0 .146.01.225.03v-.522h-3.457v-.564h4.799z" id="Fill-36" fill="#1B2133" mask="url(#mask-8)"/><path d="M77.149 27.877h.631v.564h-.631v3.354h-.692V28.44h-.631v-.564h.572l-.435-.641a.542.542 0 00-.483-.273c-.107 0-.225.017-.351.053v-.588c.166-.027.3-.041.404-.041.434.004.765.184.996.54l.62.95z" id="Fill-37" fill="#1B2133" mask="url(#mask-8)"/><path d="M82.52 28.44h-2.183v.73a.93.93 0 01.656-.255c.347 0 .625.105.835.314.21.21.316.481.316.814 0 .36-.12.647-.36.861-.242.213-.544.32-.91.32-.064 0-.109-.002-.137-.006v-.564c.024.004.06.006.108.006a.573.573 0 00.431-.169.6.6 0 00.165-.436.593.593 0 00-.153-.416.525.525 0 00-.408-.166.514.514 0 00-.387.163.585.585 0 00-.156.42v1.738h-.702v-.76a.93.93 0 01-.656.25c-.343 0-.62-.105-.832-.315-.212-.21-.319-.48-.319-.813 0-.36.12-.647.36-.86.242-.215.544-.322.91-.322.06 0 .105.002.137.006v.564a.704.704 0 00-.108-.006.577.577 0 00-.431.17.602.602 0 00-.164.436c0 .166.05.304.152.415a.533.533 0 00.414.167.506.506 0 00.382-.164.586.586 0 00.155-.418V28.44h-2.176v-.564h5.06v.564z" id="Fill-38" fill="#1B2133" mask="url(#mask-8)"/><path d="M86.328 26.873v.63a6.983 6.983 0 00-1.207-.416c-.42-.103-.762-.155-1.028-.155-.183 0-.323.05-.42.146a.54.54 0 00-.146.401v.397h.631v.564h-.631v3.354h-.698V28.44h-.632v-.564h.632v-.409c0-.337.11-.608.331-.814.22-.205.526-.308.915-.308.35 0 .7.044 1.05.133.349.09.75.221 1.203.395" id="Fill-39" fill="#1B2133" mask="url(#mask-8)"/><path d="M86.781 29.372h-1.49c-.175 0-.262.067-.262.203 0 .134.067.248.202.344.172-.04.348-.06.531-.06.346 0 .623.083.831.25.21.165.314.37.314.611 0 .143-.02.256-.06.338h-.685a.564.564 0 00.071-.302c0-.091-.043-.169-.129-.232-.085-.064-.205-.095-.36-.095-.227 0-.402.046-.524.137a.412.412 0 00-.185.345c0 .165.072.298.217.4.146.1.373.151.683.151.21 0 .475-.038.793-.113v.576a3.98 3.98 0 01-.83.101c-.503 0-.89-.112-1.158-.336-.268-.223-.403-.486-.403-.786 0-.305.13-.555.388-.753-.274-.159-.412-.378-.412-.66a.57.57 0 01.236-.492c.157-.115.36-.172.61-.172h.93v-.387h-2.253v-.564h3.559v.564h-.614v.932z" id="Fill-40" fill="#1B2133" mask="url(#mask-8)"/><path d="M90.972 27.877v.564h-.632v3.354h-.698v-2.191h-.477c-.607 0-.911.264-.911.79 0 .253.059.45.178.593.12.143.299.214.536.214a.76.76 0 00.114-.006v.582a2.44 2.44 0 01-.215.012c-.409 0-.73-.13-.965-.39-.235-.258-.351-.595-.351-1.011 0-.412.133-.741.401-.988.268-.248.661-.371 1.178-.371h.512v-.588h-2.568v-.564h3.898z" id="Fill-41" fill="#1B2133" mask="url(#mask-8)"/><path d="M89.684 27.316a.412.412 0 01-.12-.3.412.412 0 01.424-.421c.119 0 .22.04.304.12a.399.399 0 01.125.3.399.399 0 01-.125.3.42.42 0 01-.304.123.408.408 0 01-.304-.122" id="Fill-42" fill="#1B2133" mask="url(#mask-8)"/><path d="M93.534 29.639h1.055V28.44h-1.055v1.199zm-1.406-1.199v-.563h3.779v.563h-.632v3.354h-.686v-1.591h-1.054v.755h-.596l-.191-.422c-.112-.249-.167-.429-.167-.54 0-.17.088-.277.262-.321V28.44h-.715z" id="Fill-43" fill="#1B2133" mask="url(#mask-8)"/><path d="M96.991 29.639h1.056V28.44H96.99v1.199zm-1.405-1.199v-.563h3.778v.563h-.632v3.354h-.685v-1.591h-1.055v.755h-.596l-.19-.422c-.112-.249-.168-.429-.168-.54 0-.17.088-.277.262-.321V28.44h-.714z" id="Fill-44" fill="#1B2133" mask="url(#mask-8)"/><path d="M105.581 28.44h-2.182v.73a.93.93 0 01.656-.255c.346 0 .624.105.834.314.211.21.316.481.316.814 0 .36-.12.647-.36.861-.241.213-.543.32-.91.32-.063 0-.108-.002-.136-.006v-.564a.699.699 0 00.107.006.573.573 0 00.432-.169.6.6 0 00.164-.436.592.592 0 00-.152-.416.525.525 0 00-.409-.166.514.514 0 00-.386.163.585.585 0 00-.156.42v1.738h-.703v-.76a.93.93 0 01-.655.25c-.343 0-.62-.105-.832-.315-.213-.21-.32-.48-.32-.813 0-.36.121-.647.361-.86.241-.215.543-.322.909-.322.06 0 .105.002.138.006v.564a.704.704 0 00-.108-.006.577.577 0 00-.432.17.603.603 0 00-.164.436c0 .166.05.304.152.415a.532.532 0 00.414.167c.152 0 .28-.055.382-.164a.583.583 0 00.155-.418V28.44h-2.176v-.564h5.061v.564z" id="Fill-45" fill="#1B2133" mask="url(#mask-8)"/><path d="M105.623 30.221v-.552h.428c.41 0 .615-.164.615-.493v-.736h-1.407v-.564h2.712v.564h-.608v.778c0 .273-.074.496-.223.668-.15.172-.358.274-.624.305a.257.257 0 01-.083.012l1.24 1.591h-.84l-1.21-1.573z" id="Fill-46" fill="#1B2133" mask="url(#mask-8)"/><path d="M109.622 29.752V28.44h-.846v1.312c0 .325.14.487.417.487.287 0 .43-.162.43-.487zm2.82-1.876v.564h-.632v3.354h-.698V28.44h-.798v1.26c0 .367-.1.647-.298.84-.199.191-.477.287-.835.287-.735 0-1.102-.372-1.102-1.117v-1.27h-.43v-.564h4.793z" id="Fill-47" fill="#1B2133" mask="url(#mask-8)"/><path d="M113.443 27.877h.638v.564h-.632v3.354h-.698V28.44h-.631v-.564h.626v-.41a.51.51 0 00-.134-.377.488.488 0 00-.36-.133c-.315 0-.472.17-.472.51v.13h-.704v-.154c0-.356.112-.625.335-.807.222-.182.502-.273.84-.273.342 0 .626.09.853.27.226.18.34.448.34.805v.439z" id="Fill-48" fill="#1B2133" mask="url(#mask-8)"/><path d="M115.708 30.512c.246 0 .442-.069.587-.208.145-.138.217-.338.217-.599V28.44h-.905a.914.914 0 01.137.523c0 .482-.274.811-.823.985.048.17.14.307.277.41a.826.826 0 00.51.154m-.107.612c-.386 0-.716-.136-.992-.407-.277-.27-.445-.648-.505-1.13.632-.1.948-.318.948-.654a.69.69 0 00-.178-.493h-1.115v-.564h4.083v.564h-.632v3.354h-.698v-1.062a.825.825 0 01-.363.285 1.357 1.357 0 01-.548.107" id="Fill-49" fill="#1B2133" mask="url(#mask-8)"/><path d="M118.927 29.639h1.055V28.44h-1.055v1.199zm-1.407-1.199v-.563h3.78v.563h-.633v3.354h-.685v-1.591h-1.055v.755h-.597l-.19-.422c-.112-.249-.167-.429-.167-.54 0-.17.087-.277.262-.321V28.44h-.715z" id="Fill-50" fill="#1B2133" mask="url(#mask-8)"/><path id="Fill-51" fill="#1B2133" mask="url(#mask-8)" d="M121.573 33.207h-.84l-.721-1.02h.709z"/><path id="Fill-52" fill="#1B2133" mask="url(#mask-8)" d="M123.62 30.253h13.907v-.6h-13.908z"/><path id="Fill-53" fill="#1B2133" mask="url(#mask-8)" d="M55.643 30.253h13.908v-.6H55.643z"/></g></g></g></svg>