<?xml version="1.0" encoding="UTF-8"?>
<svg width="32px" height="32px" viewBox="0 0 32 32" version="1.1" xmlns="http://www.w3.org/2000/svg" xmlns:xlink="http://www.w3.org/1999/xlink">
    <title>Icons/others/Karma</title>
    <g id="Icons/others/Karma" stroke="none" stroke-width="1" fill="none" fill-rule="evenodd">
        <rect id="Size" fill="#D8D8D8" opacity="0" x="0" y="0" width="32" height="32"></rect>
        <path d="M15.8869609,2 C23.5869609,2 29.8870156,8.3 29.8870156,16 C29.8870156,23.7 23.5870156,30 15.8870156,30 C8.18701563,30 2.00366406,23.7 2.00366406,16 L2.00366406,16 L2.00366406,15.3 C2.35366406,7.83335156 8.4203125,2 15.8869609,2 Z M22.8870156,6.66664844 C17.7536641,2.81664844 10.4036641,3.86664844 6.55366406,9 C7.48696094,8.65 8.4203125,8.41664844 9.4703125,8.41664844 C13.6703125,8.41664844 17.0536641,11.8 17.0536641,16 C17.0536641,18.9166484 19.3870156,21.25 22.3036641,21.25 C25.2203125,21.25 27.5536641,18.9166484 27.5536641,16 C27.5536641,12.3832969 25.8036641,8.88329687 22.8870156,6.66664844 Z M22.8869609,13.6666484 C24.1756354,13.6666484 25.2203125,14.7113255 25.2203125,16 C25.2203125,17.2886745 24.1756354,18.3333516 22.8869609,18.3333516 C21.5982865,18.3333516 20.5536094,17.2886745 20.5536094,16 C20.5536094,14.7113255 21.5982865,13.6666484 22.8869609,13.6666484 Z M8.88696094,13.6666484 C7.60360938,13.6666484 6.55360938,14.7166484 6.55360938,16 C6.55360938,17.2833516 7.60360938,18.3333516 8.88696094,18.3333516 C10.1703125,18.3333516 11.2203125,17.2833516 11.2203125,16 C11.2203125,14.7166484 10.1703125,13.6666484 8.88696094,13.6666484 Z" id="Combined-Shape" fill="#293D3B"></path>
    </g>
</svg>