<?xml version="1.0" encoding="UTF-8"?>
<svg width="16px" height="16px" viewBox="0 0 16 16" version="1.1" xmlns="http://www.w3.org/2000/svg" xmlns:xlink="http://www.w3.org/1999/xlink">
    <title>Icons/others/star_empty Copy 47</title>
    <g id="Assesst-for-download-" stroke="none" stroke-width="1" fill="none" fill-rule="evenodd">
        <g id="Skeleton-Review-see-all" transform="translate(-723, -518)">
            <g id="Icons/others/star_empty-Copy-47" transform="translate(723, 518)">
                <rect id="Size" fill="#D8D8D8" opacity="0" x="0" y="0" width="16" height="16"></rect>
                <path d="M6.66666667,12.6666667 C7.03333333,12.6666667 7.33333333,12.9666667 7.33333333,13.3333333 L7.32607062,13.4315051 C7.27823691,13.7520661 7,14 6.66666667,14 L3.33333333,14 C2.96666667,14 2.66666667,13.7 2.66666667,13.3333333 L2.67392938,13.2351615 C2.72176309,12.9146006 3,12.6666667 3.33333333,12.6666667 Z M11.92,10.4733333 C12.18,10.2133333 12.6,10.2133333 12.86,10.4733333 L12.9302,10.5558133 C13.1174,10.8157333 13.094,11.1793333 12.86,11.4133333 L10.7466667,13.5266667 C10.4866667,13.7866667 10.0666667,13.7866667 9.80666667,13.5266667 L8.86,12.58 C8.6,12.32 8.6,11.9 8.86,11.64 L8.94248,11.5698 C9.2024,11.3826 9.566,11.406 9.8,11.64 L10.2733333,12.1133333 Z M6.66666667,10 C7.03333333,10 7.33333333,10.3 7.33333333,10.6666667 L7.32607062,10.7648385 C7.27823691,11.0853994 7,11.3333333 6.66666667,11.3333333 L3.33333333,11.3333333 C2.96666667,11.3333333 2.66666667,11.0333333 2.66666667,10.6666667 L2.67392938,10.5684949 C2.72176309,10.2479339 3,10 3.33333333,10 Z M12.6666667,7.33333333 C13.0333333,7.33333333 13.3333333,7.63333333 13.3333333,8 L13.3260706,8.0981718 C13.2782369,8.41873278 13,8.66666667 12.6666667,8.66666667 L3.33333333,8.66666667 C2.96666667,8.66666667 2.66666667,8.36666667 2.66666667,8 L2.67392938,7.9018282 C2.72176309,7.58126722 3,7.33333333 3.33333333,7.33333333 Z M12.6666667,4.66666667 C13,4.66666667 13.2782369,4.91460055 13.3260706,5.23516153 L13.3333333,5.33333333 C13.3333333,5.7 13.0333333,6 12.6666667,6 L3.33333333,6 C3,6 2.72176309,5.75206612 2.67392938,5.43150513 L2.66666667,5.33333333 C2.66666667,4.96666667 2.96666667,4.66666667 3.33333333,4.66666667 L12.6666667,4.66666667 Z M12.6666667,2 C13.0333333,2 13.3333333,2.3 13.3333333,2.66666667 L13.3260706,2.76483847 C13.2782369,3.08539945 13,3.33333333 12.6666667,3.33333333 L3.33333333,3.33333333 C2.96666667,3.33333333 2.66666667,3.03333333 2.66666667,2.66666667 L2.67392938,2.56849487 C2.72176309,2.24793388 3,2 3.33333333,2 Z" id="Combined-Shape" fill="#FFFFFF"></path>
            </g>
        </g>
    </g>
</svg>