<?xml version="1.0" encoding="UTF-8"?>
<svg width="16px" height="16px" viewBox="0 0 16 16" version="1.1" xmlns="http://www.w3.org/2000/svg" xmlns:xlink="http://www.w3.org/1999/xlink">
    <title>content_copy</title>
    <g id="Assesst-for-download-" stroke="none" stroke-width="1" fill="none" fill-rule="evenodd">
        <g id="Skeleton-Review-see-all" transform="translate(-757, -518)" fill-rule="nonzero">
            <g id="content_copy" transform="translate(757, 518)">
                <rect id="Size" fill="#D8D8D8" opacity="0" x="0" y="0" width="16" height="16"></rect>
                <path d="M10.6666667,0.666666667 L2.66666667,0.666666667 C1.93333333,0.666666667 1.33333333,1.26666667 1.33333333,2 L1.33333333,11.3333333 L2.66666667,11.3333333 L2.66666667,2 L10.6666667,2 L10.6666667,0.666666667 Z M12.6666667,3.33333333 L5.33333333,3.33333333 C4.6,3.33333333 4,3.93333333 4,4.66666667 L4,14 C4,14.7333333 4.6,15.3333333 5.33333333,15.3333333 L12.6666667,15.3333333 C13.4,15.3333333 14,14.7333333 14,14 L14,4.66666667 C14,3.93333333 13.4,3.33333333 12.6666667,3.33333333 Z M12.6666667,14 L5.33333333,14 L5.33333333,4.66666667 L12.6666667,4.66666667 L12.6666667,14 Z" id="Shape" fill="#FFFFFF"></path>
            </g>
        </g>
    </g>
</svg>