<?xml version="1.0" encoding="UTF-8"?>
<svg width="16px" height="16px" viewBox="0 0 16 16" version="1.1" xmlns="http://www.w3.org/2000/svg" xmlns:xlink="http://www.w3.org/1999/xlink">
    <title>Icons/others/star_empty Copy 18</title>
    <g id="Assesst-for-download-" stroke="none" stroke-width="1" fill="none" fill-rule="evenodd">
        <g id="Skeleton-Review-see-all" transform="translate(-701, -487)">
            <g id="Icons/others/star_empty-Copy-18" transform="translate(701, 487)">
                <rect id="Size" fill="#D8D8D8" opacity="0" x="0" y="0" width="16" height="16"></rect>
                <path d="M13.3333333,4 L13.3333333,12 C13.3333333,12.3666667 13.6333333,12.6666667 14,12.6666667 C14.3666667,12.6666667 14.6666667,12.3666667 14.6666667,12 L14.6666667,4 C14.6666667,3.63333333 14.3666667,3.33333333 14,3.33333333 C13.6333333,3.33333333 13.3333333,3.63333333 13.3333333,4 Z M11.3333333,12.6666667 C11.7,12.6666667 12,12.3666667 12,12 L12,4 C12,3.63333333 11.7,3.33333333 11.3333333,3.33333333 C10.9666667,3.33333333 10.6666667,3.63333333 10.6666667,4 L10.6666667,12 C10.6666667,12.3666667 10.9666667,12.6666667 11.3333333,12.6666667 Z M8.76190476,3.33333333 L1.9047619,3.33333333 C1.59047619,3.33333333 1.33333333,3.63333333 1.33333333,4 L1.33333333,12 C1.33333333,12.3666667 1.59047619,12.6666667 1.9047619,12.6666667 L8.76190476,12.6666667 C9.07619048,12.6666667 9.33333333,12.3666667 9.33333333,12 L9.33333333,4 C9.33333333,3.63333333 9.07619048,3.33333333 8.76190476,3.33333333 Z" id="Shape" fill="#FFFFFF"></path>
            </g>
        </g>
    </g>
</svg>