<?xml version="1.0" encoding="UTF-8"?>
<svg width="16px" height="16px" viewBox="0 0 16 16" version="1.1" xmlns="http://www.w3.org/2000/svg" xmlns:xlink="http://www.w3.org/1999/xlink">
    <title>Icons/others/star_empty Copy 17</title>
    <g id="Assesst-for-download-" stroke="none" stroke-width="1" fill="none" fill-rule="evenodd">
        <g id="Skeleton-Review-see-all" transform="translate(-793, -487)">
            <g id="Icons/others/star_empty-Copy-17" transform="translate(793, 487)">
                <rect id="Size" fill="#D8D8D8" opacity="0" x="0" y="0" width="16" height="16"></rect>
                <path d="M12,2.66666667 L4,2.66666667 C3.26666667,2.66666667 2.66666667,3.26666667 2.66666667,4 L2.66666667,12 C2.66666667,12.7333333 3.26666667,13.3333333 4,13.3333333 L12,13.3333333 C12.7333333,13.3333333 13.3333333,12.7333333 13.3333333,12 L13.3333333,4 C13.3333333,3.26666667 12.7333333,2.66666667 12,2.66666667 Z M6.33333333,7.66666667 C6.33333333,8.22 5.88666667,8.66666667 5.33333333,8.66666667 L4.66666667,8.66666667 L4.66666667,9.5 C4.66666667,9.77333333 4.44,10 4.16666667,10 C3.89333333,10 3.66666667,9.77333333 3.66666667,9.5 L3.66666667,6.66666667 C3.66666667,6.3 3.96666667,6 4.33333333,6 L5.33333333,6 C5.88666667,6 6.33333333,6.44666667 6.33333333,7 L6.33333333,7.66666667 Z M9.66666667,9 C9.66666667,9.55333333 9.22,10 8.66666667,10 L7.33333333,10 C7.14666667,10 7,9.85333333 7,9.66666667 L7,6.33333333 C7,6.14666667 7.14666667,6 7.33333333,6 L8.66666667,6 C9.22,6 9.66666667,6.44666667 9.66666667,7 L9.66666667,9 Z M12.3333333,6.5 C12.3333333,6.77333333 12.1066667,7 11.8333333,7 L11.3333333,7 L11.3333333,7.66666667 L11.8333333,7.66666667 C12.1066667,7.66666667 12.3333333,7.89333333 12.3333333,8.16666667 C12.3333333,8.44 12.1066667,8.66666667 11.8333333,8.66666667 L11.3333333,8.66666667 L11.3333333,9.5 C11.3333333,9.77333333 11.1066667,10 10.8333333,10 C10.56,10 10.3333333,9.77333333 10.3333333,9.5 L10.3333333,6.66666667 C10.3333333,6.3 10.6333333,6 11,6 L11.8333333,6 C12.1066667,6 12.3333333,6.22666667 12.3333333,6.5 Z M4.66666667,7.66666667 L5.33333333,7.66666667 L5.33333333,7 L4.66666667,7 L4.66666667,7.66666667 Z M8,9 L8.66666667,9 L8.66666667,7 L8,7 L8,9 Z" id="Shape" fill="#FFFFFF"></path>
            </g>
        </g>
    </g>
</svg>