<?xml version="1.0" encoding="UTF-8"?>
<svg width="104px" height="104px" viewBox="0 0 104 104" version="1.1" xmlns="http://www.w3.org/2000/svg" xmlns:xlink="http://www.w3.org/1999/xlink">
    <title>Group 2@2x</title>
    <g id="UI-Elements-for-Dev." stroke="none" stroke-width="1" fill="none" fill-rule="evenodd">
        <g id="UI-Elements" transform="translate(-1309, -178)" fill-rule="nonzero">
            <g id="Group-2" transform="translate(1309, 178)">
                <rect id="Rectangle" fill="#FFFFFF" x="0" y="0" width="104" height="104"></rect>
                <path d="M3.35483871,3.35483871 L6.70967742,3.35483871 L6.70967742,6.70967742 L3.35483871,6.70967742 L3.35483871,3.35483871 Z M6.70967742,3.35483871 L10.0645161,3.35483871 L10.0645161,6.70967742 L6.70967742,6.70967742 L6.70967742,3.35483871 Z M10.0645161,3.35483871 L13.4193548,3.35483871 L13.4193548,6.70967742 L10.0645161,6.70967742 L10.0645161,3.35483871 Z M13.4193548,3.35483871 L16.7741935,3.35483871 L16.7741935,6.70967742 L13.4193548,6.70967742 L13.4193548,3.35483871 Z M16.7741935,3.35483871 L20.1290323,3.35483871 L20.1290323,6.70967742 L16.7741935,6.70967742 L16.7741935,3.35483871 Z M20.1290323,3.35483871 L23.483871,3.35483871 L23.483871,6.70967742 L20.1290323,6.70967742 L20.1290323,3.35483871 Z M23.483871,3.35483871 L26.8387097,3.35483871 L26.8387097,6.70967742 L23.483871,6.70967742 L23.483871,3.35483871 Z M33.5483871,3.35483871 L36.9032258,3.35483871 L36.9032258,6.70967742 L33.5483871,6.70967742 L33.5483871,3.35483871 Z M40.2580645,3.35483871 L43.6129032,3.35483871 L43.6129032,6.70967742 L40.2580645,6.70967742 L40.2580645,3.35483871 Z M57.0322581,3.35483871 L60.3870968,3.35483871 L60.3870968,6.70967742 L57.0322581,6.70967742 L57.0322581,3.35483871 Z M60.3870968,3.35483871 L63.7419355,3.35483871 L63.7419355,6.70967742 L60.3870968,6.70967742 L60.3870968,3.35483871 Z M63.7419355,3.35483871 L67.0967742,3.35483871 L67.0967742,6.70967742 L63.7419355,6.70967742 L63.7419355,3.35483871 Z M67.0967742,3.35483871 L70.4516129,3.35483871 L70.4516129,6.70967742 L67.0967742,6.70967742 L67.0967742,3.35483871 Z M77.1612903,3.35483871 L80.516129,3.35483871 L80.516129,6.70967742 L77.1612903,6.70967742 L77.1612903,3.35483871 Z M80.516129,3.35483871 L83.8709677,3.35483871 L83.8709677,6.70967742 L80.516129,6.70967742 L80.516129,3.35483871 Z M83.8709677,3.35483871 L87.2258065,3.35483871 L87.2258065,6.70967742 L83.8709677,6.70967742 L83.8709677,3.35483871 Z M87.2258065,3.35483871 L90.5806452,3.35483871 L90.5806452,6.70967742 L87.2258065,6.70967742 L87.2258065,3.35483871 Z M90.5806452,3.35483871 L93.9354839,3.35483871 L93.9354839,6.70967742 L90.5806452,6.70967742 L90.5806452,3.35483871 Z M93.9354839,3.35483871 L97.2903226,3.35483871 L97.2903226,6.70967742 L93.9354839,6.70967742 L93.9354839,3.35483871 Z M97.2903226,3.35483871 L100.645161,3.35483871 L100.645161,6.70967742 L97.2903226,6.70967742 L97.2903226,3.35483871 Z M3.35483871,6.70967742 L6.70967742,6.70967742 L6.70967742,10.0645161 L3.35483871,10.0645161 L3.35483871,6.70967742 Z M23.483871,6.70967742 L26.8387097,6.70967742 L26.8387097,10.0645161 L23.483871,10.0645161 L23.483871,6.70967742 Z M30.1935484,6.70967742 L33.5483871,6.70967742 L33.5483871,10.0645161 L30.1935484,10.0645161 L30.1935484,6.70967742 Z M43.6129032,6.70967742 L46.9677419,6.70967742 L46.9677419,10.0645161 L43.6129032,10.0645161 L43.6129032,6.70967742 Z M53.6774194,6.70967742 L57.0322581,6.70967742 L57.0322581,10.0645161 L53.6774194,10.0645161 L53.6774194,6.70967742 Z M57.0322581,6.70967742 L60.3870968,6.70967742 L60.3870968,10.0645161 L57.0322581,10.0645161 L57.0322581,6.70967742 Z M60.3870968,6.70967742 L63.7419355,6.70967742 L63.7419355,10.0645161 L60.3870968,10.0645161 L60.3870968,6.70967742 Z M70.4516129,6.70967742 L73.8064516,6.70967742 L73.8064516,10.0645161 L70.4516129,10.0645161 L70.4516129,6.70967742 Z M77.1612903,6.70967742 L80.516129,6.70967742 L80.516129,10.0645161 L77.1612903,10.0645161 L77.1612903,6.70967742 Z M97.2903226,6.70967742 L100.645161,6.70967742 L100.645161,10.0645161 L97.2903226,10.0645161 L97.2903226,6.70967742 Z M3.35483871,10.0645161 L6.70967742,10.0645161 L6.70967742,13.4193548 L3.35483871,13.4193548 L3.35483871,10.0645161 Z M10.0645161,10.0645161 L13.4193548,10.0645161 L13.4193548,13.4193548 L10.0645161,13.4193548 L10.0645161,10.0645161 Z M13.4193548,10.0645161 L16.7741935,10.0645161 L16.7741935,13.4193548 L13.4193548,13.4193548 L13.4193548,10.0645161 Z M16.7741935,10.0645161 L20.1290323,10.0645161 L20.1290323,13.4193548 L16.7741935,13.4193548 L16.7741935,10.0645161 Z M23.483871,10.0645161 L26.8387097,10.0645161 L26.8387097,13.4193548 L23.483871,13.4193548 L23.483871,10.0645161 Z M50.3225806,10.0645161 L53.6774194,10.0645161 L53.6774194,13.4193548 L50.3225806,13.4193548 L50.3225806,10.0645161 Z M70.4516129,10.0645161 L73.8064516,10.0645161 L73.8064516,13.4193548 L70.4516129,13.4193548 L70.4516129,10.0645161 Z M77.1612903,10.0645161 L80.516129,10.0645161 L80.516129,13.4193548 L77.1612903,13.4193548 L77.1612903,10.0645161 Z M83.8709677,10.0645161 L87.2258065,10.0645161 L87.2258065,13.4193548 L83.8709677,13.4193548 L83.8709677,10.0645161 Z M87.2258065,10.0645161 L90.5806452,10.0645161 L90.5806452,13.4193548 L87.2258065,13.4193548 L87.2258065,10.0645161 Z M90.5806452,10.0645161 L93.9354839,10.0645161 L93.9354839,13.4193548 L90.5806452,13.4193548 L90.5806452,10.0645161 Z M97.2903226,10.0645161 L100.645161,10.0645161 L100.645161,13.4193548 L97.2903226,13.4193548 L97.2903226,10.0645161 Z M3.35483871,13.4193548 L6.70967742,13.4193548 L6.70967742,16.7741935 L3.35483871,16.7741935 L3.35483871,13.4193548 Z M10.0645161,13.4193548 L13.4193548,13.4193548 L13.4193548,16.7741935 L10.0645161,16.7741935 L10.0645161,13.4193548 Z M13.4193548,13.4193548 L16.7741935,13.4193548 L16.7741935,16.7741935 L13.4193548,16.7741935 L13.4193548,13.4193548 Z M16.7741935,13.4193548 L20.1290323,13.4193548 L20.1290323,16.7741935 L16.7741935,16.7741935 L16.7741935,13.4193548 Z M23.483871,13.4193548 L26.8387097,13.4193548 L26.8387097,16.7741935 L23.483871,16.7741935 L23.483871,13.4193548 Z M30.1935484,13.4193548 L33.5483871,13.4193548 L33.5483871,16.7741935 L30.1935484,16.7741935 L30.1935484,13.4193548 Z M43.6129032,13.4193548 L46.9677419,13.4193548 L46.9677419,16.7741935 L43.6129032,16.7741935 L43.6129032,13.4193548 Z M46.9677419,13.4193548 L50.3225806,13.4193548 L50.3225806,16.7741935 L46.9677419,16.7741935 L46.9677419,13.4193548 Z M50.3225806,13.4193548 L53.6774194,13.4193548 L53.6774194,16.7741935 L50.3225806,16.7741935 L50.3225806,13.4193548 Z M60.3870968,13.4193548 L63.7419355,13.4193548 L63.7419355,16.7741935 L60.3870968,16.7741935 L60.3870968,13.4193548 Z M67.0967742,13.4193548 L70.4516129,13.4193548 L70.4516129,16.7741935 L67.0967742,16.7741935 L67.0967742,13.4193548 Z M77.1612903,13.4193548 L80.516129,13.4193548 L80.516129,16.7741935 L77.1612903,16.7741935 L77.1612903,13.4193548 Z M83.8709677,13.4193548 L87.2258065,13.4193548 L87.2258065,16.7741935 L83.8709677,16.7741935 L83.8709677,13.4193548 Z M87.2258065,13.4193548 L90.5806452,13.4193548 L90.5806452,16.7741935 L87.2258065,16.7741935 L87.2258065,13.4193548 Z M90.5806452,13.4193548 L93.9354839,13.4193548 L93.9354839,16.7741935 L90.5806452,16.7741935 L90.5806452,13.4193548 Z M97.2903226,13.4193548 L100.645161,13.4193548 L100.645161,16.7741935 L97.2903226,16.7741935 L97.2903226,13.4193548 Z M3.35483871,16.7741935 L6.70967742,16.7741935 L6.70967742,20.1290323 L3.35483871,20.1290323 L3.35483871,16.7741935 Z M10.0645161,16.7741935 L13.4193548,16.7741935 L13.4193548,20.1290323 L10.0645161,20.1290323 L10.0645161,16.7741935 Z M13.4193548,16.7741935 L16.7741935,16.7741935 L16.7741935,20.1290323 L13.4193548,20.1290323 L13.4193548,16.7741935 Z M16.7741935,16.7741935 L20.1290323,16.7741935 L20.1290323,20.1290323 L16.7741935,20.1290323 L16.7741935,16.7741935 Z M23.483871,16.7741935 L26.8387097,16.7741935 L26.8387097,20.1290323 L23.483871,20.1290323 L23.483871,16.7741935 Z M36.9032258,16.7741935 L40.2580645,16.7741935 L40.2580645,20.1290323 L36.9032258,20.1290323 L36.9032258,16.7741935 Z M43.6129032,16.7741935 L46.9677419,16.7741935 L46.9677419,20.1290323 L43.6129032,20.1290323 L43.6129032,16.7741935 Z M50.3225806,16.7741935 L53.6774194,16.7741935 L53.6774194,20.1290323 L50.3225806,20.1290323 L50.3225806,16.7741935 Z M57.0322581,16.7741935 L60.3870968,16.7741935 L60.3870968,20.1290323 L57.0322581,20.1290323 L57.0322581,16.7741935 Z M60.3870968,16.7741935 L63.7419355,16.7741935 L63.7419355,20.1290323 L60.3870968,20.1290323 L60.3870968,16.7741935 Z M63.7419355,16.7741935 L67.0967742,16.7741935 L67.0967742,20.1290323 L63.7419355,20.1290323 L63.7419355,16.7741935 Z M67.0967742,16.7741935 L70.4516129,16.7741935 L70.4516129,20.1290323 L67.0967742,20.1290323 L67.0967742,16.7741935 Z M70.4516129,16.7741935 L73.8064516,16.7741935 L73.8064516,20.1290323 L70.4516129,20.1290323 L70.4516129,16.7741935 Z M77.1612903,16.7741935 L80.516129,16.7741935 L80.516129,20.1290323 L77.1612903,20.1290323 L77.1612903,16.7741935 Z M83.8709677,16.7741935 L87.2258065,16.7741935 L87.2258065,20.1290323 L83.8709677,20.1290323 L83.8709677,16.7741935 Z M87.2258065,16.7741935 L90.5806452,16.7741935 L90.5806452,20.1290323 L87.2258065,20.1290323 L87.2258065,16.7741935 Z M90.5806452,16.7741935 L93.9354839,16.7741935 L93.9354839,20.1290323 L90.5806452,20.1290323 L90.5806452,16.7741935 Z M97.2903226,16.7741935 L100.645161,16.7741935 L100.645161,20.1290323 L97.2903226,20.1290323 L97.2903226,16.7741935 Z M3.35483871,20.1290323 L6.70967742,20.1290323 L6.70967742,23.483871 L3.35483871,23.483871 L3.35483871,20.1290323 Z M23.483871,20.1290323 L26.8387097,20.1290323 L26.8387097,23.483871 L23.483871,23.483871 L23.483871,20.1290323 Z M30.1935484,20.1290323 L33.5483871,20.1290323 L33.5483871,23.483871 L30.1935484,23.483871 L30.1935484,20.1290323 Z M40.2580645,20.1290323 L43.6129032,20.1290323 L43.6129032,23.483871 L40.2580645,23.483871 L40.2580645,20.1290323 Z M43.6129032,20.1290323 L46.9677419,20.1290323 L46.9677419,23.483871 L43.6129032,23.483871 L43.6129032,20.1290323 Z M46.9677419,20.1290323 L50.3225806,20.1290323 L50.3225806,23.483871 L46.9677419,23.483871 L46.9677419,20.1290323 Z M53.6774194,20.1290323 L57.0322581,20.1290323 L57.0322581,23.483871 L53.6774194,23.483871 L53.6774194,20.1290323 Z M57.0322581,20.1290323 L60.3870968,20.1290323 L60.3870968,23.483871 L57.0322581,23.483871 L57.0322581,20.1290323 Z M63.7419355,20.1290323 L67.0967742,20.1290323 L67.0967742,23.483871 L63.7419355,23.483871 L63.7419355,20.1290323 Z M70.4516129,20.1290323 L73.8064516,20.1290323 L73.8064516,23.483871 L70.4516129,23.483871 L70.4516129,20.1290323 Z M77.1612903,20.1290323 L80.516129,20.1290323 L80.516129,23.483871 L77.1612903,23.483871 L77.1612903,20.1290323 Z M97.2903226,20.1290323 L100.645161,20.1290323 L100.645161,23.483871 L97.2903226,23.483871 L97.2903226,20.1290323 Z M3.35483871,23.483871 L6.70967742,23.483871 L6.70967742,26.8387097 L3.35483871,26.8387097 L3.35483871,23.483871 Z M6.70967742,23.483871 L10.0645161,23.483871 L10.0645161,26.8387097 L6.70967742,26.8387097 L6.70967742,23.483871 Z M10.0645161,23.483871 L13.4193548,23.483871 L13.4193548,26.8387097 L10.0645161,26.8387097 L10.0645161,23.483871 Z M13.4193548,23.483871 L16.7741935,23.483871 L16.7741935,26.8387097 L13.4193548,26.8387097 L13.4193548,23.483871 Z M16.7741935,23.483871 L20.1290323,23.483871 L20.1290323,26.8387097 L16.7741935,26.8387097 L16.7741935,23.483871 Z M20.1290323,23.483871 L23.483871,23.483871 L23.483871,26.8387097 L20.1290323,26.8387097 L20.1290323,23.483871 Z M23.483871,23.483871 L26.8387097,23.483871 L26.8387097,26.8387097 L23.483871,26.8387097 L23.483871,23.483871 Z M30.1935484,23.483871 L33.5483871,23.483871 L33.5483871,26.8387097 L30.1935484,26.8387097 L30.1935484,23.483871 Z M36.9032258,23.483871 L40.2580645,23.483871 L40.2580645,26.8387097 L36.9032258,26.8387097 L36.9032258,23.483871 Z M43.6129032,23.483871 L46.9677419,23.483871 L46.9677419,26.8387097 L43.6129032,26.8387097 L43.6129032,23.483871 Z M50.3225806,23.483871 L53.6774194,23.483871 L53.6774194,26.8387097 L50.3225806,26.8387097 L50.3225806,23.483871 Z M57.0322581,23.483871 L60.3870968,23.483871 L60.3870968,26.8387097 L57.0322581,26.8387097 L57.0322581,23.483871 Z M63.7419355,23.483871 L67.0967742,23.483871 L67.0967742,26.8387097 L63.7419355,26.8387097 L63.7419355,23.483871 Z M70.4516129,23.483871 L73.8064516,23.483871 L73.8064516,26.8387097 L70.4516129,26.8387097 L70.4516129,23.483871 Z M77.1612903,23.483871 L80.516129,23.483871 L80.516129,26.8387097 L77.1612903,26.8387097 L77.1612903,23.483871 Z M80.516129,23.483871 L83.8709677,23.483871 L83.8709677,26.8387097 L80.516129,26.8387097 L80.516129,23.483871 Z M83.8709677,23.483871 L87.2258065,23.483871 L87.2258065,26.8387097 L83.8709677,26.8387097 L83.8709677,23.483871 Z M87.2258065,23.483871 L90.5806452,23.483871 L90.5806452,26.8387097 L87.2258065,26.8387097 L87.2258065,23.483871 Z M90.5806452,23.483871 L93.9354839,23.483871 L93.9354839,26.8387097 L90.5806452,26.8387097 L90.5806452,23.483871 Z M93.9354839,23.483871 L97.2903226,23.483871 L97.2903226,26.8387097 L93.9354839,26.8387097 L93.9354839,23.483871 Z M97.2903226,23.483871 L100.645161,23.483871 L100.645161,26.8387097 L97.2903226,26.8387097 L97.2903226,23.483871 Z M33.5483871,26.8387097 L36.9032258,26.8387097 L36.9032258,30.1935484 L33.5483871,30.1935484 L33.5483871,26.8387097 Z M36.9032258,26.8387097 L40.2580645,26.8387097 L40.2580645,30.1935484 L36.9032258,30.1935484 L36.9032258,26.8387097 Z M40.2580645,26.8387097 L43.6129032,26.8387097 L43.6129032,30.1935484 L40.2580645,30.1935484 L40.2580645,26.8387097 Z M43.6129032,26.8387097 L46.9677419,26.8387097 L46.9677419,30.1935484 L43.6129032,30.1935484 L43.6129032,26.8387097 Z M53.6774194,26.8387097 L57.0322581,26.8387097 L57.0322581,30.1935484 L53.6774194,30.1935484 L53.6774194,26.8387097 Z M57.0322581,26.8387097 L60.3870968,26.8387097 L60.3870968,30.1935484 L57.0322581,30.1935484 L57.0322581,26.8387097 Z M67.0967742,26.8387097 L70.4516129,26.8387097 L70.4516129,30.1935484 L67.0967742,30.1935484 L67.0967742,26.8387097 Z M70.4516129,26.8387097 L73.8064516,26.8387097 L73.8064516,30.1935484 L70.4516129,30.1935484 L70.4516129,26.8387097 Z M3.35483871,30.1935484 L6.70967742,30.1935484 L6.70967742,33.5483871 L3.35483871,33.5483871 L3.35483871,30.1935484 Z M6.70967742,30.1935484 L10.0645161,30.1935484 L10.0645161,33.5483871 L6.70967742,33.5483871 L6.70967742,30.1935484 Z M10.0645161,30.1935484 L13.4193548,30.1935484 L13.4193548,33.5483871 L10.0645161,33.5483871 L10.0645161,30.1935484 Z M13.4193548,30.1935484 L16.7741935,30.1935484 L16.7741935,33.5483871 L13.4193548,33.5483871 L13.4193548,30.1935484 Z M16.7741935,30.1935484 L20.1290323,30.1935484 L20.1290323,33.5483871 L16.7741935,33.5483871 L16.7741935,30.1935484 Z M23.483871,30.1935484 L26.8387097,30.1935484 L26.8387097,33.5483871 L23.483871,33.5483871 L23.483871,30.1935484 Z M26.8387097,30.1935484 L30.1935484,30.1935484 L30.1935484,33.5483871 L26.8387097,33.5483871 L26.8387097,30.1935484 Z M30.1935484,30.1935484 L33.5483871,30.1935484 L33.5483871,33.5483871 L30.1935484,33.5483871 L30.1935484,30.1935484 Z M33.5483871,30.1935484 L36.9032258,30.1935484 L36.9032258,33.5483871 L33.5483871,33.5483871 L33.5483871,30.1935484 Z M36.9032258,30.1935484 L40.2580645,30.1935484 L40.2580645,33.5483871 L36.9032258,33.5483871 L36.9032258,30.1935484 Z M40.2580645,30.1935484 L43.6129032,30.1935484 L43.6129032,33.5483871 L40.2580645,33.5483871 L40.2580645,30.1935484 Z M43.6129032,30.1935484 L46.9677419,30.1935484 L46.9677419,33.5483871 L43.6129032,33.5483871 L43.6129032,30.1935484 Z M46.9677419,30.1935484 L50.3225806,30.1935484 L50.3225806,33.5483871 L46.9677419,33.5483871 L46.9677419,30.1935484 Z M50.3225806,30.1935484 L53.6774194,30.1935484 L53.6774194,33.5483871 L50.3225806,33.5483871 L50.3225806,30.1935484 Z M60.3870968,30.1935484 L63.7419355,30.1935484 L63.7419355,33.5483871 L60.3870968,33.5483871 L60.3870968,30.1935484 Z M67.0967742,30.1935484 L70.4516129,30.1935484 L70.4516129,33.5483871 L67.0967742,33.5483871 L67.0967742,30.1935484 Z M73.8064516,30.1935484 L77.1612903,30.1935484 L77.1612903,33.5483871 L73.8064516,33.5483871 L73.8064516,30.1935484 Z M80.516129,30.1935484 L83.8709677,30.1935484 L83.8709677,33.5483871 L80.516129,33.5483871 L80.516129,30.1935484 Z M87.2258065,30.1935484 L90.5806452,30.1935484 L90.5806452,33.5483871 L87.2258065,33.5483871 L87.2258065,30.1935484 Z M93.9354839,30.1935484 L97.2903226,30.1935484 L97.2903226,33.5483871 L93.9354839,33.5483871 L93.9354839,30.1935484 Z M10.0645161,33.5483871 L13.4193548,33.5483871 L13.4193548,36.9032258 L10.0645161,36.9032258 L10.0645161,33.5483871 Z M13.4193548,33.5483871 L16.7741935,33.5483871 L16.7741935,36.9032258 L13.4193548,36.9032258 L13.4193548,33.5483871 Z M16.7741935,33.5483871 L20.1290323,33.5483871 L20.1290323,36.9032258 L16.7741935,36.9032258 L16.7741935,33.5483871 Z M20.1290323,33.5483871 L23.483871,33.5483871 L23.483871,36.9032258 L20.1290323,36.9032258 L20.1290323,33.5483871 Z M26.8387097,33.5483871 L30.1935484,33.5483871 L30.1935484,36.9032258 L26.8387097,36.9032258 L26.8387097,33.5483871 Z M33.5483871,33.5483871 L36.9032258,33.5483871 L36.9032258,36.9032258 L33.5483871,36.9032258 L33.5483871,33.5483871 Z M36.9032258,33.5483871 L40.2580645,33.5483871 L40.2580645,36.9032258 L36.9032258,36.9032258 L36.9032258,33.5483871 Z M40.2580645,33.5483871 L43.6129032,33.5483871 L43.6129032,36.9032258 L40.2580645,36.9032258 L40.2580645,33.5483871 Z M43.6129032,33.5483871 L46.9677419,33.5483871 L46.9677419,36.9032258 L43.6129032,36.9032258 L43.6129032,33.5483871 Z M46.9677419,33.5483871 L50.3225806,33.5483871 L50.3225806,36.9032258 L46.9677419,36.9032258 L46.9677419,33.5483871 Z M60.3870968,33.5483871 L63.7419355,33.5483871 L63.7419355,36.9032258 L60.3870968,36.9032258 L60.3870968,33.5483871 Z M63.7419355,33.5483871 L67.0967742,33.5483871 L67.0967742,36.9032258 L63.7419355,36.9032258 L63.7419355,33.5483871 Z M67.0967742,33.5483871 L70.4516129,33.5483871 L70.4516129,36.9032258 L67.0967742,36.9032258 L67.0967742,33.5483871 Z M70.4516129,33.5483871 L73.8064516,33.5483871 L73.8064516,36.9032258 L70.4516129,36.9032258 L70.4516129,33.5483871 Z M73.8064516,33.5483871 L77.1612903,33.5483871 L77.1612903,36.9032258 L73.8064516,36.9032258 L73.8064516,33.5483871 Z M77.1612903,33.5483871 L80.516129,33.5483871 L80.516129,36.9032258 L77.1612903,36.9032258 L77.1612903,33.5483871 Z M83.8709677,33.5483871 L87.2258065,33.5483871 L87.2258065,36.9032258 L83.8709677,36.9032258 L83.8709677,33.5483871 Z M97.2903226,33.5483871 L100.645161,33.5483871 L100.645161,36.9032258 L97.2903226,36.9032258 L97.2903226,33.5483871 Z M3.35483871,36.9032258 L6.70967742,36.9032258 L6.70967742,40.2580645 L3.35483871,40.2580645 L3.35483871,36.9032258 Z M13.4193548,36.9032258 L16.7741935,36.9032258 L16.7741935,40.2580645 L13.4193548,40.2580645 L13.4193548,36.9032258 Z M16.7741935,36.9032258 L20.1290323,36.9032258 L20.1290323,40.2580645 L16.7741935,40.2580645 L16.7741935,36.9032258 Z M23.483871,36.9032258 L26.8387097,36.9032258 L26.8387097,40.2580645 L23.483871,40.2580645 L23.483871,36.9032258 Z M26.8387097,36.9032258 L30.1935484,36.9032258 L30.1935484,40.2580645 L26.8387097,40.2580645 L26.8387097,36.9032258 Z M30.1935484,36.9032258 L33.5483871,36.9032258 L33.5483871,40.2580645 L30.1935484,40.2580645 L30.1935484,36.9032258 Z M33.5483871,36.9032258 L36.9032258,36.9032258 L36.9032258,40.2580645 L33.5483871,40.2580645 L33.5483871,36.9032258 Z M43.6129032,36.9032258 L46.9677419,36.9032258 L46.9677419,40.2580645 L43.6129032,40.2580645 L43.6129032,36.9032258 Z M50.3225806,36.9032258 L53.6774194,36.9032258 L53.6774194,40.2580645 L50.3225806,40.2580645 L50.3225806,36.9032258 Z M53.6774194,36.9032258 L57.0322581,36.9032258 L57.0322581,40.2580645 L53.6774194,40.2580645 L53.6774194,36.9032258 Z M60.3870968,36.9032258 L63.7419355,36.9032258 L63.7419355,40.2580645 L60.3870968,40.2580645 L60.3870968,36.9032258 Z M70.4516129,36.9032258 L73.8064516,36.9032258 L73.8064516,40.2580645 L70.4516129,40.2580645 L70.4516129,36.9032258 Z M77.1612903,36.9032258 L80.516129,36.9032258 L80.516129,40.2580645 L77.1612903,40.2580645 L77.1612903,36.9032258 Z M80.516129,36.9032258 L83.8709677,36.9032258 L83.8709677,40.2580645 L80.516129,40.2580645 L80.516129,36.9032258 Z M6.70967742,40.2580645 L10.0645161,40.2580645 L10.0645161,43.6129032 L6.70967742,43.6129032 L6.70967742,40.2580645 Z M20.1290323,40.2580645 L23.483871,40.2580645 L23.483871,43.6129032 L20.1290323,43.6129032 L20.1290323,40.2580645 Z M33.5483871,40.2580645 L36.9032258,40.2580645 L36.9032258,43.6129032 L33.5483871,43.6129032 L33.5483871,40.2580645 Z M36.9032258,40.2580645 L40.2580645,40.2580645 L40.2580645,43.6129032 L36.9032258,43.6129032 L36.9032258,40.2580645 Z M43.6129032,40.2580645 L46.9677419,40.2580645 L46.9677419,43.6129032 L43.6129032,43.6129032 L43.6129032,40.2580645 Z M50.3225806,40.2580645 L53.6774194,40.2580645 L53.6774194,43.6129032 L50.3225806,43.6129032 L50.3225806,40.2580645 Z M53.6774194,40.2580645 L57.0322581,40.2580645 L57.0322581,43.6129032 L53.6774194,43.6129032 L53.6774194,40.2580645 Z M57.0322581,40.2580645 L60.3870968,40.2580645 L60.3870968,43.6129032 L57.0322581,43.6129032 L57.0322581,40.2580645 Z M63.7419355,40.2580645 L67.0967742,40.2580645 L67.0967742,43.6129032 L63.7419355,43.6129032 L63.7419355,40.2580645 Z M67.0967742,40.2580645 L70.4516129,40.2580645 L70.4516129,43.6129032 L67.0967742,43.6129032 L67.0967742,40.2580645 Z M73.8064516,40.2580645 L77.1612903,40.2580645 L77.1612903,43.6129032 L73.8064516,43.6129032 L73.8064516,40.2580645 Z M77.1612903,40.2580645 L80.516129,40.2580645 L80.516129,43.6129032 L77.1612903,43.6129032 L77.1612903,40.2580645 Z M83.8709677,40.2580645 L87.2258065,40.2580645 L87.2258065,43.6129032 L83.8709677,43.6129032 L83.8709677,40.2580645 Z M87.2258065,40.2580645 L90.5806452,40.2580645 L90.5806452,43.6129032 L87.2258065,43.6129032 L87.2258065,40.2580645 Z M93.9354839,40.2580645 L97.2903226,40.2580645 L97.2903226,43.6129032 L93.9354839,43.6129032 L93.9354839,40.2580645 Z M13.4193548,43.6129032 L16.7741935,43.6129032 L16.7741935,46.9677419 L13.4193548,46.9677419 L13.4193548,43.6129032 Z M23.483871,43.6129032 L26.8387097,43.6129032 L26.8387097,46.9677419 L23.483871,46.9677419 L23.483871,43.6129032 Z M30.1935484,43.6129032 L33.5483871,43.6129032 L33.5483871,46.9677419 L30.1935484,46.9677419 L30.1935484,43.6129032 Z M33.5483871,43.6129032 L36.9032258,43.6129032 L36.9032258,46.9677419 L33.5483871,46.9677419 L33.5483871,43.6129032 Z M46.9677419,43.6129032 L50.3225806,43.6129032 L50.3225806,46.9677419 L46.9677419,46.9677419 L46.9677419,43.6129032 Z M50.3225806,43.6129032 L53.6774194,43.6129032 L53.6774194,46.9677419 L50.3225806,46.9677419 L50.3225806,43.6129032 Z M53.6774194,43.6129032 L57.0322581,43.6129032 L57.0322581,46.9677419 L53.6774194,46.9677419 L53.6774194,43.6129032 Z M57.0322581,43.6129032 L60.3870968,43.6129032 L60.3870968,46.9677419 L57.0322581,46.9677419 L57.0322581,43.6129032 Z M60.3870968,43.6129032 L63.7419355,43.6129032 L63.7419355,46.9677419 L60.3870968,46.9677419 L60.3870968,43.6129032 Z M63.7419355,43.6129032 L67.0967742,43.6129032 L67.0967742,46.9677419 L63.7419355,46.9677419 L63.7419355,43.6129032 Z M80.516129,43.6129032 L83.8709677,43.6129032 L83.8709677,46.9677419 L80.516129,46.9677419 L80.516129,43.6129032 Z M87.2258065,43.6129032 L90.5806452,43.6129032 L90.5806452,46.9677419 L87.2258065,46.9677419 L87.2258065,43.6129032 Z M90.5806452,43.6129032 L93.9354839,43.6129032 L93.9354839,46.9677419 L90.5806452,46.9677419 L90.5806452,43.6129032 Z M3.35483871,46.9677419 L6.70967742,46.9677419 L6.70967742,50.3225806 L3.35483871,50.3225806 L3.35483871,46.9677419 Z M6.70967742,46.9677419 L10.0645161,46.9677419 L10.0645161,50.3225806 L6.70967742,50.3225806 L6.70967742,46.9677419 Z M13.4193548,46.9677419 L16.7741935,46.9677419 L16.7741935,50.3225806 L13.4193548,50.3225806 L13.4193548,46.9677419 Z M16.7741935,46.9677419 L20.1290323,46.9677419 L20.1290323,50.3225806 L16.7741935,50.3225806 L16.7741935,46.9677419 Z M20.1290323,46.9677419 L23.483871,46.9677419 L23.483871,50.3225806 L20.1290323,50.3225806 L20.1290323,46.9677419 Z M30.1935484,46.9677419 L33.5483871,46.9677419 L33.5483871,50.3225806 L30.1935484,50.3225806 L30.1935484,46.9677419 Z M43.6129032,46.9677419 L46.9677419,46.9677419 L46.9677419,50.3225806 L43.6129032,50.3225806 L43.6129032,46.9677419 Z M57.0322581,46.9677419 L60.3870968,46.9677419 L60.3870968,50.3225806 L57.0322581,50.3225806 L57.0322581,46.9677419 Z M60.3870968,46.9677419 L63.7419355,46.9677419 L63.7419355,50.3225806 L60.3870968,50.3225806 L60.3870968,46.9677419 Z M63.7419355,46.9677419 L67.0967742,46.9677419 L67.0967742,50.3225806 L63.7419355,50.3225806 L63.7419355,46.9677419 Z M67.0967742,46.9677419 L70.4516129,46.9677419 L70.4516129,50.3225806 L67.0967742,50.3225806 L67.0967742,46.9677419 Z M70.4516129,46.9677419 L73.8064516,46.9677419 L73.8064516,50.3225806 L70.4516129,50.3225806 L70.4516129,46.9677419 Z M73.8064516,46.9677419 L77.1612903,46.9677419 L77.1612903,50.3225806 L73.8064516,50.3225806 L73.8064516,46.9677419 Z M77.1612903,46.9677419 L80.516129,46.9677419 L80.516129,50.3225806 L77.1612903,50.3225806 L77.1612903,46.9677419 Z M80.516129,46.9677419 L83.8709677,46.9677419 L83.8709677,50.3225806 L80.516129,50.3225806 L80.516129,46.9677419 Z M83.8709677,46.9677419 L87.2258065,46.9677419 L87.2258065,50.3225806 L83.8709677,50.3225806 L83.8709677,46.9677419 Z M97.2903226,46.9677419 L100.645161,46.9677419 L100.645161,50.3225806 L97.2903226,50.3225806 L97.2903226,46.9677419 Z M3.35483871,50.3225806 L6.70967742,50.3225806 L6.70967742,53.6774194 L3.35483871,53.6774194 L3.35483871,50.3225806 Z M16.7741935,50.3225806 L20.1290323,50.3225806 L20.1290323,53.6774194 L16.7741935,53.6774194 L16.7741935,50.3225806 Z M23.483871,50.3225806 L26.8387097,50.3225806 L26.8387097,53.6774194 L23.483871,53.6774194 L23.483871,50.3225806 Z M33.5483871,50.3225806 L36.9032258,50.3225806 L36.9032258,53.6774194 L33.5483871,53.6774194 L33.5483871,50.3225806 Z M43.6129032,50.3225806 L46.9677419,50.3225806 L46.9677419,53.6774194 L43.6129032,53.6774194 L43.6129032,50.3225806 Z M53.6774194,50.3225806 L57.0322581,50.3225806 L57.0322581,53.6774194 L53.6774194,53.6774194 L53.6774194,50.3225806 Z M57.0322581,50.3225806 L60.3870968,50.3225806 L60.3870968,53.6774194 L57.0322581,53.6774194 L57.0322581,50.3225806 Z M60.3870968,50.3225806 L63.7419355,50.3225806 L63.7419355,53.6774194 L60.3870968,53.6774194 L60.3870968,50.3225806 Z M73.8064516,50.3225806 L77.1612903,50.3225806 L77.1612903,53.6774194 L73.8064516,53.6774194 L73.8064516,50.3225806 Z M83.8709677,50.3225806 L87.2258065,50.3225806 L87.2258065,53.6774194 L83.8709677,53.6774194 L83.8709677,50.3225806 Z M87.2258065,50.3225806 L90.5806452,50.3225806 L90.5806452,53.6774194 L87.2258065,53.6774194 L87.2258065,50.3225806 Z M90.5806452,50.3225806 L93.9354839,50.3225806 L93.9354839,53.6774194 L90.5806452,53.6774194 L90.5806452,50.3225806 Z M6.70967742,53.6774194 L10.0645161,53.6774194 L10.0645161,57.0322581 L6.70967742,57.0322581 L6.70967742,53.6774194 Z M10.0645161,53.6774194 L13.4193548,53.6774194 L13.4193548,57.0322581 L10.0645161,57.0322581 L10.0645161,53.6774194 Z M13.4193548,53.6774194 L16.7741935,53.6774194 L16.7741935,57.0322581 L13.4193548,57.0322581 L13.4193548,53.6774194 Z M16.7741935,53.6774194 L20.1290323,53.6774194 L20.1290323,57.0322581 L16.7741935,57.0322581 L16.7741935,53.6774194 Z M26.8387097,53.6774194 L30.1935484,53.6774194 L30.1935484,57.0322581 L26.8387097,57.0322581 L26.8387097,53.6774194 Z M33.5483871,53.6774194 L36.9032258,53.6774194 L36.9032258,57.0322581 L33.5483871,57.0322581 L33.5483871,53.6774194 Z M50.3225806,53.6774194 L53.6774194,53.6774194 L53.6774194,57.0322581 L50.3225806,57.0322581 L50.3225806,53.6774194 Z M57.0322581,53.6774194 L60.3870968,53.6774194 L60.3870968,57.0322581 L57.0322581,57.0322581 L57.0322581,53.6774194 Z M67.0967742,53.6774194 L70.4516129,53.6774194 L70.4516129,57.0322581 L67.0967742,57.0322581 L67.0967742,53.6774194 Z M70.4516129,53.6774194 L73.8064516,53.6774194 L73.8064516,57.0322581 L70.4516129,57.0322581 L70.4516129,53.6774194 Z M83.8709677,53.6774194 L87.2258065,53.6774194 L87.2258065,57.0322581 L83.8709677,57.0322581 L83.8709677,53.6774194 Z M93.9354839,53.6774194 L97.2903226,53.6774194 L97.2903226,57.0322581 L93.9354839,57.0322581 L93.9354839,53.6774194 Z M6.70967742,57.0322581 L10.0645161,57.0322581 L10.0645161,60.3870968 L6.70967742,60.3870968 L6.70967742,57.0322581 Z M13.4193548,57.0322581 L16.7741935,57.0322581 L16.7741935,60.3870968 L13.4193548,60.3870968 L13.4193548,57.0322581 Z M23.483871,57.0322581 L26.8387097,57.0322581 L26.8387097,60.3870968 L23.483871,60.3870968 L23.483871,57.0322581 Z M30.1935484,57.0322581 L33.5483871,57.0322581 L33.5483871,60.3870968 L30.1935484,60.3870968 L30.1935484,57.0322581 Z M43.6129032,57.0322581 L46.9677419,57.0322581 L46.9677419,60.3870968 L43.6129032,60.3870968 L43.6129032,57.0322581 Z M46.9677419,57.0322581 L50.3225806,57.0322581 L50.3225806,60.3870968 L46.9677419,60.3870968 L46.9677419,57.0322581 Z M50.3225806,57.0322581 L53.6774194,57.0322581 L53.6774194,60.3870968 L50.3225806,60.3870968 L50.3225806,57.0322581 Z M60.3870968,57.0322581 L63.7419355,57.0322581 L63.7419355,60.3870968 L60.3870968,60.3870968 L60.3870968,57.0322581 Z M67.0967742,57.0322581 L70.4516129,57.0322581 L70.4516129,60.3870968 L67.0967742,60.3870968 L67.0967742,57.0322581 Z M80.516129,57.0322581 L83.8709677,57.0322581 L83.8709677,60.3870968 L80.516129,60.3870968 L80.516129,57.0322581 Z M87.2258065,57.0322581 L90.5806452,57.0322581 L90.5806452,60.3870968 L87.2258065,60.3870968 L87.2258065,57.0322581 Z M90.5806452,57.0322581 L93.9354839,57.0322581 L93.9354839,60.3870968 L90.5806452,60.3870968 L90.5806452,57.0322581 Z M3.35483871,60.3870968 L6.70967742,60.3870968 L6.70967742,63.7419355 L3.35483871,63.7419355 L3.35483871,60.3870968 Z M6.70967742,60.3870968 L10.0645161,60.3870968 L10.0645161,63.7419355 L6.70967742,63.7419355 L6.70967742,60.3870968 Z M10.0645161,60.3870968 L13.4193548,60.3870968 L13.4193548,63.7419355 L10.0645161,63.7419355 L10.0645161,60.3870968 Z M13.4193548,60.3870968 L16.7741935,60.3870968 L16.7741935,63.7419355 L13.4193548,63.7419355 L13.4193548,60.3870968 Z M16.7741935,60.3870968 L20.1290323,60.3870968 L20.1290323,63.7419355 L16.7741935,63.7419355 L16.7741935,60.3870968 Z M20.1290323,60.3870968 L23.483871,60.3870968 L23.483871,63.7419355 L20.1290323,63.7419355 L20.1290323,60.3870968 Z M26.8387097,60.3870968 L30.1935484,60.3870968 L30.1935484,63.7419355 L26.8387097,63.7419355 L26.8387097,60.3870968 Z M30.1935484,60.3870968 L33.5483871,60.3870968 L33.5483871,63.7419355 L30.1935484,63.7419355 L30.1935484,60.3870968 Z M40.2580645,60.3870968 L43.6129032,60.3870968 L43.6129032,63.7419355 L40.2580645,63.7419355 L40.2580645,60.3870968 Z M46.9677419,60.3870968 L50.3225806,60.3870968 L50.3225806,63.7419355 L46.9677419,63.7419355 L46.9677419,60.3870968 Z M50.3225806,60.3870968 L53.6774194,60.3870968 L53.6774194,63.7419355 L50.3225806,63.7419355 L50.3225806,60.3870968 Z M57.0322581,60.3870968 L60.3870968,60.3870968 L60.3870968,63.7419355 L57.0322581,63.7419355 L57.0322581,60.3870968 Z M63.7419355,60.3870968 L67.0967742,60.3870968 L67.0967742,63.7419355 L63.7419355,63.7419355 L63.7419355,60.3870968 Z M67.0967742,60.3870968 L70.4516129,60.3870968 L70.4516129,63.7419355 L67.0967742,63.7419355 L67.0967742,60.3870968 Z M77.1612903,60.3870968 L80.516129,60.3870968 L80.516129,63.7419355 L77.1612903,63.7419355 L77.1612903,60.3870968 Z M80.516129,60.3870968 L83.8709677,60.3870968 L83.8709677,63.7419355 L80.516129,63.7419355 L80.516129,60.3870968 Z M83.8709677,60.3870968 L87.2258065,60.3870968 L87.2258065,63.7419355 L83.8709677,63.7419355 L83.8709677,60.3870968 Z M90.5806452,60.3870968 L93.9354839,60.3870968 L93.9354839,63.7419355 L90.5806452,63.7419355 L90.5806452,60.3870968 Z M97.2903226,60.3870968 L100.645161,60.3870968 L100.645161,63.7419355 L97.2903226,63.7419355 L97.2903226,60.3870968 Z M3.35483871,63.7419355 L6.70967742,63.7419355 L6.70967742,67.0967742 L3.35483871,67.0967742 L3.35483871,63.7419355 Z M10.0645161,63.7419355 L13.4193548,63.7419355 L13.4193548,67.0967742 L10.0645161,67.0967742 L10.0645161,63.7419355 Z M16.7741935,63.7419355 L20.1290323,63.7419355 L20.1290323,67.0967742 L16.7741935,67.0967742 L16.7741935,63.7419355 Z M23.483871,63.7419355 L26.8387097,63.7419355 L26.8387097,67.0967742 L23.483871,67.0967742 L23.483871,63.7419355 Z M30.1935484,63.7419355 L33.5483871,63.7419355 L33.5483871,67.0967742 L30.1935484,67.0967742 L30.1935484,63.7419355 Z M33.5483871,63.7419355 L36.9032258,63.7419355 L36.9032258,67.0967742 L33.5483871,67.0967742 L33.5483871,63.7419355 Z M36.9032258,63.7419355 L40.2580645,63.7419355 L40.2580645,67.0967742 L36.9032258,67.0967742 L36.9032258,63.7419355 Z M53.6774194,63.7419355 L57.0322581,63.7419355 L57.0322581,67.0967742 L53.6774194,67.0967742 L53.6774194,63.7419355 Z M57.0322581,63.7419355 L60.3870968,63.7419355 L60.3870968,67.0967742 L57.0322581,67.0967742 L57.0322581,63.7419355 Z M63.7419355,63.7419355 L67.0967742,63.7419355 L67.0967742,67.0967742 L63.7419355,67.0967742 L63.7419355,63.7419355 Z M70.4516129,63.7419355 L73.8064516,63.7419355 L73.8064516,67.0967742 L70.4516129,67.0967742 L70.4516129,63.7419355 Z M73.8064516,63.7419355 L77.1612903,63.7419355 L77.1612903,67.0967742 L73.8064516,67.0967742 L73.8064516,63.7419355 Z M83.8709677,63.7419355 L87.2258065,63.7419355 L87.2258065,67.0967742 L83.8709677,67.0967742 L83.8709677,63.7419355 Z M90.5806452,63.7419355 L93.9354839,63.7419355 L93.9354839,67.0967742 L90.5806452,67.0967742 L90.5806452,63.7419355 Z M3.35483871,67.0967742 L6.70967742,67.0967742 L6.70967742,70.4516129 L3.35483871,70.4516129 L3.35483871,67.0967742 Z M10.0645161,67.0967742 L13.4193548,67.0967742 L13.4193548,70.4516129 L10.0645161,70.4516129 L10.0645161,67.0967742 Z M13.4193548,67.0967742 L16.7741935,67.0967742 L16.7741935,70.4516129 L13.4193548,70.4516129 L13.4193548,67.0967742 Z M16.7741935,67.0967742 L20.1290323,67.0967742 L20.1290323,70.4516129 L16.7741935,70.4516129 L16.7741935,67.0967742 Z M26.8387097,67.0967742 L30.1935484,67.0967742 L30.1935484,70.4516129 L26.8387097,70.4516129 L26.8387097,67.0967742 Z M30.1935484,67.0967742 L33.5483871,67.0967742 L33.5483871,70.4516129 L30.1935484,70.4516129 L30.1935484,67.0967742 Z M33.5483871,67.0967742 L36.9032258,67.0967742 L36.9032258,70.4516129 L33.5483871,70.4516129 L33.5483871,67.0967742 Z M43.6129032,67.0967742 L46.9677419,67.0967742 L46.9677419,70.4516129 L43.6129032,70.4516129 L43.6129032,67.0967742 Z M50.3225806,67.0967742 L53.6774194,67.0967742 L53.6774194,70.4516129 L50.3225806,70.4516129 L50.3225806,67.0967742 Z M57.0322581,67.0967742 L60.3870968,67.0967742 L60.3870968,70.4516129 L57.0322581,70.4516129 L57.0322581,67.0967742 Z M70.4516129,67.0967742 L73.8064516,67.0967742 L73.8064516,70.4516129 L70.4516129,70.4516129 L70.4516129,67.0967742 Z M73.8064516,67.0967742 L77.1612903,67.0967742 L77.1612903,70.4516129 L73.8064516,70.4516129 L73.8064516,67.0967742 Z M83.8709677,67.0967742 L87.2258065,67.0967742 L87.2258065,70.4516129 L83.8709677,70.4516129 L83.8709677,67.0967742 Z M93.9354839,67.0967742 L97.2903226,67.0967742 L97.2903226,70.4516129 L93.9354839,70.4516129 L93.9354839,67.0967742 Z M3.35483871,70.4516129 L6.70967742,70.4516129 L6.70967742,73.8064516 L3.35483871,73.8064516 L3.35483871,70.4516129 Z M13.4193548,70.4516129 L16.7741935,70.4516129 L16.7741935,73.8064516 L13.4193548,73.8064516 L13.4193548,70.4516129 Z M16.7741935,70.4516129 L20.1290323,70.4516129 L20.1290323,73.8064516 L16.7741935,73.8064516 L16.7741935,70.4516129 Z M23.483871,70.4516129 L26.8387097,70.4516129 L26.8387097,73.8064516 L23.483871,73.8064516 L23.483871,70.4516129 Z M26.8387097,70.4516129 L30.1935484,70.4516129 L30.1935484,73.8064516 L26.8387097,73.8064516 L26.8387097,70.4516129 Z M30.1935484,70.4516129 L33.5483871,70.4516129 L33.5483871,73.8064516 L30.1935484,73.8064516 L30.1935484,70.4516129 Z M33.5483871,70.4516129 L36.9032258,70.4516129 L36.9032258,73.8064516 L33.5483871,73.8064516 L33.5483871,70.4516129 Z M40.2580645,70.4516129 L43.6129032,70.4516129 L43.6129032,73.8064516 L40.2580645,73.8064516 L40.2580645,70.4516129 Z M43.6129032,70.4516129 L46.9677419,70.4516129 L46.9677419,73.8064516 L43.6129032,73.8064516 L43.6129032,70.4516129 Z M46.9677419,70.4516129 L50.3225806,70.4516129 L50.3225806,73.8064516 L46.9677419,73.8064516 L46.9677419,70.4516129 Z M50.3225806,70.4516129 L53.6774194,70.4516129 L53.6774194,73.8064516 L50.3225806,73.8064516 L50.3225806,70.4516129 Z M53.6774194,70.4516129 L57.0322581,70.4516129 L57.0322581,73.8064516 L53.6774194,73.8064516 L53.6774194,70.4516129 Z M60.3870968,70.4516129 L63.7419355,70.4516129 L63.7419355,73.8064516 L60.3870968,73.8064516 L60.3870968,70.4516129 Z M70.4516129,70.4516129 L73.8064516,70.4516129 L73.8064516,73.8064516 L70.4516129,73.8064516 L70.4516129,70.4516129 Z M73.8064516,70.4516129 L77.1612903,70.4516129 L77.1612903,73.8064516 L73.8064516,73.8064516 L73.8064516,70.4516129 Z M77.1612903,70.4516129 L80.516129,70.4516129 L80.516129,73.8064516 L77.1612903,73.8064516 L77.1612903,70.4516129 Z M80.516129,70.4516129 L83.8709677,70.4516129 L83.8709677,73.8064516 L80.516129,73.8064516 L80.516129,70.4516129 Z M83.8709677,70.4516129 L87.2258065,70.4516129 L87.2258065,73.8064516 L83.8709677,73.8064516 L83.8709677,70.4516129 Z M90.5806452,70.4516129 L93.9354839,70.4516129 L93.9354839,73.8064516 L90.5806452,73.8064516 L90.5806452,70.4516129 Z M93.9354839,70.4516129 L97.2903226,70.4516129 L97.2903226,73.8064516 L93.9354839,73.8064516 L93.9354839,70.4516129 Z M97.2903226,70.4516129 L100.645161,70.4516129 L100.645161,73.8064516 L97.2903226,73.8064516 L97.2903226,70.4516129 Z M30.1935484,73.8064516 L33.5483871,73.8064516 L33.5483871,77.1612903 L30.1935484,77.1612903 L30.1935484,73.8064516 Z M33.5483871,73.8064516 L36.9032258,73.8064516 L36.9032258,77.1612903 L33.5483871,77.1612903 L33.5483871,73.8064516 Z M40.2580645,73.8064516 L43.6129032,73.8064516 L43.6129032,77.1612903 L40.2580645,77.1612903 L40.2580645,73.8064516 Z M46.9677419,73.8064516 L50.3225806,73.8064516 L50.3225806,77.1612903 L46.9677419,77.1612903 L46.9677419,73.8064516 Z M57.0322581,73.8064516 L60.3870968,73.8064516 L60.3870968,77.1612903 L57.0322581,77.1612903 L57.0322581,73.8064516 Z M70.4516129,73.8064516 L73.8064516,73.8064516 L73.8064516,77.1612903 L70.4516129,77.1612903 L70.4516129,73.8064516 Z M83.8709677,73.8064516 L87.2258065,73.8064516 L87.2258065,77.1612903 L83.8709677,77.1612903 L83.8709677,73.8064516 Z M87.2258065,73.8064516 L90.5806452,73.8064516 L90.5806452,77.1612903 L87.2258065,77.1612903 L87.2258065,73.8064516 Z M90.5806452,73.8064516 L93.9354839,73.8064516 L93.9354839,77.1612903 L90.5806452,77.1612903 L90.5806452,73.8064516 Z M93.9354839,73.8064516 L97.2903226,73.8064516 L97.2903226,77.1612903 L93.9354839,77.1612903 L93.9354839,73.8064516 Z M97.2903226,73.8064516 L100.645161,73.8064516 L100.645161,77.1612903 L97.2903226,77.1612903 L97.2903226,73.8064516 Z M3.35483871,77.1612903 L6.70967742,77.1612903 L6.70967742,80.516129 L3.35483871,80.516129 L3.35483871,77.1612903 Z M6.70967742,77.1612903 L10.0645161,77.1612903 L10.0645161,80.516129 L6.70967742,80.516129 L6.70967742,77.1612903 Z M10.0645161,77.1612903 L13.4193548,77.1612903 L13.4193548,80.516129 L10.0645161,80.516129 L10.0645161,77.1612903 Z M13.4193548,77.1612903 L16.7741935,77.1612903 L16.7741935,80.516129 L13.4193548,80.516129 L13.4193548,77.1612903 Z M16.7741935,77.1612903 L20.1290323,77.1612903 L20.1290323,80.516129 L16.7741935,80.516129 L16.7741935,77.1612903 Z M20.1290323,77.1612903 L23.483871,77.1612903 L23.483871,80.516129 L20.1290323,80.516129 L20.1290323,77.1612903 Z M23.483871,77.1612903 L26.8387097,77.1612903 L26.8387097,80.516129 L23.483871,80.516129 L23.483871,77.1612903 Z M30.1935484,77.1612903 L33.5483871,77.1612903 L33.5483871,80.516129 L30.1935484,80.516129 L30.1935484,77.1612903 Z M46.9677419,77.1612903 L50.3225806,77.1612903 L50.3225806,80.516129 L46.9677419,80.516129 L46.9677419,77.1612903 Z M50.3225806,77.1612903 L53.6774194,77.1612903 L53.6774194,80.516129 L50.3225806,80.516129 L50.3225806,77.1612903 Z M53.6774194,77.1612903 L57.0322581,77.1612903 L57.0322581,80.516129 L53.6774194,80.516129 L53.6774194,77.1612903 Z M57.0322581,77.1612903 L60.3870968,77.1612903 L60.3870968,80.516129 L57.0322581,80.516129 L57.0322581,77.1612903 Z M63.7419355,77.1612903 L67.0967742,77.1612903 L67.0967742,80.516129 L63.7419355,80.516129 L63.7419355,77.1612903 Z M67.0967742,77.1612903 L70.4516129,77.1612903 L70.4516129,80.516129 L67.0967742,80.516129 L67.0967742,77.1612903 Z M70.4516129,77.1612903 L73.8064516,77.1612903 L73.8064516,80.516129 L70.4516129,80.516129 L70.4516129,77.1612903 Z M77.1612903,77.1612903 L80.516129,77.1612903 L80.516129,80.516129 L77.1612903,80.516129 L77.1612903,77.1612903 Z M83.8709677,77.1612903 L87.2258065,77.1612903 L87.2258065,80.516129 L83.8709677,80.516129 L83.8709677,77.1612903 Z M87.2258065,77.1612903 L90.5806452,77.1612903 L90.5806452,80.516129 L87.2258065,80.516129 L87.2258065,77.1612903 Z M90.5806452,77.1612903 L93.9354839,77.1612903 L93.9354839,80.516129 L90.5806452,80.516129 L90.5806452,77.1612903 Z M3.35483871,80.516129 L6.70967742,80.516129 L6.70967742,83.8709677 L3.35483871,83.8709677 L3.35483871,80.516129 Z M23.483871,80.516129 L26.8387097,80.516129 L26.8387097,83.8709677 L23.483871,83.8709677 L23.483871,80.516129 Z M33.5483871,80.516129 L36.9032258,80.516129 L36.9032258,83.8709677 L33.5483871,83.8709677 L33.5483871,80.516129 Z M40.2580645,80.516129 L43.6129032,80.516129 L43.6129032,83.8709677 L40.2580645,83.8709677 L40.2580645,80.516129 Z M50.3225806,80.516129 L53.6774194,80.516129 L53.6774194,83.8709677 L50.3225806,83.8709677 L50.3225806,80.516129 Z M53.6774194,80.516129 L57.0322581,80.516129 L57.0322581,83.8709677 L53.6774194,83.8709677 L53.6774194,80.516129 Z M63.7419355,80.516129 L67.0967742,80.516129 L67.0967742,83.8709677 L63.7419355,83.8709677 L63.7419355,80.516129 Z M67.0967742,80.516129 L70.4516129,80.516129 L70.4516129,83.8709677 L67.0967742,83.8709677 L67.0967742,80.516129 Z M70.4516129,80.516129 L73.8064516,80.516129 L73.8064516,83.8709677 L70.4516129,83.8709677 L70.4516129,80.516129 Z M83.8709677,80.516129 L87.2258065,80.516129 L87.2258065,83.8709677 L83.8709677,83.8709677 L83.8709677,80.516129 Z M97.2903226,80.516129 L100.645161,80.516129 L100.645161,83.8709677 L97.2903226,83.8709677 L97.2903226,80.516129 Z M3.35483871,83.8709677 L6.70967742,83.8709677 L6.70967742,87.2258065 L3.35483871,87.2258065 L3.35483871,83.8709677 Z M10.0645161,83.8709677 L13.4193548,83.8709677 L13.4193548,87.2258065 L10.0645161,87.2258065 L10.0645161,83.8709677 Z M13.4193548,83.8709677 L16.7741935,83.8709677 L16.7741935,87.2258065 L13.4193548,87.2258065 L13.4193548,83.8709677 Z M16.7741935,83.8709677 L20.1290323,83.8709677 L20.1290323,87.2258065 L16.7741935,87.2258065 L16.7741935,83.8709677 Z M23.483871,83.8709677 L26.8387097,83.8709677 L26.8387097,87.2258065 L23.483871,87.2258065 L23.483871,83.8709677 Z M30.1935484,83.8709677 L33.5483871,83.8709677 L33.5483871,87.2258065 L30.1935484,87.2258065 L30.1935484,83.8709677 Z M40.2580645,83.8709677 L43.6129032,83.8709677 L43.6129032,87.2258065 L40.2580645,87.2258065 L40.2580645,83.8709677 Z M43.6129032,83.8709677 L46.9677419,83.8709677 L46.9677419,87.2258065 L43.6129032,87.2258065 L43.6129032,83.8709677 Z M46.9677419,83.8709677 L50.3225806,83.8709677 L50.3225806,87.2258065 L46.9677419,87.2258065 L46.9677419,83.8709677 Z M50.3225806,83.8709677 L53.6774194,83.8709677 L53.6774194,87.2258065 L50.3225806,87.2258065 L50.3225806,83.8709677 Z M60.3870968,83.8709677 L63.7419355,83.8709677 L63.7419355,87.2258065 L60.3870968,87.2258065 L60.3870968,83.8709677 Z M70.4516129,83.8709677 L73.8064516,83.8709677 L73.8064516,87.2258065 L70.4516129,87.2258065 L70.4516129,83.8709677 Z M73.8064516,83.8709677 L77.1612903,83.8709677 L77.1612903,87.2258065 L73.8064516,87.2258065 L73.8064516,83.8709677 Z M77.1612903,83.8709677 L80.516129,83.8709677 L80.516129,87.2258065 L77.1612903,87.2258065 L77.1612903,83.8709677 Z M80.516129,83.8709677 L83.8709677,83.8709677 L83.8709677,87.2258065 L80.516129,87.2258065 L80.516129,83.8709677 Z M83.8709677,83.8709677 L87.2258065,83.8709677 L87.2258065,87.2258065 L83.8709677,87.2258065 L83.8709677,83.8709677 Z M90.5806452,83.8709677 L93.9354839,83.8709677 L93.9354839,87.2258065 L90.5806452,87.2258065 L90.5806452,83.8709677 Z M97.2903226,83.8709677 L100.645161,83.8709677 L100.645161,87.2258065 L97.2903226,87.2258065 L97.2903226,83.8709677 Z M3.35483871,87.2258065 L6.70967742,87.2258065 L6.70967742,90.5806452 L3.35483871,90.5806452 L3.35483871,87.2258065 Z M10.0645161,87.2258065 L13.4193548,87.2258065 L13.4193548,90.5806452 L10.0645161,90.5806452 L10.0645161,87.2258065 Z M13.4193548,87.2258065 L16.7741935,87.2258065 L16.7741935,90.5806452 L13.4193548,90.5806452 L13.4193548,87.2258065 Z M16.7741935,87.2258065 L20.1290323,87.2258065 L20.1290323,90.5806452 L16.7741935,90.5806452 L16.7741935,87.2258065 Z M23.483871,87.2258065 L26.8387097,87.2258065 L26.8387097,90.5806452 L23.483871,90.5806452 L23.483871,87.2258065 Z M30.1935484,87.2258065 L33.5483871,87.2258065 L33.5483871,90.5806452 L30.1935484,90.5806452 L30.1935484,87.2258065 Z M33.5483871,87.2258065 L36.9032258,87.2258065 L36.9032258,90.5806452 L33.5483871,90.5806452 L33.5483871,87.2258065 Z M40.2580645,87.2258065 L43.6129032,87.2258065 L43.6129032,90.5806452 L40.2580645,90.5806452 L40.2580645,87.2258065 Z M43.6129032,87.2258065 L46.9677419,87.2258065 L46.9677419,90.5806452 L43.6129032,90.5806452 L43.6129032,87.2258065 Z M57.0322581,87.2258065 L60.3870968,87.2258065 L60.3870968,90.5806452 L57.0322581,90.5806452 L57.0322581,87.2258065 Z M80.516129,87.2258065 L83.8709677,87.2258065 L83.8709677,90.5806452 L80.516129,90.5806452 L80.516129,87.2258065 Z M87.2258065,87.2258065 L90.5806452,87.2258065 L90.5806452,90.5806452 L87.2258065,90.5806452 L87.2258065,87.2258065 Z M90.5806452,87.2258065 L93.9354839,87.2258065 L93.9354839,90.5806452 L90.5806452,90.5806452 L90.5806452,87.2258065 Z M93.9354839,87.2258065 L97.2903226,87.2258065 L97.2903226,90.5806452 L93.9354839,90.5806452 L93.9354839,87.2258065 Z M97.2903226,87.2258065 L100.645161,87.2258065 L100.645161,90.5806452 L97.2903226,90.5806452 L97.2903226,87.2258065 Z M3.35483871,90.5806452 L6.70967742,90.5806452 L6.70967742,93.9354839 L3.35483871,93.9354839 L3.35483871,90.5806452 Z M10.0645161,90.5806452 L13.4193548,90.5806452 L13.4193548,93.9354839 L10.0645161,93.9354839 L10.0645161,90.5806452 Z M13.4193548,90.5806452 L16.7741935,90.5806452 L16.7741935,93.9354839 L13.4193548,93.9354839 L13.4193548,90.5806452 Z M16.7741935,90.5806452 L20.1290323,90.5806452 L20.1290323,93.9354839 L16.7741935,93.9354839 L16.7741935,90.5806452 Z M23.483871,90.5806452 L26.8387097,90.5806452 L26.8387097,93.9354839 L23.483871,93.9354839 L23.483871,90.5806452 Z M30.1935484,90.5806452 L33.5483871,90.5806452 L33.5483871,93.9354839 L30.1935484,93.9354839 L30.1935484,90.5806452 Z M33.5483871,90.5806452 L36.9032258,90.5806452 L36.9032258,93.9354839 L33.5483871,93.9354839 L33.5483871,90.5806452 Z M36.9032258,90.5806452 L40.2580645,90.5806452 L40.2580645,93.9354839 L36.9032258,93.9354839 L36.9032258,90.5806452 Z M46.9677419,90.5806452 L50.3225806,90.5806452 L50.3225806,93.9354839 L46.9677419,93.9354839 L46.9677419,90.5806452 Z M50.3225806,90.5806452 L53.6774194,90.5806452 L53.6774194,93.9354839 L50.3225806,93.9354839 L50.3225806,90.5806452 Z M53.6774194,90.5806452 L57.0322581,90.5806452 L57.0322581,93.9354839 L53.6774194,93.9354839 L53.6774194,90.5806452 Z M57.0322581,90.5806452 L60.3870968,90.5806452 L60.3870968,93.9354839 L57.0322581,93.9354839 L57.0322581,90.5806452 Z M63.7419355,90.5806452 L67.0967742,90.5806452 L67.0967742,93.9354839 L63.7419355,93.9354839 L63.7419355,90.5806452 Z M67.0967742,90.5806452 L70.4516129,90.5806452 L70.4516129,93.9354839 L67.0967742,93.9354839 L67.0967742,90.5806452 Z M70.4516129,90.5806452 L73.8064516,90.5806452 L73.8064516,93.9354839 L70.4516129,93.9354839 L70.4516129,90.5806452 Z M77.1612903,90.5806452 L80.516129,90.5806452 L80.516129,93.9354839 L77.1612903,93.9354839 L77.1612903,90.5806452 Z M80.516129,90.5806452 L83.8709677,90.5806452 L83.8709677,93.9354839 L80.516129,93.9354839 L80.516129,90.5806452 Z M83.8709677,90.5806452 L87.2258065,90.5806452 L87.2258065,93.9354839 L83.8709677,93.9354839 L83.8709677,90.5806452 Z M87.2258065,90.5806452 L90.5806452,90.5806452 L90.5806452,93.9354839 L87.2258065,93.9354839 L87.2258065,90.5806452 Z M90.5806452,90.5806452 L93.9354839,90.5806452 L93.9354839,93.9354839 L90.5806452,93.9354839 L90.5806452,90.5806452 Z M93.9354839,90.5806452 L97.2903226,90.5806452 L97.2903226,93.9354839 L93.9354839,93.9354839 L93.9354839,90.5806452 Z M3.35483871,93.9354839 L6.70967742,93.9354839 L6.70967742,97.2903226 L3.35483871,97.2903226 L3.35483871,93.9354839 Z M23.483871,93.9354839 L26.8387097,93.9354839 L26.8387097,97.2903226 L23.483871,97.2903226 L23.483871,93.9354839 Z M30.1935484,93.9354839 L33.5483871,93.9354839 L33.5483871,97.2903226 L30.1935484,97.2903226 L30.1935484,93.9354839 Z M33.5483871,93.9354839 L36.9032258,93.9354839 L36.9032258,97.2903226 L33.5483871,97.2903226 L33.5483871,93.9354839 Z M36.9032258,93.9354839 L40.2580645,93.9354839 L40.2580645,97.2903226 L36.9032258,97.2903226 L36.9032258,93.9354839 Z M43.6129032,93.9354839 L46.9677419,93.9354839 L46.9677419,97.2903226 L43.6129032,97.2903226 L43.6129032,93.9354839 Z M50.3225806,93.9354839 L53.6774194,93.9354839 L53.6774194,97.2903226 L50.3225806,97.2903226 L50.3225806,93.9354839 Z M57.0322581,93.9354839 L60.3870968,93.9354839 L60.3870968,97.2903226 L57.0322581,97.2903226 L57.0322581,93.9354839 Z M63.7419355,93.9354839 L67.0967742,93.9354839 L67.0967742,97.2903226 L63.7419355,97.2903226 L63.7419355,93.9354839 Z M70.4516129,93.9354839 L73.8064516,93.9354839 L73.8064516,97.2903226 L70.4516129,97.2903226 L70.4516129,93.9354839 Z M73.8064516,93.9354839 L77.1612903,93.9354839 L77.1612903,97.2903226 L73.8064516,97.2903226 L73.8064516,93.9354839 Z M80.516129,93.9354839 L83.8709677,93.9354839 L83.8709677,97.2903226 L80.516129,97.2903226 L80.516129,93.9354839 Z M83.8709677,93.9354839 L87.2258065,93.9354839 L87.2258065,97.2903226 L83.8709677,97.2903226 L83.8709677,93.9354839 Z M87.2258065,93.9354839 L90.5806452,93.9354839 L90.5806452,97.2903226 L87.2258065,97.2903226 L87.2258065,93.9354839 Z M93.9354839,93.9354839 L97.2903226,93.9354839 L97.2903226,97.2903226 L93.9354839,97.2903226 L93.9354839,93.9354839 Z M3.35483871,97.2903226 L6.70967742,97.2903226 L6.70967742,100.645161 L3.35483871,100.645161 L3.35483871,97.2903226 Z M6.70967742,97.2903226 L10.0645161,97.2903226 L10.0645161,100.645161 L6.70967742,100.645161 L6.70967742,97.2903226 Z M10.0645161,97.2903226 L13.4193548,97.2903226 L13.4193548,100.645161 L10.0645161,100.645161 L10.0645161,97.2903226 Z M13.4193548,97.2903226 L16.7741935,97.2903226 L16.7741935,100.645161 L13.4193548,100.645161 L13.4193548,97.2903226 Z M16.7741935,97.2903226 L20.1290323,97.2903226 L20.1290323,100.645161 L16.7741935,100.645161 L16.7741935,97.2903226 Z M20.1290323,97.2903226 L23.483871,97.2903226 L23.483871,100.645161 L20.1290323,100.645161 L20.1290323,97.2903226 Z M23.483871,97.2903226 L26.8387097,97.2903226 L26.8387097,100.645161 L23.483871,100.645161 L23.483871,97.2903226 Z M30.1935484,97.2903226 L33.5483871,97.2903226 L33.5483871,100.645161 L30.1935484,100.645161 L30.1935484,97.2903226 Z M33.5483871,97.2903226 L36.9032258,97.2903226 L36.9032258,100.645161 L33.5483871,100.645161 L33.5483871,97.2903226 Z M40.2580645,97.2903226 L43.6129032,97.2903226 L43.6129032,100.645161 L40.2580645,100.645161 L40.2580645,97.2903226 Z M43.6129032,97.2903226 L46.9677419,97.2903226 L46.9677419,100.645161 L43.6129032,100.645161 L43.6129032,97.2903226 Z M46.9677419,97.2903226 L50.3225806,97.2903226 L50.3225806,100.645161 L46.9677419,100.645161 L46.9677419,97.2903226 Z M50.3225806,97.2903226 L53.6774194,97.2903226 L53.6774194,100.645161 L50.3225806,100.645161 L50.3225806,97.2903226 Z M60.3870968,97.2903226 L63.7419355,97.2903226 L63.7419355,100.645161 L60.3870968,100.645161 L60.3870968,97.2903226 Z M63.7419355,97.2903226 L67.0967742,97.2903226 L67.0967742,100.645161 L63.7419355,100.645161 L63.7419355,97.2903226 Z M67.0967742,97.2903226 L70.4516129,97.2903226 L70.4516129,100.645161 L67.0967742,100.645161 L67.0967742,97.2903226 Z M73.8064516,97.2903226 L77.1612903,97.2903226 L77.1612903,100.645161 L73.8064516,100.645161 L73.8064516,97.2903226 Z M83.8709677,97.2903226 L87.2258065,97.2903226 L87.2258065,100.645161 L83.8709677,100.645161 L83.8709677,97.2903226 Z M90.5806452,97.2903226 L93.9354839,97.2903226 L93.9354839,100.645161 L90.5806452,100.645161 L90.5806452,97.2903226 Z" id="Shape" fill="#000000"></path>
            </g>
        </g>
    </g>
</svg>