<?xml version="1.0" encoding="UTF-8"?>
<svg width="104px" height="104px" viewBox="0 0 104 104" version="1.1" xmlns="http://www.w3.org/2000/svg" xmlns:xlink="http://www.w3.org/1999/xlink">
    <title>qrcode@2x</title>
    <g id="UI-Elements-for-Dev." stroke="none" stroke-width="1" fill="none" fill-rule="evenodd">
        <g id="UI-Elements" transform="translate(-1309, -360)" fill-rule="nonzero">
            <g id="qrcode" transform="translate(1309, 360)">
                <rect id="Rectangle" fill="#FFFFFF" x="0" y="0" width="104" height="104"></rect>
                <g id="elements" transform="translate(3.0365, 3.0365)" fill="#000000">
                    <path d="M0,0 L2.96748507,0 L2.96748507,2.96748507 L0,2.96748507 L0,0 Z M2.96748507,0 L5.93497014,0 L5.93497014,2.96748507 L2.96748507,2.96748507 L2.96748507,0 Z M5.93497014,0 L8.90245521,0 L8.90245521,2.96748507 L5.93497014,2.96748507 L5.93497014,0 Z M8.90245521,0 L11.8699403,0 L11.8699403,2.96748507 L8.90245521,2.96748507 L8.90245521,0 Z M11.8699403,0 L14.8374253,0 L14.8374253,2.96748507 L11.8699403,2.96748507 L11.8699403,0 Z M14.8374253,0 L17.8049104,0 L17.8049104,2.96748507 L14.8374253,2.96748507 L14.8374253,0 Z M17.8049104,0 L20.7723955,0 L20.7723955,2.96748507 L17.8049104,2.96748507 L17.8049104,0 Z M26.7073656,0 L29.6748507,0 L29.6748507,2.96748507 L26.7073656,2.96748507 L26.7073656,0 Z M47.4797611,0 L50.4472462,0 L50.4472462,2.96748507 L47.4797611,2.96748507 L47.4797611,0 Z M50.4472462,0 L53.4147313,0 L53.4147313,2.96748507 L50.4472462,2.96748507 L50.4472462,0 Z M53.4147313,0 L56.3822163,0 L56.3822163,2.96748507 L53.4147313,2.96748507 L53.4147313,0 Z M56.3822163,0 L59.3497014,0 L59.3497014,2.96748507 L56.3822163,2.96748507 L56.3822163,0 Z M59.3497014,0 L62.3171865,0 L62.3171865,2.96748507 L59.3497014,2.96748507 L59.3497014,0 Z M62.3171865,0 L65.2846715,0 L65.2846715,2.96748507 L62.3171865,2.96748507 L62.3171865,0 Z M65.2846715,0 L68.2521566,0 L68.2521566,2.96748507 L65.2846715,2.96748507 L65.2846715,0 Z M68.2521566,0 L71.2196417,0 L71.2196417,2.96748507 L68.2521566,2.96748507 L68.2521566,0 Z M77.1546118,0 L80.1220969,0 L80.1220969,2.96748507 L77.1546118,2.96748507 L77.1546118,0 Z M80.1220969,0 L83.089582,0 L83.089582,2.96748507 L80.1220969,2.96748507 L80.1220969,0 Z M83.089582,0 L86.057067,0 L86.057067,2.96748507 L83.089582,2.96748507 L83.089582,0 Z M86.057067,0 L89.0245521,0 L89.0245521,2.96748507 L86.057067,2.96748507 L86.057067,0 Z M89.0245521,0 L91.9920372,0 L91.9920372,2.96748507 L89.0245521,2.96748507 L89.0245521,0 Z M91.9920372,0 L94.9595222,0 L94.9595222,2.96748507 L91.9920372,2.96748507 L91.9920372,0 Z M94.9595222,0 L97.9270073,0 L97.9270073,2.96748507 L94.9595222,2.96748507 L94.9595222,0 Z M0,2.96748507 L2.96748507,2.96748507 L2.96748507,5.93497014 L0,5.93497014 L0,2.96748507 Z M17.8049104,2.96748507 L20.7723955,2.96748507 L20.7723955,5.93497014 L17.8049104,5.93497014 L17.8049104,2.96748507 Z M23.7398806,2.96748507 L26.7073656,2.96748507 L26.7073656,5.93497014 L23.7398806,5.93497014 L23.7398806,2.96748507 Z M26.7073656,2.96748507 L29.6748507,2.96748507 L29.6748507,5.93497014 L26.7073656,5.93497014 L26.7073656,2.96748507 Z M32.6423358,2.96748507 L35.6098208,2.96748507 L35.6098208,5.93497014 L32.6423358,5.93497014 L32.6423358,2.96748507 Z M35.6098208,2.96748507 L38.5773059,2.96748507 L38.5773059,5.93497014 L35.6098208,5.93497014 L35.6098208,2.96748507 Z M44.512276,2.96748507 L47.4797611,2.96748507 L47.4797611,5.93497014 L44.512276,5.93497014 L44.512276,2.96748507 Z M47.4797611,2.96748507 L50.4472462,2.96748507 L50.4472462,5.93497014 L47.4797611,5.93497014 L47.4797611,2.96748507 Z M53.4147313,2.96748507 L56.3822163,2.96748507 L56.3822163,5.93497014 L53.4147313,5.93497014 L53.4147313,2.96748507 Z M59.3497014,2.96748507 L62.3171865,2.96748507 L62.3171865,5.93497014 L59.3497014,5.93497014 L59.3497014,2.96748507 Z M77.1546118,2.96748507 L80.1220969,2.96748507 L80.1220969,5.93497014 L77.1546118,5.93497014 L77.1546118,2.96748507 Z M94.9595222,2.96748507 L97.9270073,2.96748507 L97.9270073,5.93497014 L94.9595222,5.93497014 L94.9595222,2.96748507 Z M0,5.93497014 L2.96748507,5.93497014 L2.96748507,8.90245521 L0,8.90245521 L0,5.93497014 Z M5.93497014,5.93497014 L8.90245521,5.93497014 L8.90245521,8.90245521 L5.93497014,8.90245521 L5.93497014,5.93497014 Z M8.90245521,5.93497014 L11.8699403,5.93497014 L11.8699403,8.90245521 L8.90245521,8.90245521 L8.90245521,5.93497014 Z M11.8699403,5.93497014 L14.8374253,5.93497014 L14.8374253,8.90245521 L11.8699403,8.90245521 L11.8699403,5.93497014 Z M17.8049104,5.93497014 L20.7723955,5.93497014 L20.7723955,8.90245521 L17.8049104,8.90245521 L17.8049104,5.93497014 Z M26.7073656,5.93497014 L29.6748507,5.93497014 L29.6748507,8.90245521 L26.7073656,8.90245521 L26.7073656,5.93497014 Z M29.6748507,5.93497014 L32.6423358,5.93497014 L32.6423358,8.90245521 L29.6748507,8.90245521 L29.6748507,5.93497014 Z M32.6423358,5.93497014 L35.6098208,5.93497014 L35.6098208,8.90245521 L32.6423358,8.90245521 L32.6423358,5.93497014 Z M41.544791,5.93497014 L44.512276,5.93497014 L44.512276,8.90245521 L41.544791,8.90245521 L41.544791,5.93497014 Z M44.512276,5.93497014 L47.4797611,5.93497014 L47.4797611,8.90245521 L44.512276,8.90245521 L44.512276,5.93497014 Z M47.4797611,5.93497014 L50.4472462,5.93497014 L50.4472462,8.90245521 L47.4797611,8.90245521 L47.4797611,5.93497014 Z M56.3822163,5.93497014 L59.3497014,5.93497014 L59.3497014,8.90245521 L56.3822163,8.90245521 L56.3822163,5.93497014 Z M59.3497014,5.93497014 L62.3171865,5.93497014 L62.3171865,8.90245521 L59.3497014,8.90245521 L59.3497014,5.93497014 Z M62.3171865,5.93497014 L65.2846715,5.93497014 L65.2846715,8.90245521 L62.3171865,8.90245521 L62.3171865,5.93497014 Z M68.2521566,5.93497014 L71.2196417,5.93497014 L71.2196417,8.90245521 L68.2521566,8.90245521 L68.2521566,5.93497014 Z M77.1546118,5.93497014 L80.1220969,5.93497014 L80.1220969,8.90245521 L77.1546118,8.90245521 L77.1546118,5.93497014 Z M83.089582,5.93497014 L86.057067,5.93497014 L86.057067,8.90245521 L83.089582,8.90245521 L83.089582,5.93497014 Z M86.057067,5.93497014 L89.0245521,5.93497014 L89.0245521,8.90245521 L86.057067,8.90245521 L86.057067,5.93497014 Z M89.0245521,5.93497014 L91.9920372,5.93497014 L91.9920372,8.90245521 L89.0245521,8.90245521 L89.0245521,5.93497014 Z M94.9595222,5.93497014 L97.9270073,5.93497014 L97.9270073,8.90245521 L94.9595222,8.90245521 L94.9595222,5.93497014 Z M0,8.90245521 L2.96748507,8.90245521 L2.96748507,11.8699403 L0,11.8699403 L0,8.90245521 Z M5.93497014,8.90245521 L8.90245521,8.90245521 L8.90245521,11.8699403 L5.93497014,11.8699403 L5.93497014,8.90245521 Z M8.90245521,8.90245521 L11.8699403,8.90245521 L11.8699403,11.8699403 L8.90245521,11.8699403 L8.90245521,8.90245521 Z M11.8699403,8.90245521 L14.8374253,8.90245521 L14.8374253,11.8699403 L11.8699403,11.8699403 L11.8699403,8.90245521 Z M17.8049104,8.90245521 L20.7723955,8.90245521 L20.7723955,11.8699403 L17.8049104,11.8699403 L17.8049104,8.90245521 Z M23.7398806,8.90245521 L26.7073656,8.90245521 L26.7073656,11.8699403 L23.7398806,11.8699403 L23.7398806,8.90245521 Z M26.7073656,8.90245521 L29.6748507,8.90245521 L29.6748507,11.8699403 L26.7073656,11.8699403 L26.7073656,8.90245521 Z M32.6423358,8.90245521 L35.6098208,8.90245521 L35.6098208,11.8699403 L32.6423358,11.8699403 L32.6423358,8.90245521 Z M38.5773059,8.90245521 L41.544791,8.90245521 L41.544791,11.8699403 L38.5773059,11.8699403 L38.5773059,8.90245521 Z M41.544791,8.90245521 L44.512276,8.90245521 L44.512276,11.8699403 L41.544791,11.8699403 L41.544791,8.90245521 Z M50.4472462,8.90245521 L53.4147313,8.90245521 L53.4147313,11.8699403 L50.4472462,11.8699403 L50.4472462,8.90245521 Z M56.3822163,8.90245521 L59.3497014,8.90245521 L59.3497014,11.8699403 L56.3822163,11.8699403 L56.3822163,8.90245521 Z M59.3497014,8.90245521 L62.3171865,8.90245521 L62.3171865,11.8699403 L59.3497014,11.8699403 L59.3497014,8.90245521 Z M65.2846715,8.90245521 L68.2521566,8.90245521 L68.2521566,11.8699403 L65.2846715,11.8699403 L65.2846715,8.90245521 Z M68.2521566,8.90245521 L71.2196417,8.90245521 L71.2196417,11.8699403 L68.2521566,11.8699403 L68.2521566,8.90245521 Z M71.2196417,8.90245521 L74.1871267,8.90245521 L74.1871267,11.8699403 L71.2196417,11.8699403 L71.2196417,8.90245521 Z M77.1546118,8.90245521 L80.1220969,8.90245521 L80.1220969,11.8699403 L77.1546118,11.8699403 L77.1546118,8.90245521 Z M83.089582,8.90245521 L86.057067,8.90245521 L86.057067,11.8699403 L83.089582,11.8699403 L83.089582,8.90245521 Z M86.057067,8.90245521 L89.0245521,8.90245521 L89.0245521,11.8699403 L86.057067,11.8699403 L86.057067,8.90245521 Z M89.0245521,8.90245521 L91.9920372,8.90245521 L91.9920372,11.8699403 L89.0245521,11.8699403 L89.0245521,8.90245521 Z M94.9595222,8.90245521 L97.9270073,8.90245521 L97.9270073,11.8699403 L94.9595222,11.8699403 L94.9595222,8.90245521 Z M0,11.8699403 L2.96748507,11.8699403 L2.96748507,14.8374253 L0,14.8374253 L0,11.8699403 Z M5.93497014,11.8699403 L8.90245521,11.8699403 L8.90245521,14.8374253 L5.93497014,14.8374253 L5.93497014,11.8699403 Z M8.90245521,11.8699403 L11.8699403,11.8699403 L11.8699403,14.8374253 L8.90245521,14.8374253 L8.90245521,11.8699403 Z M11.8699403,11.8699403 L14.8374253,11.8699403 L14.8374253,14.8374253 L11.8699403,14.8374253 L11.8699403,11.8699403 Z M17.8049104,11.8699403 L20.7723955,11.8699403 L20.7723955,14.8374253 L17.8049104,14.8374253 L17.8049104,11.8699403 Z M29.6748507,11.8699403 L32.6423358,11.8699403 L32.6423358,14.8374253 L29.6748507,14.8374253 L29.6748507,11.8699403 Z M35.6098208,11.8699403 L38.5773059,11.8699403 L38.5773059,14.8374253 L35.6098208,14.8374253 L35.6098208,11.8699403 Z M38.5773059,11.8699403 L41.544791,11.8699403 L41.544791,14.8374253 L38.5773059,14.8374253 L38.5773059,11.8699403 Z M41.544791,11.8699403 L44.512276,11.8699403 L44.512276,14.8374253 L41.544791,14.8374253 L41.544791,11.8699403 Z M47.4797611,11.8699403 L50.4472462,11.8699403 L50.4472462,14.8374253 L47.4797611,14.8374253 L47.4797611,11.8699403 Z M53.4147313,11.8699403 L56.3822163,11.8699403 L56.3822163,14.8374253 L53.4147313,14.8374253 L53.4147313,11.8699403 Z M56.3822163,11.8699403 L59.3497014,11.8699403 L59.3497014,14.8374253 L56.3822163,14.8374253 L56.3822163,11.8699403 Z M62.3171865,11.8699403 L65.2846715,11.8699403 L65.2846715,14.8374253 L62.3171865,14.8374253 L62.3171865,11.8699403 Z M68.2521566,11.8699403 L71.2196417,11.8699403 L71.2196417,14.8374253 L68.2521566,14.8374253 L68.2521566,11.8699403 Z M77.1546118,11.8699403 L80.1220969,11.8699403 L80.1220969,14.8374253 L77.1546118,14.8374253 L77.1546118,11.8699403 Z M83.089582,11.8699403 L86.057067,11.8699403 L86.057067,14.8374253 L83.089582,14.8374253 L83.089582,11.8699403 Z M86.057067,11.8699403 L89.0245521,11.8699403 L89.0245521,14.8374253 L86.057067,14.8374253 L86.057067,11.8699403 Z M89.0245521,11.8699403 L91.9920372,11.8699403 L91.9920372,14.8374253 L89.0245521,14.8374253 L89.0245521,11.8699403 Z M94.9595222,11.8699403 L97.9270073,11.8699403 L97.9270073,14.8374253 L94.9595222,14.8374253 L94.9595222,11.8699403 Z M0,14.8374253 L2.96748507,14.8374253 L2.96748507,17.8049104 L0,17.8049104 L0,14.8374253 Z M17.8049104,14.8374253 L20.7723955,14.8374253 L20.7723955,17.8049104 L17.8049104,17.8049104 L17.8049104,14.8374253 Z M23.7398806,14.8374253 L26.7073656,14.8374253 L26.7073656,17.8049104 L23.7398806,17.8049104 L23.7398806,14.8374253 Z M29.6748507,14.8374253 L32.6423358,14.8374253 L32.6423358,17.8049104 L29.6748507,17.8049104 L29.6748507,14.8374253 Z M44.512276,14.8374253 L47.4797611,14.8374253 L47.4797611,17.8049104 L44.512276,17.8049104 L44.512276,14.8374253 Z M59.3497014,14.8374253 L62.3171865,14.8374253 L62.3171865,17.8049104 L59.3497014,17.8049104 L59.3497014,14.8374253 Z M62.3171865,14.8374253 L65.2846715,14.8374253 L65.2846715,17.8049104 L62.3171865,17.8049104 L62.3171865,14.8374253 Z M65.2846715,14.8374253 L68.2521566,14.8374253 L68.2521566,17.8049104 L65.2846715,17.8049104 L65.2846715,14.8374253 Z M71.2196417,14.8374253 L74.1871267,14.8374253 L74.1871267,17.8049104 L71.2196417,17.8049104 L71.2196417,14.8374253 Z M77.1546118,14.8374253 L80.1220969,14.8374253 L80.1220969,17.8049104 L77.1546118,17.8049104 L77.1546118,14.8374253 Z M94.9595222,14.8374253 L97.9270073,14.8374253 L97.9270073,17.8049104 L94.9595222,17.8049104 L94.9595222,14.8374253 Z M0,17.8049104 L2.96748507,17.8049104 L2.96748507,20.7723955 L0,20.7723955 L0,17.8049104 Z M2.96748507,17.8049104 L5.93497014,17.8049104 L5.93497014,20.7723955 L2.96748507,20.7723955 L2.96748507,17.8049104 Z M5.93497014,17.8049104 L8.90245521,17.8049104 L8.90245521,20.7723955 L5.93497014,20.7723955 L5.93497014,17.8049104 Z M8.90245521,17.8049104 L11.8699403,17.8049104 L11.8699403,20.7723955 L8.90245521,20.7723955 L8.90245521,17.8049104 Z M11.8699403,17.8049104 L14.8374253,17.8049104 L14.8374253,20.7723955 L11.8699403,20.7723955 L11.8699403,17.8049104 Z M14.8374253,17.8049104 L17.8049104,17.8049104 L17.8049104,20.7723955 L14.8374253,20.7723955 L14.8374253,17.8049104 Z M17.8049104,17.8049104 L20.7723955,17.8049104 L20.7723955,20.7723955 L17.8049104,20.7723955 L17.8049104,17.8049104 Z M23.7398806,17.8049104 L26.7073656,17.8049104 L26.7073656,20.7723955 L23.7398806,20.7723955 L23.7398806,17.8049104 Z M29.6748507,17.8049104 L32.6423358,17.8049104 L32.6423358,20.7723955 L29.6748507,20.7723955 L29.6748507,17.8049104 Z M35.6098208,17.8049104 L38.5773059,17.8049104 L38.5773059,20.7723955 L35.6098208,20.7723955 L35.6098208,17.8049104 Z M41.544791,17.8049104 L44.512276,17.8049104 L44.512276,20.7723955 L41.544791,20.7723955 L41.544791,17.8049104 Z M47.4797611,17.8049104 L50.4472462,17.8049104 L50.4472462,20.7723955 L47.4797611,20.7723955 L47.4797611,17.8049104 Z M53.4147313,17.8049104 L56.3822163,17.8049104 L56.3822163,20.7723955 L53.4147313,20.7723955 L53.4147313,17.8049104 Z M59.3497014,17.8049104 L62.3171865,17.8049104 L62.3171865,20.7723955 L59.3497014,20.7723955 L59.3497014,17.8049104 Z M65.2846715,17.8049104 L68.2521566,17.8049104 L68.2521566,20.7723955 L65.2846715,20.7723955 L65.2846715,17.8049104 Z M71.2196417,17.8049104 L74.1871267,17.8049104 L74.1871267,20.7723955 L71.2196417,20.7723955 L71.2196417,17.8049104 Z M77.1546118,17.8049104 L80.1220969,17.8049104 L80.1220969,20.7723955 L77.1546118,20.7723955 L77.1546118,17.8049104 Z M80.1220969,17.8049104 L83.089582,17.8049104 L83.089582,20.7723955 L80.1220969,20.7723955 L80.1220969,17.8049104 Z M83.089582,17.8049104 L86.057067,17.8049104 L86.057067,20.7723955 L83.089582,20.7723955 L83.089582,17.8049104 Z M86.057067,17.8049104 L89.0245521,17.8049104 L89.0245521,20.7723955 L86.057067,20.7723955 L86.057067,17.8049104 Z M89.0245521,17.8049104 L91.9920372,17.8049104 L91.9920372,20.7723955 L89.0245521,20.7723955 L89.0245521,17.8049104 Z M91.9920372,17.8049104 L94.9595222,17.8049104 L94.9595222,20.7723955 L91.9920372,20.7723955 L91.9920372,17.8049104 Z M94.9595222,17.8049104 L97.9270073,17.8049104 L97.9270073,20.7723955 L94.9595222,20.7723955 L94.9595222,17.8049104 Z M35.6098208,20.7723955 L38.5773059,20.7723955 L38.5773059,23.7398806 L35.6098208,23.7398806 L35.6098208,20.7723955 Z M41.544791,20.7723955 L44.512276,20.7723955 L44.512276,23.7398806 L41.544791,23.7398806 L41.544791,20.7723955 Z M53.4147313,20.7723955 L56.3822163,20.7723955 L56.3822163,23.7398806 L53.4147313,23.7398806 L53.4147313,20.7723955 Z M56.3822163,20.7723955 L59.3497014,20.7723955 L59.3497014,23.7398806 L56.3822163,23.7398806 L56.3822163,20.7723955 Z M62.3171865,20.7723955 L65.2846715,20.7723955 L65.2846715,23.7398806 L62.3171865,23.7398806 L62.3171865,20.7723955 Z M65.2846715,20.7723955 L68.2521566,20.7723955 L68.2521566,23.7398806 L65.2846715,23.7398806 L65.2846715,20.7723955 Z M0,23.7398806 L2.96748507,23.7398806 L2.96748507,26.7073656 L0,26.7073656 L0,23.7398806 Z M2.96748507,23.7398806 L5.93497014,23.7398806 L5.93497014,26.7073656 L2.96748507,26.7073656 L2.96748507,23.7398806 Z M5.93497014,23.7398806 L8.90245521,23.7398806 L8.90245521,26.7073656 L5.93497014,26.7073656 L5.93497014,23.7398806 Z M8.90245521,23.7398806 L11.8699403,23.7398806 L11.8699403,26.7073656 L8.90245521,26.7073656 L8.90245521,23.7398806 Z M11.8699403,23.7398806 L14.8374253,23.7398806 L14.8374253,26.7073656 L11.8699403,26.7073656 L11.8699403,23.7398806 Z M17.8049104,23.7398806 L20.7723955,23.7398806 L20.7723955,26.7073656 L17.8049104,26.7073656 L17.8049104,23.7398806 Z M20.7723955,23.7398806 L23.7398806,23.7398806 L23.7398806,26.7073656 L20.7723955,26.7073656 L20.7723955,23.7398806 Z M23.7398806,23.7398806 L26.7073656,23.7398806 L26.7073656,26.7073656 L23.7398806,26.7073656 L23.7398806,23.7398806 Z M26.7073656,23.7398806 L29.6748507,23.7398806 L29.6748507,26.7073656 L26.7073656,26.7073656 L26.7073656,23.7398806 Z M29.6748507,23.7398806 L32.6423358,23.7398806 L32.6423358,26.7073656 L29.6748507,26.7073656 L29.6748507,23.7398806 Z M35.6098208,23.7398806 L38.5773059,23.7398806 L38.5773059,26.7073656 L35.6098208,26.7073656 L35.6098208,23.7398806 Z M38.5773059,23.7398806 L41.544791,23.7398806 L41.544791,26.7073656 L38.5773059,26.7073656 L38.5773059,23.7398806 Z M41.544791,23.7398806 L44.512276,23.7398806 L44.512276,26.7073656 L41.544791,26.7073656 L41.544791,23.7398806 Z M44.512276,23.7398806 L47.4797611,23.7398806 L47.4797611,26.7073656 L44.512276,26.7073656 L44.512276,23.7398806 Z M47.4797611,23.7398806 L50.4472462,23.7398806 L50.4472462,26.7073656 L47.4797611,26.7073656 L47.4797611,23.7398806 Z M50.4472462,23.7398806 L53.4147313,23.7398806 L53.4147313,26.7073656 L50.4472462,26.7073656 L50.4472462,23.7398806 Z M53.4147313,23.7398806 L56.3822163,23.7398806 L56.3822163,26.7073656 L53.4147313,26.7073656 L53.4147313,23.7398806 Z M59.3497014,23.7398806 L62.3171865,23.7398806 L62.3171865,26.7073656 L59.3497014,26.7073656 L59.3497014,23.7398806 Z M74.1871267,23.7398806 L77.1546118,23.7398806 L77.1546118,26.7073656 L74.1871267,26.7073656 L74.1871267,23.7398806 Z M80.1220969,23.7398806 L83.089582,23.7398806 L83.089582,26.7073656 L80.1220969,26.7073656 L80.1220969,23.7398806 Z M86.057067,23.7398806 L89.0245521,23.7398806 L89.0245521,26.7073656 L86.057067,26.7073656 L86.057067,23.7398806 Z M91.9920372,23.7398806 L94.9595222,23.7398806 L94.9595222,26.7073656 L91.9920372,26.7073656 L91.9920372,23.7398806 Z M2.96748507,26.7073656 L5.93497014,26.7073656 L5.93497014,29.6748507 L2.96748507,29.6748507 L2.96748507,26.7073656 Z M5.93497014,26.7073656 L8.90245521,26.7073656 L8.90245521,29.6748507 L5.93497014,29.6748507 L5.93497014,26.7073656 Z M8.90245521,26.7073656 L11.8699403,26.7073656 L11.8699403,29.6748507 L8.90245521,29.6748507 L8.90245521,26.7073656 Z M11.8699403,26.7073656 L14.8374253,26.7073656 L14.8374253,29.6748507 L11.8699403,29.6748507 L11.8699403,26.7073656 Z M26.7073656,26.7073656 L29.6748507,26.7073656 L29.6748507,29.6748507 L26.7073656,29.6748507 L26.7073656,26.7073656 Z M38.5773059,26.7073656 L41.544791,26.7073656 L41.544791,29.6748507 L38.5773059,29.6748507 L38.5773059,26.7073656 Z M47.4797611,26.7073656 L50.4472462,26.7073656 L50.4472462,29.6748507 L47.4797611,29.6748507 L47.4797611,26.7073656 Z M50.4472462,26.7073656 L53.4147313,26.7073656 L53.4147313,29.6748507 L50.4472462,29.6748507 L50.4472462,26.7073656 Z M56.3822163,26.7073656 L59.3497014,26.7073656 L59.3497014,29.6748507 L56.3822163,29.6748507 L56.3822163,26.7073656 Z M59.3497014,26.7073656 L62.3171865,26.7073656 L62.3171865,29.6748507 L59.3497014,29.6748507 L59.3497014,26.7073656 Z M68.2521566,26.7073656 L71.2196417,26.7073656 L71.2196417,29.6748507 L68.2521566,29.6748507 L68.2521566,26.7073656 Z M77.1546118,26.7073656 L80.1220969,26.7073656 L80.1220969,29.6748507 L77.1546118,29.6748507 L77.1546118,26.7073656 Z M89.0245521,26.7073656 L91.9920372,26.7073656 L91.9920372,29.6748507 L89.0245521,29.6748507 L89.0245521,26.7073656 Z M91.9920372,26.7073656 L94.9595222,26.7073656 L94.9595222,29.6748507 L91.9920372,29.6748507 L91.9920372,26.7073656 Z M94.9595222,26.7073656 L97.9270073,26.7073656 L97.9270073,29.6748507 L94.9595222,29.6748507 L94.9595222,26.7073656 Z M5.93497014,29.6748507 L8.90245521,29.6748507 L8.90245521,32.6423358 L5.93497014,32.6423358 L5.93497014,29.6748507 Z M8.90245521,29.6748507 L11.8699403,29.6748507 L11.8699403,32.6423358 L8.90245521,32.6423358 L8.90245521,29.6748507 Z M11.8699403,29.6748507 L14.8374253,29.6748507 L14.8374253,32.6423358 L11.8699403,32.6423358 L11.8699403,29.6748507 Z M17.8049104,29.6748507 L20.7723955,29.6748507 L20.7723955,32.6423358 L17.8049104,32.6423358 L17.8049104,29.6748507 Z M20.7723955,29.6748507 L23.7398806,29.6748507 L23.7398806,32.6423358 L20.7723955,32.6423358 L20.7723955,29.6748507 Z M23.7398806,29.6748507 L26.7073656,29.6748507 L26.7073656,32.6423358 L23.7398806,32.6423358 L23.7398806,29.6748507 Z M26.7073656,29.6748507 L29.6748507,29.6748507 L29.6748507,32.6423358 L26.7073656,32.6423358 L26.7073656,29.6748507 Z M32.6423358,29.6748507 L35.6098208,29.6748507 L35.6098208,32.6423358 L32.6423358,32.6423358 L32.6423358,29.6748507 Z M35.6098208,29.6748507 L38.5773059,29.6748507 L38.5773059,32.6423358 L35.6098208,32.6423358 L35.6098208,29.6748507 Z M38.5773059,29.6748507 L41.544791,29.6748507 L41.544791,32.6423358 L38.5773059,32.6423358 L38.5773059,29.6748507 Z M41.544791,29.6748507 L44.512276,29.6748507 L44.512276,32.6423358 L41.544791,32.6423358 L41.544791,29.6748507 Z M44.512276,29.6748507 L47.4797611,29.6748507 L47.4797611,32.6423358 L44.512276,32.6423358 L44.512276,29.6748507 Z M47.4797611,29.6748507 L50.4472462,29.6748507 L50.4472462,32.6423358 L47.4797611,32.6423358 L47.4797611,29.6748507 Z M65.2846715,29.6748507 L68.2521566,29.6748507 L68.2521566,32.6423358 L65.2846715,32.6423358 L65.2846715,29.6748507 Z M74.1871267,29.6748507 L77.1546118,29.6748507 L77.1546118,32.6423358 L74.1871267,32.6423358 L74.1871267,29.6748507 Z M77.1546118,29.6748507 L80.1220969,29.6748507 L80.1220969,32.6423358 L77.1546118,32.6423358 L77.1546118,29.6748507 Z M83.089582,29.6748507 L86.057067,29.6748507 L86.057067,32.6423358 L83.089582,32.6423358 L83.089582,29.6748507 Z M86.057067,29.6748507 L89.0245521,29.6748507 L89.0245521,32.6423358 L86.057067,32.6423358 L86.057067,29.6748507 Z M91.9920372,29.6748507 L94.9595222,29.6748507 L94.9595222,32.6423358 L91.9920372,32.6423358 L91.9920372,29.6748507 Z M0,32.6423358 L2.96748507,32.6423358 L2.96748507,35.6098208 L0,35.6098208 L0,32.6423358 Z M2.96748507,32.6423358 L5.93497014,32.6423358 L5.93497014,35.6098208 L2.96748507,35.6098208 L2.96748507,32.6423358 Z M5.93497014,32.6423358 L8.90245521,32.6423358 L8.90245521,35.6098208 L5.93497014,35.6098208 L5.93497014,32.6423358 Z M14.8374253,32.6423358 L17.8049104,32.6423358 L17.8049104,35.6098208 L14.8374253,35.6098208 L14.8374253,32.6423358 Z M20.7723955,32.6423358 L23.7398806,32.6423358 L23.7398806,35.6098208 L20.7723955,35.6098208 L20.7723955,32.6423358 Z M26.7073656,32.6423358 L29.6748507,32.6423358 L29.6748507,35.6098208 L26.7073656,35.6098208 L26.7073656,32.6423358 Z M29.6748507,32.6423358 L32.6423358,32.6423358 L32.6423358,35.6098208 L29.6748507,35.6098208 L29.6748507,32.6423358 Z M32.6423358,32.6423358 L35.6098208,32.6423358 L35.6098208,35.6098208 L32.6423358,35.6098208 L32.6423358,32.6423358 Z M41.544791,32.6423358 L44.512276,32.6423358 L44.512276,35.6098208 L41.544791,35.6098208 L41.544791,32.6423358 Z M44.512276,32.6423358 L47.4797611,32.6423358 L47.4797611,35.6098208 L44.512276,35.6098208 L44.512276,32.6423358 Z M59.3497014,32.6423358 L62.3171865,32.6423358 L62.3171865,35.6098208 L59.3497014,35.6098208 L59.3497014,32.6423358 Z M62.3171865,32.6423358 L65.2846715,32.6423358 L65.2846715,35.6098208 L62.3171865,35.6098208 L62.3171865,32.6423358 Z M65.2846715,32.6423358 L68.2521566,32.6423358 L68.2521566,35.6098208 L65.2846715,35.6098208 L65.2846715,32.6423358 Z M68.2521566,32.6423358 L71.2196417,32.6423358 L71.2196417,35.6098208 L68.2521566,35.6098208 L68.2521566,32.6423358 Z M71.2196417,32.6423358 L74.1871267,32.6423358 L74.1871267,35.6098208 L71.2196417,35.6098208 L71.2196417,32.6423358 Z M74.1871267,32.6423358 L77.1546118,32.6423358 L77.1546118,35.6098208 L74.1871267,35.6098208 L74.1871267,32.6423358 Z M77.1546118,32.6423358 L80.1220969,32.6423358 L80.1220969,35.6098208 L77.1546118,35.6098208 L77.1546118,32.6423358 Z M83.089582,32.6423358 L86.057067,32.6423358 L86.057067,35.6098208 L83.089582,35.6098208 L83.089582,32.6423358 Z M89.0245521,32.6423358 L91.9920372,32.6423358 L91.9920372,35.6098208 L89.0245521,35.6098208 L89.0245521,32.6423358 Z M0,35.6098208 L2.96748507,35.6098208 L2.96748507,38.5773059 L0,38.5773059 L0,35.6098208 Z M2.96748507,35.6098208 L5.93497014,35.6098208 L5.93497014,38.5773059 L2.96748507,38.5773059 L2.96748507,35.6098208 Z M5.93497014,35.6098208 L8.90245521,35.6098208 L8.90245521,38.5773059 L5.93497014,38.5773059 L5.93497014,35.6098208 Z M8.90245521,35.6098208 L11.8699403,35.6098208 L11.8699403,38.5773059 L8.90245521,38.5773059 L8.90245521,35.6098208 Z M17.8049104,35.6098208 L20.7723955,35.6098208 L20.7723955,38.5773059 L17.8049104,38.5773059 L17.8049104,35.6098208 Z M23.7398806,35.6098208 L26.7073656,35.6098208 L26.7073656,38.5773059 L23.7398806,38.5773059 L23.7398806,35.6098208 Z M26.7073656,35.6098208 L29.6748507,35.6098208 L29.6748507,38.5773059 L26.7073656,38.5773059 L26.7073656,35.6098208 Z M32.6423358,35.6098208 L35.6098208,35.6098208 L35.6098208,38.5773059 L32.6423358,38.5773059 L32.6423358,35.6098208 Z M38.5773059,35.6098208 L41.544791,35.6098208 L41.544791,38.5773059 L38.5773059,38.5773059 L38.5773059,35.6098208 Z M41.544791,35.6098208 L44.512276,35.6098208 L44.512276,38.5773059 L41.544791,38.5773059 L41.544791,35.6098208 Z M44.512276,35.6098208 L47.4797611,35.6098208 L47.4797611,38.5773059 L44.512276,38.5773059 L44.512276,35.6098208 Z M50.4472462,35.6098208 L53.4147313,35.6098208 L53.4147313,38.5773059 L50.4472462,38.5773059 L50.4472462,35.6098208 Z M56.3822163,35.6098208 L59.3497014,35.6098208 L59.3497014,38.5773059 L56.3822163,38.5773059 L56.3822163,35.6098208 Z M65.2846715,35.6098208 L68.2521566,35.6098208 L68.2521566,38.5773059 L65.2846715,38.5773059 L65.2846715,35.6098208 Z M74.1871267,35.6098208 L77.1546118,35.6098208 L77.1546118,38.5773059 L74.1871267,38.5773059 L74.1871267,35.6098208 Z M80.1220969,35.6098208 L83.089582,35.6098208 L83.089582,38.5773059 L80.1220969,38.5773059 L80.1220969,35.6098208 Z M83.089582,35.6098208 L86.057067,35.6098208 L86.057067,38.5773059 L83.089582,38.5773059 L83.089582,35.6098208 Z M86.057067,35.6098208 L89.0245521,35.6098208 L89.0245521,38.5773059 L86.057067,38.5773059 L86.057067,35.6098208 Z M0,38.5773059 L2.96748507,38.5773059 L2.96748507,41.544791 L0,41.544791 L0,38.5773059 Z M2.96748507,38.5773059 L5.93497014,38.5773059 L5.93497014,41.544791 L2.96748507,41.544791 L2.96748507,38.5773059 Z M8.90245521,38.5773059 L11.8699403,38.5773059 L11.8699403,41.544791 L8.90245521,41.544791 L8.90245521,38.5773059 Z M14.8374253,38.5773059 L17.8049104,38.5773059 L17.8049104,41.544791 L14.8374253,41.544791 L14.8374253,38.5773059 Z M26.7073656,38.5773059 L29.6748507,38.5773059 L29.6748507,41.544791 L26.7073656,41.544791 L26.7073656,38.5773059 Z M29.6748507,38.5773059 L32.6423358,38.5773059 L32.6423358,41.544791 L29.6748507,41.544791 L29.6748507,38.5773059 Z M35.6098208,38.5773059 L38.5773059,38.5773059 L38.5773059,41.544791 L35.6098208,41.544791 L35.6098208,38.5773059 Z M47.4797611,38.5773059 L50.4472462,38.5773059 L50.4472462,41.544791 L47.4797611,41.544791 L47.4797611,38.5773059 Z M53.4147313,38.5773059 L56.3822163,38.5773059 L56.3822163,41.544791 L53.4147313,41.544791 L53.4147313,38.5773059 Z M56.3822163,38.5773059 L59.3497014,38.5773059 L59.3497014,41.544791 L56.3822163,41.544791 L56.3822163,38.5773059 Z M59.3497014,38.5773059 L62.3171865,38.5773059 L62.3171865,41.544791 L59.3497014,41.544791 L59.3497014,38.5773059 Z M62.3171865,38.5773059 L65.2846715,38.5773059 L65.2846715,41.544791 L62.3171865,41.544791 L62.3171865,38.5773059 Z M68.2521566,38.5773059 L71.2196417,38.5773059 L71.2196417,41.544791 L68.2521566,41.544791 L68.2521566,38.5773059 Z M77.1546118,38.5773059 L80.1220969,38.5773059 L80.1220969,41.544791 L77.1546118,41.544791 L77.1546118,38.5773059 Z M91.9920372,38.5773059 L94.9595222,38.5773059 L94.9595222,41.544791 L91.9920372,41.544791 L91.9920372,38.5773059 Z M94.9595222,38.5773059 L97.9270073,38.5773059 L97.9270073,41.544791 L94.9595222,41.544791 L94.9595222,38.5773059 Z M0,41.544791 L2.96748507,41.544791 L2.96748507,44.512276 L0,44.512276 L0,41.544791 Z M2.96748507,41.544791 L5.93497014,41.544791 L5.93497014,44.512276 L2.96748507,44.512276 L2.96748507,41.544791 Z M5.93497014,41.544791 L8.90245521,41.544791 L8.90245521,44.512276 L5.93497014,44.512276 L5.93497014,41.544791 Z M8.90245521,41.544791 L11.8699403,41.544791 L11.8699403,44.512276 L8.90245521,44.512276 L8.90245521,41.544791 Z M17.8049104,41.544791 L20.7723955,41.544791 L20.7723955,44.512276 L17.8049104,44.512276 L17.8049104,41.544791 Z M38.5773059,41.544791 L41.544791,41.544791 L41.544791,44.512276 L38.5773059,44.512276 L38.5773059,41.544791 Z M41.544791,41.544791 L44.512276,41.544791 L44.512276,44.512276 L41.544791,44.512276 L41.544791,41.544791 Z M44.512276,41.544791 L47.4797611,41.544791 L47.4797611,44.512276 L44.512276,44.512276 L44.512276,41.544791 Z M47.4797611,41.544791 L50.4472462,41.544791 L50.4472462,44.512276 L47.4797611,44.512276 L47.4797611,41.544791 Z M50.4472462,41.544791 L53.4147313,41.544791 L53.4147313,44.512276 L50.4472462,44.512276 L50.4472462,41.544791 Z M53.4147313,41.544791 L56.3822163,41.544791 L56.3822163,44.512276 L53.4147313,44.512276 L53.4147313,41.544791 Z M59.3497014,41.544791 L62.3171865,41.544791 L62.3171865,44.512276 L59.3497014,44.512276 L59.3497014,41.544791 Z M62.3171865,41.544791 L65.2846715,41.544791 L65.2846715,44.512276 L62.3171865,44.512276 L62.3171865,41.544791 Z M74.1871267,41.544791 L77.1546118,41.544791 L77.1546118,44.512276 L74.1871267,44.512276 L74.1871267,41.544791 Z M83.089582,41.544791 L86.057067,41.544791 L86.057067,44.512276 L83.089582,44.512276 L83.089582,41.544791 Z M91.9920372,41.544791 L94.9595222,41.544791 L94.9595222,44.512276 L91.9920372,44.512276 L91.9920372,41.544791 Z M2.96748507,44.512276 L5.93497014,44.512276 L5.93497014,47.4797611 L2.96748507,47.4797611 L2.96748507,44.512276 Z M5.93497014,44.512276 L8.90245521,44.512276 L8.90245521,47.4797611 L5.93497014,47.4797611 L5.93497014,44.512276 Z M8.90245521,44.512276 L11.8699403,44.512276 L11.8699403,47.4797611 L8.90245521,47.4797611 L8.90245521,44.512276 Z M11.8699403,44.512276 L14.8374253,44.512276 L14.8374253,47.4797611 L11.8699403,47.4797611 L11.8699403,44.512276 Z M20.7723955,44.512276 L23.7398806,44.512276 L23.7398806,47.4797611 L20.7723955,47.4797611 L20.7723955,44.512276 Z M26.7073656,44.512276 L29.6748507,44.512276 L29.6748507,47.4797611 L26.7073656,47.4797611 L26.7073656,44.512276 Z M29.6748507,44.512276 L32.6423358,44.512276 L32.6423358,47.4797611 L29.6748507,47.4797611 L29.6748507,44.512276 Z M35.6098208,44.512276 L38.5773059,44.512276 L38.5773059,47.4797611 L35.6098208,47.4797611 L35.6098208,44.512276 Z M41.544791,44.512276 L44.512276,44.512276 L44.512276,47.4797611 L41.544791,47.4797611 L41.544791,44.512276 Z M62.3171865,44.512276 L65.2846715,44.512276 L65.2846715,47.4797611 L62.3171865,47.4797611 L62.3171865,44.512276 Z M65.2846715,44.512276 L68.2521566,44.512276 L68.2521566,47.4797611 L65.2846715,47.4797611 L65.2846715,44.512276 Z M68.2521566,44.512276 L71.2196417,44.512276 L71.2196417,47.4797611 L68.2521566,47.4797611 L68.2521566,44.512276 Z M74.1871267,44.512276 L77.1546118,44.512276 L77.1546118,47.4797611 L74.1871267,47.4797611 L74.1871267,44.512276 Z M77.1546118,44.512276 L80.1220969,44.512276 L80.1220969,47.4797611 L77.1546118,47.4797611 L77.1546118,44.512276 Z M89.0245521,44.512276 L91.9920372,44.512276 L91.9920372,47.4797611 L89.0245521,47.4797611 L89.0245521,44.512276 Z M5.93497014,47.4797611 L8.90245521,47.4797611 L8.90245521,50.4472462 L5.93497014,50.4472462 L5.93497014,47.4797611 Z M11.8699403,47.4797611 L14.8374253,47.4797611 L14.8374253,50.4472462 L11.8699403,50.4472462 L11.8699403,47.4797611 Z M14.8374253,47.4797611 L17.8049104,47.4797611 L17.8049104,50.4472462 L14.8374253,50.4472462 L14.8374253,47.4797611 Z M17.8049104,47.4797611 L20.7723955,47.4797611 L20.7723955,50.4472462 L17.8049104,50.4472462 L17.8049104,47.4797611 Z M20.7723955,47.4797611 L23.7398806,47.4797611 L23.7398806,50.4472462 L20.7723955,50.4472462 L20.7723955,47.4797611 Z M23.7398806,47.4797611 L26.7073656,47.4797611 L26.7073656,50.4472462 L23.7398806,50.4472462 L23.7398806,47.4797611 Z M29.6748507,47.4797611 L32.6423358,47.4797611 L32.6423358,50.4472462 L29.6748507,50.4472462 L29.6748507,47.4797611 Z M35.6098208,47.4797611 L38.5773059,47.4797611 L38.5773059,50.4472462 L35.6098208,50.4472462 L35.6098208,47.4797611 Z M38.5773059,47.4797611 L41.544791,47.4797611 L41.544791,50.4472462 L38.5773059,50.4472462 L38.5773059,47.4797611 Z M41.544791,47.4797611 L44.512276,47.4797611 L44.512276,50.4472462 L41.544791,50.4472462 L41.544791,47.4797611 Z M50.4472462,47.4797611 L53.4147313,47.4797611 L53.4147313,50.4472462 L50.4472462,50.4472462 L50.4472462,47.4797611 Z M56.3822163,47.4797611 L59.3497014,47.4797611 L59.3497014,50.4472462 L56.3822163,50.4472462 L56.3822163,47.4797611 Z M65.2846715,47.4797611 L68.2521566,47.4797611 L68.2521566,50.4472462 L65.2846715,50.4472462 L65.2846715,47.4797611 Z M68.2521566,47.4797611 L71.2196417,47.4797611 L71.2196417,50.4472462 L68.2521566,50.4472462 L68.2521566,47.4797611 Z M71.2196417,47.4797611 L74.1871267,47.4797611 L74.1871267,50.4472462 L71.2196417,50.4472462 L71.2196417,47.4797611 Z M74.1871267,47.4797611 L77.1546118,47.4797611 L77.1546118,50.4472462 L74.1871267,50.4472462 L74.1871267,47.4797611 Z M80.1220969,47.4797611 L83.089582,47.4797611 L83.089582,50.4472462 L80.1220969,50.4472462 L80.1220969,47.4797611 Z M83.089582,47.4797611 L86.057067,47.4797611 L86.057067,50.4472462 L83.089582,50.4472462 L83.089582,47.4797611 Z M91.9920372,47.4797611 L94.9595222,47.4797611 L94.9595222,50.4472462 L91.9920372,50.4472462 L91.9920372,47.4797611 Z M0,50.4472462 L2.96748507,50.4472462 L2.96748507,53.4147313 L0,53.4147313 L0,50.4472462 Z M11.8699403,50.4472462 L14.8374253,50.4472462 L14.8374253,53.4147313 L11.8699403,53.4147313 L11.8699403,50.4472462 Z M14.8374253,50.4472462 L17.8049104,50.4472462 L17.8049104,53.4147313 L14.8374253,53.4147313 L14.8374253,50.4472462 Z M20.7723955,50.4472462 L23.7398806,50.4472462 L23.7398806,53.4147313 L20.7723955,53.4147313 L20.7723955,50.4472462 Z M26.7073656,50.4472462 L29.6748507,50.4472462 L29.6748507,53.4147313 L26.7073656,53.4147313 L26.7073656,50.4472462 Z M29.6748507,50.4472462 L32.6423358,50.4472462 L32.6423358,53.4147313 L29.6748507,53.4147313 L29.6748507,50.4472462 Z M38.5773059,50.4472462 L41.544791,50.4472462 L41.544791,53.4147313 L38.5773059,53.4147313 L38.5773059,50.4472462 Z M47.4797611,50.4472462 L50.4472462,50.4472462 L50.4472462,53.4147313 L47.4797611,53.4147313 L47.4797611,50.4472462 Z M50.4472462,50.4472462 L53.4147313,50.4472462 L53.4147313,53.4147313 L50.4472462,53.4147313 L50.4472462,50.4472462 Z M53.4147313,50.4472462 L56.3822163,50.4472462 L56.3822163,53.4147313 L53.4147313,53.4147313 L53.4147313,50.4472462 Z M56.3822163,50.4472462 L59.3497014,50.4472462 L59.3497014,53.4147313 L56.3822163,53.4147313 L56.3822163,50.4472462 Z M59.3497014,50.4472462 L62.3171865,50.4472462 L62.3171865,53.4147313 L59.3497014,53.4147313 L59.3497014,50.4472462 Z M62.3171865,50.4472462 L65.2846715,50.4472462 L65.2846715,53.4147313 L62.3171865,53.4147313 L62.3171865,50.4472462 Z M65.2846715,50.4472462 L68.2521566,50.4472462 L68.2521566,53.4147313 L65.2846715,53.4147313 L65.2846715,50.4472462 Z M68.2521566,50.4472462 L71.2196417,50.4472462 L71.2196417,53.4147313 L68.2521566,53.4147313 L68.2521566,50.4472462 Z M71.2196417,50.4472462 L74.1871267,50.4472462 L74.1871267,53.4147313 L71.2196417,53.4147313 L71.2196417,50.4472462 Z M77.1546118,50.4472462 L80.1220969,50.4472462 L80.1220969,53.4147313 L77.1546118,53.4147313 L77.1546118,50.4472462 Z M86.057067,50.4472462 L89.0245521,50.4472462 L89.0245521,53.4147313 L86.057067,53.4147313 L86.057067,50.4472462 Z M91.9920372,50.4472462 L94.9595222,50.4472462 L94.9595222,53.4147313 L91.9920372,53.4147313 L91.9920372,50.4472462 Z M94.9595222,50.4472462 L97.9270073,50.4472462 L97.9270073,53.4147313 L94.9595222,53.4147313 L94.9595222,50.4472462 Z M2.96748507,53.4147313 L5.93497014,53.4147313 L5.93497014,56.3822163 L2.96748507,56.3822163 L2.96748507,53.4147313 Z M5.93497014,53.4147313 L8.90245521,53.4147313 L8.90245521,56.3822163 L5.93497014,56.3822163 L5.93497014,53.4147313 Z M11.8699403,53.4147313 L14.8374253,53.4147313 L14.8374253,56.3822163 L11.8699403,56.3822163 L11.8699403,53.4147313 Z M17.8049104,53.4147313 L20.7723955,53.4147313 L20.7723955,56.3822163 L17.8049104,56.3822163 L17.8049104,53.4147313 Z M20.7723955,53.4147313 L23.7398806,53.4147313 L23.7398806,56.3822163 L20.7723955,56.3822163 L20.7723955,53.4147313 Z M32.6423358,53.4147313 L35.6098208,53.4147313 L35.6098208,56.3822163 L32.6423358,56.3822163 L32.6423358,53.4147313 Z M35.6098208,53.4147313 L38.5773059,53.4147313 L38.5773059,56.3822163 L35.6098208,56.3822163 L35.6098208,53.4147313 Z M44.512276,53.4147313 L47.4797611,53.4147313 L47.4797611,56.3822163 L44.512276,56.3822163 L44.512276,53.4147313 Z M50.4472462,53.4147313 L53.4147313,53.4147313 L53.4147313,56.3822163 L50.4472462,56.3822163 L50.4472462,53.4147313 Z M59.3497014,53.4147313 L62.3171865,53.4147313 L62.3171865,56.3822163 L59.3497014,56.3822163 L59.3497014,53.4147313 Z M62.3171865,53.4147313 L65.2846715,53.4147313 L65.2846715,56.3822163 L62.3171865,56.3822163 L62.3171865,53.4147313 Z M74.1871267,53.4147313 L77.1546118,53.4147313 L77.1546118,56.3822163 L74.1871267,56.3822163 L74.1871267,53.4147313 Z M77.1546118,53.4147313 L80.1220969,53.4147313 L80.1220969,56.3822163 L77.1546118,56.3822163 L77.1546118,53.4147313 Z M80.1220969,53.4147313 L83.089582,53.4147313 L83.089582,56.3822163 L80.1220969,56.3822163 L80.1220969,53.4147313 Z M83.089582,53.4147313 L86.057067,53.4147313 L86.057067,56.3822163 L83.089582,56.3822163 L83.089582,53.4147313 Z M86.057067,53.4147313 L89.0245521,53.4147313 L89.0245521,56.3822163 L86.057067,56.3822163 L86.057067,53.4147313 Z M91.9920372,53.4147313 L94.9595222,53.4147313 L94.9595222,56.3822163 L91.9920372,56.3822163 L91.9920372,53.4147313 Z M0,56.3822163 L2.96748507,56.3822163 L2.96748507,59.3497014 L0,59.3497014 L0,56.3822163 Z M5.93497014,56.3822163 L8.90245521,56.3822163 L8.90245521,59.3497014 L5.93497014,59.3497014 L5.93497014,56.3822163 Z M14.8374253,56.3822163 L17.8049104,56.3822163 L17.8049104,59.3497014 L14.8374253,59.3497014 L14.8374253,56.3822163 Z M32.6423358,56.3822163 L35.6098208,56.3822163 L35.6098208,59.3497014 L32.6423358,59.3497014 L32.6423358,56.3822163 Z M41.544791,56.3822163 L44.512276,56.3822163 L44.512276,59.3497014 L41.544791,59.3497014 L41.544791,56.3822163 Z M47.4797611,56.3822163 L50.4472462,56.3822163 L50.4472462,59.3497014 L47.4797611,59.3497014 L47.4797611,56.3822163 Z M62.3171865,56.3822163 L65.2846715,56.3822163 L65.2846715,59.3497014 L62.3171865,59.3497014 L62.3171865,56.3822163 Z M83.089582,56.3822163 L86.057067,56.3822163 L86.057067,59.3497014 L83.089582,59.3497014 L83.089582,56.3822163 Z M89.0245521,56.3822163 L91.9920372,56.3822163 L91.9920372,59.3497014 L89.0245521,59.3497014 L89.0245521,56.3822163 Z M0,59.3497014 L2.96748507,59.3497014 L2.96748507,62.3171865 L0,62.3171865 L0,59.3497014 Z M2.96748507,59.3497014 L5.93497014,59.3497014 L5.93497014,62.3171865 L2.96748507,62.3171865 L2.96748507,59.3497014 Z M11.8699403,59.3497014 L14.8374253,59.3497014 L14.8374253,62.3171865 L11.8699403,62.3171865 L11.8699403,59.3497014 Z M14.8374253,59.3497014 L17.8049104,59.3497014 L17.8049104,62.3171865 L14.8374253,62.3171865 L14.8374253,59.3497014 Z M17.8049104,59.3497014 L20.7723955,59.3497014 L20.7723955,62.3171865 L17.8049104,62.3171865 L17.8049104,59.3497014 Z M20.7723955,59.3497014 L23.7398806,59.3497014 L23.7398806,62.3171865 L20.7723955,62.3171865 L20.7723955,59.3497014 Z M26.7073656,59.3497014 L29.6748507,59.3497014 L29.6748507,62.3171865 L26.7073656,62.3171865 L26.7073656,59.3497014 Z M29.6748507,59.3497014 L32.6423358,59.3497014 L32.6423358,62.3171865 L29.6748507,62.3171865 L29.6748507,59.3497014 Z M32.6423358,59.3497014 L35.6098208,59.3497014 L35.6098208,62.3171865 L32.6423358,62.3171865 L32.6423358,59.3497014 Z M35.6098208,59.3497014 L38.5773059,59.3497014 L38.5773059,62.3171865 L35.6098208,62.3171865 L35.6098208,59.3497014 Z M38.5773059,59.3497014 L41.544791,59.3497014 L41.544791,62.3171865 L38.5773059,62.3171865 L38.5773059,59.3497014 Z M41.544791,59.3497014 L44.512276,59.3497014 L44.512276,62.3171865 L41.544791,62.3171865 L41.544791,59.3497014 Z M50.4472462,59.3497014 L53.4147313,59.3497014 L53.4147313,62.3171865 L50.4472462,62.3171865 L50.4472462,59.3497014 Z M65.2846715,59.3497014 L68.2521566,59.3497014 L68.2521566,62.3171865 L65.2846715,62.3171865 L65.2846715,59.3497014 Z M68.2521566,59.3497014 L71.2196417,59.3497014 L71.2196417,62.3171865 L68.2521566,62.3171865 L68.2521566,59.3497014 Z M71.2196417,59.3497014 L74.1871267,59.3497014 L74.1871267,62.3171865 L71.2196417,62.3171865 L71.2196417,59.3497014 Z M74.1871267,59.3497014 L77.1546118,59.3497014 L77.1546118,62.3171865 L74.1871267,62.3171865 L74.1871267,59.3497014 Z M80.1220969,59.3497014 L83.089582,59.3497014 L83.089582,62.3171865 L80.1220969,62.3171865 L80.1220969,59.3497014 Z M83.089582,59.3497014 L86.057067,59.3497014 L86.057067,62.3171865 L83.089582,62.3171865 L83.089582,59.3497014 Z M91.9920372,59.3497014 L94.9595222,59.3497014 L94.9595222,62.3171865 L91.9920372,62.3171865 L91.9920372,59.3497014 Z M0,62.3171865 L2.96748507,62.3171865 L2.96748507,65.2846715 L0,65.2846715 L0,62.3171865 Z M2.96748507,62.3171865 L5.93497014,62.3171865 L5.93497014,65.2846715 L2.96748507,65.2846715 L2.96748507,62.3171865 Z M8.90245521,62.3171865 L11.8699403,62.3171865 L11.8699403,65.2846715 L8.90245521,65.2846715 L8.90245521,62.3171865 Z M11.8699403,62.3171865 L14.8374253,62.3171865 L14.8374253,65.2846715 L11.8699403,65.2846715 L11.8699403,62.3171865 Z M14.8374253,62.3171865 L17.8049104,62.3171865 L17.8049104,65.2846715 L14.8374253,65.2846715 L14.8374253,62.3171865 Z M20.7723955,62.3171865 L23.7398806,62.3171865 L23.7398806,65.2846715 L20.7723955,65.2846715 L20.7723955,62.3171865 Z M23.7398806,62.3171865 L26.7073656,62.3171865 L26.7073656,65.2846715 L23.7398806,65.2846715 L23.7398806,62.3171865 Z M35.6098208,62.3171865 L38.5773059,62.3171865 L38.5773059,65.2846715 L35.6098208,65.2846715 L35.6098208,62.3171865 Z M50.4472462,62.3171865 L53.4147313,62.3171865 L53.4147313,65.2846715 L50.4472462,65.2846715 L50.4472462,62.3171865 Z M53.4147313,62.3171865 L56.3822163,62.3171865 L56.3822163,65.2846715 L53.4147313,65.2846715 L53.4147313,62.3171865 Z M56.3822163,62.3171865 L59.3497014,62.3171865 L59.3497014,65.2846715 L56.3822163,65.2846715 L56.3822163,62.3171865 Z M59.3497014,62.3171865 L62.3171865,62.3171865 L62.3171865,65.2846715 L59.3497014,65.2846715 L59.3497014,62.3171865 Z M62.3171865,62.3171865 L65.2846715,62.3171865 L65.2846715,65.2846715 L62.3171865,65.2846715 L62.3171865,62.3171865 Z M65.2846715,62.3171865 L68.2521566,62.3171865 L68.2521566,65.2846715 L65.2846715,65.2846715 L65.2846715,62.3171865 Z M68.2521566,62.3171865 L71.2196417,62.3171865 L71.2196417,65.2846715 L68.2521566,65.2846715 L68.2521566,62.3171865 Z M77.1546118,62.3171865 L80.1220969,62.3171865 L80.1220969,65.2846715 L77.1546118,65.2846715 L77.1546118,62.3171865 Z M80.1220969,62.3171865 L83.089582,62.3171865 L83.089582,65.2846715 L80.1220969,65.2846715 L80.1220969,62.3171865 Z M86.057067,62.3171865 L89.0245521,62.3171865 L89.0245521,65.2846715 L86.057067,65.2846715 L86.057067,62.3171865 Z M91.9920372,62.3171865 L94.9595222,62.3171865 L94.9595222,65.2846715 L91.9920372,65.2846715 L91.9920372,62.3171865 Z M94.9595222,62.3171865 L97.9270073,62.3171865 L97.9270073,65.2846715 L94.9595222,65.2846715 L94.9595222,62.3171865 Z M0,65.2846715 L2.96748507,65.2846715 L2.96748507,68.2521566 L0,68.2521566 L0,65.2846715 Z M5.93497014,65.2846715 L8.90245521,65.2846715 L8.90245521,68.2521566 L5.93497014,68.2521566 L5.93497014,65.2846715 Z M8.90245521,65.2846715 L11.8699403,65.2846715 L11.8699403,68.2521566 L8.90245521,68.2521566 L8.90245521,65.2846715 Z M11.8699403,65.2846715 L14.8374253,65.2846715 L14.8374253,68.2521566 L11.8699403,68.2521566 L11.8699403,65.2846715 Z M17.8049104,65.2846715 L20.7723955,65.2846715 L20.7723955,68.2521566 L17.8049104,68.2521566 L17.8049104,65.2846715 Z M35.6098208,65.2846715 L38.5773059,65.2846715 L38.5773059,68.2521566 L35.6098208,68.2521566 L35.6098208,65.2846715 Z M38.5773059,65.2846715 L41.544791,65.2846715 L41.544791,68.2521566 L38.5773059,68.2521566 L38.5773059,65.2846715 Z M44.512276,65.2846715 L47.4797611,65.2846715 L47.4797611,68.2521566 L44.512276,68.2521566 L44.512276,65.2846715 Z M62.3171865,65.2846715 L65.2846715,65.2846715 L65.2846715,68.2521566 L62.3171865,68.2521566 L62.3171865,65.2846715 Z M74.1871267,65.2846715 L77.1546118,65.2846715 L77.1546118,68.2521566 L74.1871267,68.2521566 L74.1871267,65.2846715 Z M86.057067,65.2846715 L89.0245521,65.2846715 L89.0245521,68.2521566 L86.057067,68.2521566 L86.057067,65.2846715 Z M91.9920372,65.2846715 L94.9595222,65.2846715 L94.9595222,68.2521566 L91.9920372,68.2521566 L91.9920372,65.2846715 Z M0,68.2521566 L2.96748507,68.2521566 L2.96748507,71.2196417 L0,71.2196417 L0,68.2521566 Z M5.93497014,68.2521566 L8.90245521,68.2521566 L8.90245521,71.2196417 L5.93497014,71.2196417 L5.93497014,68.2521566 Z M8.90245521,68.2521566 L11.8699403,68.2521566 L11.8699403,71.2196417 L8.90245521,71.2196417 L8.90245521,68.2521566 Z M14.8374253,68.2521566 L17.8049104,68.2521566 L17.8049104,71.2196417 L14.8374253,71.2196417 L14.8374253,68.2521566 Z M20.7723955,68.2521566 L23.7398806,68.2521566 L23.7398806,71.2196417 L20.7723955,71.2196417 L20.7723955,68.2521566 Z M44.512276,68.2521566 L47.4797611,68.2521566 L47.4797611,71.2196417 L44.512276,71.2196417 L44.512276,68.2521566 Z M47.4797611,68.2521566 L50.4472462,68.2521566 L50.4472462,71.2196417 L47.4797611,71.2196417 L47.4797611,68.2521566 Z M59.3497014,68.2521566 L62.3171865,68.2521566 L62.3171865,71.2196417 L59.3497014,71.2196417 L59.3497014,68.2521566 Z M62.3171865,68.2521566 L65.2846715,68.2521566 L65.2846715,71.2196417 L62.3171865,71.2196417 L62.3171865,68.2521566 Z M68.2521566,68.2521566 L71.2196417,68.2521566 L71.2196417,71.2196417 L68.2521566,71.2196417 L68.2521566,68.2521566 Z M74.1871267,68.2521566 L77.1546118,68.2521566 L77.1546118,71.2196417 L74.1871267,71.2196417 L74.1871267,68.2521566 Z M80.1220969,68.2521566 L83.089582,68.2521566 L83.089582,71.2196417 L80.1220969,71.2196417 L80.1220969,68.2521566 Z M83.089582,68.2521566 L86.057067,68.2521566 L86.057067,71.2196417 L83.089582,71.2196417 L83.089582,68.2521566 Z M86.057067,68.2521566 L89.0245521,68.2521566 L89.0245521,71.2196417 L86.057067,71.2196417 L86.057067,68.2521566 Z M89.0245521,68.2521566 L91.9920372,68.2521566 L91.9920372,71.2196417 L89.0245521,71.2196417 L89.0245521,68.2521566 Z M0,71.2196417 L2.96748507,71.2196417 L2.96748507,74.1871267 L0,74.1871267 L0,71.2196417 Z M14.8374253,71.2196417 L17.8049104,71.2196417 L17.8049104,74.1871267 L14.8374253,74.1871267 L14.8374253,71.2196417 Z M17.8049104,71.2196417 L20.7723955,71.2196417 L20.7723955,74.1871267 L17.8049104,74.1871267 L17.8049104,71.2196417 Z M20.7723955,71.2196417 L23.7398806,71.2196417 L23.7398806,74.1871267 L20.7723955,74.1871267 L20.7723955,71.2196417 Z M38.5773059,71.2196417 L41.544791,71.2196417 L41.544791,74.1871267 L38.5773059,74.1871267 L38.5773059,71.2196417 Z M41.544791,71.2196417 L44.512276,71.2196417 L44.512276,74.1871267 L41.544791,74.1871267 L41.544791,71.2196417 Z M44.512276,71.2196417 L47.4797611,71.2196417 L47.4797611,74.1871267 L44.512276,74.1871267 L44.512276,71.2196417 Z M47.4797611,71.2196417 L50.4472462,71.2196417 L50.4472462,74.1871267 L47.4797611,74.1871267 L47.4797611,71.2196417 Z M50.4472462,71.2196417 L53.4147313,71.2196417 L53.4147313,74.1871267 L50.4472462,74.1871267 L50.4472462,71.2196417 Z M53.4147313,71.2196417 L56.3822163,71.2196417 L56.3822163,74.1871267 L53.4147313,74.1871267 L53.4147313,71.2196417 Z M59.3497014,71.2196417 L62.3171865,71.2196417 L62.3171865,74.1871267 L59.3497014,74.1871267 L59.3497014,71.2196417 Z M65.2846715,71.2196417 L68.2521566,71.2196417 L68.2521566,74.1871267 L65.2846715,74.1871267 L65.2846715,71.2196417 Z M68.2521566,71.2196417 L71.2196417,71.2196417 L71.2196417,74.1871267 L68.2521566,74.1871267 L68.2521566,71.2196417 Z M71.2196417,71.2196417 L74.1871267,71.2196417 L74.1871267,74.1871267 L71.2196417,74.1871267 L71.2196417,71.2196417 Z M74.1871267,71.2196417 L77.1546118,71.2196417 L77.1546118,74.1871267 L74.1871267,74.1871267 L74.1871267,71.2196417 Z M77.1546118,71.2196417 L80.1220969,71.2196417 L80.1220969,74.1871267 L77.1546118,74.1871267 L77.1546118,71.2196417 Z M80.1220969,71.2196417 L83.089582,71.2196417 L83.089582,74.1871267 L80.1220969,74.1871267 L80.1220969,71.2196417 Z M83.089582,71.2196417 L86.057067,71.2196417 L86.057067,74.1871267 L83.089582,74.1871267 L83.089582,71.2196417 Z M86.057067,71.2196417 L89.0245521,71.2196417 L89.0245521,74.1871267 L86.057067,74.1871267 L86.057067,71.2196417 Z M94.9595222,71.2196417 L97.9270073,71.2196417 L97.9270073,74.1871267 L94.9595222,74.1871267 L94.9595222,71.2196417 Z M23.7398806,74.1871267 L26.7073656,74.1871267 L26.7073656,77.1546118 L23.7398806,77.1546118 L23.7398806,74.1871267 Z M32.6423358,74.1871267 L35.6098208,74.1871267 L35.6098208,77.1546118 L32.6423358,77.1546118 L32.6423358,74.1871267 Z M38.5773059,74.1871267 L41.544791,74.1871267 L41.544791,77.1546118 L38.5773059,77.1546118 L38.5773059,74.1871267 Z M47.4797611,74.1871267 L50.4472462,74.1871267 L50.4472462,77.1546118 L47.4797611,77.1546118 L47.4797611,74.1871267 Z M50.4472462,74.1871267 L53.4147313,74.1871267 L53.4147313,77.1546118 L50.4472462,77.1546118 L50.4472462,74.1871267 Z M53.4147313,74.1871267 L56.3822163,74.1871267 L56.3822163,77.1546118 L53.4147313,77.1546118 L53.4147313,74.1871267 Z M56.3822163,74.1871267 L59.3497014,74.1871267 L59.3497014,77.1546118 L56.3822163,77.1546118 L56.3822163,74.1871267 Z M59.3497014,74.1871267 L62.3171865,74.1871267 L62.3171865,77.1546118 L59.3497014,77.1546118 L59.3497014,74.1871267 Z M62.3171865,74.1871267 L65.2846715,74.1871267 L65.2846715,77.1546118 L62.3171865,77.1546118 L62.3171865,74.1871267 Z M65.2846715,74.1871267 L68.2521566,74.1871267 L68.2521566,77.1546118 L65.2846715,77.1546118 L65.2846715,74.1871267 Z M71.2196417,74.1871267 L74.1871267,74.1871267 L74.1871267,77.1546118 L71.2196417,77.1546118 L71.2196417,74.1871267 Z M83.089582,74.1871267 L86.057067,74.1871267 L86.057067,77.1546118 L83.089582,77.1546118 L83.089582,74.1871267 Z M89.0245521,74.1871267 L91.9920372,74.1871267 L91.9920372,77.1546118 L89.0245521,77.1546118 L89.0245521,74.1871267 Z M94.9595222,74.1871267 L97.9270073,74.1871267 L97.9270073,77.1546118 L94.9595222,77.1546118 L94.9595222,74.1871267 Z M0,77.1546118 L2.96748507,77.1546118 L2.96748507,80.1220969 L0,80.1220969 L0,77.1546118 Z M2.96748507,77.1546118 L5.93497014,77.1546118 L5.93497014,80.1220969 L2.96748507,80.1220969 L2.96748507,77.1546118 Z M5.93497014,77.1546118 L8.90245521,77.1546118 L8.90245521,80.1220969 L5.93497014,80.1220969 L5.93497014,77.1546118 Z M8.90245521,77.1546118 L11.8699403,77.1546118 L11.8699403,80.1220969 L8.90245521,80.1220969 L8.90245521,77.1546118 Z M11.8699403,77.1546118 L14.8374253,77.1546118 L14.8374253,80.1220969 L11.8699403,80.1220969 L11.8699403,77.1546118 Z M14.8374253,77.1546118 L17.8049104,77.1546118 L17.8049104,80.1220969 L14.8374253,80.1220969 L14.8374253,77.1546118 Z M17.8049104,77.1546118 L20.7723955,77.1546118 L20.7723955,80.1220969 L17.8049104,80.1220969 L17.8049104,77.1546118 Z M23.7398806,77.1546118 L26.7073656,77.1546118 L26.7073656,80.1220969 L23.7398806,80.1220969 L23.7398806,77.1546118 Z M26.7073656,77.1546118 L29.6748507,77.1546118 L29.6748507,80.1220969 L26.7073656,80.1220969 L26.7073656,77.1546118 Z M44.512276,77.1546118 L47.4797611,77.1546118 L47.4797611,80.1220969 L44.512276,80.1220969 L44.512276,77.1546118 Z M47.4797611,77.1546118 L50.4472462,77.1546118 L50.4472462,80.1220969 L47.4797611,80.1220969 L47.4797611,77.1546118 Z M50.4472462,77.1546118 L53.4147313,77.1546118 L53.4147313,80.1220969 L50.4472462,80.1220969 L50.4472462,77.1546118 Z M59.3497014,77.1546118 L62.3171865,77.1546118 L62.3171865,80.1220969 L59.3497014,80.1220969 L59.3497014,77.1546118 Z M68.2521566,77.1546118 L71.2196417,77.1546118 L71.2196417,80.1220969 L68.2521566,80.1220969 L68.2521566,77.1546118 Z M71.2196417,77.1546118 L74.1871267,77.1546118 L74.1871267,80.1220969 L71.2196417,80.1220969 L71.2196417,77.1546118 Z M77.1546118,77.1546118 L80.1220969,77.1546118 L80.1220969,80.1220969 L77.1546118,80.1220969 L77.1546118,77.1546118 Z M83.089582,77.1546118 L86.057067,77.1546118 L86.057067,80.1220969 L83.089582,80.1220969 L83.089582,77.1546118 Z M89.0245521,77.1546118 L91.9920372,77.1546118 L91.9920372,80.1220969 L89.0245521,80.1220969 L89.0245521,77.1546118 Z M91.9920372,77.1546118 L94.9595222,77.1546118 L94.9595222,80.1220969 L91.9920372,80.1220969 L91.9920372,77.1546118 Z M0,80.1220969 L2.96748507,80.1220969 L2.96748507,83.089582 L0,83.089582 L0,80.1220969 Z M17.8049104,80.1220969 L20.7723955,80.1220969 L20.7723955,83.089582 L17.8049104,83.089582 L17.8049104,80.1220969 Z M29.6748507,80.1220969 L32.6423358,80.1220969 L32.6423358,83.089582 L29.6748507,83.089582 L29.6748507,80.1220969 Z M35.6098208,80.1220969 L38.5773059,80.1220969 L38.5773059,83.089582 L35.6098208,83.089582 L35.6098208,80.1220969 Z M47.4797611,80.1220969 L50.4472462,80.1220969 L50.4472462,83.089582 L47.4797611,83.089582 L47.4797611,80.1220969 Z M53.4147313,80.1220969 L56.3822163,80.1220969 L56.3822163,83.089582 L53.4147313,83.089582 L53.4147313,80.1220969 Z M59.3497014,80.1220969 L62.3171865,80.1220969 L62.3171865,83.089582 L59.3497014,83.089582 L59.3497014,80.1220969 Z M62.3171865,80.1220969 L65.2846715,80.1220969 L65.2846715,83.089582 L62.3171865,83.089582 L62.3171865,80.1220969 Z M65.2846715,80.1220969 L68.2521566,80.1220969 L68.2521566,83.089582 L65.2846715,83.089582 L65.2846715,80.1220969 Z M68.2521566,80.1220969 L71.2196417,80.1220969 L71.2196417,83.089582 L68.2521566,83.089582 L68.2521566,80.1220969 Z M71.2196417,80.1220969 L74.1871267,80.1220969 L74.1871267,83.089582 L71.2196417,83.089582 L71.2196417,80.1220969 Z M83.089582,80.1220969 L86.057067,80.1220969 L86.057067,83.089582 L83.089582,83.089582 L83.089582,80.1220969 Z M86.057067,80.1220969 L89.0245521,80.1220969 L89.0245521,83.089582 L86.057067,83.089582 L86.057067,80.1220969 Z M89.0245521,80.1220969 L91.9920372,80.1220969 L91.9920372,83.089582 L89.0245521,83.089582 L89.0245521,80.1220969 Z M94.9595222,80.1220969 L97.9270073,80.1220969 L97.9270073,83.089582 L94.9595222,83.089582 L94.9595222,80.1220969 Z M0,83.089582 L2.96748507,83.089582 L2.96748507,86.057067 L0,86.057067 L0,83.089582 Z M5.93497014,83.089582 L8.90245521,83.089582 L8.90245521,86.057067 L5.93497014,86.057067 L5.93497014,83.089582 Z M8.90245521,83.089582 L11.8699403,83.089582 L11.8699403,86.057067 L8.90245521,86.057067 L8.90245521,83.089582 Z M11.8699403,83.089582 L14.8374253,83.089582 L14.8374253,86.057067 L11.8699403,86.057067 L11.8699403,83.089582 Z M17.8049104,83.089582 L20.7723955,83.089582 L20.7723955,86.057067 L17.8049104,86.057067 L17.8049104,83.089582 Z M23.7398806,83.089582 L26.7073656,83.089582 L26.7073656,86.057067 L23.7398806,86.057067 L23.7398806,83.089582 Z M26.7073656,83.089582 L29.6748507,83.089582 L29.6748507,86.057067 L26.7073656,86.057067 L26.7073656,83.089582 Z M35.6098208,83.089582 L38.5773059,83.089582 L38.5773059,86.057067 L35.6098208,86.057067 L35.6098208,83.089582 Z M38.5773059,83.089582 L41.544791,83.089582 L41.544791,86.057067 L38.5773059,86.057067 L38.5773059,83.089582 Z M41.544791,83.089582 L44.512276,83.089582 L44.512276,86.057067 L41.544791,86.057067 L41.544791,83.089582 Z M50.4472462,83.089582 L53.4147313,83.089582 L53.4147313,86.057067 L50.4472462,86.057067 L50.4472462,83.089582 Z M71.2196417,83.089582 L74.1871267,83.089582 L74.1871267,86.057067 L71.2196417,86.057067 L71.2196417,83.089582 Z M74.1871267,83.089582 L77.1546118,83.089582 L77.1546118,86.057067 L74.1871267,86.057067 L74.1871267,83.089582 Z M77.1546118,83.089582 L80.1220969,83.089582 L80.1220969,86.057067 L77.1546118,86.057067 L77.1546118,83.089582 Z M80.1220969,83.089582 L83.089582,83.089582 L83.089582,86.057067 L80.1220969,86.057067 L80.1220969,83.089582 Z M83.089582,83.089582 L86.057067,83.089582 L86.057067,86.057067 L83.089582,86.057067 L83.089582,83.089582 Z M91.9920372,83.089582 L94.9595222,83.089582 L94.9595222,86.057067 L91.9920372,86.057067 L91.9920372,83.089582 Z M0,86.057067 L2.96748507,86.057067 L2.96748507,89.0245521 L0,89.0245521 L0,86.057067 Z M5.93497014,86.057067 L8.90245521,86.057067 L8.90245521,89.0245521 L5.93497014,89.0245521 L5.93497014,86.057067 Z M8.90245521,86.057067 L11.8699403,86.057067 L11.8699403,89.0245521 L8.90245521,89.0245521 L8.90245521,86.057067 Z M11.8699403,86.057067 L14.8374253,86.057067 L14.8374253,89.0245521 L11.8699403,89.0245521 L11.8699403,86.057067 Z M17.8049104,86.057067 L20.7723955,86.057067 L20.7723955,89.0245521 L17.8049104,89.0245521 L17.8049104,86.057067 Z M23.7398806,86.057067 L26.7073656,86.057067 L26.7073656,89.0245521 L23.7398806,89.0245521 L23.7398806,86.057067 Z M32.6423358,86.057067 L35.6098208,86.057067 L35.6098208,89.0245521 L32.6423358,89.0245521 L32.6423358,86.057067 Z M47.4797611,86.057067 L50.4472462,86.057067 L50.4472462,89.0245521 L47.4797611,89.0245521 L47.4797611,86.057067 Z M50.4472462,86.057067 L53.4147313,86.057067 L53.4147313,89.0245521 L50.4472462,89.0245521 L50.4472462,86.057067 Z M53.4147313,86.057067 L56.3822163,86.057067 L56.3822163,89.0245521 L53.4147313,89.0245521 L53.4147313,86.057067 Z M56.3822163,86.057067 L59.3497014,86.057067 L59.3497014,89.0245521 L56.3822163,89.0245521 L56.3822163,86.057067 Z M59.3497014,86.057067 L62.3171865,86.057067 L62.3171865,89.0245521 L59.3497014,89.0245521 L59.3497014,86.057067 Z M68.2521566,86.057067 L71.2196417,86.057067 L71.2196417,89.0245521 L68.2521566,89.0245521 L68.2521566,86.057067 Z M83.089582,86.057067 L86.057067,86.057067 L86.057067,89.0245521 L83.089582,89.0245521 L83.089582,86.057067 Z M86.057067,86.057067 L89.0245521,86.057067 L89.0245521,89.0245521 L86.057067,89.0245521 L86.057067,86.057067 Z M0,89.0245521 L2.96748507,89.0245521 L2.96748507,91.9920372 L0,91.9920372 L0,89.0245521 Z M5.93497014,89.0245521 L8.90245521,89.0245521 L8.90245521,91.9920372 L5.93497014,91.9920372 L5.93497014,89.0245521 Z M8.90245521,89.0245521 L11.8699403,89.0245521 L11.8699403,91.9920372 L8.90245521,91.9920372 L8.90245521,89.0245521 Z M11.8699403,89.0245521 L14.8374253,89.0245521 L14.8374253,91.9920372 L11.8699403,91.9920372 L11.8699403,89.0245521 Z M17.8049104,89.0245521 L20.7723955,89.0245521 L20.7723955,91.9920372 L17.8049104,91.9920372 L17.8049104,89.0245521 Z M23.7398806,89.0245521 L26.7073656,89.0245521 L26.7073656,91.9920372 L23.7398806,91.9920372 L23.7398806,89.0245521 Z M29.6748507,89.0245521 L32.6423358,89.0245521 L32.6423358,91.9920372 L29.6748507,91.9920372 L29.6748507,89.0245521 Z M35.6098208,89.0245521 L38.5773059,89.0245521 L38.5773059,91.9920372 L35.6098208,91.9920372 L35.6098208,89.0245521 Z M44.512276,89.0245521 L47.4797611,89.0245521 L47.4797611,91.9920372 L44.512276,91.9920372 L44.512276,89.0245521 Z M47.4797611,89.0245521 L50.4472462,89.0245521 L50.4472462,91.9920372 L47.4797611,91.9920372 L47.4797611,89.0245521 Z M53.4147313,89.0245521 L56.3822163,89.0245521 L56.3822163,91.9920372 L53.4147313,91.9920372 L53.4147313,89.0245521 Z M65.2846715,89.0245521 L68.2521566,89.0245521 L68.2521566,91.9920372 L65.2846715,91.9920372 L65.2846715,89.0245521 Z M71.2196417,89.0245521 L74.1871267,89.0245521 L74.1871267,91.9920372 L71.2196417,91.9920372 L71.2196417,89.0245521 Z M77.1546118,89.0245521 L80.1220969,89.0245521 L80.1220969,91.9920372 L77.1546118,91.9920372 L77.1546118,89.0245521 Z M89.0245521,89.0245521 L91.9920372,89.0245521 L91.9920372,91.9920372 L89.0245521,91.9920372 L89.0245521,89.0245521 Z M91.9920372,89.0245521 L94.9595222,89.0245521 L94.9595222,91.9920372 L91.9920372,91.9920372 L91.9920372,89.0245521 Z M0,91.9920372 L2.96748507,91.9920372 L2.96748507,94.9595222 L0,94.9595222 L0,91.9920372 Z M17.8049104,91.9920372 L20.7723955,91.9920372 L20.7723955,94.9595222 L17.8049104,94.9595222 L17.8049104,91.9920372 Z M23.7398806,91.9920372 L26.7073656,91.9920372 L26.7073656,94.9595222 L23.7398806,94.9595222 L23.7398806,91.9920372 Z M29.6748507,91.9920372 L32.6423358,91.9920372 L32.6423358,94.9595222 L29.6748507,94.9595222 L29.6748507,91.9920372 Z M32.6423358,91.9920372 L35.6098208,91.9920372 L35.6098208,94.9595222 L32.6423358,94.9595222 L32.6423358,91.9920372 Z M35.6098208,91.9920372 L38.5773059,91.9920372 L38.5773059,94.9595222 L35.6098208,94.9595222 L35.6098208,91.9920372 Z M41.544791,91.9920372 L44.512276,91.9920372 L44.512276,94.9595222 L41.544791,94.9595222 L41.544791,91.9920372 Z M47.4797611,91.9920372 L50.4472462,91.9920372 L50.4472462,94.9595222 L47.4797611,94.9595222 L47.4797611,91.9920372 Z M59.3497014,91.9920372 L62.3171865,91.9920372 L62.3171865,94.9595222 L59.3497014,94.9595222 L59.3497014,91.9920372 Z M62.3171865,91.9920372 L65.2846715,91.9920372 L65.2846715,94.9595222 L62.3171865,94.9595222 L62.3171865,91.9920372 Z M65.2846715,91.9920372 L68.2521566,91.9920372 L68.2521566,94.9595222 L65.2846715,94.9595222 L65.2846715,91.9920372 Z M74.1871267,91.9920372 L77.1546118,91.9920372 L77.1546118,94.9595222 L74.1871267,94.9595222 L74.1871267,91.9920372 Z M77.1546118,91.9920372 L80.1220969,91.9920372 L80.1220969,94.9595222 L77.1546118,94.9595222 L77.1546118,91.9920372 Z M86.057067,91.9920372 L89.0245521,91.9920372 L89.0245521,94.9595222 L86.057067,94.9595222 L86.057067,91.9920372 Z M89.0245521,91.9920372 L91.9920372,91.9920372 L91.9920372,94.9595222 L89.0245521,94.9595222 L89.0245521,91.9920372 Z M0,94.9595222 L2.96748507,94.9595222 L2.96748507,97.9270073 L0,97.9270073 L0,94.9595222 Z M2.96748507,94.9595222 L5.93497014,94.9595222 L5.93497014,97.9270073 L2.96748507,97.9270073 L2.96748507,94.9595222 Z M5.93497014,94.9595222 L8.90245521,94.9595222 L8.90245521,97.9270073 L5.93497014,97.9270073 L5.93497014,94.9595222 Z M8.90245521,94.9595222 L11.8699403,94.9595222 L11.8699403,97.9270073 L8.90245521,97.9270073 L8.90245521,94.9595222 Z M11.8699403,94.9595222 L14.8374253,94.9595222 L14.8374253,97.9270073 L11.8699403,97.9270073 L11.8699403,94.9595222 Z M14.8374253,94.9595222 L17.8049104,94.9595222 L17.8049104,97.9270073 L14.8374253,97.9270073 L14.8374253,94.9595222 Z M17.8049104,94.9595222 L20.7723955,94.9595222 L20.7723955,97.9270073 L17.8049104,97.9270073 L17.8049104,94.9595222 Z M23.7398806,94.9595222 L26.7073656,94.9595222 L26.7073656,97.9270073 L23.7398806,97.9270073 L23.7398806,94.9595222 Z M26.7073656,94.9595222 L29.6748507,94.9595222 L29.6748507,97.9270073 L26.7073656,97.9270073 L26.7073656,94.9595222 Z M38.5773059,94.9595222 L41.544791,94.9595222 L41.544791,97.9270073 L38.5773059,97.9270073 L38.5773059,94.9595222 Z M41.544791,94.9595222 L44.512276,94.9595222 L44.512276,97.9270073 L41.544791,97.9270073 L41.544791,94.9595222 Z M44.512276,94.9595222 L47.4797611,94.9595222 L47.4797611,97.9270073 L44.512276,97.9270073 L44.512276,94.9595222 Z M50.4472462,94.9595222 L53.4147313,94.9595222 L53.4147313,97.9270073 L50.4472462,97.9270073 L50.4472462,94.9595222 Z M65.2846715,94.9595222 L68.2521566,94.9595222 L68.2521566,97.9270073 L65.2846715,97.9270073 L65.2846715,94.9595222 Z M68.2521566,94.9595222 L71.2196417,94.9595222 L71.2196417,97.9270073 L68.2521566,97.9270073 L68.2521566,94.9595222 Z M71.2196417,94.9595222 L74.1871267,94.9595222 L74.1871267,97.9270073 L71.2196417,97.9270073 L71.2196417,94.9595222 Z M77.1546118,94.9595222 L80.1220969,94.9595222 L80.1220969,97.9270073 L77.1546118,97.9270073 L77.1546118,94.9595222 Z M80.1220969,94.9595222 L83.089582,94.9595222 L83.089582,97.9270073 L80.1220969,97.9270073 L80.1220969,94.9595222 Z M91.9920372,94.9595222 L94.9595222,94.9595222 L94.9595222,97.9270073 L91.9920372,97.9270073 L91.9920372,94.9595222 Z" id="Shape"></path>
                </g>
            </g>
        </g>
    </g>
</svg>