<?xml version="1.0" encoding="UTF-8"?>
<svg width="106px" height="123px" viewBox="0 0 106 123" version="1.1" xmlns="http://www.w3.org/2000/svg" xmlns:xlink="http://www.w3.org/1999/xlink">
    <title>Group 46</title>
    <defs>
        <polygon id="path-1" points="0 0 39.1331476 0 39.1331476 34.4883454 0 34.4883454"></polygon>
        <polygon id="path-3" points="0 0 35.9488205 0 35.9488205 67.8203371 0 67.8203371"></polygon>
    </defs>
    <g id="UI-Elements-for-Dev" stroke="none" stroke-width="1" fill="none" fill-rule="evenodd">
        <g id="UI-Elements" transform="translate(-57, -857)">
            <g id="Group-46" transform="translate(57, 857)">
                <ellipse id="Oval" fill-opacity="0.08" fill="#EF951E" cx="62.3655668" cy="51.0281943" rx="42.6797559" ry="43.2471756"></ellipse>
                <g id="Group-47" transform="translate(50.5918, 61.4672) rotate(14) translate(-50.5918, -61.4672)translate(11.8367, 7.781)">
                    <g id="Group-49" transform="translate(38.7552, 53.6861) rotate(-360) translate(-38.7552, -53.6861)translate(-0, 0)">
                        <path d="M63.464066,45.6384713 C63.464066,45.6384713 57.6133283,57.3687474 51.670189,65.4660496 C49.3055278,68.6888262 46.9260604,71.3356517 44.8952497,72.439527 C42.9073222,73.5196969 41.224554,75.198107 39.8320156,77.0578487 C36.2255219,81.8732031 34.5611234,87.901909 34.5611234,87.901909 L19.3639259,64.8597433 C19.3639259,64.8597433 19.8825183,42.3357118 21.7071454,38.5680169 C24.3666442,33.0775179 25.6512371,21.9839651 26.6729398,19.775414 C27.4308921,18.1370261 29.5953904,9.673982 29.8029871,9.05203619 C29.8930542,8.78407181 30.6133454,8.3738735 31.5486057,8.3738735 C32.2991241,8.3738735 33.573457,9.10092491 33.8948356,10.5949864 C35.5200371,18.1466314 33.5638113,23.127801 33.5859902,23.3491549 C34.1592619,29.1528742 32.4358221,33.4609927 33.6443557,34.6018732 C33.6894507,34.644112 33.7728825,34.6241009 33.891088,34.5486128 C35.9861621,33.200417 48.98931,14.2012993 50.5909195,13.791102 C52.2825962,13.3587385 63.464066,45.6384713 63.464066,45.6384713" id="Fill-1" fill="#EFA26F"></path>
                        <g id="Group-5" transform="translate(0, 72.884)">
                            <mask id="mask-2" fill="white">
                                <use xlink:href="#path-1"></use>
                            </mask>
                            <g id="Clip-4"></g>
                            <path d="M39.1331476,10.4577532 C39.1331476,10.4577532 38.9262267,20.6973543 38.3336638,34.4883454 L-3.07186612e-05,34.4883454 C8.76240596,15.7616869 16.3802039,0 16.3802039,0 C16.3802039,0 38.2069186,0.668125337 39.1331476,10.4577532" id="Fill-3" fill="#EF951E" mask="url(#mask-2)"></path>
                        </g>
                        <path d="M76.751085,5.93905608 L72.0449247,12.8534237 L67.4268654,19.6389196 C67.1453596,19.9793551 66.8193732,20.0977594 66.466723,20.0637097 C65.3585166,19.9582972 63.9873584,18.3563603 62.918779,17.4695288 L62.8104036,17.3803099 C61.4012772,16.2120912 61.2022817,14.1010712 62.367932,12.6896403 L69.4264045,4.13848569 L69.4264045,4.13768525 L71.5199427,1.60187529 C72.6855316,0.189643907 74.7919102,-0.00979005885 76.200238,1.15836715 L76.3086134,1.24758599 C77.7177398,2.41580477 77.9167968,4.5268247 76.751085,5.93905608" id="Fill-6" fill="#FFB27D"></path>
                        <path d="M72.0449001,12.8534175 L67.4268409,19.6389135 C67.1453351,19.9793489 66.8193486,20.0977532 66.4666984,20.0637035 L69.4264414,4.13847954 C69.4328923,4.22769838 69.936064,11.3730867 72.0449001,12.8534175" id="Fill-8" fill="#EFA26F"></path>
                        <path d="M51.6702012,65.4660804 C49.3055401,68.688857 46.9260112,71.3356209 44.8952619,72.4395578 C42.9073345,73.5197276 41.2245662,75.1981378 39.8320279,77.0578795 C38.230234,76.3096481 36.4044397,75.431683 34.6198698,74.5623997 C32.4466474,73.5038419 32.3633383,70.4112916 34.4918958,69.265239 C34.5126616,69.2540943 34.5330588,69.2427034 34.553026,69.2312509 C36.5475886,68.0874149 38.591424,64.0488001 38.591424,64.0488001 L51.6702012,65.4660804 Z" id="Fill-10" fill="#D38254"></path>
                        <path d="M29.6970876,9.40242793 L28.4656993,14.3846443 C28.4656993,14.3846443 29.5421426,14.8259358 30.2334354,14.4832838 C30.9247896,14.1405701 31.4888456,9.6706386 29.6970876,9.40242793" id="Fill-12" fill="#FFC197"></path>
                        <g id="Group-16" transform="translate(33.8949, 0)">
                            <mask id="mask-4" fill="white">
                                <use xlink:href="#path-3"></use>
                            </mask>
                            <g id="Clip-15"></g>
                            <path d="M31.2134774,67.8203371 L4.73534307,67.8203371 C2.13095353,67.8203371 0,65.6846881 0,63.0744983 L0,4.74582031 C0,2.13563053 2.13095353,-1.84718093e-05 4.73534307,-1.84718093e-05 L31.2134774,-1.84718093e-05 C33.8179284,-1.84718093e-05 35.9488205,2.13563053 35.9488205,4.74582031 L35.9488205,63.0744983 C35.9488205,65.6846881 33.8179284,67.8203371 31.2134774,67.8203371" id="Fill-14" fill="#1B4CA1" mask="url(#mask-4)"></path>
                        </g>
                        <path d="M68.0622134,5.19504239 L68.0622134,62.1717071 C68.0622134,64.1047204 66.4953773,65.6857841 64.5814204,65.6857841 L39.157059,65.6857841 C37.2431021,65.6857841 35.6769419,64.1047204 35.6769419,62.1717071 L35.6769419,5.19504239 C35.6769419,3.26209071 37.2431021,1.68102699 39.157059,1.68102699 L64.5814204,1.68102699 C66.4953773,1.68102699 68.0622134,3.26209071 68.0622134,5.19504239" id="Fill-17" fill="#C0D8FB"></path>
                        <path d="M64.5813959,1.68100852 L39.471655,65.6858272 L39.1570959,65.6858272 C37.243139,65.6858272 35.6769788,64.1047019 35.6769788,62.1716887 L35.6769788,5.19502392 C35.6769788,3.26207224 37.243139,1.68100852 39.1570959,1.68100852 L64.5813959,1.68100852 Z" id="Fill-19" fill-opacity="0.04" fill="#1B4CA1"></path>
                        <path d="M57.182579,3.79988512 L46.556564,3.79988512 C45.691035,3.79988512 44.982847,3.09013664 44.982847,2.22263891 L44.982847,1.97468566 C44.982847,1.1072495 45.691035,0.397501018 46.556564,0.397501018 L57.182579,0.397501018 C58.048108,0.397501018 58.756296,1.1072495 58.756296,1.97468566 L58.756296,2.22263891 C58.756296,3.09013664 58.048108,3.79988512 57.182579,3.79988512" id="Fill-21" fill="#2B478B"></path>
                        <path d="M74.4083693,32.0502082 L73.7065708,32.3174953 L68.9872629,34.1148639 C68.8766757,34.1569796 68.7646754,34.1929381 68.6527981,34.2210768 C67.0900169,34.6281955 65.4273386,33.7933313 64.8414109,32.2478566 L64.7722325,32.0662171 C64.144343,30.4099732 64.9824096,28.5398256 66.6350735,27.9104911 L71.0347231,26.235098 L71.3543814,26.1131225 L72.0562414,25.8458354 C73.708844,25.2165009 75.5741425,26.0565987 76.2020319,27.7128427 L76.2712104,27.8944822 C76.8991612,29.5507262 76.0609718,31.4208737 74.4083693,32.0502082" id="Fill-23" fill="#FFB27D"></path>
                        <path d="M70.5759153,32.1587116 C69.7883502,32.4578318 68.36239,32.98865 67.5998299,33.0984341 C67.3841849,33.1295899 66.9864397,33.0119861 66.6155426,32.6048058 C66.3929552,32.3610395 66.1798905,32.0134616 66.0220581,31.5319016 C65.9478418,31.3054372 65.8865888,31.0797733 65.8607237,30.8472132 C65.8313566,30.5748772 65.8391592,30.3025411 65.8865888,30.0327911 C65.9297178,29.7898868 66.0953528,29.568533 66.3369243,29.4518527 C66.3377845,29.4509907 66.3395047,29.4509907 66.3403648,29.4501287 C67.1512146,29.0619128 68.2441846,28.5890345 69.2025454,28.3253187 C69.8650855,28.1420783 70.5353666,28.4351028 70.7449908,29.0161028 L70.8441506,29.2875768 L71.350517,30.6777651 C71.5602026,31.2552555 71.2194712,31.9157458 70.5759153,32.1587116" id="Fill-25" fill="#FFD3B6"></path>
                        <path d="M70.5759153,32.1587116 C69.7883502,32.4578318 68.36239,32.98865 67.5998299,33.0984341 C67.3841849,33.1295899 66.9864397,33.0119861 66.6155426,32.6048058 C66.5758541,32.5123236 66.5396061,32.4146078 66.5051397,32.3099958 C66.4309234,32.0834698 66.3696704,31.8578674 66.3438053,31.6252458 C66.3144997,31.3529713 66.3222408,31.0806353 66.3696704,30.8108853 C66.4127994,30.567981 66.5784959,30.3466272 66.8199446,30.2298853 C66.8208661,30.2290849 66.8225249,30.2290849 66.8234465,30.2281613 C67.6342963,29.840007 68.7272662,29.3671287 69.6856885,29.1034128 C70.1100975,28.9858706 70.5370869,29.0636369 70.8441506,29.2875768 L71.350517,30.6777651 C71.5602026,31.2552555 71.2194712,31.9157458 70.5759153,32.1587116" id="Fill-27" fill="#FFC197"></path>
                        <path d="M72.2669407,38.6998194 L68.627578,39.6928023 C67.5217062,39.9945085 66.3705551,39.3346339 66.0695123,38.2263254 L65.9573891,37.8134804 C65.6562848,36.7051719 66.3147086,35.5515458 67.4205804,35.249778 L71.0599431,34.2567951 C72.1658149,33.9550274 73.316966,34.6149635 73.6180089,35.7232721 L73.730132,36.136117 C74.0312363,37.2444256 73.3727511,38.3981132 72.2669407,38.6998194" id="Fill-29" fill="#FFB27D"></path>
                        <path d="M70.2990357,38.5208399 C69.6304748,38.6998317 68.4218797,39.0153918 67.7887681,39.0499341 C67.5584396,39.0629259 67.0969225,38.8674942 66.7958181,38.2606337 C66.7216019,38.1136596 66.65869,37.9433496 66.6094787,37.7461938 C66.5654896,37.5672635 66.531822,37.3899957 66.5284429,37.2102034 C66.5241423,36.9983934 66.5508675,36.7900314 66.6094787,36.586041 C66.6621305,36.4018771 66.8148023,36.2427732 67.0209859,36.169317 C67.0227062,36.1683934 67.0235049,36.1683934 67.0244264,36.167593 C67.7179923,35.9220411 68.6496279,35.628955 69.4553784,35.4880767 C70.0117548,35.3903608 70.5396857,35.6583868 70.6699328,36.1182732 L70.7639319,36.4468251 L71.0443319,37.4332198 C71.1736574,37.8897197 70.8450906,38.3755899 70.2990357,38.5208399" id="Fill-31" fill="#FFD3B6"></path>
                        <path d="M70.2990357,38.5208399 C69.6304748,38.6998317 68.4218797,39.0153918 67.7887681,39.0499341 C67.5584396,39.0629259 67.0969225,38.8674942 66.7958181,38.2606337 C66.7552695,38.0937717 66.7259639,37.9269096 66.7225234,37.7574616 C66.7182228,37.5465135 66.7448866,37.3372895 66.8035592,37.1332376 C66.856211,36.9499972 67.0088828,36.7900314 67.2150664,36.7165751 C67.2167867,36.7157131 67.2177082,36.7157131 67.2185069,36.7147895 C67.9120728,36.4692992 68.8437698,36.1762131 69.6494589,36.0361353 C70.1101159,35.9549209 70.5517274,36.125231 70.7639319,36.4468251 L71.0443319,37.4332198 C71.1736574,37.8897197 70.8450906,38.3755899 70.2990357,38.5208399" id="Fill-33" fill="#FFC197"></path>
                        <path d="M12.6483227,80.6528938 C12.6483227,80.6528938 20.1392526,87.8432918 25.1890933,90.6194816 L29.0125222,87.9016627 L29.0125222,91.9110305 C29.0125222,91.9110305 36.5318975,93.2436484 38.9036854,91.9110305 L38.9036854,80.9773819 L17.7837457,70.3664975 L12.6483227,80.6528938 Z" id="Fill-35" fill="#ED7D2B"></path>
                        <path d="M19.3642761,64.0487693 C19.3642761,64.0487693 14.6071842,71.1809195 9.87933648,78.8066365 C9.87933648,78.8066365 19.8430571,85.6761792 25.2449337,87.690961 L32.3304387,79.5581928 L31.318996,89.3481285 C31.318996,89.3481285 37.5895349,91.6388792 40.4988993,91.0407004 C40.4988993,91.0407004 40.3150788,82.159393 40.3171063,76.3405884 C40.3171063,76.3405884 23.0793295,71.4983268 19.3642761,64.0487693" id="Fill-37" fill="#F3F8FF"></path>
                        <path d="M20.5343499,82.1484331 C20.5403707,81.4956393 21.0732781,80.9714094 21.7246366,80.9773819 C22.3759336,80.9834776 22.8990724,81.5175592 22.8930516,82.1702914 C22.8870307,82.8230851 22.3541234,83.3473766 21.7027649,83.3413425 C21.0514678,83.3352468 20.528329,82.8012268 20.5343499,82.1484331" id="Fill-39" fill="#F99746"></path>
                        <path d="M74.2935368,25.0599646 C74.2676717,25.0695084 74.2418066,25.0781285 74.2150814,25.0868103 L69.4437975,26.3144467 C67.3458358,26.8547471 65.1762996,25.7170069 64.6225036,23.7865181 L64.3387246,22.7974758 C63.8064931,20.9438914 64.9503331,19.0055829 66.8998622,18.3771103 L68.4750538,17.9715926 L71.6711461,17.1494123 C73.7690464,16.6091119 75.9385826,17.7468522 76.49244,19.677341 L76.776219,20.6663832 C77.3007094,22.4949076 76.1947762,24.4046464 74.2935368,25.0599646" id="Fill-41" fill="#FFB27D"></path>
                        <path d="M72.1071177,23.7251486 L69.7891489,24.7720691 C69.7857699,24.7729927 69.7814693,24.7737932 69.7745268,24.7755788 C69.6813879,24.8006389 69.5873273,24.8196033 69.4941883,24.8334571 C69.45536,24.8395528 69.4156714,24.8438629 69.3767816,24.848173 C69.3604393,24.849897 69.3440355,24.849897 69.3276932,24.849035 C69.0722983,24.8403533 68.8972633,24.5689408 69.0076662,24.326837 C69.2267517,23.848725 69.2862844,23.2954327 69.138712,22.7516227 L69.0835413,22.5493563 C69.0835413,22.5476323 69.0826197,22.5450463 69.081821,22.5433222 L68.9024241,21.8836939 C68.7600738,21.3580478 68.4573107,20.9179877 68.0622072,20.5998416 C68.0147776,20.5609277 67.9655663,20.5245998 67.9154949,20.4899959 C67.4574182,20.1719114 67.5739648,19.4516955 68.110497,19.3021354 C68.1156577,19.3004114 68.1199583,19.2995494 68.1251191,19.2978254 L70.6691157,18.9122571 C71.2979267,18.741085 71.9034529,19.2260932 72.0751703,19.8563513 L72.2795722,20.6075998 L72.7144256,22.2095982 C72.8851599,22.8407183 72.7359287,23.5539765 72.1071177,23.7251486" id="Fill-43" fill="#FFD3B6"></path>
                        <path d="M72.1071177,23.7251486 L69.7891489,24.7720691 C69.7857699,24.7729927 69.7814693,24.7737932 69.7745268,24.7755788 C69.7201548,24.785923 69.5502806,24.8144312 69.3276932,24.849035 C69.0722983,24.8403533 68.8972633,24.5689408 69.0076662,24.326837 C69.2267517,23.848725 69.2862844,23.2954327 69.138712,22.7516227 L69.0835413,22.5493563 C69.0835413,22.5476323 69.0826197,22.5450463 69.081821,22.5433222 L68.9024241,21.8836939 C68.7600738,21.3580478 68.4573107,20.9179877 68.0622072,20.5998416 C68.1441646,20.4796517 68.2666092,20.3845835 68.4270835,20.3395738 C68.4313841,20.3378498 68.4366063,20.3369878 68.441767,20.3352637 L70.9856408,19.9496955 C71.5152919,19.8053075 72.0277406,20.1269633 72.2795722,20.6075998 L72.7144256,22.2095982 C72.8851599,22.8407183 72.7359287,23.5539765 72.1071177,23.7251486" id="Fill-45" fill="#FFC197"></path>
                        <path d="M33.8948049,49.9325635 C33.8948049,49.9325635 32.8539338,40.8261463 31.8935456,39.0507591 C30.9332188,37.2745715 30.1205873,33.7186251 31.5980935,31.0762944 C33.0755382,28.4332248 33.5860209,23.3491672 33.5860209,23.3491672 C34.1592312,29.1528865 32.4357914,33.461005 33.644325,34.6018855 C33.6894199,34.6441243 33.7729133,34.6241132 33.8911187,34.5485635 L33.8948049,49.9325635 Z" id="Fill-47" fill="#D38254"></path>
                    </g>
                    <rect id="Rectangle" fill-opacity="0.08" fill="#1B4CA1" x="37.2834649" y="32.8082022" width="7.8491505" height="5.96512767" rx="0.985182704"></rect>
                    <rect id="Rectangle-Copy-4" fill-opacity="0.08" fill="#1B4CA1" x="37.2834649" y="40.7617057" width="7.8491505" height="5.96512767" rx="0.985182704"></rect>
                    <rect id="Rectangle-Copy-9" fill-opacity="0.08" fill="#1B4CA1" x="37.2834649" y="48.7152093" width="7.8491505" height="5.96512767" rx="0.985182704"></rect>
                    <rect id="Rectangle-Copy-2" fill-opacity="0.08" fill="#1B4CA1" x="48.0760468" y="32.8082022" width="7.8491505" height="5.96512767" rx="0.985182704"></rect>
                    <rect id="Rectangle-Copy-5" fill-opacity="0.08" fill="#1B4CA1" x="48.0760468" y="40.7617057" width="7.8491505" height="5.96512767" rx="0.985182704"></rect>
                    <rect id="Rectangle-Copy-10" fill-opacity="0.08" fill="#1B4CA1" x="48.0760468" y="48.7152093" width="7.8491505" height="5.96512767" rx="0.985182704"></rect>
                    <rect id="Rectangle-Copy-12" fill-opacity="0.08" fill="#1B4CA1" x="48.0760468" y="56.6687128" width="7.8491505" height="5.96512767" rx="0.985182704"></rect>
                    <rect id="Rectangle-Copy-3" fill-opacity="0.08" fill="#1B4CA1" x="58.8686288" y="32.8082022" width="7.8491505" height="5.96512767" rx="0.985182704"></rect>
                    <rect id="Rectangle-Copy-7" fill-opacity="0.08" fill="#1B4CA1" x="58.8686288" y="40.7617057" width="7.8491505" height="5.96512767" rx="0.985182704"></rect>
                    <rect id="Rectangle-Copy-11" fill-opacity="0.08" fill="#1B4CA1" x="58.8686288" y="48.7152093" width="7.8491505" height="5.96512767" rx="0.985182704"></rect>
                </g>
            </g>
        </g>
    </g>
</svg>