<?xml version="1.0" encoding="UTF-8"?>
<svg width="72px" height="72px" viewBox="0 0 72 72" version="1.1" xmlns="http://www.w3.org/2000/svg" xmlns:xlink="http://www.w3.org/1999/xlink">
    <title>04 courses-completed-once@2x</title>
    <g id="Ideations" stroke="none" stroke-width="1" fill="none" fill-rule="evenodd">
        <g id="08-CEO-Dashboard---Color-Variation-(Blue-with-Clipart-based)" transform="translate(-531.000000, -321.000000)">
            <g id="04-courses-completed-once" transform="translate(531.000000, 321.000000)">
                <rect id="Rectangle" fill="#FFFFFF" opacity="0" x="0" y="0" width="72" height="72"></rect>
                <g id="icon" transform="translate(8.000000, 11.000000)" fill-rule="nonzero">
                    <path d="M55.4303186,0.574101981 C55.0726323,0.204496042 54.5812344,-0.0027199055 54.0689406,0 L1.9310594,0 C1.41876558,-0.0027199055 0.92736772,0.204496042 0.569681386,0.574101981 C0.202921419,0.934563878 -0.00269896218,1.42977487 0,1.94604397 L0,42.812401 C-0.00269896218,43.3286701 0.202921419,43.8238811 0.569681386,44.184343 C0.92736772,44.5539489 1.41876558,44.7611649 1.9310594,44.758445 L53.1034243,44.758445 C54.7031441,44.758445 56,43.4515257 56,41.8393925 L56,1.94604397 C56.002699,1.42977487 55.7970786,0.934563878 55.4303186,0.574101981 Z" id="Shape" fill="#F3D55B"></path>
                    <path d="M56,1.94604397 L56,41.8393925 C56,42.6134549 55.6943127,43.3556974 55.1503189,43.9021705 L51.1723916,39.8933755 L51.1723916,4.86506947 L55.4303186,0.574101981 C55.7970786,0.934563878 56.002699,1.42977487 56,1.94604397 Z" id="Shape" fill="#F0C419"></path>
                    <path d="M4.82760835,4.86506947 L4.82760835,39.8933755 L0.569681386,44.184343 C0.202921419,43.8238811 -0.00269896218,43.3286701 0,42.812401 L0,1.94604397 C-0.00269896218,1.42977487 0.202921419,0.934563878 0.569681386,0.574101981 L4.82760835,4.86506947 Z" id="Shape" fill="#F0C419"></path>
                    <path d="M55.1503189,43.9021705 C54.6080536,44.4503856 53.8715264,44.758445 53.1034243,44.758445 L1.9310594,44.758445 C1.41876558,44.7611649 0.92736772,44.5539489 0.569681386,44.184343 L4.82760835,39.8933755 L51.1723916,39.8933755 L55.1503189,43.9021705 Z" id="Shape" fill="#F29C1F"></path>
                    <polygon id="Rectangle-path" fill="#ECF0F1" points="4.82760835 4.86506947 51.1723916 4.86506947 51.1723916 39.8933755 4.82760835 39.8933755"></polygon>
                    <path d="M51.1723916,4.86506947 C51.1723916,4.86506947 4.82760835,4.86506947 4.82760835,39.8933755 L4.82760835,4.86506947 L51.1723916,4.86506947 Z" id="Shape" fill="#FFFFFF"></path>
                    <path d="M34.7586142,11.676129 L21.2413858,11.676129 C20.7081459,11.676129 20.2758695,11.2404982 20.2758695,10.7031205 C20.2758695,10.1657428 20.7081459,9.73011197 21.2413858,9.73011197 L34.7586142,9.73011197 C35.2918541,9.73011197 35.7241305,10.1657428 35.7241305,10.7031205 C35.7241305,11.2404982 35.2918541,11.676129 34.7586142,11.676129 Z" id="Shape" fill="#BDC3C7"></path>
                    <path d="M25.103451,33.082316 L11.5862226,33.082316 C11.0529827,33.082316 10.6207063,32.6466852 10.6207063,32.1093075 C10.6207063,31.5719298 11.0529827,31.136299 11.5862226,31.136299 L25.103451,31.136299 C25.6366909,31.136299 26.0689674,31.5719298 26.0689674,32.1093075 C26.0689674,32.6466852 25.6366909,33.082316 25.103451,33.082316 Z" id="Shape" fill="#95A5A5"></path>
                    <path d="M37.6551632,16.5411715 L18.3448368,16.5411715 C17.8115969,16.5411715 17.3793205,16.1055407 17.3793205,15.568163 C17.3793205,15.0307853 17.8115969,14.5951545 18.3448368,14.5951545 L37.6551632,14.5951545 C38.1884031,14.5951545 38.6206795,15.0307853 38.6206795,15.568163 C38.6206795,16.1055407 38.1884031,16.5411715 37.6551632,16.5411715 Z" id="Shape" fill="#BDC3C7"></path>
                    <path d="M33.7930511,35.3905449 L33.7930511,49.0201952 C33.7907488,49.359164 33.9636224,49.6749336 34.2494133,49.8536976 C34.5352041,50.0324615 34.8927154,50.0484509 35.1930966,49.8959029 L37.703439,48.6212617 C37.9773312,48.4850726 38.2985115,48.4850726 38.5724037,48.6212617 L41.0827461,49.8959029 C41.3831273,50.0484509 41.7406386,50.0324615 42.0264294,49.8536976 C42.3122203,49.6749336 42.4850939,49.359164 42.4827916,49.0201952 L42.4827916,35.3905449 L33.7930511,35.3905449 Z" id="Shape" fill="#FF5364"></path>
                    <path d="M25.103451,29.190282 C22.739248,29.1903183 20.41502,28.5756794 18.3554575,27.4057844 C16.2924367,28.5862319 13.9585655,29.2014842 11.5862226,29.190282 C11.0529827,29.190282 10.6207063,28.7546512 10.6207063,28.2172735 C10.6207063,27.6798958 11.0529827,27.244265 11.5862226,27.244265 C13.3168392,27.2519943 15.0276164,26.8728224 16.5953212,26.1340623 C15.5932312,25.3599022 14.9522748,24.2035642 14.8235988,22.9377294 C14.8235988,22.3539243 15.0775296,20.4332055 18.3448368,20.4332055 C21.612144,20.4332055 21.8660748,22.3500322 21.8660748,22.9377294 C21.7380578,24.2051515 21.097543,25.3634349 20.0953179,26.1399003 C21.6635874,26.8753113 23.3737296,27.2524219 25.103451,27.244265 C25.6366909,27.244265 26.0689674,27.6798958 26.0689674,28.2172735 C26.0689674,28.7546512 25.6366909,29.190282 25.103451,29.190282 L25.103451,29.190282 Z M18.3448368,22.3792225 C17.6110444,22.3792225 16.7546314,22.5251738 16.7546314,22.9377294 C16.7546314,23.350285 17.1881483,24.1812342 18.3371127,25.07251 C19.364422,24.2804811 19.9350422,23.4524509 19.9350422,22.9377294 C19.9350422,22.5251738 19.0786292,22.3792225 18.3448368,22.3792225 L18.3448368,22.3792225 Z" id="Shape" fill="#95A5A5"></path>
                    <path d="M47.3103264,29.6767862 C47.3103264,30.798665 45.2315697,31.4943661 44.829915,32.4702936 C44.4137774,33.4812495 45.3792937,35.4515917 44.6232945,36.2134573 C43.8672952,36.975323 41.9121246,36.0023145 40.9099187,36.4207082 C39.9415058,36.8254797 39.2511617,38.920367 38.1379213,38.920367 C37.024681,38.920367 36.3343369,36.8254797 35.365924,36.4207082 C34.3627525,36.0013415 32.407582,36.97435 31.6515827,36.2124843 C30.8955834,35.4506187 31.8610998,33.4802765 31.4459277,32.4702936 C31.044273,31.4943661 28.9655163,30.798665 28.9655163,29.6767862 C28.9655163,28.5549074 31.044273,27.8592064 31.4459277,26.8832788 C31.8620653,25.872323 30.896549,23.9019808 31.6525482,23.1401151 C32.4085475,22.3782495 34.3637181,23.351258 35.365924,22.9328643 C36.3314403,22.5280928 37.024681,20.4332055 38.1379213,20.4332055 C39.2511617,20.4332055 39.9415058,22.5280928 40.9099187,22.9328643 C41.9130902,23.352231 43.8682607,22.3792225 44.62426,23.1410881 C45.3802593,23.9029538 44.4147429,25.873296 44.829915,26.8832788 C45.2315697,27.8592064 47.3103264,28.5549074 47.3103264,29.6767862 L47.3103264,29.6767862 Z" id="Shape" fill="#FB7B76"></path>
                    <ellipse id="Oval" fill="#DF4D60" cx="38.1379213" cy="29.6767862" rx="3.37930712" ry="3.40552975"></ellipse>
                </g>
            </g>
        </g>
    </g>
</svg>