<?xml version="1.0" encoding="UTF-8"?>
<svg width="42px" height="42px" viewBox="0 0 42 42" version="1.1" xmlns="http://www.w3.org/2000/svg" xmlns:xlink="http://www.w3.org/1999/xlink">
    <title>Group 55</title>
    <defs>
        <path d="M3.55271368e-15,2.14 C3.55271368e-15,3.322 0.959,4.281 2.14,4.281 L2.14,4.281 C3.323,4.281 4.28,3.322 4.28,2.14 L4.28,2.14 C4.28,0.959 3.323,0 2.14,0 L2.14,0 C0.959,0 3.55271368e-15,0.959 3.55271368e-15,2.14" id="path-1"></path>
        <polygon id="path-3" points="1.77635684e-15 0 15.184 0 15.184 17.3277137 1.77635684e-15 17.3277137"></polygon>
        <polygon id="path-5" points="0 0 6.6876 0 6.6876 5.164 0 5.164"></polygon>
        <polygon id="path-7" points="0 42 41.41 42 41.41 0 0 0"></polygon>
    </defs>
    <g id="Symbols" stroke="none" stroke-width="1" fill="none" fill-rule="evenodd">
        <g id="Logos/KarmayogiBharat_Logo" transform="translate(-39.000000, 0.000000)">
            <g id="Group-55" transform="translate(39.000000, 0.000000)">
                <g id="Group-5" transform="translate(5.190500, 0.975500)" fill="#264092">
                    <path d="M26.6349,10.097 C25.8409,9.973 24.9459,9.894 23.9489,9.894 C23.8349,9.9 23.7229,9.906 23.6129,9.914 C23.9469,9.332 24.2509,8.81 24.5349,8.233 C27.3389,7.8 28.9969,8.114 28.9969,8.114 C28.9969,8.114 28.2979,8.616 26.6349,10.097 M22.9809,9.966 C22.3169,10.033 21.7109,10.131 21.1589,10.254 C21.3489,9.829 21.5039,9.381 21.6329,8.92 C21.8989,8.815 21.7699,8.359 22.0629,8.26 C22.5589,8.117 24.3729,7.659 24.8199,7.571 C24.5439,8.127 24.0699,10.268 22.9809,9.966 M22.2469,5.471 C24.6469,4.163 26.2469,3.941 26.2469,3.941 C26.2469,3.941 25.5219,4.797 24.1069,7.672 C23.6559,7.752 23.2599,7.853 22.7669,7.981 C22.4229,8.089 22.0969,8.201 21.7869,8.317 C22.0109,7.346 22.1399,6.416 22.2469,5.471 M27.2689,10.209 C29.3509,8.314 30.2169,7.891 30.2169,7.891 C30.2169,7.891 28.2089,7.103 24.8199,7.571 C24.8359,7.539 24.8519,7.506 24.8669,7.474 C26.4939,4.123 27.3339,3.239 27.3339,3.239 C27.3339,3.239 25.2499,3.206 22.3199,4.745 C22.7279,1.101 23.2169,0 23.2169,0 C23.2169,0 20.6329,0.896 17.8719,4.786 C17.7289,5.011 17.5939,5.232 17.4679,5.449 L17.5569,6.33 C17.7069,6.049 17.5699,6.136 17.7519,5.839 C20.0959,2.352 22.2969,1.147 22.2969,1.147 C22.2969,1.147 22.0419,2.014 21.6779,5.056 C21.2369,5.31 20.8559,5.598 20.3859,5.928 C19.0919,6.933 18.4639,7.833 17.7989,8.731 L17.8739,8.796 C18.4629,7.914 19.0359,7.148 20.3289,6.098 C20.7939,5.754 21.8889,5.004 22.3199,4.745 C22.2129,5.654 22.0219,7.38 21.7869,8.317 C20.1849,8.987 18.7799,9.917 17.9929,10.653 C18.6709,9.952 20.2229,9.334 21.7869,8.642 C21.6509,9.073 21.3589,9.864 21.1589,10.254 C19.9829,10.578 18.7579,11.093 18.0819,11.535 L18.1379,11.932 C18.6879,11.539 19.6789,10.931 20.6989,10.606 C20.5919,11.306 20.0439,12.407 18.2009,12.713 L18.2489,13.188 C19.6349,12.756 20.2489,11.794 20.8699,10.682 C21.3979,10.551 22.9579,9.992 23.6129,9.914 C22.6059,11.827 19.2979,14.689 18.2739,13.431 L18.3209,13.898 C20.7729,13.953 22.0819,12.391 23.2929,10.449 C23.3619,10.443 23.4319,10.437 23.5019,10.432 C23.9489,9.894 26.5089,10.106 27.2689,10.209 C27.1349,10.334 26.2189,11.424 26.0729,11.561 C24.0679,13.456 20.0439,16.317 18.3549,14.386 L18.4069,14.749 C21.6729,15.775 24.2169,13.103 26.4249,10.996 C26.5419,10.885 26.6549,10.854 26.7659,10.749 C28.8349,11.13 29.9059,11.664 29.9059,11.664 C29.9059,11.664 28.8579,11.963 26.0289,13.517 C23.7109,14.79 21.0199,16.379 18.4279,14.958 L18.4849,15.527 C21.2829,16.876 24.2039,15.137 26.7289,13.734 C29.9849,11.926 31.1809,11.685 31.1809,11.685 C31.1809,11.685 29.8559,10.723 27.2689,10.209" id="Fill-1"></path>
                    <path d="M2.184,8.1144 C2.184,8.1144 3.842,7.8004 6.646,8.2324 C6.93,8.8104 7.234,9.3314 7.568,9.9134 C7.458,9.9064 7.346,9.8994 7.232,9.8944 C6.235,9.8944 5.34,9.9734 4.546,10.0974 C2.882,8.6164 2.184,8.1144 2.184,8.1144 M6.36,7.5704 C6.808,7.6594 8.622,8.1174 9.118,8.2604 C9.411,8.3584 9.282,8.8154 9.548,8.9204 C9.677,9.3814 9.832,9.8294 10.022,10.2544 C9.47,10.1314 8.864,10.0324 8.199,9.9664 C7.11,10.2684 6.637,8.1274 6.36,7.5704 M9.394,8.3174 C9.084,8.2014 8.758,8.0884 8.414,7.9814 C7.921,7.8524 7.525,7.7524 7.074,7.6724 C5.659,4.7964 4.934,3.9404 4.934,3.9404 C4.934,3.9404 6.534,4.1634 8.934,5.4714 C9.041,6.4154 9.17,7.3464 9.394,8.3174 M0,11.6844 C0,11.6844 1.196,11.9254 4.452,13.7344 C6.977,15.1374 9.898,16.8754 12.695,15.5274 L12.753,14.9584 C10.161,16.3794 7.47,14.7894 5.152,13.5164 C2.323,11.9634 1.275,11.6644 1.275,11.6644 C1.275,11.6644 2.346,11.1294 4.414,10.7494 C4.526,10.8534 4.639,10.8844 4.756,10.9964 C6.964,13.1034 9.508,15.7754 12.774,14.7494 L12.901,14.3104 C11.212,16.2424 7.113,13.4554 5.107,11.5614 C4.962,11.4234 4.046,10.3334 3.912,10.2094 C4.672,10.1054 7.232,9.8944 7.679,10.4324 C7.749,10.4374 7.819,10.4434 7.888,10.4484 C9.099,12.3914 10.408,13.9524 12.86,13.8984 L12.907,13.4314 C11.882,14.6894 8.704,11.8734 7.568,9.9134 C8.223,9.9914 9.768,10.6134 10.297,10.7444 C10.917,11.8564 11.546,12.7564 12.932,13.1884 L12.98,12.7134 C11.137,12.4064 10.589,11.3064 10.482,10.6064 C11.502,10.9304 12.493,11.5384 13.043,11.9324 L13.099,11.5344 C12.422,11.0934 11.197,10.5784 10.022,10.2544 C9.822,9.8634 9.53,9.0734 9.394,8.6424 C10.958,9.3344 12.509,9.9524 13.188,10.6534 C12.401,9.9164 10.996,8.9864 9.394,8.3174 C9.159,7.3804 8.968,5.6544 8.861,4.7454 C9.292,5.0044 10.387,5.7534 10.852,6.0974 C12.145,7.1474 12.717,7.9144 13.307,8.7954 L13.382,8.7314 C12.717,7.8324 12.089,6.9324 10.795,5.9284 C10.325,5.5984 9.944,5.3104 9.503,5.0564 C9.138,2.0144 8.883,1.1464 8.883,1.1464 C8.883,1.1464 11.085,2.3524 13.429,5.8384 C13.611,6.1364 13.474,6.0494 13.624,6.3294 L13.713,5.4494 C13.587,5.2324 13.452,5.0114 13.308,4.7864 C10.548,0.8964 7.964,0.0004 7.964,0.0004 C7.964,0.0004 8.453,1.1014 8.861,4.7454 C5.931,3.2054 3.847,3.2394 3.847,3.2394 C3.847,3.2394 4.687,4.1234 6.314,7.4744 C6.329,7.5064 6.345,7.5384 6.36,7.5704 C2.972,7.1034 0.964,7.8914 0.964,7.8914 C0.964,7.8914 1.83,8.3134 3.912,10.2094 C1.325,10.7224 0,11.6844 0,11.6844" id="Fill-3"></path>
                </g>
                <g id="Group-8" transform="translate(18.702000, 10.570000)">
                    <mask id="mask-2" fill="white">
                        <use xlink:href="#path-1"></use>
                    </mask>
                    <g id="Clip-7"></g>
                    <path d="M3.55271368e-15,2.14 C3.55271368e-15,3.322 0.959,4.281 2.14,4.281 L2.14,4.281 C3.323,4.281 4.28,3.322 4.28,2.14 L4.28,2.14 C4.28,0.959 3.323,0 2.14,0 L2.14,0 C0.959,0 3.55271368e-15,0.959 3.55271368e-15,2.14" id="Fill-6" mask="url(#mask-2)"></path>
                </g>
                <g id="Group-54">
                    <polygon id="Fill-9" fill="#264092" points="23.4216 19.6263 20.8126 12.8023 18.2036 19.6263 20.0646 21.2793 20.0976 18.3613 20.7056 17.8523 21.5106 18.1923 21.5266 19.3463 21.4116 21.4823 22.3836 20.4743"></polygon>
                    <path d="M20.8253,22.3712 C20.8253,22.3712 20.5463,23.5732 21.7193,23.5222 C22.6323,23.4822 25.1523,23.0382 26.1573,22.8622 C27.1633,22.6872 29.1733,23.4132 27.9403,25.7602 C27.2773,26.8602 24.9253,26.9932 22.4783,25.2862 C20.0313,23.5792 18.7283,22.6542 17.7933,22.2322 C16.5513,21.6722 13.5083,21.1182 12.8993,24.1862 C12.5853,26.3562 14.9283,26.7842 14.9283,26.7842 C14.9283,26.7842 13.3043,26.2662 13.2783,24.6602 C13.2613,23.5572 14.3503,21.8002 16.5513,22.5542 C18.7693,23.3142 18.7603,23.5982 21.9283,25.9502 C23.9003,27.2772 27.1063,28.3592 28.6233,26.1392 C29.5343,24.6222 29.0033,22.5352 26.9733,22.2892 C25.4183,22.0992 25.5313,22.7252 22.0603,23.2372 C20.8843,23.4042 20.8323,22.9632 20.8253,22.3712" id="Fill-11" fill="#1B2133"></path>
                    <path d="M18.9066,27.0507 L16.8616,26.1017 C16.1916,25.7907 15.3966,26.0817 15.0856,26.7517 L15.0556,26.8147 L15.8876,27.1867 C15.8876,27.1867 16.5216,26.9497 16.7946,27.5807 C17.3256,27.8147 17.5786,27.9457 17.5786,27.9457 L17.5406,28.0287 L16.7586,27.6727 C16.7586,27.6727 16.1376,27.8947 15.8496,27.2917 C15.2616,27.0177 15.0786,26.9227 15.0216,26.8897 L15.0046,26.9257 C14.6936,27.5967 14.9846,28.3917 15.6546,28.7027 L17.6996,29.6507 C18.3696,29.9617 19.1656,29.6707 19.4766,29.0007 L19.5566,28.8267 C19.8676,28.1567 19.5766,27.3617 18.9066,27.0507" id="Fill-13" fill="#1B2133"></path>
                    <path d="M20.8347,17.7262 L20.8257,17.7262 C19.9097,17.7262 19.9927,18.7972 19.9927,18.7972 L19.9927,20.5622 C19.6547,19.9002 17.9347,18.8602 17.9347,18.8602 L19.2247,6.0912 L18.5987,6.1062 L17.2867,19.4132 C17.2867,19.4132 20.1017,20.9252 20.6327,22.9082 L20.6327,19.0422 L20.6327,19.0422 C20.4807,18.9722 20.3807,18.8182 20.3807,18.6402 C20.3807,18.3952 20.5797,18.1972 20.8237,18.1972 C21.0687,18.1972 21.2677,18.3952 21.2677,18.6402 C21.2677,18.8192 21.1617,18.9742 21.0087,19.0432 L21.0087,19.0432 L21.0087,22.9082 C21.6787,20.7022 24.2907,19.4142 24.2907,19.4142 C24.2907,19.4142 23.3657,9.6412 22.9887,6.0912 L22.4457,6.0912 L22.5967,7.5842 L23.7357,18.8602 C23.7357,18.8602 22.0157,19.9002 21.6777,20.5622 L21.6777,18.7972 C21.6777,18.7972 21.7537,17.7262 20.8447,17.7262 L20.8347,17.7262 Z" id="Fill-15" fill="#EF951E"></path>
                    <g id="Group-19" transform="translate(4.040600, 0.000000)">
                        <mask id="mask-4" fill="white">
                            <use xlink:href="#path-3"></use>
                        </mask>
                        <g id="Clip-18"></g>
                        <path d="M2.354,8.9078 C2.354,8.9078 4.141,8.3258 7.163,8.7918 C7.469,9.4138 7.797,10.0578 8.157,10.6848 C8.038,10.6768 7.917,10.6698 7.795,10.6638 C6.72,10.6638 5.755,10.7488 4.9,10.8828 C3.107,9.2858 2.354,8.9078 2.354,8.9078 M5.237,4.3288 C5.237,4.3288 7.043,4.4058 9.629,5.8158 C9.744,6.8338 9.883,7.9178 10.125,8.9648 C9.79,8.8388 9.439,8.7178 9.069,8.6018 C8.537,8.4638 8.029,8.3548 7.543,8.2688 C6.018,5.1698 5.237,4.3288 5.237,4.3288 M10.291,9.6138 C10.43,10.1108 10.597,10.5938 10.801,11.0518 C10.207,10.9198 9.554,10.8128 8.837,10.7408 C8.48,10.1368 8.16,9.5138 7.862,8.9138 C8.344,9.0088 8.853,9.1308 9.388,9.2838 C9.704,9.3908 10.004,9.5008 10.291,9.6138 M5.553,14.5678 C2.503,12.8938 1.374,12.6528 1.374,12.6528 C1.374,12.6528 2.528,11.9138 4.758,11.5038 C4.878,11.6168 4.999,11.7318 5.126,11.8518 C7.528,14.1428 10.629,17.1368 14.189,15.9458 L14.245,15.3888 C10.944,16.5968 8.098,13.8768 5.915,11.8148 C5.758,11.6668 5.608,11.5258 5.462,11.3918 C6.282,11.2808 7.219,11.2178 8.276,11.2438 C8.352,11.2488 8.427,11.2548 8.502,11.2618 C9.822,13.3798 11.583,15.1618 14.278,15.0588 L14.329,14.5548 C11.958,14.6358 10.385,13.1418 9.204,11.3318 C9.909,11.4158 10.544,11.5338 11.114,11.6758 C11.796,12.8978 12.808,13.8698 14.353,14.3248 L14.404,13.8138 C13.271,13.4368 12.462,12.7518 11.878,11.8918 C13.032,12.2588 13.87,12.7238 14.469,13.1668 L14.53,12.5708 C13.791,12.0748 12.8,11.5838 11.481,11.2198 C11.266,10.7988 11.09,10.3508 10.943,9.8858 C12.695,10.6618 13.827,11.5358 14.556,12.3138 L14.623,11.6428 C13.772,10.8258 12.538,9.9588 10.754,9.2128 C10.5,8.2028 10.36,7.1488 10.245,6.1698 C10.71,6.4488 11.195,6.7698 11.696,7.1398 C13.15,8.3208 14.112,9.4338 14.747,10.4148 L14.829,9.6038 C14.107,8.6048 13.084,7.5138 11.635,6.3888 C11.129,6.0338 10.636,5.7228 10.161,5.4498 C9.768,2.1708 9.331,1.1548 9.331,1.1548 C9.331,1.1548 11.947,2.2108 14.474,5.9678 C14.702,6.3418 14.905,6.7028 15.087,7.0518 L15.184,6.0918 C15.025,5.8138 14.854,5.5298 14.669,5.2398 C11.693,1.0468 8.584,-0.0002 8.584,-0.0002 C8.584,-0.0002 9.111,1.1868 9.55,5.1138 C6.392,3.4548 4.146,3.4908 4.146,3.4908 C4.146,3.4908 5.052,4.4438 6.805,8.0558 C6.822,8.0898 6.838,8.1248 6.855,8.1598 C3.203,7.6558 1.039,8.5048 1.039,8.5048 C1.039,8.5048 1.973,8.9608 4.216,11.0038 C1.428,11.5568 1.77635684e-15,12.5938 1.77635684e-15,12.5938 C1.77635684e-15,12.5938 1.289,12.8528 4.798,14.8028 C7.549,16.3308 11.068,18.3128 14.106,16.7678 L14.169,16.1478 C11.353,17.7778 8.081,15.9558 5.553,14.5678" id="Fill-17" fill="#EF951E" mask="url(#mask-4)"></path>
                    </g>
                    <path d="M32.6373,10.8823 C31.7813,10.7493 30.8173,10.6643 29.7423,10.6643 C29.6193,10.6693 29.4993,10.6773 29.3793,10.6843 C29.7403,10.0573 30.0673,9.4143 30.3733,8.7913 C33.3963,8.3263 35.1833,8.9073 35.1833,8.9073 C35.1833,8.9073 34.4303,9.2863 32.6373,10.8823 M28.6993,10.7413 C27.9833,10.8133 27.3303,10.9193 26.7353,11.0513 C26.9393,10.5943 27.1063,10.1103 27.2463,9.6133 C27.5323,9.5013 27.8323,9.3903 28.1493,9.2843 C28.6833,9.1303 29.1933,9.0093 29.6753,8.9143 C29.3773,9.5133 29.0563,10.1363 28.6993,10.7413 M27.9083,5.8153 C30.4943,4.4053 32.2993,4.3283 32.2993,4.3283 C32.2993,4.3283 31.5183,5.1703 29.9933,8.2693 C29.5073,8.3553 28.9993,8.4633 28.4683,8.6013 C28.0973,8.7173 27.7463,8.8393 27.4113,8.9643 C27.6533,7.9173 27.7923,6.8333 27.9083,5.8153 M33.3213,11.0033 C35.5643,8.9603 36.4973,8.5043 36.4973,8.5043 C36.4973,8.5043 34.3343,7.6553 30.6813,8.1593 C30.6983,8.1253 30.7153,8.0903 30.7323,8.0553 C32.4853,4.4443 33.3903,3.4913 33.3903,3.4913 C33.3903,3.4913 31.1453,3.4543 27.9863,5.1143 C28.4263,1.1863 28.9533,0.0003 28.9533,0.0003 C28.9533,0.0003 25.8443,1.0463 22.8683,5.2393 C22.7133,5.4823 22.5683,5.7203 22.4323,5.9533 L22.5283,6.9033 C22.6893,6.6003 22.8673,6.2893 23.0623,5.9683 C25.5903,2.2103 28.2053,1.1543 28.2053,1.1543 C28.2053,1.1543 27.7683,2.1703 27.3763,5.4493 C26.9003,5.7233 26.4083,6.0333 25.9023,6.3893 C24.5073,7.4713 23.5063,8.5233 22.7893,9.4913 L22.8703,10.2913 C23.5053,9.3413 24.4473,8.2713 25.8413,7.1403 C26.3423,6.7693 26.8273,6.4493 27.2923,6.1693 C27.1763,7.1493 27.0363,8.2023 26.7833,9.2133 C25.0563,9.9343 23.8463,10.7693 22.9983,11.5633 L23.0653,12.2263 C23.7963,11.4703 24.9073,10.6323 26.5933,9.8853 C26.4473,10.3503 26.2713,10.7993 26.0553,11.2203 C24.7883,11.5693 23.8233,12.0373 23.0943,12.5133 L23.1543,13.1033 C23.7473,12.6803 24.5593,12.2413 25.6593,11.8913 C25.0903,12.7293 24.3093,13.4013 23.2233,13.7833 L23.2743,14.2953 C24.7683,13.8293 25.7553,12.8733 26.4233,11.6753 C26.9933,11.5333 27.6273,11.4153 28.3333,11.3313 C27.1673,13.1183 25.6203,14.5963 23.3013,14.5573 L23.3523,15.0603 C25.9943,15.1193 27.7303,13.3553 29.0353,11.2613 C29.1093,11.2553 29.1843,11.2493 29.2613,11.2443 C30.3173,11.2173 31.2553,11.2803 32.0743,11.3923 C31.9293,11.5263 31.7783,11.6663 31.6223,11.8143 C29.4603,13.8563 26.6493,16.5443 23.3883,15.4243 L23.4443,15.9773 C26.9643,17.0833 30.0313,14.1223 32.4113,11.8513 C32.5373,11.7313 32.6593,11.6163 32.7793,11.5043 C35.0083,11.9143 36.1623,12.6523 36.1623,12.6523 C36.1623,12.6523 35.0333,12.8933 31.9843,14.5683 C29.4863,15.9403 26.2603,17.7343 23.4673,16.2033 L23.5293,16.8163 C26.5443,18.2693 30.0173,16.3143 32.7383,14.8023 C36.2483,12.8533 37.5363,12.5933 37.5363,12.5933 C37.5363,12.5933 36.1083,11.5563 33.3213,11.0033" id="Fill-20" fill="#EF951E"></path>
                    <g id="Group-24" transform="translate(0.000000, 32.382000)">
                        <mask id="mask-6" fill="white">
                            <use xlink:href="#path-5"></use>
                        </mask>
                        <g id="Clip-23"></g>
                        <path d="M6.6876,0.862 L3.8866,0.862 L3.8866,1.701 C4.1116,1.501 4.3836,1.401 4.7016,1.401 C5.1586,1.401 5.5266,1.543 5.8066,1.828 C6.0856,2.113 6.2256,2.476 6.2256,2.917 C6.2256,3.394 6.0666,3.775 5.7486,4.06 C5.4306,4.344 5.0226,4.487 4.5256,4.487 C4.4486,4.487 4.3886,4.484 4.3486,4.479 L4.3486,3.609 C4.3786,3.614 4.4196,3.617 4.4716,3.617 C4.6816,3.617 4.8446,3.553 4.9596,3.425 C5.0756,3.296 5.1326,3.132 5.1326,2.932 C5.1326,2.747 5.0796,2.59 4.9716,2.459 C4.8636,2.328 4.7076,2.263 4.5016,2.263 C4.3226,2.263 4.1746,2.328 4.0596,2.459 C3.9436,2.59 3.8866,2.763 3.8866,2.978 L3.8866,5.164 L2.7936,5.164 L2.7936,4.271 C2.5726,4.466 2.3006,4.564 1.9776,4.564 C1.5216,4.564 1.1526,4.421 0.8736,4.137 C0.5936,3.852 0.4536,3.489 0.4536,3.048 C0.4536,2.57 0.6126,2.19 0.9316,1.905 C1.2496,1.62 1.6576,1.478 2.1546,1.478 C2.2266,1.478 2.2856,1.48 2.3316,1.485 L2.3316,2.355 C2.3006,2.35 2.2596,2.347 2.2086,2.347 C1.9986,2.347 1.8356,2.412 1.7196,2.54 C1.6046,2.668 1.5466,2.832 1.5466,3.032 C1.5466,3.217 1.6006,3.375 1.7086,3.505 C1.8166,3.636 1.9726,3.702 2.1776,3.702 C2.3576,3.702 2.5046,3.636 2.6206,3.505 C2.7356,3.375 2.7936,3.202 2.7936,2.986 L2.7936,0.862 L-0.0004,0.862 L-0.0004,0 L6.6876,0 L6.6876,0.862 Z" id="Fill-22" fill="#EF951E" mask="url(#mask-6)"></path>
                    </g>
                    <mask id="mask-8" fill="white">
                        <use xlink:href="#path-7"></use>
                    </mask>
                    <g id="Clip-26"></g>
                    <path d="M8.142,34.675 L9.358,34.675 L9.358,33.244 L8.142,33.244 L8.142,34.675 Z M6.226,33.244 L6.226,32.382 L11.19,32.382 L11.19,33.244 L10.42,33.244 L10.42,37.546 L9.358,37.546 L9.358,35.537 L8.142,35.537 L8.142,36.476 L7.226,36.476 L6.949,35.861 C6.8,35.522 6.726,35.286 6.726,35.152 C6.726,34.932 6.841,34.791 7.072,34.729 L7.072,33.244 L6.226,33.244 Z" id="Fill-25" fill="#EF951E" mask="url(#mask-8)"></path>
                    <path d="M10.6585,31.2893 C10.4995,31.2893 10.3665,31.3373 10.2585,31.4313 C10.1505,31.5263 10.0965,31.6563 10.0965,31.8203 C10.0965,32.0513 10.1945,32.2693 10.3895,32.4743 L9.2965,32.4743 C9.2705,32.4543 9.2415,32.4223 9.2075,32.3783 C9.1745,32.3343 9.1285,32.2393 9.0695,32.0933 C9.0105,31.9473 8.9805,31.7943 8.9805,31.6353 C8.9805,31.2153 9.1165,30.8933 9.3885,30.6703 C9.6605,30.4463 9.9915,30.3353 10.3815,30.3353 C10.7565,30.3353 11.0745,30.3993 11.3355,30.5273 L11.3355,31.4893 C11.0795,31.3563 10.8535,31.2893 10.6585,31.2893" id="Fill-27" fill="#EF951E" mask="url(#mask-8)"></path>
                    <path d="M13.2674,35.7759 C13.5594,35.7759 13.7904,35.6909 13.9604,35.5219 C14.1294,35.3529 14.2144,35.0989 14.2144,34.7599 L14.2144,33.2439 L13.2134,33.2439 C13.3214,33.4079 13.3754,33.6289 13.3754,33.9059 C13.3754,34.2389 13.2814,34.5129 13.0944,34.7249 C12.9074,34.9379 12.6644,35.0939 12.3674,35.1909 C12.4854,35.5809 12.7854,35.7759 13.2674,35.7759 M13.0824,36.7299 C12.5744,36.7299 12.1374,36.5459 11.7704,36.1759 C11.4034,35.8069 11.1814,35.2989 11.1044,34.6519 C11.9054,34.5399 12.3054,34.2729 12.3054,33.8519 C12.3054,33.5949 12.2314,33.3929 12.0824,33.2439 L10.7274,33.2439 L10.7274,32.3819 L16.0684,32.3819 L16.0684,33.2439 L15.2994,33.2439 L15.2994,37.5459 L14.2144,37.5459 L14.2144,36.2379 C14.1264,36.3869 13.9804,36.5059 13.7754,36.5959 C13.5704,36.6849 13.3394,36.7299 13.0824,36.7299" id="Fill-28" fill="#EF951E" mask="url(#mask-8)"></path>
                    <path d="M17.4614,32.382 L18.2234,32.382 L18.2234,33.244 L17.4534,33.244 L17.4534,37.546 L16.3764,37.546 L16.3764,33.244 L15.6064,33.244 L15.6064,32.382 L16.2994,32.382 L15.7834,31.628 C15.6454,31.418 15.4504,31.312 15.1984,31.312 C15.0394,31.312 14.8754,31.338 14.7064,31.389 L14.7064,30.481 C14.8914,30.445 15.0864,30.427 15.2914,30.427 C15.6044,30.432 15.8684,30.489 16.0834,30.597 C16.2994,30.704 16.4894,30.884 16.6534,31.135 L17.4614,32.382 Z" id="Fill-29" fill="#EF951E" mask="url(#mask-8)"></path>
                    <path d="M17.7616,32.382 L22.7256,32.382 L22.7256,33.244 L21.9556,33.244 L21.9556,37.546 L20.8786,37.546 L20.8786,33.244 L20.0246,33.244 L20.0246,34.891 C20.0246,35.26 19.9206,35.535 19.7126,35.714 C19.5046,35.894 19.2366,35.984 18.9086,35.984 C18.6616,35.984 18.4336,35.948 18.2236,35.876 L18.2236,35.029 C18.3366,35.091 18.4616,35.122 18.6006,35.122 C18.8266,35.122 18.9396,35.004 18.9396,34.768 L18.9396,33.244 L17.7616,33.244 L17.7616,32.382 Z" id="Fill-30" fill="#EF951E" mask="url(#mask-8)"></path>
                    <path d="M24.1105,32.382 L24.8875,32.382 L24.8875,33.244 L24.1185,33.244 L24.1185,37.546 L23.0335,37.546 L23.0335,33.244 L22.2635,33.244 L22.2635,32.382 L23.0255,32.382 L23.0255,31.92 C23.0255,31.73 22.9755,31.584 22.8755,31.482 C22.7755,31.379 22.6325,31.328 22.4485,31.328 C22.0895,31.328 21.9095,31.525 21.9095,31.92 L21.9095,32.113 L20.8165,32.113 L20.8165,31.882 C20.8165,31.4 20.9705,31.035 21.2785,30.789 C21.5865,30.543 21.9765,30.42 22.4485,30.42 C22.9255,30.42 23.3215,30.541 23.6375,30.785 C23.9525,31.029 24.1105,31.392 24.1105,31.874 L24.1105,32.382 Z" id="Fill-31" fill="#EF951E" mask="url(#mask-8)"></path>
                    <path d="M29.5283,34.6368 L29.5283,32.3818 L31.3603,32.3818 L31.3603,33.2438 L30.5903,33.2438 L30.5903,37.5458 L29.5283,37.5458 L29.5283,35.4988 L28.3503,35.4988 L28.3503,36.4608 L27.4123,36.4608 L27.1353,35.8678 C26.9963,35.5758 26.9273,35.3498 26.9273,35.1908 C26.9273,34.9238 27.0453,34.7578 27.2813,34.6908 L27.2813,33.5898 C27.2813,33.3488 27.1633,33.2288 26.9273,33.2288 C26.7933,33.2288 26.6553,33.2648 26.5113,33.3368 L26.5113,32.4978 C26.7063,32.3948 26.9273,32.3438 27.1733,32.3438 C27.9583,32.3438 28.3503,32.7158 28.3503,33.4598 L28.3503,34.6368 L29.5283,34.6368 Z" id="Fill-32" fill="#264092" mask="url(#mask-8)"></path>
                    <polygon id="Fill-33" fill="#264092" mask="url(#mask-8)" points="30.898 33.244 30.898 32.382 33.522 32.382 33.522 33.244 32.753 33.244 32.753 37.546 31.668 37.546 31.668 33.244"></polygon>
                    <path d="M33.5606,35.5757 L33.5606,34.7297 L34.1456,34.7297 C34.6176,34.7297 34.8536,34.5347 34.8536,34.1447 L34.8536,33.2437 L33.0606,33.2437 L33.0606,32.3817 L36.7316,32.3817 L36.7316,33.2437 L35.9306,33.2437 L35.9306,34.2057 C35.9306,34.5497 35.8446,34.8387 35.6736,35.0717 C35.5016,35.3047 35.2536,35.4527 34.9306,35.5147 C34.8896,35.5247 34.8506,35.5297 34.8146,35.5297 L36.3926,37.5457 L35.0846,37.5457 L33.5606,35.5757 Z" id="Fill-34" fill="#264092" mask="url(#mask-8)"></path>
                    <path d="M41.4103,32.382 L41.4103,33.244 L40.6403,33.244 L40.6403,37.546 L39.5483,37.546 L39.5483,34.775 L39.0093,34.775 C38.6603,34.775 38.3943,34.854 38.2123,35.01 C38.0303,35.167 37.9393,35.394 37.9393,35.691 C37.9393,36.317 38.2093,36.63 38.7473,36.63 C38.8043,36.63 38.8473,36.628 38.8783,36.622 L38.8783,37.523 C38.7553,37.533 38.6523,37.538 38.5703,37.538 C38.0263,37.538 37.6033,37.368 37.3003,37.026 C36.9983,36.685 36.8463,36.238 36.8463,35.684 C36.8463,35.14 37.0263,34.706 37.3853,34.383 C37.7443,34.06 38.2753,33.898 38.9783,33.898 L39.5483,33.898 L39.5483,33.244 L36.2693,33.244 L36.2693,32.382 L41.4103,32.382 Z" id="Fill-35" fill="#264092" mask="url(#mask-8)"></path>
                    <path d="M11.0272,39.453 L11.0272,39.722 L10.7262,39.722 L10.7262,41.325 L10.3892,41.325 L10.3892,40.23 C10.3602,40.224 10.3312,40.222 10.3012,40.222 C10.2082,40.222 10.1392,40.247 10.0942,40.297 C10.0482,40.347 10.0262,40.427 10.0262,40.536 L10.0262,40.726 L9.6912,40.726 L9.6912,40.531 C9.6912,40.345 9.6262,40.253 9.4952,40.253 C9.4272,40.253 9.3722,40.28 9.3312,40.334 C9.2892,40.387 9.2682,40.469 9.2682,40.579 C9.2682,40.723 9.3072,40.837 9.3832,40.921 C9.4602,41.005 9.5762,41.047 9.7312,41.047 C9.7762,41.047 9.8112,41.045 9.8362,41.041 L9.8362,41.314 C9.7872,41.319 9.7382,41.322 9.6912,41.322 C9.4622,41.322 9.2802,41.253 9.1442,41.115 C9.0082,40.977 8.9392,40.796 8.9392,40.573 C8.9392,40.394 8.9862,40.249 9.0782,40.139 C9.1712,40.03 9.2992,39.975 9.4612,39.975 C9.5712,39.975 9.6602,39.998 9.7292,40.046 C9.7982,40.093 9.8412,40.155 9.8582,40.233 C9.9082,40.05 10.0482,39.958 10.2812,39.958 C10.3152,39.958 10.3512,39.963 10.3892,39.972 L10.3892,39.722 L8.7442,39.722 L8.7442,39.453 L11.0272,39.453 Z" id="Fill-36" fill="#1B2133" mask="url(#mask-8)"></path>
                    <path d="M11.5037,39.453 L11.8047,39.453 L11.8047,39.722 L11.5037,39.722 L11.5037,41.325 L11.1747,41.325 L11.1747,39.722 L10.8737,39.722 L10.8737,39.453 L11.1467,39.453 L10.9397,39.147 C10.8847,39.06 10.8077,39.016 10.7097,39.016 C10.6587,39.016 10.6027,39.025 10.5427,39.042 L10.5427,38.761 C10.6217,38.748 10.6857,38.741 10.7347,38.741 C10.9407,38.743 11.0987,38.829 11.2087,38.999 L11.5037,39.453 Z" id="Fill-37" fill="#1B2133" mask="url(#mask-8)"></path>
                    <path d="M14.0592,39.7224 L13.0212,39.7224 L13.0212,40.0714 C13.1082,39.9904 13.2122,39.9494 13.3332,39.9494 C13.4972,39.9494 13.6302,39.9994 13.7302,40.0994 C13.8302,40.2004 13.8802,40.3294 13.8802,40.4884 C13.8802,40.6604 13.8232,40.7974 13.7092,40.8994 C13.5942,41.0014 13.4502,41.0524 13.2762,41.0524 C13.2462,41.0524 13.2242,41.0514 13.2112,41.0494 L13.2112,40.7804 C13.2222,40.7824 13.2392,40.7834 13.2622,40.7834 C13.3472,40.7834 13.4162,40.7564 13.4682,40.7024 C13.5202,40.6484 13.5462,40.5794 13.5462,40.4934 C13.5462,40.4144 13.5222,40.3484 13.4732,40.2954 C13.4252,40.2424 13.3602,40.2164 13.2792,40.2164 C13.2052,40.2164 13.1442,40.2424 13.0952,40.2944 C13.0452,40.3464 13.0212,40.4124 13.0212,40.4934 L13.0212,41.3254 L12.6862,41.3254 L12.6862,40.9614 C12.6012,41.0414 12.4972,41.0814 12.3742,41.0814 C12.2122,41.0814 12.0802,41.0314 11.9792,40.9304 C11.8772,40.8304 11.8272,40.7014 11.8272,40.5424 C11.8272,40.3704 11.8842,40.2334 11.9982,40.1304 C12.1132,40.0284 12.2572,39.9774 12.4312,39.9774 C12.4592,39.9774 12.4812,39.9784 12.4962,39.9804 L12.4962,40.2504 C12.4852,40.2484 12.4682,40.2474 12.4452,40.2474 C12.3602,40.2474 12.2922,40.2744 12.2402,40.3284 C12.1882,40.3824 12.1622,40.4514 12.1622,40.5364 C12.1622,40.6154 12.1862,40.6824 12.2342,40.7354 C12.2822,40.7884 12.3482,40.8144 12.4312,40.8144 C12.5032,40.8144 12.5632,40.7884 12.6132,40.7364 C12.6622,40.6844 12.6862,40.6174 12.6862,40.5364 L12.6862,39.7224 L11.6512,39.7224 L11.6512,39.4534 L14.0592,39.4534 L14.0592,39.7224 Z" id="Fill-38" fill="#1B2133" mask="url(#mask-8)"></path>
                    <path d="M15.8716,38.9736 L15.8716,39.2746 C15.6886,39.1916 15.4966,39.1246 15.2976,39.0756 C15.0976,39.0266 14.9346,39.0016 14.8076,39.0016 C14.7206,39.0016 14.6546,39.0256 14.6076,39.0716 C14.5616,39.1176 14.5386,39.1816 14.5386,39.2626 L14.5386,39.4526 L14.8396,39.4526 L14.8396,39.7226 L14.5386,39.7226 L14.5386,41.3246 L14.2066,41.3246 L14.2066,39.7226 L13.9056,39.7226 L13.9056,39.4526 L14.2066,39.4526 L14.2066,39.2576 C14.2066,39.0966 14.2596,38.9666 14.3646,38.8686 C14.4686,38.7706 14.6146,38.7216 14.7996,38.7216 C14.9656,38.7216 15.1326,38.7426 15.2986,38.7846 C15.4646,38.8276 15.6556,38.8906 15.8716,38.9736" id="Fill-39" fill="#1B2133" mask="url(#mask-8)"></path>
                    <path d="M16.0871,40.1677 L15.3781,40.1677 C15.2951,40.1677 15.2531,40.1997 15.2531,40.2637 C15.2531,40.3287 15.2851,40.3837 15.3501,40.4287 C15.4311,40.4097 15.5151,40.4007 15.6021,40.4007 C15.7661,40.4007 15.8981,40.4397 15.9981,40.5197 C16.0971,40.5987 16.1471,40.6967 16.1471,40.8117 C16.1471,40.8797 16.1371,40.9337 16.1181,40.9737 L15.7921,40.9737 C15.8151,40.9377 15.8261,40.8887 15.8261,40.8287 C15.8261,40.7847 15.8061,40.7487 15.7651,40.7177 C15.7241,40.6877 15.6671,40.6727 15.5931,40.6727 C15.4861,40.6727 15.4021,40.6947 15.3441,40.7377 C15.2851,40.7817 15.2561,40.8357 15.2561,40.9027 C15.2561,40.9817 15.2901,41.0457 15.3591,41.0937 C15.4281,41.1417 15.5371,41.1657 15.6841,41.1657 C15.7841,41.1657 15.9101,41.1477 16.0611,41.1117 L16.0611,41.3877 C15.9141,41.4197 15.7831,41.4357 15.6671,41.4357 C15.4271,41.4357 15.2431,41.3817 15.1161,41.2757 C14.9881,41.1687 14.9241,41.0427 14.9241,40.8997 C14.9241,40.7537 14.9861,40.6337 15.1081,40.5397 C14.9781,40.4637 14.9131,40.3587 14.9131,40.2247 C14.9131,40.1227 14.9501,40.0437 15.0251,39.9887 C15.0991,39.9347 15.1961,39.9067 15.3161,39.9067 L15.7581,39.9067 L15.7581,39.7227 L14.6861,39.7227 L14.6861,39.4527 L16.3791,39.4527 L16.3791,39.7227 L16.0871,39.7227 L16.0871,40.1677 Z" id="Fill-40" fill="#1B2133" mask="url(#mask-8)"></path>
                    <path d="M18.081,39.453 L18.081,39.722 L17.78,39.722 L17.78,41.325 L17.448,41.325 L17.448,40.278 L17.222,40.278 C16.932,40.278 16.788,40.404 16.788,40.655 C16.788,40.777 16.816,40.871 16.873,40.939 C16.929,41.007 17.015,41.041 17.128,41.041 C17.153,41.041 17.171,41.04 17.182,41.038 L17.182,41.316 C17.14,41.32 17.106,41.322 17.08,41.322 C16.885,41.322 16.732,41.26 16.62,41.136 C16.509,41.012 16.453,40.851 16.453,40.653 C16.453,40.456 16.517,40.299 16.644,40.18 C16.772,40.062 16.959,40.003 17.205,40.003 L17.448,40.003 L17.448,39.722 L16.226,39.722 L16.226,39.453 L18.081,39.453 Z" id="Fill-41" fill="#1B2133" mask="url(#mask-8)"></path>
                    <path d="M17.4684,39.185 C17.4304,39.146 17.4114,39.098 17.4114,39.042 C17.4114,38.985 17.4304,38.937 17.4684,38.898 C17.5064,38.86 17.5544,38.84 17.6134,38.84 C17.6694,38.84 17.7184,38.86 17.7574,38.898 C17.7974,38.937 17.8174,38.985 17.8174,39.042 C17.8174,39.098 17.7974,39.146 17.7574,39.185 C17.7184,39.224 17.6694,39.243 17.6134,39.243 C17.5544,39.243 17.5064,39.224 17.4684,39.185" id="Fill-42" fill="#1B2133" mask="url(#mask-8)"></path>
                    <path d="M19.301,40.295 L19.803,40.295 L19.803,39.722 L19.301,39.722 L19.301,40.295 Z M18.631,39.722 L18.631,39.453 L20.429,39.453 L20.429,39.722 L20.129,39.722 L20.129,41.325 L19.803,41.325 L19.803,40.565 L19.301,40.565 L19.301,40.925 L19.017,40.925 L18.926,40.724 C18.873,40.604 18.847,40.518 18.847,40.465 C18.847,40.384 18.888,40.333 18.972,40.312 L18.972,39.722 L18.631,39.722 Z" id="Fill-43" fill="#1B2133" mask="url(#mask-8)"></path>
                    <path d="M20.946,40.295 L21.448,40.295 L21.448,39.722 L20.946,39.722 L20.946,40.295 Z M20.276,39.722 L20.276,39.453 L22.074,39.453 L22.074,39.722 L21.774,39.722 L21.774,41.325 L21.448,41.325 L21.448,40.565 L20.946,40.565 L20.946,40.925 L20.662,40.925 L20.571,40.724 C20.518,40.604 20.492,40.518 20.492,40.465 C20.492,40.384 20.533,40.333 20.617,40.312 L20.617,39.722 L20.276,39.722 Z" id="Fill-44" fill="#1B2133" mask="url(#mask-8)"></path>
                    <path d="M25.0326,39.7224 L23.9946,39.7224 L23.9946,40.0714 C24.0816,39.9904 24.1856,39.9494 24.3066,39.9494 C24.4706,39.9494 24.6036,39.9994 24.7036,40.0994 C24.8036,40.2004 24.8536,40.3294 24.8536,40.4884 C24.8536,40.6604 24.7966,40.7974 24.6826,40.8994 C24.5676,41.0014 24.4236,41.0524 24.2496,41.0524 C24.2196,41.0524 24.1976,41.0514 24.1846,41.0494 L24.1846,40.7804 C24.1956,40.7824 24.2126,40.7834 24.2356,40.7834 C24.3206,40.7834 24.3896,40.7564 24.4416,40.7024 C24.4936,40.6484 24.5196,40.5794 24.5196,40.4934 C24.5196,40.4144 24.4946,40.3484 24.4466,40.2954 C24.3986,40.2424 24.3336,40.2164 24.2526,40.2164 C24.1786,40.2164 24.1176,40.2424 24.0686,40.2944 C24.0186,40.3464 23.9946,40.4124 23.9946,40.4934 L23.9946,41.3254 L23.6596,41.3254 L23.6596,40.9614 C23.5746,41.0414 23.4706,41.0814 23.3476,41.0814 C23.1856,41.0814 23.0536,41.0314 22.9526,40.9304 C22.8506,40.8304 22.8006,40.7014 22.8006,40.5424 C22.8006,40.3704 22.8576,40.2334 22.9716,40.1304 C23.0866,40.0284 23.2306,39.9774 23.4046,39.9774 C23.4326,39.9774 23.4546,39.9784 23.4696,39.9804 L23.4696,40.2504 C23.4586,40.2484 23.4416,40.2474 23.4186,40.2474 C23.3336,40.2474 23.2646,40.2744 23.2136,40.3284 C23.1606,40.3824 23.1346,40.4514 23.1346,40.5364 C23.1346,40.6154 23.1596,40.6824 23.2076,40.7354 C23.2556,40.7884 23.3216,40.8144 23.4046,40.8144 C23.4766,40.8144 23.5366,40.7884 23.5856,40.7364 C23.6356,40.6844 23.6596,40.6174 23.6596,40.5364 L23.6596,39.7224 L22.6246,39.7224 L22.6246,39.4534 L25.0326,39.4534 L25.0326,39.7224 Z" id="Fill-45" fill="#1B2133" mask="url(#mask-8)"></path>
                    <path d="M25.0525,40.5733 L25.0525,40.3093 L25.2565,40.3093 C25.4515,40.3093 25.5485,40.2313 25.5485,40.0743 L25.5485,39.7223 L24.8795,39.7223 L24.8795,39.4533 L26.1695,39.4533 L26.1695,39.7223 L25.8805,39.7223 L25.8805,40.0943 C25.8805,40.2243 25.8455,40.3313 25.7745,40.4133 C25.7035,40.4953 25.6045,40.5443 25.4775,40.5593 C25.4665,40.5633 25.4535,40.5643 25.4385,40.5643 L26.0285,41.3253 L25.6285,41.3253 L25.0525,40.5733 Z" id="Fill-46" fill="#1B2133" mask="url(#mask-8)"></path>
                    <path d="M26.9555,40.3492 L26.9555,39.7222 L26.5525,39.7222 L26.5525,40.3492 C26.5525,40.5042 26.6185,40.5822 26.7515,40.5822 C26.8875,40.5822 26.9555,40.5042 26.9555,40.3492 L26.9555,40.3492 Z M28.2975,39.4532 L28.2975,39.7222 L27.9965,39.7222 L27.9965,41.3252 L27.6645,41.3252 L27.6645,39.7222 L27.2845,39.7222 L27.2845,40.3242 C27.2845,40.4992 27.2375,40.6332 27.1425,40.7252 C27.0485,40.8172 26.9155,40.8622 26.7455,40.8622 C26.3955,40.8622 26.2205,40.6852 26.2205,40.3292 L26.2205,39.7222 L26.0165,39.7222 L26.0165,39.4532 L28.2975,39.4532 Z" id="Fill-47" fill="#1B2133" mask="url(#mask-8)"></path>
                    <path d="M28.7736,39.453 L29.0766,39.453 L29.0766,39.722 L28.7766,39.722 L28.7766,41.325 L28.4446,41.325 L28.4446,39.722 L28.1436,39.722 L28.1436,39.453 L28.4416,39.453 L28.4416,39.257 C28.4416,39.18 28.4206,39.12 28.3776,39.077 C28.3356,39.035 28.2786,39.013 28.2066,39.013 C28.0566,39.013 27.9826,39.095 27.9826,39.257 L27.9826,39.32 L27.6476,39.32 L27.6476,39.246 C27.6476,39.076 27.7006,38.947 27.8066,38.86 C27.9126,38.773 28.0456,38.73 28.2066,38.73 C28.3686,38.73 28.5046,38.773 28.6116,38.859 C28.7196,38.945 28.7736,39.073 28.7736,39.243 L28.7736,39.453 Z" id="Fill-48" fill="#1B2133" mask="url(#mask-8)"></path>
                    <path d="M29.8514,40.7123 C29.9684,40.7123 30.0614,40.6793 30.1304,40.6133 C30.1994,40.5463 30.2344,40.4513 30.2344,40.3263 L30.2344,39.7223 L29.8034,39.7223 C29.8464,39.7863 29.8684,39.8703 29.8684,39.9723 C29.8684,40.2023 29.7384,40.3593 29.4774,40.4423 C29.4994,40.5243 29.5434,40.5893 29.6084,40.6383 C29.6744,40.6873 29.7554,40.7123 29.8514,40.7123 M29.8004,41.0043 C29.6174,41.0043 29.4594,40.9393 29.3284,40.8103 C29.1964,40.6803 29.1164,40.5003 29.0884,40.2693 C29.3894,40.2223 29.5394,40.1183 29.5394,39.9573 C29.5394,39.8613 29.5114,39.7833 29.4544,39.7223 L28.9244,39.7223 L28.9244,39.4533 L30.8664,39.4533 L30.8664,39.7223 L30.5664,39.7223 L30.5664,41.3253 L30.2344,41.3253 L30.2344,40.8173 C30.1964,40.8743 30.1384,40.9193 30.0614,40.9533 C29.9834,40.9873 29.8964,41.0043 29.8004,41.0043" id="Fill-49" fill="#1B2133" mask="url(#mask-8)"></path>
                    <path d="M31.383,40.295 L31.885,40.295 L31.885,39.722 L31.383,39.722 L31.383,40.295 Z M30.714,39.722 L30.714,39.453 L32.512,39.453 L32.512,39.722 L32.211,39.722 L32.211,41.325 L31.885,41.325 L31.885,40.565 L31.383,40.565 L31.383,40.925 L31.099,40.925 L31.009,40.724 C30.956,40.604 30.929,40.518 30.929,40.465 C30.929,40.384 30.971,40.333 31.054,40.312 L31.054,39.722 L30.714,39.722 Z" id="Fill-50" fill="#1B2133" mask="url(#mask-8)"></path>
                    <polygon id="Fill-51" fill="#1B2133" mask="url(#mask-8)" points="32.6423 42 32.2423 42 31.8993 41.512 32.2363 41.512"></polygon>
                    <polygon id="Fill-52" fill="#1B2133" mask="url(#mask-8)" points="33.616 40.588 40.234 40.588 40.234 40.301 33.616 40.301"></polygon>
                    <polygon id="Fill-53" fill="#1B2133" mask="url(#mask-8)" points="1.271 40.588 7.889 40.588 7.889 40.301 1.271 40.301"></polygon>
                </g>
            </g>
        </g>
    </g>
</svg>