<?xml version="1.0" encoding="UTF-8"?>
<svg width="140px" height="42px" viewBox="0 0 140 42" version="1.1" xmlns="http://www.w3.org/2000/svg" xmlns:xlink="http://www.w3.org/1999/xlink">
    <title>Logos/KarmayogiBharat_Logo_Horizontal</title>
    <defs>
        <path d="M0,3.019 C0,4.685 1.35654244,6.037 3.03138537,6.037 L3.03138537,6.037 C4.7052242,6.037 6.06176665,4.685 6.06176665,3.019 L6.06176665,3.019 C6.06176665,1.351 4.7052242,0 3.03138537,0 L3.03138537,0 C1.35654244,0 0,1.351 0,3.019" id="path-1"></path>
        <polygon id="path-3" points="0 0 6.80063319 0 6.80063319 5.35772387 0 5.35772387"></polygon>
        <polygon id="path-5" points="0 0 21.5048627 0 21.5048627 24.4415143 0 24.4415143"></polygon>
        <polygon id="path-7" points="0 42 140 42 140 0 0 0"></polygon>
    </defs>
    <g id="Logos/KarmayogiBharat_Logo_Horizontal" stroke="none" stroke-width="1" fill="none" fill-rule="evenodd">
        <g id="Group-55">
            <g id="Group-5" transform="translate(1.628955, 1.376300)" fill="#264092">
                <path d="M37.7233267,14.242 C36.598732,14.067 35.3315546,13.956 33.9187825,13.956 C33.7581261,13.964 33.5994779,13.973 33.4428379,13.983 C33.9167742,13.163 34.3465301,12.427 34.7481711,11.612 C38.7204005,11.003 41.0689962,11.445 41.0689962,11.445 C41.0689962,11.445 40.0789511,12.153 37.7233267,14.242 M32.5481826,14.057 C31.6073386,14.151 30.7488309,14.29 29.9676392,14.464 C30.2357346,13.865 30.455633,13.232 30.6383797,12.582 C31.0149181,12.434 30.8321714,11.79 31.2478699,11.651 C31.9507416,11.45 34.5192357,10.803 35.1528244,10.679 C34.7622285,11.463 34.0914881,14.484 32.5481826,14.057 M31.5089365,7.717 C34.9068193,5.872 37.1730786,5.558 37.1730786,5.558 C37.1730786,5.558 36.1468858,6.766 34.1426973,10.822 C33.5040881,10.934 32.9427948,11.076 32.2449436,11.257 C31.7579539,11.409 31.2960668,11.568 30.8562699,11.732 C31.1745704,10.362 31.357317,9.049 31.5089365,7.717 M38.6219985,14.4 C41.5700433,11.727 42.7960524,11.13 42.7960524,11.13 C42.7960524,11.13 39.9524342,10.019 35.1528244,10.679 C35.1759188,10.633 35.198009,10.588 35.2200993,10.542 C37.5235103,5.816 38.7133718,4.569 38.7133718,4.569 C38.7133718,4.569 35.7623146,4.521 31.611355,6.693 C32.1887139,1.553 32.8815446,0 32.8815446,0 C32.8815446,0 29.2225952,1.263 25.3126201,6.751 C25.1087873,7.068 24.919012,7.38 24.7392776,7.686 L24.8657945,8.928 C25.0776602,8.532 24.8838684,8.655 25.1409186,8.235 C28.4624896,3.318 31.5802278,1.617 31.5802278,1.617 C31.5802278,1.617 31.2187509,2.841 30.7026422,7.132 C30.0780905,7.49 29.5378834,7.896 28.8721634,8.361 C27.0396764,9.778 26.1510457,11.048 25.2091976,12.316 L25.3146283,12.407 C26.1500416,11.163 26.9603523,10.082 28.7928393,8.601 C29.4505264,8.115 31.0008607,7.059 31.611355,6.693 C31.4597355,7.975 31.1896319,10.41 30.8562699,11.732 C28.5880024,12.676 26.5978713,13.987 25.4833176,15.026 C26.4442436,14.038 28.6412198,13.166 30.8562699,12.19 C30.6644863,12.797 30.2507961,13.913 29.9676392,14.464 C28.3028373,14.921 26.5677482,15.647 25.6098345,16.27 L25.6881545,16.831 C26.467338,16.276 27.8710732,15.418 29.3159767,14.96 C29.1643572,15.948 28.388186,17.5 25.7785237,17.933 L25.8468027,18.602 C27.8088189,17.993 28.6793757,16.635 29.5579654,15.068 C30.3060217,14.882 32.5150472,14.094 33.4428379,13.983 C32.0170124,16.682 27.3318702,20.72 25.8809421,18.945 L25.948217,19.604 C29.4204034,19.681 31.2749806,17.478 32.9899877,14.738 C33.0873856,14.73 33.1857876,14.722 33.2861979,14.715 C33.9187825,13.956 37.5445965,14.254 38.6219985,14.4 C38.431219,14.576 37.1339186,16.113 36.9280776,16.307 C34.0874717,18.979 28.388186,23.016 25.9964139,20.292 L26.0697134,20.804 C30.6946094,22.251 34.2983332,18.483 37.4261124,15.511 C37.5917893,15.353 37.7524457,15.309 37.9090857,15.162 C40.8400608,15.698 42.3562556,16.452 42.3562556,16.452 C42.3562556,16.452 40.8721921,16.874 36.8648191,19.066 C33.5824081,20.861 29.769831,23.104 26.0998365,21.099 L26.1811688,21.902 C30.1433571,23.804 34.2802593,21.351 37.8568724,19.373 C42.4677109,16.821 44.1616318,16.482 44.1616318,16.482 C44.1616318,16.482 42.2849643,15.125 38.6219985,14.4" id="Fill-1"></path>
                <path d="M3.09263563,11.4453 C3.09263563,11.4453 5.44123132,11.0023 9.41245661,11.6123 C9.8151017,12.4263 10.2448576,13.1623 10.7187939,13.9833 C10.5621539,13.9733 10.4035058,13.9643 10.2428494,13.9563 C8.83007717,13.9563 7.56289985,14.0673 6.43830508,14.2423 C4.08167656,12.1533 3.09263563,11.4453 3.09263563,11.4453 M9.00780331,10.6783 C9.64139197,10.8033 12.2108902,11.4493 12.9127578,11.6503 C13.3284563,11.7903 13.1457096,12.4343 13.522248,12.5813 C13.7059988,13.2323 13.9248931,13.8643 14.1929885,14.4633 C13.4117968,14.2903 12.5542933,14.1513 11.6124451,14.0573 C10.0701437,14.4833 9.39940328,11.4633 9.00780331,10.6783 M13.3043578,11.7323 C12.8645609,11.5673 12.4036779,11.4093 11.9166882,11.2573 C11.2178329,11.0763 10.6575437,10.9343 10.0189345,10.8213 C8.01474596,6.7663 6.98855323,5.5583 6.98855323,5.5583 C6.98855323,5.5583 9.25380842,5.8723 12.6526953,7.7173 C12.8043148,9.0493 12.9870614,10.3613 13.3043578,11.7323 M0,16.4813 C0,16.4813 1.69291677,16.8213 6.30475945,19.3723 C9.88137246,21.3513 14.0172706,23.8033 17.980463,21.9013 L18.0617953,21.0993 C14.3907967,23.1033 10.5792237,20.8613 7.29580859,19.0653 C3.28843561,16.8743 1.80537625,16.4523 1.80537625,16.4523 C1.80537625,16.4523 3.32157099,15.6983 6.25154201,15.1623 C6.4091861,15.3093 6.5688384,15.3533 6.73451531,15.5103 C9.86329862,18.4823 13.4660183,22.2503 18.0919184,20.8043 L18.2716528,20.1853 C15.8788766,22.9093 10.0741601,18.9793 7.23355424,16.3073 C7.02771323,16.1133 5.73041283,14.5753 5.53963336,14.4003 C6.61603121,14.2543 10.2428494,13.9563 10.8744298,14.7153 C10.9748401,14.7223 11.0732421,14.7303 11.1716441,14.7383 C12.8856471,17.4783 14.7402243,19.6803 18.2134148,19.6043 L18.2796856,18.9453 C16.8287575,20.7193 12.3273661,16.7473 10.7187939,13.9833 C11.6455805,14.0933 13.8345239,14.9693 14.5825803,15.1553 C15.4611699,16.7233 16.3518088,17.9933 18.3148292,18.6023 L18.3831081,17.9323 C15.7724417,17.5003 14.9972746,15.9473 14.844651,14.9603 C16.2905586,15.4183 17.6942938,16.2753 18.4724732,16.8303 L18.5507932,16.2703 C17.5938836,15.6473 15.8587945,14.9203 14.1929885,14.4633 C13.9098316,13.9123 13.4971455,12.7973 13.3043578,12.1893 C15.520412,13.1663 17.7163841,14.0373 18.6773102,15.0263 C17.5637605,13.9873 15.5736294,12.6763 13.3043578,11.7323 C12.9709958,10.4093 12.7008922,7.9743 12.5492727,6.6923 C13.159767,7.0583 14.7101013,8.1153 15.3687925,8.6003 C17.2002754,10.0813 18.0115902,11.1623 18.8459994,12.4063 L18.9524342,12.3153 C18.0105861,11.0483 17.1219554,9.7783 15.2884643,8.3613 C14.6237485,7.8963 14.0835413,7.4893 13.4579855,7.1313 C12.9428809,2.8403 12.581404,1.6173 12.581404,1.6173 C12.581404,1.6173 15.6991422,3.3173 19.0197091,8.2353 C19.2767593,8.6553 19.0829676,8.5323 19.2958373,8.9283 L19.4213501,7.6853 C19.2426198,7.3793 19.0518404,7.0683 18.8490117,6.7513 C14.9380325,1.2633 11.2790831,0.0003 11.2790831,0.0003 C11.2790831,0.0003 11.9719138,1.5533 12.5492727,6.6923 C8.39931721,4.5213 5.44826003,4.5693 5.44826003,4.5693 C5.44826003,4.5693 6.63812147,5.8153 8.94153255,10.5423 C8.9636228,10.5873 8.98571306,10.6333 9.00780331,10.6783 C4.20819348,10.0193 1.36457526,11.1303 1.36457526,11.1303 C1.36457526,11.1303 2.59158849,11.7263 5.53963336,14.4003 C1.87566342,15.1243 0,16.4813 0,16.4813" id="Fill-3"></path>
            </g>
            <g id="Group-8" transform="translate(20.765843, 14.910000)">
                <mask id="mask-2" fill="white">
                    <use xlink:href="#path-1"></use>
                </mask>
                <g id="Clip-7"></g>
                <path d="M0,3.019 C0,4.685 1.35654244,6.037 3.03138537,6.037 L3.03138537,6.037 C4.7052242,6.037 6.06176665,4.685 6.06176665,3.019 L6.06176665,3.019 C6.06176665,1.351 4.7052242,0 3.03138537,0 L3.03138537,0 C1.35654244,0 0,1.351 0,3.019" id="Fill-6" mask="url(#mask-2)"></path>
            </g>
            <g id="Group-54">
                <polygon id="Fill-9" fill="#264092" points="27.4497518 27.6837 23.7546547 18.0587 20.0595576 27.6837 22.6953266 30.0147 22.7425194 25.8997 23.6030353 25.1807 24.7426916 25.6607 24.7657859 27.2897 24.6031213 30.3017 25.9787417 28.8797"></polygon>
                <path d="M23.7724273,31.5556 C23.7724273,31.5556 23.376811,33.2516 25.0386006,33.1786 C26.3308805,33.1226 29.9014689,32.4956 31.3252862,32.2486 C32.7491035,32.0016 35.5967381,33.0246 33.8506039,36.3356 C32.9097599,37.8876 29.579152,38.0746 26.1129902,35.6666 C22.6478326,33.2586 20.8022922,31.9546 19.4778811,31.3596 C17.7186935,30.5696 13.4100898,29.7876 12.5465617,34.1156 C12.1017443,37.1766 15.4213071,37.7806 15.4213071,37.7806 C15.4213071,37.7806 13.1199042,37.0506 13.0837565,34.7836 C13.059658,33.2276 14.6019594,30.7506 17.7186935,31.8146 C20.8605302,32.8856 20.8474768,33.2856 25.3338067,36.6036 C28.1282239,38.4766 32.6677712,40.0016 34.8175546,36.8706 C36.1068222,34.7306 35.3547494,31.7876 32.480004,31.4396 C30.2770032,31.1716 30.4386637,32.0546 25.522578,32.7776 C23.856772,33.0126 23.7814643,32.3916 23.7724273,31.5556" id="Fill-11" fill="#1B2133"></path>
                <g id="Group-15" transform="translate(15.351699, 36.642276)">
                    <mask id="mask-4" fill="white">
                        <use xlink:href="#path-3"></use>
                    </mask>
                    <g id="Clip-14"></g>
                    <path d="M5.70322562,1.51392387 L2.80638998,0.175923873 C1.85751314,-0.263076127 0.730910163,0.147923873 0.291113279,1.09292387 L0.249945077,1.18192387 L1.42675318,1.70492387 C1.42675318,1.70492387 2.32442079,1.37092387 2.71200435,2.26192387 C3.4640771,2.59092387 3.82254169,2.77592387 3.82254169,2.77592387 L3.76832015,2.89292387 L2.66079512,2.39192387 C2.66079512,2.39192387 1.78120135,2.70392387 1.37353575,1.85292387 C0.541134795,1.46792387 0.282076357,1.33292387 0.200744056,1.28692387 L0.176645597,1.33792387 C-0.26415539,2.28292387 0.148530727,3.40492387 1.09740757,3.84392387 L3.99424321,5.18192387 C4.94312005,5.62092387 6.06972303,5.20992387 6.50951991,4.26492387 L6.62398759,4.01892387 C7.06478858,3.07392387 6.65210246,1.95192387 5.70322562,1.51392387" id="Fill-13" fill="#1B2133" mask="url(#mask-4)"></path>
                </g>
                <path d="M23.7857819,25.0035 L23.7727286,25.0035 C22.4754282,25.0035 22.5929082,26.5145 22.5929082,26.5145 L22.5929082,29.0045 C22.1149554,28.0705 19.6790028,26.6035 19.6790028,26.6035 L21.5054652,8.5915 L20.6188427,8.6135 L18.760249,27.3835 C18.760249,27.3835 22.7465358,29.5155 23.4996127,32.3125 L23.4996127,26.8595 L23.4996127,26.8595 C23.2847348,26.7605 23.1431563,26.5445 23.1431563,26.2925 C23.1431563,25.9475 23.424305,25.6675 23.7707204,25.6675 C24.1171357,25.6675 24.3982844,25.9475 24.3982844,26.2925 C24.3982844,26.5455 24.2486732,26.7635 24.031787,26.8615 L24.031787,26.8615 L24.031787,32.3125 C24.981668,29.2015 28.6807815,27.3845 28.6807815,27.3845 C28.6807815,27.3845 27.3714319,13.5985 26.8372493,8.5915 L26.0681068,8.5915 L26.2809766,10.6985 L27.8945692,26.6035 C27.8945692,26.6035 25.4586166,28.0705 24.9796598,29.0045 L24.9796598,26.5145 C24.9796598,26.5145 25.0870987,25.0035 23.8008434,25.0035 L23.7857819,25.0035 Z" id="Fill-16" fill="#EF951E"></path>
                <g id="Group-20" transform="translate(0.000100, 0.000000)">
                    <mask id="mask-6" fill="white">
                        <use xlink:href="#path-5"></use>
                    </mask>
                    <g id="Clip-19"></g>
                    <path d="M3.33362022,12.5648 C3.33362022,12.5648 5.86496256,11.7438 10.1454514,12.4008 C10.5792237,13.2788 11.0421149,14.1868 11.5532031,15.0708 C11.3835098,15.0598 11.2128123,15.0498 11.0391026,15.0418 C9.51688327,15.0418 8.1513039,15.1618 6.93935221,15.3498 C4.39997705,13.0988 3.33362022,12.5648 3.33362022,12.5648 M7.41730499,6.1058 C7.41730499,6.1058 9.97475399,6.2148 13.6367157,8.2038 C13.8003844,9.6388 13.9971885,11.1678 14.3405916,12.6448 C13.8656511,12.4678 13.3686204,12.2968 12.8434748,12.1328 C12.091402,11.9378 11.3714605,11.7848 10.6836503,11.6638 C8.52382592,7.2918 7.41730499,6.1058 7.41730499,6.1058 M14.5745474,13.5608 C14.7723556,14.2618 15.0083197,14.9428 15.2975012,15.5888 C14.4560633,15.4018 13.531285,15.2518 12.5161374,15.1508 C12.0100697,14.2988 11.5562154,13.4188 11.1344924,12.5738 C11.817282,12.7078 12.5392317,12.8788 13.296325,13.0958 C13.7441547,13.2458 14.16889,13.4018 14.5745474,13.5608 M7.86413059,20.5488 C3.54548584,18.1868 1.9459506,17.8468 1.9459506,17.8468 C1.9459506,17.8468 3.58062943,16.8048 6.73853172,16.2268 C6.90822503,16.3858 7.08093066,16.5478 7.2596609,16.7178 C10.6615601,19.9498 15.0535043,24.1718 20.096107,22.4928 L20.175431,21.7068 C15.4993258,23.4108 11.4688585,19.5738 8.37722696,16.6648 C8.15532031,16.4568 7.94144648,16.2578 7.73560547,16.0688 C8.89634794,15.9118 10.2247755,15.8228 11.7208882,15.8598 C11.8293313,15.8678 11.934762,15.8758 12.0411969,15.8848 C13.9108357,18.8728 16.4050263,21.3868 20.2226239,21.2418 L20.2949192,20.5308 C16.9361965,20.6448 14.7080931,18.5378 13.0352583,15.9838 C14.0343403,16.1028 14.933012,16.2688 15.7403104,16.4688 C16.706257,18.1928 18.1391112,19.5638 20.3280546,20.2048 L20.40035,19.4848 C18.7947901,18.9538 17.6501133,17.9868 16.8227329,16.7738 C18.4574117,17.2918 19.6442608,17.9468 20.4927274,18.5728 L20.5780761,17.7318 C19.5328055,17.0328 18.1280661,16.3388 16.2604355,15.8268 C15.9551883,15.2328 15.7061709,14.5998 15.4993258,13.9448 C17.980463,15.0378 19.5830106,16.2718 20.6152279,17.3698 L20.7106177,16.4228 C19.5056947,15.2698 17.7575523,14.0468 15.2302264,12.9958 C14.8707577,11.5708 14.6729495,10.0838 14.5102849,8.7018 C15.167972,9.0968 15.8547781,9.5488 16.5646785,10.0718 C18.6250968,11.7368 19.9876639,13.3068 20.8863356,14.6908 L21.0028115,13.5468 C19.9796311,12.1368 18.5317153,10.5988 16.4783257,9.0118 C15.7613966,8.5108 15.0635453,8.0728 14.3907967,7.6868 C13.8345239,3.0618 13.2159968,1.6288 13.2159968,1.6288 C13.2159968,1.6288 16.9201308,3.1178 20.4997561,8.4178 C20.822073,8.9448 21.1102505,9.4538 21.3673007,9.9458 L21.5048627,8.5918 C21.2799438,8.1998 21.0379551,7.7998 20.7748802,7.3908 C16.5606621,1.4758 12.1566687,-0.0002 12.1566687,-0.0002 C12.1566687,-0.0002 12.9037209,1.6738 13.5262645,7.2128 C9.05298792,4.8728 5.87199128,4.9248 5.87199128,4.9248 C5.87199128,4.9248 7.15523424,6.2678 9.63737556,11.3628 C9.66147402,11.4108 9.68557248,11.4608 9.70866684,11.5098 C4.53653499,10.7988 1.47101013,11.9958 1.47101013,11.9958 C1.47101013,11.9958 2.79341309,12.6388 5.97039332,15.5208 C2.02226239,16.3018 0,17.7638 0,17.7638 C0,17.7638 1.8254583,18.1298 6.79576556,20.8798 C10.6916832,23.0358 15.6750438,25.8308 19.978627,23.6518 L20.066988,22.7768 C16.0786929,25.0758 11.44476,22.5068 7.86413059,20.5488" id="Fill-18" fill="#EF951E" mask="url(#mask-6)"></path>
                </g>
                <path d="M40.5021803,15.35 C39.2902286,15.162 37.9236452,15.042 36.4014258,15.042 C36.2277161,15.05 36.0570187,15.06 35.8883295,15.071 C36.3994176,14.187 36.8623089,13.279 37.2960811,12.401 C41.57657,11.744 44.1079123,12.565 44.1079123,12.565 C44.1079123,12.565 43.0415555,13.099 40.5021803,15.35 M34.9253952,15.151 C33.9102476,15.252 32.9854692,15.402 32.1430272,15.589 C32.4322087,14.943 32.6691769,14.262 32.865981,13.561 C33.2716384,13.401 33.6973779,13.246 34.1452076,13.096 C34.9023008,12.879 35.6232464,12.708 36.3070402,12.574 C35.8853172,13.419 35.4314628,14.298 34.9253952,15.151 M33.8038127,8.203 C37.4667786,6.214 40.0242276,6.105 40.0242276,6.105 C40.0242276,6.105 38.9177066,7.292 36.7578822,11.664 C36.0690679,11.785 35.3501305,11.938 34.5980578,12.133 C34.0729122,12.297 33.5748774,12.468 33.100941,12.645 C33.4433399,11.168 33.6411481,9.639 33.8038127,8.203 M41.4701351,15.521 C44.6481195,12.639 45.9695183,11.996 45.9695183,11.996 C45.9695183,11.996 42.9049976,10.799 37.7318616,11.51 C37.7559601,11.46 37.7800585,11.411 37.804157,11.363 C40.2862983,6.268 41.5695413,4.924 41.5695413,4.924 C41.5695413,4.924 38.3885446,4.873 33.9152681,7.213 C34.5378116,1.674 35.2838598,0 35.2838598,0 C35.2838598,0 30.8808704,1.476 26.6656482,7.391 C26.4467539,7.733 26.241917,8.068 26.0481252,8.398 L26.183679,9.737 C26.4126144,9.311 26.6646441,8.871 26.9417764,8.418 C30.5203976,3.118 34.2255358,1.628 34.2255358,1.628 C34.2255358,1.628 33.6070086,3.062 33.0507359,7.687 C32.3769831,8.072 31.680136,8.511 30.9622027,9.012 C28.9871331,10.539 27.5693404,12.022 26.5541928,13.388 L26.6686605,14.517 C27.5683363,13.176 28.9017844,11.668 30.876854,10.071 C31.5867545,9.548 32.2725564,9.096 32.9312477,8.702 C32.767579,10.084 32.5697708,11.57 32.2103021,12.995 C29.7653126,14.013 28.0513096,15.19 26.8504031,16.31 L26.9457928,17.245 C27.9810225,16.179 29.554451,14.997 31.9422067,13.944 C31.7353616,14.6 31.4863442,15.233 31.180093,15.826 C29.3857618,16.319 28.0181743,16.979 26.986961,17.65 L27.0713056,18.483 C27.9107353,17.885 29.0604326,17.267 30.6187997,16.774 C29.8125054,17.955 28.7069886,18.903 27.1687036,19.442 L27.2409989,20.164 C29.3566429,19.507 30.7543535,18.159 31.7012221,16.469 C32.5075164,16.269 33.4061881,16.102 34.4062742,15.984 C32.7555297,18.504 30.563574,20.589 27.2791548,20.534 L27.3504461,21.244 C31.0937401,21.326 33.5527871,18.838 35.4003357,15.885 C35.5057664,15.876 35.6122013,15.868 35.7196402,15.86 C37.216757,15.823 38.5451846,15.912 39.704923,16.069 C39.499082,16.258 39.2862122,16.457 39.0643056,16.665 C36.0027971,19.546 32.0205267,23.336 27.4026594,21.756 L27.4819835,22.537 C32.4673523,24.096 36.8110996,19.92 40.1818716,16.717 C40.3606019,16.548 40.5333075,16.386 40.7030008,16.227 C43.8609031,16.805 45.4955819,17.847 45.4955819,17.847 C45.4955819,17.847 43.8960467,18.187 39.577402,20.549 C36.0389448,22.484 31.4702786,25.016 27.5141148,22.855 L27.6014717,23.72 C31.8729237,25.77 36.7910176,23.012 40.645767,20.88 C45.6160742,18.13 47.4415325,17.764 47.4415325,17.764 C47.4415325,17.764 45.4192702,16.301 41.4701351,15.521" id="Fill-21" fill="#EF951E"></path>
                <path d="M67.027455,14.8811 L61.1404022,14.8811 L61.1404022,16.6371 C61.6143386,16.2181 62.1856729,16.0091 62.8544051,16.0091 C63.8143271,16.0091 64.587486,16.3071 65.1758901,16.9021 C65.76329,17.4991 66.057492,18.2581 66.057492,19.1821 C66.057492,20.1801 65.7231259,20.9781 65.0543937,21.5741 C64.3856614,22.1691 63.5281579,22.4681 62.4828872,22.4681 C62.3212267,22.4681 62.196718,22.4621 62.1113693,22.4511 L62.1113693,20.6311 C62.1756319,20.6421 62.2619847,20.6471 62.3694236,20.6471 C62.8112287,20.6471 63.1536277,20.5131 63.3966205,20.2451 C63.6396133,19.9761 63.7601056,19.6331 63.7601056,19.2141 C63.7601056,18.8271 63.6476461,18.4971 63.4207189,18.2231 C63.1947959,17.9491 62.8654503,17.8131 62.4346903,17.8131 C62.0571478,17.8131 61.7468801,17.9491 61.5038873,18.2231 C61.2618986,18.4971 61.1404022,18.8591 61.1404022,19.3111 L61.1404022,23.8851 L58.8440199,23.8851 L58.8440199,22.0161 C58.3801245,22.4251 57.8087902,22.6291 57.1290128,22.6291 C56.170095,22.6291 55.395932,22.3301 54.808532,21.7351 C54.2211321,21.1391 53.92693,20.3791 53.92693,19.4551 C53.92693,18.4571 54.2612962,17.6601 54.9300284,17.0631 C55.5987607,16.4681 56.4552601,16.1701 57.5015348,16.1701 C57.6521502,16.1701 57.7766589,16.1751 57.8730528,16.1861 L57.8730528,18.0061 C57.8087902,17.9951 57.7224374,17.9901 57.6149984,17.9901 C57.1721892,17.9901 56.8297903,18.1241 56.5878016,18.3921 C56.3448088,18.6611 56.2233124,19.0041 56.2233124,19.4231 C56.2233124,19.8101 56.336776,20.1401 56.5637031,20.4141 C56.7896262,20.6881 57.1189718,20.8251 57.5497318,20.8251 C57.9272743,20.8251 58.237542,20.6881 58.4795307,20.4141 C58.7225235,20.1401 58.8440199,19.7781 58.8440199,19.3271 L58.8440199,14.8811 L52.9730327,14.8811 L52.9730327,13.0771 L67.027455,13.0771 L67.027455,14.8811 Z" id="Fill-23" fill="#EF951E"></path>
                <mask id="mask-8" fill="white">
                    <use xlink:href="#path-7"></use>
                </mask>
                <g id="Clip-26"></g>
                <path d="M70.0843446,17.877 L72.6397854,17.877 L72.6397854,14.881 L70.0843446,14.881 L70.0843446,17.877 Z M66.0568896,14.881 L66.0568896,13.077 L76.4885102,13.077 L76.4885102,14.881 L74.8719052,14.881 L74.8719052,23.885 L72.6397854,23.885 L72.6397854,19.681 L70.0843446,19.681 L70.0843446,21.646 L68.1594802,21.646 L67.5771007,20.358 C67.2648249,19.649 67.1081849,19.155 67.1081849,18.876 C67.1081849,18.414 67.3511777,18.119 67.8361592,17.99 L67.8361592,14.881 L66.0568896,14.881 Z" id="Fill-25" fill="#EF951E" mask="url(#mask-8)"></path>
                <path d="M75.3726511,10.7899 C75.038285,10.7899 74.7581404,10.8889 74.5322173,11.0879 C74.3052902,11.2869 74.1918266,11.5579 74.1918266,11.9009 C74.1918266,12.3849 74.3966635,12.8409 74.8063373,13.2699 L72.509955,13.2699 C72.4557334,13.2279 72.3944832,13.1609 72.324196,13.0689 C72.2539088,12.9779 72.1565109,12.7789 72.0330063,12.4729 C71.9095017,12.1669 71.8472473,11.8479 71.8472473,11.5149 C71.8472473,10.6349 72.1324124,9.9609 72.7037467,9.4929 C73.2760851,9.0259 73.9709241,8.7929 74.7902717,8.7929 C75.577488,8.7929 76.2462203,8.9269 76.7954643,9.1949 L76.7954643,11.2089 C76.2562613,10.9289 75.7823249,10.7899 75.3726511,10.7899" id="Fill-27" fill="#EF951E" mask="url(#mask-8)"></path>
                <path d="M80.8553519,20.1805 C81.4698626,20.1805 81.9548441,20.0035 82.3113005,19.6485 C82.6667527,19.2945 82.8444789,18.7625 82.8444789,18.0545 L82.8444789,14.8815 L80.7418883,14.8815 C80.9688154,15.2245 81.0812749,15.6865 81.0812749,16.2665 C81.0812749,16.9645 80.8844708,17.5365 80.4918668,17.9815 C80.0982586,18.4275 79.5881745,18.7525 78.9636228,18.9565 C79.210632,19.7725 79.8422125,20.1805 80.8553519,20.1805 M80.4667642,22.1775 C79.3994033,22.1775 78.4806495,21.7915 77.7094988,21.0175 C76.9383481,20.2445 76.4724446,19.1815 76.3107841,17.8285 C77.9926557,17.5925 78.8340936,17.0345 78.8340936,16.1535 C78.8340936,15.6165 78.6774536,15.1925 78.3651777,14.8815 L75.5185472,14.8815 L75.5185472,13.0775 L86.7424047,13.0775 L86.7424047,14.8815 L85.1247956,14.8815 L85.1247956,23.8845 L82.8444789,23.8845 L82.8444789,21.1465 C82.6607281,21.4585 82.3534728,21.7085 81.9227128,21.8955 C81.4909487,22.0835 81.0059672,22.1775 80.4667642,22.1775" id="Fill-28" fill="#EF951E" mask="url(#mask-8)"></path>
                <path d="M89.6695642,13.0771 L91.2711077,13.0771 L91.2711077,14.8811 L89.6534986,14.8811 L89.6534986,23.8851 L87.3892475,23.8851 L87.3892475,14.8811 L85.7716384,14.8811 L85.7716384,13.0771 L87.227587,13.0771 L86.1441604,11.4981 C85.8529707,11.0581 85.4432969,10.8381 84.915139,10.8381 C84.5807729,10.8381 84.2353616,10.8921 83.8799093,10.9991 L83.8799093,9.0991 C84.2674929,9.0231 84.6771667,8.9861 85.1089308,8.9861 C85.7666179,8.9971 86.3218866,9.1151 86.7747368,9.3401 C87.227587,9.5661 87.6262157,9.9421 87.9716269,10.4671 L89.6695642,13.0771 Z" id="Fill-29" fill="#EF951E" mask="url(#mask-8)"></path>
                <path d="M90.300241,13.0771 L100.731862,13.0771 L100.731862,14.8811 L99.1142525,14.8811 L99.1142525,23.8851 L96.8500014,23.8851 L96.8500014,14.8811 L95.0556703,14.8811 L95.0556703,18.3281 C95.0556703,19.1011 94.836776,19.6761 94.3999914,20.0511 C93.9632068,20.4271 93.3999053,20.6151 92.7100869,20.6151 C92.1929742,20.6151 91.7130132,20.5401 91.2712081,20.3901 L91.2712081,18.6181 C91.5081763,18.7471 91.7722552,18.8111 92.0634449,18.8111 C92.5373813,18.8111 92.7743495,18.5641 92.7743495,18.0701 L92.7743495,14.8811 L90.300241,14.8811 L90.300241,13.0771 Z" id="Fill-30" fill="#EF951E" mask="url(#mask-8)"></path>
                <path d="M103.643156,13.0771 L105.276831,13.0771 L105.276831,14.8811 L103.659222,14.8811 L103.659222,23.8851 L101.378905,23.8851 L101.378905,14.8811 L99.7612962,14.8811 L99.7612962,13.0771 L101.36284,13.0771 L101.36284,12.1101 C101.36284,11.7131 101.257409,11.4081 101.047551,11.1931 C100.83669,10.9781 100.537467,10.8701 100.149884,10.8701 C99.3947987,10.8701 99.0172562,11.2841 99.0172562,12.1101 L99.0172562,12.5131 L96.7208739,12.5131 L96.7208739,12.0301 C96.7208739,11.0211 97.0441949,10.2581 97.6908368,9.7431 C98.3384829,9.2271 99.1578306,8.9701 100.149884,8.9701 C101.152982,8.9701 101.985383,9.2251 102.648091,9.7351 C103.311803,10.2451 103.643156,11.0051 103.643156,12.0141 L103.643156,13.0771 Z" id="Fill-31" fill="#EF951E" mask="url(#mask-8)"></path>
                <path d="M115.028976,17.7964 L115.028976,13.0774 L118.8777,13.0774 L118.8777,14.8814 L117.261095,14.8814 L117.261095,23.8854 L115.028976,23.8854 L115.028976,19.6004 L112.554867,19.6004 L112.554867,21.6134 L110.580802,21.6134 L109.999426,20.3734 C109.708237,19.7614 109.562642,19.2894 109.562642,18.9564 C109.562642,18.3984 109.810655,18.0484 110.306682,17.9094 L110.306682,15.6064 C110.306682,15.1014 110.057664,14.8484 109.562642,14.8484 C109.281493,14.8484 108.990303,14.9244 108.689072,15.0744 L108.689072,13.3184 C109.098746,13.1034 109.562642,12.9964 110.079754,12.9964 C111.729495,12.9964 112.554867,13.7754 112.554867,15.3324 L112.554867,17.7964 L115.028976,17.7964 Z" id="Fill-32" fill="#264092" mask="url(#mask-8)"></path>
                <polygon id="Fill-33" fill="#264092" mask="url(#mask-8)" points="117.907637 14.8811 117.907637 13.0771 123.422168 13.0771 123.422168 14.8811 121.805563 14.8811 121.805563 23.8851 119.525246 23.8851 119.525246 14.8811"></polygon>
                <path d="M123.503299,19.7614 L123.503299,17.9894 L124.732321,17.9894 C125.724374,17.9894 126.2204,17.5814 126.2204,16.7654 L126.2204,14.8814 L122.452004,14.8814 L122.452004,13.0774 L130.166523,13.0774 L130.166523,14.8814 L128.484652,14.8814 L128.484652,16.8944 C128.484652,17.6144 128.303913,18.2174 127.94344,18.7064 C127.581963,19.1954 127.061838,19.5034 126.382061,19.6324 C126.295708,19.6544 126.21538,19.6654 126.140072,19.6654 L129.455619,23.8844 L126.705382,23.8844 L123.503299,19.7614 Z" id="Fill-34" fill="#264092" mask="url(#mask-8)"></path>
                <path d="M140,13.0771 L140,14.8811 L138.382391,14.8811 L138.382391,23.8851 L136.086009,23.8851 L136.086009,18.0861 L134.953381,18.0861 C134.220386,18.0861 133.663109,18.2501 133.279542,18.5781 C132.896979,18.9051 132.7062,19.3801 132.7062,20.0031 C132.7062,21.3131 133.271509,21.9681 134.404137,21.9681 C134.522621,21.9681 134.613994,21.9631 134.679261,21.9521 L134.679261,23.8371 C134.420203,23.8581 134.204321,23.8691 134.031615,23.8691 C132.888946,23.8691 131.999311,23.5121 131.363715,22.7981 C130.727114,22.0841 130.408813,21.1471 130.408813,19.9871 C130.408813,18.8491 130.786356,17.9411 131.541441,17.2651 C132.295522,16.5881 133.412084,16.2501 134.889118,16.2501 L136.086009,16.2501 L136.086009,14.8811 L129.195857,14.8811 L129.195857,13.0771 L140,13.0771 Z" id="Fill-35" fill="#264092" mask="url(#mask-8)"></path>
                <path d="M76.147517,27.8766 L76.147517,28.4406 L75.5159365,28.4406 L75.5159365,31.7946 L74.8060361,31.7946 L74.8060361,29.5026 C74.746794,29.4916 74.6855438,29.4856 74.6212812,29.4856 C74.4264854,29.4856 74.2818946,29.5376 74.1865049,29.6426 C74.0911151,29.7476 74.0429182,29.9146 74.0429182,30.1436 L74.0429182,30.5416 L73.3400465,30.5416 L73.3400465,30.1326 C73.3400465,29.7446 73.2024844,29.5506 72.9283645,29.5506 C72.7857819,29.5506 72.6703101,29.6066 72.5829532,29.7196 C72.4955963,29.8326 72.4514158,30.0036 72.4514158,30.2336 C72.4514158,30.5346 72.5327481,30.7726 72.6934045,30.9486 C72.8540609,31.1246 73.0970537,31.2126 73.423387,31.2126 C73.5187767,31.2126 73.5920762,31.2086 73.6442895,31.2006 L73.6442895,31.7706 C73.540867,31.7826 73.4394526,31.7886 73.3400465,31.7886 C72.8590814,31.7886 72.4755142,31.6446 72.189345,31.3556 C71.9031758,31.0666 71.7605933,30.6886 71.7605933,30.2216 C71.7605933,29.8456 71.8579912,29.5426 72.0527871,29.3126 C72.247583,29.0836 72.5156783,28.9686 72.8570732,28.9686 C73.0880168,28.9686 73.2757839,29.0186 73.4203747,29.1176 C73.5659695,29.2166 73.6563388,29.3466 73.6914823,29.5096 C73.7949049,29.1256 74.0911151,28.9326 74.580113,28.9326 C74.6514043,28.9326 74.726712,28.9436 74.8060361,28.9626 L74.8060361,28.4406 L71.3489113,28.4406 L71.3489113,27.8766 L76.147517,27.8766 Z" id="Fill-36" fill="#1B2133" mask="url(#mask-8)"></path>
                <path d="M77.1489084,27.8766 L77.7804889,27.8766 L77.7804889,28.4406 L77.1489084,28.4406 L77.1489084,31.7946 L76.4570818,31.7946 L76.4570818,28.4406 L75.8255013,28.4406 L75.8255013,27.8766 L76.3978397,27.8766 L75.9630634,27.2356 C75.8475916,27.0536 75.6869352,26.9626 75.4800901,26.9626 C75.3726511,26.9626 75.2551711,26.9796 75.1286542,27.0156 L75.1286542,26.4276 C75.2953352,26.4006 75.429885,26.3866 75.5333075,26.3866 C75.9670798,26.3906 76.2984336,26.5706 76.5293772,26.9266 L77.1489084,27.8766 Z" id="Fill-37" fill="#1B2133" mask="url(#mask-8)"></path>
                <path d="M82.5193505,28.4404 L80.3374358,28.4404 L80.3374358,29.1704 C80.5201825,29.0004 80.7390768,28.9154 80.9931147,28.9154 C81.3395301,28.9154 81.6176665,29.0204 81.8275239,29.2294 C82.0383854,29.4394 82.1438162,29.7104 82.1438162,30.0434 C82.1438162,30.4034 82.0233239,30.6904 81.7833434,30.9044 C81.5423588,31.1174 81.2401239,31.2244 80.8746306,31.2244 C80.8103681,31.2244 80.7651835,31.2224 80.7370686,31.2184 L80.7370686,30.6544 C80.7611671,30.6584 80.7963106,30.6604 80.8445076,30.6604 C81.0232378,30.6604 81.1668245,30.6044 81.2762716,30.4914 C81.3857188,30.3784 81.4409444,30.2334 81.4409444,30.0554 C81.4409444,29.8884 81.3897352,29.7504 81.2883209,29.6394 C81.1869065,29.5284 81.0513527,29.4734 80.8796511,29.4734 C80.7250194,29.4734 80.5964942,29.5284 80.4930717,29.6364 C80.3896491,29.7454 80.3374358,29.8854 80.3374358,30.0554 L80.3374358,31.7944 L79.6345641,31.7944 L79.6345641,31.0344 C79.4558338,31.2004 79.2369395,31.2844 78.9788852,31.2844 C78.6364862,31.2844 78.3593539,31.1794 78.1474883,30.9694 C77.9346186,30.7594 77.8281837,30.4884 77.8281837,30.1564 C77.8281837,29.7964 77.948676,29.5094 78.1886565,29.2954 C78.4296411,29.0814 78.731876,28.9744 79.0983734,28.9744 C79.1576154,28.9744 79.2028,28.9764 79.2349313,28.9804 L79.2349313,29.5444 C79.2108328,29.5404 79.1756892,29.5384 79.1274923,29.5384 C78.9487621,29.5384 78.8051754,29.5954 78.6957283,29.7074 C78.5862811,29.8204 78.5320596,29.9664 78.5320596,30.1444 C78.5320596,30.3104 78.5822647,30.4484 78.683679,30.5594 C78.7850934,30.6704 78.9226554,30.7264 79.0983734,30.7264 C79.2489887,30.7264 79.3765097,30.6714 79.4799323,30.5624 C79.5823507,30.4534 79.6345641,30.3144 79.6345641,30.1444 L79.6345641,28.4404 L77.458674,28.4404 L77.458674,27.8764 L82.5193505,27.8764 L82.5193505,28.4404 Z" id="Fill-38" fill="#1B2133" mask="url(#mask-8)"></path>
                <path d="M86.3283128,26.8732 L86.3283128,27.5022 C85.9427375,27.3282 85.5400924,27.1902 85.1213816,27.0872 C84.7016668,26.9842 84.3592679,26.9322 84.0931807,26.9322 C83.9104341,26.9322 83.7698597,26.9812 83.6724618,27.0782 C83.5750638,27.1752 83.5268669,27.3082 83.5268669,27.4792 L83.5268669,27.8762 L84.1584474,27.8762 L84.1584474,28.4402 L83.5268669,28.4402 L83.5268669,31.7942 L82.8290157,31.7942 L82.8290157,28.4402 L82.1974352,28.4402 L82.1974352,27.8762 L82.8290157,27.8762 L82.8290157,27.4672 C82.8290157,27.1302 82.939467,26.8592 83.1603695,26.6532 C83.380268,26.4482 83.6855151,26.3452 84.0751069,26.3452 C84.4245345,26.3452 84.7749663,26.3892 85.124394,26.4782 C85.4738216,26.5672 85.8754626,26.6992 86.3283128,26.8732" id="Fill-39" fill="#1B2133" mask="url(#mask-8)"></path>
                <path d="M86.7812634,29.3725 L85.2911754,29.3725 C85.1164615,29.3725 85.0291046,29.4395 85.0291046,29.5745 C85.0291046,29.7095 85.0963795,29.8235 85.2309292,29.9185 C85.4026307,29.8795 85.5793528,29.8595 85.7620994,29.8595 C86.1075107,29.8595 86.384643,29.9425 86.5934963,30.1085 C86.8023496,30.2745 86.9067763,30.4785 86.9067763,30.7205 C86.9067763,30.8625 86.8866942,30.9755 86.8465301,31.0585 L86.1617322,31.0585 C86.208925,30.9835 86.2330235,30.8825 86.2330235,30.7555 C86.2330235,30.6645 86.1898471,30.5875 86.1044984,30.5245 C86.0191497,30.4605 85.8986574,30.4295 85.7440256,30.4295 C85.5170984,30.4295 85.3423846,30.4745 85.2198841,30.5655 C85.0963795,30.6565 85.0351292,30.7715 85.0351292,30.9105 C85.0351292,31.0765 85.1074246,31.2095 85.2520154,31.3105 C85.3976102,31.4115 85.6245374,31.4625 85.9348051,31.4625 C86.1456666,31.4625 86.4097455,31.4245 86.728046,31.3495 L86.728046,31.9255 C86.4177784,31.9925 86.1416502,32.0265 85.8986574,32.0265 C85.3945979,32.0265 85.0080185,31.9145 84.7399231,31.6905 C84.4718278,31.4675 84.337278,31.2045 84.337278,30.9045 C84.337278,30.5995 84.4668072,30.3485 84.7248616,30.1505 C84.4507416,29.9925 84.3131796,29.7725 84.3131796,29.4915 C84.3131796,29.2775 84.3914996,29.1135 84.5491436,28.9985 C84.7057836,28.8835 84.9096164,28.8265 85.1596379,28.8265 L86.0894368,28.8265 L86.0894368,28.4405 L83.8362309,28.4405 L83.8362309,27.8765 L87.3947701,27.8765 L87.3947701,28.4405 L86.7812634,28.4405 L86.7812634,29.3725 Z" id="Fill-40" fill="#1B2133" mask="url(#mask-8)"></path>
                <path d="M90.9716843,27.8766 L90.9716843,28.4406 L90.3401039,28.4406 L90.3401039,31.7946 L89.6422526,31.7946 L89.6422526,29.6036 L89.165304,29.6036 C88.557822,29.6036 88.2535789,29.8676 88.2535789,30.3936 C88.2535789,30.6466 88.312821,30.8446 88.4323091,30.9866 C88.5517973,31.1296 88.7305276,31.2006 88.9684999,31.2006 C89.0207132,31.2006 89.057865,31.1986 89.0819635,31.1946 L89.0819635,31.7766 C88.9946065,31.7846 88.9233153,31.7886 88.8670855,31.7886 C88.4584158,31.7886 88.1360989,31.6586 87.902143,31.3996 C87.6671831,31.1406 87.5507072,30.8036 87.5507072,30.3876 C87.5507072,29.9756 87.6842528,29.6466 87.9523482,29.3996 C88.2204435,29.1516 88.6130476,29.0286 89.1301604,29.0286 L89.6422526,29.0286 L89.6422526,28.4406 L87.0737585,28.4406 L87.0737585,27.8766 L90.9716843,27.8766 Z" id="Fill-41" fill="#1B2133" mask="url(#mask-8)"></path>
                <path d="M89.6841237,27.3156 C89.6047996,27.2346 89.5646355,27.1346 89.5646355,27.0156 C89.5646355,26.8966 89.6047996,26.7966 89.6841237,26.7156 C89.7634478,26.6346 89.8648622,26.5946 89.9883668,26.5946 C90.1068508,26.5946 90.2082652,26.6346 90.2916057,26.7156 C90.3759503,26.7966 90.4171185,26.8966 90.4171185,27.0156 C90.4171185,27.1346 90.3759503,27.2346 90.2916057,27.3156 C90.2082652,27.3966 90.1068508,27.4376 89.9883668,27.4376 C89.8648622,27.4376 89.7634478,27.3966 89.6841237,27.3156" id="Fill-42" fill="#1B2133" mask="url(#mask-8)"></path>
                <path d="M93.5341538,29.639 L94.5894655,29.639 L94.5894655,28.44 L93.5341538,28.44 L93.5341538,29.639 Z M92.1284104,28.44 L92.1284104,27.877 L95.906848,27.877 L95.906848,28.44 L95.2752675,28.44 L95.2752675,31.794 L94.5894655,31.794 L94.5894655,30.203 L93.5351579,30.203 L93.5351579,30.958 L92.9387211,30.958 L92.7479416,30.536 C92.6364862,30.287 92.5812606,30.107 92.5812606,29.996 C92.5812606,29.826 92.6686175,29.719 92.8433313,29.675 L92.8433313,28.44 L92.1284104,28.44 Z" id="Fill-43" fill="#1B2133" mask="url(#mask-8)"></path>
                <path d="M96.9912787,29.639 L98.0465904,29.639 L98.0465904,28.44 L96.9912787,28.44 L96.9912787,29.639 Z M95.5855352,28.44 L95.5855352,27.877 L99.3639728,27.877 L99.3639728,28.44 L98.7323923,28.44 L98.7323923,31.794 L98.0465904,31.794 L98.0465904,30.203 L96.9922828,30.203 L96.9922828,30.958 L96.3958459,30.958 L96.2050664,30.536 C96.093611,30.287 96.0383854,30.107 96.0383854,29.996 C96.0383854,29.826 96.1257423,29.719 96.3004561,29.675 L96.3004561,28.44 L95.5855352,28.44 Z" id="Fill-44" fill="#1B2133" mask="url(#mask-8)"></path>
                <path d="M105.580974,28.4404 L103.399059,28.4404 L103.399059,29.1704 C103.581806,29.0004 103.8007,28.9154 104.054738,28.9154 C104.401153,28.9154 104.67929,29.0204 104.889147,29.2294 C105.100009,29.4394 105.205439,29.7104 105.205439,30.0434 C105.205439,30.4034 105.084947,30.6904 104.844967,30.9044 C104.603982,31.1174 104.301747,31.2244 103.93525,31.2244 C103.871991,31.2244 103.826807,31.2224 103.798692,31.2184 L103.798692,30.6544 C103.82279,30.6584 103.857934,30.6604 103.906131,30.6604 C104.084861,30.6604 104.228448,30.6044 104.337895,30.4914 C104.447342,30.3784 104.501564,30.2334 104.501564,30.0554 C104.501564,29.8884 104.451358,29.7504 104.349944,29.6394 C104.24853,29.5284 104.112976,29.4734 103.941274,29.4734 C103.786643,29.4734 103.658117,29.5284 103.554695,29.6364 C103.451272,29.7454 103.399059,29.8854 103.399059,30.0554 L103.399059,31.7944 L102.696187,31.7944 L102.696187,31.0344 C102.517457,31.2004 102.298563,31.2844 102.040508,31.2844 C101.698109,31.2844 101.420977,31.1794 101.209112,30.9694 C100.996242,30.7594 100.889807,30.4884 100.889807,30.1564 C100.889807,29.7964 101.010299,29.5094 101.25028,29.2954 C101.491264,29.0814 101.793499,28.9744 102.158992,28.9744 C102.219239,28.9744 102.264423,28.9764 102.296554,28.9804 L102.296554,29.5444 C102.272456,29.5404 102.237312,29.5384 102.189116,29.5384 C102.010385,29.5384 101.866799,29.5954 101.757351,29.7074 C101.647904,29.8204 101.592679,29.9664 101.592679,30.1444 C101.592679,30.3104 101.643888,30.4484 101.745302,30.5594 C101.846717,30.6704 101.984279,30.7264 102.158992,30.7264 C102.310612,30.7264 102.438133,30.6714 102.540551,30.5624 C102.643974,30.4534 102.696187,30.3144 102.696187,30.1444 L102.696187,28.4404 L100.520297,28.4404 L100.520297,27.8764 L105.580974,27.8764 L105.580974,28.4404 Z" id="Fill-45" fill="#1B2133" mask="url(#mask-8)"></path>
                <path d="M105.622744,30.2214 L105.622744,29.6694 L106.051496,29.6694 C106.46117,29.6694 106.666007,29.5054 106.666007,29.1764 L106.666007,28.4404 L105.259259,28.4404 L105.259259,27.8764 L107.97134,27.8764 L107.97134,28.4404 L107.362854,28.4404 L107.362854,29.2184 C107.362854,29.4914 107.28855,29.7144 107.139943,29.8864 C106.990332,30.0584 106.782483,30.1604 106.516396,30.1914 C106.493301,30.1994 106.465186,30.2034 106.433055,30.2034 L107.673122,31.7944 L106.832688,31.7944 L105.622744,30.2214 Z" id="Fill-46" fill="#1B2133" mask="url(#mask-8)"></path>
                <path d="M109.622185,29.7524 L109.622185,28.4404 L108.775727,28.4404 L108.775727,29.7524 C108.775727,30.0774 108.915297,30.2394 109.193433,30.2394 C109.479602,30.2394 109.622185,30.0774 109.622185,29.7524 L109.622185,29.7524 Z M112.441705,27.8764 L112.441705,28.4404 L111.810124,28.4404 L111.810124,31.7944 L111.112273,31.7944 L111.112273,28.4404 L110.314012,28.4404 L110.314012,29.6994 C110.314012,30.0674 110.214605,30.3474 110.015793,30.5394 C109.816981,30.7314 109.538844,30.8274 109.181384,30.8274 C108.446381,30.8274 108.078879,30.4554 108.078879,29.7104 L108.078879,28.4404 L107.649124,28.4404 L107.649124,27.8764 L112.441705,27.8764 Z" id="Fill-47" fill="#1B2133" mask="url(#mask-8)"></path>
                <path d="M113.443096,27.8766 L114.080701,27.8766 L114.080701,28.4406 L113.449121,28.4406 L113.449121,31.7946 L112.751269,31.7946 L112.751269,28.4406 L112.119689,28.4406 L112.119689,27.8766 L112.746249,27.8766 L112.746249,27.4666 C112.746249,27.3046 112.701064,27.1786 112.611699,27.0896 C112.522334,27.0006 112.401842,26.9566 112.251226,26.9566 C111.936942,26.9566 111.780302,27.1266 111.780302,27.4666 L111.780302,27.5976 L111.076427,27.5976 L111.076427,27.4426 C111.076427,27.0866 111.187882,26.8176 111.410793,26.6356 C111.632699,26.4536 111.912844,26.3626 112.251226,26.3626 C112.592621,26.3626 112.876782,26.4526 113.103709,26.6326 C113.329632,26.8126 113.443096,27.0806 113.443096,27.4376 L113.443096,27.8766 Z" id="Fill-48" fill="#1B2133" mask="url(#mask-8)"></path>
                <path d="M115.70805,30.5123 C115.954055,30.5123 116.149855,30.4433 116.29545,30.3043 C116.440041,30.1663 116.512336,29.9663 116.512336,29.7053 L116.512336,28.4403 L115.606636,28.4403 C115.698009,28.5753 115.744198,28.7493 115.744198,28.9633 C115.744198,29.4453 115.470078,29.7743 114.920834,29.9483 C114.969031,30.1183 115.061408,30.2553 115.197966,30.3583 C115.335528,30.4613 115.505221,30.5123 115.70805,30.5123 M115.600611,31.1243 C115.215036,31.1243 114.884686,30.9883 114.608558,30.7173 C114.33243,30.4463 114.16374,30.0693 114.104498,29.5863 C114.736079,29.4873 115.052371,29.2693 115.052371,28.9333 C115.052371,28.7313 114.993129,28.5673 114.873641,28.4403 L113.759087,28.4403 L113.759087,27.8763 L117.841768,27.8763 L117.841768,28.4403 L117.210187,28.4403 L117.210187,31.7943 L116.512336,31.7943 L116.512336,30.7323 C116.433012,30.8503 116.311516,30.9453 116.148851,31.0173 C115.986186,31.0883 115.80344,31.1243 115.600611,31.1243" id="Fill-49" fill="#1B2133" mask="url(#mask-8)"></path>
                <path d="M118.926901,29.639 L119.982213,29.639 L119.982213,28.44 L118.926901,28.44 L118.926901,29.639 Z M117.520154,28.44 L117.520154,27.877 L121.299595,27.877 L121.299595,28.44 L120.667011,28.44 L120.667011,31.794 L119.982213,31.794 L119.982213,30.203 L118.926901,30.203 L118.926901,30.958 L118.330464,30.958 L118.139685,30.536 C118.02823,30.287 117.973004,30.107 117.973004,29.996 C117.973004,29.826 118.060361,29.719 118.235075,29.675 L118.235075,28.44 L117.520154,28.44 Z" id="Fill-50" fill="#1B2133" mask="url(#mask-8)"></path>
                <polygon id="Fill-51" fill="#1B2133" mask="url(#mask-8)" points="121.573314 33.2074 120.73288 33.2074 120.011934 32.1864 120.720831 32.1864"></polygon>
                <polygon id="Fill-52" fill="#1B2133" mask="url(#mask-8)" points="123.619072 30.253 137.526896 30.253 137.526896 29.653 123.619072 29.653"></polygon>
                <polygon id="Fill-53" fill="#1B2133" mask="url(#mask-8)" points="55.6433428 30.253 69.5511662 30.253 69.5511662 29.653 55.6433428 29.653"></polygon>
            </g>
        </g>
    </g>
</svg>