<?xml version="1.0" encoding="UTF-8"?>
<svg width="22px" height="21px" viewBox="0 0 22 21" version="1.1" xmlns="http://www.w3.org/2000/svg" xmlns:xlink="http://www.w3.org/1999/xlink">
    <title>KB-Symbol_icon</title>
    <defs>
        <radialGradient cx="50%" cy="50%" fx="50%" fy="50%" r="53.6914373%" gradientTransform="translate(0.5, 0.5), scale(1, 0.9312), rotate(90), translate(-0.5, -0.5)" id="radialGradient-1">
            <stop stop-color="#E94D13" offset="0%"></stop>
            <stop stop-color="#EB6E07" offset="21.9621565%"></stop>
            <stop stop-color="#F4970B" offset="40.7644845%"></stop>
            <stop stop-color="#FCBF06" offset="59.1614196%"></stop>
            <stop stop-color="#F7F19D" offset="80.4311045%"></stop>
            <stop stop-color="#FFFFFF" offset="100%"></stop>
        </radialGradient>
        <polygon id="path-2" points="0 0 3.15355618 0 3.15355618 2.67898328 0 2.67898328"></polygon>
        <polygon id="path-4" points="0 0 9.97248672 0 9.97248672 12.2206584 0 12.2206584"></polygon>
        <polygon id="path-6" points="0 0 9.92060339 0 9.92060339 12.2204594 0 12.2204594"></polygon>
    </defs>
    <g id="UI-Elements-for-Dev." stroke="none" stroke-width="1" fill="none" fill-rule="evenodd">
        <g id="UI-Elements" transform="translate(-583, -410)">
            <g id="KB-Symbol_icon" transform="translate(583, 410)">
                <g id="Group-5" transform="translate(0.7552, 0.6881)" fill="#264092">
                    <path d="M17.4936877,7.12105507 C16.9721808,7.03374464 16.3844176,6.97813807 15.729352,6.97813807 C15.6547264,6.98200744 15.5812633,6.98662571 15.5085557,6.99174327 C15.7282477,6.58134055 15.9276559,6.21337607 16.1141035,5.80609381 C17.9559707,5.50134982 19.0449571,5.72271516 19.0449571,5.72271516 C19.0449571,5.72271516 18.5862193,6.07657516 17.4936877,7.12105507 M15.094047,7.02862709 C14.6573365,7.07562119 14.2593919,7.14526983 13.8971907,7.23183135 C14.0215666,6.93239214 14.1233921,6.61610246 14.2083048,6.29088826 C14.3828378,6.21712062 14.2980995,5.8951517 14.4908821,5.82544065 C14.8167585,5.72489948 16.0078609,5.40161996 16.3018878,5.33939802 C16.1203804,5.73157726 15.8093245,7.24187923 15.094047,7.02862709 M14.6117708,3.85880281 C16.187741,2.9360832 17.2385428,2.77924895 17.2385428,2.77924895 C17.2385428,2.77924895 16.7624273,3.38299528 15.8330954,5.41098134 C15.5369181,5.467212 15.2768911,5.53817123 14.9531651,5.62872694 C14.7273125,5.70455409 14.5133162,5.78393855 14.3093166,5.86600662 C14.4566497,5.18094113 14.5414461,4.52470868 14.6117708,3.85880281 M17.9102887,7.2001899 C19.2774353,5.86344784 19.8461353,5.5651944 19.8461353,5.5651944 C19.8461353,5.5651944 18.5275186,5.00962795 16.3018878,5.33939802 C16.312175,5.31668108 16.3224622,5.29383932 16.3326912,5.2712472 C17.4008126,2.90793666 17.9527742,2.28446903 17.9527742,2.28446903 C17.9527742,2.28446903 16.5842327,2.26075355 14.6595451,3.3463611 C14.9273601,0.776538609 15.2485288,4.3686421e-05 15.2485288,4.3686421e-05 C15.2485288,4.3686421e-05 13.5518442,0.631749329 11.7384556,3.375631 C11.6439532,3.53427512 11.5557858,3.68986118 11.4726748,3.84282607 L11.531085,4.46417179 C11.6295395,4.26614748 11.539861,4.32780774 11.6590643,4.11767606 C13.1990585,1.65900431 14.6447827,0.808554514 14.6447827,0.808554514 C14.6447827,0.808554514 14.4772821,1.42028922 14.2380039,3.56585416 C13.9483359,3.74484367 13.6977244,3.94823516 13.3891676,4.18070932 C12.5391689,4.88930307 12.1272174,5.52400435 11.6903907,6.15789431 L11.739618,6.20332819 C12.1266362,5.58142079 12.5026698,5.04089495 13.3521454,4.30041012 C13.6575637,4.05776326 14.3763284,3.52928238 14.6595451,3.3463611 C14.5892204,3.98742812 14.4639727,5.20496866 14.3093166,5.86600662 C13.2573524,6.3380696 12.3344718,6.99374036 11.8178469,7.51329672 C12.2632753,7.01895367 13.2820532,6.58315042 14.3093166,6.09479864 C14.2202193,6.39879372 14.0285991,6.95641967 13.8971907,7.23183135 C13.124956,7.46037374 12.3204068,7.82359512 11.8763152,8.1350793 L11.9126981,8.4153589 C12.2739693,8.13788772 12.9248503,7.7091367 13.594969,7.48015745 C13.5244118,7.97393882 13.1649423,8.75005929 11.954486,8.96636948 L11.9859868,9.30119469 C12.8961393,8.99651311 13.2996634,8.31775095 13.7069654,7.53395416 C14.0539973,7.44108931 15.0784709,7.04685057 15.5085557,6.99174327 C14.8475619,8.34109198 12.6750524,10.3599663 12.0021441,9.4726951 L12.0331218,9.8020283 C13.6433826,9.84034753 14.5035522,8.73901287 15.2984535,7.36906912 C15.3440192,7.36507494 15.3897012,7.36114316 15.4361387,7.35764824 C15.729352,6.97813807 17.4109835,7.12723358 17.9102887,7.2001899 C17.8217726,7.28787479 17.2202932,8.05675579 17.1248609,8.15355242 C15.8075809,9.48979521 13.1649423,11.5080454 12.0554397,10.1459652 L12.0895559,10.4021549 C14.2344004,11.1254772 15.9053961,9.24134429 17.3559443,7.7553819 C17.4328365,7.67662152 17.5070552,7.65459109 17.5799952,7.5811979 C18.9388307,7.8493077 19.6420775,8.22613429 19.6420775,8.22613429 C19.6420775,8.22613429 18.9539418,8.43701488 17.0956268,9.53285754 C15.5731847,10.4306135 13.805478,11.5518567 12.1033884,10.5496278 L12.141108,10.9508563 C13.9787325,11.9018473 15.8969107,10.6757567 17.5554107,9.6863841 C19.6940364,8.41067821 20.479348,8.24086285 20.479348,8.24086285 C20.479348,8.24086285 19.6091237,7.56241274 17.9102887,7.2001899" id="Fill-1"></path>
                    <path d="M1.43439093,5.72273388 C1.43439093,5.72273388 2.52337728,5.50136854 4.3652445,5.80611253 C4.55169207,6.21333238 4.75110031,6.58129686 4.97079228,6.99176199 C4.8980847,6.98664444 4.82462156,6.98196375 4.74993792,6.97809438 C4.09493039,6.97809438 3.5071672,7.03376336 2.98566032,7.12107379 C1.89312868,6.07659389 1.43439093,5.72273388 1.43439093,5.72273388 M4.17746017,5.33941674 C4.47148707,5.40163869 5.66258949,5.72485579 5.98846591,5.82545938 C6.18124851,5.89517042 6.09651018,6.21707693 6.27104325,6.29090698 C6.35595593,6.61612118 6.45778142,6.93234846 6.58215729,7.23178767 C6.21995615,7.14528855 5.82201147,7.07563992 5.38530103,7.02864581 C4.67002351,7.24189795 4.35896759,5.73159598 4.17746017,5.33941674 M6.17003144,5.86602534 C5.96603175,5.78395728 5.75203551,5.7045104 5.52618287,5.62868326 C5.20245687,5.53818996 4.94242993,5.46723073 4.64625261,5.41093765 C3.71692072,3.38301401 3.24080522,2.77926767 3.24080522,2.77926767 C3.24080522,2.77926767 4.29160701,2.93603951 5.86757721,3.85882154 C5.93790188,4.524665 6.02269833,5.18089744 6.17003144,5.86602534 M0,8.24081916 C0,8.24081916 0.7853116,8.41063452 2.92387922,9.68640282 C4.58243732,10.6757754 6.50061554,11.9018036 8.33818191,10.9508751 L8.37595963,10.5495841 C6.67386997,11.5518754 4.90616332,10.4305698 3.38372124,9.53281385 C1.52540618,8.4370336 0.837270494,8.22615301 0.837270494,8.22615301 C0.837270494,8.22615301 1.54051726,7.84926402 2.89935276,7.58115421 C2.97229282,7.65460981 3.04651151,7.67657784 3.12340369,7.75540062 C4.57395187,9.24130061 6.24494756,11.1254959 8.38979209,10.4021736 L8.47336803,10.0928738 C7.36386548,11.454954 4.6717671,9.48981393 3.35448709,8.15357114 C3.25905476,8.05671211 2.65757536,7.28789351 2.56905926,7.20020862 C3.06836446,7.12718989 4.74993792,6.97809438 5.04320926,7.35760456 C5.08964679,7.36109947 5.13527065,7.36509366 5.18089451,7.36908785 C5.97579584,8.73903159 6.83596545,9.84036625 8.44622619,9.80204702 L8.47720392,9.47265141 C7.80429556,10.359985 5.71669881,8.37362588 4.97079228,6.99176199 C5.40087708,7.04680688 6.41564473,7.48491927 6.76267667,7.57784653 C7.1699786,8.36158091 7.58320873,8.99653183 8.49336116,9.30121341 L8.52486197,8.9663882 C7.31440573,8.7500156 6.9549362,7.97395754 6.88437905,7.48017617 C7.55449766,7.70909302 8.2053787,8.13790644 8.56664994,8.41537762 L8.60303278,8.13509803 C8.15894117,7.82355144 7.35439199,7.46033006 6.58215729,7.23178767 C6.45074895,6.9564384 6.25912873,6.39875003 6.17003144,6.09481736 C7.1972948,6.58316914 8.2160727,7.01890998 8.66150107,7.51325303 C8.14487623,6.99375908 7.22199561,6.33808832 6.17003144,5.86602534 C6.01537527,5.20498738 5.8901276,3.98744684 5.81980292,3.34637982 C6.10301958,3.52930111 6.82178427,4.05778198 7.1272026,4.30036643 C7.9766782,5.04091367 8.35271181,5.5813771 8.73973001,6.20334691 L8.78895728,6.15785063 C8.35213061,5.52402307 7.94017911,4.88925938 7.09018043,4.18072805 C6.78162365,3.94819147 6.53101207,3.74486239 6.24134415,3.56587288 C6.00200777,1.42030794 5.83456529,0.808573237 5.83456529,0.808573237 C5.83456529,0.808573237 7.28028954,1.65896062 8.82028373,4.11769478 C8.93948696,4.32776406 8.84980847,4.2661662 8.94826302,4.46419051 L9.00667318,3.84284479 C8.9235622,3.6898175 8.83539482,3.53423143 8.7408924,3.37558731 C6.92750376,0.631768052 5.23081922,0 5.23081922,0 C5.23081922,0 5.55198795,0.776494923 5.81980292,3.34637982 C3.89511531,2.26070986 2.52657385,2.28448775 2.52657385,2.28448775 C2.52657385,2.28448775 3.07853539,2.90789298 4.1466568,5.27126593 C4.15688585,5.29385805 4.16717301,5.31663739 4.17746017,5.33941674 C1.95182945,5.00964667 0.633212691,5.56521313 0.633212691,5.56521313 C0.633212691,5.56521313 1.20191266,5.86340415 2.56905926,7.20020862 C0.870224289,7.56243146 0,8.24081916 0,8.24081916" id="Fill-3"></path>
                </g>
                <path d="M9.62965683,8.96420388 C9.62965683,9.79786561 10.2589755,10.4736945 11.0353367,10.4736945 L11.0353367,10.4736945 C11.8116398,10.4736945 12.4410166,9.79786561 12.4410166,8.96420388 L12.4410166,8.96420388 C12.4410166,8.13060457 11.8116398,7.45477564 11.0353367,7.45477564 L11.0353367,7.45477564 C10.2589755,7.45477564 9.62965683,8.13060457 9.62965683,8.96420388" id="Fill-6" fill="url(#radialGradient-1)"></path>
                <polygon id="Fill-9" fill="#264092" points="12.7292722 13.8418364 11.0157911 9.02915311 9.30230999 13.8418364 10.5246226 15.0073277 10.546185 12.9496349 10.9453502 12.5905325 11.4739476 12.8305582 11.4847579 13.6446859 11.4092024 15.1506192 12.0472391 14.4397787"></polygon>
                <path d="M11.0240092,15.7777939 C11.0240092,15.7777939 10.8407001,16.6256225 11.6111331,16.5893628 C12.2106364,16.5611539 13.8660561,16.248047 14.5263525,16.1243521 C15.1865908,16.0007195 16.5070673,16.5124747 15.6974036,18.167878 C15.2613325,18.9438112 13.7165725,19.037425 12.1095084,17.8334272 C10.5023861,16.6294919 9.64657544,15.9771288 9.03236784,15.6796867 C8.21660159,15.2846991 6.21850897,14.8940176 5.81818139,17.0575564 C5.6120894,18.5881414 7.15121179,18.8902642 7.15121179,18.8902642 C7.15121179,18.8902642 6.08396217,18.5250457 6.06733997,17.3920072 C6.05594854,16.6138896 6.77122606,15.375442 8.21660159,15.9071057 C9.67354292,16.4430133 9.66773096,16.6428475 11.748179,18.3016833 C13.0438385,19.2380705 15.1492199,20.0005858 16.1458542,18.4354261 C16.7438465,17.3652336 16.3950128,15.8937502 15.0620405,15.7198158 C14.0404729,15.5860105 14.1152146,16.027493 11.8354165,16.3887173 C11.0630074,16.5062962 11.02831,16.1955609 11.0240092,15.7777939" id="Fill-11" fill="#1B2133"></path>
                <g id="Group-15" transform="translate(7.1192, 18.321)">
                    <mask id="mask-3" fill="white">
                        <use xlink:href="#path-2"></use>
                    </mask>
                    <g id="Clip-14"></g>
                    <path d="M2.64463797,0.757086575 L1.30137852,0.0878730202 C0.861297151,-0.131432812 0.338976595,0.0738933655 0.134802553,0.546455619 L0.115623096,0.590953359 L0.661714555,0.852697427 C0.661714555,0.852697427 1.07785066,0.685503255 1.25732389,1.13110475 C1.60644813,1.29561532 1.77267009,1.38804331 1.77267009,1.38804331 L1.74750432,1.44658311 L1.23366922,1.19588547 C1.23366922,1.19588547 0.825786095,1.35209562 0.636665021,0.926777115 C0.25080921,0.733870363 0.130559825,0.666530866 0.0929564643,0.643439473 L0.0817975073,0.66927687 C-0.122376534,1.14183912 0.0688368436,1.70264795 0.508918211,1.92189137 L1.85217766,2.59116733 C2.29220091,2.81041076 2.81452147,2.60508458 3.01869551,2.13252233 L3.07175867,2.00970107 C3.27593271,1.53713882 3.08471934,0.976329998 2.64463797,0.757086575" id="Fill-13" fill="#1B2133" mask="url(#mask-3)"></path>
                </g>
                <path d="M11.0302047,12.5017492 L11.0242184,12.5018741 C10.4226809,12.5018741 10.4772552,13.2572123 10.4772552,13.2572123 L10.4772552,14.5020256 C10.2553547,14.035205 9.12580086,13.3016476 9.12580086,13.3016476 L9.97289356,4.29556717 L9.56152326,4.30680082 L8.69984255,13.6915801 C8.69984255,13.6915801 10.5484516,14.7579656 10.8976921,16.1564304 L10.8976921,13.4298985 L10.8976921,13.4299609 C10.7978427,13.380408 10.7321676,13.2721905 10.7321676,13.1463112 C10.7321676,12.9736874 10.8625298,12.8337036 11.0232885,12.8337036 C11.1840472,12.8337036 11.3144094,12.9736874 11.3144094,13.1463112 C11.3144094,13.272877 11.2450728,13.3815938 11.1443516,13.4307722 L11.1443516,13.4307722 L11.1443516,16.1564304 C11.5847817,14.6006945 13.3001807,13.6921418 13.3001807,13.6921418 C13.3001807,13.6921418 12.6928893,6.79942316 12.4450675,4.29556717 L12.0883296,4.29556717 L12.1874235,5.349034 L12.9354804,13.3016476 C12.9354804,13.3016476 11.8058685,14.035205 11.5840261,14.5020256 L11.5840261,13.2572123 C11.5840261,13.2572123 11.6338346,12.5018741 11.0370628,12.5018741 L11.0302047,12.5017492 Z" id="Fill-16" fill="#EF951E"></path>
                <g id="Group-20">
                    <mask id="mask-5" fill="white">
                        <use xlink:href="#path-4"></use>
                    </mask>
                    <g id="Clip-19"></g>
                    <path d="M1.54596307,6.2824131 C1.54596307,6.2824131 2.71962962,5.87201038 4.7048197,6.20046985 C4.90573904,6.63945597 5.1206652,7.09329547 5.35744432,7.53565169 C5.27909915,7.53009727 5.1999403,7.52510454 5.11944469,7.52092312 C4.4134663,7.52092312 3.78002113,7.58089834 3.21788867,7.67501137 C2.04038623,6.54927472 1.54596307,6.2824131 1.54596307,6.2824131 M3.43961483,3.05267602 C3.43961483,3.05267602 4.62542837,3.10722163 6.32397274,4.10171179 C6.39976065,4.81941728 6.49124085,5.58392964 6.65002351,6.32235497 C6.43015719,6.23385876 6.19948062,6.14829578 5.95607587,6.06653977 C5.60712599,5.96899423 5.27357779,5.892543 4.954327,5.83188128 C3.95275249,3.64612484 3.43961483,3.05267602 3.43961483,3.05267602 M6.75882334,6.78025106 C6.85041978,7.13074098 6.96009141,7.47161987 7.09417325,7.79440011 C6.70378411,7.7010984 6.27491982,7.62602017 5.80426756,7.57540633 C5.56958075,7.14921409 5.35901355,6.70960388 5.16332497,6.28690656 C5.48019285,6.35399642 5.81467096,6.43949698 6.16588751,6.54790171 C6.37366497,6.62304236 6.57074842,6.70074178 6.75882334,6.78025106 M3.64692732,10.2744158 C1.6440689,9.09332222 0.902405093,8.92331963 0.902405093,8.92331963 C0.902405093,8.92331963 1.66034238,8.40263991 3.12483925,8.11362303 C3.20353314,8.19282027 3.28350567,8.27376497 3.36638417,8.35864144 C4.94403984,9.97478937 6.98084009,12.0861541 9.31904842,11.2464387 L9.35595435,10.8536353 C7.18762951,11.7054581 5.31850421,9.78700017 3.88481072,8.33267923 C3.78193908,8.22826868 3.68284522,8.1290381 3.58741289,8.03455061 C4.12554196,7.95585264 4.74149314,7.91129249 5.4354989,7.92995284 C5.48559797,7.9337598 5.53476713,7.93800362 5.58387816,7.94230985 C6.45078963,9.43626062 7.60748527,10.6934934 9.37786543,10.6208491 L9.41128418,10.2652417 C7.853796,10.3224709 6.8204882,9.26881681 6.04482445,7.99186274 C6.50838613,8.05121386 6.92516155,8.13440529 7.29921908,8.23457201 C7.74714659,9.09650509 8.41180197,9.78200744 9.42656962,10.1026658 L9.46045333,9.74225279 C8.71588355,9.47676417 8.18513566,8.99346754 7.80131403,8.3869128 C8.55948379,8.64597327 9.1095855,8.97355902 9.50334557,9.28629138 L9.54286688,8.8659656 C9.05791721,8.51628701 8.40662933,8.16947924 7.54058965,7.91322718 C7.39901038,7.61640915 7.28341056,7.29980742 7.18745516,6.97215927 C8.337932,7.51911325 9.08116503,8.13615274 9.55989591,8.68485419 L9.60435738,8.21154302 C9.04530526,7.63488227 8.23500225,7.02358443 7.06302116,6.49766233 C6.89633424,5.78519922 6.80456344,5.04196839 6.72877553,4.35103644 C7.03407762,4.54824942 7.35245661,4.77417063 7.68158772,5.03572747 C8.63695718,5.86851546 9.26871688,6.65349803 9.68584102,7.34517889 L9.73960162,6.77363569 C9.26540406,6.06859927 8.59354186,5.29940622 7.6417177,4.505936 C7.30915753,4.25536318 6.98572214,4.03618216 6.67356194,3.84327541 C6.4156273,1.53076594 6.12851663,0.814183822 6.12851663,0.814183822 C6.12851663,0.814183822 7.84664729,1.55897488 9.50642591,4.20893075 C9.65596756,4.4725471 9.78941009,4.72717652 9.9088458,4.97313107 L9.97248672,4.29599155 C9.86804586,4.10002675 9.75604945,3.90013017 9.6341146,3.69542808 C7.67966978,0.73816945 5.63769688,-6.24091686e-06 5.63769688,-6.24091686e-06 C5.63769688,-6.24091686e-06 5.98391515,0.836900761 6.2724788,3.60668224 C4.19807519,2.43657267 2.72311679,2.46222284 2.72311679,2.46222284 C2.72311679,2.46222284 3.31802869,3.13411999 4.46920297,5.68128795 C4.48024569,5.70562752 4.49134652,5.73021674 4.50238924,5.75474354 C2.10362032,5.39932331 0.682422529,5.99813932 0.682422529,5.99813932 C0.682422529,5.99813932 1.29540961,6.31954655 2.76885689,7.76032471 C0.937916149,8.15069408 -1.74358703e-05,8.88187994 -1.74358703e-05,8.88187994 C-1.74358703e-05,8.88187994 0.84643595,9.06492605 3.15134177,10.4399249 C4.95833725,11.5177937 7.26917127,12.9151351 9.26453227,11.8259702 L9.30568092,11.3884195 C7.45643252,12.5378717 5.3071709,11.2534285 3.64692732,10.2744158" id="Fill-18" fill="#EF951E" mask="url(#mask-5)"></path>
                </g>
                <g id="Group-23" transform="translate(12.0794, 0)">
                    <mask id="mask-7" fill="white">
                        <use xlink:href="#path-6"></use>
                    </mask>
                    <g id="Clip-22"></g>
                    <path d="M6.70269728,7.67499889 C6.14056482,7.58094826 5.50711965,7.52091064 4.80114126,7.52091064 C4.72064566,7.52509205 4.6414868,7.5301472 4.56314163,7.5356392 C4.79992075,7.09328299 5.01484691,6.63944349 5.21576625,6.20051978 C7.20095633,5.87206031 8.37462288,6.28240061 8.37462288,6.28240061 C8.37462288,6.28240061 7.88019972,6.54926223 6.70269728,7.67499889 M4.11637651,7.57539385 C3.64572425,7.62607009 3.21680184,7.70108592 2.8264127,7.79438763 C2.96049454,7.47160739 3.07022429,7.1307909 3.16176261,6.78023858 C3.34983753,6.7007293 3.54692098,6.62302988 3.75469844,6.54795164 C4.10591499,6.43954691 4.4403931,6.35398393 4.75726098,6.28689407 C4.56163052,6.70965381 4.3510052,7.14920161 4.11637651,7.57539385 M3.59661321,4.10169931 C5.29515758,3.10720915 6.48102924,3.05272594 6.48102924,3.05272594 C6.48102924,3.05272594 5.96789158,3.64617476 4.96625895,5.8318688 C4.64700816,5.89253051 4.31345996,5.96898175 3.9645682,6.06652729 C3.72110533,6.1482833 3.49048688,6.23384628 3.27056244,6.32234248 C3.42940322,5.58391716 3.5208253,4.81940479 3.59661321,4.10169931 M7.15172906,7.76031222 C8.62517634,6.31953407 9.23816342,5.99812683 9.23816342,5.99812683 C9.23816342,5.99812683 7.81696563,5.39931082 5.41819671,5.75473106 C5.42923943,5.73020426 5.44039838,5.70567745 5.45138298,5.68133787 C6.60255726,3.1341075 7.19752728,2.46221035 7.19752728,2.46221035 C7.19752728,2.46221035 5.72251077,2.43656018 3.64810715,3.60666976 C3.93672893,0.836888279 4.28288907,-1.87227517e-05 4.28288907,-1.87227517e-05 C4.28288907,-1.87227517e-05 2.24091618,0.738156968 0.28647135,3.6954156 C0.184645867,3.86641673 0.0896203736,4.03411018 0,4.19899521 L0.0630016115,4.86870804 C0.169069823,4.65526867 0.285715795,4.43540116 0.41416004,4.20898068 C2.07399678,1.55902481 3.79212744,0.81417134 3.79212744,0.81417134 C3.79212744,0.81417134 3.50495866,1.53075346 3.24708213,3.84326293 C2.93486382,4.03616968 2.61142842,4.25535069 2.27892637,4.50592352 C1.36278763,5.26962456 0.705455314,6.01098312 0.234686815,6.69411392 L0.28774998,7.25848007 C0.704815999,6.58814315 1.32338256,5.83380348 2.23899823,5.03571499 C2.56812934,4.77422055 2.88656645,4.54823694 3.19181042,4.35102396 C3.11602251,5.04201831 3.02430983,5.78524915 2.85756479,6.49771226 C1.72382638,7.00647183 0.928866933,7.59505274 0.372023353,8.15498783 L0.416019866,8.62255735 C0.896087496,8.08970784 1.62601115,7.49850575 2.7331308,6.9722092 C2.63717539,7.29979494 2.52157557,7.61639667 2.3799963,7.9132147 C1.54772409,8.1595437 0.913697725,8.48943858 0.435083085,8.82519993 L0.474255673,9.24178116 C0.863598658,8.9427164 1.39702005,8.63372859 2.11927192,8.38696272 C1.74562122,8.9774159 1.23312287,9.45141357 0.519356458,9.72114601 L0.553240166,10.0819958 C1.53424035,9.75359878 2.18238977,9.07933008 2.62142499,8.23455952 C2.9954244,8.1343928 3.41225795,8.05120138 3.87581962,7.99185025 C3.11032679,9.25195385 2.09393179,10.2944991 0.570676036,10.2667894 L0.604036668,10.6217728 C2.3396032,10.6630876 3.47996724,9.41883598 4.33670779,7.94229737 C4.38581883,7.93799114 4.43498798,7.93374731 4.48508705,7.93000276 C5.17909281,7.91128001 5.79504399,7.95590257 6.33317306,8.03453813 C6.23774073,8.12902561 6.13870499,8.2282562 6.03583336,8.33266674 C4.61608855,9.77282081 2.76945553,11.6681874 0.628098169,10.8780248 L0.664887856,11.2686438 C2.97659366,12.0481968 4.99084353,9.96023555 6.55420178,8.35869137 C6.6371384,8.27375249 6.71711093,8.19280779 6.7957467,8.11367296 C8.26024357,8.40262743 9.01823898,8.92330715 9.01823898,8.92330715 C9.01823898,8.92330715 8.27651705,9.09330974 6.27365863,10.2744033 C4.63282699,11.2419951 2.51431062,12.507778 0.679824585,11.4275376 L0.720450162,11.8599708 C2.70104879,12.8849166 4.98166063,11.5062356 6.76924418,10.4399124 C9.07420812,9.06491356 9.92060339,8.88192987 9.92060339,8.88192987 C9.92060339,8.88192987 8.9826698,8.1506816 7.15172906,7.76031222" id="Fill-21" fill="#EF951E" mask="url(#mask-7)"></path>
                </g>
            </g>
        </g>
    </g>
</svg>