<?xml version="1.0" encoding="UTF-8"?>
<svg width="24px" height="24px" viewBox="0 0 24 24" version="1.1" xmlns="http://www.w3.org/2000/svg" xmlns:xlink="http://www.w3.org/1999/xlink">
    <title>Icons/action/translate 3</title>
    <g id="Icons/action/translate-3" stroke="none" stroke-width="1" fill="none" fill-rule="evenodd">
        <rect id="Size" fill="#D8D8D8" opacity="0" x="0" y="0" width="24" height="24"></rect>
        <path d="M16.2959405,11.6347783 L19.8994372,21.001735 L18.2978831,21.001735 L17.393005,18.6599958 L13.589314,18.6599958 L12.6924437,21.001735 L11.0908896,21.001735 L14.6943864,11.6347783 L16.2959405,11.6347783 Z M4.45352188,10.9905175 L6.41225444,13.6943493 L5.20404269,13.7988109 C5.48080515,15.2980803 6.20657201,16.6904156 7.30997935,17.7863378 C8.12478117,18.5956861 9.10278476,19.2017657 10.1747367,19.5714249 L9.84033132,20.5576282 C8.61730822,20.1358725 7.50095524,19.4440564 6.57164994,18.5209709 C5.29230153,17.2503011 4.45837947,15.6303667 4.15540125,13.8898083 L3,13.9891546 L4.45352188,10.9905175 Z M15.4951634,13.7189261 L14.1979046,17.0988363 L16.7924222,17.0988363 L15.4951634,13.7189261 Z M8.26759719,3.19455875 C8.46297648,3.32740495 8.80790337,3.60157946 9.01239411,3.68205901 C9.27343347,3.78496546 9.55832634,3.36056514 9.79256651,3.52552633 C10.2232609,3.82885447 9.58673558,4.14087464 9.61005394,4.43459508 C9.61863023,4.54344213 9.78318519,4.78932507 9.74110878,4.88066298 C9.66714229,5.04203747 9.4307569,5.07632325 9.3691174,5.25337111 C9.2777239,5.5173662 10.0005472,5.74565959 10.125171,5.88439279 C10.2814195,6.05880089 9.96141648,6.28855933 9.92791635,6.46137284 C9.92389579,6.48299128 10.2219207,6.62272054 10.2479148,6.6425568 C10.3990725,6.75794745 10.5411187,6.96454647 10.7212208,7.03602132 C10.9736884,7.13612719 11.2395488,7.02976805 11.4973726,7.06376349 C11.8688334,7.11267744 12.3110497,7.59546542 12.6969827,7.34633971 C12.9210365,7.20174183 12.5986275,6.74750896 12.812495,6.67532392 C13.3201015,6.50392633 13.2187961,7.03745957 13.398363,7.13285763 C13.418196,7.14343012 14.1696892,7.05386993 14.2458055,7.02866926 C14.3232574,7.00294153 14.2640284,6.81882747 14.3144158,6.74494512 C14.4470807,6.54952158 14.6990041,6.23575049 14.9160962,6.11965411 C15.2299335,5.95202635 16.1344644,6.21625369 16.1880673,6.61835219 C16.2044194,6.73947351 15.9851821,6.75944377 15.9034443,6.80574028 C15.6885019,6.92754499 15.3692993,7.21896512 15.2779104,7.44330555 C15.2352942,7.54828005 15.3620632,7.6946065 15.3808259,7.80201531 C15.3990488,7.90884791 15.2921127,8.12400498 15.2422605,8.22008196 C15.1559624,8.38577568 14.8458759,8.23429475 14.7743199,8.49281822 C14.7497528,8.58120816 14.7785188,8.6684467 14.8205363,8.7548159 L14.9103638,8.92647876 C14.9661931,9.04025936 14.9980764,9.15282876 14.9110053,9.26485555 C14.836769,9.36017321 14.6143161,8.96150061 14.5840269,8.88599688 L14.5727735,8.85592428 C14.571612,8.85260741 14.5700929,8.84845792 14.5671442,8.84095548 C14.5631282,8.83064206 14.5591031,8.8204135 14.5548172,8.81022961 C14.5510619,8.80114897 14.545971,8.78787864 14.5392701,8.78060252 C14.4577931,8.69287365 14.0967885,8.9086069 14.0233526,8.71622067 C13.8939032,8.37698538 14.0171914,8.27096123 14.140475,7.98197541 C14.1640586,7.92649106 14.0190667,7.96124583 13.9579578,7.95386697 C13.8376199,7.93931472 13.7151414,7.93973459 13.5990893,7.90288498 C13.3455559,7.82238309 13.2362094,7.37325109 12.9904473,7.65161082 C12.6932228,7.98825548 13.4313188,8.86963565 13.2008339,9.23747964 C13.1315728,9.34819693 13.0259334,9.40633481 12.9115739,9.45170177 L12.6794233,9.5372029 C12.6036276,9.56789071 12.5321513,9.60469766 12.4731896,9.65941885 C12.3633079,9.76119971 12.4399547,9.89765941 12.3330187,10.0103031 C12.229838,10.1188911 12.0829662,10.1689574 11.9781753,10.2784298 C11.5533815,10.7223001 11.1644982,11.195065 10.7343436,11.6289614 C10.4875066,11.8779307 10.1002334,11.8619938 9.89225729,12.1775426 C9.81158528,12.2999727 10.0294779,12.7075428 10.0192916,12.8947209 C10.0088399,13.0902472 9.86572339,13.2890207 9.84052969,13.4908047 C9.8247173,13.6177103 9.92575741,13.8258816 9.87483484,13.9348314 C9.76869927,14.1613471 9.40313897,14.3230342 9.2233022,14.4885716 C9.07348473,14.6264159 8.97593002,14.9460785 8.70818972,14.9017964 C8.21692619,14.820428 8.27347938,14.001518 8.12527196,13.6555069 C8.0478155,13.4750554 7.88111532,13.3336735 7.79106657,13.153432 C7.65277106,12.8758807 7.68145017,12.5556464 7.5605771,12.2755849 C7.41397517,11.9361397 7.17732449,11.6614426 7.09960273,11.2942284 C6.97337348,10.6962061 7.15990662,10.2316866 7.07172865,9.68336887 C7.06770808,9.6580878 7.01946589,9.49260401 6.97872966,9.48763267 C6.83293276,9.46985999 6.65711655,9.73623578 6.53276265,9.79064814 C6.33952858,9.87512978 5.90455294,9.58341932 5.76625743,9.48451943 C5.52102589,9.30898575 5.51218431,9.24798066 5.69068089,9.00780159 C5.74347881,8.93690294 5.42293602,8.72627503 5.38675551,8.68733057 C5.38273495,8.68295775 5.39854734,8.65136982 5.39881721,8.65115989 C5.45375577,8.5420225 5.7437441,8.39360567 5.8581861,8.33005907 C5.99675148,8.25311708 6.25109446,8.40153392 6.41699419,8.35471481 C6.52634073,8.21187232 6.22107517,7.67168828 6.07018738,7.46445946 C6.00157707,7.37000833 5.83085632,7.28505322 5.85685506,7.14445744 C5.92635387,6.76796831 6.14331864,6.76451648 6.37576463,6.79958739 L6.53157375,6.82500411 C6.66091195,6.84482238 6.78597586,6.85358699 6.88413434,6.79393947 C7.27408789,6.5568513 7.3065177,6.06911878 7.53405693,5.74202376 C7.6332217,5.59944033 7.94464846,5.39880871 7.9912806,5.2356297 C8.04515342,5.04695969 7.6948612,4.87535216 7.6356322,4.7111503 C7.51475914,4.37455925 7.63000616,3.94992219 7.58229912,3.80330987 C7.52146008,3.61529198 7.29392085,3.55245558 7.31348393,3.32709229 C7.34564845,2.95849344 8.05157992,3.0476829 8.26759719,3.19455875 Z M14.3899066,3 C15.5974656,3.46418157 16.6889945,4.19453647 17.5855185,5.14949193 C18.9120114,6.5623105 19.7102226,8.36036521 19.8839564,10.2562748 L21.0007086,10.2189919 L19.3915697,13.1377415 L17.5776107,10.3355506 L18.8337398,10.2916597 C18.6722906,8.644296 17.9743479,7.08525019 16.8220005,5.85791021 C16.0359409,5.02061868 15.079685,4.38077652 14.0212869,3.97393192 L14.3899066,3 Z" id="Combined-Shape" fill-opacity="0.6" fill="#000000"></path>
    </g>
</svg>