<?xml version="1.0" encoding="UTF-8"?>
<svg width="320px" height="190px" viewBox="0 0 320 190" version="1.1" xmlns="http://www.w3.org/2000/svg" xmlns:xlink="http://www.w3.org/1999/xlink">
    <title>Group 29</title>
    <g id="CBP-Creation-V2--(Latest-Version)" stroke="none" stroke-width="1" fill="none" fill-rule="evenodd">
        <g id="ACBP-creation-screen-1" transform="translate(-666, -374)">
            <g id="Group-29" transform="translate(666, 375)">
                <path d="M67.7124591,165.875533 L201.665367,165.875533 C202.423452,165.875533 203.162401,165.793147 203.873382,165.638675 C204.584363,165.793147 205.323312,165.875533 206.081397,165.875533 L282.625916,165.875533 C288.316707,165.875533 292.929986,161.264892 292.929986,155.577355 C292.929986,149.889819 288.316707,145.279177 282.625916,145.279177 L273.793856,145.279177 C268.103066,145.279177 263.489786,140.668536 263.489786,134.981 C263.489786,129.293463 268.103066,124.682822 273.793856,124.682822 L301.762046,124.682822 C307.452836,124.682822 312.066116,120.072181 312.066116,114.384644 C312.066116,108.697108 307.452836,104.086466 301.762046,104.086466 L269.377826,104.086466 C275.068617,104.086466 279.681896,99.4758251 279.681896,93.7882886 C279.681896,88.1007522 275.068617,83.4901109 269.377826,83.4901109 L175.169188,83.4901109 C180.859978,83.4901109 185.473257,78.8794696 185.473257,73.1919331 C185.473257,67.5043967 180.859978,62.8937554 175.169188,62.8937554 L91.2646187,62.8937554 C85.5738282,62.8937554 80.9605489,67.5043967 80.9605489,73.1919331 C80.9605489,78.8794696 85.5738282,83.4901109 91.2646187,83.4901109 L32.3842196,83.4901109 C26.693429,83.4901109 22.0801497,88.1007522 22.0801497,93.7882886 C22.0801497,99.4758251 26.693429,104.086466 32.3842196,104.086466 L69.184469,104.086466 C74.8752596,104.086466 79.4885389,108.697108 79.4885389,114.384644 C79.4885389,120.072181 74.8752596,124.682822 69.184469,124.682822 L10.3040699,124.682822 C4.61327928,124.682822 0,129.293463 0,134.981 C0,140.668536 4.61327928,145.279177 10.3040699,145.279177 L67.7124591,145.279177 C62.0216685,145.279177 57.4083892,149.889819 57.4083892,155.577355 C57.4083892,161.264892 62.0216685,165.875533 67.7124591,165.875533 Z M309.421488,165.875533 C315.263849,165.875533 320,161.14667 320,155.313299 C320,149.479929 315.263849,144.751066 309.421488,144.751066 C303.579126,144.751066 298.842975,149.479929 298.842975,155.313299 C298.842975,161.14667 303.579126,165.875533 309.421488,165.875533 Z" id="Shape" fill="#DDE8FB"></path>
                <g id="Group-25-Copy" transform="translate(159.3211, 76.5609) rotate(-15) translate(-159.3211, -76.5609)translate(109.0731, 10.7483)" fill-rule="nonzero">
                    <path d="M26.2405877,15.4406825 L3.9916583,15.4406825 C1.78841914,15.4438184 0.00311808297,17.239339 0,19.45519 L0,127.610744 C0.00311679319,129.826596 1.7884186,131.622117 3.9916583,131.625252 L96.5042095,131.625252 C98.7074492,131.622117 100.492751,129.826596 100.495868,127.610744 L100.495868,19.45519 C100.49275,17.239339 98.7074486,15.4438184 96.5042095,15.4406825 L73.6969697,15.4406825" id="Path" stroke="#7FAEFF" stroke-width="3"></path>
                    <path d="M70.0216955,26.6391365 L29.0692366,26.6391365 C27.9634659,26.6379454 27.0673721,25.7805811 27.0661272,24.7226022 L27.0661272,15.3528789 C27.0673733,14.2949005 27.9634664,13.4375369 29.0692366,13.4363446 L70.0216955,13.4363446 C71.1274656,13.4375369 72.0235587,14.2949005 72.0248049,15.3528789 L72.0248049,24.7226022 C72.0235599,25.7805811 71.1274661,26.6379454 70.0216955,26.6391365 Z" id="Path" stroke="#7FAEFF" stroke-width="3"></path>
                    <ellipse id="Oval" fill="#7FAEFF" cx="50.413352" cy="6.60139599" rx="6.61157025" ry="6.60139599"></ellipse>
                </g>
                <g id="Group-25" transform="translate(137.5207, 33.3701)" fill-rule="nonzero">
                    <path d="M30.3838384,19.1300028 L4.62192014,19.1300028 C2.07080111,19.1336331 0.00361041186,21.2121999 0,23.7773582 L0,148.982579 C0.00360891843,151.547738 2.07080049,153.626306 4.62192014,153.629935 L111.741716,153.629935 C114.292836,153.626306 116.360027,151.547738 116.363636,148.982579 L116.363636,23.7773582 C116.360026,21.2121999 114.292835,19.1336331 111.741716,19.1300028 L85.3333333,19.1300028" id="Path" stroke="#000000" stroke-width="3" fill="#FFFFFF"></path>
                    <path d="M82.5319289,31.9395202 L33.8317075,31.9395202 C32.516737,31.9380756 31.4511119,30.8982934 31.4496314,29.6152126 L31.4496314,18.2519311 C31.4511134,16.9688509 32.5167376,15.9290695 33.8317075,15.9276235 L82.5319289,15.9276235 C83.8468988,15.9290695 84.912523,16.9688509 84.9140049,18.2519311 L84.9140049,29.6152126 C84.9125244,30.8982934 83.8468994,31.9380756 82.5319289,31.9395202 Z" id="Path" stroke="#000000" stroke-width="3" fill="#FFFFFF"></path>
                    <ellipse id="Oval" fill="#000000" cx="58.1818182" cy="7.92167519" rx="7.77964567" ry="7.92167519"></ellipse>
                </g>
                <path d="M159.715682,69.4951514 C159.715682,124.912076 201.876407,169.83637 253.884298,169.83637 L253.884298,181.710744 C253.884298,184.631919 251.516217,187 248.595041,187 L142.809917,187 C139.888742,187 137.520661,184.631919 137.520661,181.710744 L137.520661,57.9116202 C137.520661,54.9904447 139.888742,52.622364 142.809917,52.622364 L161.041535,52.6209118 C160.169668,58.1070249 159.715682,63.7445958 159.715682,69.4951514 Z" id="Combined-Shape" fill="#7FAEFF" opacity="0.148094541"></path>
            </g>
        </g>
    </g>
</svg>