<?xml version="1.0" encoding="UTF-8"?>
<svg width="167px" height="88px" viewBox="0 0 167 88" version="1.1" xmlns="http://www.w3.org/2000/svg" xmlns:xlink="http://www.w3.org/1999/xlink">
    <title>EmptyState@2x</title>
    <g id="Mobile" stroke="none" stroke-width="1" fill="none" fill-rule="evenodd">
        <g id="Mobile-empty-state" transform="translate(-123, -390)">
            <g id="Group-10" transform="translate(72, 391)">
                <g id="EmptyState" transform="translate(51, 0)">
                    <path d="M160,0 C163.866,0 167,3.134 167,7 C167,10.866 163.866,14 160,14 L120,14 C123.866,14 127,17.134 127,21 C127,24.866 123.866,28 120,28 L142,28 C145.866,28 149,31.134 149,35 C149,38.866 145.866,42 142,42 L131.826,42 C126.952,42 123,45.134 123,49 C123,51.577 125,53.911 129,56 C132.866,56 136,59.134 136,63 C136,66.866 132.866,70 129,70 L46,70 C42.134,70 39,66.866 39,63 C39,59.134 42.134,56 46,56 L7,56 C3.134,56 0,52.866 0,49 C0,45.134 3.134,42 7,42 L47,42 C50.866,42 54,38.866 54,35 C54,31.134 50.866,28 47,28 L22,28 C18.134,28 15,24.866 15,21 C15,17.134 18.134,14 22,14 L62,14 C58.134,14 55,10.866 55,7 C55,3.134 58.134,0 62,0 L160,0 Z M160,28 C163.866,28 167,31.134 167,35 C167,38.866 163.866,42 160,42 C156.134,42 153,38.866 153,35 C153,31.134 156.134,28 160,28 Z" id="Shape" fill="#F3F7FF"></path>
                    <path d="M73.5,68 C92.002,68 107,53.002 107,34.5 C107,15.9985 92.002,1 73.5,1 C54.998,1 40,15.9985 40,34.5 C40,53.002 54.998,68 73.5,68 Z" id="Path" stroke="#1F64E7" stroke-width="2.5" fill="#F3F7FF" fill-rule="nonzero"></path>
                    <path d="M68.132,60.494 C69.891,60.819 71.68,60.987 73.5,61 C88.136,61 100,49.136 100,34.5 C100,19.8645 88.136,8 73.5,8 C69.74,8 66.164,8.7829 62.924,10.1946 C57.294,12.6479 52.6816,16.9999 49.896,22.4419 C48.0445,26.0589 47,30.1575 47,34.5 C47,38.44 47.8599,42.179 49.4021,45.54 C50.5032,47.94 51.9521,50.146 53.684,52.096" id="Path" fill="#FFFFFF"></path>
                    <path d="M68.132,60.494 C69.891,60.819 71.68,60.987 73.5,61 C88.136,61 100,49.136 100,34.5 C100,19.8645 88.136,8 73.5,8 C69.74,8 66.164,8.7829 62.924,10.1946 C57.294,12.6479 52.6816,16.9999 49.896,22.4419 C48.0445,26.0589 47,30.1575 47,34.5 C47,38.44 47.8599,42.179 49.4021,45.54 C50.5032,47.94 51.9521,50.146 53.684,52.096" id="Path" stroke="#1F64E7" stroke-width="2.5" stroke-linecap="round"></path>
                    <path d="M56.797,55.075 C58.946,56.821 61.372,58.237 64.001,59.247" id="Path" stroke="#1F64E7" stroke-width="2.5" stroke-linecap="round"></path>
                    <line x1="101" y1="61" x2="107" y2="67" id="Path" stroke="#1F64E7" stroke-width="2.5"></line>
                    <path d="M106.03,66.03 C104.138,67.923 104.138,70.992 106.03,72.884 L117.116,83.97 C119.008,85.862 122.077,85.862 123.97,83.97 C125.862,82.077 125.862,79.008 123.97,77.116 L112.884,66.03 C110.992,64.138 107.923,64.138 106.03,66.03 Z" id="Path" stroke="#1F64E7" stroke-width="2.5" fill="#E8F0FE"></path>
                    <line x1="111" y1="68" x2="122" y2="79" id="Path" stroke="#FFFFFF" stroke-width="2.5" stroke-linecap="round"></line>
                    <path d="M67,23 C67,34.598 76.402,44 88,44 C90.278,44 92.472,43.637 94.526,42.966 C91.173,51.287 83.023,57.161 73.5,57.161 C60.985,57.161 50.8394,47.015 50.8394,34.5 C50.8394,23.1596 59.17,13.7648 70.045,12.1011 C68.113,15.2793 67,19.0097 67,23 Z" id="Path" fill="#E8F0FE"></path>
                    <path d="M74,16 C72.727,16 71.482,16.1253 70.279,16.3642 M66.645,17.4761 C59.804,20.3508 55,27.1144 55,35" id="Shape" stroke="#75A4FE" stroke-width="2.5" stroke-linecap="round"></path>
                    <path d="M127.176,34.7773 L119,34.7773 M133.5,27 L116.324,27 L133.5,27 Z M140.5,27 L138.279,27 L140.5,27 Z" id="Shape" stroke="#75A4FE" stroke-width="2.5" stroke-linecap="round" stroke-linejoin="round"></path>
                    <path d="M37.1758,56.777 L29,56.777 M32.5,48 L15.3242,48 L32.5,48 Z M9.5,48 L5.2788,48 L9.5,48 Z" id="Shape" stroke="#75A4FE" stroke-width="2.5" stroke-linecap="round" stroke-linejoin="round"></path>
                </g>
            </g>
        </g>
    </g>
</svg>