<?xml version="1.0" encoding="UTF-8"?>
<svg width="137px" height="49px" viewBox="0 0 137 49" version="1.1" xmlns="http://www.w3.org/2000/svg" xmlns:xlink="http://www.w3.org/1999/xlink">
    <title>Graphic_InProgress@2x</title>
    <g id="CBP-request-content-" stroke="none" stroke-width="1" fill="none" fill-rule="evenodd">
        <g id="ACBP-Creation---Create-Plan-2-Copy" transform="translate(-450, -418)">
            <g id="Group-9" transform="translate(420, 418)">
                <g id="Graphic_InProgress" transform="translate(30, 0)">
                    <path d="M29.0754717,44 L86.5943396,44 C86.9198585,44 87.2371604,43.9648 87.5424528,43.8988 C87.8477453,43.9648 88.1650472,44 88.490566,44 L121.358491,44 C123.802094,44 125.783019,42.0300571 125.783019,39.6 C125.783019,37.1699429 123.802094,35.2 121.358491,35.2 L117.566038,35.2 C115.122434,35.2 113.141509,33.2300571 113.141509,30.8 C113.141509,28.3699429 115.122434,26.4 117.566038,26.4 L129.575472,26.4 C132.019075,26.4 134,24.4300571 134,22 C134,19.5699429 132.019075,17.6 129.575472,17.6 L115.669811,17.6 C118.113415,17.6 120.09434,15.6300571 120.09434,13.2 C120.09434,10.7699429 118.113415,8.8 115.669811,8.8 L75.2169811,8.8 C77.6605849,8.8 79.6415094,6.83005714 79.6415094,4.4 C79.6415094,1.96994286 77.6605849,0 75.2169811,0 L39.1886792,0 C36.7450755,0 34.7641509,1.96994286 34.7641509,4.4 C34.7641509,6.83005714 36.7450755,8.8 39.1886792,8.8 L13.9056604,8.8 C11.4620566,8.8 9.48113208,10.7699429 9.48113208,13.2 C9.48113208,15.6300571 11.4620566,17.6 13.9056604,17.6 L29.7075472,17.6 C32.1511509,17.6 34.1320755,19.5699429 34.1320755,22 C34.1320755,24.4300571 32.1511509,26.4 29.7075472,26.4 L4.4245283,26.4 C1.98092453,26.4 0,28.3699429 0,30.8 C0,33.2300571 1.98092453,35.2 4.4245283,35.2 L29.0754717,35.2 C26.6318679,35.2 24.6509434,37.1699429 24.6509434,39.6 C24.6509434,42.0300571 26.6318679,44 29.0754717,44 Z M132.5,44 C134.985286,44 137,41.9852857 137,39.5 C137,37.0147143 134.985286,35 132.5,35 C130.014714,35 128,37.0147143 128,39.5 C128,41.9852857 130.014714,44 132.5,44 Z" id="Shape" fill="#DDE8FB"></path>
                    <rect id="Rectangle" fill="#FFFFFF" x="38.6544118" y="4.81967213" width="53.3602941" height="42.3770492"></rect>
                    <path d="M82.0661765,37.2786885 C85.5256618,37.2786885 88.8657616,36.7691047 92.0150713,35.8211225 L92.0147059,47.1967213 L38.6544118,47.1967213 L38.6544118,4.81967213 L47.7453177,4.81976135 C48.685974,22.9040164 63.6922212,37.2786885 82.0661765,37.2786885 Z" id="Combined-Shape" fill="#7FAEFF" opacity="0.148094541"></path>
                    <g id="video" transform="translate(36.8456, 3.0164)" fill="#1B4CA1">
                        <path d="M53.7614445,0 L3.21649668,0 C1.44088818,0.00196403217 0.00196259475,1.4419435 0,3.21885246 L0,42.7647541 C0.00196259475,44.5416631 1.44088818,45.9816425 3.21649668,45.9836066 L53.7614445,45.9836066 C55.537053,45.9816425 56.9759786,44.5416631 56.9779412,42.7647541 L56.9779412,3.21885246 C56.9759786,1.4419435 55.537053,0.00196403217 53.7614445,0 L53.7614445,0 Z M55.1399431,42.7647541 C55.1393096,43.5263727 54.5225057,44.1436284 53.7614445,44.1442623 L3.21649668,44.1442623 C2.45543547,44.1436284 1.83863153,43.5263727 1.8379981,42.7647541 L1.8379981,38.6262295 L55.1399431,38.6262295 L55.1399431,42.7647541 Z M55.1399431,36.7868852 L1.8379981,36.7868852 L1.8379981,7.35737705 L55.1399431,7.35737705 L55.1399431,36.7868852 Z M55.1399431,5.51803279 L1.8379981,5.51803279 L1.8379981,3.21885246 C1.83863153,2.45723384 2.45543547,1.83997815 3.21649668,1.83934426 L53.7614445,1.83934426 C54.5225057,1.83997815 55.1393096,2.45723384 55.1399431,3.21885246 L55.1399431,5.51803279 Z" id="Shape"></path>
                        <path d="M3.79852941,4.52297769 L4.55823529,4.52297769 C4.97780927,4.52297769 5.31794118,4.18547668 5.31794118,3.76914808 C5.31794118,3.35281948 4.97780927,3.01531846 4.55823529,3.01531846 L3.79852941,3.01531846 C3.37895544,3.01531846 3.03882353,3.35281948 3.03882353,3.76914808 C3.03882353,4.18547668 3.37895544,4.52297769 3.79852941,4.52297769 Z" id="Path"></path>
                        <path d="M6.83735294,4.52297769 L7.59705882,4.52297769 C8.0166328,4.52297769 8.35676471,4.18547668 8.35676471,3.76914808 C8.35676471,3.35281948 8.0166328,3.01531846 7.59705882,3.01531846 L6.83735294,3.01531846 C6.41777897,3.01531846 6.07764706,3.35281948 6.07764706,3.76914808 C6.07764706,4.18547668 6.41777897,4.52297769 6.83735294,4.52297769 Z" id="Path"></path>
                        <path d="M10.6358824,4.52297769 L11.3955882,4.52297769 C11.8151622,4.52297769 12.1552941,4.18547668 12.1552941,3.76914808 C12.1552941,3.35281948 11.8151622,3.01531846 11.3955882,3.01531846 L10.6358824,3.01531846 C10.2163084,3.01531846 9.87617647,3.35281948 9.87617647,3.76914808 C9.87617647,4.18547668 10.2163084,4.52297769 10.6358824,4.52297769 Z" id="Path"></path>
                        <path d="M49.966489,40.8952567 L12.6142831,40.8952567 C12.6142831,40.3748459 12.1962043,39.9529696 11.6804779,39.9529696 C11.1647516,39.9529696 10.7466728,40.3748459 10.7466728,40.8952567 L7.01145221,40.8952567 C6.49572586,40.8952567 6.07764706,41.3171329 6.07764706,41.8375437 C6.07764706,42.3579544 6.49572586,42.7798307 7.01145221,42.7798307 L10.7466728,42.7798307 C10.7466728,43.3002414 11.1647516,43.7221177 11.6804779,43.7221177 C12.1962043,43.7221177 12.6142831,43.3002414 12.6142831,42.7798307 L49.966489,42.7798307 C50.4822153,42.7798307 50.9002941,42.3579544 50.9002941,41.8375437 C50.9002941,41.3171329 50.4822153,40.8952567 49.966489,40.8952567 Z" id="Path"></path>
                    </g>
                </g>
            </g>
        </g>
    </g>
</svg>