<?xml version="1.0" encoding="UTF-8"?>
<svg width="20px" height="20px" viewBox="0 0 20 20" version="1.1" xmlns="http://www.w3.org/2000/svg" xmlns:xlink="http://www.w3.org/1999/xlink">
    <title>Certificate_icon</title>
    <g id="UI-Elements-for-Dev." stroke="none" stroke-width="1" fill="none" fill-rule="evenodd">
        <g id="UI-Elements" transform="translate(-684, -54)">
            <g id="Certificate_icon" transform="translate(684, 54)">
                <rect id="Size" fill="#D8D8D8" opacity="0" x="0" y="0" width="20" height="20"></rect>
                <path d="M13.125,7.5 C13.5042763,7.5 13.7394737,8.20384498 14.0694079,8.33984104 C14.4111842,8.4807408 15.0773026,8.1538272 15.3348684,8.40980055 C15.5924342,8.6657739 15.2634868,9.32777394 15.4049342,9.66711025 C15.5417763,9.99500459 16.25,10.2287478 16.25,10.6056792 C16.25,10.9826106 15.5417763,11.2163538 15.4049342,11.5442481 C15.2631579,11.8839114 15.5921053,12.5459114 15.3345395,12.8018848 C15.1437152,12.9915292 14.7286375,12.8612288 14.3874827,12.8381331 L14.3887695,17.2167535 C14.3894325,17.3147442 14.3391499,17.4060283 14.2560239,17.4577062 C14.1728979,17.5093841 14.068911,17.5140064 13.9815412,17.4699071 L13.2513749,17.101428 C13.1717098,17.0620578 13.0782902,17.0620578 12.9986251,17.101428 L12.2684588,17.4699071 C12.181089,17.5140064 12.0771021,17.5093841 11.9939761,17.4577062 C11.9108501,17.4060283 11.8605675,17.3147442 11.8612305,17.2167535 L11.8623221,12.8379391 C11.5210335,12.8609019 11.1059559,12.9912023 10.9151316,12.8015578 C10.6575658,12.5455845 10.9865132,11.8835845 10.8450658,11.5442481 C10.7082237,11.2163538 10,10.9826106 10,10.6056792 C10,10.2287478 10.7082237,9.99500459 10.8450658,9.66711025 C10.9868421,9.32744702 10.6578947,8.66544698 10.9154605,8.40947363 C11.1730263,8.15350029 11.8391447,8.48041389 12.1805921,8.33984104 C12.5095395,8.20384498 12.7457237,7.5 13.125,7.5 Z M17.125,2.5 C17.6772847,2.5 18.125,2.94771525 18.125,3.5 L18.125,12.125 C18.125,12.6772847 17.6772847,13.125 17.125,13.125 L16.093,13.124 L16.093,11.796 L16.7708333,11.796875 L16.7708333,3.828125 L3.22916667,3.828125 L3.22916667,11.796875 L10,11.796 L10,13.124 L2.875,13.125 C2.32271525,13.125 1.875,12.6772847 1.875,12.125 L1.875,3.5 C1.875,2.94771525 2.32271525,2.5 2.875,2.5 L17.125,2.5 Z M13.125,9.375 C12.4346441,9.375 11.875,9.93464406 11.875,10.625 C11.875,11.3153559 12.4346441,11.875 13.125,11.875 C13.8153559,11.875 14.375,11.3153559 14.375,10.625 C14.375,9.93464406 13.8153559,9.375 13.125,9.375 Z M6.0625,9.5 C6.33864237,9.5 6.5625,9.72385763 6.5625,10 C6.5625,10.2761424 6.33864237,10.5 6.0625,10.5 L4.875,10.5 C4.59885763,10.5 4.375,10.2761424 4.375,10 C4.375,9.72385763 4.59885763,9.5 4.875,9.5 L6.0625,9.5 Z M8.25,7.25 C8.52614237,7.25 8.75,7.47385763 8.75,7.75 C8.75,8.02614237 8.52614237,8.25 8.25,8.25 L4.875,8.25 C4.59885763,8.25 4.375,8.02614237 4.375,7.75 C4.375,7.47385763 4.59885763,7.25 4.875,7.25 L8.25,7.25 Z M10.75,5 C11.0261424,5 11.25,5.22385763 11.25,5.5 C11.25,5.77614237 11.0261424,6 10.75,6 L4.875,6 C4.59885763,6 4.375,5.77614237 4.375,5.5 C4.375,5.22385763 4.59885763,5 4.875,5 L10.75,5 Z" id="Combined-Shape" fill="#F3962F"></path>
            </g>
        </g>
    </g>
</svg>