<?xml version="1.0" encoding="UTF-8"?>
<svg width="28px" height="26px" viewBox="0 0 28 26" version="1.1" xmlns="http://www.w3.org/2000/svg" xmlns:xlink="http://www.w3.org/1999/xlink">
    <title>Clap Disable_icon</title>
    <g id="UI-Elements-for-Dev" stroke="none" stroke-width="1" fill="none" fill-rule="evenodd">
        <g id="UI-Elements" transform="translate(-580, -297)">
            <g id="Clap-Disable_icon" transform="translate(594, 310) scale(-1, 1) translate(-594, -310)translate(580, 297)">
                <path d="M11.1827733,16.4701155 C10.9607938,16.6845825 10.7341594,16.4351602 10.7341594,16.4351602 C10.7341594,16.4351602 6.92544636,12.4629142 6.6803208,12.2880947 C6.33342971,12.0386724 5.59344092,11.6516675 4.86498243,12.4256343 C4.56203458,12.7473348 4.06717135,13.4606464 5.01299727,14.5889014 C5.21648565,14.8313498 11.1480971,20.9855029 11.4926394,21.3165018 C11.4926394,21.3165018 14.2306577,23.9390521 15.877184,24.9181013 C16.3350648,25.1908558 16.8484193,25.477558 17.4473968,25.6757097 C18.0440256,25.8738614 18.7169678,26.0067518 19.4245864,25.9997349 C20.1322049,25.9997349 20.8652755,25.8528969 21.5567089,25.5894408 C22.2481851,25.3237031 22.8910631,24.9390659 23.4738128,24.4985088 C23.6171729,24.386583 23.7605756,24.2723757 23.8969747,24.153476 L24.2878091,23.8201524 C24.5606927,23.5846778 24.8127365,23.3399478 25.055556,23.0858332 C25.543501,22.5822963 25.9828907,22.0484965 26.3690702,21.5006628 C26.7529437,20.9505045 27.0790375,20.3817494 27.3356934,19.8176004 C27.5923919,19.2534514 27.772777,18.6870208 27.8768486,18.1508533 C27.9878384,17.6170103 28.0155965,17.1135165 27.9924505,16.6775656 C27.9832263,16.2393331 27.8930337,15.8640374 27.8167203,15.565626 C27.7311398,15.2672577 27.6432534,15.0434492 27.5715947,14.8966112 C27.5021994,14.7497301 27.465217,14.670478 27.465217,14.670478 C27.3680636,14.407065 27.2779138,14.1553181 27.1923334,13.929185 C26.9610869,13.2904762 26.6951214,12.5724723 26.4176256,11.8358284 C26.2997176,11.5234694 26.2465074,11.3812806 26.2465074,11.3812806 L26.2488135,11.3859298 C25.2313289,8.69816133 24.1374882,5.92644847 24.1374882,5.92644847 C23.9709821,5.43922693 23.3790082,5.27374897 22.9442306,5.59540645 C21.6978056,6.52090352 21.3277685,7.85428398 21.7879554,9.26695954 L22.9627218,12.3953282 C23.1269218,12.7449671 22.6898381,13.1552612 22.389239,12.9151374 C21.4457192,12.1598536 19.4453836,10.0688647 19.4453836,10.0688647 C18.5527678,9.22498738 13.5114661,4.13615253 13.1715359,3.82611812 C12.4939815,3.20368162 11.6429603,2.88899798 11.0023883,3.37621952 C10.350286,3.8704149 10.174513,4.6280233 10.8196971,5.4439192 C10.9954701,5.66536006 16.0922453,10.9686619 16.0922453,10.9686619 C16.3905811,11.2763717 16.0483021,11.7169719 15.722251,11.4208851 C15.722251,11.4208851 9.38131404,4.90775166 9.09459401,4.60236647 C8.44475505,3.9100194 7.41339141,3.76783061 6.80980176,4.35061955 C6.22013387,4.92174238 6.24554323,5.84719641 6.90460642,6.56515725 C7.11505568,6.79361499 11.5805259,11.4372005 13.3704122,13.3394222 C13.4906689,13.4676203 13.5831675,13.6377905 13.4120494,13.8033115 C13.4097433,13.8056361 13.2362764,14.0014632 13.0050299,13.7566901 C12.5193909,13.2461794 7.66543515,8.26690268 7.39485753,7.99647277 C6.77512546,7.37872855 5.94955626,7.09202635 5.29741124,7.70977057 C4.70078247,8.27387652 4.61524476,9.24362732 5.31590242,9.92198366 L11.1966524,16.043506 C11.2012645,16.0458737 11.3909165,16.2696392 11.1827733,16.4701155" id="Fill-1" fill="#B1B1B1"></path>
                <path d="M8.96883683,15.0293084 C8.8480799,15.3136651 8.53924062,15.1714652 8.53924062,15.1714652 C8.53924062,15.1714652 3.47696947,13.0063601 3.18206698,12.9411135 C2.76409191,12.8478916 1.93045742,12.7826019 1.55656549,13.78011 C1.40098803,14.1949601 1.21985263,15.0456201 2.53188354,15.7145276 C2.81516489,15.8590086 10.684906,19.198769 11.1330703,19.3712251 C11.1330703,19.3712251 14.6812914,20.7136454 16.585443,20.9676598 C17.1148695,21.0375977 17.7024017,21.1028444 18.3317014,21.0492612 C18.9610011,20.9979591 19.6343839,20.8581263 20.2846102,20.5714885 C20.939425,20.2941471 21.5594621,19.8699576 22.0958784,19.3572375 C22.6322948,18.8421503 23.0781434,18.2362084 23.4450455,17.6022913 C23.5355703,17.4438228 23.6238224,17.2829872 23.7027689,17.1198705 L23.9373358,16.6607336 C24.0975446,16.3367812 24.2368696,16.0105048 24.3646164,15.6842284 C24.6223398,15.0293084 24.8197277,14.3650921 24.9660425,13.707848 C25.1076832,13.050647 25.1889454,12.4003752 25.2075135,11.7781216 C25.2261245,11.155868 25.172693,10.5638706 25.0635572,10.0301907 C24.9613683,9.49414359 24.7895384,9.0210191 24.5991404,8.62717191 C24.4203207,8.22630941 24.190428,7.91866875 24.0069769,7.67162658 C23.8119476,7.43155669 23.644749,7.2591006 23.5216764,7.15189118 C23.4009195,7.04468177 23.3359097,6.98640736 23.3359097,6.98640736 C23.1454688,6.78132793 22.9620178,6.58554486 22.7971348,6.41076468 C22.3350338,5.91198913 21.8102385,5.3573063 21.2691909,4.78867893 C21.0392982,4.54628494 20.9347937,4.43907553 20.9347937,4.43907553 L20.939425,4.44372371 C18.9540112,2.36714923 16.8687243,0.244006872 16.8687243,0.244006872 C16.5273802,-0.140543958 15.9143329,-0.0589856117 15.6379985,0.407123564 C14.8438587,1.74954381 15.0180043,3.11993922 15.9909638,4.24096837 L18.289891,6.66245503 C18.5778465,6.91883659 18.3317014,7.46882821 17.9601251,7.36631001 C16.7944519,7.04003359 14.1355696,5.89804459 14.1355696,5.89804459 C12.9814747,5.47153102 6.34481791,2.76103946 5.91059039,2.60721913 C5.04209249,2.29957846 4.13414274,2.34386529 3.73010447,3.04302905 C3.31907635,3.75389934 3.44913877,4.52063387 4.36403547,5.01940943 C4.61249628,5.15455096 11.3815311,8.03982271 11.3815311,8.03982271 C11.7763068,8.20530653 11.6299919,8.74600178 11.2143325,8.60152084 C11.2143325,8.60152084 2.82447037,5.08930428 2.44131584,4.91917228 C1.57281793,4.53462145 0.562722236,4.80963878 0.230640678,5.58338862 C-0.0921353914,6.34082679 0.291019143,7.18451452 1.17808514,7.58537702 C1.45905084,7.71354628 7.39209267,10.2399183 9.78390323,11.2886854 C9.944112,11.3586233 10.0950582,11.4798203 10.0021748,11.7012114 C10.0021748,11.7035355 9.9162813,11.9529018 9.60744202,11.8177602 C8.95953135,11.5380947 2.54114614,8.85321119 2.18586519,8.71105435 C1.37311445,8.38477793 0.500028119,8.44537642 0.133126027,9.26806127 C-0.201271182,10.0208513 0.0959469576,10.9484214 1.00625524,11.2980248 L8.81789067,14.63077 C8.81789067,14.63077 9.08260393,14.7636305 8.96883683,15.0293084" id="Fill-3" fill="#B1B1B1"></path>
                <path d="M22.6624181,11.5378589 C22.9239129,12.1467971 23.3404499,12.5883503 22.7179735,13.0415776 C21.8709679,13.6574687 20.1376835,11.5471724 19.4434551,10.8383181 C18.5802531,9.95280823 17.7402133,9.01618154 16.8608574,8.14230279 C15.6644514,6.95000615 14.0237307,5.33242271 12.8550597,4.10763621 C11.5013038,2.68988478 10.1475052,4.38184727 10.7885285,5.69732214 C10.8486992,5.82749621 10.9366477,5.95530972 11.0500233,6.09007615 C11.3971588,6.48750836 11.7720293,6.85704307 12.1399767,7.23589125 C12.1446348,7.24052652 15.0211204,10.0062427 15.9629546,10.9614534 C16.3910728,11.4076848 16.1596634,11.9585104 15.8865874,11.7098363 C15.6135114,11.4611622 13.7668513,9.80405013 12.9291192,8.94643777 C11.6123718,7.59847303 9.93229224,5.9157811 8.42810953,4.65841889 C7.57648861,3.94492935 5.57474356,5.39053537 7.46311295,7.25215764 C7.53486483,7.32421905 13.1049733,12.8068522 13.8108255,13.506393 C14.0399273,13.7318478 13.6719799,13.9688908 13.6719799,13.9688908 C13.5192453,14.1037001 7.51866831,8.38865926 7.29418192,8.16320446 C6.06538285,6.9244692 3.9502194,8.45604247 5.68119618,10.2293798 C6.31298881,10.8754862 8.31473386,12.9416186 9.61524208,14.2919439 C10.0457106,14.740493 11.103271,15.7026995 11.7373286,16.2581604 C11.8692512,16.3743857 11.545278,16.5114698 11.4665603,16.6183816 C11.350877,16.7787708 7.04426828,12.8626043 6.59991087,12.5047007 C5.61179472,11.7098363 3.89932215,13.1089608 4.90367756,14.4546508 C5.41970138,15.144921 9.00665449,18.5520653 9.52502872,19.0471388 C12.216344,21.6152977 12.7324105,22.2520905 16.0069288,24.5785282 C16.4234658,24.8760444 17.6106411,25.7964047 17.2611979,25.6476466 C12.6630091,23.6674814 8.61554476,19.0843069 5.11658279,15.8816728 C4.09372317,14.9450461 3.30688835,13.2019239 4.51718321,12.0398853 C4.99393366,11.5843404 5.32021455,11.4867421 5.93807561,11.5239101 C5.93807561,11.5239101 5.9010672,11.4797462 5.36188107,10.9033837 C4.84119915,10.3479228 3.64244271,8.67454435 4.75555843,7.59379483 C5.63029892,6.74317831 6.60918435,7.11503065 6.53512478,7.03138104 C5.70435849,6.03432405 5.80619574,4.93035522 6.51431289,4.26334723 C7.3659338,3.45916933 8.52298099,3.42431891 10.024856,4.98147205 C9.93229224,4.70258279 9.71707932,4.01467313 10.4344699,3.36157097 C11.8229693,2.09262056 12.9985634,3.00366738 15.6435968,5.86234664 C17.8420506,8.23063059 21.2507992,11.7237851 21.2507992,11.7237851 C21.4452002,11.8980801 21.9519933,12.509336 22.2690007,12.3164569 C22.454171,12.2025492 22.1625481,11.860912 21.8570791,11.1590107 C20.7602026,8.64664684 20.7370403,6.46428905 23.1877154,5.56483043 C23.345108,5.41843288 22.2574623,6.37596125 21.928831,7.4543502 C21.6117808,8.49093582 22.0607536,10.1317386 22.6624181,11.5378589" id="Fill-5" fill="#7B7B7B"></path>
            </g>
        </g>
    </g>
</svg>