<?xml version="1.0" encoding="UTF-8"?>
<svg width="32px" height="34px" viewBox="0 0 32 34" version="1.1" xmlns="http://www.w3.org/2000/svg" xmlns:xlink="http://www.w3.org/1999/xlink">
    <title>Clap_icon</title>
    <g id="UI-Elements-for-Dev" stroke="none" stroke-width="1" fill="none" fill-rule="evenodd">
        <g id="UI-Elements" transform="translate(-644, -131)">
            <g id="Clap_icon" transform="translate(660, 148) scale(-1, 1) translate(-660, -148)translate(644, 131)">
                <g id="Group-67" transform="translate(0, 3.7778)">
                    <path d="M12.7803124,19.1447496 C12.5266215,19.3940446 12.2676108,19.1041178 12.2676108,19.1041178 C12.2676108,19.1041178 7.91479584,14.4868062 7.63465235,14.2835973 C7.23820538,13.9936705 6.39250391,13.5438186 5.55997992,14.4434723 C5.2137538,14.8174148 4.64819583,15.6465634 5.72913974,16.9580392 C5.96169788,17.2398596 12.7406823,24.393405 13.134445,24.778156 C13.134445,24.778156 16.2636088,27.8265904 18.1453531,28.9646306 C18.6686455,29.2816786 19.2553363,29.6149393 19.939882,29.8452694 C20.6217435,30.0755996 21.3908204,30.2300704 22.1995273,30.221914 C23.0082342,30.221914 23.8460292,30.0512305 24.6362388,29.744991 C25.4264972,29.4360994 26.161215,28.9889997 26.8272147,28.4768991 C26.9910547,28.3467973 27.1549435,28.2140435 27.3108282,28.0758354 L27.7574961,27.6883823 C28.0693631,27.4146682 28.3574131,27.1301957 28.6349211,26.8348147 C29.1925726,26.2495069 29.6947322,25.6290215 30.1360803,24.9922234 C30.5747928,24.3527232 30.9474715,23.6916061 31.2407924,23.0358432 C31.5341622,22.3800802 31.7403166,21.7216652 31.8592556,21.0984277 C31.986101,20.4778924 32.0178246,19.8926346 31.991372,19.3858882 C31.98083,18.8764898 31.8777528,18.4402485 31.7905374,18.0933772 C31.6927312,17.7465559 31.5922896,17.4864025 31.5103939,17.315719 C31.431085,17.1449854 31.3888195,17.0528633 31.3888195,17.0528633 C31.277787,16.7466739 31.1747586,16.454045 31.0769524,16.1911894 C30.8126707,15.4487586 30.5087101,14.6141558 30.1915721,13.7578861 C30.0568201,13.3948021 29.9960085,13.2295228 29.9960085,13.2295228 L29.998644,13.234927 C28.8358045,10.1106833 27.5857007,6.88886318 27.5857007,6.88886318 C27.3954082,6.32252019 26.7188665,6.13016974 26.2219778,6.50406219 C24.7974921,7.57985367 24.3745926,9.12976599 24.9005205,10.7718504 L26.2431106,14.4082448 C26.4307677,14.8146627 25.9312436,15.2915857 25.5877017,15.0124674 C24.5093933,14.1345307 22.2232955,11.7039795 22.2232955,11.7039795 C21.2031633,10.7230622 15.4416756,4.80783542 15.0531839,4.44745354 C14.2788361,3.72393761 13.3062403,3.3581515 12.574158,3.92449448 C11.8288982,4.49894381 11.6280149,5.37958264 12.3653682,6.32797446 C12.5662515,6.5853758 18.3911375,12.7498976 18.3911375,12.7498976 C18.7320927,13.1075774 18.3409167,13.619728 17.9682868,13.2755588 C17.9682868,13.2755588 10.7215018,5.70473697 10.3938217,5.34975931 C9.65114863,4.54497982 8.47244733,4.37970054 7.78263058,5.05713042 C7.10872443,5.72099969 7.13776369,6.79674112 7.89097876,7.6312939 C8.1314922,7.89685162 13.2348867,13.2945236 15.2804711,15.5056531 C15.4179073,15.6546697 15.52362,15.8524744 15.3280564,16.0448749 C15.3254209,16.047577 15.127173,16.2752051 14.8628913,15.9906825 C14.3078753,15.3972684 8.76049731,9.60939115 8.45126575,9.29504527 C7.74300053,8.57698361 6.79949286,8.24372294 6.05418428,8.9617846 C5.37232283,9.61749749 5.27456544,10.7447292 6.07531706,11.533246 L12.7961742,18.6488617 C12.8014452,18.6516139 13.0181903,18.9117173 12.7803124,19.1447496" id="Fill-1" fill="#F7BF36"></path>
                    <path d="M10.2500992,17.4699653 C10.1120913,17.8004996 9.75913214,17.6352075 9.75913214,17.6352075 C9.75913214,17.6352075 3.97367939,15.1185041 3.63664798,15.0426618 C3.15896218,14.9343014 2.20623705,14.8584091 1.77893199,16.0179056 C1.60112917,16.5001245 1.39411729,17.4889259 2.89358118,18.2664595 C3.2173313,18.4344031 12.2113212,22.3165178 12.7235089,22.5169796 C12.7235089,22.5169796 16.7786188,24.0773997 18.954792,24.3726644 C19.5598508,24.4539597 20.2313162,24.529802 20.9505159,24.4675173 C21.6697155,24.407884 22.4392959,24.2453434 23.1824117,23.9121576 C23.9307714,23.5897778 24.6393852,23.0967029 25.2524325,22.5007206 C25.8654797,21.9019867 26.3750211,21.1976439 26.7943377,20.4607831 C26.8977947,20.2765803 26.9986541,20.0896261 27.0888788,19.9000204 L27.3569553,19.3663228 C27.540051,18.9897628 27.6992796,18.6105013 27.8452759,18.2312398 C28.1398169,17.4699653 28.365403,16.6978848 28.53262,15.9339088 C28.6944951,15.1699828 28.7873662,14.4141113 28.8085869,13.690808 C28.8298565,12.9675047 28.768792,12.279371 28.6440653,11.659025 C28.5272781,11.0359276 28.3309011,10.4859709 28.1133033,10.0281656 C27.9089379,9.56220581 27.6462034,9.20460641 27.436545,8.91744629 C27.2136544,8.63839068 27.0225703,8.4379289 26.8819159,8.31330941 C26.743908,8.18868992 26.6696111,8.12095215 26.6696111,8.12095215 C26.4519644,7.88256922 26.2423061,7.65499232 26.0538684,7.45182903 C25.5257529,6.87205574 24.9259869,6.22729621 24.3076467,5.56632764 C24.0449122,5.28457053 23.9254785,5.15995104 23.9254785,5.15995104 L23.9307714,5.16535405 C21.6617271,2.75155808 19.2785421,0.283631919 19.2785421,0.283631919 C18.8884345,-0.163367335 18.187809,-0.0685644717 17.8719983,0.473237647 C16.96441,2.03365776 17.1634335,3.62659601 18.2753872,4.92967263 L20.9027326,7.74439217 C21.2318246,8.04240835 20.9505159,8.68171484 20.5258573,8.56254839 C19.1936594,8.18328691 16.1549367,6.8558467 16.1549367,6.8558467 C14.8359711,6.36007025 7.25122046,3.20941339 6.75496045,3.03061368 C5.76239142,2.67301428 4.72473457,2.72449299 4.26297653,3.53719616 C3.79323011,4.36350693 3.94187288,5.2547539 4.9874691,5.8345272 C5.27142432,5.99161479 13.0074642,9.34543494 13.0074642,9.34543494 C13.4586364,9.5377922 13.2914194,10.1662927 12.81638,9.99834902 C12.81638,9.99834902 3.22796614,5.9157725 2.79007524,5.71801223 C1.79750621,5.27101297 0.643111126,5.59069123 0.263589346,6.49009275 C-0.10529759,7.3705337 0.332593306,8.35123055 1.34638302,8.81719038 C1.66748667,8.96617346 8.44810591,11.902811 11.1816037,13.1218908 C11.3646994,13.2031861 11.5372093,13.3440646 11.4310569,13.6014081 C11.4310569,13.6041097 11.3328929,13.8939713 10.9799337,13.7368837 C10.2394644,13.4118024 2.90416702,10.2909122 2.49813164,10.12567 C1.56927365,9.74640853 0.571460708,9.81684781 0.15214403,10.773131 C-0.230024208,11.648169 0.109653666,12.7263702 1.15000598,13.1327468 L10.0775893,17.006707 C10.0775893,17.006707 10.3801188,17.1611431 10.2500992,17.4699653" id="Fill-3" fill="#F7BF36"></path>
                    <path d="M25.8999064,13.4115283 C26.1987576,14.1193539 26.6747999,14.6326124 25.9633982,15.1594406 C24.9953919,15.8753483 23.0144954,13.4223542 22.2210916,12.5983869 C21.2345749,11.5690762 20.2745295,10.4803478 19.2695514,9.46455709 C17.9022302,8.07863963 16.0271208,6.1983717 14.6914968,4.77468825 C13.1443472,3.12670368 11.5971487,5.0934293 12.3297469,6.6225283 C12.3985134,6.77384175 12.4990259,6.9224113 12.6285981,7.07906288 C13.0253244,7.54103536 13.4537478,7.97057998 13.8742591,8.41095051 C13.8795827,8.41633852 17.1669947,11.6311881 18.2433767,12.7415185 C18.7326546,13.2602148 18.4681867,13.9004907 18.1560999,13.6114336 C17.8440131,13.3223766 15.7335444,11.3961608 14.7761363,10.3992781 C13.271282,8.83241309 11.3511911,6.8764635 9.63212518,5.41491426 C8.65884413,4.5855589 6.3711355,6.26592146 8.52927194,8.42985845 C8.61127409,8.51362215 14.9771124,14.8865974 15.7838006,15.6997389 C16.0456312,15.961806 15.6251198,16.2373431 15.6251198,16.2373431 C15.4505661,16.3940446 8.59276378,9.75092016 8.33620791,9.48885305 C6.93186612,8.04895565 4.51453646,9.82924595 6.49279563,11.8905612 C7.21484436,12.6415908 9.50255299,15.043249 10.9888481,16.6128579 C11.4808122,17.1342482 12.6894526,18.2527106 13.4140898,18.8983745 C13.5648585,19.033474 13.1946034,19.1928196 13.1046404,19.3170932 C12.9724308,19.5035285 8.05059232,14.9514033 7.54275529,14.5353786 C6.41347967,13.6114336 4.45636817,15.2377664 5.60420293,16.8019872 C6.19394443,17.6043526 10.2933194,21.5647939 10.8857471,22.1402639 C13.961536,25.1254742 14.5513263,25.8656779 18.293633,28.5699131 C18.7696752,28.915744 20.126447,29.9855645 19.7270833,29.8126491 C14.4720104,27.5109186 9.84633687,22.1834678 5.84752319,18.4607479 C4.67854076,17.3720194 3.77930097,15.345826 5.16249509,13.9950803 C5.70735275,13.4655581 6.0802452,13.3521104 6.78637213,13.3953143 C6.78637213,13.3953143 6.74407679,13.3439785 6.12786408,12.6740186 C5.53279903,12.0283547 4.16279167,10.083231 5.43492392,8.82697519 C6.43462734,7.83822436 7.55335354,8.27046298 7.46871403,8.17322924 C6.51926685,7.01425702 6.63565227,5.7310112 7.44492901,4.95568567 C8.41821006,4.02091478 9.7405497,3.98040488 11.4569783,5.79042904 C11.3511911,5.46625008 11.1052335,4.66662859 11.9251085,3.90746711 C13.5119649,2.43244783 14.8555011,3.49144243 17.8783963,6.81435165 C20.3909149,9.56722873 24.2866276,13.6276476 24.2866276,13.6276476 C24.5088002,13.830247 25.0879923,14.5407666 25.4502865,14.3165653 C25.6619097,14.1841598 25.3286264,13.7870431 24.9795189,12.9711577 C23.7259458,10.0508032 23.6994746,7.51404539 26.5002462,6.46852084 C26.6801234,6.29834933 25.4370997,7.41137376 25.0615211,8.66488571 C24.6991781,9.86980574 25.2122898,11.7770636 25.8999064,13.4115283" id="Fill-5" fill="#E18C25"></path>
                </g>
                <path d="M24.1248718,6.51340996 C24.0703963,6.51340996 24.0154232,6.50507857 23.9609477,6.48781713 C23.6773764,6.39721952 23.5208152,6.09314877 23.6113093,5.80888378 L25.3382086,0.376119817 C25.4287026,0.0914557168 25.7331189,-0.0644460203 26.0151479,0.0254032688 C26.2987192,0.116000886 26.4552804,0.420071634 26.3647863,0.704336626 L24.637887,6.1370507 C24.5650042,6.36683738 24.3529725,6.51340996 24.1248718,6.51340996" id="Fill-7" fill="#1B4CA1"></path>
                <path d="M10.2991136,6.38314176 C10.1458027,6.38314176 9.99353437,6.31701053 9.88718982,6.18887497 L7.0106244,2.71950151 C6.81948223,2.48904875 6.84887345,2.14515626 7.07610921,1.95154373 C7.30374214,1.75778022 7.6429326,1.78787647 7.83382652,2.01797694 L10.7105409,5.48730006 C10.9016334,5.71775282 10.8722422,6.06164531 10.6449071,6.25525784 C10.5440734,6.34121838 10.4211963,6.38314176 10.2991136,6.38314176" id="Fill-9" fill="#1B4CA1"></path>
                <path d="M12.3777453,6.12260536 C12.355648,6.12260536 12.3335506,6.1211519 12.3112131,6.11824496 C12.0261571,6.08020422 11.8244466,5.80840589 11.8608112,5.51099647 L12.4773276,0.473730905 C12.5139324,0.176271365 12.7755459,-0.0322259714 13.0593049,0.00411070376 C13.3443608,0.0421514437 13.5460713,0.313949774 13.5097067,0.611309075 L12.8931903,5.64857464 C12.8594198,5.92262835 12.635612,6.12260536 12.3777453,6.12260536" id="Fill-11" fill="#1B4CA1"></path>
                <path d="M25.6460183,8.72796935 C25.4909228,8.72796935 25.3371491,8.65850637 25.2322834,8.52509335 C25.0489887,8.29134491 25.0855106,7.9496933 25.3138456,7.76205304 L28.5880845,5.06988648 C28.8161748,4.88209587 29.1496204,4.91933324 29.3334536,5.15308168 C29.5167484,5.38683012 29.4802265,5.72848172 29.2518914,5.91612198 L25.9776525,8.60828854 C25.8797876,8.68887763 25.7625358,8.72796935 25.6460183,8.72796935" id="Fill-13" fill="#1B4CA1"></path>
            </g>
        </g>
    </g>
</svg>