<?xml version="1.0" encoding="UTF-8"?>
<svg width="20px" height="20px" viewBox="0 0 20 20" version="1.1" xmlns="http://www.w3.org/2000/svg" xmlns:xlink="http://www.w3.org/1999/xlink">
    <title>InProgress_Icon</title>
    <g id="UI-Elements-for-Dev." stroke="none" stroke-width="1" fill="none" fill-rule="evenodd">
        <g id="UI-Elements" transform="translate(-590, -54)">
            <g id="InProgress_Icon" transform="translate(590, 54)">
                <rect id="Size" fill="#D8D8D8" opacity="0" x="0" y="0" width="20" height="20"></rect>
                <path d="M5.83333333,14.1666667 L11.6666667,14.1666667 L11.6666667,12.5 L5.83333333,12.5 L5.83333333,14.1666667 Z M5.83333333,10.8333333 L14.1666667,10.8333333 L14.1666667,9.16666667 L5.83333333,9.16666667 L5.83333333,10.8333333 Z M5.83333333,7.5 L14.1666667,7.5 L14.1666667,5.83333333 L5.83333333,5.83333333 L5.83333333,7.5 Z M4.16666667,17.5 C3.70833333,17.5 3.31597222,17.3368056 2.98958333,17.0104167 C2.66319444,16.6840278 2.5,16.2916667 2.5,15.8333333 L2.5,4.16666667 C2.5,3.70833333 2.66319444,3.31597222 2.98958333,2.98958333 C3.31597222,2.66319444 3.70833333,2.5 4.16666667,2.5 L15.8333333,2.5 C16.2916667,2.5 16.6840278,2.66319444 17.0104167,2.98958333 C17.3368056,3.31597222 17.5,3.70833333 17.5,4.16666667 L17.5,15.8333333 C17.5,16.2916667 17.3368056,16.6840278 17.0104167,17.0104167 C16.6840278,17.3368056 16.2916667,17.5 15.8333333,17.5 L4.16666667,17.5 Z M4.16666667,15.8333333 L15.8333333,15.8333333 L15.8333333,4.16666667 L4.16666667,4.16666667 L4.16666667,15.8333333 Z M4.20625,4.16666667 L4.20625,15.8333333 L4.20625,4.16666667 Z" id="Shape" fill="#F3962F"></path>
            </g>
        </g>
    </g>
</svg>