<?xml version="1.0" encoding="UTF-8"?>
<svg width="166px" height="149px" viewBox="0 0 166 149" version="1.1" xmlns="http://www.w3.org/2000/svg" xmlns:xlink="http://www.w3.org/1999/xlink">
    <title>Group 186</title>
    <defs>
        <polygon id="path-1" points="0 0 148.930539 0 148.930539 148.922638 0 148.922638"></polygon>
    </defs>
    <g id="Homepage" stroke="none" stroke-width="1" fill="none" fill-rule="evenodd">
        <g id="With-no-course-in-progress" transform="translate(-842, -280)">
            <g id="Group-186" transform="translate(843, 280)">
                <g id="Group-3" transform="translate(10.4562, 0)">
                    <mask id="mask-2" fill="white">
                        <use xlink:href="#path-1"></use>
                    </mask>
                    <g id="Clip-2"></g>
                </g>
                <path d="M108.268657,116.86671 C108.268657,117.150705 108.038591,117.380862 107.754707,117.380862 L58.3611906,117.380862 C54.6980598,117.380862 51.7278204,114.924507 51.7278204,111.894779 L51.7278204,110.105566 C51.7278204,107.075838 54.6980598,104.619483 58.3611906,104.619483 L107.754707,104.619483 C108.038591,104.619483 108.268657,104.84964 108.268657,105.133635 L108.268657,105.226506 C108.268657,105.509155 108.040833,105.738414 107.758743,105.740658 L107.11339,105.745144 L107.077064,116.353007 L107.754707,116.352558 C108.038591,116.352558 108.268657,116.582715 108.268657,116.86671" id="Fill-4" fill-opacity="0.16" fill="#1B4CA1"></path>
                <path d="M73.994032,105.701266 L107.113345,105.745234 L107.077019,116.352648 L73.6513983,116.352648 C71.9319513,116.352648 70.5385444,114.958694 70.5385444,113.239022 L70.5385444,109.158109 C70.5385444,107.249106 72.0857777,105.701266 73.994032,105.701266" id="Fill-6" fill="#E1ECFA"></path>
                <path d="M62.1245553,111.331276 L62.1245553,110.669069 C62.1245553,110.238815 62.4730191,109.890214 62.9031051,109.890214 L67.3559976,109.890214 C67.7860837,109.890214 68.1345475,110.238815 68.1345475,110.669069 L68.1345475,111.331276 C68.1345475,111.76153 67.7860837,112.110131 67.3559976,112.110131 L62.9031051,112.110131 C62.4730191,112.110131 62.1245553,111.76153 62.1245553,111.331276" id="Fill-8" fill="#E1ECFA"></path>
                <path d="M109.890427,129.720421 C109.890427,130.004416 109.66036,130.234573 109.376476,130.234573 L59.9829602,130.234573 C56.3198294,130.234573 53.3495899,127.778218 53.3495899,124.74849 L53.3495899,122.959277 C53.3495899,119.929549 56.3198294,117.473194 59.9829602,117.473194 L109.376476,117.473194 C109.66036,117.473194 109.890427,117.703351 109.890427,117.987346 L109.890427,118.080216 C109.890427,118.362865 109.662603,118.592125 109.380513,118.594368 L108.735159,118.598855 L108.698833,129.206717 L109.376476,129.206269 C109.66036,129.206269 109.890427,129.436426 109.890427,129.720421" id="Fill-10" fill-opacity="0.16" fill="#1B4CA1"></path>
                <path d="M75.6158016,118.554977 L108.735115,118.598945 L108.698788,129.206358 L75.2727194,129.206358 C73.5537208,129.206358 72.1603139,127.812405 72.1603139,126.092733 L72.1603139,122.011819 C72.1603139,120.102817 73.7070987,118.554977 75.6158016,118.554977" id="Fill-12" fill="#E1ECFA"></path>
                <path d="M63.7463248,124.184987 L63.7463248,123.52278 C63.7463248,123.092526 64.0947887,122.743925 64.5248747,122.743925 L68.9777672,122.743925 C69.4078532,122.743925 69.756317,123.092526 69.756317,123.52278 L69.756317,124.184987 C69.756317,124.615241 69.4078532,124.963842 68.9777672,124.963842 L64.5248747,124.963842 C64.0947887,124.963842 63.7463248,124.615241 63.7463248,124.184987" id="Fill-14" fill="#E1ECFA"></path>
                <line x1="74.0106704" y1="120.209012" x2="108.698743" y2="120.209012" id="Fill-16" fill="#E1ECFA"></line>
                <line x1="76.5122999" y1="121.808492" x2="108.698788" y2="121.808492" id="Fill-18" fill="#E1ECFA"></line>
                <line x1="74.0106704" y1="124.704029" x2="108.698743" y2="124.704029" id="Fill-20" fill="#E1ECFA"></line>
                <line x1="73.4668515" y1="127.710068" x2="108.698474" y2="127.710068" id="Fill-22" fill="#E1ECFA"></line>
                <path d="M127.316938,147.864738 C127.316938,148.27929 126.981031,148.615777 126.566193,148.615777 L54.3960578,148.615777 C49.0430792,148.615777 44.7040989,145.027032 44.7040989,140.599761 L44.7040989,137.98593 C44.7040989,133.559108 49.0430792,129.969915 54.3960578,129.969915 L126.566193,129.969915 C126.981031,129.969915 127.316938,130.306402 127.316938,130.720953 L127.316938,130.856894 C127.316938,131.269651 126.984171,131.605241 126.571575,131.607933 L125.628884,131.615111 L125.575516,147.113699 L126.566193,147.113699 C126.980583,147.113699 127.316938,147.449737 127.316938,147.864738" id="Fill-24" fill="#D5DDEB"></path>
                <path d="M76.9105443,131.55064 L125.62866,131.614797 L125.57574,147.113834 L77.1563078,147.113834 C74.4125474,147.113834 72.1885678,144.888982 72.1885678,142.144146 L72.1885678,136.274468 C72.1885678,133.665573 74.3026714,131.55064 76.9105443,131.55064" id="Fill-26" fill="#E1ECFA"></path>
                <path d="M64.7688891,144.281601 L63.8015319,144.281601 C63.1732207,144.281601 62.6642033,143.771935 62.6642033,143.143378 L62.6642033,136.634823 C62.6642033,136.006266 63.1732207,135.4966 63.8015319,135.4966 L64.7688891,135.4966 C65.3972003,135.4966 65.9066661,136.006266 65.9066661,136.634823 L65.9066661,143.143378 C65.9066661,143.771935 65.3972003,144.281601 64.7688891,144.281601" id="Fill-28" fill="#E1ECFA"></path>
                <path d="M59.8004764,144.320903 L58.8331192,144.320903 C58.204808,144.320903 57.6957906,143.811237 57.6957906,143.182679 L57.6957906,136.674125 C57.6957906,136.045567 58.204808,135.536351 58.8331192,135.536351 L59.8004764,135.536351 C60.4287876,135.536351 60.9382534,136.045567 60.9382534,136.674125 L60.9382534,143.182679 C60.9382534,143.811237 60.4287876,144.320903 59.8004764,144.320903" id="Fill-30" fill="#E1ECFA"></path>
                <line x1="77.6230789" y1="133.967379" x2="125.57565" y2="133.967379" id="Fill-32" fill="#E1ECFA"></line>
                <line x1="84.1711943" y1="139.179293" x2="125.604756" y2="139.179293" id="Fill-34" fill="#E1ECFA"></line>
                <line x1="73.7619022" y1="141.13141" x2="125.575829" y2="141.13141" id="Fill-36" fill="#E1ECFA"></line>
                <line x1="75.8947072" y1="145.523641" x2="125.575695" y2="145.523641" id="Fill-38" fill="#E1ECFA"></line>
                <path d="M132.247455,148.282251 L81.643957,132.176192 C78.6737175,131.230888 77.0323049,128.055798 77.9772383,125.084394 L100.191023,55.2364375 C101.135957,52.2654823 104.309803,50.6229775 107.280043,51.5682814 L123.039847,56.5846285 L132.389621,61.4583051 L138.219775,61.4161321 L157.88354,67.6743403 C160.853331,68.6200929 162.495192,71.7947348 161.550259,74.7661387 L139.336474,144.614095 C138.39154,147.58505 135.217694,149.227555 132.247455,148.282251" id="Fill-40" fill="#D5DDEB"></path>
                <path d="M132.18718,143.162042 L84.6507918,128.031795 C82.893673,127.472778 81.9222796,125.594283 82.4815259,123.836476 L102.976312,59.3942943 C103.53511,57.6364866 105.412868,56.665161 107.169987,57.224178 L154.706375,72.3544248 C156.463494,72.9134417 157.434887,74.7919361 156.875641,76.5497438 L136.380855,140.991925 C135.821608,142.749733 133.944299,143.721059 132.18718,143.162042" id="Fill-42" fill="#FFFFFF"></path>
                <path d="M133.928288,55.3874529 C135.362954,55.8441778 136.156304,57.3781095 135.699758,58.8133384 C135.243212,60.2485673 133.709881,61.0422278 132.275215,60.5855029 C130.840549,60.128778 130.047199,58.5948463 130.503745,57.1596174 C130.960291,55.7243885 132.493622,54.930728 133.928288,55.3874529 M143.309903,61.2355956 L138.798709,59.7994694 C139.799702,56.6521951 138.060522,53.2886718 134.914033,52.2872867 C131.767992,51.2859016 128.405786,53.0257633 127.404794,56.1730377 L122.967598,54.7606899 C121.841481,54.4022192 120.638227,55.0249443 120.279897,56.1515025 L119.499553,58.6042679 C118.710688,61.0857468 120.081671,63.7368151 122.561729,64.5259891 L137.926877,69.4167144 C140.406935,70.2058884 143.056964,68.8348164 143.846278,66.3533375 L144.649942,63.8269936 C144.994818,62.7412625 144.395209,61.5810556 143.309903,61.2355956" id="Fill-44" fill="#D5DDEB"></path>
                <path d="M147.796207,82.3304097 L107.047464,69.3608576 C106.444268,69.1688357 106.110603,68.5236781 106.30255,67.9197963 C106.494497,67.3159144 107.139401,66.9821194 107.743047,67.1741412 L148.491789,80.1436933 C149.095435,80.3357152 149.42865,80.9813214 149.236704,81.5847547 C149.044757,82.1886365 148.399852,82.5224316 147.796207,82.3304097" id="Fill-46" fill="#E1ECFA"></path>
                <path d="M146.116674,87.611415 L105.367931,74.6418629 C104.764735,74.449841 104.43107,73.8046834 104.623017,73.2008015 C104.814964,72.5969197 105.459868,72.2631246 106.063514,72.4551465 L146.812256,85.4246986 C147.415902,85.6167205 147.749117,86.2623267 147.557171,86.8657599 C147.365224,87.4696418 146.720319,87.8034368 146.116674,87.611415" id="Fill-48" fill="#E1ECFA"></path>
                <path d="M144.437141,92.8923754 L103.688398,79.9228233 C103.085202,79.7308014 102.751538,79.0856438 102.943484,78.481762 C103.135431,77.8778801 103.780336,77.5440851 104.383981,77.7361069 L145.132724,90.705659 C145.73592,90.8981295 146.069584,91.5432871 145.877638,92.147169 C145.685691,92.7506022 145.040786,93.0843972 144.437141,92.8923754" id="Fill-50" fill="#E1ECFA"></path>
                <path d="M142.757608,98.1733358 L102.008866,85.2037837 C101.40522,85.0117618 101.072005,84.3666042 101.263951,83.7627224 C101.455898,83.1588405 102.100803,82.8250455 102.704448,83.0170673 L143.453191,95.9866194 C144.056387,96.1790899 144.390052,96.8242475 144.198105,97.4281294 C144.006158,98.0315626 143.361254,98.3653577 142.757608,98.1733358" id="Fill-52" fill="#E1ECFA"></path>
                <path d="M141.078075,103.454341 L100.329333,90.484789 C99.7256874,90.2927671 99.3924717,89.6476095 99.5844183,89.0437276 C99.7763649,88.4398458 100.42127,88.1060507 101.024915,88.2980726 L141.773658,101.267625 C142.376854,101.459647 142.710519,102.105253 142.518572,102.708686 C142.326625,103.312568 141.681721,103.646363 141.078075,103.454341" id="Fill-54" fill="#E1ECFA"></path>
                <path d="M139.398542,108.735301 L98.6497997,95.7657494 C98.046603,95.5737275 97.7129387,94.9285699 97.9048854,94.3246881 L97.9048854,94.3246881 C98.096832,93.7208062 98.7417367,93.3870112 99.345382,93.579033 L140.094125,106.548585 C140.69777,106.741056 141.030986,107.386213 140.839039,107.990095 C140.647092,108.593528 140.002188,108.927323 139.398542,108.735301" id="Fill-56" fill="#E1ECFA"></path>
                <path d="M137.719054,114.016307 L96.9703116,101.046755 C96.3666664,100.854733 96.0330022,100.209127 96.2253973,99.6056933 C96.4173439,99.0018115 97.0622487,98.6680164 97.6658939,98.8600383 L138.414637,111.82959 C139.017833,112.021612 139.351498,112.667218 139.159551,113.270652 C138.967604,113.874534 138.3227,114.208329 137.719054,114.016307" id="Fill-58" fill="#E1ECFA"></path>
                <path d="M136.039521,119.297267 L95.2907787,106.327715 C94.6871335,106.135693 94.3539177,105.490536 94.5458643,104.886654 C94.737811,104.282772 95.3827157,103.948977 95.9863609,104.140999 L136.735104,117.110551 C137.3383,117.303021 137.671965,117.948179 137.480018,118.551612 C137.288071,119.155494 136.643167,119.489289 136.039521,119.297267" id="Fill-60" fill="#E1ECFA"></path>
                <path d="M134.389902,124.484146 L93.6411589,111.514594 C93.0379622,111.322572 92.704298,110.677414 92.8962446,110.073532 C93.0881912,109.469651 93.733096,109.135856 94.3367412,109.327877 L135.085484,122.297429 C135.688681,122.4899 136.022345,123.135058 135.830398,123.738939 C135.638452,124.342373 134.993547,124.676168 134.389902,124.484146" id="Fill-62" fill="#E1ECFA"></path>
                <path d="M132.710369,129.765151 L91.961626,116.795599 C91.3579808,116.603577 91.024765,115.95842 91.2167117,115.354538 C91.4086583,114.750656 92.053563,114.416861 92.6572083,114.608883 L133.405951,127.578435 C134.009148,127.770457 134.342812,128.416063 134.150865,129.019496 C133.958919,129.623378 133.314014,129.957173 132.710369,129.765151" id="Fill-64" fill="#E1ECFA"></path>
                <path d="M131.030836,135.046112 L90.2820931,122.076559 C89.6784478,121.884538 89.3452321,121.23938 89.5371787,120.635498 C89.7291253,120.031616 90.3740301,119.697821 90.9776753,119.889843 L131.726418,132.859395 C132.329615,133.051866 132.663279,133.697023 132.471332,134.300456 L132.471332,134.300905 C132.279386,134.904338 131.634481,135.238133 131.030836,135.046112" id="Fill-66" fill="#E1ECFA"></path>
                <path d="M27.2930604,143.694543 C27.2885757,143.6923 27.2836425,143.689608 27.2796062,143.686019 C27.2540432,143.666727 24.7520101,141.731703 25.6148729,138.061752 C26.20327,135.556495 26.0028024,134.775845 25.7256458,133.695049 C25.6032126,133.217686 25.4641858,132.676615 25.3785274,131.907631 C25.1022678,129.429741 27.1020107,126.929419 27.1872207,126.823986 C27.2190623,126.784954 27.2769154,126.778224 27.316381,126.809629 C27.3558467,126.841035 27.3621253,126.898462 27.3302837,126.937494 C27.3101024,126.962619 25.2933175,129.484925 25.5610561,131.887441 C25.6449206,132.643415 25.782602,133.178205 25.9036898,133.649736 C26.1763616,134.713932 26.3925258,135.554252 25.7933653,138.102579 C24.9587563,141.654535 27.3666101,143.523159 27.3908276,143.541554 C27.4311902,143.571613 27.4388143,143.629041 27.4083181,143.668522 C27.3805127,143.704551 27.3320776,143.714284 27.2930604,143.694543" id="Fill-78" fill="#E1ECFA"></path>
                <path d="M33.2093217,83.6366519 L40.5050872,83.5532032 C41.7558795,61.182655 59.3091289,42.481609 82.2593073,40.4662766 C107.436156,38.2557819 129.716764,56.9483036 131.926392,82.1345743 C134.136021,107.321294 115.451273,129.610188 90.2744242,131.820682 C82.3229906,132.519229 74.3101161,131.129763 67.1018029,127.803926 C65.2662012,126.956427 64.4643308,124.781376 65.3114971,122.945055 C66.1582149,121.107836 68.3328624,120.306548 70.1684641,121.153598 C76.2206128,123.945991 82.9513018,125.11203 89.6344526,124.525197 C110.78984,122.667789 126.490446,103.938927 124.633766,82.7747968 C122.777086,61.6111151 104.055115,45.904354 82.8997274,47.7617618 C63.785342,49.4401586 49.1256431,64.8925356 47.8443546,83.4688571 L54.8149768,83.3889976 C55.8361508,83.3773327 56.4868857,84.4760747 55.9868379,85.3661947 L50.6926092,94.78738 L45.3979321,104.208565 C44.8974358,105.099134 43.6210804,105.113939 43.1004028,104.235036 L37.5918039,94.9376775 L32.0832049,85.6403194 C31.5625273,84.7614156 32.1881477,83.6483168 33.2093217,83.6366519" id="Fill-80" fill="#F0BB76"></path>
                <path d="M110.916624,134.557263 C110.916624,134.77082 110.743513,134.943999 110.53004,134.943999 L73.3623572,134.943999 C70.6055912,134.943999 68.3708481,133.096013 68.3708481,130.815977 L68.3708481,129.469581 C68.3708481,127.189994 70.6055912,125.341559 73.3623572,125.341559 L110.53004,125.341559 C110.743513,125.341559 110.916624,125.514738 110.916624,125.728295 L110.916624,125.798284 C110.916624,126.010944 110.745307,126.183674 110.532731,126.18502 L110.047034,126.188609 L110.019677,134.170528 L110.53004,134.170528 C110.743513,134.170528 110.916624,134.343706 110.916624,134.557263" id="Fill-82" fill="#EF951E"></path>
                <path d="M85.1256355,126.155499 L110.047303,126.188699 L110.019946,134.170617 L84.8677632,134.170617 C83.5739174,134.170617 82.5253866,133.121675 82.5253866,131.827322 L82.5253866,128.756767 C82.5253866,127.320192 83.6896236,126.155499 85.1256355,126.155499" id="Fill-84" fill="#F9ECDC"></path>
                <path d="M76.194108,130.199174 L76.194108,130.086563 C76.194108,129.656309 76.5425719,129.307708 76.9726579,129.307708 L79.9379641,129.307708 C80.3680501,129.307708 80.7165139,129.656309 80.7165139,130.086563 L80.7165139,130.199174 C80.7165139,130.629429 80.3680501,130.978029 79.9379641,130.978029 L76.9726579,130.978029 C76.5425719,130.978029 76.194108,130.629429 76.194108,130.199174" id="Fill-86" fill="#F0C66C"></path>
                <line x1="83.9178069" y1="127.400142" x2="110.019856" y2="127.400142" id="Stroke-88" stroke="#F0C66C" stroke-width="0.446840313" stroke-linecap="round"></line>
                <line x1="85.8002292" y1="128.603688" x2="110.020036" y2="128.603688" id="Stroke-90" stroke="#F0C66C" stroke-width="0.446840313" stroke-linecap="round"></line>
                <line x1="83.9178069" y1="130.782553" x2="110.019856" y2="130.782553" id="Stroke-92" stroke="#F0C66C" stroke-width="0.446840313" stroke-linecap="round"></line>
                <line x1="83.5086197" y1="133.044553" x2="110.019677" y2="133.044553" id="Stroke-94" stroke="#F0C66C" stroke-width="0.446840313" stroke-linecap="round"></line>
                <path d="M124.70467,148.210512 C124.70467,148.522772 124.451731,148.77581 124.139593,148.77581 L69.8330508,148.77581 C65.8053111,148.77581 62.5399762,146.074942 62.5399762,142.743721 L62.5399762,140.776843 C62.5399762,137.445622 65.8053111,134.745202 69.8330508,134.745202 L124.139593,134.745202 C124.451731,134.745202 124.70467,134.998241 124.70467,135.3105 L124.70467,135.412793 C124.70467,135.723258 124.454422,135.975399 124.144078,135.977642 L123.434145,135.983026 L123.394231,147.645663 L124.139593,147.645214 C124.451731,147.645214 124.70467,147.898252 124.70467,148.210512" id="Fill-96" fill="#EF951E"></path>
                <path d="M86.7755691,135.934482 L123.442755,135.982936 L123.402841,147.645573 L86.9603402,147.645573 C84.8955686,147.645573 83.2214173,145.971214 83.2214173,143.906081 L83.2214173,139.48913 C83.2214173,137.525841 84.812601,135.934482 86.7755691,135.934482" id="Fill-98" fill="#F9ECDC"></path>
                <path d="M77.3569548,145.514265 L77.192365,145.514265 C76.5640538,145.514265 76.054588,145.004599 76.054588,144.376042 L76.054588,140.04209 C76.054588,139.413532 76.5640538,138.903867 77.192365,138.903867 L77.3569548,138.903867 C77.985266,138.903867 78.4942833,139.413532 78.4942833,140.04209 L78.4942833,144.376042 C78.4942833,145.004599 77.985266,145.514265 77.3569548,145.514265" id="Fill-100" fill="#F0C66C"></path>
                <path d="M73.618301,145.543831 L73.4537113,145.543831 C72.8254,145.543831 72.3159342,145.034165 72.3159342,144.405608 L72.3159342,140.071656 C72.3159342,139.443098 72.8254,138.933433 73.4537113,138.933433 L73.618301,138.933433 C74.2466122,138.933433 74.756078,139.443098 74.756078,140.071656 L74.756078,144.405608 C74.756078,145.034165 74.2466122,145.543831 73.618301,145.543831" id="Fill-102" fill="#F0C66C"></path>
                <line x1="87.3110464" y1="137.753037" x2="123.39432" y2="137.753037" id="Stroke-104" stroke="#F0C66C" stroke-width="0.446840313" stroke-linecap="round"></line>
                <line x1="92.2383789" y1="141.674904" x2="123.416251" y2="141.674904" id="Stroke-106" stroke="#F0C66C" stroke-width="0.446840313" stroke-linecap="round"></line>
                <line x1="84.4055665" y1="143.143826" x2="123.3945" y2="143.143826" id="Stroke-108" stroke="#F0C66C" stroke-width="0.446840313" stroke-linecap="round"></line>
                <line x1="86.0104286" y1="146.448891" x2="123.394275" y2="146.448891" id="Stroke-110" stroke="#F0C66C" stroke-width="0.446840313" stroke-linecap="round"></line>
                <polygon id="Fill-112" fill="#E1B39D" points="51.1757048 137.758959 49.9854563 140.711968 53.3095413 141.561261 54.3589691 139.139901"></polygon>
                <path d="M53.3097207,141.561082 C50.1278018,140.10342 49.0806164,139.63862 44.1752142,139.890312 C43.5016071,139.951777 43.359441,140.878238 43.9801283,141.147427 L51.3817335,144.357961 C52.4257796,144.890508 53.3097207,141.561082 53.3097207,141.561082" id="Fill-114" fill="#1B2133"></path>
                <polygon id="Fill-116" fill="#E1B39D" points="59.4444782 139.442515 58.9193158 142.594276 62.3205382 142.873336 62.8080288 140.279695"></polygon>
                <path d="M62.3205382,142.873156 C58.8950982,142.156663 57.7707754,141.935031 53.0429687,143.26707 C52.3994093,143.476141 52.4662319,144.411126 53.1308695,144.536299 L61.0594309,146.028058 C62.1954141,146.316091 62.3205382,142.873156 62.3205382,142.873156" id="Fill-118" fill="#1B2133"></path>
                <path d="M86.876969,108.91005 C86.876969,108.91005 93.9049958,108.491012 93.9049958,105.094737 C93.9049958,101.698463 90.7517793,102.222485 91.6971612,98.0177442 C92.5721328,94.1270581 91.2249187,92.757332 89.2951376,91.2884544 C86.2827417,88.9954081 88.4946126,87.2515085 86.6092303,84.357721 C85.1516918,82.1212045 79.6466806,79.85418 76.9087504,83.7623634 C73.0545699,89.2637004 72.9451424,89.5638467 72.8998466,91.5392493 C72.8097034,95.4940923 76.6607446,94.1212256 72.8321271,100.263682 C69.0039581,106.406139 75.5996565,109.377991 80.9450111,110.679074 C86.2903658,111.979708 86.876969,108.91005 86.876969,108.91005" id="Fill-120" fill="#1B4CA1"></path>
                <path d="M81.0063623,85.6213864 C80.6247114,85.4073807 80.2609995,85.1655588 79.9219536,85.4419267 C78.9662568,86.2198845 77.3481647,87.922957 77.5674682,90.4057819 C77.789911,92.92405 78.0724492,94.1273273 79.3555317,94.2210949 C79.7721635,94.2511544 80.100446,94.5836035 80.0798162,95.0008473 L80.0197208,96.7312874 C80.0197208,96.7312874 79.8322589,96.9013255 79.763194,97.0098986 L77.8352068,100.389573 C77.6634415,100.660557 77.6845197,101.010952 77.8881267,101.259055 L79.9726311,103.803794 C80.31078,104.216551 80.9610665,104.148805 81.2072784,103.674583 L84.7448367,96.854666 C84.8358768,96.6787955 84.7690542,96.4795952 84.7107527,96.2902652 C84.4963824,95.5930643 83.3846168,94.1654624 85.0363444,90.2074789 C85.1677471,89.8929758 85.2143883,88.7237959 84.3398652,88.9588881 C84.0878231,89.0522071 84.0716781,89.5188023 83.6653612,89.157191 C83.0460194,88.6062498 83.12809,86.8094096 81.0063623,85.6213864" id="Fill-122" fill="#F3D6C1"></path>
                <path d="M71.9204704,115.205945 L62.1621374,117.374715 C60.9288355,117.64884 59.8897226,118.475252 59.3452759,119.615718 L50.5516092,138.022899 C50.3883648,138.36477 50.5749298,138.770797 50.9408841,138.8695 L54.1672018,139.738534 C54.4214863,139.806729 54.6914672,139.703091 54.8340818,139.481009 L66.5123295,121.326418 C66.6011272,121.188234 66.7423963,121.092223 66.9033983,121.05992 L78.1650142,118.818469 C78.7552052,118.701371 78.8318941,117.88797 78.2739932,117.6623 L72.2792491,115.235556 C72.1653368,115.189794 72.0402128,115.179475 71.9204704,115.205945" id="Fill-124" fill="#1B4CA1"></path>
                <path d="M75.103914,102.654041 L73.32482,109.627844 C73.2602398,109.88178 73.1117951,110.105656 72.903255,110.264029 L70.2559164,112.275323 C69.8020613,112.620335 69.6666224,113.244406 69.9370518,113.746893 L70.1675672,114.175802 C70.4644566,114.726743 71.1452392,114.942543 71.704934,114.662586 L75.3667194,112.830751 C75.6138283,112.707373 75.8089142,112.499648 75.9160994,112.244815 L79.2137244,104.416335 L75.103914,102.654041 Z" id="Fill-126" fill="#ECCBB5"></path>
                <path d="M77.6600331,116.918484 C77.5591266,116.874068 77.4479052,116.864646 77.34072,116.88977 L68.6380934,118.924395 C66.6177207,119.27479 64.9323576,120.662911 64.2022429,122.579989 C62.5370611,126.951178 59.5551614,137.38317 58.9093597,139.660962 C58.8376039,139.913552 58.9694551,140.176909 59.2143216,140.271125 C59.9578905,140.557364 61.493912,141.142851 62.4491603,141.469467 C62.6980631,141.554262 62.9684926,141.436716 63.0765746,141.19624 C64.0470711,139.032405 68.4954789,129.112322 69.3318818,127.248184 C69.4144009,127.063341 69.7628648,126.235134 70.1992294,126.235134 C72.7833332,126.235134 89.1485765,127.787012 88.9140249,121.492014 C88.5897786,120.916397 79.0301194,117.518777 77.6600331,116.918484" id="Fill-128" fill="#1B4CA1"></path>
                <path d="M80.0197208,96.7311977 C80.0197208,96.7311977 78.9411422,98.5863623 80.4134805,99.0264872 C82.3100745,99.5940284 84.1541972,97.9564587 84.5466114,96.5521866 C84.5815924,96.4279108 84.621058,96.1439158 84.7497699,96.1362888 C85.4857148,96.0950131 87.6729196,96.1066779 88.6667367,97.8963397 C89.6148095,99.6030014 89.6062885,102.456859 89.5677198,103.495034 C89.5596472,103.718461 89.3851911,103.899267 89.1618513,103.915867 L85.7404477,104.165764 C85.3735964,104.192683 85.2004857,104.629219 85.4507338,104.899306 C86.0019077,105.494663 86.7378525,106.509956 87.176011,108.007996 C87.6881677,109.761317 87.9518701,110.676562 88.4487786,114.031112 C88.7375955,115.98139 88.96542,119.826763 89.0461452,121.313138 C89.0622902,121.612387 88.7806489,121.83716 88.4922805,121.755955 C86.93249,121.314484 82.6500174,120.074417 80.51349,119.172184 C77.8710847,118.055944 73.4594517,116.414786 73.4594517,116.414786 C73.4594517,116.414786 77.5145483,114.577567 77.0723535,110.935881 C76.6306072,107.294195 76.0435555,106.002085 76.5718572,103.593736 L74.90533,103.11772 C74.6833357,103.054011 74.5478967,102.831481 74.5972288,102.605362 C74.9344808,101.058868 75.6619046,96.8168897 80.0197208,96.7311977" id="Fill-130" fill="#F3D1A5"></path>
                <path d="M70.9194328,114.73612 C70.9194328,114.73612 72.5379734,113.398696 74.0251112,113.920924 C74.2193002,113.989119 74.4278404,113.998989 74.6287564,113.955021 C75.9535469,113.665194 80.7122983,112.623879 82.5716691,112.216505 C83.0277665,112.116905 83.3775758,111.752602 83.4600949,111.293185 L84.7247899,104.239971 L88.9050106,103.934441 C88.9050106,103.934441 88.0313844,112.872879 85.3468225,115.217072 C85.1625,115.378137 84.926603,115.464726 84.6817365,115.47998 C82.9735012,115.584067 75.4579838,116.041689 74.5202259,116.099116 C74.4484701,116.103602 74.3807506,116.11437 74.3112373,116.131867 C74.1349872,116.176732 73.7811417,116.274538 73.4595863,116.414516 C73.0075251,116.611473 72.4796718,116.487198 72.1513893,116.118857 L70.9194328,114.73612 Z" id="Fill-132" fill="#F3D6C1"></path>
                <path d="M59.7089429,119.958621 C59.7089429,119.958621 61.3243442,120.38394 62.6276079,119.448507 C63.9313201,118.512625 63.2792398,117.15232 63.2792398,117.15232" id="Stroke-134" stroke="#FFFFFF" stroke-width="0.223420157" stroke-linecap="round"></path>
                <path d="M62.5219476,127.529487 L64.1212038,122.530637 C64.656681,120.857176 66.0276642,119.585255 67.7358995,119.176536 L75.2186784,117.385528" id="Stroke-136" stroke="#FFFFFF" stroke-width="0.223420157" stroke-linecap="round"></path>
                <path d="M84.3477135,121.047493 C84.3477135,121.047493 82.9758333,122.678781 83.9822076,124.776216" id="Stroke-138" stroke="#FFFFFF" stroke-width="0.223420157" stroke-linecap="round"></path>
                <path d="M66.9177943,120.055036 C66.9177943,120.055036 68.1421267,122.427493 64.5722783,122.912034" id="Stroke-140" stroke="#FFFFFF" stroke-width="0.223420157" stroke-linecap="round"></path>
                <line x1="51.5971801" y1="137.687399" x2="54.4073145" y2="138.575276" id="Stroke-142" stroke="#FFFFFF" stroke-width="0.223420157" stroke-linecap="round"></line>
                <line x1="60.1009087" y1="139.388812" x2="62.5217682" y2="140.202661" id="Stroke-144" stroke="#FFFFFF" stroke-width="0.223420157" stroke-linecap="round"></line>
                <path d="M86.942177,97.1908837 C86.942177,97.1908837 83.9611742,97.5125652 84.7249245,104.24006" id="Stroke-146" stroke="#E69724" stroke-width="0.223420157" stroke-linecap="round"></path>
                <path d="M78.313997,99.0266218 C78.313997,99.0266218 76.6138343,101.109252 76.5438725,103.457482" id="Stroke-148" stroke="#E69724" stroke-width="0.223420157" stroke-linecap="round"></path>
                <path d="M62.5195258,117.20037 L57.7226542,110.173626 C57.5298106,109.891426 57.7320721,109.508728 58.0733604,109.508728 L68.1720847,109.508728 C68.3182871,109.508728 68.454623,109.584101 68.5322089,109.708377 L72.5464944,116.133034 C72.6240803,116.25731 72.7604162,116.332683 72.9066185,116.332683 L77.6169348,116.332683 C77.8519349,116.332683 78.0420876,116.52291 78.0420876,116.758002 L78.0420876,116.960792 C78.0420876,117.195435 77.8519349,117.385662 77.6169348,117.385662 L62.8706805,117.385662 C62.7298599,117.385662 62.5989056,117.316122 62.5195258,117.20037" id="Fill-150" fill="#EF951E"></path>
                <path d="M66.3278275,112.95081 C66.6556616,113.631411 66.4596787,114.40533 65.8905659,114.679455 C65.3214532,114.954029 64.5949262,114.624271 64.2670922,113.94367 C63.9392581,113.26307 64.135241,112.488701 64.7043537,112.214576 C65.2734665,111.940452 65.9999934,112.270209 66.3278275,112.95081" id="Fill-152" fill="#F0C66C"></path>
                <path d="M32.0949998,62.0814453 C31.805286,79.0556404 6.56609924,79.0529485 6.27862778,62.0809966 C6.56834161,45.1068015 31.8075283,45.1094934 32.0949998,62.0814453" id="Fill-154" fill-opacity="0.4" fill="#EF951E"></path>
                <g id="Icons/content/edit-24px" transform="translate(12.6619, 54.7641)">
                    <rect id="Size" fill="#D8D8D8" opacity="0" x="0" y="0" width="14.29889" height="14.29889"></rect>
                    <path d="M2.32356963,3.93219476 C2.02865502,3.93219476 1.78736125,4.17348853 1.78736125,4.46840313 L1.78736125,11.439112 C1.78736125,12.0289412 2.26994879,12.5115288 2.85977801,12.5115288 L9.83048689,12.5115288 C10.1254015,12.5115288 10.3666953,12.270235 10.3666953,11.9753204 C10.3666953,11.6804058 10.1254015,11.439112 9.83048689,11.439112 L3.39598638,11.439112 C3.10107177,11.439112 2.85977801,11.1978183 2.85977801,10.9029036 L2.85977801,4.46840313 C2.85977801,4.17348853 2.61848424,3.93219476 2.32356963,3.93219476 Z M11.439112,1.78736125 L5.00461151,1.78736125 C4.4147823,1.78736125 3.93219476,2.26994879 3.93219476,2.85977801 L3.93219476,9.29427852 C3.93219476,9.88410773 4.4147823,10.3666953 5.00461151,10.3666953 L11.439112,10.3666953 C12.0289412,10.3666953 12.5115288,9.88410773 12.5115288,9.29427852 L12.5115288,2.85977801 C12.5115288,2.26994879 12.0289412,1.78736125 11.439112,1.78736125 Z M7.14944501,8.48996595 L7.14944501,3.66409057 L10.0825048,5.86254491 C10.2272811,5.96978659 10.2272811,6.18426994 10.0825048,6.29151161 L7.14944501,8.48996595 Z" id="Shape" fill="#FFFFFF"></path>
                </g>
                <path d="M33.3003618,62.2745327 C32.9797033,81.072487 5.02859784,81.0697951 4.71063019,62.274084 C5.03128868,43.4765784 32.9819457,43.4792703 33.3003618,62.2745327 Z" id="Stroke-156" stroke="#F0C66C" stroke-width="0.223420157"></path>
                <path d="M44.7286752,23.7964003 C45.0183891,40.7705954 70.2575758,40.7683522 70.5450472,23.7959516 C70.2553334,6.82175648 45.0161467,6.82444837 44.7286752,23.7964003" id="Fill-166" fill-opacity="0.4" fill="#EF951E"></path>
                <g id="Icons/content/edit-24px" transform="translate(51.0902, 16.629)">
                    <path d="M2.38314834,7.85247377 L2.38314834,9.52663548 C2.38314834,9.96156005 2.62146317,10.3666953 3.00276691,10.5752208 L5.98170233,12.2017195 C6.33917458,12.3983292 6.76814128,12.3983292 7.12561353,12.2017195 L10.104549,10.5752208 C10.4858527,10.3666953 10.7241675,9.96156005 10.7241675,9.52663548 L10.7241675,7.85247377 L7.12561353,9.81857115 C6.76814128,10.0151809 6.33917458,10.0151809 5.98170233,9.81857115 L2.38314834,7.85247377 Z" id="Path" fill="#FFFFFF"></path>
                    <rect id="Size" fill="#D8D8D8" opacity="0" x="0" y="0" width="14.29889" height="14.29889"></rect>
                    <path d="M5.98170233,2.09717054 L0.959217206,4.83779113 C0.548124118,5.06419022 0.548124118,5.6599773 0.959217206,5.88637639 L5.98170233,8.62699698 C6.33917458,8.82360672 6.76814128,8.82360672 7.12561353,8.62699698 L11.9157417,6.01149168 L11.9157417,9.53259335 C11.9157417,9.86027625 12.1838459,10.1283804 12.5115288,10.1283804 C12.8392117,10.1283804 13.1073159,9.86027625 13.1073159,9.53259335 L13.1073159,5.71359814 C13.1073159,5.49315692 12.9881584,5.29654718 12.7975066,5.18930551 L7.12561353,2.09717054 C6.76814128,1.90651867 6.33917458,1.90651867 5.98170233,2.09717054 Z" id="Path" fill="#FFFFFF"></path>
                </g>
                <path d="M43.3418609,23.7964003 C43.6629679,42.5943545 71.6136248,42.5916627 71.9315925,23.7959516 C71.610934,4.99844599 43.660277,5.00113788 43.3418609,23.7964003 Z" id="Stroke-168" stroke="#F0C66C" stroke-width="0.223420157"></path>
                <path d="M133.568837,25.7160357 C133.279123,42.6906795 108.039936,42.6879876 107.752465,25.7155871 C108.042178,8.74184061 133.281365,8.7445325 133.568837,25.7160357" id="Fill-174" fill-opacity="0.4" fill="#EF951E"></path>
                <g id="Icons/content/edit-24px" transform="translate(113.6478, 18.4236)">
                    <rect id="Size" fill="#D8D8D8" opacity="0" x="0" y="0" width="14.29889" height="14.29889"></rect>
                    <path d="M2.97893542,4.17050959 L11.3199546,4.17050959 C11.6476375,4.17050959 11.9157417,4.43861378 11.9157417,4.76629668 L11.9157417,4.76629668 C11.9157417,5.09397957 11.6476375,5.36208376 11.3199546,5.36208376 L2.97893542,5.36208376 C2.65125253,5.36208376 2.38314834,5.09397957 2.38314834,4.76629668 L2.38314834,4.76629668 C2.38314834,4.43861378 2.65125253,4.17050959 2.97893542,4.17050959 Z M2.97893542,7.7452321 L11.3199546,7.7452321 C11.6476375,7.7452321 11.9157417,7.47712791 11.9157417,7.14944501 L11.9157417,7.14944501 C11.9157417,6.82176212 11.6476375,6.55365793 11.3199546,6.55365793 L2.97893542,6.55365793 C2.65125253,6.55365793 2.38314834,6.82176212 2.38314834,7.14944501 L2.38314834,7.14944501 C2.38314834,7.47712791 2.65125253,7.7452321 2.97893542,7.7452321 Z M2.97893542,10.1283804 L5.95787085,10.1283804 C6.28555374,10.1283804 6.55365793,9.86027625 6.55365793,9.53259335 L6.55365793,9.53259335 C6.55365793,9.20491046 6.28555374,8.93680627 5.95787085,8.93680627 L2.97893542,8.93680627 C2.65125253,8.93680627 2.38314834,9.20491046 2.38314834,9.53259335 L2.38314834,9.53259335 C2.38314834,9.86027625 2.65125253,10.1283804 2.97893542,10.1283804 Z M2.97893542,12.5115288 L5.95787085,12.5115288 C6.28555374,12.5115288 6.55365793,12.2434246 6.55365793,11.9157417 L6.55365793,11.9157417 C6.55365793,11.5880588 6.28555374,11.3199546 5.95787085,11.3199546 L2.97893542,11.3199546 C2.65125253,11.3199546 2.38314834,11.5880588 2.38314834,11.9157417 L2.38314834,11.9157417 C2.38314834,12.2434246 2.65125253,12.5115288 2.97893542,12.5115288 Z M2.38314834,2.38314834 L2.38314834,2.38314834 C2.38314834,2.71083123 2.65125253,2.97893542 2.97893542,2.97893542 L11.3199546,2.97893542 C11.6476375,2.97893542 11.9157417,2.71083123 11.9157417,2.38314834 L11.9157417,2.38314834 C11.9157417,2.05546544 11.6476375,1.78736125 11.3199546,1.78736125 L2.97893542,1.78736125 C2.65125253,1.78736125 2.38314834,2.05546544 2.38314834,2.38314834 Z" id="Combined-Shape" fill="#FFFFFF"></path>
                    <path d="M9.18107897,10.8254513 L8.75807014,10.4024425 C8.52571318,10.1700855 8.15036732,10.1700855 7.91801035,10.4024425 L7.91801035,10.4024425 C7.68565339,10.6347995 7.68565339,11.0101453 7.91801035,11.2425023 L8.76402801,12.0885199 C8.99638498,12.3208769 9.37173084,12.3208769 9.6040878,12.0885199 L11.4927329,10.1998749 C11.7250898,9.96751792 11.7250898,9.59217206 11.4927329,9.3598151 L11.4927329,9.3598151 C11.2603759,9.12745813 10.88503,9.12745813 10.6526731,9.3598151 L9.18107897,10.8254513 Z" id="Path" fill="#FFFFFF"></path>
                </g>
                <path d="M134.955606,25.7160357 C134.634948,44.51399 106.683842,44.5112981 106.365874,25.7155871 C106.686533,6.91808147 134.637638,6.92077336 134.955606,25.7160357 Z" id="Stroke-176" stroke="#F0C66C" stroke-width="0.223420157"></path>
                <line x1="0" y1="148.775675" x2="164" y2="148.775675" id="Stroke-184" stroke="#315782" stroke-width="0.446840313" stroke-linecap="round"></line>
            </g>
        </g>
    </g>
</svg>