<svg width="12" height="12" viewBox="0 0 12 12" fill="none" xmlns="http://www.w3.org/2000/svg">
<path fill-rule="evenodd" clip-rule="evenodd" d="M9.99996 0.666672H1.99996C1.26663 0.666672 0.666626 1.26667 0.666626 2.00001V10C0.666626 10.7333 1.26663 11.3333 1.99996 11.3333H9.99996C10.7333 11.3333 11.3333 10.7333 11.3333 10V2.00001C11.3333 1.26667 10.7333 0.666672 9.99996 0.666672ZM4.33329 5.66667C4.33329 6.22 3.88663 6.66667 3.33329 6.66667H2.66663V7.5C2.66663 7.77334 2.43996 8 2.16663 8C1.89329 8 1.66663 7.77334 1.66663 7.5V4.66667C1.66663 4.3 1.96663 4 2.33329 4H3.33329C3.88663 4 4.33329 4.44667 4.33329 5V5.66667ZM7.66663 7C7.66663 7.55334 7.21996 8 6.66663 8H5.33329C5.14663 8 4.99996 7.85334 4.99996 7.66667V4.33334C4.99996 4.14667 5.14663 4 5.33329 4H6.66663C7.21996 4 7.66663 4.44667 7.66663 5V7ZM10.3333 4.5C10.3333 4.77334 10.1066 5 9.83329 5H9.33329V5.66667H9.83329C10.1066 5.66667 10.3333 5.89334 10.3333 6.16667C10.3333 6.44 10.1066 6.66667 9.83329 6.66667H9.33329V7.5C9.33329 7.77334 9.10663 8 8.83329 8C8.55996 8 8.33329 7.77334 8.33329 7.5V4.66667C8.33329 4.3 8.63329 4 8.99996 4H9.83329C10.1066 4 10.3333 4.22667 10.3333 4.5ZM2.66663 5.66667H3.33329V5H2.66663V5.66667ZM5.99996 7H6.66663V5H5.99996V7Z" fill="white"/>
</svg>
