<?xml version="1.0" encoding="UTF-8"?>
<svg width="20px" height="20px" viewBox="0 0 20 20" version="1.1" xmlns="http://www.w3.org/2000/svg" xmlns:xlink="http://www.w3.org/1999/xlink">
    <title>Time</title>
    <g id="UI-Elements-for-Dev." stroke="none" stroke-width="1" fill="none" fill-rule="evenodd">
        <g id="UI-Elements" transform="translate(-731, -54)">
            <g id="Time" transform="translate(731, 54)">
                <rect id="Size" fill="#D8D8D8" opacity="0" x="0" y="0" width="20" height="20"></rect>
                <path d="M9.99166667,1.66666667 C5.39166667,1.66666667 1.66666667,5.4 1.66666667,10 C1.66666667,14.6 5.39166667,18.3333333 9.99166667,18.3333333 C14.6,18.3333333 18.3333333,14.6 18.3333333,10 C18.3333333,5.4 14.6,1.66666667 9.99166667,1.66666667 Z M10,16.6666667 C6.31666667,16.6666667 3.33333333,13.6833333 3.33333333,10 C3.33333333,6.31666667 6.31666667,3.33333333 10,3.33333333 C13.6833333,3.33333333 16.6666667,6.31666667 16.6666667,10 C16.6666667,13.6833333 13.6833333,16.6666667 10,16.6666667 Z M10.4166667,5.83333333 L9.16666667,5.83333333 L9.16666667,10.8333333 L13.5416667,13.4583333 L14.1666667,12.4333333 L10.4166667,10.2083333 L10.4166667,5.83333333 Z" id="Shape" fill="#F3962F"></path>
            </g>
        </g>
    </g>
</svg>