<?xml version="1.0" encoding="UTF-8"?>
<svg width="48px" height="48px" viewBox="0 0 48 48" version="1.1" xmlns="http://www.w3.org/2000/svg" xmlns:xlink="http://www.w3.org/1999/xlink">
    <title>Icons/content/edit-24px</title>
    <g id="UI-Elements-for-Dev" stroke="none" stroke-width="1" fill="none" fill-rule="evenodd">
        <g id="UI-Elements" transform="translate(-695, -234)">
            <g id="Icons/content/edit-24px" transform="translate(695, 234)">
                <rect id="Size" fill="#D8D8D8" opacity="0" x="0" y="0" width="48" height="48"></rect>
                <path d="M32,22 C35.32,22 37.98,19.32 37.98,16 C37.98,12.68 35.32,10 32,10 C28.68,10 26,12.68 26,16 C26,19.32 28.68,22 32,22 Z M32,26 C31.42,26 30.76,26.04 30.06,26.1 C30.1,26.12 30.12,26.16 30.14,26.18 C32.42,27.84 34,30.06 34,33 L34,36 C34,36.7 33.86,37.38 33.64,38 L44,38 C45.1,38 46,37.1 46,36 L46,33 C46,28.34 36.66,26 32,26 Z" id="Combined-Shape" fill="#F3962F" opacity="0.5"></path>
                <path d="M16,22 C19.32,22 21.98,19.32 21.98,16 C21.98,12.68 19.32,10 16,10 C12.68,10 10,12.68 10,16 C10,19.32 12.68,22 16,22 Z M16,26 C11.34,26 2,28.34 2,33 L2,36 C2,37.1 2.9,38 4,38 L28,38 C29.1,38 30,37.1 30,36 L30,33 C30,28.34 20.66,26 16,26 Z" id="Combined-Shape" fill="#F3962F"></path>
            </g>
        </g>
    </g>
</svg>