<?xml version="1.0" encoding="UTF-8"?>
<svg width="72px" height="72px" viewBox="0 0 72 72" version="1.1" xmlns="http://www.w3.org/2000/svg" xmlns:xlink="http://www.w3.org/1999/xlink">
    <title>Number of courses by the CBP provider</title>
    <g id="Icons-" stroke="none" stroke-width="1" fill="none" fill-rule="evenodd">
        <g id="Dashboard-icons-" transform="translate(-66.000000, -409.000000)">
            <g id="Number-of-courses-by-the-CBP-provider" transform="translate(66.000000, 409.000000)">
                <rect id="Rectangle" fill="#FFFFFF" opacity="0" x="0" y="0" width="72" height="72"></rect>
                <g id="Group-7" transform="translate(5.000000, 7.000000)" fill-rule="nonzero">
                    <g id="icon">
                        <g id="Group-3" transform="translate(0.000000, 14.000000)">
                            <path d="M53.6597031,3.19544413 L53.6597031,37.5481955 L2.34117187,37.5481955 L2.34117187,3.19544413 C2.34117187,1.43111337 3.76873437,0 5.52989062,0 L50.4710937,0 C52.2321406,0 53.6597031,1.43111337 53.6597031,3.19544413 Z" id="Path" fill="#DFEAEF"></path>
                            <polygon id="Path" fill="#B4D0D5" points="2.34117187 32.4460987 53.6597031 32.4460987 53.6597031 37.5481955 2.34117187 37.5481955"></polygon>
                            <polygon id="Path" fill="#55A1FF" transform="translate(28.000438, 17.238765) rotate(90.000000) translate(-28.000438, -17.238765) " points="14.7148876 -4.4767664 41.2859874 -4.4767664 41.2859874 38.9542961 14.7148876 38.9542961"></polygon>
                            <path d="M56,34.9157666 L0.000984375001,34.9157666 L0.000984375001,37.3529385 C0.000984375001,39.9194471 2.076375,42 4.63651563,42 L51.3644688,42 C53.9246094,42 56,39.9194471 56,37.3529385 L56,34.9157666 Z" id="Path" fill="#DFEAEF"></path>
                            <path d="M31.2325625,38.1780954 L25.1588594,38.1780954 C23.4143281,38.1780954 22,36.760359 22,35.0113788 L22,34.9157666 L34.3913125,34.9157666 L34.3913125,35.0113788 C34.3913125,36.760359 32.9770937,38.1780954 31.2325625,38.1780954 Z" id="Path" fill="#B4D0D5"></path>
                            <path d="M9.70232813,42 L4.63651563,42 C2.0755,42 0,39.9194471 0,37.3530482 L0,34.9157666 L5.0658125,34.9157666 L5.0658125,37.3530482 C5.0658125,39.9194471 7.1413125,42 9.70232813,42 Z" id="Path" fill="#B4D0D5"></path>
                            <path d="M27.4110156,27.4184523 L10.4934375,27.4184523 C10.0267344,27.4184523 9.64840625,27.0391831 9.64840625,26.5713191 C9.64840625,26.1034552 10.0267344,25.724186 10.4934375,25.724186 L27.4109062,25.724186 C27.8776094,25.724186 28.2559375,26.1034552 28.2559375,26.5713191 C28.2559375,27.0391831 27.8777187,27.4184523 27.4110156,27.4184523 L27.4110156,27.4184523 Z" id="Path" fill="#665E66"></path>
                            <path d="M21.8047812,23.8554712 L10.4934375,23.8554712 C10.0267344,23.8554712 9.64840625,23.4762021 9.64840625,23.0083381 C9.64840625,22.5404741 10.0267344,22.1612049 10.4934375,22.1612049 L21.8047812,22.1612049 C22.2714844,22.1612049 22.6498125,22.5404741 22.6498125,23.0083381 C22.6498125,23.4762021 22.2714844,23.8554712 21.8047812,23.8554712 Z" id="Path" fill="#665E66"></path>
                        </g>
                        <g id="Group-2" transform="translate(8.000000, 0.000000)">
                            <path d="M32.4937297,17.1475557 L32.4937297,21.9361978 C32.4937297,24.7958062 30.7937407,27.3924596 28.1643151,28.4896091 C22.9595567,30.6635541 17.0870668,30.6635541 11.8823085,28.4896091 C9.25288283,27.3924596 7.55289392,24.7958062 7.55289392,21.9361978 L7.55289392,17.1475557 L32.4937297,17.1475557 Z" id="Path" fill="#665E66"></path>
                            <path d="M23.2918895,29.8659972 C19.4656278,30.4644124 15.511908,30.0066066 11.8818705,28.4900492 C9.25244483,27.3928996 7.55245592,24.7962463 7.55245592,21.9366379 L7.55245592,17.1479958 L14.0893924,17.1479958 L14.0893924,21.9366379 C14.0893924,24.7962463 15.7893813,27.3928996 18.418807,28.4900492 C19.9946228,29.148537 21.6314301,29.6075531 23.2918895,29.8659972 Z" id="Path" fill="#454045"></path>
                            <path d="M32.4937297,17.1475557 L32.4937297,19.0675675 L22.2862407,24.5011645 C20.870514,25.253722 19.1762191,25.253722 17.7606019,24.5011645 L7.55311292,19.0675675 L7.55311292,17.1475557 L32.4937297,17.1475557 Z" id="Path" fill="#454045"></path>
                            <path d="M38.6221877,9.27287791 L22.2625456,0.564995729 C20.8473665,-0.18833191 19.152743,-0.18833191 17.7374544,0.564995729 L1.37781227,9.27287791 C-0.459270757,10.2506525 -0.459270757,12.8950559 1.37781227,13.8728305 L17.7374544,22.5808227 C19.1526335,23.3341503 20.847257,23.3341503 22.2625456,22.5808227 L38.6221877,13.8728305 C40.4592708,12.8950559 40.4592708,10.2507625 38.6221877,9.27287791 Z" id="Path" fill="#665E66"></path>
                            <path d="M27.3009068,31.8909709 C26.927183,31.8909709 26.6240868,31.5864272 26.6240868,31.2109186 L26.6240868,20.1673577 L19.5144649,12.021253 C19.2680897,11.7388239 19.2961217,11.309184 19.5770989,11.0615222 C19.8579666,10.8138604 20.2857835,10.8421363 20.5322682,11.1244554 L27.8098633,19.4629903 C27.9180493,19.5870962 27.9778364,19.7464096 27.9778364,19.9113341 L27.9778364,31.2108086 C27.9777269,31.5865372 27.6747401,31.8909709 27.3009068,31.8909709 L27.3009068,31.8909709 Z" id="Path" fill="#EAB14D"></path>
                            <path d="M26.339058,31.365831 L24.9833374,33.7251647 C24.1469757,35.1806593 25.1923731,37 26.8650965,37 L27.7367172,37 C29.4093311,37 30.4547285,35.1806593 29.6184763,33.7251647 L28.2627556,31.365831 C27.8352673,30.6218553 26.7665464,30.6218553 26.339058,31.365831 Z" id="Path" fill="#F4DD45"></path>
                        </g>
                    </g>
                    <g id="admin" transform="translate(37.000000, 22.000000)">
                        <path d="M6.39578561,24 C3.19291267,24 1.07283411,26.5700544 0.614190441,29.7463988 L0,34 L25,34 L24.2834448,29.7463988 C23.7545416,26.6067294 21.7047217,24 18.5018479,24 L6.39578561,24 Z" id="rect4878" fill="#55A1FF"></path>
                        <path d="M9,21 L9,26.183342 C9,27.7437977 10.5609782,29 12.5,29 C14.4390226,29 16,27.7437977 16,26.183342 L16,21 C14.9452633,21.4196637 13.7605079,21.6615763 12.5,21.6615763 C11.2394921,21.6615763 10.0547367,21.4196637 9,21 Z" id="rect4883" fill="#F0C087"></path>
                        <path d="M23,8.21297866 C23,13.459149 17.4746098,19 12.5304417,19 C7.39064712,18.8377546 3,14.3598517 3,5.66705758 C4.6338059,3.36718949 8.29334152,-0.0953604796 12.5304417,0.00200968253 C17.2014291,0.109408306 19.6227933,1.29386825 19.6227933,4.62799885 C21.4495842,4.10863012 23,5.93743591 23,8.21297866 L23,8.21297866 Z" id="path4860" fill="#666666"></path>
                        <path d="M14,21 C13.4042376,21.277752 12.7350348,21.4378604 12.0230437,21.4378604 C11.9271214,21.4378604 11.8339796,21.4281221 11.7396855,21.4224166 C11.2974355,21.4720058 10.9734117,21.8388957 11.0017215,22.2580081 C11.0300314,22.6771205 11.4008012,23.0022804 11.8461495,22.9985595 C12.3744038,23.0111328 13.1288823,22.9445168 14,22.6749909 L14,21 Z" id="path4899" fill="#D29B6E"></path>
                        <path d="M18.0233237,10 C18.0233237,12.2832675 18,14.6776326 18,17 L19.8095979,17 C21.5769443,17 23,15.4388554 23,13.5000118 C23,11.5611446 21.5769443,10 19.8095979,10 L18.0233237,10 Z" id="rect4866" fill="#55A1FF"></path>
                        <path d="M14.5404931,7.002489 C13.7397897,6.99596773 13.2972874,7.26694835 12.8040578,7.82203909 C11.4947502,9.20309252 9.72387456,9.96321208 7.43881187,9.71994687 C5.90825547,9.37727572 5.38538307,11.6631992 6.93322057,11.9150725 C9.73964859,12.2385711 12.3075428,11.6779156 14.4320932,9.53969889 C14.4695543,9.50296238 14.592382,9.4005784 14.6758474,9.4005784 C15.2217765,9.39623088 15.8472069,9.40166528 15.8472069,9.40166528 C17.3700927,9.41688158 17.3912401,7.01624888 15.8683544,7.00205425 C15.387542,7.00111953 14.959719,6.99770673 14.5404931,7.002489 Z" id="path4944" fill="#4D4D4D"></path>
                        <path d="M14.3669111,9 C13.0528784,10.5378666 10.3706753,12.6535251 6,11.4552933 L6,15.8611117 C6,19.2620453 8.67599989,22 12,22 C15.3239986,22 18,19.2620453 18,15.8611117 L18,9 L14.3669111,9 Z" id="path4868" fill="#F0C087"></path>
                        <g id="Group" transform="translate(9.000000, 15.000000)">
                            <path d="M1.10382207,17.9739678 C0.142452442,17.9746602 -0.357500763,19.2278362 0.295539344,20 L15,20 L14.6900327,17.9739678 L1.10382207,17.9739678 Z" id="path4934" fill="#488BFF"></path>
                            <path d="M11.2556386,0 C10.9612259,0.238188711 10.6276262,0.420344195 10.2654654,0.532422109 L11.1576978,2.61028332 L3.70987353,2.61028332 C3.51016495,2.60556375 3.32375319,2.71947018 3.22263328,2.90801024 C3.12151336,3.0965503 3.12151336,3.33021224 3.22263328,3.5187523 C3.32375319,3.70729236 3.51016495,3.8211988 3.70987353,3.81647922 L12.0284043,3.81647922 C12.2170706,3.81695496 12.3928476,3.71177079 12.4943075,3.53768486 C12.5957674,3.36359893 12.6088081,3.14480788 12.5288722,2.95777147 L11.2556386,0 Z" id="path4232" fill="#666666"></path>
                        </g>
                    </g>
                </g>
            </g>
        </g>
    </g>
</svg>