<?xml version="1.0" encoding="UTF-8"?>
<!DOCTYPE svg PUBLIC "-//W3C//DTD SVG 1.1//EN" "http://www.w3.org/Graphics/SVG/1.1/DTD/svg11.dtd">
<svg xmlns="http://www.w3.org/2000/svg" version="1.1" width="24px" height="24px" style="shape-rendering:geometricPrecision; text-rendering:geometricPrecision; image-rendering:optimizeQuality; fill-rule:evenodd; clip-rule:evenodd" xmlns:xlink="http://www.w3.org/1999/xlink">
<g><path style="opacity:0.904" fill="#0174b6" d="M 7.5,2.5 C 17.6591,1.15811 21.8257,5.49144 20,15.5C 17.1034,20.1549 12.9367,21.6549 7.5,20C 2.84511,17.1034 1.34511,12.9367 3,7.5C 4.02496,5.31305 5.52496,3.64638 7.5,2.5 Z"/></g>
<g><path style="opacity:1" fill="#b7d6e9" d="M 15.5,7.5 C 16.525,7.89657 16.6917,8.56323 16,9.5C 14,11.5 12,13.5 10,15.5C 9,14.8333 8,14.1667 7,13.5C 7.25686,11.0254 8.25686,11.0254 10,13.5C 12.0396,11.6298 13.8729,9.62976 15.5,7.5 Z"/></g>
</svg>
