<?xml version="1.0" encoding="UTF-8"?>
<svg width="72px" height="72px" viewBox="0 0 72 72" version="1.1" xmlns="http://www.w3.org/2000/svg" xmlns:xlink="http://www.w3.org/1999/xlink">
    <title>Average daily time spent on the iGOT platform</title>
    <g id="Icons-" stroke="none" stroke-width="1" fill="none" fill-rule="evenodd">
        <g id="Dashboard-icons-" transform="translate(-66.000000, -1131.000000)">
            <g id="Average-daily-time-spent-on-the-iGOT-platform" transform="translate(66.000000, 1131.000000)">
                <rect id="Rectangle" fill="#FFFFFF" opacity="0" x="0" y="0" width="72" height="72"></rect>
                <g id="icon" transform="translate(8.000000, 8.000000)" fill-rule="nonzero">
                    <path d="M49.328125,24.71875 C49.328125,38.303125 38.303125,49.328125 24.71875,49.328125 C11.134375,49.328125 0,38.303125 0,24.71875 C0,11.134375 11.134375,0 24.71875,0 C38.303125,0 49.328125,11.134375 49.328125,24.71875 Z" id="Path" fill="#F25555"></path>
                    <path d="M49.328125,24.71875 C49.328125,38.303125 38.303125,49.328125 24.71875,49.328125 L24.71875,0 C38.303125,0 49.328125,11.134375 49.328125,24.71875 Z" id="Path" fill="#D93752"></path>
                    <path d="M46.046875,24.71875 C46.046875,36.4983281 36.4985469,46.046875 24.71875,46.046875 C12.9389531,46.046875 3.28125,36.4983281 3.28125,24.71875 C3.28125,12.9389531 12.9389531,3.28125 24.71875,3.28125 C36.4985469,3.28125 46.046875,12.9389531 46.046875,24.71875 Z" id="Path" fill="#F9F5F3"></path>
                    <path d="M46.046875,24.71875 C46.046875,36.4983281 36.4985469,46.046875 24.71875,46.046875 L24.71875,3.28125 C36.4985469,3.28125 46.046875,12.9389531 46.046875,24.71875 Z" id="Path" fill="#F0DBD8"></path>
                    <polygon id="Path" fill="#80664D" points="23.078125 6.671875 26.359375 6.671875 26.359375 9.953125 23.078125 9.953125"></polygon>
                    <polygon id="Path" fill="#80664D" points="23.078125 39.484375 26.359375 39.484375 26.359375 42.765625 23.078125 42.765625"></polygon>
                    <polygon id="Path" fill="#80664D" transform="translate(13.114580, 13.117453) rotate(-45.000000) translate(-13.114580, -13.117453) " points="11.4743663 11.4772399 14.7547927 11.4772399 14.7547927 14.7576663 11.4743663 14.7576663"></polygon>
                    <polygon id="Path" fill="#80664D" transform="translate(13.112094, 36.317670) rotate(-45.000000) translate(-13.112094, -36.317670) " points="11.4718805 34.6774573 14.752307 34.6774573 14.752307 37.9578837 11.4718805 37.9578837"></polygon>
                    <polygon id="Path" fill="#594135" transform="translate(36.314797, 13.119830) rotate(-45.000000) translate(-36.314797, -13.119830) " points="34.6745837 11.4796163 37.9550101 11.4796163 37.9550101 14.7600427 34.6745837 14.7600427"></polygon>
                    <polygon id="Path" fill="#80664D" points="6.671875 23.078125 9.953125 23.078125 9.953125 26.359375 6.671875 26.359375"></polygon>
                    <polygon id="Path" fill="#594135" points="39.484375 23.078125 42.765625 23.078125 42.765625 26.359375 39.484375 26.359375"></polygon>
                    <polygon id="Path" fill="#80664D" points="32.921875 23.078125 32.921875 26.359375 23.078125 26.359375 23.078125 13.234375 26.359375 13.234375 26.359375 23.078125"></polygon>
                    <path d="M42.765625,29.640625 C35.5139531,29.640625 29.640625,35.5139531 29.640625,42.765625 C29.640625,50.0170781 35.5139531,56 42.765625,56 C50.0172969,56 56,50.0170781 56,42.765625 C56,35.5139531 50.0172969,29.640625 42.765625,29.640625 Z" id="Path" fill="#57D9AD"></path>
                    <path d="M56,42.765625 C56,50.0170781 50.0172969,56 42.765625,56 L42.765625,29.640625 C50.0172969,29.640625 56,35.5139531 56,42.765625 Z" id="Path" fill="#26BFA6"></path>
                    <polygon id="Path" fill="#F9F5F3" points="48.8358281 40.6327031 42.765625 46.7358281 41.125 48.3764531 36.6954219 43.9139531 38.9920781 41.6170781 41.125 43.7170781 42.765625 42.0764531 46.5391719 38.3358281"></polygon>
                    <polygon id="Path" fill="#F0DBD8" points="48.8358281 40.6327031 42.765625 46.7358281 42.765625 42.0764531 46.5391719 38.3358281"></polygon>
                    <g id="Group" transform="translate(24.718750, 6.671875)" fill="#594135">
                        <polygon id="Path" points="0 0 1.640625 0 1.640625 3.28125 0 3.28125"></polygon>
                        <polygon id="Path" points="0 32.8125 1.640625 32.8125 1.640625 36.09375 0 36.09375"></polygon>
                        <polygon id="Path" points="8.203125 16.40625 8.203125 19.6875 0 19.6875 0 6.5625 1.640625 6.5625 1.640625 16.40625"></polygon>
                    </g>
                </g>
            </g>
        </g>
    </g>
</svg>