<?xml version="1.0" encoding="UTF-8"?>
<svg width="72px" height="72px" viewBox="0 0 72 72" version="1.1" xmlns="http://www.w3.org/2000/svg" xmlns:xlink="http://www.w3.org/1999/xlink">
    <title>02 users-registered@2x</title>
    <g id="Ideations" stroke="none" stroke-width="1" fill="none" fill-rule="evenodd">
        <g id="08-CEO-Dashboard---Color-Variation-(Blue-with-Clipart-based)" transform="translate(-74.000000, -321.000000)">
            <g id="02-users-registered" transform="translate(74.000000, 321.000000)">
                <rect id="Rectangle" fill="#FFFFFF" opacity="0" x="0" y="0" width="72" height="72"></rect>
                <g id="icon" transform="translate(8.000000, 15.000000)" fill-rule="nonzero">
                    <ellipse id="Oval" fill="#555555" cx="48.0003125" cy="15.6385318" rx="3.5555625" ry="3.12759641"></ellipse>
                    <path d="M47.1110937,15.6383119 C47.1110937,14.3264235 48.031375,13.2069587 49.3332656,12.7426133 C48.9209219,12.5954918 48.4722656,12.5107155 47.9999844,12.5107155 C46.0362656,12.5107155 44.4444219,13.9110087 44.4444219,15.6383119 C44.4444219,17.3656151 46.0362656,18.7659083 47.9999844,18.7659083 C48.4722656,18.7659083 48.9210312,18.681132 49.3332656,18.5340105 C48.031375,18.0696652 47.1110937,16.9502003 47.1110937,15.6383119 Z" id="Path" fill="#403F3F"></path>
                    <path d="M54.5258437,33.4275886 L51.6492812,31.9817734 C51.0469531,31.6790638 50.6664375,31.0601199 50.6665469,30.3830091 L50.6666562,27.7021651 L45.3333125,27.7021651 L45.3333125,30.3831191 C45.3333125,31.0600099 44.9529062,31.6788439 44.3505781,31.9816635 L41.4740156,33.4275886 C40.5705781,33.881708 39.9999687,34.8099589 39.9999687,35.8254051 L39.9999687,41.1063853 C39.9999687,41.5998691 40.397875,42 40.8888594,42 L55.1111094,42 C55.6020937,42 56,41.5998691 56,41.1063853 L56,35.8254051 C56,34.8099589 55.4292812,33.881708 54.5258437,33.4275886 Z" id="Path" fill="#E6AF78"></path>
                    <path d="M47.9999844,31.2765139 C48.957125,31.2765139 49.8737969,31.0781527 50.7142344,30.7250831 C50.6921406,30.6124879 50.6664375,30.5004424 50.6664375,30.3830091 L50.6665469,27.7021651 L45.3332031,27.7021651 L45.3332031,30.3831191 C45.3332031,30.5011022 45.3075,30.6136974 45.2851875,30.7268424 C46.1262812,31.0780428 47.042625,31.2765139 47.9999844,31.2765139 Z" id="Path" fill="#D29B6E"></path>
                    <path d="M54.5258437,33.4275886 L52.4765937,32.3975181 C51.5263437,33.8726916 49.8782812,34.8509726 47.9999844,34.8509726 C46.1216875,34.8509726 44.4735156,33.8725816 43.5232656,32.3974082 L41.4740156,33.4275886 C40.5705781,33.881708 39.9999687,34.8099589 39.9999687,35.8254051 L39.9999687,41.1062754 C39.9999687,41.5997591 40.3979844,41.99989 40.8888594,41.99989 L55.1111094,41.99989 C55.6019844,41.99989 56,41.5997591 56,41.1062754 L56,35.8254051 C56,34.8099589 55.4292812,33.881708 54.5258437,33.4275886 Z" id="Path" fill="#D5DCED"></path>
                    <ellipse id="Oval" fill="#1F1F1F" cx="48.0003125" cy="21.4464225" rx="6.22223438" ry="6.25530277"></ellipse>
                    <path d="M54.1639219,20.5796371 C53.8220156,18.0305207 51.8792969,15.8993481 49.3808438,15.3447286 C48.9250781,15.2435689 48.4764219,15.1943085 48.0388125,15.1914964 C45.0577969,15.172867 44.062375,19.3108516 46.7422813,20.6235097 C46.8863281,20.6941016 46.9777656,20.725769 46.9777656,20.725769 L50.0741719,26.3615781 C50.0741719,26.3615781 50.8992969,26.4182056 51.7314219,26.4440453 C53.4515625,25.1438123 54.4851563,22.9749247 54.1639219,20.5796371 Z" id="Path" fill="#403F3F"></path>
                    <path d="M47.9999844,29.4892845 L47.9999844,29.4892845 C45.2883594,29.4892845 43.0494531,27.4549834 42.7109375,24.8216404 C42.6619375,24.4400922 42.8442656,24.0660209 43.1859531,23.8927298 C43.5952344,23.6851323 44.1899062,23.3352515 44.7593125,22.8245045 C45.3933594,22.2557007 45.7653437,21.6558892 45.9754531,21.2156243 C46.1563594,20.8363851 46.5723125,20.6219703 46.9776562,20.725989 C50.1074219,21.5284499 52.2381562,23.165479 53.0111094,23.8336833 C53.2187031,24.0131319 53.33825,24.2776867 53.3169219,24.5521376 C53.1016719,27.3147891 50.8034844,29.4892845 47.9999844,29.4892845 Z" id="Path" fill="#F0C087"></path>
                    <path d="M53.0111094,23.8335733 C52.2381562,23.1652591 50.1073125,21.5283399 46.9776562,20.725879 C46.5723125,20.6219703 46.1563594,20.8363851 45.9754531,21.2155143 C45.8163125,21.5490117 45.553375,21.9738828 45.163125,22.4075503 C45.1630156,22.4085399 45.1627969,22.4095295 45.1626875,22.4105192 C45.0416094,22.5485143 44.9126562,22.6867293 44.7593125,22.8243946 C44.1899062,23.3352515 43.5952344,23.6850224 43.1859531,23.8926198 C42.8442656,24.0659109 42.6619375,24.4400922 42.7109375,24.8215305 C43.015,27.1864701 44.8558906,29.0548472 47.191375,29.4137445 C46.1271562,28.685834 45.3333125,27.6991963 45.3333125,25.9147158 L45.3333125,24.6406524 C45.5352187,24.490782 45.7385469,24.3413514 45.9428594,24.1580543 C46.4369062,23.7148205 46.8681719,23.2022044 47.214125,22.6503338 C49.6083437,23.4014451 51.2315781,24.6524177 51.8469219,25.1843862 C52.0153594,25.3329371 52.4333906,25.7203131 52.9225156,26.1815797 C53.1329531,25.6724821 53.2720781,25.1262193 53.3168125,24.5521376 C53.33825,24.2776867 53.2187031,24.013022 53.0111094,23.8335733 Z" id="Path" fill="#E6AF78"></path>
                    <path d="M55.4581563,34.2145456 C55.8006094,34.671304 56,35.2318611 56,35.8254051 L56,41.1062754 C56,41.5997591 55.6019844,41.99989 55.1111094,41.99989 L52.4444375,41.99989 L52.4444375,37.4971804 C52.4444375,36.9542163 52.6899844,36.4407205 53.111625,36.1016153 L55.4581563,34.2145456 Z" id="Path" fill="#C7CFE2"></path>
                    <path d="M2.66667187,18.7660183 L2.66667187,19.3930989 C2.66667187,20.1614734 2.7899375,20.9247899 3.03154687,21.6538 L4.44445312,25.9149357 L7.111125,25.9149357 L7.111125,16.0851742 L5.33334375,16.0851742 C3.86060937,16.0851742 2.66667187,17.285347 2.66667187,18.7660183 Z" id="Path" fill="#1F1F1F"></path>
                    <path d="M14.8374844,20.6223002 L13.3333594,25.9148258 L6.22223438,19.659633 C5.240375,19.659633 4.44445313,18.8594811 4.44445313,17.8724036 L4.44445313,17.8724036 C4.44445313,16.3918423 5.63839063,15.1915595 7.111125,15.1915595 L13.3333594,15.1915595 C14.3152188,15.1915595 15.1111406,15.9917114 15.1111406,16.9787889 L15.1111406,18.6583711 C15.1111406,19.322617 15.0190469,19.9835642 14.8374844,20.6223002 Z" id="Path" fill="#403F3F"></path>
                    <rect id="Rectangle" fill="#E6AF78" x="6.22223438" y="28.5957798" width="5.33334375" height="3.95501741"></rect>
                    <path d="M6.22223438,30.2372071 C7.04670313,30.5740032 7.94565625,30.7635678 8.88890625,30.7635678 C9.83215625,30.7635678 10.7311094,30.5740032 11.5555781,30.2372071 L11.5555781,28.5956698 L6.22223438,28.5956698 L6.22223438,30.2372071 Z" id="Path" fill="#D29B6E"></path>
                    <path d="M15.843625,31.9952981 L11.55525,30.7635678 L8.88890625,32.5425505 L6.22223437,30.7635678 L1.93407812,31.9952981 C0.78925,32.3240673 0,33.3760191 0,34.5730031 L0,41.1063853 C0,41.5998691 0.398015625,42 0.888890625,42 L16.8889219,42 C17.3797969,42 17.7778125,41.5998691 17.7778125,41.1063853 L17.7778125,34.5730031 C17.7778125,33.3760191 16.9884531,32.3240673 15.843625,31.9952981 Z" id="Path" fill="#D5DCED"></path>
                    <polygon id="Path" fill="#AFB9D2" points="9.77779687 41.99989 8.00001562 41.99989 8.44440625 32.5507972 9.33329687 32.5507972"></polygon>
                    <path d="M8.88890625,29.4892845 L8.88890625,29.4892845 C5.94332813,29.4892845 3.5555625,27.088829 3.5555625,24.1275964 L3.5555625,23.0807027 C3.5555625,22.6066812 3.7428125,22.1521219 4.07629688,21.8169752 L5.68815625,20.1965495 C6.02951563,19.8533759 6.49621875,19.6561144 6.97867188,19.6713983 C9.820125,19.7614525 12.3352031,20.3734691 13.7100469,21.7234024 C14.0465938,22.053821 14.22225,22.5160772 14.22225,22.9889991 L14.22225,24.1275964 C14.22225,27.088829 11.834375,29.4892845 8.88890625,29.4892845 Z" id="Path" fill="#F0C087"></path>
                    <path d="M6.22223438,23.3023745 C6.22223438,22.2715344 7.08334375,21.4521402 8.10665625,21.5177841 C9.90117188,21.6329083 12.5637969,21.9344085 14.1975313,22.7243344 C14.1441563,22.3472943 13.9830469,21.9914758 13.7100469,21.7232924 C12.3352031,20.3733592 9.820125,19.7614525 6.97867188,19.6712883 L6.9785625,19.6712883 L6.9785625,19.6712883 C6.49621875,19.6560044 6.02940625,19.8533759 5.68815625,20.1964395 L4.07629688,21.8169752 C3.7428125,22.1521219 3.5555625,22.6067911 3.5555625,23.0808126 L3.5555625,24.1277064 C3.5555625,26.5729141 5.18525,28.6316255 7.41114063,29.2762992 C6.67023438,28.3572846 6.22223438,27.1908684 6.22223438,25.9149357 C6.22223438,25.9149357 6.22223438,23.3023745 6.22223438,23.3023745 Z" id="Path" fill="#E6AF78"></path>
                    <path d="M3.5555625,37.2357044 C3.5555625,36.5247271 3.27457813,35.8427782 2.77451563,35.3400581 L0.486390625,33.0397728 C0.180578125,33.479158 0,34.0082677 0,34.5730031 L0,41.1063853 C0,41.5998691 0.398015625,42 0.888890625,42 L3.5555625,42 L3.5555625,37.2357044 Z" id="Path" fill="#C7CFE2"></path>
                    <path d="M9.33329687,34.3380265 L8.44440625,34.3380265 C8.19896875,34.3380265 8.00001562,34.1380161 8.00001562,33.8911642 L8.00001562,32.5507972 L9.77779687,32.5507972 L9.77779687,33.8911642 C9.77779687,34.1379061 9.57884375,34.3380265 9.33329687,34.3380265 Z" id="Path" fill="#959CB5"></path>
                    <g id="Group" transform="translate(5.239172, 30.053943)" fill="#C7CFE2">
                        <path d="M3.64973437,2.48860779 L2.14309375,3.64556776 C1.88354687,3.84491849 1.50839063,3.76498028 1.35154687,3.47700478 L1.11022302e-16,0.995731383 L0.54403125,0.161493092 C0.664671875,-0.0235633261 0.9218125,-0.055010822 1.08314062,0.095409368 L3.64973437,2.48860779 Z" id="Path"></path>
                        <path d="M3.64973437,2.48860779 L5.156375,3.64556776 C5.41592188,3.84491849 5.79107813,3.76498028 5.94792188,3.47700478 L7.29946875,0.995731383 L6.7554375,0.161493092 C6.63479688,-0.0235633261 6.37765625,-0.055010822 6.21632812,0.095409368 L3.64973437,2.48860779 Z" id="Path"></path>
                    </g>
                    <path d="M28.4445,31.2765139 C34.2599687,31.2765139 39.4809844,28.8859544 41.1904062,28.0147708 C41.5389844,27.8371914 41.7315937,27.4574024 41.6670625,27.0699165 C41.3912187,25.4128754 40.6486719,20.4496688 39.9999687,11.6169909 C39.4723437,4.43200775 34.8264219,0 28.4443906,0 C22.0623594,0 17.4164375,4.43200775 16.8888125,11.6169909 C16.2402187,20.4497788 15.4976719,25.4128754 15.2217187,27.0699165 C15.1571875,27.4574024 15.3497969,27.8370814 15.698375,28.0147708 C17.4080156,28.8859544 22.6290312,31.2765139 28.4445,31.2765139 Z" id="Path" fill="#1F1F1F"></path>
                    <path d="M41.1904062,28.0148807 C41.5389844,27.8371914 41.7315937,27.4575124 41.6670625,27.0700264 C41.3912187,25.4129853 40.6486719,20.4497788 39.9999687,11.6171008 C39.4723437,4.43211771 34.8263125,0.000109956279 28.4443906,0.000109956279 C27.9971562,0.000109956279 27.5584531,0.0218812996 27.1291562,0.0648742048 C22.161125,0.562316412 21.4151875,7.61513208 26.1901719,9.08062937 C26.2661875,9.1039401 26.3082969,9.11493573 26.3082969,9.11493573 L28.0853125,31.2676074 C28.0877187,31.2699165 28.08925,31.2713459 28.0917656,31.273655 C34.0477812,31.3736053 39.4464219,28.9035474 41.1904062,28.0148807 Z" id="Path" fill="#403F3F"></path>
                    <path d="M13.3333594,41.1062754 L13.3333594,36.2862319 C13.3333594,34.8706548 14.1643906,33.5884546 15.4523906,33.016462 L22.9404219,29.6916041 C23.5844219,29.4056078 23.9999375,28.7645627 23.9999375,28.0567741 L23.9999375,24.1275964 L32.8888437,24.1275964 L32.8888437,28.0567741 C32.8888437,28.7645627 33.3043594,29.4057177 33.9483594,29.6916041 L41.4363906,33.016462 C42.7245,33.5883446 43.5554219,34.8706548 43.5554219,36.2862319 L43.5554219,41.1062754 C43.5554219,41.5997591 43.1574062,41.99989 42.6665312,41.99989 L14.22225,41.99989 C13.7312656,41.99989 13.3333594,41.5998691 13.3333594,41.1062754 Z" id="Path" fill="#E6AF78"></path>
                    <path d="M41.4365,33.016462 L35.9133906,30.5641071 C34.7648438,33.5906537 31.8584219,35.7445873 28.4443906,35.7445873 C25.0303594,35.7445873 22.1239375,33.5907637 20.9753906,30.5641071 L15.4522812,33.016462 C14.1642812,33.5883446 13.33325,34.8706548 13.33325,36.2862319 L13.33325,41.1062754 C13.33325,41.5997591 13.7311562,41.99989 14.2221406,41.99989 L42.6665312,41.99989 C43.1575156,41.99989 43.5554219,41.5997591 43.5554219,41.1062754 L43.5554219,36.2862319 C43.5554219,34.8706548 42.7246094,33.5884546 41.4365,33.016462 Z" id="Path" fill="#00C3FF"></path>
                    <path d="M24.0000469,26.7177265 C25.3544375,27.3434877 26.8562656,27.7020551 28.4445,27.7020551 C30.0327344,27.7020551 31.5345625,27.3434877 32.8889531,26.7177265 L32.8889531,24.1275964 L24.0000469,24.1275964 L24.0000469,26.7177265 L24.0000469,26.7177265 Z" id="Path" fill="#D29B6E"></path>
                    <path d="M36.4369687,13.4049899 C35.009625,12.1570961 31.8051562,9.95038354 26.3082969,9.11493573 C25.5475937,8.99926172 24.7804375,9.37564207 24.4420312,10.0703458 C23.8780937,11.2278556 22.6786875,13.0812786 20.2970469,14.7145692 C19.8243281,15.0387203 19.5554844,15.590261 19.5554844,16.1654423 L19.5554844,16.6726706 C19.5554844,21.4322381 23.1281094,25.5880357 27.8526719,25.8955834 C33.0297188,26.2325994 37.3332969,22.1108883 37.3332969,16.9787889 L37.3332969,15.4110323 C37.3332969,14.6429877 37.013375,13.9089195 36.4369687,13.4049899 Z" id="Path" fill="#F0C087"></path>
                    <path d="M36.9348437,14.0212949 C36.7982344,13.7953347 36.6398594,13.5823494 36.4368594,13.4049899 C35.0095156,12.1569862 31.8049375,9.95038354 26.3081875,9.11493573 C25.5474844,8.99926172 24.7804375,9.37564207 24.4419219,10.0702359 C24.3059687,10.3493049 24.1240781,10.6744456 23.905875,11.0217975 C23.2234844,12.1114643 22.1107031,13.4674451 20.3111562,14.7045632 C19.8341719,15.0324528 19.555375,15.5844333 19.555375,16.1653324 L19.555375,16.6725607 C19.555375,21.2660942 22.8867188,25.2864256 27.3659531,25.8386261 C25.8348125,24.2332644 24.8887187,22.0593188 24.8887187,19.659633 L24.8887187,14.0415268 C24.8887187,13.1220724 25.5754844,12.3543577 26.485375,12.2619944 C28.6224531,12.0451606 32.643625,12.026578 36.9348437,14.0212949 Z" id="Path" fill="#E6AF78"></path>
                    <g id="Group" transform="translate(13.333359, 33.506647)" fill="#00AAF0">
                        <path d="M1.32945312,-2.37916005e-30 C0.504,0.668314266 -3.94430453e-31,1.68156138 -3.94430453e-31,2.77958478 L-3.94430453e-31,7.59962824 C-3.94430453e-31,8.09311202 0.398015625,8.49324292 0.888890625,8.49324292 L6.22223437,8.49324292 L6.22223437,6.02923266 C6.22223437,5.31825536 5.94125,4.63630652 5.4411875,4.13358641 L1.32945312,-2.37916005e-30 Z" id="Path"></path>
                        <path d="M28.8927187,-2.37916005e-30 C29.7181719,0.668314266 30.2221719,1.68156138 30.2221719,2.77958478 L30.2221719,7.59962824 C30.2221719,8.09311202 29.8241562,8.49324292 29.3332812,8.49324292 L23.9999375,8.49324292 L23.9999375,6.02923266 C23.9999375,5.31825536 24.2809219,4.63630652 24.7809844,4.13358641 L28.8927187,-2.37916005e-30 Z" id="Path"></path>
                    </g>
                </g>
            </g>
        </g>
    </g>
</svg>