<?xml version="1.0" encoding="UTF-8"?>
<svg width="72px" height="72px" viewBox="0 0 72 72" version="1.1" xmlns="http://www.w3.org/2000/svg" xmlns:xlink="http://www.w3.org/1999/xlink">
    <title>MDOs onboarded</title>
    <g id="Icons-" stroke="none" stroke-width="1" fill="none" fill-rule="evenodd">
        <g id="Dashboard-icons-" transform="translate(-66.000000, -639.000000)">
            <g id="MDOs-onboarded" transform="translate(66.000000, 639.000000)">
                <rect id="Rectangle" fill="#FFFFFF" opacity="0" x="0" y="0" width="72" height="72"></rect>
                <g id="icon" transform="translate(8.000000, 8.000000)" fill-rule="nonzero">
                    <path d="M47.7647059,21.875 L8.23529412,21.875 C7.32567843,21.875 6.58823529,22.6095625 6.58823529,23.515625 L6.58823529,36.3723281 C6.58823529,37.2783906 7.32567843,38.0129531 8.23529412,38.0129531 C9.1449098,38.0129531 9.88235294,37.2783906 9.88235294,36.3723281 L9.88235294,25.15625 L26.3529412,25.15625 L26.3529412,35.765625 C26.3529412,36.6716875 27.0903843,37.40625 28,37.40625 C28.9096157,37.40625 29.6470588,36.6716875 29.6470588,35.765625 L29.6470588,25.15625 L46.1176471,25.15625 L46.1176471,36.3723281 C46.1176471,37.2783906 46.8550902,38.0129531 47.7647059,38.0129531 C48.6743216,38.0129531 49.4117647,37.2783906 49.4117647,36.3723281 L49.4117647,23.515625 C49.4117647,22.6095625 48.6743216,21.875 47.7647059,21.875 Z" id="Path" fill="#6354B2"></path>
                    <path d="M47.7647059,21.875 L28,21.875 L28,37.40625 C28.9096157,37.40625 29.6470588,36.6716875 29.6470588,35.765625 L29.6470588,25.15625 L46.1176471,25.15625 L46.1176471,36.3723281 C46.1176471,37.2783906 46.8550902,38.0129531 47.7647059,38.0129531 C48.6743216,38.0129531 49.4117647,37.2783906 49.4117647,36.3723281 L49.4117647,23.515625 C49.4117647,22.6095625 48.6743216,21.875 47.7647059,21.875 Z" id="Path" fill="#453D81"></path>
                    <g id="Group" transform="translate(0.000000, 34.125000)">
                        <g transform="translate(18.666667, 0.000000)" id="Path">
                            <path d="M18.6666667,21.875 L0,21.875 L0,15.3125 C0,11.6881406 2.94966275,8.75 6.58823529,8.75 L12.0784314,8.75 C15.7170039,8.75 18.6666667,11.6881406 18.6666667,15.3125 L18.6666667,21.875 Z" fill="#FFF261"></path>
                            <path d="M9.33333333,21.875 L18.6666667,21.875 L18.6666667,15.3125 C18.6666667,11.6881406 15.7170039,8.75 12.0784314,8.75 L9.33333333,8.75 L9.33333333,21.875 Z" fill="#FFCD00"></path>
                            <path d="M9.33333333,10.9375 C6.30603922,10.9375 3.84313725,8.48421875 3.84313725,5.46875 C3.84313725,2.45328125 6.30603922,0 9.33333333,0 C12.3606275,0 14.8235294,2.45328125 14.8235294,5.46875 C14.8235294,8.48421875 12.3606275,10.9375 9.33333333,10.9375 Z" fill="#FFE4C1"></path>
                            <path d="M9.33333333,0 L9.33333333,10.9375 C12.3606275,10.9375 14.8235294,8.48421875 14.8235294,5.46875 C14.8235294,2.45328125 12.3606275,0 9.33333333,0 Z" fill="#FDD1A3"></path>
                        </g>
                        <g transform="translate(37.333333, 0.000000)" id="Path">
                            <path d="M17.0196078,21.875 L0,21.875 L0,15.3125 C0,11.6881406 2.94966275,8.75 6.58823529,8.75 L12.0784314,8.75 C15.7170039,8.75 18.6666667,11.6881406 18.6666667,15.3125 L18.6666667,20.234375 C18.6666667,21.1404375 17.9292235,21.875 17.0196078,21.875 Z" fill="#FF3F5C"></path>
                            <path d="M9.33333333,21.875 L17.0196078,21.875 C17.9292235,21.875 18.6666667,21.1404375 18.6666667,20.234375 L18.6666667,15.3125 C18.6666667,11.6881406 15.7170039,8.75 12.0784314,8.75 L9.33333333,8.75 L9.33333333,21.875 Z" fill="#D01273"></path>
                            <path d="M9.33333333,10.9375 C6.30603922,10.9375 3.84313725,8.48421875 3.84313725,5.46875 C3.84313725,2.45328125 6.30603922,0 9.33333333,0 C12.3606275,0 14.8235294,2.45328125 14.8235294,5.46875 C14.8235294,8.48421875 12.3606275,10.9375 9.33333333,10.9375 Z" fill="#FFE4C1"></path>
                            <path d="M9.33333333,0 L9.33333333,10.9375 C12.3606275,10.9375 14.8235294,8.48421875 14.8235294,5.46875 C14.8235294,2.45328125 12.3606275,0 9.33333333,0 Z" fill="#FDD1A3"></path>
                        </g>
                        <g id="Path">
                            <path d="M18.6666667,21.875 L1.64705882,21.875 C0.737443137,21.875 0,21.1404375 0,20.234375 L0,15.3125 C0,11.6881406 2.94966275,8.75 6.58823529,8.75 L12.0784314,8.75 C15.7170039,8.75 18.6666667,11.6881406 18.6666667,15.3125 L18.6666667,21.875 Z" fill="#7DD5F4"></path>
                            <path d="M9.33333333,21.875 L18.6666667,21.875 L18.6666667,15.3125 C18.6666667,11.6881406 15.7170039,8.75 12.0784314,8.75 L9.33333333,8.75 L9.33333333,21.875 Z" fill="#6BA7FF"></path>
                            <path d="M9.33333333,10.9375 C6.30603922,10.9375 3.84313725,8.48421875 3.84313725,5.46875 C3.84313725,2.45328125 6.30603922,0 9.33333333,0 C12.3606275,0 14.8235294,2.45328125 14.8235294,5.46875 C14.8235294,8.48421875 12.3606275,10.9375 9.33333333,10.9375 Z" fill="#FFE4C1"></path>
                            <path d="M9.33333333,0 L9.33333333,10.9375 C12.3606275,10.9375 14.8235294,8.48421875 14.8235294,5.46875 C14.8235294,2.45328125 12.3606275,0 9.33333333,0 Z" fill="#FDD1A3"></path>
                        </g>
                    </g>
                    <g id="Group" transform="translate(13.176471, 0.000082)">
                        <path d="M28,30.624918 L23.0588235,30.624918 C22.1492078,30.624918 19.7647059,29.8903555 19.7647059,28.984293 L19.7647059,14.765543 C19.7647059,13.8594805 20.502149,13.124918 21.4117647,13.124918 L28,13.124918 C28.9096157,13.124918 29.6470588,13.8594805 29.6470588,14.765543 L29.6470588,28.984293 C29.6470588,29.8903555 28.9096157,30.624918 28,30.624918 Z" id="Path" fill="#BEBCDD"></path>
                        <path d="M6.58823529,30.624918 L1.64705882,30.624918 C0.737443137,30.624918 0,29.8903555 0,28.984293 L0,14.765543 C0,13.8594805 0.737443137,13.124918 1.64705882,13.124918 L8.23529412,13.124918 C9.1449098,13.124918 9.88235294,13.8594805 9.88235294,14.765543 L9.88235294,28.984293 C9.88235294,29.8903555 7.49785098,30.624918 6.58823529,30.624918 Z" id="Path" fill="#E2DFF4"></path>
                        <polygon id="Path" fill="#F9F9F9" points="23.0588235 30.624918 6.58823529 30.624918 6.58823529 6.23123047 14.8235294 0.762480469 23.0588235 6.23123047"></polygon>
                        <polygon id="Path" fill="#E2DFF4" points="23.0588235 6.23123047 14.8235294 0.762480469 14.8235294 30.624918 23.0588235 30.624918"></polygon>
                        <path d="M23.7923137,9.56815234 L14.8235294,3.61235547 L5.8548549,9.56815234 C5.09797647,10.0707305 4.07537255,9.86707422 3.57082353,9.11315234 C3.06627451,8.35923047 3.27072941,7.34062109 4.02760784,6.83804297 L13.9099608,0.275542969 C14.4631529,-0.0918476563 15.1840157,-0.0918476563 15.7372078,0.275542969 L25.6195608,6.83804297 C26.3764392,7.34062109 26.5810039,8.35923047 26.0763451,9.11315234 C25.5716863,9.86707422 24.5490824,10.0707305 23.7923137,9.56815234 L23.7923137,9.56815234 Z" id="Path" fill="#E2DFF4"></path>
                        <g transform="translate(13.176471, 10.390543)" fill="#7DD5F4" id="Path">
                            <path d="M1.64705882,5.46875 C0.737443137,5.46875 0,4.7341875 0,3.828125 L0,1.640625 C0,0.7345625 0.737443137,0 1.64705882,0 C2.55667451,0 3.29411765,0.7345625 3.29411765,1.640625 L3.29411765,3.828125 C3.29411765,4.7341875 2.55667451,5.46875 1.64705882,5.46875 Z"></path>
                            <path d="M1.64705882,14.21875 C0.737443137,14.21875 0,13.4841875 0,12.578125 L0,10.390625 C0,9.4845625 0.737443137,8.75 1.64705882,8.75 C2.55667451,8.75 3.29411765,9.4845625 3.29411765,10.390625 L3.29411765,12.578125 C3.29411765,13.4841875 2.55667451,14.21875 1.64705882,14.21875 Z"></path>
                        </g>
                    </g>
                    <g id="Group" transform="translate(28.000000, 0.000000)">
                        <path d="M10.7960314,6.83801562 L0.913678431,0.275515625 C0.636972549,0.091875 0.318541176,-1.94289029e-16 0,-1.94289029e-16 L0,3.6124375 L8.96867451,9.56823437 C9.72555294,10.0708125 10.7481569,9.86715625 11.2527059,9.11323438 C11.7573647,8.3593125 11.5529098,7.34070313 10.7960314,6.83801562 L10.7960314,6.83801562 Z" id="Path" fill="#BEBCDD"></path>
                        <g transform="translate(0.000000, 10.390625)" fill="#6BA7FF" id="Path">
                            <path d="M1.64705882,3.828125 L1.64705882,1.640625 C1.64705882,0.7345625 0.909615686,0 0,0 L0,5.46875 C0.909615686,5.46875 1.64705882,4.7341875 1.64705882,3.828125 Z"></path>
                            <path d="M1.64705882,12.578125 L1.64705882,10.390625 C1.64705882,9.4845625 0.909615686,8.75 0,8.75 L0,14.21875 C0.909615686,14.21875 1.64705882,13.4841875 1.64705882,12.578125 Z"></path>
                        </g>
                    </g>
                </g>
            </g>
        </g>
    </g>
</svg>