<?xml version="1.0" encoding="UTF-8"?>
<svg width="72px" height="72px" viewBox="0 0 72 72" version="1.1" xmlns="http://www.w3.org/2000/svg" xmlns:xlink="http://www.w3.org/1999/xlink">
    <title>Number of CBPs published by your MDO</title>
    <g id="Icons-" stroke="none" stroke-width="1" fill="none" fill-rule="evenodd">
        <g id="Dashboard-icons-" transform="translate(-66.000000, -1229.000000)">
            <g id="Number-of-CBPs-published-by-your-MDO" transform="translate(66.000000, 1229.000000)">
                <rect id="Rectangle" fill="#FFFFFF" opacity="0" x="0" y="0" width="72" height="72"></rect>
                <g id="Group-5" transform="translate(5.000000, 8.000000)">
                    <g id="Group-3" transform="translate(0.000000, 15.000000)" fill-rule="nonzero">
                        <path d="M53.6597031,3.19544413 L53.6597031,37.5481955 L2.34117187,37.5481955 L2.34117187,3.19544413 C2.34117187,1.43111337 3.76873437,0 5.52989062,0 L50.4710937,0 C52.2321406,0 53.6597031,1.43111337 53.6597031,3.19544413 Z" id="Path" fill="#DFEAEF"></path>
                        <polygon id="Path" fill="#B4D0D5" points="2.34117187 32.4460987 53.6597031 32.4460987 53.6597031 37.5481955 2.34117187 37.5481955"></polygon>
                        <polygon id="Path" fill="#6EC17D" transform="translate(28.000438, 17.238765) rotate(90.000000) translate(-28.000438, -17.238765) " points="14.7148876 -4.4767664 41.2859874 -4.4767664 41.2859874 38.9542961 14.7148876 38.9542961"></polygon>
                        <path d="M56,34.9157666 L0.000984375001,34.9157666 L0.000984375001,37.3529385 C0.000984375001,39.9194471 2.076375,42 4.63651563,42 L51.3644688,42 C53.9246094,42 56,39.9194471 56,37.3529385 L56,34.9157666 Z" id="Path" fill="#DFEAEF"></path>
                        <path d="M31.2325625,38.1780954 L25.1588594,38.1780954 C23.4143281,38.1780954 22,36.760359 22,35.0113788 L22,34.9157666 L34.3913125,34.9157666 L34.3913125,35.0113788 C34.3913125,36.760359 32.9770937,38.1780954 31.2325625,38.1780954 Z" id="Path" fill="#B4D0D5"></path>
                        <path d="M9.70232813,42 L4.63651563,42 C2.0755,42 0,39.9194471 0,37.3530482 L0,34.9157666 L5.0658125,34.9157666 L5.0658125,37.3530482 C5.0658125,39.9194471 7.1413125,42 9.70232813,42 Z" id="Path" fill="#B4D0D5"></path>
                        <path d="M27.4110156,27.4184523 L10.4934375,27.4184523 C10.0267344,27.4184523 9.64840625,27.0391831 9.64840625,26.5713191 C9.64840625,26.1034552 10.0267344,25.724186 10.4934375,25.724186 L27.4109062,25.724186 C27.8776094,25.724186 28.2559375,26.1034552 28.2559375,26.5713191 C28.2559375,27.0391831 27.8777187,27.4184523 27.4110156,27.4184523 L27.4110156,27.4184523 Z" id="Path" fill="#665E66"></path>
                        <path d="M21.8047812,23.8554712 L10.4934375,23.8554712 C10.0267344,23.8554712 9.64840625,23.4762021 9.64840625,23.0083381 C9.64840625,22.5404741 10.0267344,22.1612049 10.4934375,22.1612049 L21.8047812,22.1612049 C22.2714844,22.1612049 22.6498125,22.5404741 22.6498125,23.0083381 C22.6498125,23.4762021 22.2714844,23.8554712 21.8047812,23.8554712 Z" id="Path" fill="#665E66"></path>
                    </g>
                    <g id="Group-4" transform="translate(37.000000, 22.000000)">
                        <g id="man" transform="translate(12.500000, 17.500000) scale(-1, 1) translate(-12.500000, -17.500000) " fill-rule="nonzero">
                            <path d="M4.89115116,14 C4.89115116,14 2.4586198,6.35384032 5.63144561,4.95383343 C5.94871466,3.17688571 7.11650022,2.96151064 7.69596111,2.69225734 C7.95815296,1.93837568 9.33305316,0.269184396 13.2990854,0.538437689 C17.2651177,0.807690983 17.2651853,0.484628369 18.2170602,0 C18.3228165,0.861569201 20.9462912,1.83075704 19.8196444,4.95383343 C20.7553479,5.11539919 21.738618,7.83121964 20.1893518,13.1502124 C17.1065847,13.1502813 4.89115116,14 4.89115116,14 Z" id="Path" fill="#240703"></path>
                            <g id="Group" transform="translate(3.000000, 13.000000)" fill="#E09F67">
                                <path d="M15.753913,1.84784233 L16.33118,0.032128712 C16.33118,0.032128712 17.346846,-0.245092457 17.8825288,0.829097053 C18.4182115,1.90328656 17.0164553,4.11037524 15.8071907,4.2958243 C15.4720257,3.45558905 15.753913,1.84784233 15.753913,1.84784233 L15.753913,1.84784233 Z" id="Path"></path>
                                <path d="M2.24608701,1.84784233 L1.66882003,0.032128712 C1.66882003,0.032128712 0.653153956,-0.245092457 0.11747123,0.829097053 C-0.418211496,1.90328656 0.983544683,4.11037524 2.19280934,4.2958243 C2.5280435,3.45558905 2.24608701,1.84784233 2.24608701,1.84784233 L2.24608701,1.84784233 Z" id="Path"></path>
                                <polygon id="Path" points="4.94650362 7.65853409 13.1198513 7.65853409 13.1198513 16 4.94650362 16"></polygon>
                            </g>
                            <path d="M8,21 L8,22.3725625 C8,22.3725625 9.56727562,26 12.728578,26 C14.2458731,26 15.3063001,25.3958391 16,24.7675089 L16,21.0000687 L8,21.0000687 L8,21 Z" id="Path" fill="#CE8A57"></path>
                            <path d="M19.9091192,15.5454016 C19.9117174,15.4680618 19.9130516,15.390722 19.9130516,15.3133822 C19.9130516,10.5057606 21.333334,5.08157093 12.6933881,5.0018728 C12.6536433,5.00110981 12.5003516,5 12.5,5 C12.4996494,5 12.3462876,5.00110981 12.3065427,5.0018728 C3.6666671,5.08157093 5.08694948,10.5057606 5.08694948,15.3133822 C5.08694948,15.390722 5.08828367,15.4680618 5.09088184,15.5454016 C5.09348,15.6227414 5.08217448,19.1232165 5.61725565,20.0177223 C6.15233682,20.9121586 9.32167456,25 12.3263449,25 C12.3291537,24.9972948 12.6761841,24.9970868 12.6791333,25 C15.6838037,25 18.8531415,20.9121586 19.3882226,20.0177223 C19.9233038,19.1232859 19.9145964,15.5454016 19.9145964,15.5454016 L19.9091192,15.5454016 Z" id="Path" fill="#E09F67"></path>
                            <path d="M24.9426376,31.1580188 C24.7926185,27.1623671 21.9158434,26.2394687 20.1885771,26.0468061 C19.7142904,25.9939169 18.3177076,25.9960325 17.3557567,26.0047865 L17.3566439,26.0023792 C16.7981336,26.0074128 16.385479,26.0147078 16.385479,26.0147078 C16.3123805,27.3523305 14.8251583,28.0698729 12.5,28.1178744 C10.1748417,28.0697999 8.48750312,27.050169 8.48750312,26.0147078 C8.48750312,26.0147078 8.1134111,26.0078505 7.59933319,26.0028169 L7.60022047,26.0052242 C6.67485292,25.9961784 5.2934221,25.9930415 4.81142286,26.0468061 C3.08415656,26.2393957 0.207381464,27.1622941 0.0573624439,31.1580188 C-0.0717030549,32.1544514 0.0573624439,33.577937 0.0573624439,33.577937 C0.0573624439,33.577937 4.26178539,34.9533481 12.2082888,34.999234 C12.2674637,35.0002553 12.7325363,35.0002553 12.7917112,34.999234 C20.7382146,34.9533481 24.9426376,33.577937 24.9426376,33.577937 C24.9426376,33.577937 25.0717031,32.1545243 24.9426376,31.1580188 Z" id="Path" fill="#15AFBF"></path>
                            <polygon id="Path" fill="#091E26" points="12 29 11 30.6265292 11.5040145 35 12.4959855 35 13 30.6265292"></polygon>
                            <path d="M13,28.8488693 C13,28.2182684 12.4182475,28.00086 12.0012647,28.0000614 L12.0012045,28 C12.0008431,28 12.0004216,28.0000614 12,28.0000614 C11.9996387,28.0000614 11.9992171,28 11.9987955,28 L11.9987353,28.0000614 C11.5817525,28.0009215 11,28.2183298 11,28.8488693 C11,29.4131849 11.5406805,29.8945057 11.9017766,29.9911998 C11.9267088,30.0029334 12.0732912,30.0029334 12.0981632,29.9911998 C12.4593195,29.8945671 13,29.4131849 13,28.8488693 L13,28.8488693 Z" id="Path" fill="#091E26"></path>
                            <polygon id="Path" fill="#29CED6" points="12 27.8357385 16.0942648 25 17 26.4640234 14.5 30"></polygon>
                            <polygon id="Path" fill="#29CED6" points="12 27.8357385 7.95931354 25 7 26.4640234 9.5 30"></polygon>
                            <path d="M20.9052123,13.7353709 C20.9052123,11.4813777 22.5081826,5 12.5302764,5 C2.55237015,5 4.08458837,12.5282772 4.08458837,13.8109454 C4.08458837,13.8109454 5.05078978,13.3027023 5.11990513,14.9989652 C5.42151293,14.9535419 5.47723672,14.4515257 5.42032257,13.6780182 C5.36340842,12.9045108 5.42032257,9.99944985 5.42032257,9.99944985 C6.00300444,9.21617605 6.53926222,8.27913151 6.81698839,7.42323283 C7.51468892,7.37197592 9.93826458,9.21617605 17.971418,8.24288461 C18.8809284,8.7883578 20.1319982,9.99997421 19.7628374,14.8750834 C19.7519009,15.0197433 19.9122277,14.9989652 20.0063407,14.9989652 C20.3004343,13.961701 20.4362099,13.6994517 20.9052123,13.7353709 L20.9052123,13.7353709 Z" id="Path" fill="#240703"></path>
                        </g>
                        <rect id="Rectangle" fill="#15AFBF" x="0" y="33" width="25" height="2"></rect>
                    </g>
                    <g id="paper-plane" transform="translate(12.000000, 0.000000)" fill-rule="nonzero">
                        <path d="M16.5678478,21.3417408 L14.5857844,20.0369483 L13.2450015,19.1543605 C12.6785219,18.7947 11.9235179,19.0976359 11.7682169,19.7107342 L10,26.0427794 L11.4573558,28 L16.7038495,22.8192649 C17.1444304,22.4239197 17.0887992,21.7276851 16.5678478,21.3417408 Z" id="Path" fill="#222022"></path>
                        <path d="M32.965625,1.20952925 C32.965625,1.20952925 32.965625,1.20952925 32.965625,1.22886656 L25.2008406,28.3048409 C25.0473125,28.878579 24.3895936,29.2136946 23.7255342,28.8462856 L13.3789798,21.9613004 L11.9036734,20.9943059 C6.10822871,17.1451497 8.95636009,19.0368544 0.431051839,13.374374 C-0.220391413,12.8983538 -0.115710196,11.9571424 0.625210266,11.6530954 L31.684477,0.0491616604 L31.7620498,0.0491616604 C32.1308925,-0.0668622074 32.480326,0.0298243491 32.7132384,0.261936542 C32.9462156,0.494048736 33.0628012,0.842055881 32.965625,1.20952925 Z" id="Path" fill="#837F83"></path>
                        <path d="M32.9657819,0.956229659 C32.9657819,0.956229659 32.9657819,0.956229659 32.9657819,0.975743223 L25.2364519,28.2985048 C25.0836248,28.8774722 24.428909,29.2156423 23.7678818,28.8448846 L13.4685701,21.8971453 L12,20.9213371 L32.7145478,0 C32.9464612,0.234227808 33.0625145,0.585406906 32.9657819,0.956229659 Z" id="Path" fill="#665E66"></path>
                        <g id="Group" transform="translate(0.000000, 20.000000)" fill="#F4DD45">
                            <path d="M6.69990882,7.69998321 L1.69994453,12.6999896 C1.31993125,13.1000035 0.680087797,13.1000035 0.300007856,12.6999896 L0.300007856,12.6799923 C-0.100002619,12.2999758 -0.100002619,11.679991 0.300007856,11.2999745 C1.32051815,10.2794556 2.08590088,9.51406642 2.59615603,9.00380698 C3.19700405,8.40295389 4.09827609,7.50167426 5.29997215,6.29996808 C5.67998543,5.90002089 6.299965,5.90002089 6.67997829,6.29996808 L6.69984217,6.29996808 C7.09998595,6.67991791 7.09998595,7.31990006 6.69990882,7.69998321 Z" id="Path"></path>
                            <path d="M0.293008839,6.70704766 C-0.0976029558,6.31643257 -0.0976029558,5.68358281 0.293008839,5.29296772 L5.29297313,0.292961314 C5.68358492,-0.0976537714 6.31642936,-0.0976537714 6.70704115,0.292961314 C7.09765295,0.6835764 7.09765295,1.31642616 6.70704115,1.70704125 L1.70707686,6.70704766 C1.31639841,7.09759609 0.683553977,7.09759609 0.293008839,6.70704766 Z" id="Path"></path>
                        </g>
                        <path d="M32,0 C12.0877295,22.9500494 14.736255,19.9056617 13.0213564,21.8962929 L11.230185,28.512044 C10.4108085,29.3512247 9.62953667,28.9804164 9.47718168,28.3558766 C9.45812937,28.3363637 9.45812937,28.3167859 9.45812937,28.2778904 L9.43907706,28.2583776 L8.4672821,24.101565 L7,17.7981488 L32,0 Z" id="Path" fill="#665E66"></path>
                        <path d="M32,0 C11.6923376,22.9500494 14.393454,19.9056617 12.6445032,21.8962929 L10.817765,28.512044 C9.98211842,29.3512247 9.18533311,28.9804164 9.02995285,28.3558766 C9.01052223,28.3363637 9.01052223,28.3167859 9.01052223,28.2778904 L8.9910916,28.2583776 L8,24.101565 L32,0 Z" id="Path" fill="#454045"></path>
                    </g>
                </g>
            </g>
        </g>
    </g>
</svg>