<?xml version="1.0" encoding="UTF-8"?>
<svg width="72px" height="74.359375px" viewBox="0 0 72 74.359375" version="1.1" xmlns="http://www.w3.org/2000/svg" xmlns:xlink="http://www.w3.org/1999/xlink">
    <title>MDOs which have a registered MDO admin</title>
    <g id="Icons-" stroke="none" stroke-width="1" fill="none" fill-rule="evenodd">
        <g id="Dashboard-icons-" transform="translate(-66.000000, -737.000000)">
            <g id="MDOs-which-have-a-registered-MDO-admin" transform="translate(66.000000, 737.000000)">
                <g id="06-daily-active-users-copy">
                    <rect id="Rectangle" fill="#FFFFFF" opacity="0" x="0" y="0" width="72" height="72"></rect>
                    <g id="Icon" transform="translate(8.000000, 16.000000)" fill-rule="nonzero">
                        <path d="M40.7272727,16.8659829 L40.7272727,17.4544843 C40.7272727,18.1756143 40.8684471,18.8919712 41.1452476,19.5760342 L42.7636364,23.575 L45.8181818,23.575 L45.8181818,14.35 L43.7818182,14.35 C42.0948766,14.3501016 40.7272727,15.4764292 40.7272727,16.8659829 Z" id="Path" fill="#1F1F1F"></path>
                        <path d="M53.6764481,19.0350907 L52.0970826,24.6 L44.630303,18.0229167 C43.5993189,18.0229167 42.7636364,17.1815242 42.7636364,16.14375 L42.7636364,16.14375 C42.7636364,14.5870318 44.0172732,13.325 45.5636363,13.325 L52.0969696,13.325 C53.1279537,13.325 53.9636364,14.1663924 53.9636364,15.2041667 L53.9636364,16.9702374 C53.9637493,17.6684965 53.8670027,18.3634559 53.6764481,19.0350907 Z" id="Path" fill="#403F3F"></path>
                        <rect id="Rectangle" fill="#E6AF78" x="43.7818182" y="27.675" width="6.10909091" height="4.1"></rect>
                        <path d="M43.7818182,28.2022613 C44.7261454,28.5207158 45.7559171,28.7 46.8363636,28.7 C47.9168101,28.7 48.9465818,28.5207158 49.8909091,28.2022613 L49.8909091,26.65 L43.7818182,26.65 L43.7818182,28.2022613 L43.7818182,28.2022613 Z" id="Path" fill="#D29B6E"></path>
                        <path d="M54.0060501,30.048359 L49.5851605,28.7 L46.8363082,30.6473796 L44.0872339,28.7 L39.6665662,30.048359 C38.4863307,30.4083399 37.6727273,31.5598288 37.6727273,32.8700456 L37.6727273,40.021809 C37.6727273,40.5620765 38.082969,41 38.5890854,41 L55.0836419,41 C55.5897583,41 56,40.5620765 56,40.021809 L56,32.8700456 C56,31.5597103 55.1862856,30.4083399 54.0060501,30.048359 Z" id="Path" fill="#D5DCED"></path>
                        <polygon id="Path" fill="#AFB9D2" points="48.8727273 41 46.8363636 41 47.3454545 31.775 48.3636364 31.775"></polygon>
                        <path d="M47.345398,27.675 L47.345398,27.675 C44.25259,27.675 41.7454545,25.4196246 41.7454545,22.6376153 L41.7454545,21.6539894 C41.7454545,21.208689 41.9421103,20.7815869 42.2921351,20.4666233 L43.9846182,18.9441636 C44.3430064,18.6217783 44.8330637,18.4364398 45.3396219,18.4507748 C48.323139,18.5354632 50.9639778,19.1103887 52.4075896,20.3786816 C52.761005,20.6891719 52.9454545,21.1234923 52.9454545,21.567776 L52.9454545,22.6376153 C52.9454545,25.4197262 50.4382061,27.675 47.345398,27.675 Z" id="Path" fill="#F0C087"></path>
                        <path d="M44.55194,21.9380329 C44.55194,20.9480621 45.458208,20.1611569 46.5351943,20.2241342 C48.4237436,20.3347083 51.2261508,20.6242379 52.9454545,21.382876 C52.8893792,21.0208082 52.7197938,20.6790053 52.4323936,20.4214841 C50.9854234,19.1250442 48.3384411,18.5373595 45.3479832,18.4507916 L45.3478699,18.4508955 L45.3478699,18.4507916 C44.8402465,18.4361384 44.348936,18.625694 43.9898273,18.9551301 L42.2935201,20.5112736 C41.9425678,20.8331232 41.7454545,21.2697039 41.7454545,21.7249907 L41.7454545,22.730446 C41.7454545,25.0786909 43.4606801,27.0558266 45.8032696,27.675 C45.0235392,26.7924856 44.5520533,25.6721953 44.5520533,24.4468388 L44.55194,21.9380329 L44.55194,21.9380329 Z" id="Path" fill="#E6AF78"></path>
                        <path d="M51.9272727,36.0948842 C51.9272727,35.3628157 52.2490764,34.6608275 52.8219115,34.1432213 L55.4428235,31.775 C55.7931086,32.227432 56,32.7721106 56,33.3535542 L56,40.0799844 C56,40.5881209 55.5441731,41 54.9818182,41 L51.9272727,41 L51.9272727,36.0948842 L51.9272727,36.0948842 Z" id="Path" fill="#C7CFE2"></path>
                        <path d="M48.3636364,33.825 L47.3454545,33.825 C47.0643387,33.825 46.8363636,33.5954983 46.8363636,33.3125 L46.8363636,31.775 L48.8727273,31.775 L48.8727273,33.3125 C48.8727273,33.5954983 48.6448755,33.825 48.3636364,33.825 Z" id="Path" fill="#959CB5"></path>
                        <g id="Group" transform="translate(43.781818, 28.700000)" fill="#C7CFE2">
                            <path d="M3.56363636,2.71670492 L2.09254726,3.97958233 C1.8391504,4.1971691 1.47277071,4.10999264 1.31963955,3.79554314 L0,1.08693039 L0.531176989,0.17630258 C0.648994442,-0.0256916546 0.900079093,-0.060066112 1.05762446,0.104128032 L3.56363636,2.71670492 Z" id="Path"></path>
                            <path d="M3.56363636,2.71670492 L5.03472547,3.97970045 C5.28812232,4.19728722 5.65450202,4.11011076 5.80763318,3.79566126 L7.12727273,1.08704851 L6.59609574,0.176420705 C6.47827829,-0.0255735293 6.22719363,-0.0599479868 6.06964826,0.104246157 L3.56363636,2.71670492 Z" id="Path"></path>
                        </g>
                        <path d="M16.2329012,27.1583937 C15.4962965,25.0954437 14.9120855,21.5491071 14.7858909,19.7027349 C14.5458185,16.1891663 12.0408196,13.325 8.65454619,13.325 C5.26827278,13.325 2.76327385,16.1892766 2.52320144,19.7027349 C2.39700686,21.5489968 1.8127959,25.0954437 1.07619114,27.1583937 C0.913881322,27.6131738 1.10124217,28.1146236 1.52491777,28.3176308 C2.31423408,28.6957316 3.99714161,29.4364871 6.02679719,29.725 L11.2821908,29.725 C13.3023479,29.4358251 14.9970503,28.6946283 15.7840702,28.3176308 C16.2078502,28.1146236 16.3952111,27.6131738 16.2329012,27.1583937 Z" id="Path" fill="#1F1F1F"></path>
                        <path d="M16.7530909,28.3176308 C17.2178955,28.1146236 17.4236099,27.6131738 17.2453852,27.1583937 C16.4371888,25.0954437 15.7959921,21.5491071 15.6576274,19.7027349 C15.3942993,16.1891663 12.6453318,13.325 8.92952964,13.325 C8.92013733,13.325 8.91085956,13.325 8.90146726,13.325 C6.05021533,13.3362537 5.04260423,17.0818462 7.49708852,18.479396 C7.6445019,18.5633572 7.73899766,18.6037379 7.73899766,18.6037379 L9.88880473,29.725 L11.8129674,29.725 C14.0297805,29.4356045 15.889457,28.694518 16.7530909,28.3176308 Z" id="Path" fill="#403F3F"></path>
                        <path d="M14.7899908,32.3964296 L11.8611452,30.9453231 C11.2478455,30.6414389 10.8604234,30.0202033 10.860533,29.340754 L10.8607522,26.65 L5.4302665,26.65 L5.4302665,29.3408626 C5.4302665,30.0203119 5.04295396,30.6413303 4.4296543,30.9452145 L1.5008087,32.3964296 C0.580968812,32.8521472 0,33.7837834 0,34.8028488 L0,40.1031182 C0,40.598369 0.405176702,41 0.905044416,41 L15.3858647,41 C15.8857324,41 16.2909091,40.598369 16.2909091,40.1031182 L16.2909091,34.8029574 C16.2909091,33.7837834 15.7098307,32.8521472 14.7899908,32.3964296 Z" id="Path" fill="#E6AF78"></path>
                        <path d="M9.16387861,30.75 C10.2408848,30.75 11.2724706,30.5224843 12.2181818,30.117474 C12.1933521,29.9882629 12.1644042,29.8597966 12.1644042,29.7251241 L12.1646464,26.65 L6.16311079,26.65 L6.16311079,29.7252482 C6.16311079,29.8606654 6.13416291,29.9897524 6.10909091,30.1194599 C7.05540772,30.5223601 8.08650909,30.75 9.16387861,30.75 Z" id="Path" fill="#D29B6E"></path>
                        <path d="M14.7899908,32.7646886 L12.7035007,31.775104 C11.7359865,33.1922715 10.0579609,34.1321639 8.14550934,34.1321639 C6.23305777,34.1321639 4.55492262,33.1922715 3.58740844,31.775 L1.5009183,32.7646886 C0.581078408,33.2009001 0,34.0926595 0,35.0681058 L0,40.1415075 C0,40.615664 0.405176702,41 0.905044416,41 L15.3858647,41 C15.8857324,41 16.2909091,40.615664 16.2909091,40.1415075 L16.2909091,35.0682097 C16.2909091,34.0926595 15.7098307,33.2009001 14.7899908,32.7646886 Z" id="Path" fill="#D5DCED"></path>
                        <path d="M8.64265863,27.675 L8.64265863,27.675 C5.78196318,27.675 3.4200044,25.777084 3.06287169,23.3203932 C3.01109029,22.964433 3.20356722,22.6154386 3.56399304,22.4538129 C3.99573185,22.2601851 4.62312715,21.9337031 5.22383686,21.4572051 C5.89279355,20.9265962 6.28524208,20.3670138 6.50690283,19.9562362 C6.69778998,19.6024969 7.13656924,19.4024081 7.56422005,19.4994239 C10.8659659,20.2480912 13.1138012,21.775207 13.9293583,22.3986925 C14.1482937,22.5660726 14.2744541,22.8129026 14.25197,23.0689194 C14.0247451,25.6462489 11.6002171,27.675 8.64265863,27.675 Z" id="Path" fill="#F0C087"></path>
                        <path d="M13.9294409,22.4191354 C13.1139804,21.7912903 10.865985,20.2534968 7.56417072,19.4995947 C7.13651106,19.4019006 6.6977227,19.6033884 6.50683159,19.959601 C6.33899278,20.2729136 6.06157043,20.6720263 5.64992245,21.079475 C5.64980889,21.0804916 5.64946822,21.0813049 5.64935466,21.0823215 C5.52160184,21.2119365 5.38555928,21.3418565 5.22385259,21.4711666 C4.62313044,21.9510981 3.99572214,22.2797611 3.56397438,22.4747428 C3.20354109,22.6374987 3.01117373,22.989035 3.06284265,23.3474841 C3.38364418,25.5692384 5.32571418,27.3376959 7.78969704,27.675 C6.66694846,26.9912425 5.82945775,26.0508981 5.82945775,24.3745435 L5.82945775,23.1774088 C6.04249267,23.0366113 6.25700386,22.8962204 6.47253706,22.7240103 C6.99376857,22.3076157 7.44879573,21.8260577 7.81365779,21.3075975 C10.3395298,22.0132116 12.0519854,23.1884897 12.7011968,23.6882446 C12.8789152,23.8277206 13.3199747,24.1916593 13.8359826,24.625031 C14.0579886,24.146726 14.2048192,23.6335521 14.2519458,23.0942519 C14.2745438,22.8363434 14.1483808,22.5877875 13.9294409,22.4191354 Z" id="Path" fill="#E6AF78"></path>
                        <path d="M1.63885599,32.8 C1.24665008,33.2811998 1.01818182,33.871473 1.01818182,34.4966225 L1.01818182,40.0587997 C1.01818182,40.5786368 1.47400867,41 2.03636364,41 L5.09090909,41 L5.09090909,36.2575265 C5.09090909,35.6857171 4.80966996,35.1447947 4.3265946,34.787599 L1.63885599,32.8 Z" id="Path" fill="#C7CFE2"></path>
                        <path d="M42.3556152,30.5708772 L34.5881956,27.675 L29.0181818,29.5786538 L23.448168,27.675 L15.6807485,30.5709925 C14.2132632,31.1181042 13.2363636,32.5479479 13.2363636,34.1488289 L13.2363636,40.0482308 C13.2363636,40.5737899 13.6519675,41 14.1646993,41 L43.8716644,41 C44.3843961,41 44.8,40.5737899 44.8,40.0482308 L44.8,34.1488289 C44.8,32.5478327 43.8232128,31.117989 42.3556152,30.5708772 Z" id="Path" fill="#FF507D"></path>
                        <polygon id="Path" fill="#694B4B" points="27.4606354 31.775 26.4909091 41 30.5636364 41 29.59391 31.775"></polygon>
                        <path d="M29.7309372,33.825 L27.2873855,33.825 C26.8374281,33.825 26.4727273,33.4441659 26.4727273,32.9743037 L26.4727273,29.725 L30.5454545,29.725 L30.5454545,32.9743037 C30.5455954,33.4440187 30.1808946,33.825 29.7309372,33.825 Z" id="Path" fill="#8C5959"></path>
                        <path d="M42.6858363,32.8 C43.3733371,33.3988652 43.7818182,34.1964515 43.7818182,35.0519732 L43.7818182,40.1736962 C43.7818182,40.6300744 43.3259913,41 42.7636364,41 L37.6727273,41 L37.6727273,38.2375156 C37.6727273,37.360881 38.1017988,36.5201684 38.8656201,35.9003905 L42.6858363,32.8 Z" id="Path" fill="#D23C69"></path>
                        <path d="M39.7090909,9.30709837 L39.7090909,1.79373642 C39.7090909,0.803032642 38.8802118,0 37.8578716,0 L26.7504438,0 C22.6608587,0 19.3454545,3.21234778 19.3454545,7.1750543 L19.3454545,9.30709837 C19.3454545,10.2710851 19.5058502,11.2287726 19.8204768,12.143235 L20.1286024,13.0389086 C20.2229791,13.3132473 20.2710642,13.6005101 20.2710642,13.8897278 L20.2710642,14.35 L38.7833692,14.35 L38.7833692,13.8897278 C38.7833692,13.6005101 38.8314543,13.3132473 38.925831,13.0389086 L39.2339566,12.143235 C39.5486952,11.228664 39.7090909,10.2709765 39.7090909,9.30709837 Z" id="Path" fill="#1F1F1F"></path>
                        <path d="M22.4,3.64354111 C22.4,5.655808 24.0340402,7.28708222 26.049719,7.28708222 L26.555053,7.28708222 L26.7989623,14.35 L36.7743316,14.35 L36.7743316,13.8897244 C36.7743316,13.6005044 36.8210029,13.3132394 36.9126049,13.0388986 L37.2116712,12.1432183 C37.5170474,11.228749 37.6727273,10.2710542 37.6727273,9.3070602 L37.6727273,1.79375 C37.6727273,0.80303872 36.8682181,0 35.8759358,0 L26.049719,0 C24.0340402,0 22.4,1.63127422 22.4,3.64354111 Z" id="Path" fill="#403F3F"></path>
                        <rect id="Rectangle" fill="#E6AF78" x="23.4181818" y="21.525" width="11.2" height="8.2"></rect>
                        <path d="M22.400113,24.9909845 C24.0488572,26.0399401 25.9576617,26.65 28.0000565,26.65 C30.0424513,26.65 31.9513689,26.0399401 33.6,24.9909845 L33.6,21.525 L22.4,21.525 L22.400113,24.9909845 L22.400113,24.9909845 Z" id="Path" fill="#D29B6E"></path>
                        <g id="Group" transform="translate(21.381818, 26.650000)" fill="#D23C69">
                            <path d="M7.12727273,3.15362433 L4.28581431,5.8979671 C3.90390365,6.26682478 3.27267223,6.22525014 2.94621414,5.80971217 L0,2.06028434 L0.770618023,0.491805652 C0.998038266,0.0289622102 1.59118651,-0.140670641 2.04279046,0.128157833 L7.12727273,3.15362433 Z" id="Path"></path>
                            <path d="M7.12727273,3.15362433 L9.96873115,5.8979671 C10.3506418,6.26682478 10.9818732,6.22525014 11.3083313,5.80971217 L14.2545455,2.06028434 L13.4839274,0.491805652 C13.2565072,0.0289622102 12.6633589,-0.140670641 12.211755,0.128157833 L7.12727273,3.15362433 Z" id="Path"></path>
                        </g>
                        <path d="M28.5092574,23.575 L28.5092574,23.575 C23.448254,23.575 19.3454545,19.6885017 19.3454545,14.8943163 L19.3454545,13.8773073 C19.3454545,13.416894 19.5385379,12.9752966 19.8822041,12.6496435 L20.6413324,11.9305367 C20.9849986,11.6049888 21.1780819,11.1633914 21.1780819,10.7028729 L21.1780819,8.62197279 C21.1780819,8.22000461 21.4630464,7.87080526 21.8759562,7.77840724 C24.0432615,7.29350158 30.78753,6.14488591 35.3772546,9.34255121 C35.6753132,9.55015769 35.8400999,9.89126301 35.8400999,10.2417238 L35.8400999,10.7028729 C35.8400999,11.1632863 36.0331832,11.6048837 36.3768494,11.9305367 L37.1359777,12.6496435 C37.4796439,12.9751915 37.6727273,13.4167889 37.6727273,13.8773073 L37.6727273,14.8943163 C37.6730602,19.6885017 33.5702607,23.575 28.5092574,23.575 Z" id="Path" fill="#F0C087"></path>
                        <path d="M35.1793447,9.35050488 C31.9911734,7.09175197 27.7562429,6.99399057 24.7758671,7.30321643 C23.518682,7.43360016 22.4799234,7.63514067 21.8449195,7.77956573 C21.4371097,7.87236516 21.1556651,8.22308155 21.1556651,8.62679602 L21.1556651,10.7166307 C21.1556651,11.1791499 20.9649667,11.6226657 20.6254357,11.9497335 L19.8756839,12.6719643 C19.536153,12.9990322 19.3454545,13.442548 19.3454545,13.9050671 L19.3454545,14.9263887 C19.3454545,19.3841397 22.8207695,23.053993 27.3024025,23.575 C25.7407575,22.0083894 24.7757575,19.8854045 24.7757575,17.5418757 L24.7757575,11.1693315 C24.7757575,10.2857838 25.4577785,9.54740015 26.3677608,9.43749775 C28.5397505,9.17514669 32.5178957,9.01741933 35.6363636,10.7168419 L35.6363636,10.2535838 C35.6365826,9.90160047 35.4735025,9.5589077 35.1793447,9.35050488 Z" id="Path" fill="#E6AF78"></path>
                        <path d="M14.3323455,32.8 C13.6448447,33.3988652 13.2363636,34.1964515 13.2363636,35.0519732 L13.2363636,40.1736962 C13.2363636,40.6300744 13.6921905,41 14.2545455,41 L19.3454545,41 L19.3454545,38.2375156 C19.3454545,37.360881 18.916383,36.5201684 18.1525617,35.9003905 L14.3323455,32.8 Z" id="Path" fill="#D23C69"></path>
                    </g>
                </g>
                <g id="Group-16" transform="translate(23.000000, 48.000000)" fill-rule="nonzero">
                    <path d="M13.125,0 C5.87332813,0 0,5.87332813 0,13.125 C0,20.3764531 5.87332813,26.359375 13.125,26.359375 C20.3766719,26.359375 26.359375,20.3764531 26.359375,13.125 C26.359375,5.87332813 20.3766719,0 13.125,0 Z" id="Path" fill="#57D9AD"></path>
                    <path d="M26.359375,13.125 C26.359375,20.3764531 20.3766719,26.359375 13.125,26.359375 L13.125,0 C20.3766719,0 26.359375,5.87332813 26.359375,13.125 Z" id="Path" fill="#26BFA6"></path>
                    <polygon id="Path" fill="#F9F5F3" points="19.1952031 10.9920781 13.125 17.0952031 11.484375 18.7358281 7.05479687 14.2733281 9.35145312 11.9764531 11.484375 14.0764531 13.125 12.4358281 16.8985469 8.69520312"></polygon>
                    <polygon id="Path" fill="#F0DBD8" points="19.1952031 10.9920781 13.125 17.0952031 13.125 12.4358281 16.8985469 8.69520312"></polygon>
                </g>
            </g>
        </g>
    </g>
</svg>