<?xml version="1.0" encoding="UTF-8"?>
<svg width="72px" height="72px" viewBox="0 0 72 72" version="1.1" xmlns="http://www.w3.org/2000/svg" xmlns:xlink="http://www.w3.org/1999/xlink">
    <title>03 courses-published@2x</title>
    <g id="Ideations" stroke="none" stroke-width="1" fill="none" fill-rule="evenodd">
        <g id="08-CEO-Dashboard---Color-Variation-(Blue-with-Clipart-based)" transform="translate(-531.000000, -216.000000)">
            <g id="03-courses-published" transform="translate(531.000000, 216.000000)">
                <rect id="Rectangle" fill="#FFFFFF" opacity="0" x="0" y="0" width="72" height="72"></rect>
                <g id="icon" transform="translate(8.000000, 8.000000)" fill-rule="nonzero">
                    <g id="Group-3" transform="translate(0.000000, 14.000000)">
                        <path d="M53.6597031,3.19544413 L53.6597031,37.5481955 L2.34117187,37.5481955 L2.34117187,3.19544413 C2.34117187,1.43111337 3.76873437,0 5.52989062,0 L50.4710937,0 C52.2321406,0 53.6597031,1.43111337 53.6597031,3.19544413 Z" id="Path" fill="#DFEAEF"></path>
                        <polygon id="Path" fill="#B4D0D5" points="2.34117187 32.4460987 53.6597031 32.4460987 53.6597031 37.5481955 2.34117187 37.5481955"></polygon>
                        <polygon id="Path" fill="#6EC17D" transform="translate(28.000438, 17.238765) rotate(90.000000) translate(-28.000438, -17.238765) " points="14.7148876 -4.4767664 41.2859874 -4.4767664 41.2859874 38.9542961 14.7148876 38.9542961"></polygon>
                        <path d="M56,34.9157666 L0.000984375001,34.9157666 L0.000984375001,37.3529385 C0.000984375001,39.9194471 2.076375,42 4.63651563,42 L51.3644688,42 C53.9246094,42 56,39.9194471 56,37.3529385 L56,34.9157666 Z" id="Path" fill="#DFEAEF"></path>
                        <path d="M31.2325625,38.1780954 L25.1588594,38.1780954 C23.4143281,38.1780954 22,36.760359 22,35.0113788 L22,34.9157666 L34.3913125,34.9157666 L34.3913125,35.0113788 C34.3913125,36.760359 32.9770937,38.1780954 31.2325625,38.1780954 Z" id="Path" fill="#B4D0D5"></path>
                        <path d="M9.70232813,42 L4.63651563,42 C2.0755,42 0,39.9194471 0,37.3530482 L0,34.9157666 L5.0658125,34.9157666 L5.0658125,37.3530482 C5.0658125,39.9194471 7.1413125,42 9.70232813,42 Z" id="Path" fill="#B4D0D5"></path>
                        <path d="M27.4110156,27.4184523 L10.4934375,27.4184523 C10.0267344,27.4184523 9.64840625,27.0391831 9.64840625,26.5713191 C9.64840625,26.1034552 10.0267344,25.724186 10.4934375,25.724186 L27.4109062,25.724186 C27.8776094,25.724186 28.2559375,26.1034552 28.2559375,26.5713191 C28.2559375,27.0391831 27.8777187,27.4184523 27.4110156,27.4184523 L27.4110156,27.4184523 Z" id="Path" fill="#665E66"></path>
                        <path d="M21.8047812,23.8554712 L10.4934375,23.8554712 C10.0267344,23.8554712 9.64840625,23.4762021 9.64840625,23.0083381 C9.64840625,22.5404741 10.0267344,22.1612049 10.4934375,22.1612049 L21.8047812,22.1612049 C22.2714844,22.1612049 22.6498125,22.5404741 22.6498125,23.0083381 C22.6498125,23.4762021 22.2714844,23.8554712 21.8047812,23.8554712 Z" id="Path" fill="#665E66"></path>
                    </g>
                    <g id="Group-2" transform="translate(8.000000, 0.000000)">
                        <path d="M32.4937297,17.1475557 L32.4937297,21.9361978 C32.4937297,24.7958062 30.7937407,27.3924596 28.1643151,28.4896091 C22.9595567,30.6635541 17.0870668,30.6635541 11.8823085,28.4896091 C9.25288283,27.3924596 7.55289392,24.7958062 7.55289392,21.9361978 L7.55289392,17.1475557 L32.4937297,17.1475557 Z" id="Path" fill="#665E66"></path>
                        <path d="M23.2918895,29.8659972 C19.4656278,30.4644124 15.511908,30.0066066 11.8818705,28.4900492 C9.25244483,27.3928996 7.55245592,24.7962463 7.55245592,21.9366379 L7.55245592,17.1479958 L14.0893924,17.1479958 L14.0893924,21.9366379 C14.0893924,24.7962463 15.7893813,27.3928996 18.418807,28.4900492 C19.9946228,29.148537 21.6314301,29.6075531 23.2918895,29.8659972 Z" id="Path" fill="#454045"></path>
                        <path d="M32.4937297,17.1475557 L32.4937297,19.0675675 L22.2862407,24.5011645 C20.870514,25.253722 19.1762191,25.253722 17.7606019,24.5011645 L7.55311292,19.0675675 L7.55311292,17.1475557 L32.4937297,17.1475557 Z" id="Path" fill="#454045"></path>
                        <path d="M38.6221877,9.27287791 L22.2625456,0.564995729 C20.8473665,-0.18833191 19.152743,-0.18833191 17.7374544,0.564995729 L1.37781227,9.27287791 C-0.459270757,10.2506525 -0.459270757,12.8950559 1.37781227,13.8728305 L17.7374544,22.5808227 C19.1526335,23.3341503 20.847257,23.3341503 22.2625456,22.5808227 L38.6221877,13.8728305 C40.4592708,12.8950559 40.4592708,10.2507625 38.6221877,9.27287791 Z" id="Path" fill="#665E66"></path>
                        <path d="M27.3009068,31.8909709 C26.927183,31.8909709 26.6240868,31.5864272 26.6240868,31.2109186 L26.6240868,20.1673577 L19.5144649,12.021253 C19.2680897,11.7388239 19.2961217,11.309184 19.5770989,11.0615222 C19.8579666,10.8138604 20.2857835,10.8421363 20.5322682,11.1244554 L27.8098633,19.4629903 C27.9180493,19.5870962 27.9778364,19.7464096 27.9778364,19.9113341 L27.9778364,31.2108086 C27.9777269,31.5865372 27.6747401,31.8909709 27.3009068,31.8909709 L27.3009068,31.8909709 Z" id="Path" fill="#EAB14D"></path>
                        <path d="M26.339058,31.365831 L24.9833374,33.7251647 C24.1469757,35.1806593 25.1923731,37 26.8650965,37 L27.7367172,37 C29.4093311,37 30.4547285,35.1806593 29.6184763,33.7251647 L28.2627556,31.365831 C27.8352673,30.6218553 26.7665464,30.6218553 26.339058,31.365831 Z" id="Path" fill="#F4DD45"></path>
                    </g>
                </g>
            </g>
        </g>
    </g>
</svg>