<?xml version="1.0" encoding="UTF-8"?>
<svg width="24px" height="24px" viewBox="0 0 24 24" version="1.1" xmlns="http://www.w3.org/2000/svg" xmlns:xlink="http://www.w3.org/1999/xlink">
    <title>Icons/Av/video@2x</title>
    <g id="Sprint-2---Final-Version" stroke="none" stroke-width="1" fill="none" fill-rule="evenodd">
        <g id="CEO-Dashboard---Finalised-version" transform="translate(-992.000000, -220.000000)">
            <g id="Group-3" transform="translate(964.000000, 192.000000)">
                <g id="Icons/Av/video" transform="translate(28.000000, 28.000000)">
                    <rect id="Size" fill="#D8D8D8" opacity="0" x="0" y="0" width="24" height="24"></rect>
                    <path d="M9,2 L15,2 L15,4 L9,4 Z M19.03,8.39 L20.45,6.97 C20.02,6.46 19.55,5.98 19.04,5.56 L17.62,6.98 C16.07,5.74 14.12,5 12,5 C7.03,5 3,9.03 3,14 C3,18.97 7.02,23 12,23 C16.98,23 21,18.97 21,14 C21,11.88 20.26,9.93 19.03,8.39 Z M13,15 L11,15 L11,9 L13,9 L13,15 Z" id="Combined-Shape" fill="#284293"></path>
                </g>
            </g>
        </g>
    </g>
</svg>