<?xml version="1.0" encoding="UTF-8"?>
<svg width="72px" height="72px" viewBox="0 0 72 72" version="1.1" xmlns="http://www.w3.org/2000/svg" xmlns:xlink="http://www.w3.org/1999/xlink">
    <title>MDOs which have uploaded ≥ 1 CBP</title>
    <g id="Icons-" stroke="none" stroke-width="1" fill="none" fill-rule="evenodd">
        <g id="Dashboard-icons-" transform="translate(-66.000000, -837.000000)">
            <g id="MDOs-which-have-uploaded-≥-1-CBP" transform="translate(66.000000, 837.000000)">
                <g id="Group-9" transform="translate(9.000000, 18.000000)">
                    <g id="icon" fill-rule="nonzero">
                        <g id="Group">
                            <path d="M1.97606114,30.3290207 L1.98893075,2.22286507 C1.98931492,1.40410626 2.65536518,0.740731633 3.47671511,0.741114422 L45.5120256,0.760358101 C46.3333755,0.760741056 46.9984655,1.42469012 46.9984655,2.24344893 L46.9855958,30.3496046 L1.97606114,30.3290207 Z" id="Path" fill="#B2E5FB"></path>
                            <path d="M47.0451428,2.24325745 L47.0327523,30.3496046 L44.1692645,30.3486472 L44.1813657,2.75163085 C44.1818459,1.65187845 43.2876963,0.759879407 42.1845595,0.759879407 L45.6144062,0.760836795 C46.4046386,0.760836795 47.0461021,1.42497733 47.0451428,2.24325745 L47.0451428,2.24325745 Z" id="Path" fill="#90D8F9"></path>
                            <path d="M46.9855958,31.0909106 C46.9854997,31.0909106 46.9854037,31.0909106 46.9853076,31.0909106 C46.5746327,31.0909106 46.2418477,30.7587925 46.2420397,30.3494131 L46.2549094,2.24325745 C46.2550054,2.04517373 46.1777877,1.85905737 46.0373746,1.7189914 C45.8969614,1.57892543 45.710352,1.50175991 45.5117375,1.50166417 L3.47642699,1.48242065 C3.47633094,1.48242065 3.47613886,1.48242065 3.47604282,1.48242065 C3.06613619,1.48242065 2.73267887,1.81473027 2.73248679,2.22324803 L2.71961718,30.3294037 C2.71942509,30.7385916 2.38654403,31.070231 1.97606114,31.070231 C1.9759651,31.070231 1.97586906,31.070231 1.97567698,31.070231 C1.56500201,31.0700396 1.23250503,30.7380172 1.23250503,30.3287335 L1.24316576,4.95161433 L1.24537472,2.22267359 C1.24566285,1.62861391 1.47789205,1.07036056 1.89941974,0.650545618 C2.32075536,0.230922153 2.88058332,0 3.47594678,0 L3.47700324,0 L45.5123137,0.0193392516 C46.1081574,0.0196264682 46.6681774,0.251123054 47.089321,0.671320952 C47.5104645,1.09151885 47.7419256,1.64996368 47.7419256,2.24392762 L47.7290558,30.3499875 C47.7289597,30.7592712 47.3960787,31.0909106 46.9855958,31.0909106 L46.9855958,31.0909106 Z" id="Path" fill="#F5F8F9"></path>
                            <path d="M47.5022049,30.0348152 C48.0497395,30.0348152 48.4352515,30.2330904 48.4352515,30.7788977 C48.4352515,32.4163195 46.4574616,33.0670566 44.8148578,33.0670566 L42.6955022,33.395441 L2.97422413,33.3953452 C1.3316203,33.3953452 0,32.0679258 0,30.4305039 C0,29.8846966 0.443905449,29.4421916 0.991440058,29.4421916 L44.1234525,29.4422873 L47.5022049,30.0348152 Z" id="Path" fill="#E6EDF4"></path>
                            <path d="M48.9752212,30.4188238 C48.9783682,31.2427525 48.6447188,31.9885583 48.1038111,32.5267065 C47.5654965,33.0633228 46.8219405,33.395441 46.0010707,33.395441 L41.7624556,33.395441 C43.0109997,33.395441 44.0231848,32.3867362 44.023665,31.1421309 L44.0243373,29.4422873 L47.9838548,29.4422873 C48.5264913,29.442383 48.9730859,29.8778034 48.9752212,30.4188238 Z" id="Path" fill="#CEE0EA"></path>
                        </g>
                        <g id="Group-4" transform="translate(13.851327, 5.582616)">
                            <ellipse id="Oval" fill="#559B2D" cx="9.65907085" cy="9.66502659" rx="9.65907085" ry="9.66502659"></ellipse>
                            <path d="M16.6838496,8.56570895 C16.6850679,5.68054167 15.5010903,2.93964015 13.4441468,1.06583434 C9.26220226,-1.19190662 4.15803714,0.238704105 1.55707715,4.39757792 C-1.04388285,8.55645173 -0.321518994,14.1322381 3.23938742,17.3830044 C6.11085263,18.9369092 9.53312497,18.7875935 12.2759967,16.988732 C15.0188683,15.1898705 16.688172,11.9999706 16.6838496,8.56570895 L16.6838496,8.56570895 Z" id="Path" fill="#6BC13B"></path>
                            <polygon id="Path" fill="#F2F2F2" points="3.5123894 10.9829848 7.394504 14.9368593 15.8057523 6.37013116 13.864695 4.39319391 7.394504 10.9829848 5.4534467 9.00604751"></polygon>
                        </g>
                    </g>
                    <g id="Group-4" transform="translate(34.000000, 8.000000)">
                        <g id="man" transform="translate(10.000000, 14.000000) scale(-1, 1) translate(-10.000000, -14.000000) " fill-rule="nonzero">
                            <path d="M3.91292093,11.2 C3.91292093,11.2 1.96689584,5.08307226 4.50515649,3.96306675 C4.75897173,2.54150857 5.69320018,2.36920851 6.15676889,2.15380588 C6.36652237,1.55070054 7.46644253,0.215347516 10.6392683,0.430750151 C13.8120941,0.646152786 13.8121483,0.387702695 14.5736481,0 C14.6582532,0.689255361 16.757033,1.46460563 15.8557155,3.96306675 C16.6042783,4.09231935 17.3908944,6.26497571 16.1514814,10.5201699 C13.6852677,10.520225 3.91292093,11.2 3.91292093,11.2 Z" id="Path" fill="#240703"></path>
                            <g id="Group" transform="translate(2.400000, 10.400000)" fill="#E09F67">
                                <path d="M12.6031304,1.47827386 L13.064944,0.0257029696 C13.064944,0.0257029696 13.8774768,-0.196073965 14.306023,0.663277643 C14.7345692,1.52262925 13.6131643,3.2883002 12.6457525,3.43665944 C12.3776206,2.76447124 12.6031304,1.47827386 12.6031304,1.47827386 L12.6031304,1.47827386 Z" id="Path"></path>
                                <path d="M1.79686961,1.47827386 L1.33505602,0.0257029696 C1.33505602,0.0257029696 0.522523165,-0.196073965 0.093976984,0.663277643 C-0.334569196,1.52262925 0.786835747,3.2883002 1.75424747,3.43665944 C2.0224348,2.76447124 1.79686961,1.47827386 1.79686961,1.47827386 L1.79686961,1.47827386 Z" id="Path"></path>
                                <polygon id="Path" points="3.9572029 6.12682727 10.495881 6.12682727 10.495881 12.8 3.9572029 12.8"></polygon>
                            </g>
                            <path d="M6.4,16.8 L6.4,17.89805 C6.4,17.89805 7.6538205,20.8 10.1828624,20.8 C11.3966984,20.8 12.24504,20.3166712 12.8,19.8140071 L12.8,16.8000549 L6.4,16.8000549 L6.4,16.8 Z" id="Path" fill="#CE8A57"></path>
                            <path d="M15.9272954,12.4363213 C15.9293739,12.3744494 15.9304413,12.3125776 15.9304413,12.2507058 C15.9304413,8.40460848 17.0666672,4.06525675 10.1547105,4.00149824 C10.1229146,4.00088785 10.0002813,4 10,4 C9.99971954,4 9.87703007,4.00088785 9.84523417,4.00149824 C2.93333368,4.06525675 4.06955959,8.40460848 4.06955959,12.2507058 C4.06955959,12.3125776 4.07062694,12.3744494 4.07270547,12.4363213 C4.074784,12.4981931 4.06573958,15.2985732 4.49380452,16.0141778 C4.92186946,16.7297269 7.45733964,20 9.86107594,20 C9.863323,19.9978359 10.1409473,19.9976694 10.1433067,20 C12.547043,20 15.0825132,16.7297269 15.5105781,16.0141778 C15.938643,15.2986287 15.9316771,12.4363213 15.9316771,12.4363213 L15.9272954,12.4363213 Z" id="Path" fill="#E09F67"></path>
                            <path d="M19.95411,24.926415 C19.8340948,21.7298937 17.5326748,20.991575 16.1508617,20.8374449 C15.7714324,20.7951335 14.654166,20.796826 13.8846053,20.8038292 L13.8853152,20.8019033 C13.4385069,20.8059302 13.1083832,20.8117663 13.1083832,20.8117663 C13.0499044,21.8818644 11.8601266,22.4558983 10,22.4942995 C8.13987336,22.4558399 6.79000249,21.6401352 6.79000249,20.8117663 C6.79000249,20.8117663 6.49072888,20.8062804 6.07946655,20.8022535 L6.08017638,20.8041794 C5.33988234,20.7969427 4.23473768,20.7944332 3.84913829,20.8374449 C2.46732525,20.9915166 0.165905171,21.7298353 0.0458899551,24.926415 C-0.0573624439,25.7235611 0.0458899551,26.8623496 0.0458899551,26.8623496 C0.0458899551,26.8623496 3.40942831,27.9626785 9.76663101,27.9993872 C9.81397096,28.0002043 10.186029,28.0002043 10.233369,27.9993872 C16.5905717,27.9626785 19.95411,26.8623496 19.95411,26.8623496 C19.95411,26.8623496 20.0573624,25.7236195 19.95411,24.926415 Z" id="Path" fill="#15AFBF"></path>
                            <polygon id="Path" fill="#091E26" points="9.6 23.2 8.8 24.5012233 9.2032116 28 9.9967884 28 10.4 24.5012233"></polygon>
                            <path d="M10.4,23.0790954 C10.4,22.5746147 9.93459801,22.400688 9.60101174,22.4000491 L9.60096357,22.4 C9.6006745,22.4 9.60033725,22.4000491 9.6,22.4000491 C9.59971093,22.4000491 9.59937368,22.4 9.59903643,22.4 L9.59898826,22.4000491 C9.26540199,22.4007372 8.8,22.5746639 8.8,23.0790954 C8.8,23.5305479 9.23254441,23.9156045 9.52142126,23.9929599 C9.54136706,24.0023467 9.65863294,24.0023467 9.67853056,23.9929599 C9.96745559,23.9156537 10.4,23.5305479 10.4,23.0790954 L10.4,23.0790954 Z" id="Path" fill="#091E26"></path>
                            <polygon id="Path" fill="#29CED6" points="9.6 22.2685908 12.8754118 20 13.6 21.1712187 11.6 24"></polygon>
                            <polygon id="Path" fill="#29CED6" points="9.6 22.2685908 6.36745083 20 5.6 21.1712187 7.6 24"></polygon>
                            <path d="M16.7241698,10.9882967 C16.7241698,9.18510212 18.0065461,4 10.0242211,4 C2.04189612,4 3.26767069,10.0226217 3.26767069,11.0487563 C3.26767069,11.0487563 4.04063182,10.6421618 4.0959241,11.9991722 C4.33721034,11.9628335 4.38178938,11.5612205 4.33625806,10.9424146 C4.29072674,10.3236086 4.33625806,7.99955988 4.33625806,7.99955988 C4.80240355,7.37294084 5.23140977,6.62330521 5.45359071,5.93858626 C6.01175114,5.89758073 7.95061167,7.37294084 14.3771344,6.59430769 C15.1047427,7.03068624 16.1055986,7.99997937 15.8102699,11.9000668 C15.8015208,12.0157946 15.9297822,11.9991722 16.0050725,11.9991722 C16.2403475,11.1693608 16.3489679,10.9595614 16.7241698,10.9882967 L16.7241698,10.9882967 Z" id="Path" fill="#240703"></path>
                        </g>
                        <rect id="Rectangle" fill="#15AFBF" x="0" y="26" width="20" height="2"></rect>
                    </g>
                </g>
                <rect fill="#FFFFFF" opacity="0" x="0" y="0" width="72" height="72"></rect>
            </g>
        </g>
    </g>
</svg>